%
M48
M72
T01C0.0200
T02C0.0236
T03C0.0315
T04C0.0320
T05C0.0394
T06C0.1300
%
T01
X8680Y5680
X9930Y10430
T02
X10930Y10430
X9130Y9480
X8430Y9180
X9430Y8430
X11930Y8430
X11930Y8930
X14430Y9430
X16430Y9930
X18430Y11180
X19680Y13430
X14430Y12180
X9430Y12680
X6680Y12180
X5680Y11180
X5680Y10180
X3680Y9930
X3180Y9930
X3180Y9430
X3680Y9430
X3680Y8930
X3180Y8930
X3180Y8430
X3180Y8430
X3680Y8430
X3680Y8430
X4930Y8180
X6430Y8180
X7430Y6680
X7430Y3930
X11430Y4430
X14180Y2930
X17430Y3680
X18430Y3680
X19930Y3680
X15930Y5430
X14930Y6680
X17430Y8180
X12180Y6680
X3680Y10430
X3180Y10430
X3180Y10930
X3680Y10930
X3680Y11430
X3180Y11430
X3180Y11930
X3680Y11930
X3680Y12430
X3180Y12430
X2180Y12430
X1680Y12430
X1180Y12430
X1180Y11930
X1680Y11930
X2180Y11930
X1680Y11430
X1180Y11430
X1180Y10930
X1680Y10930
X1680Y10430
X1180Y10430
X1180Y9930
X1680Y9930
X1680Y9430
X1180Y9430
X1180Y8930
X1680Y8930
X1680Y8430
X1180Y8430
X1180Y7930
X1680Y7930
X2180Y7930
X2180Y8430
X1430Y7180
X5430Y12930
T03
X6930Y14430
X7930Y14430
X8930Y14430
X10930Y14430
X11930Y14430
X10930Y1680
X9930Y1680
X7930Y1680
X6930Y1680
X5930Y1680
T04
X18680Y1780
X18680Y2580
T05
X16430Y13680
X15430Y13680
X3680Y13430
X3680Y14430
X3680Y6930
X3680Y5930
X3680Y4930
X3680Y3930
X3680Y2930
T06
X1430Y1430
X1430Y14680
X20680Y14680
X20680Y1430
M30
