G75*
G70*
%OFA0B0*%
%FSLAX24Y24*%
%IPPOS*%
%LPD*%
%AMOC8*
5,1,8,0,0,1.08239X$1,22.5*
%
%ADD10R,0.3250X0.1000*%
%ADD11R,0.1000X0.3000*%
%ADD12R,0.0946X0.0316*%
%ADD13R,0.0671X0.0592*%
%ADD14R,0.0592X0.0671*%
%ADD15R,0.0710X0.0789*%
%ADD16R,0.0631X0.0474*%
%ADD17C,0.0674*%
%ADD18R,0.0474X0.0631*%
%ADD19C,0.0595*%
%ADD20R,0.0828X0.0828*%
%ADD21R,0.0828X0.0513*%
%ADD22R,0.0828X0.2718*%
%ADD23OC8,0.0600*%
%ADD24C,0.0600*%
%ADD25R,0.0790X0.0710*%
%ADD26C,0.1380*%
%ADD27C,0.0476*%
%ADD28C,0.0440*%
D10*
X002055Y007680D03*
X002055Y011680D03*
D11*
X000930Y009680D03*
D12*
X007156Y009930D03*
X007156Y010430D03*
X007156Y010930D03*
X007156Y011430D03*
X009204Y011430D03*
X009204Y010930D03*
X009204Y010430D03*
X009204Y009930D03*
X012156Y009930D03*
X012156Y010430D03*
X012156Y010930D03*
X012156Y011430D03*
X014204Y011430D03*
X014204Y010930D03*
X014204Y010430D03*
X014204Y009930D03*
X017406Y009930D03*
X017406Y010430D03*
X017406Y010930D03*
X017406Y011430D03*
X019454Y011430D03*
X019454Y010930D03*
X019454Y010430D03*
X019454Y009930D03*
X019454Y005930D03*
X019454Y005430D03*
X019454Y004930D03*
X019454Y004430D03*
X017406Y004430D03*
X017406Y004930D03*
X017406Y005430D03*
X017406Y005930D03*
X014954Y005930D03*
X014954Y005430D03*
X014954Y004930D03*
X014954Y004430D03*
X012906Y004430D03*
X012906Y004930D03*
X012906Y005430D03*
X012906Y005930D03*
X009704Y005930D03*
X009704Y005430D03*
X009704Y004930D03*
X009704Y004430D03*
X007656Y004430D03*
X007656Y004930D03*
X007656Y005430D03*
X007656Y005930D03*
D13*
X006680Y003804D03*
X006680Y003056D03*
X005680Y003056D03*
X005680Y003804D03*
X001430Y003554D03*
X001430Y002806D03*
X010180Y008556D03*
X010180Y009304D03*
X011180Y009304D03*
X011180Y008556D03*
X010930Y007304D03*
X010930Y006556D03*
X010680Y003804D03*
X011680Y003804D03*
X011680Y003056D03*
X010680Y003056D03*
X015680Y002806D03*
X015680Y003554D03*
X016680Y003554D03*
X016680Y002806D03*
X020680Y003056D03*
X020680Y003804D03*
X016180Y006556D03*
X016180Y007304D03*
X015180Y008556D03*
X015180Y009304D03*
X011180Y012056D03*
X011180Y012804D03*
X010180Y012804D03*
X010180Y012056D03*
X020680Y012056D03*
X020680Y012804D03*
X020680Y008304D03*
X020680Y007556D03*
D14*
X019054Y007180D03*
X018306Y007180D03*
X018306Y008180D03*
X019054Y008180D03*
X018054Y009180D03*
X017306Y009180D03*
X013804Y008180D03*
X013056Y008180D03*
X012806Y009180D03*
X013554Y009180D03*
X013304Y012180D03*
X012556Y012180D03*
X012556Y013180D03*
X013304Y013180D03*
X018306Y013430D03*
X019054Y013430D03*
X019054Y014430D03*
X018306Y014430D03*
X018306Y012180D03*
X019054Y012180D03*
X009054Y006680D03*
X008306Y006680D03*
X007804Y008180D03*
X007056Y008180D03*
X007056Y009180D03*
X007804Y009180D03*
X008054Y012180D03*
X007306Y012180D03*
X007306Y013180D03*
X008054Y013180D03*
X005554Y012180D03*
X004806Y012180D03*
X013056Y003680D03*
X013804Y003680D03*
X013804Y002180D03*
X013056Y002180D03*
X004054Y001680D03*
X003306Y001680D03*
D15*
X008129Y003430D03*
X009231Y003430D03*
D16*
X012997Y006556D03*
X013863Y006930D03*
X012997Y007304D03*
D17*
X015430Y013383D02*
X015430Y013977D01*
X016430Y013977D02*
X016430Y013383D01*
X003977Y013430D02*
X003383Y013430D01*
X003383Y014430D02*
X003977Y014430D01*
X003977Y006930D02*
X003383Y006930D01*
X003383Y005930D02*
X003977Y005930D01*
X003977Y004930D02*
X003383Y004930D01*
X003383Y003930D02*
X003977Y003930D01*
X003977Y002930D02*
X003383Y002930D01*
D18*
X006180Y006497D03*
X005806Y007363D03*
X006554Y007363D03*
D19*
X006930Y001680D03*
X007930Y001680D03*
X005930Y001680D03*
X009930Y001680D03*
X010930Y001680D03*
X010930Y014430D03*
X011930Y014430D03*
X008930Y014430D03*
X007930Y014430D03*
X006930Y014430D03*
D20*
X004900Y011243D03*
X004900Y009117D03*
D21*
X004900Y010180D03*
D22*
X002460Y010180D03*
D23*
X018680Y002580D03*
D24*
X018680Y001780D03*
D25*
X001430Y005370D03*
X001430Y006490D03*
D26*
X001430Y001430D03*
X001430Y014680D03*
X020680Y014680D03*
X020680Y001430D03*
D27*
X019930Y003680D03*
X018430Y003680D03*
X017430Y003680D03*
X015930Y005430D03*
X014930Y006680D03*
X017430Y008180D03*
X016430Y009930D03*
X014430Y009430D03*
X011930Y008930D03*
X011930Y008430D03*
X012180Y006680D03*
X009430Y008430D03*
X008430Y009180D03*
X009130Y009480D03*
X010930Y010430D03*
X009430Y012680D03*
X006680Y012180D03*
X005680Y011180D03*
X005680Y010180D03*
X003680Y009930D03*
X003180Y009930D03*
X003180Y009430D03*
X003680Y009430D03*
X003680Y008930D03*
X003180Y008930D03*
X003180Y008430D03*
X003180Y008430D03*
X003680Y008430D03*
X003680Y008430D03*
X004930Y008180D03*
X006430Y008180D03*
X007430Y006680D03*
X007430Y003930D03*
X011430Y004430D03*
X014180Y002930D03*
X003680Y010430D03*
X003180Y010430D03*
X003180Y010930D03*
X003680Y010930D03*
X003680Y011430D03*
X003180Y011430D03*
X003180Y011930D03*
X003680Y011930D03*
X003680Y012430D03*
X003180Y012430D03*
X002180Y012430D03*
X001680Y012430D03*
X001180Y012430D03*
X001180Y011930D03*
X001680Y011930D03*
X002180Y011930D03*
X001680Y011430D03*
X001180Y011430D03*
X001180Y010930D03*
X001680Y010930D03*
X001680Y010430D03*
X001180Y010430D03*
X001180Y009930D03*
X001680Y009930D03*
X001680Y009430D03*
X001180Y009430D03*
X001180Y008930D03*
X001680Y008930D03*
X001680Y008430D03*
X001180Y008430D03*
X001180Y007930D03*
X001680Y007930D03*
X002180Y007930D03*
X002180Y008430D03*
X001430Y007180D03*
X005430Y012930D03*
X014430Y012180D03*
X018430Y011180D03*
X019680Y013430D03*
D28*
X009930Y010430D03*
X008680Y005680D03*
M02*
