G75*
G70*
%OFA0B0*%
%FSLAX24Y24*%
%IPPOS*%
%LPD*%
%AMOC8*
5,1,8,0,0,1.08239X$1,22.5*
%
%ADD10C,0.0000*%
%ADD11R,0.0866X0.0236*%
%ADD12R,0.0591X0.0512*%
%ADD13R,0.0512X0.0591*%
%ADD14R,0.0630X0.0709*%
%ADD15R,0.0551X0.0394*%
%ADD16C,0.0594*%
%ADD17R,0.0394X0.0551*%
%ADD18C,0.0515*%
%ADD19R,0.0748X0.0748*%
%ADD20R,0.0748X0.0433*%
%ADD21R,0.0748X0.2638*%
%ADD22OC8,0.0520*%
%ADD23C,0.0520*%
%ADD24R,0.0710X0.0630*%
%ADD25C,0.0160*%
%ADD26C,0.0396*%
%ADD27C,0.0360*%
D10*
X000180Y000180D02*
X000180Y015926D01*
X022050Y015926D01*
X022050Y000180D01*
X000180Y000180D01*
X000780Y001430D02*
X000782Y001480D01*
X000788Y001530D01*
X000798Y001580D01*
X000811Y001628D01*
X000828Y001676D01*
X000849Y001722D01*
X000873Y001766D01*
X000901Y001808D01*
X000932Y001848D01*
X000966Y001885D01*
X001003Y001920D01*
X001042Y001951D01*
X001083Y001980D01*
X001127Y002005D01*
X001173Y002027D01*
X001220Y002045D01*
X001268Y002059D01*
X001317Y002070D01*
X001367Y002077D01*
X001417Y002080D01*
X001468Y002079D01*
X001518Y002074D01*
X001568Y002065D01*
X001616Y002053D01*
X001664Y002036D01*
X001710Y002016D01*
X001755Y001993D01*
X001798Y001966D01*
X001838Y001936D01*
X001876Y001903D01*
X001911Y001867D01*
X001944Y001828D01*
X001973Y001787D01*
X001999Y001744D01*
X002022Y001699D01*
X002041Y001652D01*
X002056Y001604D01*
X002068Y001555D01*
X002076Y001505D01*
X002080Y001455D01*
X002080Y001405D01*
X002076Y001355D01*
X002068Y001305D01*
X002056Y001256D01*
X002041Y001208D01*
X002022Y001161D01*
X001999Y001116D01*
X001973Y001073D01*
X001944Y001032D01*
X001911Y000993D01*
X001876Y000957D01*
X001838Y000924D01*
X001798Y000894D01*
X001755Y000867D01*
X001710Y000844D01*
X001664Y000824D01*
X001616Y000807D01*
X001568Y000795D01*
X001518Y000786D01*
X001468Y000781D01*
X001417Y000780D01*
X001367Y000783D01*
X001317Y000790D01*
X001268Y000801D01*
X001220Y000815D01*
X001173Y000833D01*
X001127Y000855D01*
X001083Y000880D01*
X001042Y000909D01*
X001003Y000940D01*
X000966Y000975D01*
X000932Y001012D01*
X000901Y001052D01*
X000873Y001094D01*
X000849Y001138D01*
X000828Y001184D01*
X000811Y001232D01*
X000798Y001280D01*
X000788Y001330D01*
X000782Y001380D01*
X000780Y001430D01*
X000780Y014680D02*
X000782Y014730D01*
X000788Y014780D01*
X000798Y014830D01*
X000811Y014878D01*
X000828Y014926D01*
X000849Y014972D01*
X000873Y015016D01*
X000901Y015058D01*
X000932Y015098D01*
X000966Y015135D01*
X001003Y015170D01*
X001042Y015201D01*
X001083Y015230D01*
X001127Y015255D01*
X001173Y015277D01*
X001220Y015295D01*
X001268Y015309D01*
X001317Y015320D01*
X001367Y015327D01*
X001417Y015330D01*
X001468Y015329D01*
X001518Y015324D01*
X001568Y015315D01*
X001616Y015303D01*
X001664Y015286D01*
X001710Y015266D01*
X001755Y015243D01*
X001798Y015216D01*
X001838Y015186D01*
X001876Y015153D01*
X001911Y015117D01*
X001944Y015078D01*
X001973Y015037D01*
X001999Y014994D01*
X002022Y014949D01*
X002041Y014902D01*
X002056Y014854D01*
X002068Y014805D01*
X002076Y014755D01*
X002080Y014705D01*
X002080Y014655D01*
X002076Y014605D01*
X002068Y014555D01*
X002056Y014506D01*
X002041Y014458D01*
X002022Y014411D01*
X001999Y014366D01*
X001973Y014323D01*
X001944Y014282D01*
X001911Y014243D01*
X001876Y014207D01*
X001838Y014174D01*
X001798Y014144D01*
X001755Y014117D01*
X001710Y014094D01*
X001664Y014074D01*
X001616Y014057D01*
X001568Y014045D01*
X001518Y014036D01*
X001468Y014031D01*
X001417Y014030D01*
X001367Y014033D01*
X001317Y014040D01*
X001268Y014051D01*
X001220Y014065D01*
X001173Y014083D01*
X001127Y014105D01*
X001083Y014130D01*
X001042Y014159D01*
X001003Y014190D01*
X000966Y014225D01*
X000932Y014262D01*
X000901Y014302D01*
X000873Y014344D01*
X000849Y014388D01*
X000828Y014434D01*
X000811Y014482D01*
X000798Y014530D01*
X000788Y014580D01*
X000782Y014630D01*
X000780Y014680D01*
X020030Y014680D02*
X020032Y014730D01*
X020038Y014780D01*
X020048Y014830D01*
X020061Y014878D01*
X020078Y014926D01*
X020099Y014972D01*
X020123Y015016D01*
X020151Y015058D01*
X020182Y015098D01*
X020216Y015135D01*
X020253Y015170D01*
X020292Y015201D01*
X020333Y015230D01*
X020377Y015255D01*
X020423Y015277D01*
X020470Y015295D01*
X020518Y015309D01*
X020567Y015320D01*
X020617Y015327D01*
X020667Y015330D01*
X020718Y015329D01*
X020768Y015324D01*
X020818Y015315D01*
X020866Y015303D01*
X020914Y015286D01*
X020960Y015266D01*
X021005Y015243D01*
X021048Y015216D01*
X021088Y015186D01*
X021126Y015153D01*
X021161Y015117D01*
X021194Y015078D01*
X021223Y015037D01*
X021249Y014994D01*
X021272Y014949D01*
X021291Y014902D01*
X021306Y014854D01*
X021318Y014805D01*
X021326Y014755D01*
X021330Y014705D01*
X021330Y014655D01*
X021326Y014605D01*
X021318Y014555D01*
X021306Y014506D01*
X021291Y014458D01*
X021272Y014411D01*
X021249Y014366D01*
X021223Y014323D01*
X021194Y014282D01*
X021161Y014243D01*
X021126Y014207D01*
X021088Y014174D01*
X021048Y014144D01*
X021005Y014117D01*
X020960Y014094D01*
X020914Y014074D01*
X020866Y014057D01*
X020818Y014045D01*
X020768Y014036D01*
X020718Y014031D01*
X020667Y014030D01*
X020617Y014033D01*
X020567Y014040D01*
X020518Y014051D01*
X020470Y014065D01*
X020423Y014083D01*
X020377Y014105D01*
X020333Y014130D01*
X020292Y014159D01*
X020253Y014190D01*
X020216Y014225D01*
X020182Y014262D01*
X020151Y014302D01*
X020123Y014344D01*
X020099Y014388D01*
X020078Y014434D01*
X020061Y014482D01*
X020048Y014530D01*
X020038Y014580D01*
X020032Y014630D01*
X020030Y014680D01*
X020030Y001430D02*
X020032Y001480D01*
X020038Y001530D01*
X020048Y001580D01*
X020061Y001628D01*
X020078Y001676D01*
X020099Y001722D01*
X020123Y001766D01*
X020151Y001808D01*
X020182Y001848D01*
X020216Y001885D01*
X020253Y001920D01*
X020292Y001951D01*
X020333Y001980D01*
X020377Y002005D01*
X020423Y002027D01*
X020470Y002045D01*
X020518Y002059D01*
X020567Y002070D01*
X020617Y002077D01*
X020667Y002080D01*
X020718Y002079D01*
X020768Y002074D01*
X020818Y002065D01*
X020866Y002053D01*
X020914Y002036D01*
X020960Y002016D01*
X021005Y001993D01*
X021048Y001966D01*
X021088Y001936D01*
X021126Y001903D01*
X021161Y001867D01*
X021194Y001828D01*
X021223Y001787D01*
X021249Y001744D01*
X021272Y001699D01*
X021291Y001652D01*
X021306Y001604D01*
X021318Y001555D01*
X021326Y001505D01*
X021330Y001455D01*
X021330Y001405D01*
X021326Y001355D01*
X021318Y001305D01*
X021306Y001256D01*
X021291Y001208D01*
X021272Y001161D01*
X021249Y001116D01*
X021223Y001073D01*
X021194Y001032D01*
X021161Y000993D01*
X021126Y000957D01*
X021088Y000924D01*
X021048Y000894D01*
X021005Y000867D01*
X020960Y000844D01*
X020914Y000824D01*
X020866Y000807D01*
X020818Y000795D01*
X020768Y000786D01*
X020718Y000781D01*
X020667Y000780D01*
X020617Y000783D01*
X020567Y000790D01*
X020518Y000801D01*
X020470Y000815D01*
X020423Y000833D01*
X020377Y000855D01*
X020333Y000880D01*
X020292Y000909D01*
X020253Y000940D01*
X020216Y000975D01*
X020182Y001012D01*
X020151Y001052D01*
X020123Y001094D01*
X020099Y001138D01*
X020078Y001184D01*
X020061Y001232D01*
X020048Y001280D01*
X020038Y001330D01*
X020032Y001380D01*
X020030Y001430D01*
D11*
X019454Y004430D03*
X019454Y004930D03*
X019454Y005430D03*
X019454Y005930D03*
X017406Y005930D03*
X017406Y005430D03*
X017406Y004930D03*
X017406Y004430D03*
X014954Y004430D03*
X014954Y004930D03*
X014954Y005430D03*
X014954Y005930D03*
X012906Y005930D03*
X012906Y005430D03*
X012906Y004930D03*
X012906Y004430D03*
X009704Y004430D03*
X009704Y004930D03*
X009704Y005430D03*
X009704Y005930D03*
X007656Y005930D03*
X007656Y005430D03*
X007656Y004930D03*
X007656Y004430D03*
X007156Y009930D03*
X007156Y010430D03*
X007156Y010930D03*
X007156Y011430D03*
X009204Y011430D03*
X009204Y010930D03*
X009204Y010430D03*
X009204Y009930D03*
X012156Y009930D03*
X012156Y010430D03*
X012156Y010930D03*
X012156Y011430D03*
X014204Y011430D03*
X014204Y010930D03*
X014204Y010430D03*
X014204Y009930D03*
X017406Y009930D03*
X017406Y010430D03*
X017406Y010930D03*
X017406Y011430D03*
X019454Y011430D03*
X019454Y010930D03*
X019454Y010430D03*
X019454Y009930D03*
D12*
X020680Y008304D03*
X020680Y007556D03*
X016180Y007304D03*
X016180Y006556D03*
X015180Y008556D03*
X015180Y009304D03*
X011180Y009304D03*
X011180Y008556D03*
X010180Y008556D03*
X010180Y009304D03*
X010930Y007304D03*
X010930Y006556D03*
X010680Y003804D03*
X011680Y003804D03*
X011680Y003056D03*
X010680Y003056D03*
X006680Y003056D03*
X006680Y003804D03*
X005680Y003804D03*
X005680Y003056D03*
X001430Y002806D03*
X001430Y003554D03*
X010180Y012056D03*
X010180Y012804D03*
X011180Y012804D03*
X011180Y012056D03*
X020680Y012056D03*
X020680Y012804D03*
X020680Y003804D03*
X020680Y003056D03*
X016680Y002806D03*
X016680Y003554D03*
X015680Y003554D03*
X015680Y002806D03*
D13*
X013804Y002180D03*
X013056Y002180D03*
X013056Y003680D03*
X013804Y003680D03*
X009054Y006680D03*
X008306Y006680D03*
X007804Y008180D03*
X007056Y008180D03*
X007056Y009180D03*
X007804Y009180D03*
X008054Y012180D03*
X007306Y012180D03*
X007306Y013180D03*
X008054Y013180D03*
X005554Y012180D03*
X004806Y012180D03*
X012556Y012180D03*
X013304Y012180D03*
X013304Y013180D03*
X012556Y013180D03*
X012806Y009180D03*
X013554Y009180D03*
X013804Y008180D03*
X013056Y008180D03*
X017306Y009180D03*
X018054Y009180D03*
X018306Y008180D03*
X019054Y008180D03*
X019054Y007180D03*
X018306Y007180D03*
X018306Y012180D03*
X019054Y012180D03*
X019054Y013430D03*
X018306Y013430D03*
X018306Y014430D03*
X019054Y014430D03*
X004054Y001680D03*
X003306Y001680D03*
D14*
X008129Y003430D03*
X009231Y003430D03*
D15*
X012997Y006556D03*
X013863Y006930D03*
X012997Y007304D03*
D16*
X015430Y013383D02*
X015430Y013977D01*
X016430Y013977D02*
X016430Y013383D01*
X003977Y013430D02*
X003383Y013430D01*
X003383Y014430D02*
X003977Y014430D01*
X003977Y006930D02*
X003383Y006930D01*
X003383Y005930D02*
X003977Y005930D01*
X003977Y004930D02*
X003383Y004930D01*
X003383Y003930D02*
X003977Y003930D01*
X003977Y002930D02*
X003383Y002930D01*
D17*
X006180Y006497D03*
X005806Y007363D03*
X006554Y007363D03*
D18*
X006930Y001680D03*
X007930Y001680D03*
X005930Y001680D03*
X009930Y001680D03*
X010930Y001680D03*
X010930Y014430D03*
X011930Y014430D03*
X008930Y014430D03*
X007930Y014430D03*
X006930Y014430D03*
D19*
X004900Y011243D03*
X004900Y009117D03*
D20*
X004900Y010180D03*
D21*
X002460Y010180D03*
D22*
X018680Y002580D03*
D23*
X018680Y001780D03*
D24*
X001430Y005370D03*
X001430Y006490D03*
D25*
X001430Y007180D01*
X001353Y006985D02*
X001051Y006985D01*
X001006Y006973D01*
X000965Y006949D01*
X000931Y006915D01*
X000907Y006874D01*
X000895Y006829D01*
X000895Y006567D01*
X001353Y006567D01*
X001353Y006985D01*
X001353Y006837D02*
X001507Y006837D01*
X001507Y006985D02*
X001507Y006567D01*
X001353Y006567D01*
X001353Y006412D01*
X001507Y006412D01*
X001507Y005995D01*
X001809Y005995D01*
X001854Y006007D01*
X001895Y006031D01*
X001929Y006064D01*
X001953Y006105D01*
X001965Y006151D01*
X001965Y006412D01*
X001507Y006412D01*
X001507Y006567D01*
X001965Y006567D01*
X001965Y006829D01*
X001953Y006874D01*
X001929Y006915D01*
X001895Y006949D01*
X001854Y006973D01*
X001809Y006985D01*
X001507Y006985D01*
X001507Y006679D02*
X001353Y006679D01*
X001353Y006520D02*
X000660Y006520D01*
X000660Y006362D02*
X000895Y006362D01*
X000895Y006412D02*
X000895Y006151D01*
X000907Y006105D01*
X000931Y006064D01*
X000965Y006031D01*
X001006Y006007D01*
X001051Y005995D01*
X001353Y005995D01*
X001353Y006412D01*
X000895Y006412D01*
X000895Y006203D02*
X000660Y006203D01*
X000660Y006045D02*
X000951Y006045D01*
X001001Y005865D02*
X000895Y005760D01*
X000895Y004981D01*
X001001Y004875D01*
X001170Y004875D01*
X001170Y003990D01*
X001060Y003990D01*
X000955Y003884D01*
X000955Y003224D01*
X000998Y003180D01*
X000955Y003136D01*
X000955Y002476D01*
X000964Y002466D01*
X000736Y002334D01*
X000660Y002258D01*
X000660Y013852D01*
X000736Y013776D01*
X000994Y013627D01*
X001281Y013550D01*
X001579Y013550D01*
X001866Y013627D01*
X002124Y013776D01*
X002334Y013986D01*
X002483Y014244D01*
X002560Y014531D01*
X002560Y014829D01*
X002483Y015116D01*
X002334Y015374D01*
X002262Y015446D01*
X019848Y015446D01*
X019776Y015374D01*
X019627Y015116D01*
X019550Y014829D01*
X019550Y014531D01*
X019627Y014244D01*
X019776Y013986D01*
X019986Y013776D01*
X020244Y013627D01*
X020531Y013550D01*
X020829Y013550D01*
X021116Y013627D01*
X021374Y013776D01*
X021570Y013972D01*
X021570Y002138D01*
X021374Y002334D01*
X021116Y002483D01*
X020829Y002560D01*
X020531Y002560D01*
X020244Y002483D01*
X019986Y002334D01*
X019776Y002124D01*
X019627Y001866D01*
X019550Y001579D01*
X019550Y001281D01*
X019627Y000994D01*
X019776Y000736D01*
X019852Y000660D01*
X006278Y000660D01*
X006860Y001243D01*
X007017Y001243D01*
X007178Y001309D01*
X007301Y001432D01*
X007367Y001593D01*
X007367Y001767D01*
X007304Y001920D01*
X007564Y001920D01*
X007556Y001909D01*
X007525Y001848D01*
X007503Y001782D01*
X007493Y001714D01*
X007493Y001680D01*
X007493Y001646D01*
X007503Y001578D01*
X007525Y001512D01*
X007556Y001451D01*
X007596Y001395D01*
X007645Y001346D01*
X007701Y001306D01*
X007762Y001275D01*
X007828Y001253D01*
X007896Y001243D01*
X007930Y001243D01*
X007964Y001243D01*
X008032Y001253D01*
X008098Y001275D01*
X008159Y001306D01*
X008215Y001346D01*
X008264Y001395D01*
X008304Y001451D01*
X008335Y001512D01*
X008357Y001578D01*
X008367Y001646D01*
X008367Y001680D01*
X007930Y001680D01*
X008367Y001680D01*
X008367Y001714D01*
X008357Y001782D01*
X008335Y001848D01*
X008304Y001909D01*
X008296Y001920D01*
X008822Y001920D01*
X009210Y001533D01*
X009283Y001460D01*
X009378Y001420D01*
X009571Y001420D01*
X009682Y001309D01*
X009843Y001243D01*
X010017Y001243D01*
X010178Y001309D01*
X010301Y001432D01*
X010367Y001593D01*
X010367Y001767D01*
X010304Y001920D01*
X010322Y001920D01*
X010493Y001750D01*
X010493Y001593D01*
X010559Y001432D01*
X010682Y001309D01*
X010843Y001243D01*
X011017Y001243D01*
X011178Y001309D01*
X011301Y001432D01*
X011367Y001593D01*
X011367Y001750D01*
X011538Y001920D01*
X012620Y001920D01*
X012620Y001810D01*
X012726Y001705D01*
X013386Y001705D01*
X013430Y001748D01*
X013474Y001705D01*
X014134Y001705D01*
X014240Y001810D01*
X014240Y002550D01*
X014134Y002655D01*
X013822Y002655D01*
X013650Y002827D01*
X013577Y002900D01*
X013482Y002940D01*
X013038Y002940D01*
X012772Y003206D01*
X012776Y003205D01*
X013008Y003205D01*
X013008Y003632D01*
X013104Y003632D01*
X013104Y003205D01*
X013336Y003205D01*
X013381Y003217D01*
X013422Y003241D01*
X013430Y003248D01*
X013474Y003205D01*
X014134Y003205D01*
X014240Y003310D01*
X014240Y003752D01*
X015205Y002788D01*
X015205Y002476D01*
X015310Y002370D01*
X016050Y002370D01*
X016155Y002476D01*
X016155Y003136D01*
X016112Y003180D01*
X016155Y003224D01*
X016155Y003884D01*
X016079Y003961D01*
X016788Y004670D01*
X016830Y004670D01*
X016783Y004650D01*
X016710Y004577D01*
X016460Y004327D01*
X016420Y004232D01*
X016420Y003990D01*
X016310Y003990D01*
X016205Y003884D01*
X016205Y003224D01*
X016248Y003180D01*
X016241Y003172D01*
X016217Y003131D01*
X016205Y003086D01*
X016205Y002854D01*
X016632Y002854D01*
X016632Y002758D01*
X016205Y002758D01*
X016205Y002526D01*
X016217Y002481D01*
X016241Y002440D01*
X016274Y002406D01*
X016315Y002382D01*
X016361Y002370D01*
X016632Y002370D01*
X016632Y002758D01*
X016728Y002758D01*
X016728Y002854D01*
X017155Y002854D01*
X017155Y003086D01*
X017143Y003131D01*
X017119Y003172D01*
X017112Y003180D01*
X017155Y003224D01*
X017155Y003420D01*
X017216Y003359D01*
X017355Y003302D01*
X017505Y003302D01*
X017644Y003359D01*
X017751Y003466D01*
X017808Y003605D01*
X017808Y003755D01*
X017751Y003894D01*
X017644Y004001D01*
X017505Y004058D01*
X017355Y004058D01*
X017216Y004001D01*
X017155Y003940D01*
X017100Y003940D01*
X017050Y003990D01*
X016940Y003990D01*
X016940Y004072D01*
X017000Y004132D01*
X017914Y004132D01*
X018019Y004237D01*
X018019Y004623D01*
X017962Y004680D01*
X018019Y004737D01*
X018019Y005123D01*
X017962Y005180D01*
X018019Y005237D01*
X018019Y005623D01*
X017962Y005680D01*
X018019Y005737D01*
X018019Y006123D01*
X017914Y006228D01*
X017666Y006228D01*
X017666Y007255D01*
X017627Y007351D01*
X017190Y007788D01*
X017898Y007788D01*
X017906Y007774D02*
X017940Y007741D01*
X017981Y007717D01*
X018026Y007705D01*
X018258Y007705D01*
X018258Y008132D01*
X018354Y008132D01*
X018354Y007722D01*
X018288Y007655D01*
X017976Y007655D01*
X017870Y007550D01*
X017870Y006810D01*
X017976Y006705D01*
X018636Y006705D01*
X018680Y006748D01*
X018724Y006705D01*
X019038Y006705D01*
X019460Y006283D01*
X019514Y006228D01*
X019454Y006228D01*
X019454Y005930D01*
X020067Y005930D01*
X020067Y006072D01*
X020054Y006118D01*
X020031Y006159D01*
X020019Y006170D01*
X020322Y006170D01*
X020420Y006072D01*
X020420Y004240D01*
X020310Y004240D01*
X020205Y004134D01*
X020205Y003474D01*
X020248Y003430D01*
X020205Y003386D01*
X020205Y003190D01*
X020038Y003190D01*
X019714Y003514D01*
X019714Y004132D01*
X019961Y004132D01*
X020067Y004237D01*
X020067Y004623D01*
X020009Y004680D01*
X020031Y004701D01*
X020054Y004742D01*
X020067Y004788D01*
X020067Y004930D01*
X020067Y005072D01*
X020054Y005118D01*
X020031Y005159D01*
X020009Y005180D01*
X020031Y005201D01*
X020054Y005242D01*
X020067Y005288D01*
X020067Y005430D01*
X020067Y005572D01*
X020054Y005618D01*
X020031Y005659D01*
X020009Y005680D01*
X020031Y005701D01*
X020054Y005742D01*
X020067Y005788D01*
X020067Y005930D01*
X019454Y005930D01*
X019454Y005930D01*
X019454Y005632D01*
X019454Y005430D01*
X020067Y005430D01*
X019454Y005430D01*
X019454Y005430D01*
X019454Y005132D01*
X019454Y004930D01*
X020067Y004930D01*
X019454Y004930D01*
X019454Y004930D01*
X019454Y004930D01*
X018930Y004930D01*
X018430Y004430D01*
X018430Y003680D01*
X017556Y002806D01*
X016680Y002806D01*
X016728Y002758D02*
X016728Y002370D01*
X016999Y002370D01*
X017045Y002382D01*
X017086Y002406D01*
X017119Y002440D01*
X017143Y002481D01*
X017155Y002526D01*
X017155Y002758D01*
X016728Y002758D01*
X016728Y002716D02*
X016632Y002716D01*
X016632Y002558D02*
X016728Y002558D01*
X016728Y002399D02*
X016632Y002399D01*
X016286Y002399D02*
X016079Y002399D01*
X016155Y002558D02*
X016205Y002558D01*
X016205Y002716D02*
X016155Y002716D01*
X016155Y002875D02*
X016205Y002875D01*
X016205Y003033D02*
X016155Y003033D01*
X016123Y003192D02*
X016237Y003192D01*
X016205Y003350D02*
X016155Y003350D01*
X016155Y003509D02*
X016205Y003509D01*
X016205Y003667D02*
X016155Y003667D01*
X016155Y003826D02*
X016205Y003826D01*
X016304Y003984D02*
X016102Y003984D01*
X016260Y004143D02*
X016420Y004143D01*
X016419Y004301D02*
X016449Y004301D01*
X016577Y004460D02*
X016592Y004460D01*
X016736Y004618D02*
X016750Y004618D01*
X016930Y004430D02*
X017406Y004430D01*
X017430Y004430D01*
X016930Y004430D02*
X016680Y004180D01*
X016680Y003554D01*
X016806Y003680D01*
X017430Y003680D01*
X017779Y003826D02*
X019194Y003826D01*
X019194Y003984D02*
X017661Y003984D01*
X017925Y004143D02*
X018935Y004143D01*
X018946Y004132D02*
X019194Y004132D01*
X019194Y003355D01*
X019233Y003259D01*
X019306Y003186D01*
X019783Y002710D01*
X019878Y002670D01*
X020260Y002670D01*
X020310Y002620D01*
X021050Y002620D01*
X021155Y002726D01*
X021155Y003386D01*
X021112Y003430D01*
X021155Y003474D01*
X021155Y004134D01*
X021050Y004240D01*
X020940Y004240D01*
X020940Y007120D01*
X021050Y007120D01*
X021155Y007226D01*
X021155Y007886D01*
X021112Y007930D01*
X021155Y007974D01*
X021155Y008634D01*
X021050Y008740D01*
X020940Y008740D01*
X020940Y009482D01*
X020900Y009577D01*
X020400Y010077D01*
X020327Y010150D01*
X020256Y010180D01*
X020327Y010210D01*
X020400Y010283D01*
X020900Y010783D01*
X020940Y010878D01*
X020940Y011620D01*
X021050Y011620D01*
X021155Y011726D01*
X021155Y012386D01*
X021112Y012430D01*
X021155Y012474D01*
X021155Y013134D01*
X021050Y013240D01*
X020310Y013240D01*
X020205Y013134D01*
X020205Y013064D01*
X019784Y013064D01*
X019894Y013109D01*
X020001Y013216D01*
X020058Y013355D01*
X020058Y013505D01*
X020001Y013644D01*
X019894Y013751D01*
X019755Y013808D01*
X019605Y013808D01*
X019490Y013761D01*
X019490Y013800D01*
X019384Y013905D01*
X019023Y013905D01*
X019072Y013955D01*
X019384Y013955D01*
X019490Y014060D01*
X019490Y014800D01*
X019384Y014905D01*
X018724Y014905D01*
X018680Y014862D01*
X018636Y014905D01*
X017976Y014905D01*
X017870Y014800D01*
X017870Y014687D01*
X017783Y014650D01*
X017710Y014577D01*
X017460Y014327D01*
X017420Y014232D01*
X017420Y013538D01*
X016322Y012440D01*
X016038Y012440D01*
X015690Y012788D01*
X015690Y012975D01*
X015700Y012979D01*
X015834Y013113D01*
X015907Y013288D01*
X015907Y014072D01*
X015834Y014247D01*
X015700Y014381D01*
X015525Y014454D01*
X015335Y014454D01*
X015160Y014381D01*
X015026Y014247D01*
X014953Y014072D01*
X014953Y013288D01*
X015026Y013113D01*
X015160Y012979D01*
X015170Y012975D01*
X015170Y012628D01*
X015210Y012533D01*
X015710Y012033D01*
X015783Y011960D01*
X015920Y011822D01*
X015920Y010878D01*
X015960Y010783D01*
X016033Y010710D01*
X016434Y010308D01*
X016420Y010308D01*
X015150Y011577D01*
X015077Y011650D01*
X014982Y011690D01*
X014749Y011690D01*
X014711Y011728D01*
X013696Y011728D01*
X013591Y011623D01*
X013591Y011237D01*
X013648Y011180D01*
X013591Y011123D01*
X013591Y010737D01*
X013638Y010690D01*
X013538Y010690D01*
X013150Y011077D01*
X013150Y011077D01*
X013077Y011150D01*
X012982Y011190D01*
X012722Y011190D01*
X012769Y011237D01*
X012769Y011623D01*
X012687Y011705D01*
X012886Y011705D01*
X012930Y011748D01*
X012974Y011705D01*
X013634Y011705D01*
X013740Y011810D01*
X013740Y012550D01*
X013634Y012655D01*
X013322Y012655D01*
X013273Y012705D01*
X013634Y012705D01*
X013740Y012810D01*
X013740Y013550D01*
X013634Y013655D01*
X013544Y013655D01*
X013524Y013703D01*
X013451Y013776D01*
X012577Y014650D01*
X012482Y014690D01*
X012289Y014690D01*
X012178Y014801D01*
X012017Y014867D01*
X011843Y014867D01*
X011682Y014801D01*
X011559Y014678D01*
X011493Y014517D01*
X011493Y014343D01*
X011556Y014190D01*
X011538Y014190D01*
X011367Y014360D01*
X011367Y014517D01*
X011301Y014678D01*
X011178Y014801D01*
X011017Y014867D01*
X010843Y014867D01*
X010682Y014801D01*
X010559Y014678D01*
X010493Y014517D01*
X010493Y014343D01*
X010559Y014182D01*
X010682Y014059D01*
X010843Y013993D01*
X011000Y013993D01*
X011210Y013783D01*
X011283Y013710D01*
X011330Y013690D01*
X009378Y013690D01*
X009283Y013650D01*
X009210Y013577D01*
X009072Y013440D01*
X008490Y013440D01*
X008490Y013550D01*
X008384Y013655D01*
X008190Y013655D01*
X008190Y014071D01*
X008301Y014182D01*
X008367Y014343D01*
X008367Y014517D01*
X008304Y014670D01*
X008322Y014670D01*
X008493Y014500D01*
X008493Y014343D01*
X008559Y014182D01*
X008682Y014059D01*
X008843Y013993D01*
X009017Y013993D01*
X009178Y014059D01*
X009301Y014182D01*
X009367Y014343D01*
X009367Y014517D01*
X009301Y014678D01*
X009178Y014801D01*
X009017Y014867D01*
X008860Y014867D01*
X008650Y015077D01*
X008577Y015150D01*
X008482Y015190D01*
X004378Y015190D01*
X004283Y015150D01*
X004039Y014907D01*
X003288Y014907D01*
X003113Y014834D01*
X002979Y014700D01*
X002906Y014525D01*
X002906Y014335D01*
X002979Y014160D01*
X003113Y014026D01*
X003288Y013953D01*
X004072Y013953D01*
X004247Y014026D01*
X004381Y014160D01*
X004454Y014335D01*
X004454Y014525D01*
X004436Y014568D01*
X004538Y014670D01*
X006556Y014670D01*
X006493Y014517D01*
X006493Y014360D01*
X005960Y013827D01*
X005920Y013732D01*
X005920Y012620D01*
X005879Y012643D01*
X005834Y012655D01*
X005602Y012655D01*
X005602Y012228D01*
X005506Y012228D01*
X005506Y012655D01*
X005274Y012655D01*
X005229Y012643D01*
X005188Y012619D01*
X005180Y012612D01*
X005136Y012655D01*
X004476Y012655D01*
X004370Y012550D01*
X004370Y011810D01*
X004418Y011763D01*
X004346Y011692D01*
X004346Y010794D01*
X004452Y010689D01*
X005349Y010689D01*
X005454Y010794D01*
X005454Y010871D01*
X005466Y010859D01*
X005605Y010802D01*
X005755Y010802D01*
X005894Y010859D01*
X005920Y010885D01*
X005920Y008788D01*
X005308Y008176D01*
X005308Y008255D01*
X005251Y008394D01*
X005190Y008455D01*
X005190Y008563D01*
X005349Y008563D01*
X005454Y008668D01*
X005454Y009566D01*
X005349Y009671D01*
X004452Y009671D01*
X004346Y009566D01*
X004346Y008668D01*
X004452Y008563D01*
X004670Y008563D01*
X004670Y008455D01*
X004609Y008394D01*
X004552Y008255D01*
X004552Y008105D01*
X000660Y008105D01*
X000660Y007947D02*
X004629Y007947D01*
X004609Y007966D02*
X004716Y007859D01*
X004855Y007802D01*
X004934Y007802D01*
X004357Y007224D01*
X004247Y007334D01*
X004072Y007407D01*
X003288Y007407D01*
X003113Y007334D01*
X002979Y007200D01*
X002906Y007025D01*
X002906Y006835D01*
X002979Y006660D01*
X003113Y006526D01*
X003288Y006453D01*
X004072Y006453D01*
X004247Y006526D01*
X004381Y006660D01*
X004385Y006670D01*
X004482Y006670D01*
X004577Y006710D01*
X005429Y007561D01*
X005429Y007381D01*
X005788Y007381D01*
X005788Y007345D01*
X005824Y007345D01*
X005824Y006907D01*
X005864Y006907D01*
X005803Y006847D01*
X005803Y006757D01*
X004945Y006757D01*
X004850Y006717D01*
X004357Y006224D01*
X004247Y006334D01*
X004072Y006407D01*
X003288Y006407D01*
X003113Y006334D01*
X002979Y006200D01*
X002906Y006025D01*
X002906Y005835D01*
X002979Y005660D01*
X003113Y005526D01*
X003288Y005453D01*
X004072Y005453D01*
X004247Y005526D01*
X004381Y005660D01*
X004385Y005670D01*
X004482Y005670D01*
X004577Y005710D01*
X004650Y005783D01*
X005105Y006237D01*
X005803Y006237D01*
X005803Y006147D01*
X005909Y006041D01*
X006451Y006041D01*
X006557Y006147D01*
X006557Y006847D01*
X006496Y006907D01*
X006825Y006907D01*
X006931Y007013D01*
X006931Y007103D01*
X007923Y007103D01*
X007906Y007086D01*
X007882Y007045D01*
X007870Y006999D01*
X007870Y006728D01*
X008258Y006728D01*
X008258Y006632D01*
X008354Y006632D01*
X008354Y006205D01*
X008586Y006205D01*
X008631Y006217D01*
X008672Y006241D01*
X008680Y006248D01*
X008724Y006205D01*
X008794Y006205D01*
X008794Y006162D01*
X008672Y006040D01*
X008608Y006040D01*
X008476Y005985D01*
X008375Y005884D01*
X008320Y005752D01*
X008320Y005653D01*
X008232Y005690D01*
X008222Y005690D01*
X008269Y005737D01*
X008269Y006123D01*
X008187Y006205D01*
X008258Y006205D01*
X008258Y006632D01*
X007870Y006632D01*
X007870Y006361D01*
X007882Y006315D01*
X007906Y006274D01*
X007940Y006241D01*
X007961Y006228D01*
X007149Y006228D01*
X007043Y006123D01*
X007043Y005737D01*
X007101Y005680D01*
X007043Y005623D01*
X007043Y005237D01*
X007091Y005190D01*
X004385Y005190D01*
X004381Y005200D01*
X004247Y005334D01*
X004072Y005407D01*
X003288Y005407D01*
X003113Y005334D01*
X002979Y005200D01*
X002906Y005025D01*
X002906Y004835D01*
X002979Y004660D01*
X003113Y004526D01*
X003288Y004453D01*
X004072Y004453D01*
X004247Y004526D01*
X004381Y004660D01*
X004385Y004670D01*
X007091Y004670D01*
X007079Y004659D01*
X007056Y004618D01*
X004339Y004618D01*
X004087Y004460D02*
X007043Y004460D01*
X007043Y004430D02*
X007656Y004430D01*
X007043Y004430D01*
X007043Y004572D01*
X007056Y004618D01*
X007043Y004430D02*
X007043Y004288D01*
X007056Y004242D01*
X007067Y004223D01*
X007050Y004240D01*
X006310Y004240D01*
X006205Y004134D01*
X006205Y003822D01*
X006155Y003773D01*
X006155Y004134D01*
X006050Y004240D01*
X005310Y004240D01*
X005205Y004134D01*
X005205Y004064D01*
X005002Y004064D01*
X004907Y004024D01*
X004533Y003650D01*
X004460Y003577D01*
X004420Y003482D01*
X004420Y003109D01*
X004419Y003113D01*
X004385Y003180D01*
X004341Y003241D01*
X004287Y003294D01*
X004227Y003338D01*
X004160Y003372D01*
X004089Y003395D01*
X004014Y003407D01*
X003698Y003407D01*
X003698Y002948D01*
X003662Y002948D01*
X003662Y002912D01*
X003698Y002912D01*
X003698Y002453D01*
X004014Y002453D01*
X004089Y002465D01*
X004101Y002469D01*
X004072Y002440D01*
X003628Y002440D01*
X003533Y002400D01*
X003288Y002155D01*
X002976Y002155D01*
X002870Y002050D01*
X002870Y001310D01*
X002976Y001205D01*
X003288Y001205D01*
X003832Y000660D01*
X002258Y000660D01*
X002334Y000736D01*
X002483Y000994D01*
X002560Y001281D01*
X002560Y001579D01*
X002483Y001866D01*
X002334Y002124D01*
X002124Y002334D01*
X001896Y002466D01*
X001905Y002476D01*
X001905Y002670D01*
X001982Y002670D01*
X002077Y002710D01*
X003003Y003636D01*
X003113Y003526D01*
X003288Y003453D01*
X004072Y003453D01*
X004247Y003526D01*
X004381Y003660D01*
X004454Y003835D01*
X004454Y004025D01*
X004381Y004200D01*
X004247Y004334D01*
X004072Y004407D01*
X003288Y004407D01*
X003113Y004334D01*
X002979Y004200D01*
X002975Y004190D01*
X002878Y004190D01*
X002783Y004150D01*
X001905Y003273D01*
X001905Y003884D01*
X001800Y003990D01*
X001690Y003990D01*
X001690Y004875D01*
X001859Y004875D01*
X001965Y004981D01*
X001965Y005760D01*
X001859Y005865D01*
X001001Y005865D01*
X000895Y005728D02*
X000660Y005728D01*
X000660Y005886D02*
X002906Y005886D01*
X002914Y006045D02*
X001909Y006045D01*
X001965Y006203D02*
X002982Y006203D01*
X003179Y006362D02*
X001965Y006362D01*
X001965Y006679D02*
X002971Y006679D01*
X002906Y006837D02*
X001963Y006837D01*
X001507Y006520D02*
X003127Y006520D01*
X002906Y006996D02*
X000660Y006996D01*
X000660Y007154D02*
X002960Y007154D01*
X003091Y007313D02*
X000660Y007313D01*
X000660Y007471D02*
X004603Y007471D01*
X004445Y007313D02*
X004269Y007313D01*
X004430Y006930D02*
X006180Y008680D01*
X006180Y013680D01*
X006930Y014430D01*
X007306Y014054D01*
X007306Y013180D01*
X006870Y013177D02*
X006440Y013177D01*
X006440Y013019D02*
X006870Y013019D01*
X006870Y012860D02*
X006440Y012860D01*
X006440Y012702D02*
X009705Y012702D01*
X009705Y012756D02*
X009705Y012524D01*
X009717Y012479D01*
X009741Y012438D01*
X009748Y012430D01*
X009705Y012386D01*
X009705Y011726D01*
X009726Y011705D01*
X009706Y011716D01*
X009660Y011728D01*
X009204Y011728D01*
X009204Y011430D01*
X009817Y011430D01*
X009817Y011572D01*
X009804Y011618D01*
X009793Y011637D01*
X009810Y011620D01*
X009923Y011620D01*
X009960Y011533D01*
X010710Y010783D01*
X010783Y010710D01*
X010878Y010670D01*
X011591Y010670D01*
X011543Y010623D01*
X011543Y010237D01*
X011591Y010190D01*
X011378Y010190D01*
X011283Y010150D01*
X011033Y009900D01*
X010960Y009827D01*
X010923Y009740D01*
X010810Y009740D01*
X010705Y009634D01*
X010705Y008974D01*
X010748Y008930D01*
X010741Y008922D01*
X010717Y008881D01*
X010705Y008836D01*
X010705Y008604D01*
X011132Y008604D01*
X011132Y008508D01*
X010705Y008508D01*
X010705Y008276D01*
X010717Y008231D01*
X010740Y008190D01*
X010620Y008190D01*
X010655Y008226D01*
X010655Y008886D01*
X010612Y008930D01*
X010655Y008974D01*
X010655Y009418D01*
X010690Y009502D01*
X010690Y010732D01*
X010650Y010827D01*
X010577Y010900D01*
X010400Y011077D01*
X010327Y011150D01*
X010232Y011190D01*
X009769Y011190D01*
X009781Y011201D01*
X009804Y011242D01*
X009817Y011288D01*
X009817Y011430D01*
X009204Y011430D01*
X009204Y011430D01*
X009204Y011430D01*
X009204Y012454D01*
X009430Y012680D01*
X009554Y012804D01*
X010180Y012804D01*
X011180Y012804D01*
X011228Y012756D02*
X011228Y012852D01*
X011655Y012852D01*
X011655Y013084D01*
X011654Y013088D01*
X011670Y013072D01*
X011670Y012378D01*
X011710Y012283D01*
X011960Y012033D01*
X011960Y012033D01*
X012033Y011960D01*
X012120Y011923D01*
X012120Y011810D01*
X012202Y011728D01*
X011655Y011728D01*
X011655Y012386D01*
X011612Y012430D01*
X011619Y012438D01*
X011643Y012479D01*
X011655Y012524D01*
X011655Y012756D01*
X011228Y012756D01*
X011132Y012756D02*
X010705Y012756D01*
X010705Y012524D01*
X010717Y012479D01*
X010741Y012438D01*
X010748Y012430D01*
X010705Y012386D01*
X010705Y011726D01*
X010810Y011620D01*
X010923Y011620D01*
X010960Y011533D01*
X011033Y011460D01*
X011283Y011210D01*
X011330Y011190D01*
X011038Y011190D01*
X010579Y011649D01*
X010655Y011726D01*
X010655Y012386D01*
X010612Y012430D01*
X010619Y012438D01*
X010643Y012479D01*
X010655Y012524D01*
X010655Y012756D01*
X010228Y012756D01*
X010228Y012852D01*
X010655Y012852D01*
X010655Y013084D01*
X010643Y013129D01*
X010620Y013170D01*
X010740Y013170D01*
X010717Y013129D01*
X010705Y013084D01*
X010705Y012852D01*
X011132Y012852D01*
X011132Y012756D01*
X010705Y012702D02*
X010655Y012702D01*
X010655Y012860D02*
X010705Y012860D01*
X010705Y013019D02*
X010655Y013019D01*
X010655Y012543D02*
X010705Y012543D01*
X010705Y012385D02*
X010655Y012385D01*
X010655Y012226D02*
X010705Y012226D01*
X010705Y012068D02*
X010655Y012068D01*
X010655Y011909D02*
X010705Y011909D01*
X010705Y011751D02*
X010655Y011751D01*
X010636Y011592D02*
X010935Y011592D01*
X011059Y011434D02*
X010794Y011434D01*
X010953Y011275D02*
X011217Y011275D01*
X011430Y011430D02*
X011180Y011680D01*
X011180Y012056D01*
X011655Y012068D02*
X011925Y012068D01*
X011766Y012226D02*
X011655Y012226D01*
X011655Y012385D02*
X011670Y012385D01*
X011655Y012543D02*
X011670Y012543D01*
X011655Y012702D02*
X011670Y012702D01*
X011655Y012860D02*
X011670Y012860D01*
X011655Y013019D02*
X011670Y013019D01*
X011930Y013180D02*
X011930Y012430D01*
X012180Y012180D01*
X012556Y012180D01*
X012120Y011909D02*
X011655Y011909D01*
X011655Y011751D02*
X012180Y011751D01*
X012156Y011430D02*
X011430Y011430D01*
X010930Y010930D02*
X012156Y010930D01*
X012930Y010930D01*
X013430Y010430D01*
X014204Y010430D01*
X014680Y010430D01*
X015180Y009930D01*
X015180Y009304D01*
X014705Y009373D02*
X014105Y009373D01*
X014077Y009400D02*
X013990Y009437D01*
X013990Y009550D01*
X013908Y009632D01*
X014204Y009632D01*
X014660Y009632D01*
X014706Y009644D01*
X014726Y009655D01*
X014705Y009634D01*
X014705Y008974D01*
X014748Y008930D01*
X014705Y008886D01*
X014705Y008816D01*
X014662Y008816D01*
X014077Y009400D01*
X013990Y009532D02*
X014705Y009532D01*
X014430Y009430D02*
X014204Y009656D01*
X014204Y009930D01*
X014204Y009632D01*
X014204Y009930D01*
X014204Y009930D01*
X013591Y009930D01*
X013591Y009887D01*
X012900Y010577D01*
X012827Y010650D01*
X012780Y010670D01*
X012822Y010670D01*
X013283Y010210D01*
X013378Y010170D01*
X013482Y010170D01*
X013638Y010170D01*
X013627Y010159D01*
X013603Y010118D01*
X013591Y010072D01*
X013591Y009930D01*
X014204Y009930D01*
X014204Y009930D01*
X014204Y009849D02*
X014204Y009849D01*
X014204Y009690D02*
X014204Y009690D01*
X014263Y009215D02*
X014705Y009215D01*
X014705Y009056D02*
X014422Y009056D01*
X014580Y008898D02*
X014716Y008898D01*
X014554Y008556D02*
X013930Y009180D01*
X013554Y009180D01*
X013554Y009556D01*
X012680Y010430D01*
X012156Y010430D01*
X011543Y010483D02*
X010690Y010483D01*
X010690Y010641D02*
X011562Y010641D01*
X011543Y010324D02*
X010690Y010324D01*
X010690Y010166D02*
X011319Y010166D01*
X011139Y010007D02*
X010690Y010007D01*
X010690Y009849D02*
X010981Y009849D01*
X011180Y009680D02*
X011180Y009304D01*
X011556Y009304D01*
X011930Y008930D01*
X012074Y008581D02*
X012651Y008581D01*
X012620Y008550D02*
X012726Y008655D01*
X013386Y008655D01*
X013430Y008612D01*
X013474Y008655D01*
X014087Y008655D01*
X013961Y008781D01*
X013884Y008705D01*
X013224Y008705D01*
X013180Y008748D01*
X013136Y008705D01*
X012476Y008705D01*
X012370Y008810D01*
X012370Y008923D01*
X012308Y008949D01*
X012308Y008855D01*
X012251Y008716D01*
X012144Y008609D01*
X012005Y008552D01*
X011855Y008552D01*
X011716Y008609D01*
X011655Y008670D01*
X011655Y008604D01*
X011228Y008604D01*
X011228Y008508D01*
X011655Y008508D01*
X011655Y008276D01*
X011643Y008231D01*
X011620Y008190D01*
X012620Y008190D01*
X012620Y008550D01*
X012620Y008422D02*
X011655Y008422D01*
X011652Y008264D02*
X012620Y008264D01*
X013056Y008180D02*
X013180Y008180D01*
X012930Y007930D01*
X008930Y007930D01*
X008363Y007363D01*
X006554Y007363D01*
X006931Y007623D02*
X006931Y007705D01*
X007008Y007705D01*
X007008Y008132D01*
X007104Y008132D01*
X007368Y008132D01*
X007368Y008228D01*
X007104Y008228D01*
X007104Y008132D01*
X007104Y007705D01*
X007336Y007705D01*
X007381Y007717D01*
X007422Y007741D01*
X007430Y007748D01*
X007474Y007705D01*
X008134Y007705D01*
X008240Y007810D01*
X008240Y007920D01*
X008482Y007920D01*
X008577Y007960D01*
X009052Y008434D01*
X009052Y008355D01*
X009109Y008216D01*
X009135Y008190D01*
X008878Y008190D01*
X008783Y008150D01*
X008255Y007623D01*
X006931Y007623D01*
X006931Y007630D02*
X008262Y007630D01*
X008218Y007788D02*
X008420Y007788D01*
X008546Y007947D02*
X008579Y007947D01*
X008723Y008105D02*
X008737Y008105D01*
X008881Y008264D02*
X009090Y008264D01*
X009052Y008422D02*
X009040Y008422D01*
X009430Y008430D02*
X010054Y008430D01*
X010180Y008556D01*
X010655Y008581D02*
X011132Y008581D01*
X011180Y008556D02*
X011306Y008430D01*
X011930Y008430D01*
X011786Y008581D02*
X011228Y008581D01*
X010705Y008739D02*
X010655Y008739D01*
X010644Y008898D02*
X010726Y008898D01*
X010705Y009056D02*
X010655Y009056D01*
X010655Y009215D02*
X010705Y009215D01*
X010705Y009373D02*
X010655Y009373D01*
X010690Y009532D02*
X010705Y009532D01*
X010690Y009690D02*
X010760Y009690D01*
X010430Y009554D02*
X010430Y010680D01*
X010180Y010930D01*
X009204Y010930D01*
X008680Y010930D01*
X008054Y011556D01*
X008054Y012180D01*
X008490Y012226D02*
X009705Y012226D01*
X009705Y012068D02*
X008490Y012068D01*
X008490Y011909D02*
X009705Y011909D01*
X009705Y011751D02*
X008430Y011751D01*
X008384Y011705D02*
X008490Y011810D01*
X008490Y012550D01*
X008384Y012655D01*
X007724Y012655D01*
X007680Y012612D01*
X007672Y012619D01*
X007631Y012643D01*
X007586Y012655D01*
X007354Y012655D01*
X007354Y012228D01*
X007258Y012228D01*
X007258Y012655D01*
X007026Y012655D01*
X006981Y012643D01*
X006940Y012619D01*
X006906Y012586D01*
X006882Y012545D01*
X006870Y012499D01*
X006870Y012228D01*
X007258Y012228D01*
X007258Y012132D01*
X006870Y012132D01*
X006870Y011861D01*
X006882Y011815D01*
X006906Y011774D01*
X006940Y011741D01*
X006961Y011728D01*
X006649Y011728D01*
X006543Y011623D01*
X006543Y011237D01*
X006601Y011180D01*
X006543Y011123D01*
X006543Y010737D01*
X006601Y010680D01*
X006543Y010623D01*
X006543Y010237D01*
X006601Y010180D01*
X006543Y010123D01*
X006543Y009737D01*
X006649Y009632D01*
X006711Y009632D01*
X006690Y009619D01*
X006656Y009586D01*
X006632Y009545D01*
X006620Y009499D01*
X006620Y009228D01*
X007008Y009228D01*
X007008Y009132D01*
X007104Y009132D01*
X007104Y008705D01*
X007336Y008705D01*
X007381Y008717D01*
X007422Y008741D01*
X007430Y008748D01*
X007474Y008705D01*
X008134Y008705D01*
X008240Y008810D01*
X008240Y008849D01*
X008355Y008802D01*
X008505Y008802D01*
X008644Y008859D01*
X008751Y008966D01*
X008808Y009105D01*
X008808Y009255D01*
X008751Y009394D01*
X008644Y009501D01*
X008505Y009558D01*
X008355Y009558D01*
X008240Y009511D01*
X008240Y009550D01*
X008134Y009655D01*
X008064Y009655D01*
X008064Y010358D01*
X008024Y010453D01*
X007951Y010526D01*
X007827Y010650D01*
X007780Y010670D01*
X007822Y010670D01*
X008210Y010283D01*
X008283Y010210D01*
X008378Y010170D01*
X008638Y010170D01*
X008591Y010123D01*
X008591Y009737D01*
X008696Y009632D01*
X009705Y009632D01*
X009705Y009564D01*
X009502Y009564D01*
X009407Y009524D01*
X009334Y009451D01*
X008322Y008440D01*
X008240Y008440D01*
X008240Y008550D01*
X008134Y008655D01*
X007474Y008655D01*
X007430Y008612D01*
X007422Y008619D01*
X007381Y008643D01*
X007336Y008655D01*
X007104Y008655D01*
X007104Y008228D01*
X007008Y008228D01*
X007008Y008655D01*
X006776Y008655D01*
X006731Y008643D01*
X006690Y008619D01*
X006656Y008586D01*
X006632Y008545D01*
X006620Y008499D01*
X006620Y008228D01*
X007008Y008228D01*
X007008Y008132D01*
X006620Y008132D01*
X006620Y007861D01*
X006631Y007819D01*
X006283Y007819D01*
X006177Y007713D01*
X006177Y007684D01*
X006171Y007708D01*
X006147Y007749D01*
X006113Y007783D01*
X006072Y007806D01*
X006027Y007819D01*
X005824Y007819D01*
X005824Y007382D01*
X005788Y007382D01*
X005788Y007819D01*
X005686Y007819D01*
X006327Y008460D01*
X006400Y008533D01*
X006440Y008628D01*
X006440Y013572D01*
X006860Y013993D01*
X007000Y013993D01*
X007046Y013946D01*
X007046Y013655D01*
X006976Y013655D01*
X006870Y013550D01*
X006870Y012810D01*
X006976Y012705D01*
X007636Y012705D01*
X007680Y012748D01*
X007724Y012705D01*
X008384Y012705D01*
X008490Y012810D01*
X008490Y012920D01*
X009232Y012920D01*
X009327Y012960D01*
X009538Y013170D01*
X009740Y013170D01*
X009717Y013129D01*
X009705Y013084D01*
X009705Y012852D01*
X010132Y012852D01*
X010132Y012756D01*
X009705Y012756D01*
X009705Y012860D02*
X008490Y012860D01*
X008490Y012543D02*
X009705Y012543D01*
X009705Y012385D02*
X008490Y012385D01*
X008384Y011705D02*
X008314Y011705D01*
X008314Y011664D01*
X008591Y011387D01*
X008591Y011430D01*
X009204Y011430D01*
X009204Y011728D01*
X008747Y011728D01*
X008701Y011716D01*
X008660Y011692D01*
X008627Y011659D01*
X008603Y011618D01*
X008591Y011572D01*
X008591Y011430D01*
X009204Y011430D01*
X009204Y011430D01*
X009204Y011434D02*
X009204Y011434D01*
X009204Y011592D02*
X009204Y011592D01*
X009811Y011592D02*
X009935Y011592D01*
X009817Y011434D02*
X010059Y011434D01*
X010217Y011275D02*
X009813Y011275D01*
X010361Y011117D02*
X010376Y011117D01*
X010520Y010958D02*
X010534Y010958D01*
X010577Y010900D02*
X010577Y010900D01*
X010662Y010800D02*
X010693Y010800D01*
X010930Y010930D02*
X010180Y011680D01*
X010180Y012056D01*
X009705Y013019D02*
X009386Y013019D01*
X009180Y013180D02*
X009430Y013430D01*
X011680Y013430D01*
X011930Y013180D01*
X012556Y013180D02*
X012556Y013554D01*
X012180Y013930D01*
X011430Y013930D01*
X010930Y014430D01*
X010528Y014604D02*
X009332Y014604D01*
X009367Y014445D02*
X010493Y014445D01*
X010516Y014287D02*
X009344Y014287D01*
X009247Y014128D02*
X010613Y014128D01*
X011023Y013970D02*
X008190Y013970D01*
X008190Y013811D02*
X011181Y013811D01*
X011441Y014287D02*
X011516Y014287D01*
X011493Y014445D02*
X011367Y014445D01*
X011332Y014604D02*
X011528Y014604D01*
X011643Y014762D02*
X011217Y014762D01*
X010643Y014762D02*
X009217Y014762D01*
X008930Y014430D02*
X008430Y014930D01*
X004430Y014930D01*
X003930Y014430D01*
X003680Y014430D01*
X003662Y013907D02*
X003346Y013907D01*
X003271Y013895D01*
X003200Y013872D01*
X003133Y013838D01*
X003073Y013794D01*
X003019Y013741D01*
X002975Y013680D01*
X002941Y013613D01*
X002918Y013542D01*
X002906Y013468D01*
X002906Y013448D01*
X003662Y013448D01*
X003662Y013907D01*
X003698Y013907D02*
X003698Y013448D01*
X003662Y013448D01*
X003662Y013412D01*
X003698Y013412D01*
X003698Y013448D01*
X004454Y013448D01*
X004454Y013468D01*
X004442Y013542D01*
X004419Y013613D01*
X004385Y013680D01*
X004341Y013741D01*
X004287Y013794D01*
X004227Y013838D01*
X004160Y013872D01*
X004089Y013895D01*
X004014Y013907D01*
X003698Y013907D01*
X003698Y013811D02*
X003662Y013811D01*
X003662Y013653D02*
X003698Y013653D01*
X003698Y013494D02*
X003662Y013494D01*
X003662Y013412D02*
X002906Y013412D01*
X002906Y013392D01*
X002918Y013318D01*
X002941Y013247D01*
X002975Y013180D01*
X003019Y013119D01*
X003073Y013066D01*
X003133Y013022D01*
X003200Y012988D01*
X003271Y012965D01*
X003346Y012953D01*
X003662Y012953D01*
X003662Y013412D01*
X003698Y013412D02*
X003698Y012953D01*
X004014Y012953D01*
X004089Y012965D01*
X004160Y012988D01*
X004227Y013022D01*
X004287Y013066D01*
X004341Y013119D01*
X004385Y013180D01*
X004419Y013247D01*
X004442Y013318D01*
X004454Y013392D01*
X004454Y013412D01*
X003698Y013412D01*
X003698Y013336D02*
X003662Y013336D01*
X003662Y013177D02*
X003698Y013177D01*
X003698Y013019D02*
X003662Y013019D01*
X003140Y013019D02*
X000660Y013019D01*
X000660Y013177D02*
X002978Y013177D01*
X002915Y013336D02*
X000660Y013336D01*
X000660Y013494D02*
X002910Y013494D01*
X002961Y013653D02*
X001910Y013653D01*
X002159Y013811D02*
X003096Y013811D01*
X003249Y013970D02*
X002318Y013970D01*
X002416Y014128D02*
X003011Y014128D01*
X002926Y014287D02*
X002494Y014287D01*
X002537Y014445D02*
X002906Y014445D01*
X002939Y014604D02*
X002560Y014604D01*
X002560Y014762D02*
X003041Y014762D01*
X002535Y014921D02*
X004053Y014921D01*
X004211Y015079D02*
X002493Y015079D01*
X002413Y015238D02*
X019697Y015238D01*
X019617Y015079D02*
X008649Y015079D01*
X008807Y014921D02*
X019575Y014921D01*
X019550Y014762D02*
X019490Y014762D01*
X019490Y014604D02*
X019550Y014604D01*
X019573Y014445D02*
X019490Y014445D01*
X019490Y014287D02*
X019616Y014287D01*
X019694Y014128D02*
X019490Y014128D01*
X019399Y013970D02*
X019792Y013970D01*
X019951Y013811D02*
X019479Y013811D01*
X019680Y013430D02*
X019054Y013430D01*
X018306Y013430D02*
X018306Y013556D01*
X019054Y014304D01*
X019054Y014430D01*
X018306Y014430D02*
X017930Y014430D01*
X017680Y014180D01*
X017680Y013430D01*
X016430Y012180D01*
X016180Y012180D01*
X016180Y011930D01*
X015930Y012180D01*
X016180Y012180D01*
X016180Y011930D02*
X016430Y012180D01*
X016180Y011930D02*
X016180Y010930D01*
X016680Y010430D01*
X017406Y010430D01*
X017406Y010930D02*
X016930Y010930D01*
X016680Y011180D01*
X016680Y011804D01*
X018306Y013430D01*
X018554Y012804D02*
X018306Y012556D01*
X018306Y012180D01*
X018430Y012180D01*
X018306Y012180D02*
X017930Y012180D01*
X017406Y011656D01*
X017406Y011430D01*
X017846Y011728D02*
X017899Y011781D01*
X017976Y011705D01*
X018636Y011705D01*
X018680Y011748D01*
X018688Y011741D01*
X018729Y011717D01*
X018774Y011705D01*
X018932Y011705D01*
X018910Y011692D01*
X018877Y011659D01*
X018853Y011618D01*
X018841Y011572D01*
X018841Y011430D01*
X018841Y011288D01*
X018853Y011242D01*
X018877Y011201D01*
X018888Y011190D01*
X018878Y011190D01*
X018783Y011150D01*
X018710Y011077D01*
X018460Y010827D01*
X018420Y010732D01*
X018420Y009620D01*
X018379Y009643D01*
X018334Y009655D01*
X018102Y009655D01*
X018102Y009228D01*
X018006Y009228D01*
X018006Y009655D01*
X017937Y009655D01*
X018019Y009737D01*
X018019Y010123D01*
X017962Y010180D01*
X018019Y010237D01*
X018019Y010623D01*
X017962Y010680D01*
X018019Y010737D01*
X018019Y011123D01*
X017962Y011180D01*
X018019Y011237D01*
X018019Y011623D01*
X017914Y011728D01*
X017846Y011728D01*
X017868Y011751D02*
X017930Y011751D01*
X018019Y011592D02*
X018846Y011592D01*
X018841Y011434D02*
X018019Y011434D01*
X018019Y011275D02*
X018844Y011275D01*
X018841Y011430D02*
X019454Y011430D01*
X020067Y011430D01*
X020067Y011572D01*
X020054Y011618D01*
X020031Y011659D01*
X019997Y011692D01*
X019956Y011716D01*
X019910Y011728D01*
X019454Y011728D01*
X019454Y011430D01*
X019454Y011430D01*
X020067Y011430D01*
X020067Y011288D01*
X020054Y011242D01*
X020031Y011201D01*
X020009Y011180D01*
X020067Y011123D01*
X020067Y010737D01*
X020019Y010690D01*
X020072Y010690D01*
X020420Y011038D01*
X020420Y011620D01*
X020310Y011620D01*
X020205Y011726D01*
X020205Y012386D01*
X020248Y012430D01*
X020205Y012474D01*
X020205Y012544D01*
X019478Y012544D01*
X019490Y012499D01*
X019490Y012228D01*
X019102Y012228D01*
X019102Y012132D01*
X019490Y012132D01*
X019490Y011861D01*
X019478Y011815D01*
X019454Y011774D01*
X019420Y011741D01*
X019399Y011728D01*
X019454Y011728D01*
X019454Y011430D01*
X019454Y011430D01*
X018680Y011430D01*
X018430Y011180D01*
X018054Y010804D01*
X018054Y009180D01*
X018054Y009056D01*
X018430Y008680D01*
X018430Y008304D01*
X018306Y008180D01*
X018354Y008228D02*
X018258Y008228D01*
X018258Y008655D01*
X018026Y008655D01*
X017981Y008643D01*
X017940Y008619D01*
X017906Y008586D01*
X017882Y008545D01*
X017870Y008499D01*
X017870Y008228D01*
X018258Y008228D01*
X018258Y008132D01*
X017870Y008132D01*
X017870Y007861D01*
X017882Y007815D01*
X017906Y007774D01*
X017950Y007630D02*
X017348Y007630D01*
X017190Y007788D02*
X017190Y008705D01*
X017636Y008705D01*
X017680Y008748D01*
X017688Y008741D01*
X017729Y008717D01*
X017774Y008705D01*
X018006Y008705D01*
X018006Y009132D01*
X018102Y009132D01*
X018102Y008705D01*
X018334Y008705D01*
X018379Y008717D01*
X018420Y008741D01*
X018454Y008774D01*
X018478Y008815D01*
X018490Y008861D01*
X018490Y009002D01*
X018533Y008960D01*
X018794Y008698D01*
X018794Y008655D01*
X018724Y008655D01*
X018680Y008612D01*
X018672Y008619D01*
X018631Y008643D01*
X018586Y008655D01*
X018354Y008655D01*
X018354Y008228D01*
X018354Y008264D02*
X018258Y008264D01*
X018258Y008422D02*
X018354Y008422D01*
X018354Y008581D02*
X018258Y008581D01*
X018102Y008739D02*
X018006Y008739D01*
X018006Y008898D02*
X018102Y008898D01*
X018102Y009056D02*
X018006Y009056D01*
X018006Y009373D02*
X018102Y009373D01*
X018102Y009532D02*
X018006Y009532D01*
X017972Y009690D02*
X018420Y009690D01*
X018420Y009849D02*
X018019Y009849D01*
X018019Y010007D02*
X018420Y010007D01*
X018420Y010166D02*
X017977Y010166D01*
X018019Y010324D02*
X018420Y010324D01*
X018420Y010483D02*
X018019Y010483D01*
X018001Y010641D02*
X018420Y010641D01*
X018448Y010800D02*
X018019Y010800D01*
X018019Y010958D02*
X018590Y010958D01*
X018749Y011117D02*
X018019Y011117D01*
X017430Y010930D02*
X017406Y010930D01*
X016418Y010324D02*
X016404Y010324D01*
X016260Y010483D02*
X016245Y010483D01*
X016101Y010641D02*
X016087Y010641D01*
X015953Y010800D02*
X015928Y010800D01*
X015920Y010958D02*
X015770Y010958D01*
X015920Y011117D02*
X015611Y011117D01*
X015453Y011275D02*
X015920Y011275D01*
X015920Y011434D02*
X015294Y011434D01*
X015136Y011592D02*
X015920Y011592D01*
X015920Y011751D02*
X013680Y011751D01*
X013740Y011909D02*
X015833Y011909D01*
X015675Y012068D02*
X013740Y012068D01*
X013740Y012226D02*
X015516Y012226D01*
X015358Y012385D02*
X013740Y012385D01*
X013740Y012543D02*
X015205Y012543D01*
X015170Y012702D02*
X013276Y012702D01*
X013304Y012306D02*
X012556Y013054D01*
X012556Y013180D01*
X013304Y013180D02*
X013304Y013556D01*
X012430Y014430D01*
X011930Y014430D01*
X012217Y014762D02*
X017870Y014762D01*
X017736Y014604D02*
X012624Y014604D01*
X012783Y014445D02*
X015314Y014445D01*
X015546Y014445D02*
X016338Y014445D01*
X016318Y014442D02*
X016247Y014419D01*
X016180Y014385D01*
X016119Y014341D01*
X016066Y014287D01*
X016022Y014227D01*
X015988Y014160D01*
X015965Y014089D01*
X015953Y014014D01*
X015953Y013698D01*
X016412Y013698D01*
X016412Y013662D01*
X016448Y013662D01*
X016448Y013698D01*
X016907Y013698D01*
X016907Y014014D01*
X016895Y014089D01*
X016872Y014160D01*
X016838Y014227D01*
X016794Y014287D01*
X016741Y014341D01*
X016680Y014385D01*
X016613Y014419D01*
X016542Y014442D01*
X016468Y014454D01*
X016448Y014454D01*
X016448Y013698D01*
X016412Y013698D01*
X016412Y014454D01*
X016392Y014454D01*
X016318Y014442D01*
X016412Y014445D02*
X016448Y014445D01*
X016522Y014445D02*
X017577Y014445D01*
X017443Y014287D02*
X016794Y014287D01*
X016882Y014128D02*
X017420Y014128D01*
X017420Y013970D02*
X016907Y013970D01*
X016907Y013811D02*
X017420Y013811D01*
X017420Y013653D02*
X016907Y013653D01*
X016907Y013662D02*
X016448Y013662D01*
X016448Y012906D01*
X016468Y012906D01*
X016542Y012918D01*
X016613Y012941D01*
X016680Y012975D01*
X016741Y013019D01*
X016794Y013073D01*
X016838Y013133D01*
X016872Y013200D01*
X016895Y013271D01*
X016907Y013346D01*
X016907Y013662D01*
X016907Y013494D02*
X017376Y013494D01*
X017218Y013336D02*
X016905Y013336D01*
X016860Y013177D02*
X017059Y013177D01*
X016901Y013019D02*
X016739Y013019D01*
X016742Y012860D02*
X015690Y012860D01*
X015740Y013019D02*
X016121Y013019D01*
X016119Y013019D02*
X016180Y012975D01*
X016247Y012941D01*
X016318Y012918D01*
X016392Y012906D01*
X016412Y012906D01*
X016412Y013662D01*
X015953Y013662D01*
X015953Y013346D01*
X015965Y013271D01*
X015988Y013200D01*
X016022Y013133D01*
X016066Y013073D01*
X016119Y013019D01*
X016000Y013177D02*
X015861Y013177D01*
X015907Y013336D02*
X015955Y013336D01*
X015953Y013494D02*
X015907Y013494D01*
X015907Y013653D02*
X015953Y013653D01*
X015953Y013811D02*
X015907Y013811D01*
X015907Y013970D02*
X015953Y013970D01*
X015978Y014128D02*
X015884Y014128D01*
X015795Y014287D02*
X016066Y014287D01*
X016412Y014287D02*
X016448Y014287D01*
X016448Y014128D02*
X016412Y014128D01*
X016412Y013970D02*
X016448Y013970D01*
X016448Y013811D02*
X016412Y013811D01*
X016412Y013653D02*
X016448Y013653D01*
X016448Y013494D02*
X016412Y013494D01*
X016412Y013336D02*
X016448Y013336D01*
X016448Y013177D02*
X016412Y013177D01*
X016412Y013019D02*
X016448Y013019D01*
X016584Y012702D02*
X015776Y012702D01*
X015935Y012543D02*
X016425Y012543D01*
X015930Y012180D02*
X015430Y012680D01*
X015430Y013680D01*
X014953Y013653D02*
X013637Y013653D01*
X013740Y013494D02*
X014953Y013494D01*
X014953Y013336D02*
X013740Y013336D01*
X013740Y013177D02*
X014999Y013177D01*
X015120Y013019D02*
X013740Y013019D01*
X013740Y012860D02*
X015170Y012860D01*
X014953Y013811D02*
X013417Y013811D01*
X013258Y013970D02*
X014953Y013970D01*
X014976Y014128D02*
X013100Y014128D01*
X012941Y014287D02*
X015065Y014287D01*
X013304Y012306D02*
X013304Y012180D01*
X013591Y011592D02*
X012769Y011592D01*
X012769Y011434D02*
X013591Y011434D01*
X013591Y011275D02*
X012769Y011275D01*
X013111Y011117D02*
X013591Y011117D01*
X013591Y010958D02*
X013270Y010958D01*
X013428Y010800D02*
X013591Y010800D01*
X014204Y010930D02*
X014680Y010930D01*
X016930Y008680D01*
X016930Y008180D01*
X016680Y007930D01*
X014680Y007930D01*
X014430Y008180D01*
X013804Y008180D01*
X013680Y008180D01*
X013919Y008739D02*
X014003Y008739D01*
X014554Y008556D02*
X015180Y008556D01*
X016680Y007930D02*
X016930Y007680D01*
X016930Y007930D01*
X016680Y007930D01*
X016930Y007930D02*
X016930Y008180D01*
X017190Y008105D02*
X017870Y008105D01*
X017870Y007947D02*
X017190Y007947D01*
X017190Y008264D02*
X017870Y008264D01*
X017870Y008422D02*
X017190Y008422D01*
X017190Y008581D02*
X017903Y008581D01*
X017690Y008739D02*
X017671Y008739D01*
X017306Y009180D02*
X017406Y009280D01*
X017406Y009930D01*
X016430Y009930D01*
X014930Y011430D01*
X014204Y011430D01*
X013168Y010324D02*
X013154Y010324D01*
X013010Y010483D02*
X012995Y010483D01*
X012851Y010641D02*
X012837Y010641D01*
X013312Y010166D02*
X013633Y010166D01*
X013591Y010007D02*
X013471Y010007D01*
X012806Y009180D02*
X012430Y009180D01*
X012156Y009454D01*
X012156Y009930D01*
X011430Y009930D01*
X011180Y009680D01*
X010430Y009554D02*
X010180Y009304D01*
X009554Y009304D01*
X008430Y008180D01*
X007804Y008180D01*
X008209Y008581D02*
X008463Y008581D01*
X008621Y008739D02*
X008169Y008739D01*
X008430Y009180D02*
X007804Y009180D01*
X007804Y010306D01*
X007680Y010430D01*
X007156Y010430D01*
X007156Y010930D02*
X007930Y010930D01*
X008430Y010430D01*
X009204Y010430D01*
X009930Y010430D01*
X009430Y010430D01*
X009204Y010930D02*
X009180Y010930D01*
X008591Y011434D02*
X008544Y011434D01*
X008596Y011592D02*
X008386Y011592D01*
X007851Y010641D02*
X007837Y010641D01*
X007995Y010483D02*
X008010Y010483D01*
X008064Y010324D02*
X008168Y010324D01*
X008064Y010166D02*
X008633Y010166D01*
X008591Y010007D02*
X008064Y010007D01*
X008064Y009849D02*
X008591Y009849D01*
X008638Y009690D02*
X008064Y009690D01*
X008240Y009532D02*
X008291Y009532D01*
X008569Y009532D02*
X009424Y009532D01*
X009255Y009373D02*
X008759Y009373D01*
X008808Y009215D02*
X009097Y009215D01*
X008938Y009056D02*
X008788Y009056D01*
X008780Y008898D02*
X008682Y008898D01*
X007439Y008739D02*
X007420Y008739D01*
X007104Y008739D02*
X007008Y008739D01*
X007008Y008705D02*
X007008Y009132D01*
X006620Y009132D01*
X006620Y008861D01*
X006632Y008815D01*
X006656Y008774D01*
X006690Y008741D01*
X006731Y008717D01*
X006776Y008705D01*
X007008Y008705D01*
X007008Y008581D02*
X007104Y008581D01*
X007104Y008422D02*
X007008Y008422D01*
X007056Y008306D02*
X007056Y008180D01*
X006430Y008180D01*
X005806Y007556D01*
X005806Y007363D01*
X005788Y007345D02*
X005788Y006907D01*
X005585Y006907D01*
X005540Y006920D01*
X005499Y006943D01*
X005465Y006977D01*
X005441Y007018D01*
X005429Y007064D01*
X005429Y007345D01*
X005788Y007345D01*
X005788Y007313D02*
X005824Y007313D01*
X005824Y007471D02*
X005788Y007471D01*
X005788Y007630D02*
X005824Y007630D01*
X005824Y007788D02*
X005788Y007788D01*
X005814Y007947D02*
X006620Y007947D01*
X006620Y008105D02*
X005973Y008105D01*
X006131Y008264D02*
X006620Y008264D01*
X006620Y008422D02*
X006290Y008422D01*
X006420Y008581D02*
X006653Y008581D01*
X006692Y008739D02*
X006440Y008739D01*
X006440Y008898D02*
X006620Y008898D01*
X006620Y009056D02*
X006440Y009056D01*
X006440Y009215D02*
X007008Y009215D01*
X007056Y009180D02*
X007056Y008306D01*
X007180Y008180D01*
X007104Y008105D02*
X007008Y008105D01*
X007008Y007947D02*
X007104Y007947D01*
X007104Y007788D02*
X007008Y007788D01*
X007008Y008264D02*
X007104Y008264D01*
X007104Y008898D02*
X007008Y008898D01*
X007008Y009056D02*
X007104Y009056D01*
X006620Y009373D02*
X006440Y009373D01*
X006440Y009532D02*
X006629Y009532D01*
X006591Y009690D02*
X006440Y009690D01*
X006440Y009849D02*
X006543Y009849D01*
X006543Y010007D02*
X006440Y010007D01*
X006440Y010166D02*
X006586Y010166D01*
X006543Y010324D02*
X006440Y010324D01*
X006440Y010483D02*
X006543Y010483D01*
X006562Y010641D02*
X006440Y010641D01*
X006440Y010800D02*
X006543Y010800D01*
X006543Y010958D02*
X006440Y010958D01*
X006440Y011117D02*
X006543Y011117D01*
X006543Y011275D02*
X006440Y011275D01*
X006440Y011434D02*
X006543Y011434D01*
X006543Y011592D02*
X006440Y011592D01*
X006440Y011751D02*
X006930Y011751D01*
X006870Y011909D02*
X006440Y011909D01*
X006440Y012068D02*
X006870Y012068D01*
X006680Y012180D02*
X007306Y012180D01*
X007258Y012226D02*
X006440Y012226D01*
X006440Y012385D02*
X006870Y012385D01*
X006882Y012543D02*
X006440Y012543D01*
X005920Y012702D02*
X000660Y012702D01*
X000660Y012860D02*
X005920Y012860D01*
X005920Y013019D02*
X004220Y013019D01*
X004382Y013177D02*
X005920Y013177D01*
X005920Y013336D02*
X004445Y013336D01*
X004450Y013494D02*
X005920Y013494D01*
X005920Y013653D02*
X004399Y013653D01*
X004264Y013811D02*
X005953Y013811D01*
X006102Y013970D02*
X004111Y013970D01*
X004349Y014128D02*
X006260Y014128D01*
X006419Y014287D02*
X004434Y014287D01*
X004454Y014445D02*
X006493Y014445D01*
X006528Y014604D02*
X004471Y014604D01*
X006520Y013653D02*
X006973Y013653D01*
X007046Y013811D02*
X006679Y013811D01*
X006837Y013970D02*
X007023Y013970D01*
X006870Y013494D02*
X006440Y013494D01*
X006440Y013336D02*
X006870Y013336D01*
X007930Y013430D02*
X007930Y014430D01*
X008332Y014604D02*
X008389Y014604D01*
X008367Y014445D02*
X008493Y014445D01*
X008516Y014287D02*
X008344Y014287D01*
X008247Y014128D02*
X008613Y014128D01*
X008387Y013653D02*
X009288Y013653D01*
X009210Y013577D02*
X009210Y013577D01*
X009126Y013494D02*
X008490Y013494D01*
X008054Y013306D02*
X008054Y013180D01*
X009180Y013180D01*
X008054Y013306D02*
X007930Y013430D01*
X007354Y012543D02*
X007258Y012543D01*
X007258Y012385D02*
X007354Y012385D01*
X005920Y011740D02*
X005920Y011475D01*
X005894Y011501D01*
X005755Y011558D01*
X005605Y011558D01*
X005466Y011501D01*
X005454Y011489D01*
X005454Y011692D01*
X005441Y011705D01*
X005506Y011705D01*
X005506Y012132D01*
X005602Y012132D01*
X005602Y011705D01*
X005834Y011705D01*
X005879Y011717D01*
X005920Y011740D01*
X005920Y011592D02*
X005454Y011592D01*
X005506Y011751D02*
X005602Y011751D01*
X005602Y011909D02*
X005506Y011909D01*
X005506Y012068D02*
X005602Y012068D01*
X005554Y012180D02*
X005430Y012304D01*
X005430Y012930D01*
X005506Y012543D02*
X005602Y012543D01*
X005602Y012385D02*
X005506Y012385D01*
X004806Y012180D02*
X004806Y011304D01*
X004930Y011180D01*
X004930Y011213D01*
X004900Y011243D01*
X004930Y011180D02*
X005680Y011180D01*
X005454Y010800D02*
X005920Y010800D01*
X005920Y010641D02*
X003014Y010641D01*
X003014Y010483D02*
X004368Y010483D01*
X004359Y010466D02*
X004382Y010507D01*
X004416Y010541D01*
X004457Y010564D01*
X004503Y010577D01*
X004872Y010577D01*
X004872Y010208D01*
X004872Y010152D01*
X004346Y010152D01*
X004346Y009940D01*
X004359Y009894D01*
X004382Y009853D01*
X004416Y009819D01*
X004457Y009796D01*
X004503Y009783D01*
X004872Y009783D01*
X004872Y010152D01*
X004929Y010152D01*
X004929Y010208D01*
X005454Y010208D01*
X005454Y010420D01*
X005442Y010466D01*
X005419Y010507D01*
X005385Y010541D01*
X005344Y010564D01*
X005298Y010577D01*
X004929Y010577D01*
X004929Y010208D01*
X004872Y010208D01*
X004346Y010208D01*
X004346Y010420D01*
X004359Y010466D01*
X004346Y010324D02*
X003014Y010324D01*
X003014Y010260D02*
X003014Y011523D01*
X003001Y011568D01*
X002978Y011609D01*
X002944Y011643D01*
X002903Y011667D01*
X002857Y011679D01*
X002540Y011679D01*
X002540Y010260D01*
X003014Y010260D01*
X003014Y010100D02*
X002540Y010100D01*
X002540Y010260D01*
X002380Y010260D01*
X002380Y011679D01*
X002062Y011679D01*
X002016Y011667D01*
X001975Y011643D01*
X001941Y011609D01*
X001918Y011568D01*
X001906Y011523D01*
X001906Y010260D01*
X002380Y010260D01*
X002380Y010100D01*
X002540Y010100D01*
X002540Y008681D01*
X002857Y008681D01*
X002903Y008693D01*
X002944Y008717D01*
X002978Y008751D01*
X003001Y008792D01*
X003014Y008837D01*
X003014Y010100D01*
X003014Y010007D02*
X004346Y010007D01*
X004387Y009849D02*
X003014Y009849D01*
X003014Y009690D02*
X005920Y009690D01*
X005920Y009532D02*
X005454Y009532D01*
X005454Y009373D02*
X005920Y009373D01*
X005920Y009215D02*
X005454Y009215D01*
X005454Y009056D02*
X005920Y009056D01*
X005920Y008898D02*
X005454Y008898D01*
X005454Y008739D02*
X005871Y008739D01*
X005713Y008581D02*
X005367Y008581D01*
X005223Y008422D02*
X005554Y008422D01*
X005396Y008264D02*
X005305Y008264D01*
X004930Y008180D02*
X004930Y009117D01*
X004900Y009117D01*
X004346Y009056D02*
X003014Y009056D01*
X003014Y008898D02*
X004346Y008898D01*
X004346Y008739D02*
X002966Y008739D01*
X002540Y008739D02*
X002380Y008739D01*
X002380Y008681D02*
X002062Y008681D01*
X002016Y008693D01*
X001975Y008717D01*
X001941Y008751D01*
X001918Y008792D01*
X001906Y008837D01*
X001906Y010100D01*
X002380Y010100D01*
X002380Y008681D01*
X002380Y008898D02*
X002540Y008898D01*
X002540Y009056D02*
X002380Y009056D01*
X002380Y009215D02*
X002540Y009215D01*
X002540Y009373D02*
X002380Y009373D01*
X002380Y009532D02*
X002540Y009532D01*
X002540Y009690D02*
X002380Y009690D01*
X002380Y009849D02*
X002540Y009849D01*
X002540Y010007D02*
X002380Y010007D01*
X002380Y010166D02*
X000660Y010166D01*
X000660Y010324D02*
X001906Y010324D01*
X001906Y010483D02*
X000660Y010483D01*
X000660Y010641D02*
X001906Y010641D01*
X001906Y010800D02*
X000660Y010800D01*
X000660Y010958D02*
X001906Y010958D01*
X001906Y011117D02*
X000660Y011117D01*
X000660Y011275D02*
X001906Y011275D01*
X001906Y011434D02*
X000660Y011434D01*
X000660Y011592D02*
X001931Y011592D01*
X002380Y011592D02*
X002540Y011592D01*
X002540Y011434D02*
X002380Y011434D01*
X002380Y011275D02*
X002540Y011275D01*
X002540Y011117D02*
X002380Y011117D01*
X002380Y010958D02*
X002540Y010958D01*
X002540Y010800D02*
X002380Y010800D01*
X002380Y010641D02*
X002540Y010641D01*
X002540Y010483D02*
X002380Y010483D01*
X002380Y010324D02*
X002540Y010324D01*
X002540Y010166D02*
X004872Y010166D01*
X004900Y010180D02*
X005680Y010180D01*
X005454Y010152D02*
X004929Y010152D01*
X004929Y009783D01*
X005298Y009783D01*
X005344Y009796D01*
X005385Y009819D01*
X005419Y009853D01*
X005442Y009894D01*
X005454Y009940D01*
X005454Y010152D01*
X005454Y010007D02*
X005920Y010007D01*
X005920Y009849D02*
X005414Y009849D01*
X004929Y009849D02*
X004872Y009849D01*
X004872Y010007D02*
X004929Y010007D01*
X004929Y010166D02*
X005920Y010166D01*
X005920Y010324D02*
X005454Y010324D01*
X005433Y010483D02*
X005920Y010483D01*
X004929Y010483D02*
X004872Y010483D01*
X004872Y010324D02*
X004929Y010324D01*
X004346Y010800D02*
X003014Y010800D01*
X003014Y010958D02*
X004346Y010958D01*
X004346Y011117D02*
X003014Y011117D01*
X003014Y011275D02*
X004346Y011275D01*
X004346Y011434D02*
X003014Y011434D01*
X002988Y011592D02*
X004346Y011592D01*
X004180Y011592D02*
X000930Y011592D01*
X000930Y011434D02*
X004180Y011434D01*
X004180Y011275D02*
X000930Y011275D01*
X000930Y011117D02*
X004180Y011117D01*
X004180Y010958D02*
X000930Y010958D01*
X000930Y010800D02*
X004180Y010800D01*
X004180Y010641D02*
X000930Y010641D01*
X000930Y010483D02*
X004180Y010483D01*
X004180Y010324D02*
X000930Y010324D01*
X000930Y010166D02*
X004180Y010166D01*
X004180Y010007D02*
X000930Y010007D01*
X000930Y009849D02*
X004180Y009849D01*
X004180Y009690D02*
X000930Y009690D01*
X000930Y009532D02*
X004180Y009532D01*
X004180Y009373D02*
X000930Y009373D01*
X000930Y009215D02*
X004180Y009215D01*
X004180Y009056D02*
X000930Y009056D01*
X000930Y008898D02*
X004180Y008898D01*
X004180Y008739D02*
X000930Y008739D01*
X000930Y008581D02*
X004180Y008581D01*
X004180Y008422D02*
X000930Y008422D01*
X000930Y008264D02*
X004180Y008264D01*
X004180Y008180D02*
X003680Y007680D01*
X000930Y007680D01*
X000930Y012680D01*
X004180Y012680D01*
X004180Y008180D01*
X004105Y008105D02*
X000930Y008105D01*
X000930Y007947D02*
X003947Y007947D01*
X003788Y007788D02*
X000930Y007788D01*
X000660Y007788D02*
X004920Y007788D01*
X004762Y007630D02*
X000660Y007630D01*
X000660Y008264D02*
X004555Y008264D01*
X004552Y008105D02*
X004609Y007966D01*
X004637Y008422D02*
X000660Y008422D01*
X000660Y008581D02*
X004434Y008581D01*
X004346Y009215D02*
X003014Y009215D01*
X003014Y009373D02*
X004346Y009373D01*
X004346Y009532D02*
X003014Y009532D01*
X001906Y009532D02*
X000660Y009532D01*
X000660Y009690D02*
X001906Y009690D01*
X001906Y009849D02*
X000660Y009849D01*
X000660Y010007D02*
X001906Y010007D01*
X001906Y009373D02*
X000660Y009373D01*
X000660Y009215D02*
X001906Y009215D01*
X001906Y009056D02*
X000660Y009056D01*
X000660Y008898D02*
X001906Y008898D01*
X001953Y008739D02*
X000660Y008739D01*
X000660Y006837D02*
X000897Y006837D01*
X000895Y006679D02*
X000660Y006679D01*
X001353Y006362D02*
X001507Y006362D01*
X001507Y006203D02*
X001353Y006203D01*
X001353Y006045D02*
X001507Y006045D01*
X001965Y005728D02*
X002951Y005728D01*
X003070Y005569D02*
X001965Y005569D01*
X001965Y005411D02*
X007043Y005411D01*
X007043Y005569D02*
X004290Y005569D01*
X004595Y005728D02*
X007053Y005728D01*
X007043Y005886D02*
X004754Y005886D01*
X004912Y006045D02*
X005905Y006045D01*
X005803Y006203D02*
X005071Y006203D01*
X004997Y006497D02*
X004430Y005930D01*
X003680Y005930D01*
X004181Y006362D02*
X004494Y006362D01*
X004652Y006520D02*
X004233Y006520D01*
X004502Y006679D02*
X004811Y006679D01*
X004705Y006837D02*
X005803Y006837D01*
X005788Y006996D02*
X005824Y006996D01*
X005824Y007154D02*
X005788Y007154D01*
X005429Y007154D02*
X005022Y007154D01*
X005180Y007313D02*
X005429Y007313D01*
X005429Y007471D02*
X005339Y007471D01*
X005454Y006996D02*
X004863Y006996D01*
X004430Y006930D02*
X003680Y006930D01*
X004997Y006497D02*
X006180Y006497D01*
X006557Y006520D02*
X007870Y006520D01*
X007870Y006362D02*
X006557Y006362D01*
X006557Y006203D02*
X007124Y006203D01*
X007043Y006045D02*
X006455Y006045D01*
X006557Y006679D02*
X008258Y006679D01*
X008306Y006680D02*
X007430Y006680D01*
X007870Y006837D02*
X006557Y006837D01*
X006913Y006996D02*
X007870Y006996D01*
X008258Y006520D02*
X008354Y006520D01*
X008354Y006362D02*
X008258Y006362D01*
X008189Y006203D02*
X008794Y006203D01*
X008677Y006045D02*
X008269Y006045D01*
X008269Y005886D02*
X008377Y005886D01*
X008320Y005728D02*
X008260Y005728D01*
X008180Y005430D02*
X007656Y005430D01*
X007656Y005930D01*
X008180Y005430D02*
X008430Y005180D01*
X008430Y004180D01*
X008129Y003879D01*
X008129Y003430D01*
X007634Y003509D02*
X007155Y003509D01*
X007155Y003474D02*
X007155Y004134D01*
X007134Y004155D01*
X007154Y004144D01*
X007200Y004132D01*
X007656Y004132D01*
X007656Y004430D01*
X007656Y004430D01*
X007656Y004430D01*
X007656Y004156D01*
X007430Y003930D01*
X007634Y003859D02*
X007634Y003001D01*
X007695Y002940D01*
X007538Y002940D01*
X007274Y003203D01*
X007201Y003276D01*
X007155Y003295D01*
X007155Y003386D01*
X007112Y003430D01*
X007155Y003474D01*
X007155Y003350D02*
X007634Y003350D01*
X007634Y003192D02*
X007286Y003192D01*
X007445Y003033D02*
X007634Y003033D01*
X007430Y002680D02*
X007054Y003056D01*
X006680Y003056D01*
X007430Y002680D02*
X009430Y002680D01*
X009930Y002180D01*
X010430Y002180D01*
X010930Y001680D01*
X011430Y002180D01*
X013056Y002180D01*
X012930Y002680D02*
X012180Y003430D01*
X012180Y004430D01*
X011680Y004930D01*
X011180Y004930D01*
X010930Y005180D01*
X010680Y004930D01*
X010930Y004930D01*
X011180Y004930D01*
X010930Y004930D02*
X010930Y005180D01*
X010930Y006556D01*
X010430Y006930D02*
X010430Y005680D01*
X010180Y005430D01*
X009704Y005430D01*
X009680Y005430D01*
X009704Y004930D02*
X009680Y004930D01*
X009704Y004930D02*
X010680Y004930D01*
X011430Y004430D02*
X011680Y004180D01*
X011680Y003804D01*
X011554Y003056D02*
X010806Y003804D01*
X010680Y003804D01*
X010056Y003804D01*
X009680Y004180D01*
X009680Y004406D01*
X009704Y004430D01*
X009680Y003430D02*
X009231Y003430D01*
X009680Y003430D02*
X010054Y003056D01*
X010680Y003056D01*
X011554Y003056D02*
X011680Y003056D01*
X012440Y003538D02*
X012621Y003356D01*
X012620Y003361D01*
X012620Y003632D01*
X013008Y003632D01*
X013008Y003728D01*
X012620Y003728D01*
X012620Y003999D01*
X012632Y004045D01*
X012656Y004086D01*
X012690Y004119D01*
X012711Y004132D01*
X012440Y004132D01*
X012440Y003538D01*
X012469Y003509D02*
X012620Y003509D01*
X012440Y003667D02*
X013008Y003667D01*
X013056Y003680D02*
X013056Y003554D01*
X013430Y003180D01*
X013930Y003180D01*
X014180Y002930D01*
X014240Y003350D02*
X014642Y003350D01*
X014484Y003509D02*
X014240Y003509D01*
X014240Y003667D02*
X014325Y003667D01*
X013804Y003680D02*
X013804Y004556D01*
X013430Y004930D01*
X012906Y004930D01*
X012430Y004930D01*
X012180Y005180D01*
X012180Y006680D01*
X012997Y006556D02*
X013054Y006606D01*
X013680Y005980D01*
X013680Y005680D01*
X013680Y005430D01*
X013430Y005430D01*
X013680Y005180D01*
X013680Y005430D01*
X013680Y005180D02*
X014180Y004680D01*
X014180Y004180D01*
X015554Y002806D01*
X015680Y002806D01*
X015205Y002716D02*
X013762Y002716D01*
X013603Y002875D02*
X015118Y002875D01*
X014959Y003033D02*
X012945Y003033D01*
X012786Y003192D02*
X014801Y003192D01*
X015205Y002558D02*
X014232Y002558D01*
X014240Y002399D02*
X015281Y002399D01*
X014240Y002241D02*
X018397Y002241D01*
X018431Y002153D02*
X018307Y002029D01*
X018240Y001868D01*
X018240Y001692D01*
X018307Y001531D01*
X018431Y001407D01*
X018592Y001340D01*
X018768Y001340D01*
X018929Y001407D01*
X019053Y001531D01*
X019120Y001692D01*
X019120Y001868D01*
X019053Y002029D01*
X018929Y002153D01*
X018891Y002169D01*
X019120Y002398D01*
X019120Y002580D01*
X019120Y002762D01*
X018862Y003020D01*
X018680Y003020D01*
X018680Y002580D01*
X018680Y002580D01*
X019120Y002580D01*
X018680Y002580D01*
X018680Y002580D01*
X018680Y002580D01*
X018240Y002580D01*
X018240Y002762D01*
X018498Y003020D01*
X018680Y003020D01*
X018680Y002580D01*
X018240Y002580D01*
X018240Y002398D01*
X018469Y002169D01*
X018431Y002153D01*
X018360Y002082D02*
X014240Y002082D01*
X014240Y001924D02*
X018263Y001924D01*
X018240Y001765D02*
X014195Y001765D01*
X013804Y002180D02*
X013804Y002306D01*
X013430Y002680D01*
X012930Y002680D01*
X013008Y003350D02*
X013104Y003350D01*
X013104Y003509D02*
X013008Y003509D01*
X012620Y003826D02*
X012440Y003826D01*
X012440Y003984D02*
X012620Y003984D01*
X014180Y005180D02*
X014180Y006680D01*
X013930Y006930D01*
X013863Y006930D01*
X014319Y006909D02*
X014319Y007044D01*
X015705Y007044D01*
X015705Y006974D01*
X015748Y006930D01*
X015705Y006886D01*
X015705Y006226D01*
X015810Y006120D01*
X015920Y006120D01*
X015920Y005878D01*
X015949Y005808D01*
X015855Y005808D01*
X015716Y005751D01*
X015655Y005690D01*
X015519Y005690D01*
X015531Y005701D01*
X015554Y005742D01*
X015567Y005788D01*
X015567Y005930D01*
X015567Y006072D01*
X015554Y006118D01*
X015531Y006159D01*
X015497Y006192D01*
X015456Y006216D01*
X015410Y006228D01*
X014954Y006228D01*
X014954Y005930D01*
X015567Y005930D01*
X014954Y005930D01*
X014954Y005930D01*
X014954Y005930D01*
X014930Y005954D01*
X014930Y006680D01*
X014440Y006679D02*
X015705Y006679D01*
X015705Y006837D02*
X014391Y006837D01*
X014400Y006827D02*
X014319Y006909D01*
X014319Y006996D02*
X015705Y006996D01*
X015705Y006520D02*
X014440Y006520D01*
X014440Y006362D02*
X015705Y006362D01*
X015727Y006203D02*
X015478Y006203D01*
X015567Y006045D02*
X015920Y006045D01*
X015920Y005886D02*
X015567Y005886D01*
X015546Y005728D02*
X015693Y005728D01*
X015930Y005430D02*
X014954Y005430D01*
X014954Y004930D02*
X014430Y004930D01*
X014180Y005180D01*
X013680Y005680D02*
X013430Y005430D01*
X012906Y005430D01*
X014440Y006209D02*
X014440Y006732D01*
X014400Y006827D01*
X014497Y006228D02*
X014451Y006216D01*
X014440Y006209D01*
X014497Y006228D02*
X014954Y006228D01*
X014954Y005930D01*
X014954Y006045D02*
X014954Y006045D01*
X014954Y006203D02*
X014954Y006203D01*
X016180Y005930D02*
X016180Y006556D01*
X016180Y006680D01*
X016180Y007304D02*
X012997Y007304D01*
X010930Y007304D01*
X010804Y007304D01*
X010430Y006930D01*
X009704Y006406D02*
X009430Y006680D01*
X009054Y006680D01*
X009054Y006054D01*
X008680Y005680D01*
X009704Y005930D02*
X009704Y006406D01*
X009054Y006680D02*
X008930Y006680D01*
X007043Y005252D02*
X004329Y005252D01*
X003680Y004930D02*
X007656Y004930D01*
X007680Y004930D01*
X007656Y004430D02*
X007656Y004132D01*
X008014Y004132D01*
X007908Y004026D01*
X007883Y003964D01*
X007739Y003964D01*
X007634Y003859D01*
X007634Y003826D02*
X007155Y003826D01*
X007155Y003984D02*
X007891Y003984D01*
X007656Y004143D02*
X007656Y004143D01*
X007656Y004301D02*
X007656Y004301D01*
X007160Y004143D02*
X007147Y004143D01*
X007043Y004301D02*
X004280Y004301D01*
X004405Y004143D02*
X005213Y004143D01*
X005054Y003804D02*
X004680Y003430D01*
X004680Y002680D01*
X004180Y002180D01*
X003680Y002180D01*
X003180Y001680D01*
X003306Y001680D01*
X003430Y001556D01*
X003430Y001430D01*
X004180Y000680D01*
X005930Y000680D01*
X006930Y001680D01*
X007130Y001290D02*
X007733Y001290D01*
X007930Y001290D02*
X007930Y001290D01*
X007930Y001243D02*
X007930Y001680D01*
X007930Y001680D01*
X007930Y001680D01*
X007930Y001680D01*
X007493Y001680D01*
X007930Y001680D01*
X007930Y001243D01*
X008127Y001290D02*
X009730Y001290D01*
X009311Y001448D02*
X008302Y001448D01*
X008361Y001607D02*
X009136Y001607D01*
X008977Y001765D02*
X008359Y001765D01*
X007930Y001607D02*
X007930Y001607D01*
X007930Y001448D02*
X007930Y001448D01*
X007558Y001448D02*
X007307Y001448D01*
X007367Y001607D02*
X007499Y001607D01*
X007501Y001765D02*
X007367Y001765D01*
X006749Y001131D02*
X019590Y001131D01*
X019550Y001290D02*
X011130Y001290D01*
X011307Y001448D02*
X018390Y001448D01*
X018276Y001607D02*
X011367Y001607D01*
X011383Y001765D02*
X012665Y001765D01*
X010730Y001290D02*
X010130Y001290D01*
X010307Y001448D02*
X010553Y001448D01*
X010493Y001607D02*
X010367Y001607D01*
X010367Y001765D02*
X010477Y001765D01*
X009930Y001680D02*
X009430Y001680D01*
X008930Y002180D01*
X006180Y002180D01*
X005680Y002680D01*
X005680Y002930D01*
X005806Y003056D01*
X006554Y003804D01*
X006680Y003804D01*
X006205Y003826D02*
X006155Y003826D01*
X006155Y003984D02*
X006205Y003984D01*
X006213Y004143D02*
X006147Y004143D01*
X005680Y003804D02*
X005054Y003804D01*
X004866Y003984D02*
X004454Y003984D01*
X004450Y003826D02*
X004708Y003826D01*
X004549Y003667D02*
X004384Y003667D01*
X004431Y003509D02*
X004205Y003509D01*
X004203Y003350D02*
X004420Y003350D01*
X004420Y003192D02*
X004376Y003192D01*
X003698Y003192D02*
X003662Y003192D01*
X003662Y003350D02*
X003698Y003350D01*
X003662Y003407D02*
X003346Y003407D01*
X003271Y003395D01*
X003200Y003372D01*
X003133Y003338D01*
X003073Y003294D01*
X003019Y003241D01*
X002975Y003180D01*
X002941Y003113D01*
X002918Y003042D01*
X002906Y002968D01*
X002906Y002948D01*
X003662Y002948D01*
X003662Y003407D01*
X003157Y003350D02*
X002718Y003350D01*
X002876Y003509D02*
X003155Y003509D01*
X002984Y003192D02*
X002559Y003192D01*
X002401Y003033D02*
X002917Y003033D01*
X002906Y002912D02*
X002906Y002892D01*
X002918Y002818D01*
X002941Y002747D01*
X002975Y002680D01*
X003019Y002619D01*
X003073Y002566D01*
X003133Y002522D01*
X003200Y002488D01*
X003271Y002465D01*
X003346Y002453D01*
X003662Y002453D01*
X003662Y002912D01*
X002906Y002912D01*
X002909Y002875D02*
X002242Y002875D01*
X002084Y002716D02*
X002957Y002716D01*
X003085Y002558D02*
X001905Y002558D01*
X002012Y002399D02*
X003531Y002399D01*
X003662Y002558D02*
X003698Y002558D01*
X003698Y002716D02*
X003662Y002716D01*
X003662Y002875D02*
X003698Y002875D01*
X003698Y003033D02*
X003662Y003033D01*
X003373Y002241D02*
X002218Y002241D01*
X002358Y002082D02*
X002902Y002082D01*
X002870Y001924D02*
X002450Y001924D01*
X002510Y001765D02*
X002870Y001765D01*
X002870Y001607D02*
X002553Y001607D01*
X002560Y001448D02*
X002870Y001448D01*
X002891Y001290D02*
X002560Y001290D01*
X002520Y001131D02*
X003361Y001131D01*
X003520Y000973D02*
X002471Y000973D01*
X002379Y000814D02*
X003678Y000814D01*
X004054Y001680D02*
X005930Y001680D01*
X006590Y000973D02*
X019639Y000973D01*
X019731Y000814D02*
X006432Y000814D01*
X005806Y003056D02*
X005680Y003056D01*
X007155Y003667D02*
X007634Y003667D01*
X003680Y003930D02*
X002930Y003930D01*
X001930Y002930D01*
X001554Y002930D01*
X001430Y002806D01*
X000955Y002875D02*
X000660Y002875D01*
X000660Y003033D02*
X000955Y003033D01*
X000987Y003192D02*
X000660Y003192D01*
X000660Y003350D02*
X000955Y003350D01*
X000955Y003509D02*
X000660Y003509D01*
X000660Y003667D02*
X000955Y003667D01*
X000955Y003826D02*
X000660Y003826D01*
X000660Y003984D02*
X001054Y003984D01*
X001170Y004143D02*
X000660Y004143D01*
X000660Y004301D02*
X001170Y004301D01*
X001170Y004460D02*
X000660Y004460D01*
X000660Y004618D02*
X001170Y004618D01*
X001170Y004777D02*
X000660Y004777D01*
X000660Y004935D02*
X000941Y004935D01*
X000895Y005094D02*
X000660Y005094D01*
X000660Y005252D02*
X000895Y005252D01*
X000895Y005411D02*
X000660Y005411D01*
X000660Y005569D02*
X000895Y005569D01*
X001430Y005430D02*
X001430Y005370D01*
X001430Y003554D01*
X001905Y003509D02*
X002141Y003509D01*
X002299Y003667D02*
X001905Y003667D01*
X001905Y003826D02*
X002458Y003826D01*
X002616Y003984D02*
X001806Y003984D01*
X001690Y004143D02*
X002775Y004143D01*
X003080Y004301D02*
X001690Y004301D01*
X001690Y004460D02*
X003273Y004460D01*
X003021Y004618D02*
X001690Y004618D01*
X001690Y004777D02*
X002931Y004777D01*
X002906Y004935D02*
X001919Y004935D01*
X001965Y005094D02*
X002935Y005094D01*
X003031Y005252D02*
X001965Y005252D01*
X001905Y003350D02*
X001982Y003350D01*
X000955Y002716D02*
X000660Y002716D01*
X000660Y002558D02*
X000955Y002558D01*
X000848Y002399D02*
X000660Y002399D01*
X006104Y007788D02*
X006252Y007788D01*
X010655Y008264D02*
X010708Y008264D01*
X010705Y008422D02*
X010655Y008422D01*
X012260Y008739D02*
X012441Y008739D01*
X012370Y008898D02*
X012308Y008898D01*
X013171Y008739D02*
X013189Y008739D01*
X016930Y007680D02*
X017406Y007204D01*
X017406Y005930D01*
X017939Y006203D02*
X018929Y006203D01*
X018910Y006192D02*
X018877Y006159D01*
X018853Y006118D01*
X018841Y006072D01*
X018841Y005930D01*
X018841Y005788D01*
X018853Y005742D01*
X018877Y005701D01*
X018898Y005680D01*
X018877Y005659D01*
X018853Y005618D01*
X018841Y005572D01*
X018841Y005430D01*
X018841Y005288D01*
X018853Y005242D01*
X018877Y005201D01*
X018898Y005180D01*
X018877Y005159D01*
X018853Y005118D01*
X018841Y005072D01*
X018841Y004930D01*
X018841Y004788D01*
X018853Y004742D01*
X018877Y004701D01*
X018898Y004680D01*
X018841Y004623D01*
X018841Y004237D01*
X018946Y004132D01*
X018841Y004301D02*
X018019Y004301D01*
X018019Y004460D02*
X018841Y004460D01*
X018841Y004618D02*
X018019Y004618D01*
X018019Y004777D02*
X018844Y004777D01*
X018841Y004930D02*
X019454Y004930D01*
X019454Y005430D01*
X019454Y005430D01*
X019454Y005430D01*
X019454Y005930D01*
X019454Y005930D01*
X019454Y005930D01*
X019454Y005430D01*
X019454Y004930D01*
X019454Y004930D01*
X018841Y004930D01*
X018841Y004935D02*
X018019Y004935D01*
X018019Y005094D02*
X018846Y005094D01*
X018850Y005252D02*
X018019Y005252D01*
X018019Y005411D02*
X018841Y005411D01*
X018841Y005430D02*
X019454Y005430D01*
X019454Y005430D01*
X018841Y005430D01*
X018841Y005569D02*
X018019Y005569D01*
X018010Y005728D02*
X018861Y005728D01*
X018841Y005886D02*
X018019Y005886D01*
X018019Y006045D02*
X018841Y006045D01*
X018841Y005930D02*
X019454Y005930D01*
X019454Y006228D01*
X018997Y006228D01*
X018951Y006216D01*
X018910Y006192D01*
X018841Y005930D02*
X019454Y005930D01*
X019454Y005930D01*
X019454Y005886D02*
X019454Y005886D01*
X019454Y005728D02*
X019454Y005728D01*
X019454Y005569D02*
X019454Y005569D01*
X019454Y005411D02*
X019454Y005411D01*
X019454Y005252D02*
X019454Y005252D01*
X019454Y005094D02*
X019454Y005094D01*
X019454Y004935D02*
X019454Y004935D01*
X019454Y004430D02*
X019454Y003406D01*
X019930Y002930D01*
X020554Y002930D01*
X020680Y003056D01*
X021155Y003033D02*
X021570Y003033D01*
X021570Y002875D02*
X021155Y002875D01*
X021146Y002716D02*
X021570Y002716D01*
X021570Y002558D02*
X020838Y002558D01*
X021262Y002399D02*
X021570Y002399D01*
X021570Y002241D02*
X021468Y002241D01*
X020522Y002558D02*
X019120Y002558D01*
X019120Y002716D02*
X019776Y002716D01*
X019618Y002875D02*
X019008Y002875D01*
X018680Y002875D02*
X018680Y002875D01*
X018680Y002716D02*
X018680Y002716D01*
X018352Y002875D02*
X017155Y002875D01*
X017155Y003033D02*
X019459Y003033D01*
X019301Y003192D02*
X017123Y003192D01*
X017155Y003350D02*
X017239Y003350D01*
X017621Y003350D02*
X019196Y003350D01*
X019194Y003509D02*
X017768Y003509D01*
X017808Y003667D02*
X019194Y003667D01*
X019714Y003667D02*
X020205Y003667D01*
X020205Y003509D02*
X019719Y003509D01*
X019878Y003350D02*
X020205Y003350D01*
X020205Y003192D02*
X020036Y003192D01*
X020205Y003826D02*
X019714Y003826D01*
X019714Y003984D02*
X020205Y003984D01*
X020213Y004143D02*
X019972Y004143D01*
X020067Y004301D02*
X020420Y004301D01*
X020420Y004460D02*
X020067Y004460D01*
X020067Y004618D02*
X020420Y004618D01*
X020420Y004777D02*
X020064Y004777D01*
X020067Y004935D02*
X020420Y004935D01*
X020420Y005094D02*
X020061Y005094D01*
X020057Y005252D02*
X020420Y005252D01*
X020420Y005411D02*
X020067Y005411D01*
X020067Y005569D02*
X020420Y005569D01*
X020420Y005728D02*
X020046Y005728D01*
X020067Y005886D02*
X020420Y005886D01*
X020420Y006045D02*
X020067Y006045D01*
X020430Y006430D02*
X019680Y006430D01*
X019056Y007054D01*
X019054Y007180D01*
X019064Y006679D02*
X017666Y006679D01*
X017666Y006837D02*
X017870Y006837D01*
X017870Y006996D02*
X017666Y006996D01*
X017666Y007154D02*
X017870Y007154D01*
X017870Y007313D02*
X017643Y007313D01*
X017507Y007471D02*
X017870Y007471D01*
X018306Y007306D02*
X018306Y007180D01*
X018306Y007306D02*
X019054Y008054D01*
X019054Y008180D01*
X019054Y008806D01*
X018680Y009180D01*
X018680Y010680D01*
X018930Y010930D01*
X019454Y010930D01*
X019454Y011430D02*
X019454Y011430D01*
X019454Y011780D01*
X019054Y012180D01*
X019102Y012226D02*
X020205Y012226D01*
X020205Y012068D02*
X019490Y012068D01*
X019490Y011909D02*
X020205Y011909D01*
X020205Y011751D02*
X019430Y011751D01*
X019454Y011592D02*
X019454Y011592D01*
X019454Y011434D02*
X019454Y011434D01*
X019454Y011430D02*
X018841Y011430D01*
X020067Y011434D02*
X020420Y011434D01*
X020420Y011592D02*
X020061Y011592D01*
X020063Y011275D02*
X020420Y011275D01*
X020420Y011117D02*
X020067Y011117D01*
X020067Y010958D02*
X020340Y010958D01*
X020182Y010800D02*
X020067Y010800D01*
X020180Y010430D02*
X019454Y010430D01*
X019454Y009930D01*
X020180Y009930D01*
X020680Y009430D01*
X020680Y008304D01*
X021155Y008264D02*
X021570Y008264D01*
X021570Y008422D02*
X021155Y008422D01*
X021155Y008581D02*
X021570Y008581D01*
X021570Y008739D02*
X021051Y008739D01*
X020940Y008898D02*
X021570Y008898D01*
X021570Y009056D02*
X020940Y009056D01*
X020940Y009215D02*
X021570Y009215D01*
X021570Y009373D02*
X020940Y009373D01*
X020919Y009532D02*
X021570Y009532D01*
X021570Y009690D02*
X020788Y009690D01*
X020629Y009849D02*
X021570Y009849D01*
X021570Y010007D02*
X020471Y010007D01*
X020291Y010166D02*
X021570Y010166D01*
X021570Y010324D02*
X020442Y010324D01*
X020600Y010483D02*
X021570Y010483D01*
X021570Y010641D02*
X020759Y010641D01*
X020907Y010800D02*
X021570Y010800D01*
X021570Y010958D02*
X020940Y010958D01*
X020940Y011117D02*
X021570Y011117D01*
X021570Y011275D02*
X020940Y011275D01*
X020940Y011434D02*
X021570Y011434D01*
X021570Y011592D02*
X020940Y011592D01*
X021155Y011751D02*
X021570Y011751D01*
X021570Y011909D02*
X021155Y011909D01*
X021155Y012068D02*
X021570Y012068D01*
X021570Y012226D02*
X021155Y012226D01*
X021155Y012385D02*
X021570Y012385D01*
X021570Y012543D02*
X021155Y012543D01*
X021155Y012702D02*
X021570Y012702D01*
X021570Y012860D02*
X021155Y012860D01*
X021155Y013019D02*
X021570Y013019D01*
X021570Y013177D02*
X021113Y013177D01*
X021570Y013336D02*
X020050Y013336D01*
X020058Y013494D02*
X021570Y013494D01*
X021570Y013653D02*
X021160Y013653D01*
X021409Y013811D02*
X021570Y013811D01*
X021568Y013970D02*
X021570Y013970D01*
X020200Y013653D02*
X019992Y013653D01*
X019962Y013177D02*
X020247Y013177D01*
X020680Y012804D02*
X018554Y012804D01*
X019478Y012543D02*
X020205Y012543D01*
X020205Y012385D02*
X019490Y012385D01*
X020680Y012056D02*
X020680Y010930D01*
X020180Y010430D01*
X018595Y008898D02*
X018490Y008898D01*
X018418Y008739D02*
X018753Y008739D01*
X018354Y008105D02*
X018258Y008105D01*
X018258Y007947D02*
X018354Y007947D01*
X018354Y007788D02*
X018258Y007788D01*
X017666Y006520D02*
X019222Y006520D01*
X019381Y006362D02*
X017666Y006362D01*
X017406Y005430D02*
X016680Y005430D01*
X016180Y005930D01*
X016680Y004930D02*
X015680Y003930D01*
X015680Y003554D01*
X017056Y003984D02*
X017199Y003984D01*
X017406Y004930D02*
X016680Y004930D01*
X019454Y006045D02*
X019454Y006045D01*
X019454Y006203D02*
X019454Y006203D01*
X020430Y006430D02*
X020680Y006180D01*
X020680Y006430D01*
X020430Y006430D01*
X020680Y006680D01*
X020680Y007556D01*
X021155Y007630D02*
X021570Y007630D01*
X021570Y007788D02*
X021155Y007788D01*
X021128Y007947D02*
X021570Y007947D01*
X021570Y008105D02*
X021155Y008105D01*
X021155Y007471D02*
X021570Y007471D01*
X021570Y007313D02*
X021155Y007313D01*
X021084Y007154D02*
X021570Y007154D01*
X021570Y006996D02*
X020940Y006996D01*
X020940Y006837D02*
X021570Y006837D01*
X021570Y006679D02*
X020940Y006679D01*
X020940Y006520D02*
X021570Y006520D01*
X021570Y006362D02*
X020940Y006362D01*
X020940Y006203D02*
X021570Y006203D01*
X021570Y006045D02*
X020940Y006045D01*
X020940Y005886D02*
X021570Y005886D01*
X021570Y005728D02*
X020940Y005728D01*
X020940Y005569D02*
X021570Y005569D01*
X021570Y005411D02*
X020940Y005411D01*
X020940Y005252D02*
X021570Y005252D01*
X021570Y005094D02*
X020940Y005094D01*
X020940Y004935D02*
X021570Y004935D01*
X021570Y004777D02*
X020940Y004777D01*
X020940Y004618D02*
X021570Y004618D01*
X021570Y004460D02*
X020940Y004460D01*
X020940Y004301D02*
X021570Y004301D01*
X021570Y004143D02*
X021147Y004143D01*
X021155Y003984D02*
X021570Y003984D01*
X021570Y003826D02*
X021155Y003826D01*
X021155Y003667D02*
X021570Y003667D01*
X021570Y003509D02*
X021155Y003509D01*
X021155Y003350D02*
X021570Y003350D01*
X021570Y003192D02*
X021155Y003192D01*
X020680Y003804D02*
X020680Y006180D01*
X020680Y006430D02*
X020680Y006680D01*
X018240Y002716D02*
X017155Y002716D01*
X017155Y002558D02*
X018240Y002558D01*
X018240Y002399D02*
X017074Y002399D01*
X018963Y002241D02*
X019892Y002241D01*
X019752Y002082D02*
X019000Y002082D01*
X019097Y001924D02*
X019660Y001924D01*
X019600Y001765D02*
X019120Y001765D01*
X019084Y001607D02*
X019557Y001607D01*
X019550Y001448D02*
X018970Y001448D01*
X019120Y002399D02*
X020098Y002399D01*
X004405Y011751D02*
X000660Y011751D01*
X000660Y011909D02*
X004370Y011909D01*
X004370Y012068D02*
X000660Y012068D01*
X000660Y012226D02*
X004370Y012226D01*
X004370Y012385D02*
X000660Y012385D01*
X000660Y012543D02*
X004370Y012543D01*
X004180Y012543D02*
X000930Y012543D01*
X000930Y012385D02*
X004180Y012385D01*
X004180Y012226D02*
X000930Y012226D01*
X000930Y012068D02*
X004180Y012068D01*
X004180Y011909D02*
X000930Y011909D01*
X000930Y011751D02*
X004180Y011751D01*
X000950Y013653D02*
X000660Y013653D01*
X000660Y013811D02*
X000701Y013811D01*
X002312Y015396D02*
X019798Y015396D01*
D26*
X019680Y013430D03*
X018430Y011180D03*
X016430Y009930D03*
X014430Y009430D03*
X011930Y008930D03*
X011930Y008430D03*
X012180Y006680D03*
X009430Y008430D03*
X008430Y009180D03*
X009130Y009480D03*
X010930Y010430D03*
X009430Y012680D03*
X006680Y012180D03*
X005680Y011180D03*
X005680Y010180D03*
X003680Y009930D03*
X003180Y009930D03*
X003180Y009430D03*
X003680Y009430D03*
X003680Y008930D03*
X003180Y008930D03*
X003180Y008430D03*
X003180Y008430D03*
X003680Y008430D03*
X003680Y008430D03*
X004930Y008180D03*
X006430Y008180D03*
X007430Y006680D03*
X007430Y003930D03*
X011430Y004430D03*
X014180Y002930D03*
X017430Y003680D03*
X018430Y003680D03*
X019930Y003680D03*
X015930Y005430D03*
X014930Y006680D03*
X017430Y008180D03*
X014430Y012180D03*
X005430Y012930D03*
X003680Y012430D03*
X003180Y012430D03*
X003180Y011930D03*
X003680Y011930D03*
X003680Y011430D03*
X003180Y011430D03*
X003180Y010930D03*
X003680Y010930D03*
X003680Y010430D03*
X003180Y010430D03*
X001680Y010430D03*
X001180Y010430D03*
X001180Y009930D03*
X001680Y009930D03*
X001680Y009430D03*
X001180Y009430D03*
X001180Y008930D03*
X001680Y008930D03*
X001680Y008430D03*
X001180Y008430D03*
X001180Y007930D03*
X001680Y007930D03*
X002180Y007930D03*
X002180Y008430D03*
X001430Y007180D03*
X001180Y010930D03*
X001680Y010930D03*
X001680Y011430D03*
X001180Y011430D03*
X001180Y011930D03*
X001680Y011930D03*
X002180Y011930D03*
X002180Y012430D03*
X001680Y012430D03*
X001180Y012430D03*
D27*
X009930Y010430D03*
X008680Y005680D03*
M02*
