G75*
G70*
%OFA0B0*%
%FSLAX24Y24*%
%IPPOS*%
%LPD*%
%AMOC8*
5,1,8,0,0,1.08239X$1,22.5*
%
%ADD10C,0.0594*%
%ADD11C,0.0515*%
%ADD12OC8,0.0520*%
%ADD13C,0.0520*%
%ADD14C,0.0396*%
%ADD15C,0.0160*%
%ADD16C,0.0360*%
D10*
X003383Y002930D02*
X003977Y002930D01*
X003977Y003930D02*
X003383Y003930D01*
X003383Y004930D02*
X003977Y004930D01*
X003977Y005930D02*
X003383Y005930D01*
X003383Y006930D02*
X003977Y006930D01*
X003977Y013430D02*
X003383Y013430D01*
X003383Y014430D02*
X003977Y014430D01*
X015430Y013977D02*
X015430Y013383D01*
X016430Y013383D02*
X016430Y013977D01*
D11*
X011930Y014430D03*
X010930Y014430D03*
X008930Y014430D03*
X007930Y014430D03*
X006930Y014430D03*
X006930Y001680D03*
X007930Y001680D03*
X005930Y001680D03*
X009930Y001680D03*
X010930Y001680D03*
D12*
X018680Y002580D03*
D13*
X018680Y001780D03*
D14*
X018430Y003680D03*
X017430Y003680D03*
X015930Y005430D03*
X014930Y006680D03*
X017430Y008180D03*
X016430Y009930D03*
X014430Y009430D03*
X011930Y008930D03*
X011930Y008430D03*
X012180Y006680D03*
X009430Y008430D03*
X008430Y009180D03*
X009130Y009480D03*
X010930Y010430D03*
X009430Y012680D03*
X006680Y012180D03*
X005680Y011180D03*
X005680Y010180D03*
X003680Y009930D03*
X003180Y009930D03*
X003180Y009430D03*
X003680Y009430D03*
X003680Y008930D03*
X003180Y008930D03*
X003180Y008430D03*
X003180Y008430D03*
X003680Y008430D03*
X003680Y008430D03*
X004930Y008180D03*
X006430Y008180D03*
X007430Y006680D03*
X007430Y003930D03*
X011430Y004430D03*
X014180Y002930D03*
X019930Y003680D03*
X018430Y011180D03*
X019680Y013430D03*
X014430Y012180D03*
X005430Y012930D03*
X003680Y012430D03*
X003180Y012430D03*
X003180Y011930D03*
X003680Y011930D03*
X003680Y011430D03*
X003180Y011430D03*
X003180Y010930D03*
X003680Y010930D03*
X003680Y010430D03*
X003180Y010430D03*
X001680Y010430D03*
X001180Y010430D03*
X001180Y009930D03*
X001680Y009930D03*
X001680Y009430D03*
X001180Y009430D03*
X001180Y008930D03*
X001680Y008930D03*
X001680Y008430D03*
X001180Y008430D03*
X001180Y007930D03*
X001680Y007930D03*
X002180Y007930D03*
X002180Y008430D03*
X001430Y007180D03*
X001180Y010930D03*
X001680Y010930D03*
X001680Y011430D03*
X001180Y011430D03*
X001180Y011930D03*
X001680Y011930D03*
X002180Y011930D03*
X002180Y012430D03*
X001680Y012430D03*
X001180Y012430D03*
D15*
X002334Y000736D02*
X002258Y000660D01*
X003832Y000660D01*
X002533Y001960D01*
X002460Y002033D01*
X002420Y002128D01*
X002420Y007628D01*
X002420Y007878D01*
X002420Y014135D01*
X002334Y013986D01*
X002124Y013776D01*
X001866Y013627D01*
X001579Y013550D01*
X001281Y013550D01*
X000994Y013627D01*
X000736Y013776D01*
X000660Y013852D01*
X000660Y002258D01*
X000736Y002334D01*
X000994Y002483D01*
X001281Y002560D01*
X001579Y002560D01*
X001866Y002483D01*
X002124Y002334D01*
X002334Y002124D01*
X002483Y001866D01*
X002560Y001579D01*
X002560Y001281D01*
X002483Y000994D01*
X002334Y000736D01*
X002379Y000814D02*
X003678Y000814D01*
X003520Y000973D02*
X002471Y000973D01*
X002520Y001131D02*
X003361Y001131D01*
X003203Y001290D02*
X002560Y001290D01*
X002560Y001448D02*
X003044Y001448D01*
X002886Y001607D02*
X002553Y001607D01*
X002510Y001765D02*
X002727Y001765D01*
X002569Y001924D02*
X002450Y001924D01*
X002439Y002082D02*
X002358Y002082D01*
X002420Y002241D02*
X002218Y002241D01*
X002420Y002399D02*
X002012Y002399D01*
X002420Y002558D02*
X001588Y002558D01*
X001272Y002558D02*
X000660Y002558D01*
X000660Y002716D02*
X002420Y002716D01*
X002420Y002875D02*
X000660Y002875D01*
X000660Y003033D02*
X002420Y003033D01*
X002420Y003192D02*
X000660Y003192D01*
X000660Y003350D02*
X002420Y003350D01*
X002420Y003509D02*
X000660Y003509D01*
X000660Y003667D02*
X002420Y003667D01*
X002420Y003826D02*
X000660Y003826D01*
X000660Y003984D02*
X002420Y003984D01*
X002420Y004143D02*
X000660Y004143D01*
X000660Y004301D02*
X002420Y004301D01*
X002420Y004460D02*
X000660Y004460D01*
X000660Y004618D02*
X002420Y004618D01*
X002420Y004777D02*
X000660Y004777D01*
X000660Y004935D02*
X002420Y004935D01*
X002420Y005094D02*
X000660Y005094D01*
X000660Y005252D02*
X002420Y005252D01*
X002420Y005411D02*
X000660Y005411D01*
X000660Y005569D02*
X002420Y005569D01*
X002420Y005728D02*
X000660Y005728D01*
X000660Y005886D02*
X002420Y005886D01*
X002420Y006045D02*
X000660Y006045D01*
X000660Y006203D02*
X002420Y006203D01*
X002420Y006362D02*
X000660Y006362D01*
X000660Y006520D02*
X002420Y006520D01*
X002420Y006679D02*
X000660Y006679D01*
X000660Y006837D02*
X002420Y006837D01*
X002420Y006996D02*
X000660Y006996D01*
X000660Y007154D02*
X002420Y007154D01*
X002420Y007313D02*
X000660Y007313D01*
X000660Y007471D02*
X002420Y007471D01*
X002420Y007630D02*
X000660Y007630D01*
X000660Y007788D02*
X002420Y007788D01*
X002420Y007947D02*
X000660Y007947D01*
X000660Y008105D02*
X002420Y008105D01*
X002420Y008264D02*
X000660Y008264D01*
X000660Y008422D02*
X002420Y008422D01*
X002420Y008581D02*
X000660Y008581D01*
X000660Y008739D02*
X002420Y008739D01*
X002420Y008898D02*
X000660Y008898D01*
X000660Y009056D02*
X002420Y009056D01*
X002420Y009215D02*
X000660Y009215D01*
X000660Y009373D02*
X002420Y009373D01*
X002420Y009532D02*
X000660Y009532D01*
X000660Y009690D02*
X002420Y009690D01*
X002420Y009849D02*
X000660Y009849D01*
X000660Y010007D02*
X002420Y010007D01*
X002420Y010166D02*
X000660Y010166D01*
X000660Y010324D02*
X002420Y010324D01*
X002420Y010483D02*
X000660Y010483D01*
X000660Y010641D02*
X002420Y010641D01*
X002420Y010800D02*
X000660Y010800D01*
X000660Y010958D02*
X002420Y010958D01*
X002420Y011117D02*
X000660Y011117D01*
X000660Y011275D02*
X002420Y011275D01*
X002420Y011434D02*
X000660Y011434D01*
X000660Y011592D02*
X002420Y011592D01*
X002420Y011751D02*
X000660Y011751D01*
X000660Y011909D02*
X002420Y011909D01*
X002420Y012068D02*
X000660Y012068D01*
X000660Y012226D02*
X002420Y012226D01*
X002420Y012385D02*
X000660Y012385D01*
X000660Y012543D02*
X002420Y012543D01*
X002420Y012702D02*
X000660Y012702D01*
X000660Y012860D02*
X002420Y012860D01*
X002420Y013019D02*
X000660Y013019D01*
X000660Y013177D02*
X002420Y013177D01*
X002420Y013336D02*
X000660Y013336D01*
X000660Y013494D02*
X002420Y013494D01*
X002420Y013653D02*
X001910Y013653D01*
X002159Y013811D02*
X002420Y013811D01*
X002420Y013970D02*
X002318Y013970D01*
X002416Y014128D02*
X002420Y014128D01*
X002680Y014180D02*
X002930Y014430D01*
X003680Y014430D01*
X003288Y013953D02*
X003113Y014026D01*
X003003Y014136D01*
X002940Y014072D01*
X002940Y013609D01*
X002941Y013613D01*
X002975Y013680D01*
X003019Y013741D01*
X003073Y013794D01*
X003133Y013838D01*
X003200Y013872D01*
X003271Y013895D01*
X003346Y013907D01*
X003662Y013907D01*
X003662Y013448D01*
X003698Y013448D01*
X003698Y013907D01*
X004014Y013907D01*
X004089Y013895D01*
X004160Y013872D01*
X004227Y013838D01*
X004287Y013794D01*
X004341Y013741D01*
X004385Y013680D01*
X004419Y013613D01*
X004442Y013542D01*
X004454Y013468D01*
X004454Y013448D01*
X003698Y013448D01*
X003698Y013412D01*
X004454Y013412D01*
X004454Y013392D01*
X004442Y013318D01*
X004419Y013247D01*
X004385Y013180D01*
X004341Y013119D01*
X004287Y013066D01*
X004227Y013022D01*
X004160Y012988D01*
X004089Y012965D01*
X004014Y012953D01*
X003698Y012953D01*
X003698Y013412D01*
X003662Y013412D01*
X003662Y012953D01*
X003346Y012953D01*
X003271Y012965D01*
X003200Y012988D01*
X003133Y013022D01*
X003073Y013066D01*
X003019Y013119D01*
X002975Y013180D01*
X002941Y013247D01*
X002940Y013251D01*
X002940Y008038D01*
X003038Y007940D01*
X004322Y007940D01*
X004552Y008170D01*
X004552Y008255D01*
X004609Y008394D01*
X004716Y008501D01*
X004855Y008558D01*
X005005Y008558D01*
X005144Y008501D01*
X005251Y008394D01*
X005308Y008255D01*
X005308Y008105D01*
X008420Y008105D01*
X008420Y007947D02*
X005231Y007947D01*
X005251Y007966D02*
X005308Y008105D01*
X005251Y007966D02*
X005144Y007859D01*
X005005Y007802D01*
X004920Y007802D01*
X004650Y007533D01*
X004577Y007460D01*
X004482Y007420D01*
X003038Y007420D01*
X002940Y007322D01*
X002940Y007106D01*
X002979Y007200D01*
X003113Y007334D01*
X003288Y007407D01*
X004072Y007407D01*
X004247Y007334D01*
X004381Y007200D01*
X004454Y007025D01*
X004454Y006835D01*
X004381Y006660D01*
X004247Y006526D01*
X004072Y006453D01*
X003288Y006453D01*
X003113Y006526D01*
X002979Y006660D01*
X002940Y006754D01*
X002940Y006106D01*
X002979Y006200D01*
X003113Y006334D01*
X003288Y006407D01*
X004072Y006407D01*
X004247Y006334D01*
X004381Y006200D01*
X004454Y006025D01*
X004454Y005835D01*
X004381Y005660D01*
X004247Y005526D01*
X004072Y005453D01*
X003288Y005453D01*
X003113Y005526D01*
X002979Y005660D01*
X002940Y005754D01*
X002940Y005106D01*
X002979Y005200D01*
X003113Y005334D01*
X003288Y005407D01*
X004072Y005407D01*
X004247Y005334D01*
X004381Y005200D01*
X004454Y005025D01*
X004454Y004835D01*
X004381Y004660D01*
X004247Y004526D01*
X004072Y004453D01*
X003288Y004453D01*
X003113Y004526D01*
X002979Y004660D01*
X002940Y004754D01*
X002940Y004106D01*
X002979Y004200D01*
X003113Y004334D01*
X003288Y004407D01*
X004072Y004407D01*
X004247Y004334D01*
X004381Y004200D01*
X004385Y004190D01*
X006572Y004190D01*
X008210Y005827D01*
X008283Y005900D01*
X008420Y006038D01*
X008420Y008802D01*
X008355Y008802D01*
X008216Y008859D01*
X008109Y008966D01*
X008052Y009105D01*
X008052Y009255D01*
X008109Y009394D01*
X008216Y009501D01*
X008355Y009558D01*
X008420Y009558D01*
X008420Y010822D01*
X008322Y010920D01*
X005955Y010920D01*
X005894Y010859D01*
X005755Y010802D01*
X005605Y010802D01*
X005466Y010859D01*
X005359Y010966D01*
X005302Y011105D01*
X005302Y011255D01*
X005359Y011394D01*
X005466Y011501D01*
X005605Y011558D01*
X005755Y011558D01*
X005894Y011501D01*
X005955Y011440D01*
X011232Y011440D01*
X011327Y011400D01*
X011400Y011327D01*
X012400Y010327D01*
X012440Y010232D01*
X012440Y009288D01*
X012538Y009190D01*
X015322Y009190D01*
X016052Y009920D01*
X016052Y010005D01*
X016109Y010144D01*
X016216Y010251D01*
X016355Y010308D01*
X016505Y010308D01*
X016644Y010251D01*
X016751Y010144D01*
X016808Y010005D01*
X016808Y009855D01*
X016751Y009716D01*
X016644Y009609D01*
X016505Y009552D01*
X016420Y009552D01*
X015650Y008783D01*
X015577Y008710D01*
X015482Y008670D01*
X012788Y008670D01*
X012690Y008572D01*
X012690Y006878D01*
X012650Y006783D01*
X012577Y006710D01*
X012558Y006690D01*
X012558Y006605D01*
X012501Y006466D01*
X012394Y006359D01*
X012255Y006302D01*
X012105Y006302D01*
X011966Y006359D01*
X011859Y006466D01*
X011802Y006605D01*
X011802Y006755D01*
X011859Y006894D01*
X011966Y007001D01*
X012105Y007058D01*
X012170Y007058D01*
X012170Y008572D01*
X012136Y008606D01*
X012005Y008552D01*
X011855Y008552D01*
X011716Y008609D01*
X011609Y008716D01*
X011552Y008855D01*
X011552Y009005D01*
X011609Y009144D01*
X011716Y009251D01*
X011855Y009308D01*
X011920Y009308D01*
X011920Y010072D01*
X011072Y010920D01*
X009038Y010920D01*
X008940Y010822D01*
X008940Y008788D01*
X009038Y008690D01*
X009155Y008690D01*
X009216Y008751D01*
X009355Y008808D01*
X009505Y008808D01*
X009644Y008751D01*
X009751Y008644D01*
X009808Y008505D01*
X009808Y008355D01*
X009751Y008216D01*
X009644Y008109D01*
X009505Y008052D01*
X009355Y008052D01*
X009216Y008109D01*
X009155Y008170D01*
X009038Y008170D01*
X008940Y008072D01*
X008940Y006038D01*
X009150Y005827D01*
X011038Y003940D01*
X017155Y003940D01*
X017216Y004001D01*
X017355Y004058D01*
X017505Y004058D01*
X017644Y004001D01*
X017751Y003894D01*
X017808Y003755D01*
X017808Y003605D01*
X017751Y003466D01*
X017644Y003359D01*
X017505Y003302D01*
X017355Y003302D01*
X017216Y003359D01*
X017155Y003420D01*
X010878Y003420D01*
X010783Y003460D01*
X008872Y005370D01*
X008752Y005320D01*
X008608Y005320D01*
X008488Y005370D01*
X006900Y003783D01*
X006827Y003710D01*
X006732Y003670D01*
X004385Y003670D01*
X004381Y003660D01*
X004247Y003526D01*
X004072Y003453D01*
X003288Y003453D01*
X003113Y003526D01*
X002979Y003660D01*
X002940Y003754D01*
X002940Y003109D01*
X002941Y003113D01*
X002975Y003180D01*
X003019Y003241D01*
X003073Y003294D01*
X003133Y003338D01*
X003200Y003372D01*
X003271Y003395D01*
X003346Y003407D01*
X003662Y003407D01*
X003662Y002948D01*
X003698Y002948D01*
X003698Y003407D01*
X004014Y003407D01*
X004089Y003395D01*
X004160Y003372D01*
X004227Y003338D01*
X004287Y003294D01*
X004341Y003241D01*
X004385Y003180D01*
X004419Y003113D01*
X004442Y003042D01*
X004454Y002968D01*
X004454Y002948D01*
X003698Y002948D01*
X003698Y002912D01*
X004454Y002912D01*
X004454Y002892D01*
X004442Y002818D01*
X004419Y002747D01*
X004385Y002680D01*
X004341Y002619D01*
X004287Y002566D01*
X004227Y002522D01*
X004160Y002488D01*
X004089Y002465D01*
X004014Y002453D01*
X003698Y002453D01*
X003698Y002912D01*
X003662Y002912D01*
X003662Y002453D01*
X003346Y002453D01*
X003271Y002465D01*
X003200Y002488D01*
X003133Y002522D01*
X003073Y002566D01*
X003019Y002619D01*
X002975Y002680D01*
X002941Y002747D01*
X002940Y002751D01*
X002940Y002288D01*
X004288Y000940D01*
X017426Y000940D01*
X018240Y001719D01*
X018240Y001868D01*
X018307Y002029D01*
X018431Y002153D01*
X018469Y002169D01*
X018240Y002398D01*
X018240Y002580D01*
X018680Y002580D01*
X018680Y002580D01*
X018680Y003020D01*
X018862Y003020D01*
X019120Y002762D01*
X019120Y002580D01*
X018680Y002580D01*
X018680Y002580D01*
X018680Y002580D01*
X018680Y003020D01*
X018498Y003020D01*
X018240Y002762D01*
X018240Y002580D01*
X018680Y002580D01*
X019120Y002580D01*
X019120Y002398D01*
X018891Y002169D01*
X018929Y002153D01*
X019053Y002029D01*
X019120Y001868D01*
X019120Y001692D01*
X019053Y001531D01*
X018929Y001407D01*
X018768Y001340D01*
X018596Y001340D01*
X017885Y000660D01*
X019852Y000660D01*
X019776Y000736D01*
X019627Y000994D01*
X019550Y001281D01*
X019550Y001579D01*
X019627Y001866D01*
X019776Y002124D01*
X019986Y002334D01*
X020244Y002483D01*
X020531Y002560D01*
X020829Y002560D01*
X021116Y002483D01*
X021374Y002334D01*
X021570Y002138D01*
X021570Y013972D01*
X021374Y013776D01*
X021116Y013627D01*
X020829Y013550D01*
X020531Y013550D01*
X020244Y013627D01*
X019986Y013776D01*
X019776Y013986D01*
X019627Y014244D01*
X019550Y014531D01*
X019550Y014829D01*
X019627Y015116D01*
X019776Y015374D01*
X019848Y015446D01*
X002262Y015446D01*
X002334Y015374D01*
X002483Y015116D01*
X002560Y014829D01*
X002560Y014531D01*
X002522Y014390D01*
X002533Y014400D01*
X002533Y014400D01*
X002710Y014577D01*
X002710Y014577D01*
X002783Y014650D01*
X002878Y014690D01*
X002975Y014690D01*
X002979Y014700D01*
X003113Y014834D01*
X003288Y014907D01*
X004072Y014907D01*
X004247Y014834D01*
X004381Y014700D01*
X004454Y014525D01*
X004454Y014335D01*
X004381Y014160D01*
X004247Y014026D01*
X004072Y013953D01*
X003288Y013953D01*
X003249Y013970D02*
X002940Y013970D01*
X002940Y013811D02*
X003096Y013811D01*
X002961Y013653D02*
X002940Y013653D01*
X002940Y013177D02*
X002978Y013177D01*
X002940Y013019D02*
X003140Y013019D01*
X002940Y012860D02*
X019420Y012860D01*
X019420Y012702D02*
X002940Y012702D01*
X002940Y012543D02*
X019420Y012543D01*
X019420Y012385D02*
X002940Y012385D01*
X002940Y012226D02*
X019420Y012226D01*
X019420Y012068D02*
X002940Y012068D01*
X002940Y011909D02*
X019420Y011909D01*
X019420Y011751D02*
X002940Y011751D01*
X002940Y011592D02*
X019420Y011592D01*
X019420Y011434D02*
X011247Y011434D01*
X011453Y011275D02*
X019420Y011275D01*
X019420Y011117D02*
X011611Y011117D01*
X011770Y010958D02*
X019420Y010958D01*
X019420Y010800D02*
X011928Y010800D01*
X012087Y010641D02*
X019420Y010641D01*
X019420Y010483D02*
X012245Y010483D01*
X012402Y010324D02*
X019420Y010324D01*
X019420Y010166D02*
X016729Y010166D01*
X016807Y010007D02*
X019420Y010007D01*
X019420Y009849D02*
X016806Y009849D01*
X016725Y009690D02*
X019420Y009690D01*
X019420Y009532D02*
X016399Y009532D01*
X016241Y009373D02*
X019420Y009373D01*
X019420Y009288D02*
X015940Y005808D01*
X015855Y005808D01*
X015716Y005751D01*
X015609Y005644D01*
X015552Y005505D01*
X015552Y005420D01*
X014822Y004690D01*
X011705Y004690D01*
X011644Y004751D01*
X011505Y004808D01*
X011420Y004808D01*
X010940Y005288D01*
X010940Y009982D01*
X010900Y010077D01*
X010400Y010577D01*
X010400Y010577D01*
X010327Y010650D01*
X010232Y010690D01*
X010179Y010690D01*
X010134Y010735D01*
X010002Y010790D01*
X009858Y010790D01*
X009726Y010735D01*
X009625Y010634D01*
X009570Y010502D01*
X009570Y010358D01*
X009625Y010226D01*
X009726Y010125D01*
X009858Y010070D01*
X010002Y010070D01*
X010122Y010120D01*
X010420Y009822D01*
X010420Y005128D01*
X010460Y005033D01*
X010533Y004960D01*
X011052Y004440D01*
X011052Y004355D01*
X011109Y004216D01*
X011216Y004109D01*
X011355Y004052D01*
X011505Y004052D01*
X011644Y004109D01*
X011705Y004170D01*
X014982Y004170D01*
X015077Y004210D01*
X015150Y004283D01*
X015920Y005052D01*
X016005Y005052D01*
X016144Y005109D01*
X016251Y005216D01*
X016308Y005355D01*
X016308Y005440D01*
X019900Y009033D01*
X019940Y009128D01*
X019940Y013155D01*
X020001Y013216D01*
X020058Y013355D01*
X020058Y013505D01*
X020001Y013644D01*
X019894Y013751D01*
X019755Y013808D01*
X019605Y013808D01*
X019466Y013751D01*
X019359Y013644D01*
X019302Y013505D01*
X019302Y013355D01*
X019359Y013216D01*
X019420Y013155D01*
X019420Y009288D01*
X019347Y009215D02*
X016082Y009215D01*
X015924Y009056D02*
X019188Y009056D01*
X019030Y008898D02*
X015765Y008898D01*
X015607Y008739D02*
X018871Y008739D01*
X018713Y008581D02*
X012698Y008581D01*
X012690Y008422D02*
X018554Y008422D01*
X018396Y008264D02*
X012690Y008264D01*
X012690Y008105D02*
X018237Y008105D01*
X018079Y007947D02*
X012690Y007947D01*
X012690Y007788D02*
X017920Y007788D01*
X017762Y007630D02*
X012690Y007630D01*
X012690Y007471D02*
X017603Y007471D01*
X017445Y007313D02*
X012690Y007313D01*
X012690Y007154D02*
X017286Y007154D01*
X017128Y006996D02*
X012690Y006996D01*
X012673Y006837D02*
X016969Y006837D01*
X016811Y006679D02*
X012558Y006679D01*
X012523Y006520D02*
X016652Y006520D01*
X016494Y006362D02*
X012396Y006362D01*
X011964Y006362D02*
X010940Y006362D01*
X010940Y006520D02*
X011837Y006520D01*
X011802Y006679D02*
X010940Y006679D01*
X010940Y006837D02*
X011836Y006837D01*
X011961Y006996D02*
X010940Y006996D01*
X010940Y007154D02*
X012170Y007154D01*
X012170Y007313D02*
X010940Y007313D01*
X010940Y007471D02*
X012170Y007471D01*
X012170Y007630D02*
X010940Y007630D01*
X010940Y007788D02*
X012170Y007788D01*
X012170Y007947D02*
X010940Y007947D01*
X010940Y008105D02*
X012170Y008105D01*
X012170Y008264D02*
X010940Y008264D01*
X010940Y008422D02*
X012170Y008422D01*
X012162Y008581D02*
X012074Y008581D01*
X011786Y008581D02*
X010940Y008581D01*
X010940Y008739D02*
X011600Y008739D01*
X011552Y008898D02*
X010940Y008898D01*
X010940Y009056D02*
X011573Y009056D01*
X011680Y009215D02*
X010940Y009215D01*
X010940Y009373D02*
X011920Y009373D01*
X011920Y009532D02*
X010940Y009532D01*
X010940Y009690D02*
X011920Y009690D01*
X011920Y009849D02*
X010940Y009849D01*
X010930Y010007D02*
X011920Y010007D01*
X011827Y010166D02*
X010812Y010166D01*
X010654Y010324D02*
X011668Y010324D01*
X011510Y010483D02*
X010495Y010483D01*
X010337Y010641D02*
X011351Y010641D01*
X011193Y010800D02*
X008940Y010800D01*
X008940Y010641D02*
X009632Y010641D01*
X009570Y010483D02*
X008940Y010483D01*
X008940Y010324D02*
X009584Y010324D01*
X009685Y010166D02*
X008940Y010166D01*
X008940Y010007D02*
X010235Y010007D01*
X010394Y009849D02*
X008940Y009849D01*
X008940Y009690D02*
X010420Y009690D01*
X010420Y009532D02*
X008940Y009532D01*
X008940Y009373D02*
X010420Y009373D01*
X010420Y009215D02*
X008940Y009215D01*
X008940Y009056D02*
X010420Y009056D01*
X010420Y008898D02*
X008940Y008898D01*
X008989Y008739D02*
X009204Y008739D01*
X009430Y008430D02*
X008930Y008430D01*
X008680Y008180D01*
X008680Y008430D01*
X008930Y008430D01*
X008680Y008680D01*
X008680Y008930D01*
X008430Y009180D01*
X008680Y009430D01*
X008680Y010930D01*
X008930Y011180D01*
X008680Y011180D01*
X008680Y010930D01*
X008430Y011180D01*
X005680Y011180D01*
X005399Y011434D02*
X002940Y011434D01*
X002940Y011275D02*
X005310Y011275D01*
X005302Y011117D02*
X002940Y011117D01*
X002940Y010958D02*
X005367Y010958D01*
X002940Y010800D02*
X008420Y010800D01*
X008420Y010641D02*
X002940Y010641D01*
X002940Y010483D02*
X008420Y010483D01*
X008420Y010324D02*
X002940Y010324D01*
X002940Y010166D02*
X008420Y010166D01*
X008420Y010007D02*
X002940Y010007D01*
X002940Y009849D02*
X008420Y009849D01*
X008420Y009690D02*
X002940Y009690D01*
X002940Y009532D02*
X008291Y009532D01*
X008101Y009373D02*
X002940Y009373D01*
X002940Y009215D02*
X008052Y009215D01*
X008072Y009056D02*
X002940Y009056D01*
X002940Y008898D02*
X008178Y008898D01*
X008420Y008739D02*
X002940Y008739D01*
X002940Y008581D02*
X008420Y008581D01*
X008420Y008422D02*
X005223Y008422D01*
X005305Y008264D02*
X008420Y008264D01*
X008680Y008180D02*
X008680Y005930D01*
X008680Y005680D01*
X008930Y005680D01*
X008680Y005930D01*
X008430Y005680D01*
X008680Y005680D01*
X008430Y005680D02*
X006680Y003930D01*
X003680Y003930D01*
X004087Y004460D02*
X006842Y004460D01*
X007000Y004618D02*
X004339Y004618D01*
X004429Y004777D02*
X007159Y004777D01*
X007317Y004935D02*
X004454Y004935D01*
X004425Y005094D02*
X007476Y005094D01*
X007634Y005252D02*
X004329Y005252D01*
X004290Y005569D02*
X007951Y005569D01*
X007793Y005411D02*
X002940Y005411D01*
X002940Y005569D02*
X003070Y005569D01*
X002951Y005728D02*
X002940Y005728D01*
X002940Y006203D02*
X002982Y006203D01*
X002940Y006362D02*
X003179Y006362D01*
X003127Y006520D02*
X002940Y006520D01*
X002940Y006679D02*
X002971Y006679D01*
X002960Y007154D02*
X002940Y007154D01*
X002940Y007313D02*
X003091Y007313D01*
X002930Y007680D02*
X002680Y007430D01*
X002680Y007680D01*
X002930Y007680D01*
X002680Y007930D01*
X002680Y014180D01*
X002577Y014445D02*
X002537Y014445D01*
X002560Y014604D02*
X002736Y014604D01*
X002560Y014762D02*
X003041Y014762D01*
X002535Y014921D02*
X019575Y014921D01*
X019550Y014762D02*
X012217Y014762D01*
X012178Y014801D02*
X012301Y014678D01*
X012367Y014517D01*
X012367Y014343D01*
X012301Y014182D01*
X012178Y014059D01*
X012017Y013993D01*
X011843Y013993D01*
X011682Y014059D01*
X011559Y014182D01*
X011493Y014343D01*
X011493Y014517D01*
X011559Y014678D01*
X011682Y014801D01*
X011843Y014867D01*
X012017Y014867D01*
X012178Y014801D01*
X012332Y014604D02*
X019550Y014604D01*
X019573Y014445D02*
X016522Y014445D01*
X016542Y014442D02*
X016468Y014454D01*
X016448Y014454D01*
X016448Y013698D01*
X016907Y013698D01*
X016907Y014014D01*
X016895Y014089D01*
X016872Y014160D01*
X016838Y014227D01*
X016794Y014287D01*
X016741Y014341D01*
X016680Y014385D01*
X016613Y014419D01*
X016542Y014442D01*
X016448Y014445D02*
X016412Y014445D01*
X016412Y014454D02*
X016392Y014454D01*
X016318Y014442D01*
X016247Y014419D01*
X016180Y014385D01*
X016119Y014341D01*
X016066Y014287D01*
X016022Y014227D01*
X015988Y014160D01*
X015965Y014089D01*
X015953Y014014D01*
X015953Y013698D01*
X016412Y013698D01*
X016412Y013662D01*
X016448Y013662D01*
X016448Y013698D01*
X016412Y013698D01*
X016412Y014454D01*
X016338Y014445D02*
X015546Y014445D01*
X015525Y014454D02*
X015335Y014454D01*
X015160Y014381D01*
X015026Y014247D01*
X014953Y014072D01*
X014953Y013288D01*
X015026Y013113D01*
X015160Y012979D01*
X015335Y012906D01*
X015525Y012906D01*
X015700Y012979D01*
X015834Y013113D01*
X015907Y013288D01*
X015907Y014072D01*
X015834Y014247D01*
X015700Y014381D01*
X015525Y014454D01*
X015314Y014445D02*
X012367Y014445D01*
X012344Y014287D02*
X015065Y014287D01*
X014976Y014128D02*
X012247Y014128D01*
X011613Y014128D02*
X011247Y014128D01*
X011301Y014182D02*
X011178Y014059D01*
X011017Y013993D01*
X010843Y013993D01*
X010682Y014059D01*
X010559Y014182D01*
X010493Y014343D01*
X010493Y014517D01*
X010559Y014678D01*
X010682Y014801D01*
X010843Y014867D01*
X011017Y014867D01*
X011178Y014801D01*
X011301Y014678D01*
X011367Y014517D01*
X011367Y014343D01*
X011301Y014182D01*
X011344Y014287D02*
X011516Y014287D01*
X011493Y014445D02*
X011367Y014445D01*
X011332Y014604D02*
X011528Y014604D01*
X011643Y014762D02*
X011217Y014762D01*
X010643Y014762D02*
X009217Y014762D01*
X009178Y014801D02*
X009017Y014867D01*
X008843Y014867D01*
X008682Y014801D01*
X008559Y014678D01*
X008493Y014517D01*
X008493Y014343D01*
X008559Y014182D01*
X008682Y014059D01*
X008843Y013993D01*
X009017Y013993D01*
X009178Y014059D01*
X009301Y014182D01*
X009367Y014343D01*
X009367Y014517D01*
X009301Y014678D01*
X009178Y014801D01*
X009332Y014604D02*
X010528Y014604D01*
X010493Y014445D02*
X009367Y014445D01*
X009344Y014287D02*
X010516Y014287D01*
X010613Y014128D02*
X009247Y014128D01*
X008613Y014128D02*
X008247Y014128D01*
X008301Y014182D02*
X008367Y014343D01*
X008367Y014517D01*
X008301Y014678D01*
X008178Y014801D01*
X008017Y014867D01*
X007843Y014867D01*
X007682Y014801D01*
X007559Y014678D01*
X007493Y014517D01*
X007493Y014343D01*
X007559Y014182D01*
X007682Y014059D01*
X007843Y013993D01*
X008017Y013993D01*
X008178Y014059D01*
X008301Y014182D01*
X008344Y014287D02*
X008516Y014287D01*
X008493Y014445D02*
X008367Y014445D01*
X008332Y014604D02*
X008528Y014604D01*
X008643Y014762D02*
X008217Y014762D01*
X007643Y014762D02*
X007217Y014762D01*
X007178Y014801D02*
X007017Y014867D01*
X006843Y014867D01*
X006682Y014801D01*
X006559Y014678D01*
X006493Y014517D01*
X006493Y014343D01*
X006559Y014182D01*
X006682Y014059D01*
X006843Y013993D01*
X007017Y013993D01*
X007178Y014059D01*
X007301Y014182D01*
X007367Y014343D01*
X007367Y014517D01*
X007301Y014678D01*
X007178Y014801D01*
X007332Y014604D02*
X007528Y014604D01*
X007493Y014445D02*
X007367Y014445D01*
X007344Y014287D02*
X007516Y014287D01*
X007613Y014128D02*
X007247Y014128D01*
X006613Y014128D02*
X004349Y014128D01*
X004434Y014287D02*
X006516Y014287D01*
X006493Y014445D02*
X004454Y014445D01*
X004421Y014604D02*
X006528Y014604D01*
X006643Y014762D02*
X004319Y014762D01*
X004111Y013970D02*
X014953Y013970D01*
X014953Y013811D02*
X004264Y013811D01*
X004399Y013653D02*
X014953Y013653D01*
X014953Y013494D02*
X004450Y013494D01*
X004445Y013336D02*
X014953Y013336D01*
X014999Y013177D02*
X004382Y013177D01*
X004220Y013019D02*
X015120Y013019D01*
X015740Y013019D02*
X016121Y013019D01*
X016119Y013019D02*
X016180Y012975D01*
X016247Y012941D01*
X016318Y012918D01*
X016392Y012906D01*
X016412Y012906D01*
X016412Y013662D01*
X015953Y013662D01*
X015953Y013346D01*
X015965Y013271D01*
X015988Y013200D01*
X016022Y013133D01*
X016066Y013073D01*
X016119Y013019D01*
X016000Y013177D02*
X015861Y013177D01*
X015907Y013336D02*
X015955Y013336D01*
X015953Y013494D02*
X015907Y013494D01*
X015907Y013653D02*
X015953Y013653D01*
X015953Y013811D02*
X015907Y013811D01*
X015907Y013970D02*
X015953Y013970D01*
X015978Y014128D02*
X015884Y014128D01*
X015795Y014287D02*
X016066Y014287D01*
X016412Y014287D02*
X016448Y014287D01*
X016448Y014128D02*
X016412Y014128D01*
X016412Y013970D02*
X016448Y013970D01*
X016448Y013811D02*
X016412Y013811D01*
X016448Y013662D02*
X016907Y013662D01*
X016907Y013346D01*
X016895Y013271D01*
X016872Y013200D01*
X016838Y013133D01*
X016794Y013073D01*
X016741Y013019D01*
X016680Y012975D01*
X016613Y012941D01*
X016542Y012918D01*
X016468Y012906D01*
X016448Y012906D01*
X016448Y013662D01*
X016448Y013653D02*
X016412Y013653D01*
X016412Y013494D02*
X016448Y013494D01*
X016448Y013336D02*
X016412Y013336D01*
X016412Y013177D02*
X016448Y013177D01*
X016448Y013019D02*
X016412Y013019D01*
X016739Y013019D02*
X019420Y013019D01*
X019398Y013177D02*
X016860Y013177D01*
X016905Y013336D02*
X019310Y013336D01*
X019302Y013494D02*
X016907Y013494D01*
X016907Y013653D02*
X019368Y013653D01*
X019680Y013430D02*
X019680Y009180D01*
X015930Y005430D01*
X014930Y004430D01*
X011430Y004430D01*
X010680Y005180D01*
X010680Y009930D01*
X010180Y010430D01*
X009930Y010430D01*
X008930Y011180D02*
X011180Y011180D01*
X012180Y010180D01*
X012180Y009180D01*
X012180Y008930D01*
X012430Y008680D01*
X012680Y008930D01*
X012430Y008930D01*
X012430Y008680D01*
X012430Y006930D01*
X012180Y006680D01*
X010940Y006203D02*
X016335Y006203D01*
X016177Y006045D02*
X010940Y006045D01*
X010940Y005886D02*
X016018Y005886D01*
X015693Y005728D02*
X010940Y005728D01*
X010940Y005569D02*
X015578Y005569D01*
X015543Y005411D02*
X010940Y005411D01*
X010976Y005252D02*
X015384Y005252D01*
X015226Y005094D02*
X011134Y005094D01*
X011293Y004935D02*
X015067Y004935D01*
X014909Y004777D02*
X011582Y004777D01*
X011033Y004460D02*
X010518Y004460D01*
X010360Y004618D02*
X010874Y004618D01*
X010716Y004777D02*
X010201Y004777D01*
X010043Y004935D02*
X010557Y004935D01*
X010533Y004960D02*
X010533Y004960D01*
X010434Y005094D02*
X009884Y005094D01*
X009726Y005252D02*
X010420Y005252D01*
X010420Y005411D02*
X009567Y005411D01*
X009409Y005569D02*
X010420Y005569D01*
X010420Y005728D02*
X009250Y005728D01*
X009092Y005886D02*
X010420Y005886D01*
X010420Y006045D02*
X008940Y006045D01*
X008940Y006203D02*
X010420Y006203D01*
X010420Y006362D02*
X008940Y006362D01*
X008940Y006520D02*
X010420Y006520D01*
X010420Y006679D02*
X008940Y006679D01*
X008940Y006837D02*
X010420Y006837D01*
X010420Y006996D02*
X008940Y006996D01*
X008940Y007154D02*
X010420Y007154D01*
X010420Y007313D02*
X008940Y007313D01*
X008940Y007471D02*
X010420Y007471D01*
X010420Y007630D02*
X008940Y007630D01*
X008940Y007788D02*
X010420Y007788D01*
X010420Y007947D02*
X008940Y007947D01*
X008973Y008105D02*
X009227Y008105D01*
X009633Y008105D02*
X010420Y008105D01*
X010420Y008264D02*
X009770Y008264D01*
X009808Y008422D02*
X010420Y008422D01*
X010420Y008581D02*
X009777Y008581D01*
X009656Y008739D02*
X010420Y008739D01*
X011930Y008930D02*
X012180Y009180D01*
X012430Y008930D01*
X012180Y008930D01*
X011930Y008930D01*
X012513Y009215D02*
X015347Y009215D01*
X015505Y009373D02*
X012440Y009373D01*
X012440Y009532D02*
X015664Y009532D01*
X015822Y009690D02*
X012440Y009690D01*
X012440Y009849D02*
X015981Y009849D01*
X016053Y010007D02*
X012440Y010007D01*
X012440Y010166D02*
X016131Y010166D01*
X016430Y009930D02*
X015430Y008930D01*
X012680Y008930D01*
X008680Y008930D02*
X008680Y009180D01*
X008430Y009180D01*
X008680Y009180D02*
X008680Y009430D01*
X008680Y008680D02*
X008680Y008430D01*
X008420Y007788D02*
X004906Y007788D01*
X004747Y007630D02*
X008420Y007630D01*
X008420Y007471D02*
X004589Y007471D01*
X004430Y007680D02*
X002930Y007680D01*
X002680Y007680D02*
X002680Y007930D01*
X002940Y008105D02*
X004487Y008105D01*
X004555Y008264D02*
X002940Y008264D01*
X002940Y008422D02*
X004637Y008422D01*
X004930Y008180D02*
X004430Y007680D01*
X004329Y007947D02*
X003031Y007947D01*
X002680Y007430D02*
X002680Y002180D01*
X004180Y000680D01*
X017530Y000680D01*
X018680Y001780D01*
X019000Y002082D02*
X019752Y002082D01*
X019660Y001924D02*
X019097Y001924D01*
X019120Y001765D02*
X019600Y001765D01*
X019557Y001607D02*
X019084Y001607D01*
X018970Y001448D02*
X019550Y001448D01*
X019550Y001290D02*
X018543Y001290D01*
X018378Y001131D02*
X019590Y001131D01*
X019639Y000973D02*
X018212Y000973D01*
X018046Y000814D02*
X019731Y000814D01*
X018240Y001765D02*
X011367Y001765D01*
X011367Y001767D02*
X011301Y001928D01*
X011178Y002051D01*
X011017Y002117D01*
X010843Y002117D01*
X010682Y002051D01*
X010559Y001928D01*
X010493Y001767D01*
X010493Y001593D01*
X010559Y001432D01*
X010682Y001309D01*
X010843Y001243D01*
X011017Y001243D01*
X011178Y001309D01*
X011301Y001432D01*
X011367Y001593D01*
X011367Y001767D01*
X011367Y001607D02*
X018122Y001607D01*
X017957Y001448D02*
X011307Y001448D01*
X011130Y001290D02*
X017791Y001290D01*
X017625Y001131D02*
X004097Y001131D01*
X004255Y000973D02*
X017460Y000973D01*
X018263Y001924D02*
X011303Y001924D01*
X011103Y002082D02*
X018360Y002082D01*
X018397Y002241D02*
X002987Y002241D01*
X002940Y002399D02*
X018240Y002399D01*
X018240Y002558D02*
X004275Y002558D01*
X004403Y002716D02*
X018240Y002716D01*
X018352Y002875D02*
X004451Y002875D01*
X004443Y003033D02*
X021570Y003033D01*
X021570Y002875D02*
X019008Y002875D01*
X019120Y002716D02*
X021570Y002716D01*
X021570Y002558D02*
X020838Y002558D01*
X021262Y002399D02*
X021570Y002399D01*
X021570Y002241D02*
X021468Y002241D01*
X020522Y002558D02*
X019120Y002558D01*
X019120Y002399D02*
X020098Y002399D01*
X019892Y002241D02*
X018963Y002241D01*
X018680Y002716D02*
X018680Y002716D01*
X018680Y002875D02*
X018680Y002875D01*
X017768Y003509D02*
X021570Y003509D01*
X021570Y003667D02*
X017808Y003667D01*
X017779Y003826D02*
X021570Y003826D01*
X021570Y003984D02*
X017661Y003984D01*
X017430Y003680D02*
X010930Y003680D01*
X008930Y005680D01*
X008420Y006045D02*
X004446Y006045D01*
X004454Y005886D02*
X008268Y005886D01*
X008110Y005728D02*
X004409Y005728D01*
X004378Y006203D02*
X008420Y006203D01*
X008420Y006362D02*
X004181Y006362D01*
X004233Y006520D02*
X008420Y006520D01*
X008420Y006679D02*
X004389Y006679D01*
X004454Y006837D02*
X008420Y006837D01*
X008420Y006996D02*
X004454Y006996D01*
X004400Y007154D02*
X008420Y007154D01*
X008420Y007313D02*
X004269Y007313D01*
X003031Y005252D02*
X002940Y005252D01*
X002940Y004618D02*
X003021Y004618D01*
X002940Y004460D02*
X003273Y004460D01*
X003080Y004301D02*
X002940Y004301D01*
X002940Y004143D02*
X002955Y004143D01*
X002940Y003667D02*
X002976Y003667D01*
X002940Y003509D02*
X003155Y003509D01*
X003157Y003350D02*
X002940Y003350D01*
X002940Y003192D02*
X002984Y003192D01*
X002957Y002716D02*
X002940Y002716D01*
X002940Y002558D02*
X003085Y002558D01*
X003146Y002082D02*
X005757Y002082D01*
X005682Y002051D02*
X005559Y001928D01*
X005493Y001767D01*
X005493Y001593D01*
X005559Y001432D01*
X005682Y001309D01*
X005843Y001243D01*
X006017Y001243D01*
X006178Y001309D01*
X006301Y001432D01*
X006367Y001593D01*
X006367Y001767D01*
X006301Y001928D01*
X006178Y002051D01*
X006017Y002117D01*
X005843Y002117D01*
X005682Y002051D01*
X005557Y001924D02*
X003304Y001924D01*
X003463Y001765D02*
X005493Y001765D01*
X005493Y001607D02*
X003621Y001607D01*
X003780Y001448D02*
X005553Y001448D01*
X005730Y001290D02*
X003938Y001290D01*
X003698Y002558D02*
X003662Y002558D01*
X003662Y002716D02*
X003698Y002716D01*
X003698Y002875D02*
X003662Y002875D01*
X003662Y003033D02*
X003698Y003033D01*
X003698Y003192D02*
X003662Y003192D01*
X003662Y003350D02*
X003698Y003350D01*
X004203Y003350D02*
X017239Y003350D01*
X017621Y003350D02*
X021570Y003350D01*
X021570Y003192D02*
X004376Y003192D01*
X004205Y003509D02*
X010734Y003509D01*
X010575Y003667D02*
X004384Y003667D01*
X004280Y004301D02*
X006683Y004301D01*
X007102Y003984D02*
X010258Y003984D01*
X010100Y004143D02*
X007260Y004143D01*
X007419Y004301D02*
X009941Y004301D01*
X009783Y004460D02*
X007577Y004460D01*
X007736Y004618D02*
X009624Y004618D01*
X009466Y004777D02*
X007894Y004777D01*
X008053Y004935D02*
X009307Y004935D01*
X009149Y005094D02*
X008211Y005094D01*
X008370Y005252D02*
X008990Y005252D01*
X010677Y004301D02*
X011074Y004301D01*
X011183Y004143D02*
X010835Y004143D01*
X010994Y003984D02*
X017199Y003984D01*
X015803Y004935D02*
X021570Y004935D01*
X021570Y004777D02*
X015644Y004777D01*
X015486Y004618D02*
X021570Y004618D01*
X021570Y004460D02*
X015327Y004460D01*
X015169Y004301D02*
X021570Y004301D01*
X021570Y004143D02*
X011677Y004143D01*
X010417Y003826D02*
X006943Y003826D01*
X007017Y002117D02*
X006843Y002117D01*
X006682Y002051D01*
X006559Y001928D01*
X006493Y001767D01*
X006493Y001593D01*
X006559Y001432D01*
X006682Y001309D01*
X006843Y001243D01*
X007017Y001243D01*
X007178Y001309D01*
X007301Y001432D01*
X007367Y001593D01*
X007367Y001767D01*
X007301Y001928D01*
X007178Y002051D01*
X007017Y002117D01*
X007103Y002082D02*
X007755Y002082D01*
X007762Y002085D02*
X007701Y002054D01*
X007645Y002014D01*
X007596Y001965D01*
X007556Y001909D01*
X007525Y001848D01*
X007503Y001782D01*
X007493Y001714D01*
X007493Y001680D01*
X007493Y001646D01*
X007503Y001578D01*
X007525Y001512D01*
X007556Y001451D01*
X007596Y001395D01*
X007645Y001346D01*
X007701Y001306D01*
X007762Y001275D01*
X007828Y001253D01*
X007896Y001243D01*
X007930Y001243D01*
X007964Y001243D01*
X008032Y001253D01*
X008098Y001275D01*
X008159Y001306D01*
X008215Y001346D01*
X008264Y001395D01*
X008304Y001451D01*
X008335Y001512D01*
X008357Y001578D01*
X008367Y001646D01*
X008367Y001680D01*
X007930Y001680D01*
X008367Y001680D01*
X008367Y001714D01*
X008357Y001782D01*
X008335Y001848D01*
X008304Y001909D01*
X008264Y001965D01*
X008215Y002014D01*
X008159Y002054D01*
X008098Y002085D01*
X008032Y002107D01*
X007964Y002117D01*
X007930Y002117D01*
X007896Y002117D01*
X007828Y002107D01*
X007762Y002085D01*
X007930Y002082D02*
X007930Y002082D01*
X007930Y002117D02*
X007930Y001680D01*
X007930Y001680D01*
X007930Y001680D01*
X007930Y002117D01*
X008105Y002082D02*
X009757Y002082D01*
X009682Y002051D02*
X009559Y001928D01*
X009493Y001767D01*
X009493Y001593D01*
X009559Y001432D01*
X009682Y001309D01*
X009843Y001243D01*
X010017Y001243D01*
X010178Y001309D01*
X010301Y001432D01*
X010367Y001593D01*
X010367Y001767D01*
X010301Y001928D01*
X010178Y002051D01*
X010017Y002117D01*
X009843Y002117D01*
X009682Y002051D01*
X009557Y001924D02*
X008294Y001924D01*
X008359Y001765D02*
X009493Y001765D01*
X009493Y001607D02*
X008361Y001607D01*
X008302Y001448D02*
X009553Y001448D01*
X009730Y001290D02*
X008127Y001290D01*
X007930Y001290D02*
X007930Y001290D01*
X007930Y001243D02*
X007930Y001680D01*
X007930Y001680D01*
X007930Y001680D01*
X007493Y001680D01*
X007930Y001680D01*
X007930Y001243D01*
X007733Y001290D02*
X007130Y001290D01*
X007307Y001448D02*
X007558Y001448D01*
X007499Y001607D02*
X007367Y001607D01*
X007367Y001765D02*
X007501Y001765D01*
X007566Y001924D02*
X007303Y001924D01*
X006757Y002082D02*
X006103Y002082D01*
X006303Y001924D02*
X006557Y001924D01*
X006493Y001765D02*
X006367Y001765D01*
X006367Y001607D02*
X006493Y001607D01*
X006553Y001448D02*
X006307Y001448D01*
X006130Y001290D02*
X006730Y001290D01*
X007930Y001448D02*
X007930Y001448D01*
X007930Y001607D02*
X007930Y001607D01*
X007930Y001765D02*
X007930Y001765D01*
X007930Y001924D02*
X007930Y001924D01*
X010103Y002082D02*
X010757Y002082D01*
X010557Y001924D02*
X010303Y001924D01*
X010367Y001765D02*
X010493Y001765D01*
X010493Y001607D02*
X010367Y001607D01*
X010307Y001448D02*
X010553Y001448D01*
X010730Y001290D02*
X010130Y001290D01*
X016106Y005094D02*
X021570Y005094D01*
X021570Y005252D02*
X016266Y005252D01*
X016308Y005411D02*
X021570Y005411D01*
X021570Y005569D02*
X016437Y005569D01*
X016595Y005728D02*
X021570Y005728D01*
X021570Y005886D02*
X016754Y005886D01*
X016912Y006045D02*
X021570Y006045D01*
X021570Y006203D02*
X017071Y006203D01*
X017229Y006362D02*
X021570Y006362D01*
X021570Y006520D02*
X017388Y006520D01*
X017546Y006679D02*
X021570Y006679D01*
X021570Y006837D02*
X017705Y006837D01*
X017863Y006996D02*
X021570Y006996D01*
X021570Y007154D02*
X018022Y007154D01*
X018180Y007313D02*
X021570Y007313D01*
X021570Y007471D02*
X018339Y007471D01*
X018497Y007630D02*
X021570Y007630D01*
X021570Y007788D02*
X018656Y007788D01*
X018814Y007947D02*
X021570Y007947D01*
X021570Y008105D02*
X018973Y008105D01*
X019131Y008264D02*
X021570Y008264D01*
X021570Y008422D02*
X019290Y008422D01*
X019448Y008581D02*
X021570Y008581D01*
X021570Y008739D02*
X019607Y008739D01*
X019765Y008898D02*
X021570Y008898D01*
X021570Y009056D02*
X019910Y009056D01*
X019940Y009215D02*
X021570Y009215D01*
X021570Y009373D02*
X019940Y009373D01*
X019940Y009532D02*
X021570Y009532D01*
X021570Y009690D02*
X019940Y009690D01*
X019940Y009849D02*
X021570Y009849D01*
X021570Y010007D02*
X019940Y010007D01*
X019940Y010166D02*
X021570Y010166D01*
X021570Y010324D02*
X019940Y010324D01*
X019940Y010483D02*
X021570Y010483D01*
X021570Y010641D02*
X019940Y010641D01*
X019940Y010800D02*
X021570Y010800D01*
X021570Y010958D02*
X019940Y010958D01*
X019940Y011117D02*
X021570Y011117D01*
X021570Y011275D02*
X019940Y011275D01*
X019940Y011434D02*
X021570Y011434D01*
X021570Y011592D02*
X019940Y011592D01*
X019940Y011751D02*
X021570Y011751D01*
X021570Y011909D02*
X019940Y011909D01*
X019940Y012068D02*
X021570Y012068D01*
X021570Y012226D02*
X019940Y012226D01*
X019940Y012385D02*
X021570Y012385D01*
X021570Y012543D02*
X019940Y012543D01*
X019940Y012702D02*
X021570Y012702D01*
X021570Y012860D02*
X019940Y012860D01*
X019940Y013019D02*
X021570Y013019D01*
X021570Y013177D02*
X019962Y013177D01*
X020050Y013336D02*
X021570Y013336D01*
X021570Y013494D02*
X020058Y013494D01*
X019992Y013653D02*
X020200Y013653D01*
X019951Y013811D02*
X016907Y013811D01*
X016907Y013970D02*
X019792Y013970D01*
X019694Y014128D02*
X016882Y014128D01*
X016794Y014287D02*
X019616Y014287D01*
X019617Y015079D02*
X002493Y015079D01*
X002413Y015238D02*
X019697Y015238D01*
X019798Y015396D02*
X002312Y015396D01*
X002996Y014128D02*
X003011Y014128D01*
X003662Y013811D02*
X003698Y013811D01*
X003698Y013653D02*
X003662Y013653D01*
X003662Y013494D02*
X003698Y013494D01*
X003698Y013336D02*
X003662Y013336D01*
X003662Y013177D02*
X003698Y013177D01*
X003698Y013019D02*
X003662Y013019D01*
X000950Y013653D02*
X000660Y013653D01*
X000660Y013811D02*
X000701Y013811D01*
X008430Y011180D02*
X008680Y011180D01*
X000848Y002399D02*
X000660Y002399D01*
X021160Y013653D02*
X021570Y013653D01*
X021570Y013811D02*
X021409Y013811D01*
X021568Y013970D02*
X021570Y013970D01*
D16*
X009930Y010430D03*
X008680Y005680D03*
M02*
