G75*
G70*
%OFA0B0*%
%FSLAX24Y24*%
%IPPOS*%
%LPD*%
%AMOC8*
5,1,8,0,0,1.08239X$1,22.5*
%
%ADD10C,0.0000*%
%ADD11R,0.0472X0.0236*%
%ADD12R,0.0236X0.0118*%
%ADD13R,0.0512X0.0591*%
%ADD14R,0.0591X0.0512*%
%ADD15R,0.0315X0.0472*%
%ADD16R,0.0472X0.0315*%
%ADD17R,0.1102X0.0394*%
%ADD18R,0.0650X0.0236*%
%ADD19R,0.1811X0.1772*%
%ADD20OC8,0.0827*%
%ADD21R,0.0591X0.0827*%
%ADD22R,0.0118X0.0236*%
%ADD23R,0.0827X0.0591*%
%ADD24R,0.0236X0.0650*%
%ADD25R,0.1772X0.1811*%
%ADD26C,0.1004*%
%ADD27OC8,0.0594*%
%ADD28R,0.0740X0.0740*%
%ADD29C,0.0740*%
%ADD30C,0.1000*%
%ADD31C,0.0400*%
%ADD32C,0.0100*%
%ADD33C,0.0396*%
%ADD34C,0.0160*%
%ADD35C,0.0360*%
%ADD36C,0.0120*%
%ADD37C,0.0240*%
D10*
X000150Y000275D02*
X040151Y000275D01*
X040150Y031775D01*
X000150Y031775D01*
X000150Y000275D01*
X001000Y001775D02*
X001002Y001825D01*
X001008Y001875D01*
X001018Y001925D01*
X001031Y001973D01*
X001048Y002021D01*
X001069Y002067D01*
X001093Y002111D01*
X001121Y002153D01*
X001152Y002193D01*
X001186Y002230D01*
X001223Y002265D01*
X001262Y002296D01*
X001303Y002325D01*
X001347Y002350D01*
X001393Y002372D01*
X001440Y002390D01*
X001488Y002404D01*
X001537Y002415D01*
X001587Y002422D01*
X001637Y002425D01*
X001688Y002424D01*
X001738Y002419D01*
X001788Y002410D01*
X001836Y002398D01*
X001884Y002381D01*
X001930Y002361D01*
X001975Y002338D01*
X002018Y002311D01*
X002058Y002281D01*
X002096Y002248D01*
X002131Y002212D01*
X002164Y002173D01*
X002193Y002132D01*
X002219Y002089D01*
X002242Y002044D01*
X002261Y001997D01*
X002276Y001949D01*
X002288Y001900D01*
X002296Y001850D01*
X002300Y001800D01*
X002300Y001750D01*
X002296Y001700D01*
X002288Y001650D01*
X002276Y001601D01*
X002261Y001553D01*
X002242Y001506D01*
X002219Y001461D01*
X002193Y001418D01*
X002164Y001377D01*
X002131Y001338D01*
X002096Y001302D01*
X002058Y001269D01*
X002018Y001239D01*
X001975Y001212D01*
X001930Y001189D01*
X001884Y001169D01*
X001836Y001152D01*
X001788Y001140D01*
X001738Y001131D01*
X001688Y001126D01*
X001637Y001125D01*
X001587Y001128D01*
X001537Y001135D01*
X001488Y001146D01*
X001440Y001160D01*
X001393Y001178D01*
X001347Y001200D01*
X001303Y001225D01*
X001262Y001254D01*
X001223Y001285D01*
X001186Y001320D01*
X001152Y001357D01*
X001121Y001397D01*
X001093Y001439D01*
X001069Y001483D01*
X001048Y001529D01*
X001031Y001577D01*
X001018Y001625D01*
X001008Y001675D01*
X001002Y001725D01*
X001000Y001775D01*
X015253Y005400D02*
X015255Y005448D01*
X015261Y005496D01*
X015271Y005543D01*
X015284Y005589D01*
X015302Y005634D01*
X015322Y005678D01*
X015347Y005720D01*
X015375Y005759D01*
X015405Y005796D01*
X015439Y005830D01*
X015476Y005862D01*
X015514Y005891D01*
X015555Y005916D01*
X015598Y005938D01*
X015643Y005956D01*
X015689Y005970D01*
X015736Y005981D01*
X015784Y005988D01*
X015832Y005991D01*
X015880Y005990D01*
X015928Y005985D01*
X015976Y005976D01*
X016022Y005964D01*
X016067Y005947D01*
X016111Y005927D01*
X016153Y005904D01*
X016193Y005877D01*
X016231Y005847D01*
X016266Y005814D01*
X016298Y005778D01*
X016328Y005740D01*
X016354Y005699D01*
X016376Y005656D01*
X016396Y005612D01*
X016411Y005567D01*
X016423Y005520D01*
X016431Y005472D01*
X016435Y005424D01*
X016435Y005376D01*
X016431Y005328D01*
X016423Y005280D01*
X016411Y005233D01*
X016396Y005188D01*
X016376Y005144D01*
X016354Y005101D01*
X016328Y005060D01*
X016298Y005022D01*
X016266Y004986D01*
X016231Y004953D01*
X016193Y004923D01*
X016153Y004896D01*
X016111Y004873D01*
X016067Y004853D01*
X016022Y004836D01*
X015976Y004824D01*
X015928Y004815D01*
X015880Y004810D01*
X015832Y004809D01*
X015784Y004812D01*
X015736Y004819D01*
X015689Y004830D01*
X015643Y004844D01*
X015598Y004862D01*
X015555Y004884D01*
X015514Y004909D01*
X015476Y004938D01*
X015439Y004970D01*
X015405Y005004D01*
X015375Y005041D01*
X015347Y005080D01*
X015322Y005122D01*
X015302Y005166D01*
X015284Y005211D01*
X015271Y005257D01*
X015261Y005304D01*
X015255Y005352D01*
X015253Y005400D01*
X015253Y009101D02*
X015255Y009149D01*
X015261Y009197D01*
X015271Y009244D01*
X015284Y009290D01*
X015302Y009335D01*
X015322Y009379D01*
X015347Y009421D01*
X015375Y009460D01*
X015405Y009497D01*
X015439Y009531D01*
X015476Y009563D01*
X015514Y009592D01*
X015555Y009617D01*
X015598Y009639D01*
X015643Y009657D01*
X015689Y009671D01*
X015736Y009682D01*
X015784Y009689D01*
X015832Y009692D01*
X015880Y009691D01*
X015928Y009686D01*
X015976Y009677D01*
X016022Y009665D01*
X016067Y009648D01*
X016111Y009628D01*
X016153Y009605D01*
X016193Y009578D01*
X016231Y009548D01*
X016266Y009515D01*
X016298Y009479D01*
X016328Y009441D01*
X016354Y009400D01*
X016376Y009357D01*
X016396Y009313D01*
X016411Y009268D01*
X016423Y009221D01*
X016431Y009173D01*
X016435Y009125D01*
X016435Y009077D01*
X016431Y009029D01*
X016423Y008981D01*
X016411Y008934D01*
X016396Y008889D01*
X016376Y008845D01*
X016354Y008802D01*
X016328Y008761D01*
X016298Y008723D01*
X016266Y008687D01*
X016231Y008654D01*
X016193Y008624D01*
X016153Y008597D01*
X016111Y008574D01*
X016067Y008554D01*
X016022Y008537D01*
X015976Y008525D01*
X015928Y008516D01*
X015880Y008511D01*
X015832Y008510D01*
X015784Y008513D01*
X015736Y008520D01*
X015689Y008531D01*
X015643Y008545D01*
X015598Y008563D01*
X015555Y008585D01*
X015514Y008610D01*
X015476Y008639D01*
X015439Y008671D01*
X015405Y008705D01*
X015375Y008742D01*
X015347Y008781D01*
X015322Y008823D01*
X015302Y008867D01*
X015284Y008912D01*
X015271Y008958D01*
X015261Y009005D01*
X015255Y009053D01*
X015253Y009101D01*
X015253Y011650D02*
X015255Y011698D01*
X015261Y011746D01*
X015271Y011793D01*
X015284Y011839D01*
X015302Y011884D01*
X015322Y011928D01*
X015347Y011970D01*
X015375Y012009D01*
X015405Y012046D01*
X015439Y012080D01*
X015476Y012112D01*
X015514Y012141D01*
X015555Y012166D01*
X015598Y012188D01*
X015643Y012206D01*
X015689Y012220D01*
X015736Y012231D01*
X015784Y012238D01*
X015832Y012241D01*
X015880Y012240D01*
X015928Y012235D01*
X015976Y012226D01*
X016022Y012214D01*
X016067Y012197D01*
X016111Y012177D01*
X016153Y012154D01*
X016193Y012127D01*
X016231Y012097D01*
X016266Y012064D01*
X016298Y012028D01*
X016328Y011990D01*
X016354Y011949D01*
X016376Y011906D01*
X016396Y011862D01*
X016411Y011817D01*
X016423Y011770D01*
X016431Y011722D01*
X016435Y011674D01*
X016435Y011626D01*
X016431Y011578D01*
X016423Y011530D01*
X016411Y011483D01*
X016396Y011438D01*
X016376Y011394D01*
X016354Y011351D01*
X016328Y011310D01*
X016298Y011272D01*
X016266Y011236D01*
X016231Y011203D01*
X016193Y011173D01*
X016153Y011146D01*
X016111Y011123D01*
X016067Y011103D01*
X016022Y011086D01*
X015976Y011074D01*
X015928Y011065D01*
X015880Y011060D01*
X015832Y011059D01*
X015784Y011062D01*
X015736Y011069D01*
X015689Y011080D01*
X015643Y011094D01*
X015598Y011112D01*
X015555Y011134D01*
X015514Y011159D01*
X015476Y011188D01*
X015439Y011220D01*
X015405Y011254D01*
X015375Y011291D01*
X015347Y011330D01*
X015322Y011372D01*
X015302Y011416D01*
X015284Y011461D01*
X015271Y011507D01*
X015261Y011554D01*
X015255Y011602D01*
X015253Y011650D01*
X015253Y015351D02*
X015255Y015399D01*
X015261Y015447D01*
X015271Y015494D01*
X015284Y015540D01*
X015302Y015585D01*
X015322Y015629D01*
X015347Y015671D01*
X015375Y015710D01*
X015405Y015747D01*
X015439Y015781D01*
X015476Y015813D01*
X015514Y015842D01*
X015555Y015867D01*
X015598Y015889D01*
X015643Y015907D01*
X015689Y015921D01*
X015736Y015932D01*
X015784Y015939D01*
X015832Y015942D01*
X015880Y015941D01*
X015928Y015936D01*
X015976Y015927D01*
X016022Y015915D01*
X016067Y015898D01*
X016111Y015878D01*
X016153Y015855D01*
X016193Y015828D01*
X016231Y015798D01*
X016266Y015765D01*
X016298Y015729D01*
X016328Y015691D01*
X016354Y015650D01*
X016376Y015607D01*
X016396Y015563D01*
X016411Y015518D01*
X016423Y015471D01*
X016431Y015423D01*
X016435Y015375D01*
X016435Y015327D01*
X016431Y015279D01*
X016423Y015231D01*
X016411Y015184D01*
X016396Y015139D01*
X016376Y015095D01*
X016354Y015052D01*
X016328Y015011D01*
X016298Y014973D01*
X016266Y014937D01*
X016231Y014904D01*
X016193Y014874D01*
X016153Y014847D01*
X016111Y014824D01*
X016067Y014804D01*
X016022Y014787D01*
X015976Y014775D01*
X015928Y014766D01*
X015880Y014761D01*
X015832Y014760D01*
X015784Y014763D01*
X015736Y014770D01*
X015689Y014781D01*
X015643Y014795D01*
X015598Y014813D01*
X015555Y014835D01*
X015514Y014860D01*
X015476Y014889D01*
X015439Y014921D01*
X015405Y014955D01*
X015375Y014992D01*
X015347Y015031D01*
X015322Y015073D01*
X015302Y015117D01*
X015284Y015162D01*
X015271Y015208D01*
X015261Y015255D01*
X015255Y015303D01*
X015253Y015351D01*
X015253Y017900D02*
X015255Y017948D01*
X015261Y017996D01*
X015271Y018043D01*
X015284Y018089D01*
X015302Y018134D01*
X015322Y018178D01*
X015347Y018220D01*
X015375Y018259D01*
X015405Y018296D01*
X015439Y018330D01*
X015476Y018362D01*
X015514Y018391D01*
X015555Y018416D01*
X015598Y018438D01*
X015643Y018456D01*
X015689Y018470D01*
X015736Y018481D01*
X015784Y018488D01*
X015832Y018491D01*
X015880Y018490D01*
X015928Y018485D01*
X015976Y018476D01*
X016022Y018464D01*
X016067Y018447D01*
X016111Y018427D01*
X016153Y018404D01*
X016193Y018377D01*
X016231Y018347D01*
X016266Y018314D01*
X016298Y018278D01*
X016328Y018240D01*
X016354Y018199D01*
X016376Y018156D01*
X016396Y018112D01*
X016411Y018067D01*
X016423Y018020D01*
X016431Y017972D01*
X016435Y017924D01*
X016435Y017876D01*
X016431Y017828D01*
X016423Y017780D01*
X016411Y017733D01*
X016396Y017688D01*
X016376Y017644D01*
X016354Y017601D01*
X016328Y017560D01*
X016298Y017522D01*
X016266Y017486D01*
X016231Y017453D01*
X016193Y017423D01*
X016153Y017396D01*
X016111Y017373D01*
X016067Y017353D01*
X016022Y017336D01*
X015976Y017324D01*
X015928Y017315D01*
X015880Y017310D01*
X015832Y017309D01*
X015784Y017312D01*
X015736Y017319D01*
X015689Y017330D01*
X015643Y017344D01*
X015598Y017362D01*
X015555Y017384D01*
X015514Y017409D01*
X015476Y017438D01*
X015439Y017470D01*
X015405Y017504D01*
X015375Y017541D01*
X015347Y017580D01*
X015322Y017622D01*
X015302Y017666D01*
X015284Y017711D01*
X015271Y017757D01*
X015261Y017804D01*
X015255Y017852D01*
X015253Y017900D01*
X015253Y021601D02*
X015255Y021649D01*
X015261Y021697D01*
X015271Y021744D01*
X015284Y021790D01*
X015302Y021835D01*
X015322Y021879D01*
X015347Y021921D01*
X015375Y021960D01*
X015405Y021997D01*
X015439Y022031D01*
X015476Y022063D01*
X015514Y022092D01*
X015555Y022117D01*
X015598Y022139D01*
X015643Y022157D01*
X015689Y022171D01*
X015736Y022182D01*
X015784Y022189D01*
X015832Y022192D01*
X015880Y022191D01*
X015928Y022186D01*
X015976Y022177D01*
X016022Y022165D01*
X016067Y022148D01*
X016111Y022128D01*
X016153Y022105D01*
X016193Y022078D01*
X016231Y022048D01*
X016266Y022015D01*
X016298Y021979D01*
X016328Y021941D01*
X016354Y021900D01*
X016376Y021857D01*
X016396Y021813D01*
X016411Y021768D01*
X016423Y021721D01*
X016431Y021673D01*
X016435Y021625D01*
X016435Y021577D01*
X016431Y021529D01*
X016423Y021481D01*
X016411Y021434D01*
X016396Y021389D01*
X016376Y021345D01*
X016354Y021302D01*
X016328Y021261D01*
X016298Y021223D01*
X016266Y021187D01*
X016231Y021154D01*
X016193Y021124D01*
X016153Y021097D01*
X016111Y021074D01*
X016067Y021054D01*
X016022Y021037D01*
X015976Y021025D01*
X015928Y021016D01*
X015880Y021011D01*
X015832Y021010D01*
X015784Y021013D01*
X015736Y021020D01*
X015689Y021031D01*
X015643Y021045D01*
X015598Y021063D01*
X015555Y021085D01*
X015514Y021110D01*
X015476Y021139D01*
X015439Y021171D01*
X015405Y021205D01*
X015375Y021242D01*
X015347Y021281D01*
X015322Y021323D01*
X015302Y021367D01*
X015284Y021412D01*
X015271Y021458D01*
X015261Y021505D01*
X015255Y021553D01*
X015253Y021601D01*
X015253Y024150D02*
X015255Y024198D01*
X015261Y024246D01*
X015271Y024293D01*
X015284Y024339D01*
X015302Y024384D01*
X015322Y024428D01*
X015347Y024470D01*
X015375Y024509D01*
X015405Y024546D01*
X015439Y024580D01*
X015476Y024612D01*
X015514Y024641D01*
X015555Y024666D01*
X015598Y024688D01*
X015643Y024706D01*
X015689Y024720D01*
X015736Y024731D01*
X015784Y024738D01*
X015832Y024741D01*
X015880Y024740D01*
X015928Y024735D01*
X015976Y024726D01*
X016022Y024714D01*
X016067Y024697D01*
X016111Y024677D01*
X016153Y024654D01*
X016193Y024627D01*
X016231Y024597D01*
X016266Y024564D01*
X016298Y024528D01*
X016328Y024490D01*
X016354Y024449D01*
X016376Y024406D01*
X016396Y024362D01*
X016411Y024317D01*
X016423Y024270D01*
X016431Y024222D01*
X016435Y024174D01*
X016435Y024126D01*
X016431Y024078D01*
X016423Y024030D01*
X016411Y023983D01*
X016396Y023938D01*
X016376Y023894D01*
X016354Y023851D01*
X016328Y023810D01*
X016298Y023772D01*
X016266Y023736D01*
X016231Y023703D01*
X016193Y023673D01*
X016153Y023646D01*
X016111Y023623D01*
X016067Y023603D01*
X016022Y023586D01*
X015976Y023574D01*
X015928Y023565D01*
X015880Y023560D01*
X015832Y023559D01*
X015784Y023562D01*
X015736Y023569D01*
X015689Y023580D01*
X015643Y023594D01*
X015598Y023612D01*
X015555Y023634D01*
X015514Y023659D01*
X015476Y023688D01*
X015439Y023720D01*
X015405Y023754D01*
X015375Y023791D01*
X015347Y023830D01*
X015322Y023872D01*
X015302Y023916D01*
X015284Y023961D01*
X015271Y024007D01*
X015261Y024054D01*
X015255Y024102D01*
X015253Y024150D01*
X015253Y027851D02*
X015255Y027899D01*
X015261Y027947D01*
X015271Y027994D01*
X015284Y028040D01*
X015302Y028085D01*
X015322Y028129D01*
X015347Y028171D01*
X015375Y028210D01*
X015405Y028247D01*
X015439Y028281D01*
X015476Y028313D01*
X015514Y028342D01*
X015555Y028367D01*
X015598Y028389D01*
X015643Y028407D01*
X015689Y028421D01*
X015736Y028432D01*
X015784Y028439D01*
X015832Y028442D01*
X015880Y028441D01*
X015928Y028436D01*
X015976Y028427D01*
X016022Y028415D01*
X016067Y028398D01*
X016111Y028378D01*
X016153Y028355D01*
X016193Y028328D01*
X016231Y028298D01*
X016266Y028265D01*
X016298Y028229D01*
X016328Y028191D01*
X016354Y028150D01*
X016376Y028107D01*
X016396Y028063D01*
X016411Y028018D01*
X016423Y027971D01*
X016431Y027923D01*
X016435Y027875D01*
X016435Y027827D01*
X016431Y027779D01*
X016423Y027731D01*
X016411Y027684D01*
X016396Y027639D01*
X016376Y027595D01*
X016354Y027552D01*
X016328Y027511D01*
X016298Y027473D01*
X016266Y027437D01*
X016231Y027404D01*
X016193Y027374D01*
X016153Y027347D01*
X016111Y027324D01*
X016067Y027304D01*
X016022Y027287D01*
X015976Y027275D01*
X015928Y027266D01*
X015880Y027261D01*
X015832Y027260D01*
X015784Y027263D01*
X015736Y027270D01*
X015689Y027281D01*
X015643Y027295D01*
X015598Y027313D01*
X015555Y027335D01*
X015514Y027360D01*
X015476Y027389D01*
X015439Y027421D01*
X015405Y027455D01*
X015375Y027492D01*
X015347Y027531D01*
X015322Y027573D01*
X015302Y027617D01*
X015284Y027662D01*
X015271Y027708D01*
X015261Y027755D01*
X015255Y027803D01*
X015253Y027851D01*
X001000Y030275D02*
X001002Y030325D01*
X001008Y030375D01*
X001018Y030425D01*
X001031Y030473D01*
X001048Y030521D01*
X001069Y030567D01*
X001093Y030611D01*
X001121Y030653D01*
X001152Y030693D01*
X001186Y030730D01*
X001223Y030765D01*
X001262Y030796D01*
X001303Y030825D01*
X001347Y030850D01*
X001393Y030872D01*
X001440Y030890D01*
X001488Y030904D01*
X001537Y030915D01*
X001587Y030922D01*
X001637Y030925D01*
X001688Y030924D01*
X001738Y030919D01*
X001788Y030910D01*
X001836Y030898D01*
X001884Y030881D01*
X001930Y030861D01*
X001975Y030838D01*
X002018Y030811D01*
X002058Y030781D01*
X002096Y030748D01*
X002131Y030712D01*
X002164Y030673D01*
X002193Y030632D01*
X002219Y030589D01*
X002242Y030544D01*
X002261Y030497D01*
X002276Y030449D01*
X002288Y030400D01*
X002296Y030350D01*
X002300Y030300D01*
X002300Y030250D01*
X002296Y030200D01*
X002288Y030150D01*
X002276Y030101D01*
X002261Y030053D01*
X002242Y030006D01*
X002219Y029961D01*
X002193Y029918D01*
X002164Y029877D01*
X002131Y029838D01*
X002096Y029802D01*
X002058Y029769D01*
X002018Y029739D01*
X001975Y029712D01*
X001930Y029689D01*
X001884Y029669D01*
X001836Y029652D01*
X001788Y029640D01*
X001738Y029631D01*
X001688Y029626D01*
X001637Y029625D01*
X001587Y029628D01*
X001537Y029635D01*
X001488Y029646D01*
X001440Y029660D01*
X001393Y029678D01*
X001347Y029700D01*
X001303Y029725D01*
X001262Y029754D01*
X001223Y029785D01*
X001186Y029820D01*
X001152Y029857D01*
X001121Y029897D01*
X001093Y029939D01*
X001069Y029983D01*
X001048Y030029D01*
X001031Y030077D01*
X001018Y030125D01*
X001008Y030175D01*
X001002Y030225D01*
X001000Y030275D01*
X023858Y005969D02*
X023860Y006017D01*
X023866Y006065D01*
X023876Y006112D01*
X023889Y006158D01*
X023907Y006203D01*
X023927Y006247D01*
X023952Y006289D01*
X023980Y006328D01*
X024010Y006365D01*
X024044Y006399D01*
X024081Y006431D01*
X024119Y006460D01*
X024160Y006485D01*
X024203Y006507D01*
X024248Y006525D01*
X024294Y006539D01*
X024341Y006550D01*
X024389Y006557D01*
X024437Y006560D01*
X024485Y006559D01*
X024533Y006554D01*
X024581Y006545D01*
X024627Y006533D01*
X024672Y006516D01*
X024716Y006496D01*
X024758Y006473D01*
X024798Y006446D01*
X024836Y006416D01*
X024871Y006383D01*
X024903Y006347D01*
X024933Y006309D01*
X024959Y006268D01*
X024981Y006225D01*
X025001Y006181D01*
X025016Y006136D01*
X025028Y006089D01*
X025036Y006041D01*
X025040Y005993D01*
X025040Y005945D01*
X025036Y005897D01*
X025028Y005849D01*
X025016Y005802D01*
X025001Y005757D01*
X024981Y005713D01*
X024959Y005670D01*
X024933Y005629D01*
X024903Y005591D01*
X024871Y005555D01*
X024836Y005522D01*
X024798Y005492D01*
X024758Y005465D01*
X024716Y005442D01*
X024672Y005422D01*
X024627Y005405D01*
X024581Y005393D01*
X024533Y005384D01*
X024485Y005379D01*
X024437Y005378D01*
X024389Y005381D01*
X024341Y005388D01*
X024294Y005399D01*
X024248Y005413D01*
X024203Y005431D01*
X024160Y005453D01*
X024119Y005478D01*
X024081Y005507D01*
X024044Y005539D01*
X024010Y005573D01*
X023980Y005610D01*
X023952Y005649D01*
X023927Y005691D01*
X023907Y005735D01*
X023889Y005780D01*
X023876Y005826D01*
X023866Y005873D01*
X023860Y005921D01*
X023858Y005969D01*
X027559Y005969D02*
X027561Y006017D01*
X027567Y006065D01*
X027577Y006112D01*
X027590Y006158D01*
X027608Y006203D01*
X027628Y006247D01*
X027653Y006289D01*
X027681Y006328D01*
X027711Y006365D01*
X027745Y006399D01*
X027782Y006431D01*
X027820Y006460D01*
X027861Y006485D01*
X027904Y006507D01*
X027949Y006525D01*
X027995Y006539D01*
X028042Y006550D01*
X028090Y006557D01*
X028138Y006560D01*
X028186Y006559D01*
X028234Y006554D01*
X028282Y006545D01*
X028328Y006533D01*
X028373Y006516D01*
X028417Y006496D01*
X028459Y006473D01*
X028499Y006446D01*
X028537Y006416D01*
X028572Y006383D01*
X028604Y006347D01*
X028634Y006309D01*
X028660Y006268D01*
X028682Y006225D01*
X028702Y006181D01*
X028717Y006136D01*
X028729Y006089D01*
X028737Y006041D01*
X028741Y005993D01*
X028741Y005945D01*
X028737Y005897D01*
X028729Y005849D01*
X028717Y005802D01*
X028702Y005757D01*
X028682Y005713D01*
X028660Y005670D01*
X028634Y005629D01*
X028604Y005591D01*
X028572Y005555D01*
X028537Y005522D01*
X028499Y005492D01*
X028459Y005465D01*
X028417Y005442D01*
X028373Y005422D01*
X028328Y005405D01*
X028282Y005393D01*
X028234Y005384D01*
X028186Y005379D01*
X028138Y005378D01*
X028090Y005381D01*
X028042Y005388D01*
X027995Y005399D01*
X027949Y005413D01*
X027904Y005431D01*
X027861Y005453D01*
X027820Y005478D01*
X027782Y005507D01*
X027745Y005539D01*
X027711Y005573D01*
X027681Y005610D01*
X027653Y005649D01*
X027628Y005691D01*
X027608Y005735D01*
X027590Y005780D01*
X027577Y005826D01*
X027567Y005873D01*
X027561Y005921D01*
X027559Y005969D01*
X037500Y001775D02*
X037502Y001825D01*
X037508Y001875D01*
X037518Y001925D01*
X037531Y001973D01*
X037548Y002021D01*
X037569Y002067D01*
X037593Y002111D01*
X037621Y002153D01*
X037652Y002193D01*
X037686Y002230D01*
X037723Y002265D01*
X037762Y002296D01*
X037803Y002325D01*
X037847Y002350D01*
X037893Y002372D01*
X037940Y002390D01*
X037988Y002404D01*
X038037Y002415D01*
X038087Y002422D01*
X038137Y002425D01*
X038188Y002424D01*
X038238Y002419D01*
X038288Y002410D01*
X038336Y002398D01*
X038384Y002381D01*
X038430Y002361D01*
X038475Y002338D01*
X038518Y002311D01*
X038558Y002281D01*
X038596Y002248D01*
X038631Y002212D01*
X038664Y002173D01*
X038693Y002132D01*
X038719Y002089D01*
X038742Y002044D01*
X038761Y001997D01*
X038776Y001949D01*
X038788Y001900D01*
X038796Y001850D01*
X038800Y001800D01*
X038800Y001750D01*
X038796Y001700D01*
X038788Y001650D01*
X038776Y001601D01*
X038761Y001553D01*
X038742Y001506D01*
X038719Y001461D01*
X038693Y001418D01*
X038664Y001377D01*
X038631Y001338D01*
X038596Y001302D01*
X038558Y001269D01*
X038518Y001239D01*
X038475Y001212D01*
X038430Y001189D01*
X038384Y001169D01*
X038336Y001152D01*
X038288Y001140D01*
X038238Y001131D01*
X038188Y001126D01*
X038137Y001125D01*
X038087Y001128D01*
X038037Y001135D01*
X037988Y001146D01*
X037940Y001160D01*
X037893Y001178D01*
X037847Y001200D01*
X037803Y001225D01*
X037762Y001254D01*
X037723Y001285D01*
X037686Y001320D01*
X037652Y001357D01*
X037621Y001397D01*
X037593Y001439D01*
X037569Y001483D01*
X037548Y001529D01*
X037531Y001577D01*
X037518Y001625D01*
X037508Y001675D01*
X037502Y001725D01*
X037500Y001775D01*
X037500Y030275D02*
X037502Y030325D01*
X037508Y030375D01*
X037518Y030425D01*
X037531Y030473D01*
X037548Y030521D01*
X037569Y030567D01*
X037593Y030611D01*
X037621Y030653D01*
X037652Y030693D01*
X037686Y030730D01*
X037723Y030765D01*
X037762Y030796D01*
X037803Y030825D01*
X037847Y030850D01*
X037893Y030872D01*
X037940Y030890D01*
X037988Y030904D01*
X038037Y030915D01*
X038087Y030922D01*
X038137Y030925D01*
X038188Y030924D01*
X038238Y030919D01*
X038288Y030910D01*
X038336Y030898D01*
X038384Y030881D01*
X038430Y030861D01*
X038475Y030838D01*
X038518Y030811D01*
X038558Y030781D01*
X038596Y030748D01*
X038631Y030712D01*
X038664Y030673D01*
X038693Y030632D01*
X038719Y030589D01*
X038742Y030544D01*
X038761Y030497D01*
X038776Y030449D01*
X038788Y030400D01*
X038796Y030350D01*
X038800Y030300D01*
X038800Y030250D01*
X038796Y030200D01*
X038788Y030150D01*
X038776Y030101D01*
X038761Y030053D01*
X038742Y030006D01*
X038719Y029961D01*
X038693Y029918D01*
X038664Y029877D01*
X038631Y029838D01*
X038596Y029802D01*
X038558Y029769D01*
X038518Y029739D01*
X038475Y029712D01*
X038430Y029689D01*
X038384Y029669D01*
X038336Y029652D01*
X038288Y029640D01*
X038238Y029631D01*
X038188Y029626D01*
X038137Y029625D01*
X038087Y029628D01*
X038037Y029635D01*
X037988Y029646D01*
X037940Y029660D01*
X037893Y029678D01*
X037847Y029700D01*
X037803Y029725D01*
X037762Y029754D01*
X037723Y029785D01*
X037686Y029820D01*
X037652Y029857D01*
X037621Y029897D01*
X037593Y029939D01*
X037569Y029983D01*
X037548Y030029D01*
X037531Y030077D01*
X037518Y030125D01*
X037508Y030175D01*
X037502Y030225D01*
X037500Y030275D01*
D11*
X032752Y011150D03*
X032752Y010650D03*
X032752Y010150D03*
X032752Y009650D03*
X032752Y009150D03*
X032752Y008650D03*
X032752Y008150D03*
X032752Y007650D03*
X030548Y007650D03*
X030548Y008150D03*
X030548Y008650D03*
X030548Y009150D03*
X030548Y009650D03*
X030548Y010150D03*
X030548Y010650D03*
X030548Y011150D03*
D12*
X030124Y013541D03*
X030124Y013738D03*
X030124Y013934D03*
X030124Y014131D03*
X030124Y014328D03*
X031857Y014328D03*
X031857Y014131D03*
X031857Y013934D03*
X031857Y013738D03*
X031857Y013541D03*
X027607Y013541D03*
X027607Y013738D03*
X027607Y013934D03*
X027607Y014131D03*
X027607Y014328D03*
X025874Y014328D03*
X025874Y014131D03*
X025874Y013934D03*
X025874Y013738D03*
X025874Y013541D03*
X033124Y021666D03*
X033124Y021863D03*
X033124Y022059D03*
X033124Y022256D03*
X033124Y022453D03*
X034857Y022453D03*
X034857Y022256D03*
X034857Y022059D03*
X034857Y021863D03*
X034857Y021666D03*
X032607Y027041D03*
X032607Y027238D03*
X032607Y027434D03*
X032607Y027631D03*
X032607Y027828D03*
X030874Y027828D03*
X030874Y027631D03*
X030874Y027434D03*
X030874Y027238D03*
X030874Y027041D03*
D13*
X031276Y026275D03*
X032024Y026275D03*
X033276Y025025D03*
X034024Y025025D03*
X034274Y020900D03*
X033526Y020900D03*
X031024Y016900D03*
X030276Y016900D03*
X026774Y016900D03*
X026026Y016900D03*
X026276Y012775D03*
X027024Y012775D03*
X027024Y011900D03*
X026276Y011900D03*
X030526Y012775D03*
X031274Y012775D03*
X034001Y011250D03*
X034749Y011250D03*
X034399Y007025D03*
X033651Y007025D03*
X033651Y006150D03*
X034399Y006150D03*
X031649Y006150D03*
X030901Y006150D03*
X029399Y007150D03*
X028651Y007150D03*
X026024Y025900D03*
X025276Y025900D03*
X026151Y026900D03*
X026899Y026900D03*
D14*
X032025Y020649D03*
X032025Y019901D03*
X033453Y015080D03*
X033453Y014332D03*
X033425Y013424D03*
X033425Y012676D03*
X034775Y009974D03*
X034775Y009226D03*
X029525Y011526D03*
X029525Y012274D03*
X028650Y012524D03*
X028650Y011776D03*
X025275Y010024D03*
X025275Y009276D03*
X024650Y011776D03*
X024650Y012524D03*
D15*
X026296Y014900D03*
X027004Y014900D03*
X030546Y014900D03*
X031254Y014900D03*
X028379Y007900D03*
X027671Y007900D03*
X031046Y006900D03*
X031754Y006900D03*
X033546Y023025D03*
X034254Y023025D03*
X032004Y028400D03*
X031296Y028400D03*
D16*
X029775Y027629D03*
X029775Y026921D03*
X031900Y022629D03*
X031900Y021921D03*
X033422Y016623D03*
X033422Y015914D03*
X028900Y014379D03*
X028900Y013671D03*
X027275Y010254D03*
X027275Y009546D03*
X024650Y013796D03*
X024650Y014504D03*
X034875Y008479D03*
X034875Y007771D03*
D17*
X030296Y021392D03*
X023485Y021392D03*
D18*
X020693Y021275D03*
X020693Y020775D03*
X020693Y020275D03*
X020693Y021775D03*
X018482Y024025D03*
X018482Y024525D03*
X018482Y025025D03*
X018482Y025525D03*
X020568Y026525D03*
X020568Y027025D03*
X020568Y027525D03*
X020568Y028025D03*
X026482Y027900D03*
X026482Y028400D03*
X026482Y028900D03*
X026482Y029400D03*
X018607Y019275D03*
X018607Y018775D03*
X018607Y018275D03*
X018607Y017775D03*
X020818Y015525D03*
X020818Y015025D03*
X020818Y014525D03*
X020818Y014025D03*
X018732Y013025D03*
X018732Y012525D03*
X018732Y012025D03*
X018732Y011525D03*
X020818Y009275D03*
X020818Y008775D03*
X020818Y008275D03*
X020818Y007775D03*
X018732Y006775D03*
X018732Y006275D03*
X018732Y005775D03*
X018732Y005275D03*
D19*
X020228Y006025D03*
X019322Y008525D03*
X020228Y012275D03*
X019322Y014775D03*
X020103Y018525D03*
X019197Y021025D03*
X019978Y024775D03*
X019072Y027275D03*
X027978Y028650D03*
D20*
X016206Y026000D03*
X013860Y026000D03*
X013860Y019750D03*
X016206Y019750D03*
X016206Y013500D03*
X013860Y013500D03*
X013860Y007250D03*
X016206Y007250D03*
X026300Y006331D03*
X026300Y003985D03*
D21*
X026734Y015775D03*
X025316Y015775D03*
X028316Y015775D03*
X029734Y015775D03*
X032566Y023900D03*
X033984Y023900D03*
X031734Y029275D03*
X030316Y029275D03*
D22*
X028634Y010857D03*
X028437Y010857D03*
X028241Y010857D03*
X028044Y010857D03*
X027847Y010857D03*
X027847Y009124D03*
X028044Y009124D03*
X028241Y009124D03*
X028437Y009124D03*
X028634Y009124D03*
D23*
X026400Y008566D03*
X026400Y009984D03*
X033825Y010334D03*
X033825Y008916D03*
X034453Y013473D03*
X034453Y014890D03*
D24*
X024525Y027232D03*
X024025Y027232D03*
X023525Y027232D03*
X023025Y027232D03*
D25*
X023775Y028728D03*
D26*
X029936Y004027D02*
X029936Y003023D01*
X031495Y003023D02*
X031495Y004027D01*
X033055Y004027D02*
X033055Y003023D01*
X034614Y003023D02*
X034614Y004027D01*
D27*
X037650Y003775D03*
X038650Y003775D03*
X038650Y004775D03*
X037650Y004775D03*
X037650Y005775D03*
X038650Y005775D03*
X038650Y006775D03*
X037650Y006775D03*
X037650Y007775D03*
X038650Y007775D03*
X038650Y008775D03*
X037650Y008775D03*
X037650Y009775D03*
X038650Y009775D03*
X038650Y010775D03*
X037650Y010775D03*
X037650Y011775D03*
X038650Y011775D03*
X038650Y012775D03*
X037650Y012775D03*
X037650Y013775D03*
X038650Y013775D03*
X038650Y014775D03*
X037650Y014775D03*
X037650Y015775D03*
X038650Y015775D03*
X038650Y016775D03*
X037650Y016775D03*
X037650Y017775D03*
X038650Y017775D03*
X038650Y018775D03*
X037650Y018775D03*
X037650Y019775D03*
X038650Y019775D03*
X038650Y020775D03*
X037650Y020775D03*
X037650Y021775D03*
X038650Y021775D03*
X038650Y022775D03*
X037650Y022775D03*
X037650Y023775D03*
X038650Y023775D03*
X038650Y024775D03*
X037650Y024775D03*
X037650Y025775D03*
X038650Y025775D03*
X038650Y026775D03*
X037650Y026775D03*
X037650Y027775D03*
X038650Y027775D03*
D28*
X035250Y019275D03*
D29*
X035250Y018275D03*
X035250Y017275D03*
X035250Y016275D03*
D30*
X027900Y023650D02*
X023525Y019275D01*
X023525Y015775D01*
X023525Y009106D01*
X025628Y007003D01*
X026300Y006331D01*
X026300Y005875D01*
X027650Y004525D01*
X027650Y003525D01*
X026900Y002775D01*
X021900Y002775D01*
X020275Y004400D01*
X018775Y002900D01*
X020228Y002822D02*
X020275Y002775D01*
X016525Y002775D01*
X012525Y006775D01*
X012525Y008525D01*
X012525Y010400D01*
X013150Y010400D01*
X013150Y009900D01*
X013150Y010400D02*
X014275Y010400D01*
X012525Y012150D01*
X012525Y011400D01*
X013025Y010900D01*
X012525Y010400D02*
X012525Y011400D01*
X012525Y012150D02*
X012525Y014775D01*
X014400Y016650D01*
X012525Y018525D01*
X012525Y017650D01*
X013275Y016900D01*
X012525Y016650D02*
X013150Y016025D01*
X012525Y016650D02*
X014400Y016650D01*
X019525Y016650D01*
X020103Y017228D01*
X020103Y018525D01*
X018400Y019650D02*
X018300Y019750D01*
X016206Y019750D01*
X014400Y022900D02*
X012525Y021025D01*
X012525Y018525D01*
X012525Y017650D02*
X012525Y016650D01*
X012525Y014775D01*
X016206Y013500D02*
X018500Y013500D01*
X018525Y013525D01*
X020228Y012275D02*
X020228Y010978D01*
X019650Y010400D01*
X014400Y010400D01*
X014275Y010400D01*
X014400Y010400D02*
X012525Y008525D01*
X016206Y007250D02*
X018425Y007250D01*
X018525Y007150D01*
X020228Y006025D02*
X020228Y002822D01*
X020275Y002775D02*
X021900Y002775D01*
X024525Y004025D02*
X022025Y006525D01*
X022025Y007400D01*
X021150Y008275D01*
X022025Y009150D01*
X022025Y008275D01*
X021150Y008275D01*
X021025Y008275D01*
X022025Y008275D02*
X022025Y007400D01*
X022025Y009150D02*
X022025Y013650D01*
X021150Y014525D01*
X021025Y014525D01*
X021150Y014525D02*
X022025Y015400D01*
X022025Y014525D01*
X021275Y014525D01*
X022025Y014525D02*
X022025Y013650D01*
X022025Y015400D02*
X022025Y020775D01*
X021025Y020775D01*
X021900Y019900D01*
X022025Y020775D02*
X022025Y025400D01*
X022900Y026275D01*
X022025Y026275D01*
X022025Y025400D01*
X022025Y026275D02*
X022025Y026400D01*
X021400Y027025D01*
X020775Y027025D01*
X022900Y026275D02*
X023650Y027025D01*
X023775Y028728D02*
X023947Y028900D01*
X026275Y028900D01*
X027978Y028650D02*
X027978Y023728D01*
X027900Y023650D01*
X021900Y021650D02*
X021025Y020775D01*
X020900Y020775D01*
X019525Y022900D02*
X020025Y023400D01*
X020025Y024728D01*
X019978Y024775D01*
X018275Y025900D02*
X018175Y026000D01*
X016206Y026000D01*
X013860Y026000D02*
X013860Y027860D01*
X015150Y029150D01*
X023400Y029150D01*
X023775Y028775D01*
X019525Y022900D02*
X014400Y022900D01*
X024525Y004025D02*
X026259Y004025D01*
X026300Y003985D01*
D31*
X027783Y021392D02*
X027275Y021900D01*
X026400Y021900D01*
X026775Y022400D02*
X027275Y021900D01*
X027275Y022775D01*
X027783Y021392D02*
X030296Y021392D01*
X023485Y021392D02*
X022158Y021392D01*
X022150Y021900D01*
D32*
X021150Y021400D02*
X021150Y020150D01*
X020400Y020150D01*
X020400Y021400D01*
X021150Y021400D01*
X021150Y021354D02*
X020400Y021354D01*
X020400Y021256D02*
X021150Y021256D01*
X021150Y021157D02*
X020400Y021157D01*
X020400Y021059D02*
X021150Y021059D01*
X021150Y020960D02*
X020400Y020960D01*
X020400Y020862D02*
X021150Y020862D01*
X021150Y020763D02*
X020400Y020763D01*
X020400Y020665D02*
X021150Y020665D01*
X021150Y020566D02*
X020400Y020566D01*
X020400Y020468D02*
X021150Y020468D01*
X021150Y020369D02*
X020400Y020369D01*
X020400Y020271D02*
X021150Y020271D01*
X021150Y020172D02*
X020400Y020172D01*
X019197Y021025D02*
X019072Y021150D01*
X017650Y021150D01*
X018150Y021157D02*
X018900Y021157D01*
X018900Y021059D02*
X018150Y021059D01*
X018150Y020960D02*
X018900Y020960D01*
X018900Y020862D02*
X018150Y020862D01*
X018150Y020763D02*
X018900Y020763D01*
X018900Y020665D02*
X018150Y020665D01*
X018150Y020566D02*
X018900Y020566D01*
X018900Y020468D02*
X018150Y020468D01*
X018150Y020369D02*
X018900Y020369D01*
X018900Y020271D02*
X018150Y020271D01*
X018150Y020172D02*
X018900Y020172D01*
X018900Y020074D02*
X018150Y020074D01*
X018150Y019975D02*
X018900Y019975D01*
X018900Y019877D02*
X018150Y019877D01*
X018150Y019778D02*
X018900Y019778D01*
X018900Y019680D02*
X018150Y019680D01*
X018150Y019581D02*
X018900Y019581D01*
X018900Y019483D02*
X018150Y019483D01*
X018150Y019384D02*
X018900Y019384D01*
X018900Y019286D02*
X018150Y019286D01*
X018150Y019187D02*
X018900Y019187D01*
X018900Y019089D02*
X018150Y019089D01*
X018150Y018990D02*
X018900Y018990D01*
X018900Y018892D02*
X018150Y018892D01*
X018150Y018793D02*
X018900Y018793D01*
X018900Y018695D02*
X018150Y018695D01*
X018150Y018596D02*
X018900Y018596D01*
X018900Y018498D02*
X018150Y018498D01*
X018150Y018399D02*
X018900Y018399D01*
X018900Y018301D02*
X018150Y018301D01*
X018150Y018202D02*
X018900Y018202D01*
X018900Y018150D02*
X018150Y018150D01*
X018150Y021900D01*
X018900Y021900D01*
X018900Y018150D01*
X018607Y017775D02*
X017650Y017775D01*
X018275Y015650D02*
X019025Y015650D01*
X019025Y011900D01*
X018275Y011900D01*
X018275Y015650D01*
X018275Y015641D02*
X019025Y015641D01*
X019025Y015543D02*
X018275Y015543D01*
X018275Y015444D02*
X019025Y015444D01*
X019025Y015346D02*
X018275Y015346D01*
X018275Y015247D02*
X019025Y015247D01*
X019025Y015149D02*
X018275Y015149D01*
X018275Y015050D02*
X019025Y015050D01*
X019025Y014952D02*
X018275Y014952D01*
X018275Y014853D02*
X019025Y014853D01*
X019025Y014755D02*
X018275Y014755D01*
X018275Y014656D02*
X019025Y014656D01*
X019025Y014558D02*
X018275Y014558D01*
X018275Y014459D02*
X019025Y014459D01*
X019025Y014361D02*
X018275Y014361D01*
X018275Y014262D02*
X019025Y014262D01*
X019025Y014164D02*
X018275Y014164D01*
X018275Y014065D02*
X019025Y014065D01*
X019025Y013967D02*
X018275Y013967D01*
X018275Y013868D02*
X019025Y013868D01*
X019025Y013770D02*
X018275Y013770D01*
X018275Y013671D02*
X019025Y013671D01*
X019025Y013573D02*
X018275Y013573D01*
X018275Y013474D02*
X019025Y013474D01*
X019025Y013376D02*
X018275Y013376D01*
X018275Y013277D02*
X019025Y013277D01*
X019025Y013179D02*
X018275Y013179D01*
X018275Y013080D02*
X019025Y013080D01*
X019025Y012982D02*
X018275Y012982D01*
X018275Y012883D02*
X019025Y012883D01*
X019025Y012785D02*
X018275Y012785D01*
X018275Y012686D02*
X019025Y012686D01*
X019025Y012588D02*
X018275Y012588D01*
X018275Y012489D02*
X019025Y012489D01*
X019025Y012391D02*
X018275Y012391D01*
X018275Y012292D02*
X019025Y012292D01*
X019025Y012194D02*
X018275Y012194D01*
X018275Y012095D02*
X019025Y012095D01*
X019025Y011997D02*
X018275Y011997D01*
X018732Y011525D02*
X017650Y011525D01*
X018275Y009400D02*
X019025Y009400D01*
X019025Y005650D01*
X018275Y005650D01*
X018275Y009400D01*
X018275Y009337D02*
X019025Y009337D01*
X019025Y009239D02*
X018275Y009239D01*
X018275Y009140D02*
X019025Y009140D01*
X019025Y009042D02*
X018275Y009042D01*
X018275Y008943D02*
X019025Y008943D01*
X019025Y008845D02*
X018275Y008845D01*
X018275Y008746D02*
X019025Y008746D01*
X019025Y008648D02*
X018275Y008648D01*
X018275Y008549D02*
X019025Y008549D01*
X019025Y008525D02*
X017650Y008525D01*
X018275Y008451D02*
X019025Y008451D01*
X019025Y008352D02*
X018275Y008352D01*
X018275Y008254D02*
X019025Y008254D01*
X019025Y008155D02*
X018275Y008155D01*
X018275Y008057D02*
X019025Y008057D01*
X019025Y007958D02*
X018275Y007958D01*
X018275Y007860D02*
X019025Y007860D01*
X019025Y007761D02*
X018275Y007761D01*
X018275Y007663D02*
X019025Y007663D01*
X019025Y007564D02*
X018275Y007564D01*
X018275Y007466D02*
X019025Y007466D01*
X019025Y007367D02*
X018275Y007367D01*
X018275Y007269D02*
X019025Y007269D01*
X019025Y007170D02*
X018275Y007170D01*
X018275Y007072D02*
X019025Y007072D01*
X019025Y006973D02*
X018275Y006973D01*
X018275Y006875D02*
X019025Y006875D01*
X019025Y006776D02*
X018275Y006776D01*
X018275Y006678D02*
X019025Y006678D01*
X019025Y006579D02*
X018275Y006579D01*
X018275Y006481D02*
X019025Y006481D01*
X019025Y006382D02*
X018275Y006382D01*
X018275Y006284D02*
X019025Y006284D01*
X019025Y006185D02*
X018275Y006185D01*
X018275Y006087D02*
X019025Y006087D01*
X019025Y005988D02*
X018275Y005988D01*
X018275Y005890D02*
X019025Y005890D01*
X019025Y005791D02*
X018275Y005791D01*
X018275Y005693D02*
X019025Y005693D01*
X018775Y005275D02*
X018732Y005275D01*
X017650Y005275D01*
X020525Y007650D02*
X020525Y008900D01*
X021275Y008900D01*
X021275Y007650D01*
X020525Y007650D01*
X020525Y007663D02*
X021275Y007663D01*
X021275Y007761D02*
X020525Y007761D01*
X020525Y007860D02*
X021275Y007860D01*
X021275Y007958D02*
X020525Y007958D01*
X020525Y008057D02*
X021275Y008057D01*
X021275Y008155D02*
X020525Y008155D01*
X020525Y008254D02*
X021275Y008254D01*
X021275Y008352D02*
X020525Y008352D01*
X020525Y008451D02*
X021275Y008451D01*
X021275Y008549D02*
X020525Y008549D01*
X020525Y008648D02*
X021275Y008648D01*
X021275Y008746D02*
X020525Y008746D01*
X020525Y008845D02*
X021275Y008845D01*
X020818Y009275D02*
X020818Y009943D01*
X020900Y010025D01*
X024525Y010027D02*
X024850Y010027D01*
X024850Y010125D02*
X024525Y010125D01*
X024525Y010224D02*
X024850Y010224D01*
X024850Y010322D02*
X024525Y010322D01*
X024525Y010421D02*
X025095Y010421D01*
X025095Y010410D02*
X024926Y010410D01*
X024850Y010334D01*
X024850Y009723D01*
X024803Y009836D01*
X024711Y009928D01*
X024850Y009928D01*
X024850Y009830D02*
X024806Y009830D01*
X024847Y009731D02*
X024850Y009731D01*
X024711Y009928D02*
X024590Y009978D01*
X024525Y009978D01*
X024525Y010597D01*
X024585Y010572D01*
X024715Y010572D01*
X024836Y010622D01*
X024928Y010714D01*
X024978Y010835D01*
X024978Y010965D01*
X024928Y011086D01*
X024836Y011178D01*
X024830Y011181D01*
X024830Y011390D01*
X024999Y011390D01*
X025075Y011466D01*
X025075Y012086D01*
X025011Y012150D01*
X025075Y012214D01*
X025075Y012834D01*
X024999Y012910D01*
X024933Y012910D01*
X025143Y013095D01*
X025871Y013095D01*
X025870Y013090D01*
X025870Y012825D01*
X026226Y012825D01*
X026226Y012725D01*
X026326Y012725D01*
X026326Y011950D01*
X026226Y011950D01*
X026226Y012330D01*
X026226Y012725D01*
X025870Y012725D01*
X025870Y012460D01*
X025880Y012422D01*
X025900Y012388D01*
X025928Y012360D01*
X025962Y012340D01*
X025971Y012337D01*
X025962Y012335D01*
X025928Y012315D01*
X025900Y012287D01*
X025880Y012253D01*
X025870Y012215D01*
X025870Y011950D01*
X026226Y011950D01*
X026226Y011850D01*
X026326Y011850D01*
X026326Y011455D01*
X026552Y011455D01*
X026590Y011465D01*
X026624Y011485D01*
X026652Y011513D01*
X026661Y011528D01*
X026714Y011475D01*
X026845Y011475D01*
X026845Y011325D01*
X026950Y011220D01*
X027134Y011037D01*
X025806Y011037D01*
X025657Y011037D01*
X025200Y010580D01*
X025095Y010475D01*
X025095Y010410D01*
X025139Y010519D02*
X024525Y010519D01*
X024825Y010618D02*
X025238Y010618D01*
X025336Y010716D02*
X024929Y010716D01*
X024970Y010815D02*
X025435Y010815D01*
X025533Y010913D02*
X024978Y010913D01*
X024959Y011012D02*
X025632Y011012D01*
X025732Y010857D02*
X025275Y010400D01*
X025275Y010024D01*
X025700Y010027D02*
X025857Y010027D01*
X025857Y010125D02*
X025700Y010125D01*
X025700Y010224D02*
X025857Y010224D01*
X025857Y010322D02*
X025700Y010322D01*
X025700Y010334D02*
X025624Y010410D01*
X025539Y010410D01*
X025806Y010677D01*
X027666Y010677D01*
X027734Y010609D01*
X027910Y010609D01*
X027927Y010599D01*
X027965Y010589D01*
X028044Y010589D01*
X028061Y010589D01*
X028061Y010110D01*
X028166Y010004D01*
X028199Y009971D01*
X028197Y009965D01*
X028197Y009835D01*
X028247Y009714D01*
X028291Y009670D01*
X028228Y009608D01*
X028228Y009715D01*
X028178Y009836D01*
X028086Y009928D01*
X028197Y009928D01*
X028199Y009830D02*
X028181Y009830D01*
X028222Y009731D02*
X028240Y009731D01*
X028228Y009633D02*
X028253Y009633D01*
X028400Y009525D02*
X028775Y009525D01*
X029400Y008900D01*
X029400Y007151D01*
X029399Y007150D01*
X029785Y007170D02*
X029845Y007170D01*
X029845Y007072D02*
X029785Y007072D01*
X029785Y006973D02*
X029845Y006973D01*
X029845Y006875D02*
X029785Y006875D01*
X029785Y006801D02*
X029785Y007499D01*
X029709Y007575D01*
X029580Y007575D01*
X029580Y008975D01*
X029475Y009080D01*
X028850Y009705D01*
X028794Y009705D01*
X028803Y009714D01*
X028853Y009835D01*
X028853Y009942D01*
X029220Y009575D01*
X029325Y009470D01*
X030189Y009470D01*
X030258Y009402D01*
X030838Y009402D01*
X030845Y009409D01*
X030845Y009391D01*
X030838Y009398D01*
X030258Y009398D01*
X030189Y009330D01*
X030075Y009330D01*
X029970Y009225D01*
X029845Y009100D01*
X029845Y006575D01*
X029950Y006470D01*
X030450Y005970D01*
X030515Y005970D01*
X030515Y005801D01*
X030591Y005725D01*
X031211Y005725D01*
X031264Y005778D01*
X031273Y005763D01*
X031301Y005735D01*
X031335Y005715D01*
X031373Y005705D01*
X031599Y005705D01*
X031599Y006100D01*
X031699Y006100D01*
X031699Y005705D01*
X031925Y005705D01*
X031963Y005715D01*
X031997Y005735D01*
X032025Y005763D01*
X032045Y005797D01*
X032055Y005835D01*
X032055Y006100D01*
X031699Y006100D01*
X031699Y006200D01*
X032055Y006200D01*
X032055Y006465D01*
X032045Y006503D01*
X032025Y006537D01*
X032011Y006551D01*
X032032Y006572D01*
X032052Y006606D01*
X032062Y006644D01*
X032062Y006871D01*
X031783Y006871D01*
X031783Y006929D01*
X031726Y006929D01*
X031726Y007286D01*
X031577Y007286D01*
X031539Y007276D01*
X031505Y007256D01*
X031477Y007228D01*
X031457Y007194D01*
X031447Y007156D01*
X031447Y006929D01*
X031726Y006929D01*
X031726Y006871D01*
X031447Y006871D01*
X031447Y006644D01*
X031457Y006606D01*
X031463Y006595D01*
X031373Y006595D01*
X031335Y006585D01*
X031301Y006565D01*
X031273Y006537D01*
X031264Y006522D01*
X031252Y006534D01*
X031257Y006534D01*
X031333Y006610D01*
X031333Y007190D01*
X031273Y007250D01*
X031386Y007297D01*
X031478Y007389D01*
X031528Y007510D01*
X031528Y007640D01*
X031527Y007644D01*
X031884Y007286D01*
X031783Y007286D01*
X031783Y006929D01*
X032062Y006929D01*
X032062Y007109D01*
X033200Y005970D01*
X033265Y005970D01*
X033265Y005801D01*
X033341Y005725D01*
X033961Y005725D01*
X034014Y005778D01*
X034023Y005763D01*
X034051Y005735D01*
X034085Y005715D01*
X034123Y005705D01*
X034349Y005705D01*
X034349Y006100D01*
X034449Y006100D01*
X034449Y005705D01*
X034675Y005705D01*
X034713Y005715D01*
X034747Y005735D01*
X034775Y005763D01*
X034795Y005797D01*
X034805Y005835D01*
X034805Y006100D01*
X034449Y006100D01*
X034449Y006200D01*
X034349Y006200D01*
X034349Y006595D01*
X034349Y006975D01*
X034449Y006975D01*
X034449Y006200D01*
X034805Y006200D01*
X034805Y006465D01*
X034795Y006503D01*
X034775Y006537D01*
X034747Y006565D01*
X034713Y006585D01*
X034704Y006588D01*
X034713Y006590D01*
X034747Y006610D01*
X034775Y006638D01*
X034795Y006672D01*
X034805Y006710D01*
X034805Y006975D01*
X034449Y006975D01*
X034449Y007075D01*
X034349Y007075D01*
X034349Y007470D01*
X034123Y007470D01*
X034085Y007460D01*
X034051Y007440D01*
X034023Y007412D01*
X034014Y007397D01*
X033961Y007450D01*
X033341Y007450D01*
X033265Y007374D01*
X033265Y007205D01*
X032850Y007205D01*
X032653Y007402D01*
X033042Y007402D01*
X033119Y007478D01*
X033119Y007822D01*
X033042Y007898D01*
X032462Y007898D01*
X032386Y007822D01*
X032386Y007668D01*
X031955Y008100D01*
X031955Y008206D01*
X031964Y008197D01*
X032085Y008147D01*
X032215Y008147D01*
X032336Y008197D01*
X032386Y008247D01*
X032386Y007978D01*
X032462Y007902D01*
X033042Y007902D01*
X033119Y007978D01*
X033119Y008322D01*
X033042Y008398D01*
X032473Y008398D01*
X032475Y008402D01*
X033042Y008402D01*
X033119Y008478D01*
X033119Y008822D01*
X033042Y008898D01*
X032781Y008898D01*
X032778Y008902D01*
X033042Y008902D01*
X033119Y008978D01*
X033119Y009322D01*
X033042Y009398D01*
X032462Y009398D01*
X032386Y009322D01*
X032386Y008978D01*
X032409Y008955D01*
X032225Y008955D01*
X031630Y009550D01*
X031630Y010600D01*
X032825Y011795D01*
X032875Y011795D01*
X032960Y011710D01*
X032960Y011696D01*
X033010Y011646D01*
X033121Y011535D01*
X033135Y011535D01*
X033161Y011509D01*
X033161Y011495D01*
X033272Y011384D01*
X033598Y011384D01*
X033615Y011367D01*
X033615Y010901D01*
X033691Y010825D01*
X034311Y010825D01*
X034375Y010889D01*
X034439Y010825D01*
X034559Y010825D01*
X034559Y010360D01*
X034426Y010360D01*
X034368Y010302D01*
X034368Y010683D01*
X034292Y010759D01*
X033358Y010759D01*
X033282Y010683D01*
X033282Y009985D01*
X033358Y009908D01*
X033982Y009908D01*
X033995Y009895D01*
X034106Y009784D01*
X034350Y009784D01*
X034350Y009664D01*
X034414Y009600D01*
X034350Y009536D01*
X034350Y009416D01*
X034056Y009416D01*
X033982Y009342D01*
X033358Y009342D01*
X033282Y009265D01*
X033282Y008567D01*
X033358Y008491D01*
X033402Y008491D01*
X033372Y008461D01*
X033322Y008340D01*
X033322Y008210D01*
X033372Y008089D01*
X033464Y007997D01*
X033585Y007947D01*
X033715Y007947D01*
X033836Y007997D01*
X033928Y008089D01*
X033978Y008210D01*
X033978Y008340D01*
X033928Y008461D01*
X033898Y008491D01*
X034292Y008491D01*
X034368Y008567D01*
X034368Y008898D01*
X034426Y008840D01*
X034552Y008840D01*
X034542Y008724D01*
X034509Y008691D01*
X034509Y008268D01*
X034585Y008192D01*
X035160Y008192D01*
X035160Y008070D01*
X035131Y008078D01*
X034904Y008078D01*
X034904Y007799D01*
X034846Y007799D01*
X034846Y007742D01*
X034489Y007742D01*
X034489Y007593D01*
X034499Y007555D01*
X034519Y007521D01*
X034547Y007493D01*
X034581Y007473D01*
X034593Y007470D01*
X034449Y007470D01*
X034449Y007075D01*
X034805Y007075D01*
X034805Y007340D01*
X034795Y007378D01*
X034775Y007412D01*
X034747Y007440D01*
X034713Y007460D01*
X034701Y007463D01*
X034846Y007463D01*
X034846Y007742D01*
X034904Y007742D01*
X034904Y007463D01*
X035131Y007463D01*
X035160Y007471D01*
X035160Y006054D01*
X034571Y005465D01*
X030571Y005465D01*
X030460Y005354D01*
X029960Y004854D01*
X029960Y004659D01*
X029811Y004659D01*
X029602Y004573D01*
X028914Y005261D01*
X028983Y005330D01*
X029120Y005567D01*
X029191Y005832D01*
X029191Y006106D01*
X029120Y006371D01*
X028983Y006608D01*
X028866Y006725D01*
X028961Y006725D01*
X029025Y006789D01*
X029089Y006725D01*
X029709Y006725D01*
X029785Y006801D01*
X029760Y006776D02*
X029845Y006776D01*
X029845Y006678D02*
X028913Y006678D01*
X028999Y006579D02*
X029845Y006579D01*
X029940Y006481D02*
X029056Y006481D01*
X029113Y006382D02*
X030038Y006382D01*
X030137Y006284D02*
X029143Y006284D01*
X029169Y006185D02*
X030235Y006185D01*
X030334Y006087D02*
X029191Y006087D01*
X029191Y005988D02*
X030432Y005988D01*
X030515Y005890D02*
X029191Y005890D01*
X029180Y005791D02*
X030525Y005791D01*
X030525Y006150D02*
X030025Y006650D01*
X030025Y009025D01*
X030150Y009150D01*
X030525Y009150D01*
X030548Y009150D02*
X030900Y009150D01*
X031025Y009275D01*
X031025Y010900D01*
X032150Y012025D01*
X032150Y013650D01*
X032062Y013738D01*
X031857Y013738D01*
X031857Y013934D02*
X031684Y013934D01*
X031275Y013525D01*
X031056Y013770D02*
X030705Y013770D01*
X030705Y013850D02*
X030600Y013955D01*
X030440Y014114D01*
X030373Y014114D01*
X030373Y014441D01*
X030304Y014509D01*
X030304Y014564D01*
X030334Y014534D01*
X030757Y014534D01*
X030833Y014610D01*
X030833Y015190D01*
X030757Y015266D01*
X030705Y015266D01*
X030705Y015494D01*
X030711Y015497D01*
X030803Y015589D01*
X030853Y015710D01*
X030853Y015840D01*
X030803Y015961D01*
X030711Y016053D01*
X030590Y016103D01*
X030460Y016103D01*
X030339Y016053D01*
X030247Y015961D01*
X030197Y015840D01*
X030197Y015710D01*
X030247Y015589D01*
X030339Y015497D01*
X030345Y015494D01*
X030345Y015266D01*
X030334Y015266D01*
X030258Y015190D01*
X030258Y015080D01*
X030200Y015080D01*
X030095Y014975D01*
X029955Y014835D01*
X029955Y015232D01*
X030083Y015232D01*
X030159Y015308D01*
X030159Y016242D01*
X030083Y016318D01*
X029385Y016318D01*
X029308Y016242D01*
X029308Y015308D01*
X029385Y015232D01*
X029554Y015232D01*
X029554Y014559D01*
X029266Y014559D01*
X029266Y014591D01*
X029190Y014667D01*
X028610Y014667D01*
X028534Y014591D01*
X028534Y014168D01*
X028610Y014092D01*
X029190Y014092D01*
X029266Y014168D01*
X029266Y014199D01*
X029596Y014199D01*
X029700Y014095D01*
X029739Y014057D01*
X029844Y013951D01*
X029876Y013951D01*
X029876Y013918D01*
X029721Y013918D01*
X029711Y013928D01*
X029590Y013978D01*
X029460Y013978D01*
X029339Y013928D01*
X029266Y013855D01*
X029266Y013882D01*
X029190Y013958D01*
X028610Y013958D01*
X028534Y013882D01*
X028534Y013459D01*
X028610Y013383D01*
X029190Y013383D01*
X029259Y013452D01*
X029339Y013372D01*
X029460Y013322D01*
X029590Y013322D01*
X029711Y013372D01*
X029803Y013464D01*
X029842Y013558D01*
X029876Y013558D01*
X029876Y013455D01*
X029825Y013455D01*
X029450Y013080D01*
X029345Y012975D01*
X029345Y012660D01*
X029176Y012660D01*
X029100Y012584D01*
X029100Y011964D01*
X029164Y011900D01*
X029100Y011836D01*
X029100Y011216D01*
X029176Y011140D01*
X029345Y011140D01*
X029345Y011056D01*
X029339Y011053D01*
X029247Y010961D01*
X029197Y010840D01*
X029197Y010710D01*
X029247Y010589D01*
X029339Y010497D01*
X029460Y010447D01*
X029590Y010447D01*
X029711Y010497D01*
X029803Y010589D01*
X029848Y010697D01*
X029950Y010595D01*
X030075Y010470D01*
X030189Y010470D01*
X030258Y010402D01*
X030838Y010402D01*
X030845Y010409D01*
X030845Y010391D01*
X030838Y010398D01*
X030258Y010398D01*
X030189Y010330D01*
X030181Y010330D01*
X030178Y010336D01*
X030086Y010428D01*
X029965Y010478D01*
X029835Y010478D01*
X029714Y010428D01*
X029622Y010336D01*
X029572Y010215D01*
X029572Y010085D01*
X029622Y009964D01*
X029714Y009872D01*
X029815Y009830D01*
X029475Y009830D01*
X028955Y010350D01*
X028955Y010450D01*
X029080Y010575D01*
X029080Y011225D01*
X028975Y011330D01*
X028914Y011390D01*
X028999Y011390D01*
X029075Y011466D01*
X029075Y012086D01*
X029022Y012139D01*
X029037Y012148D01*
X029065Y012176D01*
X029085Y012210D01*
X029095Y012248D01*
X029095Y012474D01*
X028700Y012474D01*
X028700Y012574D01*
X029095Y012574D01*
X029095Y012800D01*
X029085Y012838D01*
X029065Y012872D01*
X029037Y012900D01*
X029003Y012920D01*
X028965Y012930D01*
X028700Y012930D01*
X028700Y012574D01*
X028600Y012574D01*
X028600Y012474D01*
X028205Y012474D01*
X028205Y012248D01*
X028215Y012210D01*
X028235Y012176D01*
X028263Y012148D01*
X028278Y012139D01*
X028225Y012086D01*
X028225Y011466D01*
X028301Y011390D01*
X028470Y011390D01*
X028470Y011330D01*
X027350Y011330D01*
X027205Y011475D01*
X027334Y011475D01*
X027410Y011551D01*
X027410Y012249D01*
X027334Y012325D01*
X026714Y012325D01*
X026661Y012272D01*
X026652Y012287D01*
X026624Y012315D01*
X026590Y012335D01*
X026581Y012337D01*
X026590Y012340D01*
X026624Y012360D01*
X026652Y012388D01*
X026661Y012403D01*
X026714Y012350D01*
X027334Y012350D01*
X027410Y012426D01*
X027410Y012595D01*
X027475Y012595D01*
X027580Y012700D01*
X027580Y012700D01*
X027681Y012802D01*
X027787Y012907D01*
X027787Y013049D01*
X027839Y012997D01*
X027960Y012947D01*
X028090Y012947D01*
X028211Y012997D01*
X028303Y013089D01*
X028353Y013210D01*
X028353Y013340D01*
X028303Y013461D01*
X028211Y013553D01*
X028205Y013556D01*
X028205Y013600D01*
X028100Y013705D01*
X028030Y013775D01*
X028100Y013845D01*
X028205Y013950D01*
X028205Y014325D01*
X028975Y015095D01*
X029080Y015200D01*
X029080Y016815D01*
X029122Y016714D01*
X029214Y016622D01*
X029335Y016572D01*
X029465Y016572D01*
X029586Y016622D01*
X029678Y016714D01*
X029681Y016720D01*
X029890Y016720D01*
X029890Y016551D01*
X029966Y016475D01*
X030586Y016475D01*
X030650Y016539D01*
X030714Y016475D01*
X031334Y016475D01*
X031410Y016551D01*
X031410Y016636D01*
X031677Y016369D01*
X031677Y014509D01*
X031609Y014441D01*
X031609Y014265D01*
X031599Y014248D01*
X031589Y014210D01*
X031589Y014131D01*
X031589Y014093D01*
X031504Y014009D01*
X031346Y013851D01*
X031340Y013853D01*
X031210Y013853D01*
X031089Y013803D01*
X030997Y013711D01*
X030947Y013590D01*
X030947Y013460D01*
X030997Y013339D01*
X031089Y013247D01*
X031202Y013200D01*
X030964Y013200D01*
X030911Y013147D01*
X030902Y013162D01*
X030874Y013190D01*
X030840Y013210D01*
X030802Y013220D01*
X030576Y013220D01*
X030576Y012825D01*
X030476Y012825D01*
X030476Y013220D01*
X030475Y013220D01*
X030705Y013450D01*
X030705Y013850D01*
X030687Y013868D02*
X031363Y013868D01*
X031462Y013967D02*
X030588Y013967D01*
X030490Y014065D02*
X031560Y014065D01*
X031589Y014131D02*
X031857Y014131D01*
X031857Y014131D01*
X032125Y014131D01*
X032125Y014052D01*
X032115Y014014D01*
X032105Y013997D01*
X032105Y013918D01*
X032137Y013918D01*
X032195Y013860D01*
X032195Y017505D01*
X032178Y017464D01*
X032086Y017372D01*
X031965Y017322D01*
X031835Y017322D01*
X031714Y017372D01*
X031622Y017464D01*
X031619Y017470D01*
X029475Y017470D01*
X029080Y017075D01*
X029080Y016985D01*
X029122Y017086D01*
X029214Y017178D01*
X029335Y017228D01*
X029465Y017228D01*
X029586Y017178D01*
X029678Y017086D01*
X029681Y017080D01*
X029890Y017080D01*
X029890Y017249D01*
X029966Y017325D01*
X030586Y017325D01*
X030650Y017261D01*
X030714Y017325D01*
X031334Y017325D01*
X031410Y017249D01*
X031410Y017080D01*
X031475Y017080D01*
X031580Y016975D01*
X032037Y016518D01*
X032037Y014509D01*
X032105Y014441D01*
X032105Y014265D01*
X032115Y014248D01*
X032125Y014210D01*
X032125Y014131D01*
X031857Y014131D01*
X031294Y014131D01*
X031275Y014150D01*
X031275Y014025D01*
X030525Y013275D01*
X030525Y012776D01*
X030526Y012775D01*
X030476Y012785D02*
X029705Y012785D01*
X029705Y012825D02*
X029975Y013095D01*
X030121Y013095D01*
X030120Y013090D01*
X030120Y012825D01*
X030476Y012825D01*
X030476Y012725D01*
X030576Y012725D01*
X030576Y012330D01*
X030802Y012330D01*
X030840Y012340D01*
X030874Y012360D01*
X030902Y012388D01*
X030911Y012403D01*
X030964Y012350D01*
X031584Y012350D01*
X031660Y012426D01*
X031660Y012595D01*
X031725Y012595D01*
X031830Y012700D01*
X031970Y012840D01*
X031970Y012100D01*
X030934Y011063D01*
X030934Y011141D01*
X030557Y011141D01*
X030557Y011159D01*
X030934Y011159D01*
X030934Y011288D01*
X030924Y011326D01*
X030904Y011360D01*
X030876Y011388D01*
X030842Y011408D01*
X030804Y011418D01*
X030557Y011418D01*
X030557Y011159D01*
X030539Y011159D01*
X030539Y011418D01*
X030292Y011418D01*
X030254Y011408D01*
X030219Y011388D01*
X030205Y011374D01*
X030205Y011450D01*
X030329Y011574D01*
X030335Y011572D01*
X030465Y011572D01*
X030586Y011622D01*
X030678Y011714D01*
X030728Y011835D01*
X030728Y011965D01*
X030678Y012086D01*
X030586Y012178D01*
X030465Y012228D01*
X030335Y012228D01*
X030214Y012178D01*
X030122Y012086D01*
X030072Y011965D01*
X030072Y011835D01*
X030074Y011829D01*
X029950Y011705D01*
X029950Y011836D01*
X029886Y011900D01*
X029950Y011964D01*
X029950Y012584D01*
X029874Y012660D01*
X029705Y012660D01*
X029705Y012825D01*
X029763Y012883D02*
X030120Y012883D01*
X030120Y012982D02*
X029861Y012982D01*
X029960Y013080D02*
X030120Y013080D01*
X030275Y013275D02*
X029900Y013275D01*
X029525Y012900D01*
X029525Y012275D01*
X029950Y012292D02*
X031970Y012292D01*
X031970Y012194D02*
X030549Y012194D01*
X030476Y012330D02*
X030476Y012725D01*
X030120Y012725D01*
X030120Y012460D01*
X030130Y012422D01*
X030150Y012388D01*
X030178Y012360D01*
X030212Y012340D01*
X030250Y012330D01*
X030476Y012330D01*
X030476Y012391D02*
X030576Y012391D01*
X030576Y012489D02*
X030476Y012489D01*
X030476Y012588D02*
X030576Y012588D01*
X030576Y012686D02*
X030476Y012686D01*
X030476Y012883D02*
X030576Y012883D01*
X030576Y012982D02*
X030476Y012982D01*
X030476Y013080D02*
X030576Y013080D01*
X030576Y013179D02*
X030476Y013179D01*
X030532Y013277D02*
X031059Y013277D01*
X030982Y013376D02*
X030630Y013376D01*
X030705Y013474D02*
X030947Y013474D01*
X030947Y013573D02*
X030705Y013573D01*
X030705Y013671D02*
X030980Y013671D01*
X030525Y013775D02*
X030525Y013525D01*
X030275Y013275D01*
X029876Y013474D02*
X029807Y013474D01*
X029746Y013376D02*
X029715Y013376D01*
X029647Y013277D02*
X028353Y013277D01*
X028340Y013179D02*
X029549Y013179D01*
X029450Y013080D02*
X028294Y013080D01*
X028174Y012982D02*
X029352Y012982D01*
X029345Y012883D02*
X029054Y012883D01*
X029095Y012785D02*
X029345Y012785D01*
X029345Y012686D02*
X029095Y012686D01*
X029095Y012588D02*
X029103Y012588D01*
X029100Y012489D02*
X028700Y012489D01*
X028700Y012588D02*
X028600Y012588D01*
X028600Y012574D02*
X028600Y012930D01*
X028335Y012930D01*
X028297Y012920D01*
X028263Y012900D01*
X028235Y012872D01*
X028215Y012838D01*
X028205Y012800D01*
X028205Y012574D01*
X028600Y012574D01*
X028600Y012489D02*
X027410Y012489D01*
X027410Y012588D02*
X028205Y012588D01*
X028205Y012686D02*
X027566Y012686D01*
X027664Y012785D02*
X028205Y012785D01*
X028246Y012883D02*
X027763Y012883D01*
X027787Y012982D02*
X027876Y012982D01*
X027681Y012802D02*
X027681Y012802D01*
X027607Y012982D02*
X027400Y012775D01*
X027024Y012775D01*
X026952Y013200D02*
X026714Y013200D01*
X026661Y013147D01*
X026652Y013162D01*
X026624Y013190D01*
X026590Y013210D01*
X026552Y013220D01*
X026345Y013220D01*
X026485Y013360D01*
X026485Y013716D01*
X026496Y013733D01*
X026485Y013788D01*
X026485Y013830D01*
X026586Y013872D01*
X026678Y013964D01*
X026728Y014085D01*
X026728Y014215D01*
X026678Y014336D01*
X026586Y014428D01*
X026465Y014478D01*
X026455Y014478D01*
X026455Y014534D01*
X026507Y014534D01*
X026583Y014610D01*
X026583Y015190D01*
X026542Y015232D01*
X026730Y015232D01*
X026727Y015228D01*
X026707Y015194D01*
X026697Y015156D01*
X026697Y014929D01*
X026976Y014929D01*
X026976Y014871D01*
X027033Y014871D01*
X027033Y014514D01*
X027182Y014514D01*
X027220Y014524D01*
X027254Y014544D01*
X027282Y014572D01*
X027302Y014606D01*
X027312Y014644D01*
X027312Y014871D01*
X027033Y014871D01*
X027033Y014929D01*
X027312Y014929D01*
X027312Y015156D01*
X027302Y015194D01*
X027282Y015228D01*
X027254Y015256D01*
X027220Y015276D01*
X027182Y015286D01*
X027137Y015286D01*
X027159Y015308D01*
X027159Y016242D01*
X027083Y016318D01*
X026385Y016318D01*
X026308Y016242D01*
X026308Y015955D01*
X026200Y015955D01*
X026075Y015830D01*
X025970Y015725D01*
X025970Y015475D01*
X025200Y014705D01*
X025016Y014705D01*
X025016Y014716D01*
X024940Y014792D01*
X024525Y014792D01*
X024525Y015472D01*
X024585Y015447D01*
X024715Y015447D01*
X024836Y015497D01*
X024891Y015552D01*
X024891Y015308D01*
X024967Y015232D01*
X025665Y015232D01*
X025742Y015308D01*
X025742Y016242D01*
X025665Y016318D01*
X024967Y016318D01*
X024891Y016242D01*
X024891Y015998D01*
X024836Y016053D01*
X024715Y016103D01*
X024585Y016103D01*
X024525Y016078D01*
X024525Y018650D01*
X025523Y019648D01*
X027949Y017221D01*
X027947Y017215D01*
X027947Y017085D01*
X027997Y016964D01*
X028089Y016872D01*
X028136Y016852D01*
X028136Y016318D01*
X027967Y016318D01*
X027891Y016242D01*
X027891Y015308D01*
X027967Y015232D01*
X028602Y015232D01*
X027845Y014475D01*
X027845Y014451D01*
X027787Y014509D01*
X027787Y016518D01*
X027330Y016975D01*
X027225Y017080D01*
X027160Y017080D01*
X027160Y017249D01*
X027084Y017325D01*
X026464Y017325D01*
X026400Y017261D01*
X026336Y017325D01*
X025716Y017325D01*
X025640Y017249D01*
X025640Y017080D01*
X025556Y017080D01*
X025553Y017086D01*
X025461Y017178D01*
X025340Y017228D01*
X025210Y017228D01*
X025089Y017178D01*
X024997Y017086D01*
X024947Y016965D01*
X024947Y016835D01*
X024997Y016714D01*
X025089Y016622D01*
X025210Y016572D01*
X025340Y016572D01*
X025461Y016622D01*
X025553Y016714D01*
X025556Y016720D01*
X025640Y016720D01*
X025640Y016551D01*
X025716Y016475D01*
X026336Y016475D01*
X026400Y016539D01*
X026464Y016475D01*
X027084Y016475D01*
X027160Y016551D01*
X027160Y016636D01*
X027427Y016369D01*
X027427Y014509D01*
X027359Y014441D01*
X027359Y014265D01*
X027349Y014248D01*
X027339Y014210D01*
X027339Y014131D01*
X027339Y014093D01*
X027096Y013851D01*
X027090Y013853D01*
X026960Y013853D01*
X026839Y013803D01*
X026747Y013711D01*
X026697Y013590D01*
X026697Y013460D01*
X026747Y013339D01*
X026839Y013247D01*
X026952Y013200D01*
X026809Y013277D02*
X026402Y013277D01*
X026485Y013376D02*
X026732Y013376D01*
X026697Y013474D02*
X026485Y013474D01*
X026485Y013573D02*
X026697Y013573D01*
X026650Y013649D02*
X027025Y014150D01*
X027044Y014131D01*
X027607Y014131D01*
X027339Y014131D01*
X027607Y014131D01*
X027607Y014131D01*
X027607Y013934D02*
X027434Y013934D01*
X027025Y013525D01*
X026806Y013770D02*
X026489Y013770D01*
X026485Y013671D02*
X026730Y013671D01*
X026577Y013868D02*
X027113Y013868D01*
X027212Y013967D02*
X026679Y013967D01*
X026720Y014065D02*
X027310Y014065D01*
X027339Y014164D02*
X026728Y014164D01*
X026709Y014262D02*
X027357Y014262D01*
X027359Y014361D02*
X026653Y014361D01*
X026511Y014459D02*
X027377Y014459D01*
X027427Y014558D02*
X027268Y014558D01*
X027312Y014656D02*
X027427Y014656D01*
X027427Y014755D02*
X027312Y014755D01*
X027312Y014853D02*
X027427Y014853D01*
X027427Y014952D02*
X027312Y014952D01*
X027312Y015050D02*
X027427Y015050D01*
X027427Y015149D02*
X027312Y015149D01*
X027263Y015247D02*
X027427Y015247D01*
X027427Y015346D02*
X027159Y015346D01*
X027159Y015444D02*
X027427Y015444D01*
X027427Y015543D02*
X027159Y015543D01*
X027159Y015641D02*
X027427Y015641D01*
X027427Y015740D02*
X027159Y015740D01*
X027159Y015838D02*
X027427Y015838D01*
X027427Y015937D02*
X027159Y015937D01*
X027159Y016035D02*
X027427Y016035D01*
X027427Y016134D02*
X027159Y016134D01*
X027159Y016232D02*
X027427Y016232D01*
X027427Y016331D02*
X024525Y016331D01*
X024525Y016429D02*
X027366Y016429D01*
X027268Y016528D02*
X027137Y016528D01*
X027160Y016626D02*
X027169Y016626D01*
X027150Y016900D02*
X026775Y016900D01*
X027150Y016900D02*
X027607Y016443D01*
X027607Y014328D01*
X027837Y014459D02*
X027845Y014459D01*
X027787Y014558D02*
X027928Y014558D01*
X028026Y014656D02*
X027787Y014656D01*
X027787Y014755D02*
X028125Y014755D01*
X028223Y014853D02*
X027787Y014853D01*
X027787Y014952D02*
X028322Y014952D01*
X028420Y015050D02*
X027787Y015050D01*
X027787Y015149D02*
X028519Y015149D01*
X028733Y014853D02*
X029554Y014853D01*
X029554Y014755D02*
X028634Y014755D01*
X028599Y014656D02*
X028536Y014656D01*
X028534Y014558D02*
X028437Y014558D01*
X028534Y014459D02*
X028339Y014459D01*
X028240Y014361D02*
X028534Y014361D01*
X028534Y014262D02*
X028205Y014262D01*
X028205Y014164D02*
X028538Y014164D01*
X028534Y013868D02*
X028123Y013868D01*
X028205Y013967D02*
X029432Y013967D01*
X029279Y013868D02*
X029266Y013868D01*
X029262Y014164D02*
X029632Y014164D01*
X029730Y014065D02*
X028205Y014065D01*
X028025Y014025D02*
X028025Y014400D01*
X028900Y015275D01*
X028900Y017150D01*
X029400Y017650D01*
X031900Y017650D01*
X031672Y017414D02*
X029419Y017414D01*
X029320Y017316D02*
X029956Y017316D01*
X029890Y017217D02*
X029492Y017217D01*
X029645Y017119D02*
X029890Y017119D01*
X030276Y016900D02*
X029400Y016900D01*
X029095Y017020D02*
X029080Y017020D01*
X029123Y017119D02*
X029155Y017119D01*
X029222Y017217D02*
X029308Y017217D01*
X029008Y017513D02*
X028167Y017513D01*
X028204Y017476D02*
X025777Y019902D01*
X027292Y021417D01*
X027596Y021112D01*
X027717Y021062D01*
X030361Y021062D01*
X030369Y021065D01*
X030901Y021065D01*
X030977Y021141D01*
X030977Y021643D01*
X030901Y021719D01*
X030369Y021719D01*
X030361Y021722D01*
X027920Y021722D01*
X027758Y021883D01*
X029150Y023275D01*
X029150Y023895D01*
X029325Y023720D01*
X031369Y023720D01*
X031372Y023714D01*
X031464Y023622D01*
X031585Y023572D01*
X031715Y023572D01*
X031836Y023622D01*
X031928Y023714D01*
X031931Y023720D01*
X032141Y023720D01*
X032141Y023433D01*
X032217Y023357D01*
X032727Y023357D01*
X032345Y022975D01*
X032345Y022850D01*
X032305Y022809D01*
X032266Y022809D01*
X032266Y022841D01*
X032190Y022917D01*
X031610Y022917D01*
X031534Y022841D01*
X031534Y022418D01*
X031610Y022342D01*
X032190Y022342D01*
X032266Y022418D01*
X032266Y022449D01*
X032346Y022449D01*
X032450Y022345D01*
X032567Y022228D01*
X032460Y022228D01*
X032339Y022178D01*
X032266Y022105D01*
X032266Y022132D01*
X032190Y022208D01*
X031610Y022208D01*
X031534Y022132D01*
X031534Y021709D01*
X031610Y021633D01*
X032190Y021633D01*
X032259Y021702D01*
X032339Y021622D01*
X032440Y021580D01*
X032325Y021580D01*
X031845Y021100D01*
X031845Y021035D01*
X031676Y021035D01*
X031600Y020959D01*
X031600Y020339D01*
X031664Y020275D01*
X031600Y020211D01*
X031600Y019591D01*
X031676Y019515D01*
X032374Y019515D01*
X032450Y019591D01*
X032450Y019721D01*
X032476Y019721D01*
X032704Y019949D01*
X032710Y019947D01*
X032840Y019947D01*
X032961Y019997D01*
X033053Y020089D01*
X033103Y020210D01*
X033103Y020340D01*
X033053Y020461D01*
X032961Y020553D01*
X032840Y020603D01*
X032710Y020603D01*
X032589Y020553D01*
X032497Y020461D01*
X032450Y020348D01*
X032450Y020959D01*
X032374Y021035D01*
X032289Y021035D01*
X032475Y021220D01*
X033121Y021220D01*
X033120Y021215D01*
X033120Y020950D01*
X033476Y020950D01*
X033476Y021345D01*
X033475Y021345D01*
X033705Y021575D01*
X033705Y021975D01*
X033600Y022080D01*
X033440Y022239D01*
X033373Y022239D01*
X033373Y022566D01*
X033304Y022634D01*
X033304Y022689D01*
X033334Y022659D01*
X033757Y022659D01*
X033833Y022735D01*
X033833Y023315D01*
X033792Y023357D01*
X033980Y023357D01*
X033977Y023353D01*
X033957Y023319D01*
X033947Y023281D01*
X033947Y023054D01*
X034226Y023054D01*
X034226Y022996D01*
X034283Y022996D01*
X034283Y022639D01*
X034432Y022639D01*
X034470Y022649D01*
X034504Y022669D01*
X034532Y022697D01*
X034552Y022731D01*
X034562Y022769D01*
X034562Y022996D01*
X034283Y022996D01*
X034283Y023054D01*
X034562Y023054D01*
X034562Y023281D01*
X034552Y023319D01*
X034532Y023353D01*
X034504Y023381D01*
X034470Y023401D01*
X034432Y023411D01*
X034387Y023411D01*
X034409Y023433D01*
X034409Y024367D01*
X034333Y024443D01*
X033635Y024443D01*
X033558Y024367D01*
X033558Y024080D01*
X033450Y024080D01*
X032992Y023621D01*
X032992Y024367D01*
X032915Y024443D01*
X032217Y024443D01*
X032141Y024367D01*
X032141Y024080D01*
X031931Y024080D01*
X031928Y024086D01*
X031836Y024178D01*
X031715Y024228D01*
X031585Y024228D01*
X031464Y024178D01*
X031372Y024086D01*
X031369Y024080D01*
X029475Y024080D01*
X029150Y024405D01*
X029150Y028470D01*
X029350Y028470D01*
X029455Y028575D01*
X029455Y028575D01*
X029516Y028637D01*
X029522Y028634D01*
X029653Y028634D01*
X029773Y028684D01*
X029866Y028777D01*
X029891Y028838D01*
X029891Y028808D01*
X029967Y028732D01*
X030477Y028732D01*
X030450Y028705D01*
X030345Y028600D01*
X030345Y027850D01*
X030307Y027812D01*
X030292Y027811D01*
X030219Y027811D01*
X030218Y027810D01*
X030169Y027809D01*
X030141Y027809D01*
X030141Y027841D01*
X030065Y027917D01*
X029485Y027917D01*
X029409Y027841D01*
X029409Y027418D01*
X029485Y027342D01*
X030065Y027342D01*
X030141Y027418D01*
X030141Y027449D01*
X030172Y027449D01*
X030245Y027449D01*
X030246Y027451D01*
X030295Y027451D01*
X030626Y027451D01*
X030626Y027381D01*
X030471Y027226D01*
X030465Y027228D01*
X030335Y027228D01*
X030214Y027178D01*
X030141Y027105D01*
X030141Y027132D01*
X030065Y027208D01*
X029485Y027208D01*
X029409Y027132D01*
X029409Y026709D01*
X029485Y026633D01*
X030065Y026633D01*
X030134Y026702D01*
X030214Y026622D01*
X030335Y026572D01*
X030465Y026572D01*
X030586Y026622D01*
X030678Y026714D01*
X030728Y026835D01*
X030728Y026852D01*
X031046Y026852D01*
X031123Y026928D01*
X031123Y026963D01*
X031214Y026872D01*
X031335Y026822D01*
X031465Y026822D01*
X031586Y026872D01*
X031678Y026964D01*
X031728Y027085D01*
X031728Y027215D01*
X031678Y027336D01*
X031586Y027428D01*
X031503Y027463D01*
X031586Y027497D01*
X031678Y027589D01*
X031728Y027710D01*
X031728Y027840D01*
X031678Y027961D01*
X031586Y028053D01*
X031544Y028071D01*
X031583Y028110D01*
X031583Y028690D01*
X031542Y028732D01*
X031730Y028732D01*
X031727Y028728D01*
X031707Y028694D01*
X031697Y028656D01*
X031697Y028429D01*
X031976Y028429D01*
X031976Y028371D01*
X032033Y028371D01*
X032033Y028014D01*
X032182Y028014D01*
X032220Y028024D01*
X032254Y028044D01*
X032282Y028072D01*
X032302Y028106D01*
X032312Y028144D01*
X032312Y028371D01*
X032033Y028371D01*
X032033Y028429D01*
X032312Y028429D01*
X032312Y028656D01*
X032302Y028694D01*
X032282Y028728D01*
X032254Y028756D01*
X032220Y028776D01*
X032182Y028786D01*
X032137Y028786D01*
X032159Y028808D01*
X032159Y029742D01*
X032083Y029818D01*
X031385Y029818D01*
X031308Y029742D01*
X031308Y029455D01*
X031200Y029455D01*
X030742Y028996D01*
X030742Y029742D01*
X030665Y029818D01*
X029967Y029818D01*
X029891Y029742D01*
X029891Y029455D01*
X029825Y029455D01*
X029659Y029288D01*
X029653Y029291D01*
X029522Y029291D01*
X029402Y029241D01*
X029309Y029148D01*
X029259Y029028D01*
X029259Y028897D01*
X029262Y028891D01*
X029200Y028830D01*
X029150Y028830D01*
X029150Y031325D01*
X037819Y031325D01*
X037725Y031300D01*
X037475Y031155D01*
X037270Y030950D01*
X037125Y030700D01*
X037050Y030420D01*
X037050Y030130D01*
X037125Y029850D01*
X037270Y029600D01*
X037475Y029395D01*
X037725Y029250D01*
X038005Y029175D01*
X038295Y029175D01*
X038575Y029250D01*
X038825Y029395D01*
X039030Y029600D01*
X039175Y029850D01*
X039250Y030130D01*
X039250Y030420D01*
X039175Y030700D01*
X039030Y030950D01*
X038825Y031155D01*
X038575Y031300D01*
X038481Y031325D01*
X039700Y031325D01*
X039701Y000725D01*
X038481Y000725D01*
X038575Y000750D01*
X038825Y000895D01*
X039030Y001100D01*
X039175Y001350D01*
X039250Y001630D01*
X039250Y001920D01*
X039175Y002200D01*
X039030Y002450D01*
X038825Y002655D01*
X038575Y002800D01*
X038295Y002875D01*
X038005Y002875D01*
X037725Y002800D01*
X037475Y002655D01*
X037270Y002450D01*
X037125Y002200D01*
X037050Y001920D01*
X037050Y001630D01*
X037125Y001350D01*
X037270Y001100D01*
X037475Y000895D01*
X037725Y000750D01*
X037819Y000725D01*
X030025Y000725D01*
X030025Y002391D01*
X030062Y002391D01*
X030294Y002487D01*
X030472Y002665D01*
X030568Y002897D01*
X030568Y004153D01*
X030472Y004385D01*
X030340Y004517D01*
X030340Y004696D01*
X030729Y005085D01*
X034691Y005085D01*
X034571Y004965D01*
X033571Y004965D01*
X033460Y004854D01*
X033240Y004634D01*
X033180Y004659D01*
X032929Y004659D01*
X032697Y004563D01*
X032519Y004385D01*
X032423Y004153D01*
X032423Y002897D01*
X032519Y002665D01*
X032697Y002487D01*
X032929Y002391D01*
X033180Y002391D01*
X033413Y002487D01*
X033590Y002665D01*
X033686Y002897D01*
X033686Y004153D01*
X033590Y004385D01*
X033559Y004416D01*
X033729Y004585D01*
X034276Y004585D01*
X034251Y004570D01*
X034183Y004518D01*
X034122Y004458D01*
X034070Y004390D01*
X034028Y004316D01*
X033995Y004237D01*
X033973Y004154D01*
X033962Y004070D01*
X033962Y003575D01*
X034564Y003575D01*
X034564Y003475D01*
X034664Y003475D01*
X034664Y003575D01*
X035266Y003575D01*
X035266Y004070D01*
X035254Y004154D01*
X035232Y004237D01*
X035200Y004316D01*
X035157Y004390D01*
X035105Y004458D01*
X035044Y004518D01*
X034977Y004570D01*
X034903Y004613D01*
X034824Y004646D01*
X034797Y004653D01*
X035729Y005585D01*
X035840Y005696D01*
X035840Y010354D01*
X035490Y010704D01*
X035490Y011666D01*
X035571Y011585D01*
X035571Y011585D01*
X035960Y011196D01*
X036071Y011085D01*
X037356Y011085D01*
X037223Y010952D01*
X037223Y010598D01*
X037473Y010348D01*
X037827Y010348D01*
X038077Y010598D01*
X038077Y010952D01*
X037944Y011085D01*
X038229Y011085D01*
X038340Y011196D01*
X038340Y011210D01*
X038478Y011348D01*
X038827Y011348D01*
X039077Y011598D01*
X039077Y011952D01*
X038827Y012202D01*
X038473Y012202D01*
X038223Y011952D01*
X038223Y011603D01*
X038085Y011465D01*
X037944Y011465D01*
X038077Y011598D01*
X038077Y011952D01*
X037934Y012095D01*
X038225Y012095D01*
X038366Y012095D01*
X038323Y012194D02*
X038465Y012194D01*
X038422Y012292D02*
X039701Y012292D01*
X039701Y012194D02*
X038835Y012194D01*
X038934Y012095D02*
X039701Y012095D01*
X039701Y011997D02*
X039032Y011997D01*
X039077Y011898D02*
X039701Y011898D01*
X039701Y011800D02*
X039077Y011800D01*
X039077Y011701D02*
X039701Y011701D01*
X039701Y011603D02*
X039077Y011603D01*
X038983Y011504D02*
X039701Y011504D01*
X039701Y011406D02*
X038884Y011406D01*
X038827Y011202D02*
X038473Y011202D01*
X038223Y010952D01*
X038223Y010598D01*
X038473Y010348D01*
X038827Y010348D01*
X039077Y010598D01*
X039077Y010952D01*
X038827Y011202D01*
X038919Y011110D02*
X039701Y011110D01*
X039701Y011012D02*
X039017Y011012D01*
X039077Y010913D02*
X039701Y010913D01*
X039701Y010815D02*
X039077Y010815D01*
X039077Y010716D02*
X039701Y010716D01*
X039701Y010618D02*
X039077Y010618D01*
X038998Y010519D02*
X039701Y010519D01*
X039701Y010421D02*
X038899Y010421D01*
X038827Y010202D02*
X038473Y010202D01*
X038223Y009952D01*
X038223Y009598D01*
X038473Y009348D01*
X038827Y009348D01*
X039077Y009598D01*
X039077Y009952D01*
X038827Y010202D01*
X038904Y010125D02*
X039701Y010125D01*
X039701Y010027D02*
X039002Y010027D01*
X039077Y009928D02*
X039701Y009928D01*
X039701Y009830D02*
X039077Y009830D01*
X039077Y009731D02*
X039701Y009731D01*
X039701Y009633D02*
X039077Y009633D01*
X039013Y009534D02*
X039701Y009534D01*
X039701Y009436D02*
X038914Y009436D01*
X038827Y009202D02*
X038473Y009202D01*
X038223Y008952D01*
X038223Y008598D01*
X038473Y008348D01*
X038827Y008348D01*
X039077Y008598D01*
X039077Y008952D01*
X038827Y009202D01*
X038889Y009140D02*
X039701Y009140D01*
X039701Y009042D02*
X038987Y009042D01*
X039077Y008943D02*
X039701Y008943D01*
X039701Y008845D02*
X039077Y008845D01*
X039077Y008746D02*
X039701Y008746D01*
X039701Y008648D02*
X039077Y008648D01*
X039028Y008549D02*
X039701Y008549D01*
X039701Y008451D02*
X038929Y008451D01*
X038831Y008352D02*
X039701Y008352D01*
X039701Y008254D02*
X035840Y008254D01*
X035840Y008352D02*
X037469Y008352D01*
X037473Y008348D02*
X037827Y008348D01*
X038077Y008598D01*
X038077Y008952D01*
X037827Y009202D01*
X037473Y009202D01*
X037223Y008952D01*
X037223Y008598D01*
X037473Y008348D01*
X037371Y008451D02*
X035840Y008451D01*
X035840Y008549D02*
X037272Y008549D01*
X037223Y008648D02*
X035840Y008648D01*
X035840Y008746D02*
X037223Y008746D01*
X037223Y008845D02*
X035840Y008845D01*
X035840Y008943D02*
X037223Y008943D01*
X037313Y009042D02*
X035840Y009042D01*
X035840Y009140D02*
X037411Y009140D01*
X037473Y009348D02*
X037827Y009348D01*
X038077Y009598D01*
X038077Y009952D01*
X037827Y010202D01*
X037473Y010202D01*
X037223Y009952D01*
X037223Y009598D01*
X037473Y009348D01*
X037386Y009436D02*
X035840Y009436D01*
X035840Y009534D02*
X037287Y009534D01*
X037223Y009633D02*
X035840Y009633D01*
X035840Y009731D02*
X037223Y009731D01*
X037223Y009830D02*
X035840Y009830D01*
X035840Y009928D02*
X037223Y009928D01*
X037298Y010027D02*
X035840Y010027D01*
X035840Y010125D02*
X037396Y010125D01*
X037401Y010421D02*
X035773Y010421D01*
X035840Y010322D02*
X039701Y010322D01*
X039701Y010224D02*
X035840Y010224D01*
X035675Y010519D02*
X037302Y010519D01*
X037223Y010618D02*
X035576Y010618D01*
X035490Y010716D02*
X037223Y010716D01*
X037223Y010815D02*
X035490Y010815D01*
X035490Y010913D02*
X037223Y010913D01*
X037283Y011012D02*
X035490Y011012D01*
X035490Y011110D02*
X036046Y011110D01*
X035948Y011209D02*
X035490Y011209D01*
X035490Y011307D02*
X035849Y011307D01*
X035751Y011406D02*
X035490Y011406D01*
X035490Y011504D02*
X035652Y011504D01*
X035554Y011603D02*
X035490Y011603D01*
X035840Y011854D02*
X035840Y014354D01*
X035225Y014969D01*
X035114Y015080D01*
X034996Y015080D01*
X034996Y015239D01*
X034920Y015315D01*
X033985Y015315D01*
X033941Y015270D01*
X033878Y015270D01*
X033878Y015390D01*
X033802Y015466D01*
X033612Y015466D01*
X033612Y015627D01*
X033712Y015627D01*
X033788Y015703D01*
X033788Y016126D01*
X033712Y016202D01*
X033132Y016202D01*
X033056Y016126D01*
X033056Y015703D01*
X033132Y015627D01*
X033232Y015627D01*
X033232Y015466D01*
X033104Y015466D01*
X033027Y015390D01*
X033027Y014771D01*
X033092Y014706D01*
X033027Y014642D01*
X033027Y014023D01*
X033104Y013946D01*
X033263Y013946D01*
X033263Y013810D01*
X033076Y013810D01*
X033000Y013734D01*
X033000Y013114D01*
X033064Y013050D01*
X033000Y012986D01*
X033000Y012366D01*
X033076Y012290D01*
X033235Y012290D01*
X033235Y011959D01*
X033229Y011965D01*
X033215Y011965D01*
X033030Y012150D01*
X032930Y012250D01*
X032830Y012350D01*
X032780Y012400D01*
X032780Y019040D01*
X033815Y019895D01*
X035075Y019895D01*
X035180Y020000D01*
X035525Y020345D01*
X035630Y020450D01*
X035630Y025315D01*
X035643Y025329D01*
X035637Y025486D01*
X034907Y026162D01*
X034854Y026215D01*
X034849Y026215D01*
X034846Y026218D01*
X034771Y026215D01*
X033979Y026215D01*
X033840Y026354D01*
X033840Y026696D01*
X034229Y027085D01*
X037356Y027085D01*
X037223Y026952D01*
X037223Y026598D01*
X037473Y026348D01*
X037827Y026348D01*
X038077Y026598D01*
X038077Y026952D01*
X037944Y027085D01*
X038071Y027085D01*
X038223Y026933D01*
X038223Y026598D01*
X038473Y026348D01*
X038827Y026348D01*
X039077Y026598D01*
X039077Y026952D01*
X038827Y027202D01*
X038492Y027202D01*
X038340Y027354D01*
X038229Y027465D01*
X037944Y027465D01*
X038077Y027598D01*
X038077Y027952D01*
X037827Y028202D01*
X037473Y028202D01*
X037223Y027952D01*
X037223Y027598D01*
X037356Y027465D01*
X034071Y027465D01*
X033571Y026965D01*
X033460Y026854D01*
X033460Y026365D01*
X033440Y026365D01*
X033205Y026600D01*
X033205Y027100D01*
X033103Y027202D01*
X033211Y027247D01*
X033303Y027339D01*
X033353Y027460D01*
X033353Y027590D01*
X033303Y027711D01*
X033211Y027803D01*
X033090Y027853D01*
X032960Y027853D01*
X032855Y027810D01*
X032855Y027941D01*
X032810Y027986D01*
X032836Y027997D01*
X032928Y028089D01*
X032978Y028210D01*
X032978Y028340D01*
X032928Y028461D01*
X032836Y028553D01*
X032715Y028603D01*
X032585Y028603D01*
X032464Y028553D01*
X032372Y028461D01*
X032322Y028340D01*
X032322Y028210D01*
X032372Y028089D01*
X032427Y028034D01*
X032427Y028009D01*
X032359Y027941D01*
X032359Y027765D01*
X032349Y027748D01*
X032339Y027710D01*
X032339Y027631D01*
X032339Y027552D01*
X032349Y027514D01*
X032359Y027497D01*
X032359Y026928D01*
X032427Y026860D01*
X032427Y026556D01*
X032410Y026539D01*
X032410Y026624D01*
X032334Y026700D01*
X031714Y026700D01*
X031661Y026647D01*
X031652Y026662D01*
X031624Y026690D01*
X031590Y026710D01*
X031552Y026720D01*
X031326Y026720D01*
X031326Y026325D01*
X031226Y026325D01*
X031226Y026720D01*
X031000Y026720D01*
X030962Y026710D01*
X030928Y026690D01*
X030900Y026662D01*
X030880Y026628D01*
X030870Y026590D01*
X030870Y026325D01*
X031226Y026325D01*
X031226Y026225D01*
X031326Y026225D01*
X031326Y025830D01*
X031552Y025830D01*
X031590Y025840D01*
X031624Y025860D01*
X031652Y025888D01*
X031661Y025903D01*
X031714Y025850D01*
X032334Y025850D01*
X032410Y025926D01*
X032410Y026095D01*
X032475Y026095D01*
X032580Y026200D01*
X032787Y026407D01*
X032787Y026860D01*
X032845Y026918D01*
X032845Y026450D01*
X032950Y026345D01*
X032950Y026345D01*
X033345Y025950D01*
X033450Y025845D01*
X033561Y025845D01*
X033571Y025835D01*
X033729Y025835D01*
X033739Y025845D01*
X033811Y025845D01*
X033821Y025835D01*
X034701Y025835D01*
X035270Y025308D01*
X035270Y021910D01*
X035225Y021955D01*
X035137Y022043D01*
X035105Y022043D01*
X035105Y022122D01*
X035115Y022139D01*
X035125Y022177D01*
X035125Y022256D01*
X034857Y022256D01*
X034857Y022256D01*
X035125Y022256D01*
X035125Y022335D01*
X035115Y022373D01*
X035105Y022390D01*
X035105Y022566D01*
X035037Y022634D01*
X035037Y024643D01*
X034580Y025100D01*
X034475Y025205D01*
X034410Y025205D01*
X034410Y025374D01*
X034334Y025450D01*
X033714Y025450D01*
X033650Y025386D01*
X033586Y025450D01*
X032966Y025450D01*
X032890Y025374D01*
X032890Y025205D01*
X032806Y025205D01*
X032803Y025211D01*
X032711Y025303D01*
X032590Y025353D01*
X032460Y025353D01*
X032339Y025303D01*
X032247Y025211D01*
X032197Y025090D01*
X032197Y024960D01*
X032247Y024839D01*
X032339Y024747D01*
X032460Y024697D01*
X032590Y024697D01*
X032711Y024747D01*
X032803Y024839D01*
X032806Y024845D01*
X032890Y024845D01*
X032890Y024676D01*
X032966Y024600D01*
X033586Y024600D01*
X033650Y024664D01*
X033714Y024600D01*
X034334Y024600D01*
X034410Y024676D01*
X034410Y024761D01*
X034677Y024494D01*
X034677Y022634D01*
X034609Y022566D01*
X034609Y022390D01*
X034599Y022373D01*
X034589Y022335D01*
X034589Y022256D01*
X034589Y022218D01*
X034346Y021976D01*
X034340Y021978D01*
X034210Y021978D01*
X034089Y021928D01*
X033997Y021836D01*
X033947Y021715D01*
X033947Y021585D01*
X033997Y021464D01*
X034089Y021372D01*
X034202Y021325D01*
X033964Y021325D01*
X033911Y021272D01*
X033902Y021287D01*
X033874Y021315D01*
X033840Y021335D01*
X033802Y021345D01*
X033576Y021345D01*
X033576Y020950D01*
X033476Y020950D01*
X033476Y020850D01*
X033576Y020850D01*
X033576Y020455D01*
X033575Y020455D01*
X033528Y020408D01*
X032334Y019405D01*
X032300Y019405D01*
X032195Y019300D01*
X032195Y017795D01*
X032178Y017836D01*
X032086Y017928D01*
X031965Y017978D01*
X031835Y017978D01*
X031714Y017928D01*
X031622Y017836D01*
X031619Y017830D01*
X029325Y017830D01*
X029220Y017725D01*
X028720Y017225D01*
X028720Y016264D01*
X028665Y016318D01*
X028496Y016318D01*
X028496Y016907D01*
X028553Y016964D01*
X028603Y017085D01*
X028603Y017215D01*
X028553Y017336D01*
X028461Y017428D01*
X028340Y017478D01*
X028210Y017478D01*
X028204Y017476D01*
X028069Y017611D02*
X029106Y017611D01*
X029205Y017710D02*
X027970Y017710D01*
X027872Y017808D02*
X029303Y017808D01*
X028909Y017414D02*
X028475Y017414D01*
X028562Y017316D02*
X028811Y017316D01*
X028720Y017217D02*
X028602Y017217D01*
X028603Y017119D02*
X028720Y017119D01*
X028720Y017020D02*
X028576Y017020D01*
X028511Y016922D02*
X028720Y016922D01*
X028720Y016823D02*
X028496Y016823D01*
X028496Y016725D02*
X028720Y016725D01*
X028720Y016626D02*
X028496Y016626D01*
X028496Y016528D02*
X028720Y016528D01*
X028720Y016429D02*
X028496Y016429D01*
X028496Y016331D02*
X028720Y016331D01*
X029080Y016331D02*
X031677Y016331D01*
X031677Y016232D02*
X030159Y016232D01*
X030159Y016134D02*
X031677Y016134D01*
X031677Y016035D02*
X030729Y016035D01*
X030813Y015937D02*
X031677Y015937D01*
X031677Y015838D02*
X030853Y015838D01*
X030853Y015740D02*
X031677Y015740D01*
X031677Y015641D02*
X030825Y015641D01*
X030757Y015543D02*
X031677Y015543D01*
X031677Y015444D02*
X030705Y015444D01*
X030705Y015346D02*
X031677Y015346D01*
X031677Y015247D02*
X031513Y015247D01*
X031504Y015256D02*
X031470Y015276D01*
X031432Y015286D01*
X031283Y015286D01*
X031283Y014929D01*
X031226Y014929D01*
X031226Y015286D01*
X031077Y015286D01*
X031039Y015276D01*
X031005Y015256D01*
X030977Y015228D01*
X030957Y015194D01*
X030947Y015156D01*
X030947Y014929D01*
X031226Y014929D01*
X031226Y014871D01*
X031283Y014871D01*
X031283Y014514D01*
X031432Y014514D01*
X031470Y014524D01*
X031504Y014544D01*
X031532Y014572D01*
X031552Y014606D01*
X031562Y014644D01*
X031562Y014871D01*
X031283Y014871D01*
X031283Y014929D01*
X031562Y014929D01*
X031562Y015156D01*
X031552Y015194D01*
X031532Y015228D01*
X031504Y015256D01*
X031562Y015149D02*
X031677Y015149D01*
X031677Y015050D02*
X031562Y015050D01*
X031562Y014952D02*
X031677Y014952D01*
X031677Y014853D02*
X031562Y014853D01*
X031562Y014755D02*
X031677Y014755D01*
X031677Y014656D02*
X031562Y014656D01*
X031518Y014558D02*
X031677Y014558D01*
X031627Y014459D02*
X030355Y014459D01*
X030373Y014361D02*
X031609Y014361D01*
X031607Y014262D02*
X030373Y014262D01*
X030373Y014164D02*
X031589Y014164D01*
X031589Y014131D02*
X031857Y014131D01*
X031857Y014131D01*
X031857Y014328D02*
X031857Y016443D01*
X031400Y016900D01*
X031025Y016900D01*
X031410Y017119D02*
X032195Y017119D01*
X032195Y017217D02*
X031410Y017217D01*
X031344Y017316D02*
X032195Y017316D01*
X032195Y017414D02*
X032128Y017414D01*
X032190Y017808D02*
X032195Y017808D01*
X032195Y017907D02*
X032107Y017907D01*
X032195Y018005D02*
X027675Y018005D01*
X027773Y017907D02*
X031693Y017907D01*
X032195Y018104D02*
X027576Y018104D01*
X027478Y018202D02*
X032195Y018202D01*
X032195Y018301D02*
X027379Y018301D01*
X027281Y018399D02*
X032195Y018399D01*
X032195Y018498D02*
X027182Y018498D01*
X027084Y018596D02*
X032195Y018596D01*
X032195Y018695D02*
X026985Y018695D01*
X026887Y018793D02*
X032195Y018793D01*
X032195Y018892D02*
X026788Y018892D01*
X026690Y018990D02*
X032195Y018990D01*
X032195Y019089D02*
X026591Y019089D01*
X026493Y019187D02*
X032195Y019187D01*
X032195Y019286D02*
X026394Y019286D01*
X026296Y019384D02*
X032279Y019384D01*
X032427Y019483D02*
X026197Y019483D01*
X026099Y019581D02*
X031610Y019581D01*
X031600Y019680D02*
X026000Y019680D01*
X025902Y019778D02*
X031600Y019778D01*
X031600Y019877D02*
X025803Y019877D01*
X025850Y019975D02*
X031600Y019975D01*
X031600Y020074D02*
X025949Y020074D01*
X026047Y020172D02*
X031600Y020172D01*
X031660Y020271D02*
X026146Y020271D01*
X026244Y020369D02*
X031600Y020369D01*
X031600Y020468D02*
X026343Y020468D01*
X026441Y020566D02*
X031600Y020566D01*
X031600Y020665D02*
X026540Y020665D01*
X026638Y020763D02*
X031600Y020763D01*
X031600Y020862D02*
X026737Y020862D01*
X026835Y020960D02*
X031601Y020960D01*
X031845Y021059D02*
X026934Y021059D01*
X027032Y021157D02*
X027551Y021157D01*
X027453Y021256D02*
X027131Y021256D01*
X027229Y021354D02*
X027354Y021354D01*
X027795Y021847D02*
X031534Y021847D01*
X031534Y021945D02*
X027820Y021945D01*
X027919Y022044D02*
X031534Y022044D01*
X031544Y022142D02*
X028017Y022142D01*
X028116Y022241D02*
X032555Y022241D01*
X032456Y022339D02*
X028214Y022339D01*
X028313Y022438D02*
X031534Y022438D01*
X031534Y022536D02*
X028411Y022536D01*
X028510Y022635D02*
X031534Y022635D01*
X031534Y022733D02*
X028608Y022733D01*
X028707Y022832D02*
X031534Y022832D01*
X031900Y022629D02*
X032421Y022629D01*
X032504Y022629D01*
X032525Y022650D01*
X032525Y022775D01*
X032400Y022650D01*
X032421Y022629D02*
X032525Y022525D01*
X032525Y022650D01*
X032525Y022525D02*
X032794Y022256D01*
X033124Y022256D01*
X033124Y022059D02*
X033366Y022059D01*
X033525Y021900D01*
X033525Y021650D01*
X033275Y021400D01*
X032400Y021400D01*
X032025Y021025D01*
X032025Y020649D01*
X032450Y020665D02*
X033120Y020665D01*
X033120Y020585D02*
X033130Y020547D01*
X033150Y020513D01*
X033178Y020485D01*
X033212Y020465D01*
X033250Y020455D01*
X033476Y020455D01*
X033476Y020850D01*
X033120Y020850D01*
X033120Y020585D01*
X033125Y020566D02*
X032930Y020566D01*
X033046Y020468D02*
X033208Y020468D01*
X033091Y020369D02*
X033482Y020369D01*
X033476Y020468D02*
X033576Y020468D01*
X033576Y020566D02*
X033476Y020566D01*
X033476Y020665D02*
X033576Y020665D01*
X033576Y020763D02*
X033476Y020763D01*
X033476Y020862D02*
X032450Y020862D01*
X032449Y020960D02*
X033120Y020960D01*
X033120Y021059D02*
X032313Y021059D01*
X032412Y021157D02*
X033120Y021157D01*
X033476Y021157D02*
X033576Y021157D01*
X033576Y021059D02*
X033476Y021059D01*
X033476Y020960D02*
X033576Y020960D01*
X033525Y020900D02*
X033525Y021275D01*
X033775Y021525D01*
X033775Y021774D01*
X034275Y022275D01*
X034294Y022256D01*
X034857Y022256D01*
X034589Y022256D01*
X034857Y022256D01*
X034857Y022256D01*
X034857Y022059D02*
X034684Y022059D01*
X034275Y021650D01*
X033947Y021650D02*
X033705Y021650D01*
X033705Y021748D02*
X033960Y021748D01*
X034008Y021847D02*
X033705Y021847D01*
X033705Y021945D02*
X034130Y021945D01*
X034414Y022044D02*
X033636Y022044D01*
X033538Y022142D02*
X034512Y022142D01*
X034589Y022241D02*
X033373Y022241D01*
X033373Y022339D02*
X034590Y022339D01*
X034609Y022438D02*
X033373Y022438D01*
X033373Y022536D02*
X034609Y022536D01*
X034677Y022635D02*
X033304Y022635D01*
X033124Y022801D02*
X033025Y022900D01*
X033150Y023025D01*
X033525Y023025D01*
X033833Y023029D02*
X034226Y023029D01*
X034226Y022996D02*
X033947Y022996D01*
X033947Y022769D01*
X033957Y022731D01*
X033977Y022697D01*
X034005Y022669D01*
X034039Y022649D01*
X034077Y022639D01*
X034226Y022639D01*
X034226Y022996D01*
X034283Y023029D02*
X034677Y023029D01*
X034677Y023127D02*
X034562Y023127D01*
X034562Y023226D02*
X034677Y023226D01*
X034677Y023324D02*
X034549Y023324D01*
X034677Y023423D02*
X034399Y023423D01*
X034409Y023521D02*
X034677Y023521D01*
X034677Y023620D02*
X034409Y023620D01*
X034409Y023718D02*
X034677Y023718D01*
X034677Y023817D02*
X034409Y023817D01*
X034409Y023915D02*
X034677Y023915D01*
X034677Y024014D02*
X034409Y024014D01*
X034409Y024112D02*
X034677Y024112D01*
X034677Y024211D02*
X034409Y024211D01*
X034409Y024309D02*
X034677Y024309D01*
X034677Y024408D02*
X034369Y024408D01*
X034339Y024605D02*
X034566Y024605D01*
X034467Y024703D02*
X034410Y024703D01*
X034664Y024506D02*
X029150Y024506D01*
X029150Y024408D02*
X032181Y024408D01*
X032141Y024309D02*
X029245Y024309D01*
X029344Y024211D02*
X031542Y024211D01*
X031398Y024112D02*
X029442Y024112D01*
X029400Y023900D02*
X028775Y024525D01*
X028525Y024525D01*
X028400Y024400D01*
X028275Y024525D02*
X028150Y024400D01*
X028275Y024525D02*
X028525Y024525D01*
X028400Y024650D01*
X029150Y024605D02*
X032961Y024605D01*
X032890Y024703D02*
X032605Y024703D01*
X032445Y024703D02*
X029150Y024703D01*
X029150Y024802D02*
X032284Y024802D01*
X032222Y024900D02*
X029150Y024900D01*
X029150Y024999D02*
X032197Y024999D01*
X032200Y025097D02*
X029150Y025097D01*
X029150Y025196D02*
X032241Y025196D01*
X032330Y025294D02*
X029150Y025294D01*
X029150Y025393D02*
X032909Y025393D01*
X032890Y025294D02*
X032720Y025294D01*
X032525Y025025D02*
X033276Y025025D01*
X032890Y024802D02*
X032766Y024802D01*
X032951Y024408D02*
X033599Y024408D01*
X033558Y024309D02*
X032992Y024309D01*
X032992Y024211D02*
X033558Y024211D01*
X033558Y024112D02*
X032992Y024112D01*
X032992Y024014D02*
X033384Y024014D01*
X033286Y023915D02*
X032992Y023915D01*
X032992Y023817D02*
X033187Y023817D01*
X033089Y023718D02*
X032992Y023718D01*
X032566Y023900D02*
X031650Y023900D01*
X029400Y023900D01*
X029229Y023817D02*
X029150Y023817D01*
X029150Y023718D02*
X031370Y023718D01*
X031470Y023620D02*
X029150Y023620D01*
X029150Y023521D02*
X032141Y023521D01*
X032141Y023620D02*
X031830Y023620D01*
X031930Y023718D02*
X032141Y023718D01*
X032151Y023423D02*
X029150Y023423D01*
X029150Y023324D02*
X032695Y023324D01*
X032596Y023226D02*
X029101Y023226D01*
X029002Y023127D02*
X032498Y023127D01*
X032399Y023029D02*
X028904Y023029D01*
X028805Y022930D02*
X032345Y022930D01*
X032327Y022832D02*
X032266Y022832D01*
X032525Y022775D02*
X032525Y022900D01*
X033525Y023900D01*
X033984Y023900D01*
X033960Y023324D02*
X033824Y023324D01*
X033833Y023226D02*
X033947Y023226D01*
X033947Y023127D02*
X033833Y023127D01*
X033833Y022930D02*
X033947Y022930D01*
X033947Y022832D02*
X033833Y022832D01*
X033831Y022733D02*
X033956Y022733D01*
X034226Y022733D02*
X034283Y022733D01*
X034283Y022832D02*
X034226Y022832D01*
X034275Y022900D02*
X034275Y022275D01*
X034857Y022453D02*
X034857Y024568D01*
X034400Y025025D01*
X034025Y025025D01*
X034410Y025294D02*
X035270Y025294D01*
X035270Y025196D02*
X034484Y025196D01*
X034582Y025097D02*
X035270Y025097D01*
X035270Y024999D02*
X034681Y024999D01*
X034779Y024900D02*
X035270Y024900D01*
X035270Y024802D02*
X034878Y024802D01*
X034976Y024703D02*
X035270Y024703D01*
X035270Y024605D02*
X035037Y024605D01*
X035037Y024506D02*
X035270Y024506D01*
X035270Y024408D02*
X035037Y024408D01*
X035037Y024309D02*
X035270Y024309D01*
X035270Y024211D02*
X035037Y024211D01*
X035037Y024112D02*
X035270Y024112D01*
X035270Y024014D02*
X035037Y024014D01*
X035037Y023915D02*
X035270Y023915D01*
X035270Y023817D02*
X035037Y023817D01*
X035037Y023718D02*
X035270Y023718D01*
X035270Y023620D02*
X035037Y023620D01*
X035037Y023521D02*
X035270Y023521D01*
X035270Y023423D02*
X035037Y023423D01*
X035037Y023324D02*
X035270Y023324D01*
X035270Y023226D02*
X035037Y023226D01*
X035037Y023127D02*
X035270Y023127D01*
X035270Y023029D02*
X035037Y023029D01*
X035037Y022930D02*
X035270Y022930D01*
X035270Y022832D02*
X035037Y022832D01*
X035037Y022733D02*
X035270Y022733D01*
X035270Y022635D02*
X035037Y022635D01*
X035105Y022536D02*
X035270Y022536D01*
X035270Y022438D02*
X035105Y022438D01*
X035124Y022339D02*
X035270Y022339D01*
X035270Y022241D02*
X035125Y022241D01*
X035115Y022142D02*
X035270Y022142D01*
X035270Y022044D02*
X035105Y022044D01*
X035235Y021945D02*
X035270Y021945D01*
X035150Y021775D02*
X035150Y020500D01*
X034925Y020275D01*
X033650Y020275D01*
X032400Y019225D01*
X032375Y019225D01*
X032375Y011875D01*
X031275Y010775D01*
X031275Y009025D01*
X031275Y008900D01*
X031150Y008900D01*
X031275Y009025D01*
X031400Y008900D01*
X031275Y008900D01*
X031400Y008900D02*
X031775Y008525D01*
X031775Y008025D01*
X032775Y007025D01*
X033651Y007025D01*
X033265Y007269D02*
X032786Y007269D01*
X032688Y007367D02*
X033265Y007367D01*
X033106Y007466D02*
X034106Y007466D01*
X034349Y007466D02*
X034449Y007466D01*
X034449Y007367D02*
X034349Y007367D01*
X034349Y007269D02*
X034449Y007269D01*
X034449Y007170D02*
X034349Y007170D01*
X034449Y007072D02*
X035160Y007072D01*
X035160Y007170D02*
X034805Y007170D01*
X034805Y007269D02*
X035160Y007269D01*
X035160Y007367D02*
X034798Y007367D01*
X034846Y007466D02*
X034904Y007466D01*
X034904Y007564D02*
X034846Y007564D01*
X034846Y007663D02*
X034904Y007663D01*
X034846Y007761D02*
X033119Y007761D01*
X033119Y007663D02*
X034489Y007663D01*
X034497Y007564D02*
X033119Y007564D01*
X033081Y007860D02*
X034489Y007860D01*
X034489Y007799D02*
X034846Y007799D01*
X034846Y008078D01*
X034619Y008078D01*
X034581Y008068D01*
X034547Y008048D01*
X034519Y008020D01*
X034499Y007986D01*
X034489Y007948D01*
X034489Y007799D01*
X034491Y007958D02*
X033742Y007958D01*
X033896Y008057D02*
X034561Y008057D01*
X034523Y008254D02*
X033978Y008254D01*
X033973Y008352D02*
X034509Y008352D01*
X034509Y008451D02*
X033932Y008451D01*
X033955Y008155D02*
X035160Y008155D01*
X034904Y008057D02*
X034846Y008057D01*
X034846Y007958D02*
X034904Y007958D01*
X034904Y007860D02*
X034846Y007860D01*
X035140Y007466D02*
X035160Y007466D01*
X035160Y006973D02*
X034805Y006973D01*
X034805Y006875D02*
X035160Y006875D01*
X035160Y006776D02*
X034805Y006776D01*
X034796Y006678D02*
X035160Y006678D01*
X035160Y006579D02*
X034723Y006579D01*
X034801Y006481D02*
X035160Y006481D01*
X035160Y006382D02*
X034805Y006382D01*
X034805Y006284D02*
X035160Y006284D01*
X035160Y006185D02*
X034449Y006185D01*
X034399Y006150D02*
X034399Y007025D01*
X034400Y007026D01*
X034449Y006973D02*
X034349Y006973D01*
X034349Y006875D02*
X034449Y006875D01*
X034449Y006776D02*
X034349Y006776D01*
X034349Y006678D02*
X034449Y006678D01*
X034449Y006579D02*
X034349Y006579D01*
X034349Y006481D02*
X034449Y006481D01*
X034449Y006382D02*
X034349Y006382D01*
X034349Y006284D02*
X034449Y006284D01*
X034449Y006087D02*
X034349Y006087D01*
X034349Y005988D02*
X034449Y005988D01*
X034449Y005890D02*
X034349Y005890D01*
X034349Y005791D02*
X034449Y005791D01*
X034700Y005594D02*
X029127Y005594D01*
X029153Y005693D02*
X034799Y005693D01*
X034791Y005791D02*
X034897Y005791D01*
X034805Y005890D02*
X034996Y005890D01*
X035094Y005988D02*
X034805Y005988D01*
X034805Y006087D02*
X035160Y006087D01*
X035840Y006087D02*
X037358Y006087D01*
X037456Y006185D02*
X035840Y006185D01*
X035840Y006284D02*
X039701Y006284D01*
X039701Y006382D02*
X038861Y006382D01*
X038827Y006348D02*
X039077Y006598D01*
X039077Y006952D01*
X038827Y007202D01*
X038473Y007202D01*
X038223Y006952D01*
X038223Y006598D01*
X038473Y006348D01*
X038827Y006348D01*
X038827Y006202D02*
X038473Y006202D01*
X038223Y005952D01*
X038223Y005598D01*
X038473Y005348D01*
X038827Y005348D01*
X039077Y005598D01*
X039077Y005952D01*
X038827Y006202D01*
X038844Y006185D02*
X039701Y006185D01*
X039701Y006087D02*
X038942Y006087D01*
X039041Y005988D02*
X039701Y005988D01*
X039701Y005890D02*
X039077Y005890D01*
X039077Y005791D02*
X039701Y005791D01*
X039701Y005693D02*
X039077Y005693D01*
X039073Y005594D02*
X039701Y005594D01*
X039701Y005496D02*
X038974Y005496D01*
X038876Y005397D02*
X039701Y005397D01*
X039701Y005299D02*
X035442Y005299D01*
X035541Y005397D02*
X037424Y005397D01*
X037473Y005348D02*
X037223Y005598D01*
X037223Y005952D01*
X037473Y006202D01*
X037827Y006202D01*
X038077Y005952D01*
X038077Y005598D01*
X037827Y005348D01*
X037473Y005348D01*
X037473Y005202D02*
X037223Y004952D01*
X037223Y004598D01*
X037473Y004348D01*
X037827Y004348D01*
X038077Y004598D01*
X038077Y004952D01*
X037827Y005202D01*
X037473Y005202D01*
X037471Y005200D02*
X035344Y005200D01*
X035245Y005102D02*
X037373Y005102D01*
X037274Y005003D02*
X035147Y005003D01*
X035048Y004905D02*
X037223Y004905D01*
X037223Y004806D02*
X034950Y004806D01*
X034851Y004708D02*
X037223Y004708D01*
X037223Y004609D02*
X034909Y004609D01*
X035052Y004511D02*
X037311Y004511D01*
X037409Y004412D02*
X035140Y004412D01*
X035201Y004314D02*
X039701Y004314D01*
X039701Y004412D02*
X038891Y004412D01*
X038827Y004348D02*
X039077Y004598D01*
X039077Y004952D01*
X038827Y005202D01*
X038473Y005202D01*
X038223Y004952D01*
X038223Y004598D01*
X038473Y004348D01*
X038827Y004348D01*
X038827Y004202D02*
X038473Y004202D01*
X038223Y003952D01*
X038223Y003598D01*
X038473Y003348D01*
X038827Y003348D01*
X039077Y003598D01*
X039077Y003952D01*
X038827Y004202D01*
X038912Y004117D02*
X039701Y004117D01*
X039701Y004215D02*
X035238Y004215D01*
X035259Y004117D02*
X037388Y004117D01*
X037473Y004202D02*
X037223Y003952D01*
X037223Y003598D01*
X037473Y003348D01*
X037827Y003348D01*
X038077Y003598D01*
X038077Y003952D01*
X037827Y004202D01*
X037473Y004202D01*
X037289Y004018D02*
X035266Y004018D01*
X035266Y003920D02*
X037223Y003920D01*
X037223Y003821D02*
X035266Y003821D01*
X035266Y003723D02*
X037223Y003723D01*
X037223Y003624D02*
X035266Y003624D01*
X035266Y003475D02*
X034664Y003475D01*
X034664Y002372D01*
X034741Y002382D01*
X034824Y002404D01*
X034903Y002437D01*
X034977Y002480D01*
X035044Y002532D01*
X035105Y002592D01*
X035157Y002660D01*
X035200Y002734D01*
X035232Y002813D01*
X035254Y002896D01*
X035266Y002980D01*
X035266Y003475D01*
X035266Y003427D02*
X037394Y003427D01*
X037296Y003526D02*
X034664Y003526D01*
X034664Y003427D02*
X034564Y003427D01*
X034564Y003475D02*
X034564Y002372D01*
X034486Y002382D01*
X034404Y002404D01*
X034325Y002437D01*
X034251Y002480D01*
X034183Y002532D01*
X034122Y002592D01*
X034070Y002660D01*
X034028Y002734D01*
X033995Y002813D01*
X033973Y002896D01*
X033962Y002980D01*
X033962Y003475D01*
X034564Y003475D01*
X034564Y003526D02*
X033686Y003526D01*
X033686Y003624D02*
X033962Y003624D01*
X033962Y003723D02*
X033686Y003723D01*
X033686Y003821D02*
X033962Y003821D01*
X033962Y003920D02*
X033686Y003920D01*
X033686Y004018D02*
X033962Y004018D01*
X033968Y004117D02*
X033686Y004117D01*
X033661Y004215D02*
X033989Y004215D01*
X034027Y004314D02*
X033620Y004314D01*
X033563Y004412D02*
X034087Y004412D01*
X034175Y004511D02*
X033654Y004511D01*
X033412Y004806D02*
X030450Y004806D01*
X030548Y004905D02*
X033511Y004905D01*
X033314Y004708D02*
X030351Y004708D01*
X030340Y004609D02*
X031200Y004609D01*
X031206Y004613D02*
X031132Y004570D01*
X031065Y004518D01*
X031004Y004458D01*
X030952Y004390D01*
X030909Y004316D01*
X030877Y004237D01*
X030855Y004154D01*
X030844Y004070D01*
X030844Y003575D01*
X031445Y003575D01*
X031445Y003475D01*
X030844Y003475D01*
X030844Y002980D01*
X030855Y002896D01*
X030877Y002813D01*
X030909Y002734D01*
X030952Y002660D01*
X031004Y002592D01*
X031065Y002532D01*
X031132Y002480D01*
X031206Y002437D01*
X031285Y002404D01*
X031368Y002382D01*
X031445Y002372D01*
X031445Y003475D01*
X031545Y003475D01*
X031545Y002372D01*
X031623Y002382D01*
X031705Y002404D01*
X031784Y002437D01*
X031858Y002480D01*
X031926Y002532D01*
X031987Y002592D01*
X032039Y002660D01*
X032081Y002734D01*
X032114Y002813D01*
X032136Y002896D01*
X032147Y002980D01*
X032147Y003475D01*
X031545Y003475D01*
X031545Y003575D01*
X031445Y003575D01*
X031445Y004678D01*
X031368Y004668D01*
X031285Y004646D01*
X031206Y004613D01*
X031057Y004511D02*
X030347Y004511D01*
X030445Y004412D02*
X030969Y004412D01*
X030908Y004314D02*
X030502Y004314D01*
X030543Y004215D02*
X030871Y004215D01*
X030850Y004117D02*
X030568Y004117D01*
X030568Y004018D02*
X030844Y004018D01*
X030844Y003920D02*
X030568Y003920D01*
X030568Y003821D02*
X030844Y003821D01*
X030844Y003723D02*
X030568Y003723D01*
X030568Y003624D02*
X030844Y003624D01*
X030844Y003427D02*
X030568Y003427D01*
X030568Y003329D02*
X030844Y003329D01*
X030844Y003230D02*
X030568Y003230D01*
X030568Y003132D02*
X030844Y003132D01*
X030844Y003033D02*
X030568Y003033D01*
X030568Y002935D02*
X030850Y002935D01*
X030871Y002836D02*
X030543Y002836D01*
X030502Y002738D02*
X030908Y002738D01*
X030968Y002639D02*
X030446Y002639D01*
X030348Y002541D02*
X031056Y002541D01*
X031198Y002442D02*
X030185Y002442D01*
X030025Y002344D02*
X037208Y002344D01*
X037265Y002442D02*
X034911Y002442D01*
X035053Y002541D02*
X037360Y002541D01*
X037458Y002639D02*
X035141Y002639D01*
X035201Y002738D02*
X037617Y002738D01*
X037860Y002836D02*
X035238Y002836D01*
X035260Y002935D02*
X039701Y002935D01*
X039701Y003033D02*
X035266Y003033D01*
X035266Y003132D02*
X039701Y003132D01*
X039701Y003230D02*
X035266Y003230D01*
X035266Y003329D02*
X039701Y003329D01*
X039701Y003427D02*
X038906Y003427D01*
X039004Y003526D02*
X039701Y003526D01*
X039701Y003624D02*
X039077Y003624D01*
X039077Y003723D02*
X039701Y003723D01*
X039701Y003821D02*
X039077Y003821D01*
X039077Y003920D02*
X039701Y003920D01*
X039701Y004018D02*
X039011Y004018D01*
X038388Y004117D02*
X037912Y004117D01*
X038011Y004018D02*
X038289Y004018D01*
X038223Y003920D02*
X038077Y003920D01*
X038077Y003821D02*
X038223Y003821D01*
X038223Y003723D02*
X038077Y003723D01*
X038077Y003624D02*
X038223Y003624D01*
X038296Y003526D02*
X038004Y003526D01*
X037906Y003427D02*
X038394Y003427D01*
X038440Y002836D02*
X039701Y002836D01*
X039701Y002738D02*
X038683Y002738D01*
X038842Y002639D02*
X039701Y002639D01*
X039701Y002541D02*
X038940Y002541D01*
X039035Y002442D02*
X039701Y002442D01*
X039701Y002344D02*
X039092Y002344D01*
X039149Y002245D02*
X039701Y002245D01*
X039701Y002147D02*
X039189Y002147D01*
X039216Y002048D02*
X039701Y002048D01*
X039701Y001950D02*
X039242Y001950D01*
X039250Y001851D02*
X039701Y001851D01*
X039701Y001753D02*
X039250Y001753D01*
X039250Y001654D02*
X039701Y001654D01*
X039701Y001556D02*
X039230Y001556D01*
X039204Y001457D02*
X039701Y001457D01*
X039701Y001359D02*
X039177Y001359D01*
X039123Y001260D02*
X039701Y001260D01*
X039701Y001162D02*
X039066Y001162D01*
X038994Y001063D02*
X039701Y001063D01*
X039701Y000965D02*
X038895Y000965D01*
X038776Y000866D02*
X039701Y000866D01*
X039701Y000768D02*
X038605Y000768D01*
X037695Y000768D02*
X030025Y000768D01*
X030025Y000866D02*
X037524Y000866D01*
X037405Y000965D02*
X030025Y000965D01*
X030025Y001063D02*
X037306Y001063D01*
X037234Y001162D02*
X030025Y001162D01*
X030025Y001260D02*
X037177Y001260D01*
X037123Y001359D02*
X030025Y001359D01*
X030025Y001457D02*
X037096Y001457D01*
X037070Y001556D02*
X030025Y001556D01*
X030025Y001654D02*
X037050Y001654D01*
X037050Y001753D02*
X030025Y001753D01*
X030025Y001851D02*
X037050Y001851D01*
X037058Y001950D02*
X030025Y001950D01*
X030025Y002048D02*
X037084Y002048D01*
X037111Y002147D02*
X030025Y002147D01*
X030025Y002245D02*
X037151Y002245D01*
X037891Y004412D02*
X038409Y004412D01*
X038311Y004511D02*
X037989Y004511D01*
X038077Y004609D02*
X038223Y004609D01*
X038223Y004708D02*
X038077Y004708D01*
X038077Y004806D02*
X038223Y004806D01*
X038223Y004905D02*
X038077Y004905D01*
X038026Y005003D02*
X038274Y005003D01*
X038373Y005102D02*
X037927Y005102D01*
X037829Y005200D02*
X038471Y005200D01*
X038424Y005397D02*
X037876Y005397D01*
X037974Y005496D02*
X038326Y005496D01*
X038227Y005594D02*
X038073Y005594D01*
X038077Y005693D02*
X038223Y005693D01*
X038223Y005791D02*
X038077Y005791D01*
X038077Y005890D02*
X038223Y005890D01*
X038259Y005988D02*
X038041Y005988D01*
X037942Y006087D02*
X038358Y006087D01*
X038456Y006185D02*
X037844Y006185D01*
X037827Y006348D02*
X038077Y006598D01*
X038077Y006952D01*
X037827Y007202D01*
X037473Y007202D01*
X037223Y006952D01*
X037223Y006598D01*
X037473Y006348D01*
X037827Y006348D01*
X037861Y006382D02*
X038439Y006382D01*
X038341Y006481D02*
X037959Y006481D01*
X038058Y006579D02*
X038242Y006579D01*
X038223Y006678D02*
X038077Y006678D01*
X038077Y006776D02*
X038223Y006776D01*
X038223Y006875D02*
X038077Y006875D01*
X038056Y006973D02*
X038244Y006973D01*
X038343Y007072D02*
X037957Y007072D01*
X037859Y007170D02*
X038441Y007170D01*
X038473Y007348D02*
X038223Y007598D01*
X038223Y007952D01*
X038473Y008202D01*
X038827Y008202D01*
X039077Y007952D01*
X039077Y007598D01*
X038827Y007348D01*
X038473Y007348D01*
X038454Y007367D02*
X037846Y007367D01*
X037827Y007348D02*
X038077Y007598D01*
X038077Y007952D01*
X037827Y008202D01*
X037473Y008202D01*
X037223Y007952D01*
X037223Y007598D01*
X037473Y007348D01*
X037827Y007348D01*
X037944Y007466D02*
X038356Y007466D01*
X038257Y007564D02*
X038043Y007564D01*
X038077Y007663D02*
X038223Y007663D01*
X038223Y007761D02*
X038077Y007761D01*
X038077Y007860D02*
X038223Y007860D01*
X038229Y007958D02*
X038071Y007958D01*
X037972Y008057D02*
X038328Y008057D01*
X038426Y008155D02*
X037874Y008155D01*
X037831Y008352D02*
X038469Y008352D01*
X038371Y008451D02*
X037929Y008451D01*
X038028Y008549D02*
X038272Y008549D01*
X038223Y008648D02*
X038077Y008648D01*
X038077Y008746D02*
X038223Y008746D01*
X038223Y008845D02*
X038077Y008845D01*
X038077Y008943D02*
X038223Y008943D01*
X038313Y009042D02*
X037987Y009042D01*
X037889Y009140D02*
X038411Y009140D01*
X038386Y009436D02*
X037914Y009436D01*
X038013Y009534D02*
X038287Y009534D01*
X038223Y009633D02*
X038077Y009633D01*
X038077Y009731D02*
X038223Y009731D01*
X038223Y009830D02*
X038077Y009830D01*
X038077Y009928D02*
X038223Y009928D01*
X038298Y010027D02*
X038002Y010027D01*
X037904Y010125D02*
X038396Y010125D01*
X038401Y010421D02*
X037899Y010421D01*
X037998Y010519D02*
X038302Y010519D01*
X038223Y010618D02*
X038077Y010618D01*
X038077Y010716D02*
X038223Y010716D01*
X038223Y010815D02*
X038077Y010815D01*
X038077Y010913D02*
X038223Y010913D01*
X038283Y011012D02*
X038017Y011012D01*
X038254Y011110D02*
X038381Y011110D01*
X038340Y011209D02*
X039701Y011209D01*
X039701Y011307D02*
X038437Y011307D01*
X038150Y011275D02*
X038650Y011775D01*
X038223Y011800D02*
X038077Y011800D01*
X038077Y011898D02*
X038223Y011898D01*
X038268Y011997D02*
X038032Y011997D01*
X038225Y012095D02*
X038478Y012348D01*
X038827Y012348D01*
X039077Y012598D01*
X039077Y012952D01*
X038827Y013202D01*
X038473Y013202D01*
X038223Y012952D01*
X038223Y012603D01*
X038075Y012455D01*
X037934Y012455D01*
X038077Y012598D01*
X038077Y012952D01*
X037944Y013085D01*
X038229Y013085D01*
X038492Y013348D01*
X038827Y013348D01*
X039077Y013598D01*
X039077Y013952D01*
X038827Y014202D01*
X038473Y014202D01*
X038223Y013952D01*
X038223Y013617D01*
X038071Y013465D01*
X037944Y013465D01*
X038077Y013598D01*
X038077Y013952D01*
X037944Y014085D01*
X038229Y014085D01*
X038340Y014196D01*
X038340Y014196D01*
X038492Y014348D01*
X038827Y014348D01*
X039077Y014598D01*
X039077Y014952D01*
X038827Y015202D01*
X038473Y015202D01*
X038223Y014952D01*
X038223Y014617D01*
X038071Y014465D01*
X037944Y014465D01*
X038077Y014598D01*
X038077Y014952D01*
X037827Y015202D01*
X037473Y015202D01*
X037223Y014952D01*
X037223Y014598D01*
X037356Y014465D01*
X037324Y014465D01*
X037236Y014553D01*
X037115Y014603D01*
X036985Y014603D01*
X036864Y014553D01*
X036772Y014461D01*
X036722Y014340D01*
X036722Y014210D01*
X036772Y014089D01*
X036864Y013997D01*
X036985Y013947D01*
X037115Y013947D01*
X037236Y013997D01*
X037324Y014085D01*
X037356Y014085D01*
X037223Y013952D01*
X037223Y013598D01*
X037356Y013465D01*
X037324Y013465D01*
X037236Y013553D01*
X037115Y013603D01*
X036985Y013603D01*
X036864Y013553D01*
X036772Y013461D01*
X036722Y013340D01*
X036722Y013210D01*
X036772Y013089D01*
X036864Y012997D01*
X036985Y012947D01*
X037115Y012947D01*
X037236Y012997D01*
X037324Y013085D01*
X037356Y013085D01*
X037223Y012952D01*
X037223Y012598D01*
X037366Y012455D01*
X036725Y012455D01*
X036330Y012850D01*
X036330Y014517D01*
X036413Y014599D01*
X036460Y014713D01*
X036460Y014837D01*
X036413Y014951D01*
X036326Y015038D01*
X036212Y015085D01*
X036088Y015085D01*
X035974Y015038D01*
X035887Y014951D01*
X035840Y014837D01*
X035840Y014713D01*
X035887Y014599D01*
X035970Y014517D01*
X035970Y012700D01*
X036470Y012200D01*
X036575Y012095D01*
X035840Y012095D01*
X035840Y011997D02*
X037268Y011997D01*
X037223Y011952D02*
X037223Y011598D01*
X037356Y011465D01*
X036229Y011465D01*
X035840Y011854D01*
X035840Y011898D02*
X037223Y011898D01*
X037223Y011952D02*
X037366Y012095D01*
X036575Y012095D01*
X036477Y012194D02*
X035840Y012194D01*
X035840Y012292D02*
X036378Y012292D01*
X036280Y012391D02*
X035840Y012391D01*
X035840Y012489D02*
X036181Y012489D01*
X036083Y012588D02*
X035840Y012588D01*
X035840Y012686D02*
X035984Y012686D01*
X035970Y012785D02*
X035840Y012785D01*
X035840Y012883D02*
X035970Y012883D01*
X035970Y012982D02*
X035840Y012982D01*
X035840Y013080D02*
X035970Y013080D01*
X035970Y013179D02*
X035840Y013179D01*
X035840Y013277D02*
X035970Y013277D01*
X035970Y013376D02*
X035840Y013376D01*
X035840Y013474D02*
X035970Y013474D01*
X035970Y013573D02*
X035840Y013573D01*
X035840Y013671D02*
X035970Y013671D01*
X035970Y013770D02*
X035840Y013770D01*
X035840Y013868D02*
X035970Y013868D01*
X035970Y013967D02*
X035840Y013967D01*
X035840Y014065D02*
X035970Y014065D01*
X035970Y014164D02*
X035840Y014164D01*
X035840Y014262D02*
X035970Y014262D01*
X035970Y014361D02*
X035833Y014361D01*
X035735Y014459D02*
X035970Y014459D01*
X035929Y014558D02*
X035636Y014558D01*
X035538Y014656D02*
X035864Y014656D01*
X035840Y014755D02*
X035439Y014755D01*
X035341Y014853D02*
X035847Y014853D01*
X035888Y014952D02*
X035242Y014952D01*
X035144Y015050D02*
X036004Y015050D01*
X036296Y015050D02*
X036587Y015050D01*
X036624Y015012D02*
X036537Y015099D01*
X036490Y015213D01*
X036490Y015337D01*
X036514Y015395D01*
X034175Y015395D01*
X033975Y015595D01*
X033870Y015700D01*
X033870Y019017D01*
X033787Y019099D01*
X033740Y019213D01*
X033740Y019337D01*
X033787Y019451D01*
X033874Y019538D01*
X033988Y019585D01*
X034112Y019585D01*
X034226Y019538D01*
X034313Y019451D01*
X034360Y019337D01*
X034360Y019213D01*
X034313Y019099D01*
X034230Y019017D01*
X034230Y015850D01*
X034325Y015755D01*
X036375Y015755D01*
X037075Y016455D01*
X037366Y016455D01*
X037223Y016598D01*
X037223Y016952D01*
X037366Y017095D01*
X036230Y017095D01*
X035697Y016503D01*
X035750Y016374D01*
X035750Y016176D01*
X035674Y015992D01*
X035533Y015851D01*
X035349Y015775D01*
X035151Y015775D01*
X034967Y015851D01*
X034826Y015992D01*
X034750Y016176D01*
X034750Y016374D01*
X034826Y016558D01*
X034967Y016699D01*
X035151Y016775D01*
X035349Y016775D01*
X035428Y016742D01*
X035522Y016847D01*
X035349Y016775D01*
X035151Y016775D01*
X034967Y016851D01*
X034826Y016992D01*
X034750Y017176D01*
X034750Y017374D01*
X034826Y017558D01*
X034967Y017699D01*
X035151Y017775D01*
X035349Y017775D01*
X035428Y017742D01*
X035522Y017847D01*
X035349Y017775D01*
X035151Y017775D01*
X034967Y017851D01*
X034826Y017992D01*
X034750Y018176D01*
X034750Y018374D01*
X034826Y018558D01*
X034967Y018699D01*
X035151Y018775D01*
X035349Y018775D01*
X035428Y018742D01*
X035458Y018775D01*
X034826Y018775D01*
X034750Y018851D01*
X034750Y019699D01*
X034826Y019775D01*
X035458Y019775D01*
X035970Y020344D01*
X035970Y020350D01*
X036019Y020399D01*
X036066Y020451D01*
X036072Y020451D01*
X036075Y020455D01*
X036145Y020455D01*
X036215Y020459D01*
X036219Y020455D01*
X037366Y020455D01*
X037223Y020598D01*
X037223Y020952D01*
X037473Y021202D01*
X037827Y021202D01*
X038077Y020952D01*
X038077Y020598D01*
X037934Y020455D01*
X038075Y020455D01*
X038223Y020603D01*
X038223Y020952D01*
X038473Y021202D01*
X038827Y021202D01*
X039077Y020952D01*
X039077Y020598D01*
X038827Y020348D01*
X038478Y020348D01*
X038330Y020200D01*
X038225Y020095D01*
X037934Y020095D01*
X038077Y019952D01*
X038077Y019598D01*
X037934Y019455D01*
X038075Y019455D01*
X038223Y019603D01*
X038223Y019952D01*
X038473Y020202D01*
X038827Y020202D01*
X039077Y019952D01*
X039077Y019598D01*
X038827Y019348D01*
X038478Y019348D01*
X038330Y019200D01*
X038225Y019095D01*
X037934Y019095D01*
X038077Y018952D01*
X038077Y018598D01*
X037934Y018455D01*
X038075Y018455D01*
X038223Y018603D01*
X038223Y018952D01*
X038473Y019202D01*
X038827Y019202D01*
X039077Y018952D01*
X039077Y018598D01*
X038827Y018348D01*
X038478Y018348D01*
X038330Y018200D01*
X038225Y018095D01*
X037934Y018095D01*
X038077Y017952D01*
X038077Y017598D01*
X037934Y017455D01*
X038075Y017455D01*
X038223Y017603D01*
X038223Y017952D01*
X038473Y018202D01*
X038827Y018202D01*
X039077Y017952D01*
X039077Y017598D01*
X038827Y017348D01*
X038478Y017348D01*
X038330Y017200D01*
X038225Y017095D01*
X037934Y017095D01*
X038077Y016952D01*
X038077Y016598D01*
X037934Y016455D01*
X038225Y016455D01*
X038330Y016350D01*
X038478Y016202D01*
X038827Y016202D01*
X039077Y015952D01*
X039077Y015598D01*
X038827Y015348D01*
X038473Y015348D01*
X038223Y015598D01*
X038223Y015947D01*
X038075Y016095D01*
X037934Y016095D01*
X038077Y015952D01*
X038077Y015598D01*
X037827Y015348D01*
X037473Y015348D01*
X037223Y015598D01*
X037223Y015952D01*
X037366Y016095D01*
X037225Y016095D01*
X036698Y015568D01*
X036738Y015585D01*
X036862Y015585D01*
X036976Y015538D01*
X037063Y015451D01*
X037110Y015337D01*
X037110Y015213D01*
X037063Y015099D01*
X036976Y015012D01*
X036862Y014965D01*
X036738Y014965D01*
X036624Y015012D01*
X036517Y015149D02*
X034996Y015149D01*
X034988Y015247D02*
X036490Y015247D01*
X036494Y015346D02*
X033878Y015346D01*
X033824Y015444D02*
X034126Y015444D01*
X034028Y015543D02*
X033612Y015543D01*
X033726Y015641D02*
X033929Y015641D01*
X033870Y015740D02*
X033788Y015740D01*
X033788Y015838D02*
X033870Y015838D01*
X033870Y015937D02*
X033788Y015937D01*
X033788Y016035D02*
X033870Y016035D01*
X033870Y016134D02*
X033781Y016134D01*
X033870Y016232D02*
X032780Y016232D01*
X032780Y016134D02*
X033064Y016134D01*
X033056Y016035D02*
X032780Y016035D01*
X032780Y015937D02*
X033056Y015937D01*
X033056Y015838D02*
X032780Y015838D01*
X032780Y015740D02*
X033056Y015740D01*
X033118Y015641D02*
X032780Y015641D01*
X032780Y015543D02*
X033232Y015543D01*
X033081Y015444D02*
X032780Y015444D01*
X032780Y015346D02*
X033027Y015346D01*
X033027Y015247D02*
X032780Y015247D01*
X032780Y015149D02*
X033027Y015149D01*
X033027Y015050D02*
X032780Y015050D01*
X032780Y014952D02*
X033027Y014952D01*
X033027Y014853D02*
X032780Y014853D01*
X032780Y014755D02*
X033043Y014755D01*
X033041Y014656D02*
X032780Y014656D01*
X032780Y014558D02*
X033027Y014558D01*
X033027Y014459D02*
X032780Y014459D01*
X032780Y014361D02*
X033027Y014361D01*
X033027Y014262D02*
X032780Y014262D01*
X032780Y014164D02*
X033027Y014164D01*
X033027Y014065D02*
X032780Y014065D01*
X032780Y013967D02*
X033083Y013967D01*
X033035Y013770D02*
X032780Y013770D01*
X032780Y013868D02*
X033263Y013868D01*
X033000Y013671D02*
X032780Y013671D01*
X032780Y013573D02*
X033000Y013573D01*
X033000Y013474D02*
X032780Y013474D01*
X032780Y013376D02*
X033000Y013376D01*
X033000Y013277D02*
X032780Y013277D01*
X032780Y013179D02*
X033000Y013179D01*
X033034Y013080D02*
X032780Y013080D01*
X032780Y012982D02*
X033000Y012982D01*
X033000Y012883D02*
X032780Y012883D01*
X032780Y012785D02*
X033000Y012785D01*
X033000Y012686D02*
X032780Y012686D01*
X032780Y012588D02*
X033000Y012588D01*
X033000Y012489D02*
X032780Y012489D01*
X032789Y012391D02*
X033000Y012391D01*
X033074Y012292D02*
X032888Y012292D01*
X032986Y012194D02*
X033235Y012194D01*
X033235Y012095D02*
X033085Y012095D01*
X033030Y012150D02*
X033030Y012150D01*
X032950Y011975D02*
X032750Y011975D01*
X032750Y012175D01*
X032650Y012275D01*
X032600Y012275D01*
X032800Y012075D01*
X032850Y012075D02*
X032750Y012175D01*
X032650Y012275D02*
X032600Y012325D01*
X032600Y012275D01*
X032600Y012325D02*
X032600Y019125D01*
X033750Y020075D01*
X035000Y020075D01*
X035450Y020525D01*
X035450Y025400D01*
X035640Y025393D02*
X037429Y025393D01*
X037473Y025348D02*
X037223Y025598D01*
X037223Y025952D01*
X037473Y026202D01*
X037827Y026202D01*
X038077Y025952D01*
X038077Y025598D01*
X037827Y025348D01*
X037473Y025348D01*
X037473Y025202D02*
X037223Y024952D01*
X037223Y024598D01*
X037473Y024348D01*
X037827Y024348D01*
X038077Y024598D01*
X038077Y024952D01*
X037827Y025202D01*
X037473Y025202D01*
X037467Y025196D02*
X035630Y025196D01*
X035630Y025294D02*
X039700Y025294D01*
X039700Y025196D02*
X038833Y025196D01*
X038827Y025202D02*
X038473Y025202D01*
X038223Y024952D01*
X038223Y024598D01*
X038473Y024348D01*
X038827Y024348D01*
X039077Y024598D01*
X039077Y024952D01*
X038827Y025202D01*
X038827Y025348D02*
X038473Y025348D01*
X038223Y025598D01*
X038223Y025952D01*
X038473Y026202D01*
X038827Y026202D01*
X039077Y025952D01*
X039077Y025598D01*
X038827Y025348D01*
X038871Y025393D02*
X039700Y025393D01*
X039700Y025491D02*
X038970Y025491D01*
X039068Y025590D02*
X039700Y025590D01*
X039700Y025688D02*
X039077Y025688D01*
X039077Y025787D02*
X039700Y025787D01*
X039700Y025885D02*
X039077Y025885D01*
X039045Y025984D02*
X039700Y025984D01*
X039700Y026082D02*
X038947Y026082D01*
X038848Y026181D02*
X039700Y026181D01*
X039700Y026279D02*
X033915Y026279D01*
X033840Y026378D02*
X037444Y026378D01*
X037345Y026476D02*
X033840Y026476D01*
X033840Y026575D02*
X037247Y026575D01*
X037223Y026673D02*
X033840Y026673D01*
X033915Y026772D02*
X037223Y026772D01*
X037223Y026870D02*
X034014Y026870D01*
X034112Y026969D02*
X037240Y026969D01*
X037338Y027067D02*
X034211Y027067D01*
X033969Y027363D02*
X033313Y027363D01*
X033353Y027461D02*
X034067Y027461D01*
X033870Y027264D02*
X033228Y027264D01*
X033139Y027166D02*
X033772Y027166D01*
X033673Y027067D02*
X033205Y027067D01*
X033205Y026969D02*
X033575Y026969D01*
X033476Y026870D02*
X033205Y026870D01*
X033205Y026772D02*
X033460Y026772D01*
X033460Y026673D02*
X033205Y026673D01*
X033230Y026575D02*
X033460Y026575D01*
X033460Y026476D02*
X033328Y026476D01*
X033427Y026378D02*
X033460Y026378D01*
X033525Y026025D02*
X033025Y026525D01*
X033025Y027025D01*
X032812Y027238D01*
X032607Y027238D01*
X032607Y027434D02*
X032991Y027434D01*
X033025Y027525D01*
X033257Y027757D02*
X037223Y027757D01*
X037223Y027855D02*
X032855Y027855D01*
X032842Y027954D02*
X037225Y027954D01*
X037323Y028052D02*
X032891Y028052D01*
X032954Y028151D02*
X037422Y028151D01*
X037878Y028151D02*
X038394Y028151D01*
X038465Y028222D02*
X038203Y027960D01*
X038203Y027823D01*
X038602Y027823D01*
X038602Y027727D01*
X038203Y027727D01*
X038203Y027590D01*
X038465Y027328D01*
X038602Y027328D01*
X038602Y027727D01*
X038698Y027727D01*
X038698Y027823D01*
X038602Y027823D01*
X038602Y028222D01*
X038465Y028222D01*
X038602Y028151D02*
X038698Y028151D01*
X038698Y028222D02*
X038698Y027823D01*
X039097Y027823D01*
X039097Y027960D01*
X038835Y028222D01*
X038698Y028222D01*
X038698Y028052D02*
X038602Y028052D01*
X038602Y027954D02*
X038698Y027954D01*
X038698Y027855D02*
X038602Y027855D01*
X038602Y027757D02*
X038077Y027757D01*
X038077Y027855D02*
X038203Y027855D01*
X038203Y027954D02*
X038075Y027954D01*
X037977Y028052D02*
X038295Y028052D01*
X038203Y027658D02*
X038077Y027658D01*
X038038Y027560D02*
X038233Y027560D01*
X038233Y027461D02*
X038332Y027461D01*
X038331Y027363D02*
X038430Y027363D01*
X038430Y027264D02*
X039700Y027264D01*
X039700Y027166D02*
X038863Y027166D01*
X038962Y027067D02*
X039700Y027067D01*
X039700Y026969D02*
X039060Y026969D01*
X039077Y026870D02*
X039700Y026870D01*
X039700Y026772D02*
X039077Y026772D01*
X039077Y026673D02*
X039700Y026673D01*
X039700Y026575D02*
X039053Y026575D01*
X038955Y026476D02*
X039700Y026476D01*
X039700Y026378D02*
X038856Y026378D01*
X038444Y026378D02*
X037856Y026378D01*
X037955Y026476D02*
X038345Y026476D01*
X038247Y026575D02*
X038053Y026575D01*
X038077Y026673D02*
X038223Y026673D01*
X038223Y026772D02*
X038077Y026772D01*
X038077Y026870D02*
X038223Y026870D01*
X038188Y026969D02*
X038060Y026969D01*
X038089Y027067D02*
X037962Y027067D01*
X038602Y027363D02*
X038698Y027363D01*
X038698Y027328D02*
X038835Y027328D01*
X039097Y027590D01*
X039097Y027727D01*
X038698Y027727D01*
X038698Y027328D01*
X038698Y027461D02*
X038602Y027461D01*
X038602Y027560D02*
X038698Y027560D01*
X038698Y027658D02*
X038602Y027658D01*
X038698Y027757D02*
X039700Y027757D01*
X039700Y027855D02*
X039097Y027855D01*
X039097Y027954D02*
X039700Y027954D01*
X039700Y028052D02*
X039005Y028052D01*
X038906Y028151D02*
X039700Y028151D01*
X039700Y028249D02*
X032978Y028249D01*
X032975Y028348D02*
X039700Y028348D01*
X039700Y028446D02*
X032934Y028446D01*
X032844Y028545D02*
X039700Y028545D01*
X039700Y028643D02*
X032312Y028643D01*
X032312Y028545D02*
X032456Y028545D01*
X032366Y028446D02*
X032312Y028446D01*
X032312Y028348D02*
X032325Y028348D01*
X032312Y028249D02*
X032322Y028249D01*
X032312Y028151D02*
X032346Y028151D01*
X032409Y028052D02*
X032262Y028052D01*
X032371Y027954D02*
X031681Y027954D01*
X031722Y027855D02*
X032359Y027855D01*
X032354Y027757D02*
X031728Y027757D01*
X031707Y027658D02*
X032339Y027658D01*
X032339Y027631D02*
X032607Y027631D01*
X032044Y027631D01*
X032025Y027650D01*
X032025Y027150D01*
X031276Y026401D01*
X031276Y026275D01*
X031226Y026279D02*
X029150Y026279D01*
X029150Y026181D02*
X030870Y026181D01*
X030870Y026225D02*
X030870Y025960D01*
X030880Y025922D01*
X030900Y025888D01*
X030928Y025860D01*
X030962Y025840D01*
X031000Y025830D01*
X031226Y025830D01*
X031226Y026225D01*
X030870Y026225D01*
X030870Y026082D02*
X029150Y026082D01*
X029150Y025984D02*
X030870Y025984D01*
X030903Y025885D02*
X029150Y025885D01*
X029150Y025787D02*
X034753Y025787D01*
X034859Y025688D02*
X029150Y025688D01*
X029150Y025590D02*
X034966Y025590D01*
X035072Y025491D02*
X029150Y025491D01*
X029150Y026378D02*
X030870Y026378D01*
X030870Y026476D02*
X029150Y026476D01*
X029150Y026575D02*
X030328Y026575D01*
X030472Y026575D02*
X030870Y026575D01*
X030911Y026673D02*
X030637Y026673D01*
X030702Y026772D02*
X032427Y026772D01*
X032416Y026870D02*
X031582Y026870D01*
X031680Y026969D02*
X032359Y026969D01*
X032359Y027067D02*
X031721Y027067D01*
X031728Y027166D02*
X032359Y027166D01*
X032359Y027264D02*
X031708Y027264D01*
X031651Y027363D02*
X032359Y027363D01*
X032359Y027461D02*
X031506Y027461D01*
X031649Y027560D02*
X032339Y027560D01*
X032339Y027631D02*
X032607Y027631D01*
X032607Y027631D01*
X032607Y027828D02*
X032607Y028232D01*
X032650Y028275D01*
X032033Y028249D02*
X031976Y028249D01*
X031976Y028151D02*
X032033Y028151D01*
X032033Y028052D02*
X031976Y028052D01*
X031976Y028014D02*
X031976Y028371D01*
X031697Y028371D01*
X031697Y028144D01*
X031707Y028106D01*
X031727Y028072D01*
X031755Y028044D01*
X031789Y028024D01*
X031827Y028014D01*
X031976Y028014D01*
X031746Y028052D02*
X031587Y028052D01*
X031583Y028151D02*
X031697Y028151D01*
X031697Y028249D02*
X031583Y028249D01*
X031583Y028348D02*
X031697Y028348D01*
X031697Y028446D02*
X031583Y028446D01*
X031583Y028545D02*
X031697Y028545D01*
X031697Y028643D02*
X031583Y028643D01*
X031296Y028400D02*
X031275Y028400D01*
X031275Y027900D01*
X031400Y027775D01*
X030874Y027828D02*
X030874Y028249D01*
X031025Y028400D01*
X031275Y028400D01*
X031976Y028348D02*
X032033Y028348D01*
X032004Y028400D02*
X032004Y027671D01*
X032025Y027650D01*
X031400Y027150D02*
X031116Y027434D01*
X030874Y027434D01*
X030874Y027238D02*
X030738Y027238D01*
X030400Y026900D01*
X030379Y026921D01*
X029775Y026921D01*
X029409Y026969D02*
X029150Y026969D01*
X029150Y027067D02*
X029409Y027067D01*
X029442Y027166D02*
X029150Y027166D01*
X029150Y027264D02*
X030510Y027264D01*
X030608Y027363D02*
X030086Y027363D01*
X030108Y027166D02*
X030202Y027166D01*
X030171Y027629D02*
X029775Y027629D01*
X029409Y027658D02*
X029150Y027658D01*
X029150Y027560D02*
X029409Y027560D01*
X029409Y027461D02*
X029150Y027461D01*
X029150Y027363D02*
X029464Y027363D01*
X029409Y027757D02*
X029150Y027757D01*
X029150Y027855D02*
X029423Y027855D01*
X029150Y027954D02*
X030345Y027954D01*
X030345Y028052D02*
X029150Y028052D01*
X029150Y028151D02*
X030345Y028151D01*
X030345Y028249D02*
X029150Y028249D01*
X029150Y028348D02*
X030345Y028348D01*
X030345Y028446D02*
X029150Y028446D01*
X029275Y028650D02*
X029588Y028963D01*
X029900Y029275D01*
X030316Y029275D01*
X030742Y029234D02*
X030980Y029234D01*
X031078Y029333D02*
X030742Y029333D01*
X030742Y029431D02*
X031177Y029431D01*
X031308Y029530D02*
X030742Y029530D01*
X030742Y029628D02*
X031308Y029628D01*
X031308Y029727D02*
X030742Y029727D01*
X030742Y029136D02*
X030881Y029136D01*
X030783Y029037D02*
X030742Y029037D01*
X030389Y028643D02*
X029674Y028643D01*
X029831Y028742D02*
X029957Y028742D01*
X030345Y028545D02*
X029424Y028545D01*
X029275Y028650D02*
X029025Y028650D01*
X028775Y028400D01*
X028775Y028525D01*
X028900Y028650D01*
X029025Y028650D01*
X028775Y028900D01*
X028775Y028775D01*
X028900Y028650D01*
X027978Y028650D01*
X029150Y028840D02*
X029211Y028840D01*
X029259Y028939D02*
X029150Y028939D01*
X029150Y029037D02*
X029263Y029037D01*
X029304Y029136D02*
X029150Y029136D01*
X029150Y029234D02*
X029395Y029234D01*
X029150Y029333D02*
X029703Y029333D01*
X029802Y029431D02*
X029150Y029431D01*
X029150Y029530D02*
X029891Y029530D01*
X029891Y029628D02*
X029150Y029628D01*
X029150Y029727D02*
X029891Y029727D01*
X029150Y029825D02*
X037140Y029825D01*
X037105Y029924D02*
X029150Y029924D01*
X029150Y030022D02*
X037079Y030022D01*
X037053Y030121D02*
X029150Y030121D01*
X029150Y030219D02*
X037050Y030219D01*
X037050Y030318D02*
X029150Y030318D01*
X029150Y030416D02*
X037050Y030416D01*
X037075Y030515D02*
X029150Y030515D01*
X029150Y030613D02*
X037102Y030613D01*
X037132Y030712D02*
X029150Y030712D01*
X029150Y030810D02*
X037189Y030810D01*
X037246Y030909D02*
X029150Y030909D01*
X029150Y031007D02*
X037326Y031007D01*
X037425Y031106D02*
X029150Y031106D01*
X029150Y031204D02*
X037559Y031204D01*
X037735Y031303D02*
X029150Y031303D01*
X026775Y029525D02*
X026775Y028275D01*
X026025Y028275D01*
X026025Y029525D01*
X026775Y029525D01*
X026775Y029431D02*
X026025Y029431D01*
X026025Y029333D02*
X026775Y029333D01*
X026775Y029234D02*
X026025Y029234D01*
X026025Y029136D02*
X026775Y029136D01*
X026775Y029037D02*
X026025Y029037D01*
X026025Y028939D02*
X026775Y028939D01*
X026775Y028840D02*
X026025Y028840D01*
X026025Y028742D02*
X026775Y028742D01*
X026775Y028643D02*
X026025Y028643D01*
X026025Y028545D02*
X026775Y028545D01*
X026775Y028446D02*
X026025Y028446D01*
X026025Y028348D02*
X026775Y028348D01*
X026482Y027900D02*
X026482Y027693D01*
X026900Y027275D01*
X026900Y026900D01*
X026151Y026900D02*
X025400Y026900D01*
X024525Y027232D02*
X024525Y026275D01*
X024900Y025900D01*
X025276Y025900D01*
X026024Y025900D02*
X026900Y025900D01*
X029150Y026673D02*
X029445Y026673D01*
X029409Y026772D02*
X029150Y026772D01*
X029150Y026870D02*
X029409Y026870D01*
X030105Y026673D02*
X030163Y026673D01*
X031065Y026870D02*
X031218Y026870D01*
X031226Y026673D02*
X031326Y026673D01*
X031326Y026575D02*
X031226Y026575D01*
X031226Y026476D02*
X031326Y026476D01*
X031326Y026378D02*
X031226Y026378D01*
X031226Y026181D02*
X031326Y026181D01*
X031326Y026082D02*
X031226Y026082D01*
X031226Y025984D02*
X031326Y025984D01*
X031326Y025885D02*
X031226Y025885D01*
X031649Y025885D02*
X031679Y025885D01*
X032025Y026275D02*
X032400Y026275D01*
X032607Y026482D01*
X032607Y027041D01*
X032797Y026870D02*
X032845Y026870D01*
X032845Y026772D02*
X032787Y026772D01*
X032787Y026673D02*
X032845Y026673D01*
X032845Y026575D02*
X032787Y026575D01*
X032787Y026476D02*
X032845Y026476D01*
X032918Y026378D02*
X032757Y026378D01*
X032659Y026279D02*
X033016Y026279D01*
X033115Y026181D02*
X032560Y026181D01*
X032410Y026082D02*
X033213Y026082D01*
X033312Y025984D02*
X032410Y025984D01*
X032369Y025885D02*
X033410Y025885D01*
X033345Y025950D02*
X033345Y025950D01*
X033525Y026025D02*
X033650Y026025D01*
X033900Y026025D01*
X033657Y025393D02*
X033643Y025393D01*
X034391Y025393D02*
X035178Y025393D01*
X035419Y025688D02*
X037223Y025688D01*
X037223Y025787D02*
X035312Y025787D01*
X035206Y025885D02*
X037223Y025885D01*
X037255Y025984D02*
X035099Y025984D01*
X034993Y026082D02*
X037353Y026082D01*
X037452Y026181D02*
X034888Y026181D01*
X035525Y025590D02*
X037232Y025590D01*
X037330Y025491D02*
X035631Y025491D01*
X035630Y025097D02*
X037368Y025097D01*
X037270Y024999D02*
X035630Y024999D01*
X035630Y024900D02*
X037223Y024900D01*
X037223Y024802D02*
X035630Y024802D01*
X035630Y024703D02*
X037223Y024703D01*
X037223Y024605D02*
X035630Y024605D01*
X035630Y024506D02*
X037315Y024506D01*
X037414Y024408D02*
X035630Y024408D01*
X035630Y024309D02*
X039700Y024309D01*
X039700Y024211D02*
X035630Y024211D01*
X035630Y024112D02*
X037383Y024112D01*
X037473Y024202D02*
X037223Y023952D01*
X037223Y023598D01*
X037473Y023348D01*
X037827Y023348D01*
X038077Y023598D01*
X038077Y023952D01*
X037827Y024202D01*
X037473Y024202D01*
X037285Y024014D02*
X035630Y024014D01*
X035630Y023915D02*
X037223Y023915D01*
X037223Y023817D02*
X035630Y023817D01*
X035630Y023718D02*
X037223Y023718D01*
X037223Y023620D02*
X035630Y023620D01*
X035630Y023521D02*
X037300Y023521D01*
X037399Y023423D02*
X035630Y023423D01*
X035630Y023324D02*
X039700Y023324D01*
X039700Y023226D02*
X035630Y023226D01*
X035630Y023127D02*
X037398Y023127D01*
X037473Y023202D02*
X037223Y022952D01*
X037223Y022598D01*
X037473Y022348D01*
X037827Y022348D01*
X038077Y022598D01*
X038077Y022952D01*
X037827Y023202D01*
X037473Y023202D01*
X037300Y023029D02*
X035630Y023029D01*
X035630Y022930D02*
X037223Y022930D01*
X037223Y022832D02*
X035630Y022832D01*
X035630Y022733D02*
X037223Y022733D01*
X037223Y022635D02*
X035630Y022635D01*
X035630Y022536D02*
X037285Y022536D01*
X037384Y022438D02*
X035630Y022438D01*
X035630Y022339D02*
X039700Y022339D01*
X039700Y022241D02*
X035630Y022241D01*
X035630Y022142D02*
X037413Y022142D01*
X037473Y022202D02*
X037223Y021952D01*
X037223Y021598D01*
X037473Y021348D01*
X037827Y021348D01*
X038077Y021598D01*
X038077Y021952D01*
X037827Y022202D01*
X037473Y022202D01*
X037315Y022044D02*
X035630Y022044D01*
X035630Y021945D02*
X037223Y021945D01*
X037223Y021847D02*
X035630Y021847D01*
X035630Y021748D02*
X037223Y021748D01*
X037223Y021650D02*
X035630Y021650D01*
X035630Y021551D02*
X037270Y021551D01*
X037369Y021453D02*
X035630Y021453D01*
X035630Y021354D02*
X037467Y021354D01*
X037428Y021157D02*
X035630Y021157D01*
X035630Y021059D02*
X037330Y021059D01*
X037231Y020960D02*
X035630Y020960D01*
X035630Y020862D02*
X037223Y020862D01*
X037223Y020763D02*
X035630Y020763D01*
X035630Y020665D02*
X037223Y020665D01*
X037255Y020566D02*
X035630Y020566D01*
X035630Y020468D02*
X037354Y020468D01*
X037946Y020468D02*
X038088Y020468D01*
X038045Y020566D02*
X038186Y020566D01*
X038223Y020665D02*
X038077Y020665D01*
X038077Y020763D02*
X038223Y020763D01*
X038223Y020862D02*
X038077Y020862D01*
X038069Y020960D02*
X038231Y020960D01*
X038330Y021059D02*
X037970Y021059D01*
X037872Y021157D02*
X038428Y021157D01*
X038473Y021348D02*
X038827Y021348D01*
X039077Y021598D01*
X039077Y021952D01*
X038827Y022202D01*
X038473Y022202D01*
X038223Y021952D01*
X038223Y021598D01*
X038473Y021348D01*
X038467Y021354D02*
X037833Y021354D01*
X037931Y021453D02*
X038369Y021453D01*
X038270Y021551D02*
X038030Y021551D01*
X038077Y021650D02*
X038223Y021650D01*
X038223Y021748D02*
X038077Y021748D01*
X038077Y021847D02*
X038223Y021847D01*
X038223Y021945D02*
X038077Y021945D01*
X037985Y022044D02*
X038315Y022044D01*
X038413Y022142D02*
X037887Y022142D01*
X037916Y022438D02*
X038384Y022438D01*
X038473Y022348D02*
X038827Y022348D01*
X039077Y022598D01*
X039077Y022952D01*
X038827Y023202D01*
X038473Y023202D01*
X038223Y022952D01*
X038223Y022598D01*
X038473Y022348D01*
X038285Y022536D02*
X038015Y022536D01*
X038077Y022635D02*
X038223Y022635D01*
X038223Y022733D02*
X038077Y022733D01*
X038077Y022832D02*
X038223Y022832D01*
X038223Y022930D02*
X038077Y022930D01*
X038000Y023029D02*
X038300Y023029D01*
X038398Y023127D02*
X037902Y023127D01*
X037901Y023423D02*
X038399Y023423D01*
X038473Y023348D02*
X038827Y023348D01*
X039077Y023598D01*
X039077Y023952D01*
X038827Y024202D01*
X038473Y024202D01*
X038223Y023952D01*
X038223Y023598D01*
X038473Y023348D01*
X038300Y023521D02*
X038000Y023521D01*
X038077Y023620D02*
X038223Y023620D01*
X038223Y023718D02*
X038077Y023718D01*
X038077Y023817D02*
X038223Y023817D01*
X038223Y023915D02*
X038077Y023915D01*
X038015Y024014D02*
X038285Y024014D01*
X038383Y024112D02*
X037917Y024112D01*
X037886Y024408D02*
X038414Y024408D01*
X038315Y024506D02*
X037985Y024506D01*
X038077Y024605D02*
X038223Y024605D01*
X038223Y024703D02*
X038077Y024703D01*
X038077Y024802D02*
X038223Y024802D01*
X038223Y024900D02*
X038077Y024900D01*
X038030Y024999D02*
X038270Y024999D01*
X038368Y025097D02*
X037932Y025097D01*
X037833Y025196D02*
X038467Y025196D01*
X038429Y025393D02*
X037871Y025393D01*
X037970Y025491D02*
X038330Y025491D01*
X038232Y025590D02*
X038068Y025590D01*
X038077Y025688D02*
X038223Y025688D01*
X038223Y025787D02*
X038077Y025787D01*
X038077Y025885D02*
X038223Y025885D01*
X038255Y025984D02*
X038045Y025984D01*
X037947Y026082D02*
X038353Y026082D01*
X038452Y026181D02*
X037848Y026181D01*
X038870Y027363D02*
X039700Y027363D01*
X039700Y027461D02*
X038968Y027461D01*
X039067Y027560D02*
X039700Y027560D01*
X039700Y027658D02*
X039097Y027658D01*
X039700Y028742D02*
X032269Y028742D01*
X032159Y028840D02*
X039700Y028840D01*
X039700Y028939D02*
X032159Y028939D01*
X032159Y029037D02*
X039700Y029037D01*
X039700Y029136D02*
X032159Y029136D01*
X032159Y029234D02*
X037785Y029234D01*
X037582Y029333D02*
X032159Y029333D01*
X032159Y029431D02*
X037438Y029431D01*
X037340Y029530D02*
X032159Y029530D01*
X032159Y029628D02*
X037253Y029628D01*
X037196Y029727D02*
X032159Y029727D01*
X031734Y029275D02*
X031275Y029275D01*
X030525Y028525D01*
X030525Y027775D01*
X030400Y027650D01*
X030294Y027631D02*
X030171Y027629D01*
X030294Y027631D02*
X030525Y027631D01*
X030525Y027775D01*
X030650Y027650D01*
X030525Y027631D02*
X030874Y027631D01*
X030345Y027855D02*
X030127Y027855D01*
X031641Y026673D02*
X031687Y026673D01*
X032361Y026673D02*
X032427Y026673D01*
X032427Y026575D02*
X032410Y026575D01*
X033353Y027560D02*
X037262Y027560D01*
X037223Y027658D02*
X033325Y027658D01*
X033591Y024605D02*
X033709Y024605D01*
X032141Y024211D02*
X031758Y024211D01*
X031902Y024112D02*
X032141Y024112D01*
X033124Y022801D02*
X033124Y022453D01*
X032358Y022438D02*
X032266Y022438D01*
X032256Y022142D02*
X032303Y022142D01*
X032504Y021921D02*
X031900Y021921D01*
X031900Y021900D02*
X031937Y021863D01*
X032206Y021650D02*
X032311Y021650D01*
X032296Y021551D02*
X030977Y021551D01*
X030977Y021453D02*
X032198Y021453D01*
X032099Y021354D02*
X030977Y021354D01*
X030977Y021256D02*
X032001Y021256D01*
X031902Y021157D02*
X030977Y021157D01*
X030970Y021650D02*
X031594Y021650D01*
X031534Y021748D02*
X027894Y021748D01*
X025275Y020400D02*
X025275Y020150D01*
X025025Y020150D01*
X025150Y020275D01*
X024775Y020275D01*
X024900Y020025D02*
X025025Y020150D01*
X025150Y020275D02*
X025275Y020150D01*
X028275Y017150D01*
X028316Y017109D01*
X028316Y015775D01*
X027891Y015740D02*
X027787Y015740D01*
X027787Y015838D02*
X027891Y015838D01*
X027891Y015937D02*
X027787Y015937D01*
X027787Y016035D02*
X027891Y016035D01*
X027891Y016134D02*
X027787Y016134D01*
X027787Y016232D02*
X027891Y016232D01*
X027787Y016331D02*
X028136Y016331D01*
X028136Y016429D02*
X027787Y016429D01*
X027777Y016528D02*
X028136Y016528D01*
X028136Y016626D02*
X027679Y016626D01*
X027580Y016725D02*
X028136Y016725D01*
X028136Y016823D02*
X027482Y016823D01*
X027383Y016922D02*
X028039Y016922D01*
X027974Y017020D02*
X027285Y017020D01*
X027160Y017119D02*
X027947Y017119D01*
X027948Y017217D02*
X027160Y017217D01*
X027094Y017316D02*
X027855Y017316D01*
X027756Y017414D02*
X024525Y017414D01*
X024525Y017316D02*
X025706Y017316D01*
X025640Y017217D02*
X025367Y017217D01*
X025520Y017119D02*
X025640Y017119D01*
X025275Y016900D02*
X026026Y016900D01*
X025640Y016626D02*
X025465Y016626D01*
X025663Y016528D02*
X024525Y016528D01*
X024525Y016626D02*
X025085Y016626D01*
X024993Y016725D02*
X024525Y016725D01*
X024525Y016823D02*
X024952Y016823D01*
X024947Y016922D02*
X024525Y016922D01*
X024525Y017020D02*
X024970Y017020D01*
X025030Y017119D02*
X024525Y017119D01*
X024525Y017217D02*
X025183Y017217D01*
X024525Y017513D02*
X027658Y017513D01*
X027559Y017611D02*
X024525Y017611D01*
X024525Y017710D02*
X027461Y017710D01*
X027362Y017808D02*
X024525Y017808D01*
X024525Y017907D02*
X027264Y017907D01*
X027165Y018005D02*
X024525Y018005D01*
X024525Y018104D02*
X027067Y018104D01*
X026968Y018202D02*
X024525Y018202D01*
X024525Y018301D02*
X026870Y018301D01*
X026771Y018399D02*
X024525Y018399D01*
X024525Y018498D02*
X026673Y018498D01*
X026574Y018596D02*
X024525Y018596D01*
X024570Y018695D02*
X026476Y018695D01*
X026377Y018793D02*
X024668Y018793D01*
X024767Y018892D02*
X026279Y018892D01*
X026180Y018990D02*
X024865Y018990D01*
X024964Y019089D02*
X026082Y019089D01*
X025983Y019187D02*
X025062Y019187D01*
X025161Y019286D02*
X025885Y019286D01*
X025786Y019384D02*
X025259Y019384D01*
X025358Y019483D02*
X025688Y019483D01*
X025589Y019581D02*
X025456Y019581D01*
X026345Y017316D02*
X026455Y017316D01*
X026411Y016528D02*
X026389Y016528D01*
X026308Y016232D02*
X025742Y016232D01*
X025742Y016134D02*
X026308Y016134D01*
X026308Y016035D02*
X025742Y016035D01*
X025742Y015937D02*
X026182Y015937D01*
X026083Y015838D02*
X025742Y015838D01*
X025742Y015740D02*
X025985Y015740D01*
X025970Y015641D02*
X025742Y015641D01*
X025742Y015543D02*
X025970Y015543D01*
X025939Y015444D02*
X025742Y015444D01*
X025742Y015346D02*
X025841Y015346D01*
X025742Y015247D02*
X025681Y015247D01*
X025644Y015149D02*
X024525Y015149D01*
X024525Y015247D02*
X024952Y015247D01*
X024891Y015346D02*
X024525Y015346D01*
X024525Y015444D02*
X024891Y015444D01*
X024882Y015543D02*
X024891Y015543D01*
X024650Y015775D02*
X023525Y015775D01*
X023775Y015775D02*
X024025Y015775D01*
X023900Y015650D01*
X023900Y015525D01*
X024150Y015775D01*
X024650Y015775D01*
X025316Y015775D01*
X024891Y016035D02*
X024854Y016035D01*
X024891Y016134D02*
X024525Y016134D01*
X024525Y016232D02*
X024891Y016232D01*
X024150Y015775D02*
X024025Y015900D01*
X024025Y015775D01*
X023900Y015900D01*
X023900Y016025D01*
X024025Y015900D01*
X024025Y015775D02*
X024150Y015775D01*
X024525Y015050D02*
X025545Y015050D01*
X025447Y014952D02*
X024525Y014952D01*
X024525Y014853D02*
X025348Y014853D01*
X025250Y014755D02*
X024977Y014755D01*
X025046Y014504D02*
X024650Y014504D01*
X024775Y014525D02*
X025150Y014525D01*
X025150Y014400D01*
X025275Y014400D01*
X025275Y014275D01*
X025419Y014131D01*
X025874Y014131D01*
X025874Y013934D02*
X025991Y013934D01*
X026055Y013935D01*
X026305Y013770D01*
X026305Y013435D01*
X026145Y013275D01*
X025075Y013275D01*
X024650Y012900D01*
X024650Y012524D01*
X025075Y012489D02*
X025870Y012489D01*
X025870Y012588D02*
X025075Y012588D01*
X025075Y012686D02*
X025870Y012686D01*
X025870Y012883D02*
X025026Y012883D01*
X025014Y012982D02*
X025870Y012982D01*
X025870Y013080D02*
X025126Y013080D01*
X025075Y012785D02*
X026226Y012785D01*
X026226Y012686D02*
X026326Y012686D01*
X026326Y012588D02*
X026226Y012588D01*
X026226Y012489D02*
X026326Y012489D01*
X026326Y012391D02*
X026226Y012391D01*
X026226Y012292D02*
X026326Y012292D01*
X026326Y012194D02*
X026226Y012194D01*
X026226Y012095D02*
X026326Y012095D01*
X026326Y011997D02*
X026226Y011997D01*
X026226Y011898D02*
X025075Y011898D01*
X025075Y011800D02*
X025870Y011800D01*
X025870Y011850D02*
X025870Y011585D01*
X025880Y011547D01*
X025900Y011513D01*
X025928Y011485D01*
X025962Y011465D01*
X026000Y011455D01*
X026226Y011455D01*
X026226Y011850D01*
X025870Y011850D01*
X025870Y011997D02*
X025075Y011997D01*
X025066Y012095D02*
X025870Y012095D01*
X025870Y012194D02*
X025055Y012194D01*
X025075Y012292D02*
X025905Y012292D01*
X025898Y012391D02*
X025075Y012391D01*
X025075Y011701D02*
X025870Y011701D01*
X025870Y011603D02*
X025075Y011603D01*
X025075Y011504D02*
X025909Y011504D01*
X026226Y011504D02*
X026326Y011504D01*
X026326Y011603D02*
X026226Y011603D01*
X026226Y011701D02*
X026326Y011701D01*
X026326Y011800D02*
X026226Y011800D01*
X026643Y011504D02*
X026685Y011504D01*
X026845Y011406D02*
X025015Y011406D01*
X024830Y011307D02*
X026863Y011307D01*
X026962Y011209D02*
X024830Y011209D01*
X024904Y011110D02*
X027060Y011110D01*
X027275Y011150D02*
X027025Y011400D01*
X027025Y011900D01*
X027410Y011898D02*
X028225Y011898D01*
X028225Y011800D02*
X027410Y011800D01*
X027410Y011701D02*
X028225Y011701D01*
X028225Y011603D02*
X027410Y011603D01*
X027363Y011504D02*
X028225Y011504D01*
X028285Y011406D02*
X027274Y011406D01*
X027205Y011475D02*
X027205Y011475D01*
X027275Y011150D02*
X028525Y011150D01*
X028634Y011041D01*
X028634Y010857D01*
X028437Y010857D02*
X028437Y010613D01*
X028525Y010525D01*
X028650Y010525D01*
X028775Y010525D01*
X028775Y010400D01*
X028650Y010400D01*
X028650Y010525D01*
X028775Y010525D02*
X028650Y010400D01*
X028775Y010275D01*
X028775Y010400D01*
X028775Y010525D02*
X028900Y010650D01*
X028900Y011150D01*
X028650Y011400D01*
X028650Y011776D01*
X029075Y011800D02*
X029100Y011800D01*
X029100Y011701D02*
X029075Y011701D01*
X029075Y011603D02*
X029100Y011603D01*
X029100Y011504D02*
X029075Y011504D01*
X029100Y011406D02*
X029015Y011406D01*
X028998Y011307D02*
X029100Y011307D01*
X029107Y011209D02*
X029080Y011209D01*
X029080Y011110D02*
X029345Y011110D01*
X029298Y011012D02*
X029080Y011012D01*
X029080Y010913D02*
X029227Y010913D01*
X029197Y010815D02*
X029080Y010815D01*
X029080Y010716D02*
X029197Y010716D01*
X029235Y010618D02*
X029080Y010618D01*
X029024Y010519D02*
X029317Y010519D01*
X029525Y010775D02*
X029525Y011526D01*
X030025Y011525D02*
X030400Y011900D01*
X030728Y011898D02*
X031768Y011898D01*
X031670Y011800D02*
X030714Y011800D01*
X030665Y011701D02*
X031571Y011701D01*
X031473Y011603D02*
X030539Y011603D01*
X030539Y011406D02*
X030557Y011406D01*
X030557Y011307D02*
X030539Y011307D01*
X030539Y011209D02*
X030557Y011209D01*
X030548Y011150D02*
X030900Y011150D01*
X031150Y011400D01*
X031150Y011775D01*
X031374Y011504D02*
X030259Y011504D01*
X030249Y011406D02*
X030205Y011406D01*
X030025Y011525D02*
X030025Y010775D01*
X030150Y010650D01*
X030548Y010650D01*
X030239Y010421D02*
X030093Y010421D01*
X030026Y010519D02*
X029733Y010519D01*
X029707Y010421D02*
X028955Y010421D01*
X028983Y010322D02*
X029616Y010322D01*
X029575Y010224D02*
X029081Y010224D01*
X029180Y010125D02*
X029572Y010125D01*
X029596Y010027D02*
X029278Y010027D01*
X029377Y009928D02*
X029658Y009928D01*
X029900Y010150D02*
X030548Y010150D01*
X030548Y009650D02*
X029400Y009650D01*
X028775Y010275D01*
X028650Y010400D02*
X028525Y010525D01*
X028241Y010857D02*
X028241Y010184D01*
X028525Y009900D01*
X028853Y009928D02*
X028867Y009928D01*
X028851Y009830D02*
X028966Y009830D01*
X029064Y009731D02*
X028810Y009731D01*
X028922Y009633D02*
X029163Y009633D01*
X029261Y009534D02*
X029021Y009534D01*
X029119Y009436D02*
X030224Y009436D01*
X030196Y009337D02*
X029218Y009337D01*
X029316Y009239D02*
X029984Y009239D01*
X029885Y009140D02*
X029415Y009140D01*
X029513Y009042D02*
X029845Y009042D01*
X029845Y008943D02*
X029580Y008943D01*
X029580Y008845D02*
X029845Y008845D01*
X029845Y008746D02*
X029580Y008746D01*
X029580Y008648D02*
X029845Y008648D01*
X029845Y008549D02*
X029580Y008549D01*
X029580Y008451D02*
X029845Y008451D01*
X029845Y008352D02*
X029580Y008352D01*
X029580Y008254D02*
X029845Y008254D01*
X029845Y008155D02*
X029580Y008155D01*
X029580Y008057D02*
X029845Y008057D01*
X029845Y007958D02*
X029580Y007958D01*
X029580Y007860D02*
X029845Y007860D01*
X029845Y007761D02*
X029580Y007761D01*
X029580Y007663D02*
X029845Y007663D01*
X029845Y007564D02*
X029720Y007564D01*
X029785Y007466D02*
X029845Y007466D01*
X029845Y007367D02*
X029785Y007367D01*
X029785Y007269D02*
X029845Y007269D01*
X030548Y007127D02*
X030548Y007650D01*
X030623Y007575D01*
X031200Y007575D01*
X031317Y007269D02*
X031526Y007269D01*
X031456Y007367D02*
X031803Y007367D01*
X031783Y007269D02*
X031726Y007269D01*
X031726Y007170D02*
X031783Y007170D01*
X031783Y007072D02*
X031726Y007072D01*
X031726Y006973D02*
X031783Y006973D01*
X031783Y006875D02*
X032296Y006875D01*
X032197Y006973D02*
X032062Y006973D01*
X032062Y007072D02*
X032099Y007072D01*
X032062Y006776D02*
X032394Y006776D01*
X032493Y006678D02*
X032062Y006678D01*
X032036Y006579D02*
X032591Y006579D01*
X032690Y006481D02*
X032051Y006481D01*
X032055Y006382D02*
X032788Y006382D01*
X032887Y006284D02*
X032055Y006284D01*
X032055Y006087D02*
X033084Y006087D01*
X032985Y006185D02*
X031699Y006185D01*
X031699Y006087D02*
X031599Y006087D01*
X031599Y005988D02*
X031699Y005988D01*
X031699Y005890D02*
X031599Y005890D01*
X031599Y005791D02*
X031699Y005791D01*
X032041Y005791D02*
X033275Y005791D01*
X033265Y005890D02*
X032055Y005890D01*
X032055Y005988D02*
X033182Y005988D01*
X033275Y006150D02*
X031275Y008150D01*
X030548Y008150D01*
X030548Y008650D02*
X030900Y008650D01*
X031150Y008900D01*
X031450Y009475D02*
X031450Y010675D01*
X032750Y011975D01*
X032850Y012075D01*
X032950Y011975D01*
X033150Y011775D01*
X033351Y011574D01*
X033251Y011406D02*
X033051Y011406D01*
X033046Y011408D02*
X033008Y011418D01*
X032761Y011418D01*
X032761Y011159D01*
X032743Y011159D01*
X032743Y011141D01*
X032366Y011141D01*
X032366Y011012D01*
X032376Y010974D01*
X032396Y010940D01*
X032424Y010912D01*
X032445Y010900D01*
X032424Y010888D01*
X032396Y010860D01*
X032376Y010826D01*
X032366Y010788D01*
X032366Y010659D01*
X032743Y010659D01*
X032743Y010641D01*
X032366Y010641D01*
X032366Y010512D01*
X032376Y010474D01*
X032396Y010440D01*
X032424Y010412D01*
X032445Y010400D01*
X032424Y010388D01*
X032396Y010360D01*
X032376Y010326D01*
X032366Y010288D01*
X032366Y010159D01*
X032743Y010159D01*
X032743Y010141D01*
X032366Y010141D01*
X032366Y010012D01*
X032376Y009974D01*
X032396Y009940D01*
X032424Y009912D01*
X032457Y009893D01*
X032386Y009822D01*
X032386Y009478D01*
X032462Y009402D01*
X033042Y009402D01*
X033119Y009478D01*
X033119Y009822D01*
X033048Y009893D01*
X033081Y009912D01*
X033109Y009940D01*
X033128Y009974D01*
X033139Y010012D01*
X033139Y010141D01*
X032761Y010141D01*
X032761Y010159D01*
X032743Y010159D01*
X032743Y010641D01*
X032761Y010641D01*
X032761Y010382D01*
X032761Y010159D01*
X033139Y010159D01*
X033139Y010288D01*
X033128Y010326D01*
X033109Y010360D01*
X033081Y010388D01*
X033060Y010400D01*
X033081Y010412D01*
X033109Y010440D01*
X033128Y010474D01*
X033139Y010512D01*
X033139Y010641D01*
X032761Y010641D01*
X032761Y010659D01*
X032743Y010659D01*
X032743Y011141D01*
X032761Y011141D01*
X032761Y010882D01*
X032761Y010659D01*
X033139Y010659D01*
X033139Y010788D01*
X033128Y010826D01*
X033109Y010860D01*
X033081Y010888D01*
X033060Y010900D01*
X033081Y010912D01*
X033109Y010940D01*
X033128Y010974D01*
X033139Y011012D01*
X033139Y011141D01*
X032761Y011141D01*
X032761Y011159D01*
X033139Y011159D01*
X033139Y011288D01*
X033128Y011326D01*
X033109Y011360D01*
X033081Y011388D01*
X033046Y011408D01*
X033133Y011307D02*
X033615Y011307D01*
X033615Y011209D02*
X033139Y011209D01*
X033139Y011110D02*
X033615Y011110D01*
X033615Y011012D02*
X033138Y011012D01*
X033082Y010913D02*
X033615Y010913D01*
X033315Y010716D02*
X033139Y010716D01*
X033139Y010618D02*
X033282Y010618D01*
X033282Y010519D02*
X033139Y010519D01*
X033089Y010421D02*
X033282Y010421D01*
X033282Y010322D02*
X033129Y010322D01*
X033139Y010224D02*
X033282Y010224D01*
X033282Y010125D02*
X033139Y010125D01*
X033139Y010027D02*
X033282Y010027D01*
X033338Y009928D02*
X033097Y009928D01*
X033111Y009830D02*
X034060Y009830D01*
X034350Y009731D02*
X033119Y009731D01*
X033119Y009633D02*
X034381Y009633D01*
X034350Y009534D02*
X033119Y009534D01*
X033076Y009436D02*
X034350Y009436D01*
X034368Y008845D02*
X034421Y008845D01*
X034368Y008746D02*
X034544Y008746D01*
X034509Y008648D02*
X034368Y008648D01*
X034350Y008549D02*
X034509Y008549D01*
X033558Y007958D02*
X033099Y007958D01*
X033119Y008057D02*
X033404Y008057D01*
X033345Y008155D02*
X033119Y008155D01*
X033119Y008254D02*
X033322Y008254D01*
X033327Y008352D02*
X033089Y008352D01*
X033091Y008451D02*
X033368Y008451D01*
X033300Y008549D02*
X033119Y008549D01*
X033119Y008648D02*
X033282Y008648D01*
X033282Y008746D02*
X033119Y008746D01*
X033096Y008845D02*
X033282Y008845D01*
X033282Y008943D02*
X033084Y008943D01*
X033119Y009042D02*
X033282Y009042D01*
X033282Y009140D02*
X033119Y009140D01*
X033119Y009239D02*
X033282Y009239D01*
X033353Y009337D02*
X033104Y009337D01*
X032429Y009436D02*
X031744Y009436D01*
X031646Y009534D02*
X032386Y009534D01*
X032386Y009633D02*
X031630Y009633D01*
X031630Y009731D02*
X032386Y009731D01*
X032394Y009830D02*
X031630Y009830D01*
X031630Y009928D02*
X032408Y009928D01*
X032366Y010027D02*
X031630Y010027D01*
X031630Y010125D02*
X032366Y010125D01*
X032366Y010224D02*
X031630Y010224D01*
X031630Y010322D02*
X032375Y010322D01*
X032415Y010421D02*
X031630Y010421D01*
X031630Y010519D02*
X032366Y010519D01*
X032366Y010618D02*
X031647Y010618D01*
X031746Y010716D02*
X032366Y010716D01*
X032373Y010815D02*
X031844Y010815D01*
X031943Y010913D02*
X032423Y010913D01*
X032366Y011012D02*
X032041Y011012D01*
X032140Y011110D02*
X032366Y011110D01*
X032366Y011159D02*
X032366Y011288D01*
X032376Y011326D01*
X032396Y011360D01*
X032424Y011388D01*
X032458Y011408D01*
X032496Y011418D01*
X032743Y011418D01*
X032743Y011159D01*
X032366Y011159D01*
X032366Y011209D02*
X032238Y011209D01*
X032337Y011307D02*
X032371Y011307D01*
X032435Y011406D02*
X032454Y011406D01*
X032534Y011504D02*
X033161Y011504D01*
X033054Y011603D02*
X032632Y011603D01*
X032731Y011701D02*
X032960Y011701D01*
X032761Y011406D02*
X032743Y011406D01*
X032743Y011307D02*
X032761Y011307D01*
X032761Y011209D02*
X032743Y011209D01*
X032752Y011150D02*
X032752Y010650D01*
X032752Y010627D02*
X032775Y010650D01*
X032752Y010627D02*
X032752Y010150D01*
X032743Y010224D02*
X032761Y010224D01*
X032761Y010322D02*
X032743Y010322D01*
X032743Y010421D02*
X032761Y010421D01*
X032761Y010519D02*
X032743Y010519D01*
X032743Y010618D02*
X032761Y010618D01*
X032761Y010716D02*
X032743Y010716D01*
X032743Y010815D02*
X032761Y010815D01*
X032761Y010913D02*
X032743Y010913D01*
X032743Y011012D02*
X032761Y011012D01*
X032761Y011110D02*
X032743Y011110D01*
X033131Y010815D02*
X034559Y010815D01*
X034559Y010716D02*
X034335Y010716D01*
X034368Y010618D02*
X034559Y010618D01*
X034559Y010519D02*
X034368Y010519D01*
X034368Y010421D02*
X034559Y010421D01*
X034388Y010322D02*
X034368Y010322D01*
X035840Y009337D02*
X039701Y009337D01*
X039701Y009239D02*
X035840Y009239D01*
X035840Y008155D02*
X037426Y008155D01*
X037328Y008057D02*
X035840Y008057D01*
X035840Y007958D02*
X037229Y007958D01*
X037223Y007860D02*
X035840Y007860D01*
X035840Y007761D02*
X037223Y007761D01*
X037223Y007663D02*
X035840Y007663D01*
X035840Y007564D02*
X037257Y007564D01*
X037356Y007466D02*
X035840Y007466D01*
X035840Y007367D02*
X037454Y007367D01*
X037441Y007170D02*
X035840Y007170D01*
X035840Y007072D02*
X037343Y007072D01*
X037244Y006973D02*
X035840Y006973D01*
X035840Y006875D02*
X037223Y006875D01*
X037223Y006776D02*
X035840Y006776D01*
X035840Y006678D02*
X037223Y006678D01*
X037242Y006579D02*
X035840Y006579D01*
X035840Y006481D02*
X037341Y006481D01*
X037439Y006382D02*
X035840Y006382D01*
X035840Y005988D02*
X037259Y005988D01*
X037223Y005890D02*
X035840Y005890D01*
X035840Y005791D02*
X037223Y005791D01*
X037223Y005693D02*
X035836Y005693D01*
X035738Y005594D02*
X037227Y005594D01*
X037326Y005496D02*
X035639Y005496D01*
X034602Y005496D02*
X029078Y005496D01*
X029021Y005397D02*
X030503Y005397D01*
X030405Y005299D02*
X028951Y005299D01*
X028975Y005200D02*
X030306Y005200D01*
X030208Y005102D02*
X029073Y005102D01*
X029172Y005003D02*
X030109Y005003D01*
X030011Y004905D02*
X029270Y004905D01*
X029369Y004806D02*
X029960Y004806D01*
X029960Y004708D02*
X029467Y004708D01*
X029566Y004609D02*
X029690Y004609D01*
X030647Y005003D02*
X034609Y005003D01*
X033651Y006150D02*
X033275Y006150D01*
X031726Y006875D02*
X031333Y006875D01*
X031333Y006973D02*
X031447Y006973D01*
X031447Y007072D02*
X031333Y007072D01*
X031333Y007170D02*
X031451Y007170D01*
X031510Y007466D02*
X031705Y007466D01*
X031606Y007564D02*
X031528Y007564D01*
X032097Y007958D02*
X032406Y007958D01*
X032424Y007860D02*
X032195Y007860D01*
X032294Y007761D02*
X032386Y007761D01*
X032386Y008057D02*
X031998Y008057D01*
X031955Y008155D02*
X032065Y008155D01*
X032235Y008155D02*
X032386Y008155D01*
X032150Y008475D02*
X032325Y008650D01*
X032752Y008650D01*
X032775Y008650D02*
X032650Y008775D01*
X032150Y008775D01*
X031450Y009475D01*
X031843Y009337D02*
X032401Y009337D01*
X032386Y009239D02*
X031941Y009239D01*
X032040Y009140D02*
X032386Y009140D01*
X032386Y009042D02*
X032138Y009042D01*
X029928Y010618D02*
X029815Y010618D01*
X030934Y011110D02*
X030980Y011110D01*
X030934Y011209D02*
X031079Y011209D01*
X031177Y011307D02*
X030929Y011307D01*
X030846Y011406D02*
X031276Y011406D01*
X030715Y011997D02*
X031867Y011997D01*
X031965Y012095D02*
X030669Y012095D01*
X030904Y012391D02*
X030923Y012391D01*
X030251Y012194D02*
X029950Y012194D01*
X029950Y012095D02*
X030131Y012095D01*
X030085Y011997D02*
X029950Y011997D01*
X029888Y011898D02*
X030072Y011898D01*
X030045Y011800D02*
X029950Y011800D01*
X029950Y012391D02*
X030148Y012391D01*
X030120Y012489D02*
X029950Y012489D01*
X029947Y012588D02*
X030120Y012588D01*
X030120Y012686D02*
X029705Y012686D01*
X029100Y012391D02*
X029095Y012391D01*
X029095Y012292D02*
X029100Y012292D01*
X029100Y012194D02*
X029075Y012194D01*
X029066Y012095D02*
X029100Y012095D01*
X029100Y011997D02*
X029075Y011997D01*
X029075Y011898D02*
X029162Y011898D01*
X028700Y012686D02*
X028600Y012686D01*
X028600Y012785D02*
X028700Y012785D01*
X028700Y012883D02*
X028600Y012883D01*
X028339Y013376D02*
X029335Y013376D01*
X029525Y013650D02*
X029504Y013671D01*
X028900Y013671D01*
X028534Y013671D02*
X028134Y013671D01*
X028205Y013573D02*
X028534Y013573D01*
X028534Y013474D02*
X028290Y013474D01*
X028025Y013525D02*
X028025Y013275D01*
X028025Y013525D02*
X027812Y013738D01*
X027607Y013738D01*
X027607Y013934D02*
X027934Y013934D01*
X028025Y014025D01*
X028035Y013770D02*
X028534Y013770D01*
X028900Y014379D02*
X029671Y014379D01*
X029775Y014275D01*
X029775Y014400D01*
X029650Y014400D01*
X029734Y014484D01*
X029775Y014525D01*
X029775Y014400D01*
X029734Y014484D02*
X029734Y015775D01*
X029775Y015650D02*
X029775Y014525D01*
X029775Y014275D02*
X029919Y014131D01*
X030124Y014131D01*
X030124Y013934D02*
X030366Y013934D01*
X030525Y013775D01*
X030124Y013738D02*
X029613Y013738D01*
X029525Y013650D01*
X029618Y013967D02*
X029829Y013967D01*
X030124Y014328D02*
X030124Y014749D01*
X030275Y014900D01*
X030525Y014900D01*
X030525Y015775D01*
X030293Y015543D02*
X030159Y015543D01*
X030159Y015641D02*
X030225Y015641D01*
X030197Y015740D02*
X030159Y015740D01*
X030159Y015838D02*
X030197Y015838D01*
X030159Y015937D02*
X030237Y015937D01*
X030159Y016035D02*
X030321Y016035D01*
X030639Y016528D02*
X030661Y016528D01*
X031387Y016528D02*
X031518Y016528D01*
X031419Y016626D02*
X031410Y016626D01*
X031616Y016429D02*
X029080Y016429D01*
X029080Y016528D02*
X029913Y016528D01*
X029890Y016626D02*
X029590Y016626D01*
X029210Y016626D02*
X029080Y016626D01*
X029080Y016725D02*
X029118Y016725D01*
X029080Y016232D02*
X029308Y016232D01*
X029308Y016134D02*
X029080Y016134D01*
X029080Y016035D02*
X029308Y016035D01*
X029308Y015937D02*
X029080Y015937D01*
X029080Y015838D02*
X029308Y015838D01*
X029308Y015740D02*
X029080Y015740D01*
X029080Y015641D02*
X029308Y015641D01*
X029308Y015543D02*
X029080Y015543D01*
X029080Y015444D02*
X029308Y015444D01*
X029308Y015346D02*
X029080Y015346D01*
X029080Y015247D02*
X029369Y015247D01*
X029554Y015149D02*
X029028Y015149D01*
X028930Y015050D02*
X029554Y015050D01*
X029554Y014952D02*
X028831Y014952D01*
X029201Y014656D02*
X029554Y014656D01*
X029955Y014853D02*
X029973Y014853D01*
X029955Y014952D02*
X030072Y014952D01*
X030170Y015050D02*
X029955Y015050D01*
X029955Y015149D02*
X030258Y015149D01*
X030315Y015247D02*
X030098Y015247D01*
X030159Y015346D02*
X030345Y015346D01*
X030345Y015444D02*
X030159Y015444D01*
X030776Y015247D02*
X030996Y015247D01*
X030947Y015149D02*
X030833Y015149D01*
X030833Y015050D02*
X030947Y015050D01*
X030947Y014952D02*
X030833Y014952D01*
X030833Y014853D02*
X030947Y014853D01*
X030947Y014871D02*
X030947Y014644D01*
X030957Y014606D01*
X030977Y014572D01*
X031005Y014544D01*
X031039Y014524D01*
X031077Y014514D01*
X031226Y014514D01*
X031226Y014871D01*
X030947Y014871D01*
X030947Y014755D02*
X030833Y014755D01*
X030833Y014656D02*
X030947Y014656D01*
X030991Y014558D02*
X030781Y014558D01*
X030546Y014900D02*
X030525Y014900D01*
X030311Y014558D02*
X030304Y014558D01*
X031226Y014558D02*
X031283Y014558D01*
X031283Y014656D02*
X031226Y014656D01*
X031226Y014755D02*
X031283Y014755D01*
X031283Y014853D02*
X031226Y014853D01*
X031254Y014900D02*
X031254Y014171D01*
X031275Y014150D01*
X031283Y014952D02*
X031226Y014952D01*
X031226Y015050D02*
X031283Y015050D01*
X031283Y015149D02*
X031226Y015149D01*
X031226Y015247D02*
X031283Y015247D01*
X032037Y015247D02*
X032195Y015247D01*
X032195Y015149D02*
X032037Y015149D01*
X032037Y015050D02*
X032195Y015050D01*
X032195Y014952D02*
X032037Y014952D01*
X032037Y014853D02*
X032195Y014853D01*
X032195Y014755D02*
X032037Y014755D01*
X032037Y014656D02*
X032195Y014656D01*
X032195Y014558D02*
X032037Y014558D01*
X032087Y014459D02*
X032195Y014459D01*
X032195Y014361D02*
X032105Y014361D01*
X032107Y014262D02*
X032195Y014262D01*
X032195Y014164D02*
X032125Y014164D01*
X032125Y014065D02*
X032195Y014065D01*
X032195Y013967D02*
X032105Y013967D01*
X032187Y013868D02*
X032195Y013868D01*
X031857Y013541D02*
X031857Y012982D01*
X031650Y012775D01*
X031274Y012775D01*
X031660Y012588D02*
X031970Y012588D01*
X031970Y012686D02*
X031816Y012686D01*
X031914Y012785D02*
X031970Y012785D01*
X031970Y012489D02*
X031660Y012489D01*
X031625Y012391D02*
X031970Y012391D01*
X033183Y011997D02*
X033235Y011997D01*
X030943Y013179D02*
X030886Y013179D01*
X028205Y012391D02*
X027375Y012391D01*
X027367Y012292D02*
X028205Y012292D01*
X028225Y012194D02*
X027410Y012194D01*
X027410Y012095D02*
X028234Y012095D01*
X028225Y011997D02*
X027410Y011997D01*
X026681Y012292D02*
X026647Y012292D01*
X026654Y012391D02*
X026673Y012391D01*
X027607Y012982D02*
X027607Y013541D01*
X027025Y014150D02*
X027025Y014879D01*
X027004Y014900D01*
X026976Y014871D02*
X026976Y014514D01*
X026827Y014514D01*
X026789Y014524D01*
X026755Y014544D01*
X026727Y014572D01*
X026707Y014606D01*
X026697Y014644D01*
X026697Y014871D01*
X026976Y014871D01*
X026976Y014853D02*
X027033Y014853D01*
X027033Y014755D02*
X026976Y014755D01*
X026976Y014656D02*
X027033Y014656D01*
X027033Y014558D02*
X026976Y014558D01*
X026741Y014558D02*
X026531Y014558D01*
X026583Y014656D02*
X026697Y014656D01*
X026697Y014755D02*
X026583Y014755D01*
X026583Y014853D02*
X026697Y014853D01*
X026697Y014952D02*
X026583Y014952D01*
X026583Y015050D02*
X026697Y015050D01*
X026697Y015149D02*
X026583Y015149D01*
X026275Y014900D02*
X026275Y014275D01*
X026400Y014150D01*
X025874Y014328D02*
X025874Y014749D01*
X026025Y014900D01*
X026275Y014900D01*
X026150Y015400D02*
X025275Y014525D01*
X025275Y014400D01*
X025275Y014525D02*
X025150Y014525D01*
X025046Y014504D02*
X025150Y014400D01*
X025275Y014525D01*
X025150Y014400D02*
X025275Y014275D01*
X025254Y013796D02*
X025275Y013775D01*
X025312Y013738D01*
X025874Y013738D01*
X025254Y013796D02*
X024650Y013796D01*
X026636Y013179D02*
X026693Y013179D01*
X024650Y011776D02*
X024650Y010900D01*
X025550Y010421D02*
X026889Y010421D01*
X026889Y010432D02*
X026889Y010387D01*
X026867Y010409D01*
X025933Y010409D01*
X025857Y010333D01*
X025857Y009635D01*
X025933Y009558D01*
X026220Y009558D01*
X026220Y009450D01*
X026595Y009075D01*
X026679Y008992D01*
X025933Y008992D01*
X025857Y008915D01*
X025857Y008318D01*
X025285Y008890D01*
X025624Y008890D01*
X025700Y008966D01*
X025700Y009586D01*
X025636Y009650D01*
X025700Y009714D01*
X025700Y010334D01*
X025649Y010519D02*
X026934Y010519D01*
X026947Y010532D02*
X026919Y010504D01*
X026899Y010470D01*
X026889Y010432D01*
X026947Y010532D02*
X026981Y010552D01*
X027019Y010562D01*
X027246Y010562D01*
X027246Y010283D01*
X027304Y010283D01*
X027661Y010283D01*
X027661Y010432D01*
X027651Y010470D01*
X027631Y010504D01*
X027603Y010532D01*
X027569Y010552D01*
X027531Y010562D01*
X027304Y010562D01*
X027304Y010283D01*
X027304Y010226D01*
X027661Y010226D01*
X027661Y010077D01*
X027651Y010039D01*
X027631Y010005D01*
X027603Y009977D01*
X027569Y009957D01*
X027531Y009947D01*
X027304Y009947D01*
X027304Y010226D01*
X027246Y010226D01*
X027246Y009947D01*
X027019Y009947D01*
X026981Y009957D01*
X026947Y009977D01*
X026943Y009980D01*
X026943Y009792D01*
X026985Y009833D01*
X027565Y009833D01*
X027604Y009794D01*
X027622Y009836D01*
X027714Y009928D01*
X026943Y009928D01*
X026943Y009830D02*
X026981Y009830D01*
X027246Y010027D02*
X027304Y010027D01*
X027304Y010125D02*
X027246Y010125D01*
X027246Y010224D02*
X027304Y010224D01*
X027304Y010322D02*
X027246Y010322D01*
X027246Y010421D02*
X027304Y010421D01*
X027304Y010519D02*
X027246Y010519D01*
X027616Y010519D02*
X028061Y010519D01*
X028044Y010589D02*
X028044Y010857D01*
X028044Y010857D01*
X028044Y010589D01*
X028044Y010618D02*
X028044Y010618D01*
X028044Y010716D02*
X028044Y010716D01*
X028044Y010815D02*
X028044Y010815D01*
X027847Y010857D02*
X025732Y010857D01*
X025747Y010618D02*
X027725Y010618D01*
X027661Y010421D02*
X028061Y010421D01*
X028061Y010322D02*
X027661Y010322D01*
X027661Y010224D02*
X028061Y010224D01*
X028061Y010125D02*
X027661Y010125D01*
X027644Y010027D02*
X028144Y010027D01*
X028086Y009928D02*
X027965Y009978D01*
X027835Y009978D01*
X027714Y009928D01*
X027619Y009830D02*
X027569Y009830D01*
X027775Y009525D02*
X027275Y009525D01*
X027275Y009275D01*
X027426Y009124D01*
X027847Y009124D01*
X028044Y009124D02*
X028044Y008669D01*
X027900Y008525D01*
X027775Y008525D01*
X027775Y008400D01*
X027650Y008400D01*
X027650Y007900D01*
X027671Y007900D02*
X027671Y008296D01*
X027775Y008400D01*
X027650Y008525D01*
X027775Y008525D01*
X027775Y008400D02*
X027900Y008525D01*
X027650Y008525D02*
X027650Y008400D01*
X027650Y008525D02*
X027025Y009150D01*
X026775Y009150D01*
X026400Y009525D01*
X026400Y009984D01*
X026220Y009534D02*
X025700Y009534D01*
X025700Y009436D02*
X026235Y009436D01*
X026333Y009337D02*
X025700Y009337D01*
X025700Y009239D02*
X026432Y009239D01*
X026530Y009140D02*
X025700Y009140D01*
X025700Y009042D02*
X026629Y009042D01*
X026400Y008566D02*
X026400Y007775D01*
X026025Y007400D01*
X026025Y007150D01*
X026025Y007400D02*
X025628Y007003D01*
X025900Y007400D02*
X026025Y007400D01*
X025857Y008352D02*
X025823Y008352D01*
X025857Y008451D02*
X025724Y008451D01*
X025626Y008549D02*
X025857Y008549D01*
X025857Y008648D02*
X025527Y008648D01*
X025429Y008746D02*
X025857Y008746D01*
X025857Y008845D02*
X025330Y008845D01*
X025677Y008943D02*
X025884Y008943D01*
X025275Y009276D02*
X024899Y009276D01*
X024525Y009650D01*
X025653Y009633D02*
X025859Y009633D01*
X025857Y009731D02*
X025700Y009731D01*
X025700Y009830D02*
X025857Y009830D01*
X025857Y009928D02*
X025700Y009928D01*
X027275Y009546D02*
X027275Y009525D01*
X027775Y009525D02*
X027900Y009650D01*
X028241Y009366D02*
X028400Y009525D01*
X028241Y009366D02*
X028241Y009124D01*
X028437Y009124D02*
X028437Y008562D01*
X028400Y008525D01*
X028400Y007921D01*
X028379Y007900D01*
X028651Y007150D02*
X027775Y007150D01*
X029012Y006776D02*
X029038Y006776D01*
X030548Y007127D02*
X030775Y006900D01*
X031025Y006900D01*
X031333Y006776D02*
X031447Y006776D01*
X031447Y006678D02*
X031333Y006678D01*
X031325Y006579D02*
X031302Y006579D01*
X030901Y006150D02*
X030525Y006150D01*
X031545Y004678D02*
X031545Y003575D01*
X032147Y003575D01*
X032147Y004070D01*
X032136Y004154D01*
X032114Y004237D01*
X032081Y004316D01*
X032039Y004390D01*
X031987Y004458D01*
X031926Y004518D01*
X031858Y004570D01*
X031784Y004613D01*
X031705Y004646D01*
X031623Y004668D01*
X031545Y004678D01*
X031545Y004609D02*
X031445Y004609D01*
X031445Y004511D02*
X031545Y004511D01*
X031545Y004412D02*
X031445Y004412D01*
X031445Y004314D02*
X031545Y004314D01*
X031545Y004215D02*
X031445Y004215D01*
X031445Y004117D02*
X031545Y004117D01*
X031545Y004018D02*
X031445Y004018D01*
X031445Y003920D02*
X031545Y003920D01*
X031545Y003821D02*
X031445Y003821D01*
X031445Y003723D02*
X031545Y003723D01*
X031545Y003624D02*
X031445Y003624D01*
X031445Y003526D02*
X030568Y003526D01*
X031445Y003427D02*
X031545Y003427D01*
X031545Y003329D02*
X031445Y003329D01*
X031445Y003230D02*
X031545Y003230D01*
X031545Y003132D02*
X031445Y003132D01*
X031445Y003033D02*
X031545Y003033D01*
X031545Y002935D02*
X031445Y002935D01*
X031445Y002836D02*
X031545Y002836D01*
X031545Y002738D02*
X031445Y002738D01*
X031445Y002639D02*
X031545Y002639D01*
X031545Y002541D02*
X031445Y002541D01*
X031445Y002442D02*
X031545Y002442D01*
X031793Y002442D02*
X032806Y002442D01*
X032643Y002541D02*
X031935Y002541D01*
X032023Y002639D02*
X032545Y002639D01*
X032489Y002738D02*
X032083Y002738D01*
X032120Y002836D02*
X032448Y002836D01*
X032423Y002935D02*
X032141Y002935D01*
X032147Y003033D02*
X032423Y003033D01*
X032423Y003132D02*
X032147Y003132D01*
X032147Y003230D02*
X032423Y003230D01*
X032423Y003329D02*
X032147Y003329D01*
X032147Y003427D02*
X032423Y003427D01*
X032423Y003526D02*
X031545Y003526D01*
X032147Y003624D02*
X032423Y003624D01*
X032423Y003723D02*
X032147Y003723D01*
X032147Y003821D02*
X032423Y003821D01*
X032423Y003920D02*
X032147Y003920D01*
X032147Y004018D02*
X032423Y004018D01*
X032423Y004117D02*
X032141Y004117D01*
X032120Y004215D02*
X032448Y004215D01*
X032489Y004314D02*
X032082Y004314D01*
X032022Y004412D02*
X032546Y004412D01*
X032644Y004511D02*
X031934Y004511D01*
X031791Y004609D02*
X032808Y004609D01*
X033686Y003427D02*
X033962Y003427D01*
X033962Y003329D02*
X033686Y003329D01*
X033686Y003230D02*
X033962Y003230D01*
X033962Y003132D02*
X033686Y003132D01*
X033686Y003033D02*
X033962Y003033D01*
X033968Y002935D02*
X033686Y002935D01*
X033661Y002836D02*
X033989Y002836D01*
X034026Y002738D02*
X033620Y002738D01*
X033564Y002639D02*
X034086Y002639D01*
X034174Y002541D02*
X033466Y002541D01*
X033303Y002442D02*
X034316Y002442D01*
X034564Y002442D02*
X034664Y002442D01*
X034664Y002541D02*
X034564Y002541D01*
X034564Y002639D02*
X034664Y002639D01*
X034664Y002738D02*
X034564Y002738D01*
X034564Y002836D02*
X034664Y002836D01*
X034664Y002935D02*
X034564Y002935D01*
X034564Y003033D02*
X034664Y003033D01*
X034664Y003132D02*
X034564Y003132D01*
X034564Y003230D02*
X034664Y003230D01*
X034664Y003329D02*
X034564Y003329D01*
X038989Y004511D02*
X039701Y004511D01*
X039701Y004609D02*
X039077Y004609D01*
X039077Y004708D02*
X039701Y004708D01*
X039701Y004806D02*
X039077Y004806D01*
X039077Y004905D02*
X039701Y004905D01*
X039701Y005003D02*
X039026Y005003D01*
X038927Y005102D02*
X039701Y005102D01*
X039701Y005200D02*
X038829Y005200D01*
X038959Y006481D02*
X039701Y006481D01*
X039701Y006579D02*
X039058Y006579D01*
X039077Y006678D02*
X039701Y006678D01*
X039701Y006776D02*
X039077Y006776D01*
X039077Y006875D02*
X039701Y006875D01*
X039701Y006973D02*
X039056Y006973D01*
X038957Y007072D02*
X039701Y007072D01*
X039701Y007170D02*
X038859Y007170D01*
X038846Y007367D02*
X039701Y007367D01*
X039701Y007269D02*
X035840Y007269D01*
X038944Y007466D02*
X039701Y007466D01*
X039701Y007564D02*
X039043Y007564D01*
X039077Y007663D02*
X039701Y007663D01*
X039701Y007761D02*
X039077Y007761D01*
X039077Y007860D02*
X039701Y007860D01*
X039701Y007958D02*
X039071Y007958D01*
X038972Y008057D02*
X039701Y008057D01*
X039701Y008155D02*
X038874Y008155D01*
X038124Y011504D02*
X037983Y011504D01*
X038077Y011603D02*
X038223Y011603D01*
X038223Y011701D02*
X038077Y011701D01*
X038150Y012275D02*
X038650Y012775D01*
X038351Y013080D02*
X037949Y013080D01*
X038047Y012982D02*
X038253Y012982D01*
X038223Y012883D02*
X038077Y012883D01*
X038077Y012785D02*
X038223Y012785D01*
X038223Y012686D02*
X038077Y012686D01*
X038066Y012588D02*
X038208Y012588D01*
X038109Y012489D02*
X037968Y012489D01*
X038150Y012275D02*
X036650Y012275D01*
X036150Y012775D01*
X036150Y014775D01*
X036436Y014656D02*
X037223Y014656D01*
X037225Y014558D02*
X037264Y014558D01*
X037223Y014755D02*
X036460Y014755D01*
X036453Y014853D02*
X037223Y014853D01*
X037223Y014952D02*
X036412Y014952D01*
X036371Y014558D02*
X036875Y014558D01*
X036771Y014459D02*
X036330Y014459D01*
X036330Y014361D02*
X036730Y014361D01*
X036722Y014262D02*
X036330Y014262D01*
X036330Y014164D02*
X036741Y014164D01*
X036796Y014065D02*
X036330Y014065D01*
X036330Y013967D02*
X036937Y013967D01*
X037163Y013967D02*
X037238Y013967D01*
X037223Y013868D02*
X036330Y013868D01*
X036330Y013770D02*
X037223Y013770D01*
X037223Y013671D02*
X036330Y013671D01*
X036330Y013573D02*
X036911Y013573D01*
X036785Y013474D02*
X036330Y013474D01*
X036330Y013376D02*
X036736Y013376D01*
X036722Y013277D02*
X036330Y013277D01*
X036330Y013179D02*
X036735Y013179D01*
X036781Y013080D02*
X036330Y013080D01*
X036330Y012982D02*
X036901Y012982D01*
X037199Y012982D02*
X037253Y012982D01*
X037223Y012883D02*
X036330Y012883D01*
X036395Y012785D02*
X037223Y012785D01*
X037223Y012686D02*
X036494Y012686D01*
X036592Y012588D02*
X037234Y012588D01*
X037332Y012489D02*
X036691Y012489D01*
X037319Y013080D02*
X037351Y013080D01*
X037347Y013474D02*
X037315Y013474D01*
X037249Y013573D02*
X037189Y013573D01*
X037304Y014065D02*
X037336Y014065D01*
X037964Y014065D02*
X038336Y014065D01*
X038307Y014164D02*
X038435Y014164D01*
X038406Y014262D02*
X039701Y014262D01*
X039701Y014164D02*
X038865Y014164D01*
X038964Y014065D02*
X039701Y014065D01*
X039701Y013967D02*
X039062Y013967D01*
X039077Y013868D02*
X039701Y013868D01*
X039701Y013770D02*
X039077Y013770D01*
X039077Y013671D02*
X039701Y013671D01*
X039701Y013573D02*
X039051Y013573D01*
X038953Y013474D02*
X039701Y013474D01*
X039701Y013376D02*
X038854Y013376D01*
X038850Y013179D02*
X039701Y013179D01*
X039701Y013277D02*
X038421Y013277D01*
X038450Y013179D02*
X038322Y013179D01*
X038080Y013474D02*
X037953Y013474D01*
X038051Y013573D02*
X038179Y013573D01*
X038223Y013671D02*
X038077Y013671D01*
X038077Y013770D02*
X038223Y013770D01*
X038223Y013868D02*
X038077Y013868D01*
X038062Y013967D02*
X038238Y013967D01*
X038164Y014558D02*
X038036Y014558D01*
X038077Y014656D02*
X038223Y014656D01*
X038223Y014755D02*
X038077Y014755D01*
X038077Y014853D02*
X038223Y014853D01*
X038223Y014952D02*
X038077Y014952D01*
X037979Y015050D02*
X038321Y015050D01*
X038420Y015149D02*
X037880Y015149D01*
X037923Y015444D02*
X038377Y015444D01*
X038279Y015543D02*
X038021Y015543D01*
X038077Y015641D02*
X038223Y015641D01*
X038223Y015740D02*
X038077Y015740D01*
X038077Y015838D02*
X038223Y015838D01*
X038223Y015937D02*
X038077Y015937D01*
X038135Y016035D02*
X037994Y016035D01*
X038150Y016275D02*
X037150Y016275D01*
X036450Y015575D01*
X034250Y015575D01*
X034050Y015775D01*
X034050Y019275D01*
X034340Y019384D02*
X034750Y019384D01*
X034750Y019286D02*
X034360Y019286D01*
X034349Y019187D02*
X034750Y019187D01*
X034750Y019089D02*
X034302Y019089D01*
X034230Y018990D02*
X034750Y018990D01*
X034750Y018892D02*
X034230Y018892D01*
X034230Y018793D02*
X034808Y018793D01*
X034962Y018695D02*
X034230Y018695D01*
X034230Y018596D02*
X034864Y018596D01*
X034801Y018498D02*
X034230Y018498D01*
X034230Y018399D02*
X034760Y018399D01*
X034750Y018301D02*
X034230Y018301D01*
X034230Y018202D02*
X034750Y018202D01*
X034780Y018104D02*
X034230Y018104D01*
X034230Y018005D02*
X034821Y018005D01*
X034911Y017907D02*
X034230Y017907D01*
X034230Y017808D02*
X035071Y017808D01*
X034993Y017710D02*
X034230Y017710D01*
X034230Y017611D02*
X034879Y017611D01*
X034807Y017513D02*
X034230Y017513D01*
X034230Y017414D02*
X034766Y017414D01*
X034750Y017316D02*
X034230Y017316D01*
X034230Y017217D02*
X034750Y017217D01*
X034774Y017119D02*
X034230Y017119D01*
X034230Y017020D02*
X034814Y017020D01*
X034896Y016922D02*
X034230Y016922D01*
X034230Y016823D02*
X035035Y016823D01*
X035029Y016725D02*
X034230Y016725D01*
X034230Y016626D02*
X034894Y016626D01*
X034813Y016528D02*
X034230Y016528D01*
X034230Y016429D02*
X034773Y016429D01*
X034750Y016331D02*
X034230Y016331D01*
X034230Y016232D02*
X034750Y016232D01*
X034767Y016134D02*
X034230Y016134D01*
X034230Y016035D02*
X034808Y016035D01*
X034881Y015937D02*
X034230Y015937D01*
X034242Y015838D02*
X034998Y015838D01*
X035502Y015838D02*
X036458Y015838D01*
X036557Y015937D02*
X035619Y015937D01*
X035692Y016035D02*
X036655Y016035D01*
X036754Y016134D02*
X035733Y016134D01*
X035750Y016232D02*
X036852Y016232D01*
X036951Y016331D02*
X035750Y016331D01*
X035727Y016429D02*
X037049Y016429D01*
X037223Y016626D02*
X035808Y016626D01*
X035719Y016528D02*
X037294Y016528D01*
X037223Y016725D02*
X035897Y016725D01*
X035985Y016823D02*
X037223Y016823D01*
X037223Y016922D02*
X036074Y016922D01*
X036163Y017020D02*
X037291Y017020D01*
X038009Y017020D02*
X038291Y017020D01*
X038223Y016952D02*
X038223Y016598D01*
X038473Y016348D01*
X038827Y016348D01*
X039077Y016598D01*
X039077Y016952D01*
X038827Y017202D01*
X038473Y017202D01*
X038223Y016952D01*
X038223Y016922D02*
X038077Y016922D01*
X038077Y016823D02*
X038223Y016823D01*
X038223Y016725D02*
X038077Y016725D01*
X038077Y016626D02*
X038223Y016626D01*
X038294Y016528D02*
X038006Y016528D01*
X038251Y016429D02*
X038392Y016429D01*
X038349Y016331D02*
X039701Y016331D01*
X039701Y016429D02*
X038908Y016429D01*
X039006Y016528D02*
X039701Y016528D01*
X039701Y016626D02*
X039077Y016626D01*
X039077Y016725D02*
X039701Y016725D01*
X039701Y016823D02*
X039077Y016823D01*
X039077Y016922D02*
X039701Y016922D01*
X039701Y017020D02*
X039009Y017020D01*
X038910Y017119D02*
X039701Y017119D01*
X039700Y017217D02*
X038347Y017217D01*
X038390Y017119D02*
X038248Y017119D01*
X038150Y017275D02*
X036150Y017275D01*
X035250Y016275D01*
X035465Y016823D02*
X035501Y016823D01*
X035250Y017275D02*
X036150Y018275D01*
X038150Y018275D01*
X038650Y018775D01*
X038360Y019089D02*
X037940Y019089D01*
X038039Y018990D02*
X038261Y018990D01*
X038223Y018892D02*
X038077Y018892D01*
X038077Y018793D02*
X038223Y018793D01*
X038223Y018695D02*
X038077Y018695D01*
X038075Y018596D02*
X038216Y018596D01*
X038118Y018498D02*
X037976Y018498D01*
X038332Y018202D02*
X039700Y018202D01*
X039700Y018104D02*
X038925Y018104D01*
X039024Y018005D02*
X039700Y018005D01*
X039700Y017907D02*
X039077Y017907D01*
X039077Y017808D02*
X039700Y017808D01*
X039700Y017710D02*
X039077Y017710D01*
X039077Y017611D02*
X039700Y017611D01*
X039700Y017513D02*
X038991Y017513D01*
X038893Y017414D02*
X039700Y017414D01*
X039700Y017316D02*
X038445Y017316D01*
X038150Y017275D02*
X038650Y017775D01*
X038223Y017808D02*
X038077Y017808D01*
X038077Y017710D02*
X038223Y017710D01*
X038223Y017611D02*
X038077Y017611D01*
X038133Y017513D02*
X037991Y017513D01*
X038077Y017907D02*
X038223Y017907D01*
X038276Y018005D02*
X038024Y018005D01*
X038233Y018104D02*
X038375Y018104D01*
X038430Y018301D02*
X039700Y018301D01*
X039700Y018399D02*
X038878Y018399D01*
X038976Y018498D02*
X039700Y018498D01*
X039700Y018596D02*
X039075Y018596D01*
X039077Y018695D02*
X039700Y018695D01*
X039700Y018793D02*
X039077Y018793D01*
X039077Y018892D02*
X039700Y018892D01*
X039700Y018990D02*
X039039Y018990D01*
X038940Y019089D02*
X039700Y019089D01*
X039700Y019187D02*
X038842Y019187D01*
X038863Y019384D02*
X039700Y019384D01*
X039700Y019286D02*
X038415Y019286D01*
X038458Y019187D02*
X038317Y019187D01*
X038150Y019275D02*
X038650Y019775D01*
X039077Y019778D02*
X039700Y019778D01*
X039700Y019680D02*
X039077Y019680D01*
X039060Y019581D02*
X039700Y019581D01*
X039700Y019483D02*
X038961Y019483D01*
X039077Y019877D02*
X039700Y019877D01*
X039700Y019975D02*
X039054Y019975D01*
X038955Y020074D02*
X039700Y020074D01*
X039700Y020172D02*
X038857Y020172D01*
X038848Y020369D02*
X039700Y020369D01*
X039700Y020271D02*
X038400Y020271D01*
X038443Y020172D02*
X038302Y020172D01*
X038345Y020074D02*
X037955Y020074D01*
X038054Y019975D02*
X038246Y019975D01*
X038223Y019877D02*
X038077Y019877D01*
X038077Y019778D02*
X038223Y019778D01*
X038223Y019680D02*
X038077Y019680D01*
X038060Y019581D02*
X038201Y019581D01*
X038103Y019483D02*
X037961Y019483D01*
X038150Y019275D02*
X036150Y019275D01*
X035250Y018275D01*
X035429Y017808D02*
X035488Y017808D01*
X033870Y017808D02*
X032780Y017808D01*
X032780Y017710D02*
X033870Y017710D01*
X033870Y017611D02*
X032780Y017611D01*
X032780Y017513D02*
X033870Y017513D01*
X033870Y017414D02*
X032780Y017414D01*
X032780Y017316D02*
X033870Y017316D01*
X033870Y017217D02*
X032780Y017217D01*
X032780Y017119D02*
X033870Y017119D01*
X033870Y017020D02*
X032780Y017020D01*
X032780Y016922D02*
X033133Y016922D01*
X033128Y016920D02*
X033094Y016901D01*
X033066Y016873D01*
X033046Y016838D01*
X033036Y016800D01*
X033036Y016652D01*
X033394Y016652D01*
X033394Y016931D01*
X033166Y016931D01*
X033128Y016920D01*
X033042Y016823D02*
X032780Y016823D01*
X032780Y016725D02*
X033036Y016725D01*
X033036Y016594D02*
X033036Y016446D01*
X033046Y016408D01*
X033066Y016373D01*
X033094Y016346D01*
X033128Y016326D01*
X033166Y016316D01*
X033394Y016316D01*
X033394Y016594D01*
X033451Y016594D01*
X033451Y016316D01*
X033678Y016316D01*
X033716Y016326D01*
X033751Y016346D01*
X033779Y016373D01*
X033798Y016408D01*
X033808Y016446D01*
X033808Y016594D01*
X033451Y016594D01*
X033451Y016652D01*
X033394Y016652D01*
X033394Y016594D01*
X033036Y016594D01*
X033036Y016528D02*
X032780Y016528D01*
X032780Y016626D02*
X033394Y016626D01*
X033451Y016626D02*
X033870Y016626D01*
X033808Y016652D02*
X033808Y016800D01*
X033798Y016838D01*
X033779Y016873D01*
X033751Y016901D01*
X033716Y016920D01*
X033678Y016931D01*
X033451Y016931D01*
X033451Y016652D01*
X033808Y016652D01*
X033808Y016725D02*
X033870Y016725D01*
X033870Y016823D02*
X033802Y016823D01*
X033870Y016922D02*
X033712Y016922D01*
X033451Y016922D02*
X033394Y016922D01*
X033394Y016823D02*
X033451Y016823D01*
X033451Y016725D02*
X033394Y016725D01*
X033394Y016528D02*
X033451Y016528D01*
X033451Y016429D02*
X033394Y016429D01*
X033394Y016331D02*
X033451Y016331D01*
X033725Y016331D02*
X033870Y016331D01*
X033870Y016429D02*
X033804Y016429D01*
X033808Y016528D02*
X033870Y016528D01*
X033120Y016331D02*
X032780Y016331D01*
X032780Y016429D02*
X033041Y016429D01*
X032195Y016429D02*
X032037Y016429D01*
X032037Y016331D02*
X032195Y016331D01*
X032195Y016232D02*
X032037Y016232D01*
X032037Y016134D02*
X032195Y016134D01*
X032195Y016035D02*
X032037Y016035D01*
X032037Y015937D02*
X032195Y015937D01*
X032195Y015838D02*
X032037Y015838D01*
X032037Y015740D02*
X032195Y015740D01*
X032195Y015641D02*
X032037Y015641D01*
X032037Y015543D02*
X032195Y015543D01*
X032195Y015444D02*
X032037Y015444D01*
X032037Y015346D02*
X032195Y015346D01*
X032195Y016528D02*
X032027Y016528D01*
X031929Y016626D02*
X032195Y016626D01*
X032195Y016725D02*
X031830Y016725D01*
X031732Y016823D02*
X032195Y016823D01*
X032195Y016922D02*
X031633Y016922D01*
X031535Y017020D02*
X032195Y017020D01*
X032780Y017907D02*
X033870Y017907D01*
X033870Y018005D02*
X032780Y018005D01*
X032780Y018104D02*
X033870Y018104D01*
X033870Y018202D02*
X032780Y018202D01*
X032780Y018301D02*
X033870Y018301D01*
X033870Y018399D02*
X032780Y018399D01*
X032780Y018498D02*
X033870Y018498D01*
X033870Y018596D02*
X032780Y018596D01*
X032780Y018695D02*
X033870Y018695D01*
X033870Y018793D02*
X032780Y018793D01*
X032780Y018892D02*
X033870Y018892D01*
X033870Y018990D02*
X032780Y018990D01*
X032838Y019089D02*
X033798Y019089D01*
X033751Y019187D02*
X032958Y019187D01*
X033077Y019286D02*
X033740Y019286D01*
X033760Y019384D02*
X033196Y019384D01*
X033315Y019483D02*
X033819Y019483D01*
X033979Y019581D02*
X033435Y019581D01*
X033554Y019680D02*
X034750Y019680D01*
X034750Y019581D02*
X034121Y019581D01*
X034281Y019483D02*
X034750Y019483D01*
X035250Y019275D02*
X036150Y020275D01*
X038150Y020275D01*
X038650Y020775D01*
X038946Y020468D02*
X039700Y020468D01*
X039700Y020566D02*
X039045Y020566D01*
X039077Y020665D02*
X039700Y020665D01*
X039700Y020763D02*
X039077Y020763D01*
X039077Y020862D02*
X039700Y020862D01*
X039700Y020960D02*
X039069Y020960D01*
X038970Y021059D02*
X039700Y021059D01*
X039700Y021157D02*
X038872Y021157D01*
X038833Y021354D02*
X039700Y021354D01*
X039700Y021256D02*
X035630Y021256D01*
X035150Y021775D02*
X035062Y021863D01*
X034857Y021863D01*
X034857Y021666D02*
X034857Y021107D01*
X034650Y020900D01*
X034274Y020900D01*
X034132Y021354D02*
X033484Y021354D01*
X033476Y021256D02*
X033576Y021256D01*
X033582Y021453D02*
X034008Y021453D01*
X033961Y021551D02*
X033681Y021551D01*
X033124Y021863D02*
X032562Y021863D01*
X032525Y021900D01*
X032504Y021921D01*
X032450Y020763D02*
X033120Y020763D01*
X032620Y020566D02*
X032450Y020566D01*
X032450Y020468D02*
X032504Y020468D01*
X032459Y020369D02*
X032450Y020369D01*
X032775Y020275D02*
X032401Y019901D01*
X032025Y019901D01*
X032450Y019680D02*
X032661Y019680D01*
X032779Y019778D02*
X032533Y019778D01*
X032631Y019877D02*
X032896Y019877D01*
X032908Y019975D02*
X033013Y019975D01*
X033038Y020074D02*
X033130Y020074D01*
X033087Y020172D02*
X033248Y020172D01*
X033365Y020271D02*
X033103Y020271D01*
X033673Y019778D02*
X035461Y019778D01*
X035549Y019877D02*
X033792Y019877D01*
X032544Y019581D02*
X032440Y019581D01*
X035155Y019975D02*
X035638Y019975D01*
X035727Y020074D02*
X035253Y020074D01*
X035352Y020172D02*
X035815Y020172D01*
X035904Y020271D02*
X035450Y020271D01*
X035525Y020345D02*
X035525Y020345D01*
X035549Y020369D02*
X035989Y020369D01*
X038931Y021453D02*
X039700Y021453D01*
X039700Y021551D02*
X039030Y021551D01*
X039077Y021650D02*
X039700Y021650D01*
X039700Y021748D02*
X039077Y021748D01*
X039077Y021847D02*
X039700Y021847D01*
X039700Y021945D02*
X039077Y021945D01*
X038985Y022044D02*
X039700Y022044D01*
X039700Y022142D02*
X038887Y022142D01*
X038916Y022438D02*
X039700Y022438D01*
X039700Y022536D02*
X039015Y022536D01*
X039077Y022635D02*
X039700Y022635D01*
X039700Y022733D02*
X039077Y022733D01*
X039077Y022832D02*
X039700Y022832D01*
X039700Y022930D02*
X039077Y022930D01*
X039000Y023029D02*
X039700Y023029D01*
X039700Y023127D02*
X038902Y023127D01*
X038901Y023423D02*
X039700Y023423D01*
X039700Y023521D02*
X039000Y023521D01*
X039077Y023620D02*
X039700Y023620D01*
X039700Y023718D02*
X039077Y023718D01*
X039077Y023817D02*
X039700Y023817D01*
X039700Y023915D02*
X039077Y023915D01*
X039015Y024014D02*
X039700Y024014D01*
X039700Y024112D02*
X038917Y024112D01*
X038886Y024408D02*
X039700Y024408D01*
X039700Y024506D02*
X038985Y024506D01*
X039077Y024605D02*
X039700Y024605D01*
X039700Y024703D02*
X039077Y024703D01*
X039077Y024802D02*
X039700Y024802D01*
X039700Y024900D02*
X039077Y024900D01*
X039030Y024999D02*
X039700Y024999D01*
X039700Y025097D02*
X038932Y025097D01*
X034677Y022930D02*
X034562Y022930D01*
X034562Y022832D02*
X034677Y022832D01*
X034677Y022733D02*
X034552Y022733D01*
X034283Y022930D02*
X034226Y022930D01*
X030705Y017316D02*
X030595Y017316D01*
X027891Y015641D02*
X027787Y015641D01*
X027787Y015543D02*
X027891Y015543D01*
X027891Y015444D02*
X027787Y015444D01*
X027787Y015346D02*
X027891Y015346D01*
X027952Y015247D02*
X027787Y015247D01*
X026734Y015775D02*
X026275Y015775D01*
X026150Y015650D01*
X026150Y015400D01*
X021275Y015150D02*
X021275Y013900D01*
X020525Y013900D01*
X020525Y015150D01*
X021275Y015150D01*
X021275Y015149D02*
X020525Y015149D01*
X020525Y015050D02*
X021275Y015050D01*
X021275Y014952D02*
X020525Y014952D01*
X020525Y014853D02*
X021275Y014853D01*
X021275Y014755D02*
X020525Y014755D01*
X020525Y014656D02*
X021275Y014656D01*
X021275Y014558D02*
X020525Y014558D01*
X020525Y014459D02*
X021275Y014459D01*
X021275Y014361D02*
X020525Y014361D01*
X020525Y014262D02*
X021275Y014262D01*
X021275Y014164D02*
X020525Y014164D01*
X020525Y014065D02*
X021275Y014065D01*
X021275Y013967D02*
X020525Y013967D01*
X020818Y015525D02*
X020818Y016318D01*
X020900Y016400D01*
X018525Y015025D02*
X017650Y015025D01*
X018150Y021256D02*
X018900Y021256D01*
X018900Y021354D02*
X018150Y021354D01*
X018150Y021453D02*
X018900Y021453D01*
X018900Y021551D02*
X018150Y021551D01*
X018150Y021650D02*
X018900Y021650D01*
X018900Y021748D02*
X018150Y021748D01*
X018150Y021847D02*
X018900Y021847D01*
X020650Y021775D02*
X020693Y021775D01*
X020650Y021775D02*
X020650Y022400D01*
X020775Y022525D01*
X018482Y024025D02*
X017650Y024025D01*
X018025Y024400D02*
X018775Y024400D01*
X018775Y028150D01*
X018025Y028150D01*
X018025Y024400D01*
X018025Y024408D02*
X018775Y024408D01*
X018775Y024506D02*
X018025Y024506D01*
X018025Y024605D02*
X018775Y024605D01*
X018775Y024703D02*
X018025Y024703D01*
X018025Y024802D02*
X018775Y024802D01*
X018775Y024900D02*
X018025Y024900D01*
X018025Y024999D02*
X018775Y024999D01*
X018775Y025097D02*
X018025Y025097D01*
X018025Y025196D02*
X018775Y025196D01*
X018775Y025294D02*
X018025Y025294D01*
X018025Y025393D02*
X018775Y025393D01*
X018775Y025491D02*
X018025Y025491D01*
X018025Y025590D02*
X018775Y025590D01*
X018775Y025688D02*
X018025Y025688D01*
X018025Y025787D02*
X018775Y025787D01*
X018775Y025885D02*
X018025Y025885D01*
X018025Y025984D02*
X018775Y025984D01*
X018775Y026082D02*
X018025Y026082D01*
X018025Y026181D02*
X018775Y026181D01*
X018775Y026279D02*
X018025Y026279D01*
X018025Y026378D02*
X018775Y026378D01*
X018775Y026476D02*
X018025Y026476D01*
X018025Y026575D02*
X018775Y026575D01*
X018775Y026673D02*
X018025Y026673D01*
X018025Y026772D02*
X018775Y026772D01*
X018775Y026870D02*
X018025Y026870D01*
X018025Y026969D02*
X018775Y026969D01*
X018775Y027067D02*
X018025Y027067D01*
X018025Y027166D02*
X018775Y027166D01*
X018775Y027264D02*
X018025Y027264D01*
X018025Y027363D02*
X018775Y027363D01*
X018775Y027461D02*
X018025Y027461D01*
X018025Y027560D02*
X018775Y027560D01*
X018775Y027658D02*
X018025Y027658D01*
X018025Y027757D02*
X018775Y027757D01*
X018775Y027855D02*
X018025Y027855D01*
X018025Y027954D02*
X018775Y027954D01*
X018775Y028052D02*
X018025Y028052D01*
X020275Y027650D02*
X020275Y026400D01*
X021025Y026400D01*
X021025Y027650D01*
X020275Y027650D01*
X020275Y027560D02*
X021025Y027560D01*
X021025Y027461D02*
X020275Y027461D01*
X020275Y027363D02*
X021025Y027363D01*
X021025Y027264D02*
X020275Y027264D01*
X020275Y027166D02*
X021025Y027166D01*
X021025Y027067D02*
X020275Y027067D01*
X020275Y026969D02*
X021025Y026969D01*
X021025Y026870D02*
X020275Y026870D01*
X020275Y026772D02*
X021025Y026772D01*
X021025Y026673D02*
X020275Y026673D01*
X020275Y026575D02*
X021025Y026575D01*
X021025Y026476D02*
X020275Y026476D01*
X020568Y028025D02*
X021400Y028025D01*
X022900Y027525D02*
X022900Y026775D01*
X024150Y026775D01*
X024150Y027525D01*
X022900Y027525D01*
X022900Y027461D02*
X024150Y027461D01*
X024150Y027363D02*
X022900Y027363D01*
X022900Y027264D02*
X024150Y027264D01*
X024150Y027166D02*
X022900Y027166D01*
X022900Y027067D02*
X024150Y027067D01*
X024150Y026969D02*
X022900Y026969D01*
X022900Y026870D02*
X024150Y026870D01*
X025400Y027900D02*
X025400Y028275D01*
X025150Y028525D01*
X025275Y028525D01*
X025400Y028400D01*
X025400Y028650D01*
X025650Y028900D01*
X026275Y028900D01*
X025650Y028525D02*
X025400Y028275D01*
X025400Y028400D01*
X018275Y024775D02*
X017650Y024775D01*
X035894Y011800D02*
X037223Y011800D01*
X037223Y011701D02*
X035993Y011701D01*
X036091Y011603D02*
X037223Y011603D01*
X037317Y011504D02*
X036190Y011504D01*
X038869Y012391D02*
X039701Y012391D01*
X039701Y012489D02*
X038968Y012489D01*
X039066Y012588D02*
X039701Y012588D01*
X039701Y012686D02*
X039077Y012686D01*
X039077Y012785D02*
X039701Y012785D01*
X039701Y012883D02*
X039077Y012883D01*
X039047Y012982D02*
X039701Y012982D01*
X039701Y013080D02*
X038949Y013080D01*
X038839Y014361D02*
X039701Y014361D01*
X039701Y014459D02*
X038938Y014459D01*
X039036Y014558D02*
X039701Y014558D01*
X039701Y014656D02*
X039077Y014656D01*
X039077Y014755D02*
X039701Y014755D01*
X039701Y014853D02*
X039077Y014853D01*
X039077Y014952D02*
X039701Y014952D01*
X039701Y015050D02*
X038979Y015050D01*
X038880Y015149D02*
X039701Y015149D01*
X039701Y015247D02*
X037110Y015247D01*
X037106Y015346D02*
X039701Y015346D01*
X039701Y015444D02*
X038923Y015444D01*
X039021Y015543D02*
X039701Y015543D01*
X039701Y015641D02*
X039077Y015641D01*
X039077Y015740D02*
X039701Y015740D01*
X039701Y015838D02*
X039077Y015838D01*
X039077Y015937D02*
X039701Y015937D01*
X039701Y016035D02*
X038994Y016035D01*
X038895Y016134D02*
X039701Y016134D01*
X039701Y016232D02*
X038448Y016232D01*
X038150Y016275D02*
X038650Y015775D01*
X037377Y015444D02*
X037066Y015444D01*
X036964Y015543D02*
X037279Y015543D01*
X037223Y015641D02*
X036771Y015641D01*
X036869Y015740D02*
X037223Y015740D01*
X037223Y015838D02*
X036968Y015838D01*
X037066Y015937D02*
X037223Y015937D01*
X037165Y016035D02*
X037306Y016035D01*
X037420Y015149D02*
X037083Y015149D01*
X037013Y015050D02*
X037321Y015050D01*
X038515Y029234D02*
X039700Y029234D01*
X039700Y029333D02*
X038718Y029333D01*
X038862Y029431D02*
X039700Y029431D01*
X039700Y029530D02*
X038960Y029530D01*
X039047Y029628D02*
X039700Y029628D01*
X039700Y029727D02*
X039104Y029727D01*
X039160Y029825D02*
X039700Y029825D01*
X039700Y029924D02*
X039195Y029924D01*
X039221Y030022D02*
X039700Y030022D01*
X039700Y030121D02*
X039247Y030121D01*
X039250Y030219D02*
X039700Y030219D01*
X039700Y030318D02*
X039250Y030318D01*
X039250Y030416D02*
X039700Y030416D01*
X039700Y030515D02*
X039225Y030515D01*
X039198Y030613D02*
X039700Y030613D01*
X039700Y030712D02*
X039168Y030712D01*
X039111Y030810D02*
X039700Y030810D01*
X039700Y030909D02*
X039054Y030909D01*
X038974Y031007D02*
X039700Y031007D01*
X039700Y031106D02*
X038875Y031106D01*
X038741Y031204D02*
X039700Y031204D01*
X039700Y031303D02*
X038565Y031303D01*
D33*
X033025Y027525D03*
X032650Y028275D03*
X032025Y027650D03*
X031400Y027775D03*
X031400Y027150D03*
X030400Y026900D03*
X030400Y025525D03*
X031650Y023900D03*
X031150Y023150D03*
X032525Y021900D03*
X033025Y022900D03*
X034275Y022275D03*
X034275Y021650D03*
X032775Y020275D03*
X031150Y019025D03*
X031900Y017650D03*
X029400Y016900D03*
X028275Y017150D03*
X030525Y015775D03*
X031275Y014150D03*
X031275Y013525D03*
X029525Y013650D03*
X028025Y013275D03*
X027025Y013525D03*
X027025Y014150D03*
X026400Y014150D03*
X025275Y013775D03*
X024650Y015775D03*
X025275Y016900D03*
X020900Y016400D03*
X017650Y015025D03*
X017650Y017775D03*
X017650Y021150D03*
X020775Y022525D03*
X017650Y024025D03*
X017650Y024775D03*
X021400Y028025D03*
X025400Y027900D03*
X025400Y026900D03*
X026900Y025900D03*
X029588Y028963D03*
X032525Y025025D03*
X037050Y014275D03*
X037050Y013275D03*
X031150Y011775D03*
X030400Y011900D03*
X029525Y010775D03*
X029900Y010150D03*
X028525Y009900D03*
X027900Y009650D03*
X028400Y008525D03*
X027775Y007150D03*
X026400Y007775D03*
X026025Y009275D03*
X024525Y009650D03*
X024650Y010900D03*
X025400Y011525D03*
X020900Y010025D03*
X017650Y008525D03*
X017650Y011525D03*
X017650Y005275D03*
X031200Y007575D03*
X031275Y008150D03*
X032150Y008475D03*
X033650Y008275D03*
X032600Y006025D03*
D34*
X031046Y006900D02*
X031025Y006900D01*
X030548Y008150D02*
X030525Y008150D01*
X030548Y009150D02*
X030525Y009150D01*
X032752Y008650D02*
X032775Y008650D01*
X029525Y012274D02*
X029525Y012275D01*
X027025Y011900D02*
X027024Y011900D01*
X026276Y012775D02*
X026525Y013400D01*
X026296Y014900D02*
X026275Y014900D01*
X026775Y016900D02*
X026774Y016900D01*
X023775Y019275D02*
X024775Y020275D01*
X023775Y019275D02*
X023525Y019275D01*
X021900Y021650D02*
X021900Y021900D01*
X022150Y021900D01*
X027275Y022775D02*
X027275Y023025D01*
X027900Y023650D01*
X027978Y023728D02*
X027978Y024228D01*
X028150Y024400D01*
X026900Y026900D02*
X026899Y026900D01*
X027900Y028650D02*
X027978Y028650D01*
X023775Y028728D02*
X023775Y028775D01*
X032024Y026275D02*
X032025Y026275D01*
X034024Y025025D02*
X034025Y025025D01*
X033546Y023025D02*
X033525Y023025D01*
X031900Y021921D02*
X031900Y021900D01*
X031025Y016900D02*
X031024Y016900D01*
D35*
X033300Y018225D03*
X034050Y019275D03*
X036800Y015275D03*
X036150Y014775D03*
D36*
X035650Y014275D02*
X035035Y014890D01*
X034453Y014890D01*
X034262Y015080D01*
X033453Y015080D01*
X033422Y015111D01*
X033422Y015914D01*
X033453Y014332D02*
X033453Y013452D01*
X033425Y013424D01*
X033474Y013473D01*
X034453Y013473D01*
X034602Y013473D01*
X035300Y012775D01*
X035300Y010625D01*
X035650Y010275D01*
X035650Y005775D01*
X034650Y004775D01*
X033650Y004775D01*
X033150Y004275D01*
X033150Y003620D01*
X033055Y003525D01*
X034650Y005275D02*
X030650Y005275D01*
X030150Y004775D01*
X030150Y003739D01*
X029936Y003525D01*
X034650Y005275D02*
X035350Y005975D01*
X035350Y009475D01*
X034851Y009974D01*
X034775Y009974D01*
X034749Y010000D01*
X034749Y011250D01*
X034001Y011250D02*
X033677Y011574D01*
X033425Y011826D01*
X033425Y012676D01*
X033150Y011775D02*
X033200Y011725D01*
X033500Y011725D01*
X033500Y011625D01*
X033450Y011675D01*
X033350Y011675D01*
X033351Y011574D02*
X033677Y011574D01*
X033825Y010334D02*
X034185Y009974D01*
X034775Y009974D01*
X034775Y009226D02*
X034135Y009226D01*
X033825Y008916D01*
X033650Y008741D01*
X033650Y008275D01*
X034725Y008629D02*
X034775Y009226D01*
X034725Y008629D02*
X034875Y008479D01*
X036150Y011275D02*
X038150Y011275D01*
X036150Y011275D02*
X035650Y011775D01*
X035650Y014275D01*
X037050Y014275D02*
X038150Y014275D01*
X038650Y014775D01*
X038650Y013775D02*
X038150Y013275D01*
X037050Y013275D01*
X035450Y025400D02*
X034775Y026025D01*
X033900Y026025D01*
X033650Y026275D01*
X033650Y026775D01*
X034150Y027275D01*
X038150Y027275D01*
X038650Y026775D01*
X033750Y026075D02*
X033550Y026075D01*
X033500Y026125D01*
X033550Y026175D01*
X033400Y026175D01*
X033550Y026175D02*
X033650Y026275D01*
X033650Y026025D01*
D37*
X022761Y021483D02*
X022381Y020912D01*
X022761Y021483D02*
X022392Y021878D01*
M02*
