G75*
G70*
%OFA0B0*%
%FSLAX24Y24*%
%IPPOS*%
%LPD*%
%AMOC8*
5,1,8,0,0,1.08239X$1,22.5*
%
%ADD10C,0.0060*%
%ADD11C,0.0020*%
%ADD12C,0.0000*%
%ADD13C,0.0005*%
%ADD14C,0.0040*%
%ADD15C,0.0197*%
%ADD16C,0.0080*%
%ADD17C,0.0050*%
%ADD18C,0.0030*%
%ADD19R,0.2303X0.0200*%
D10*
X024414Y014032D02*
X024414Y014268D01*
X024886Y014268D02*
X024886Y014032D01*
X026532Y014664D02*
X026768Y014664D01*
X026768Y015136D02*
X026532Y015136D01*
X028664Y014143D02*
X028664Y013907D01*
X029136Y013907D02*
X029136Y014143D01*
X030782Y014664D02*
X031018Y014664D01*
X031018Y015136D02*
X030782Y015136D01*
X033186Y016151D02*
X033186Y016387D01*
X033659Y016387D02*
X033659Y016151D01*
X032270Y011400D02*
X031030Y011400D01*
X031007Y011398D01*
X030984Y011393D01*
X030962Y011384D01*
X030942Y011371D01*
X030924Y011356D01*
X030909Y011338D01*
X030896Y011318D01*
X030887Y011296D01*
X030882Y011273D01*
X030880Y011250D01*
X030880Y007550D01*
X030882Y007527D01*
X030887Y007504D01*
X030896Y007482D01*
X030909Y007462D01*
X030924Y007444D01*
X030942Y007429D01*
X030962Y007416D01*
X030984Y007407D01*
X031007Y007402D01*
X031030Y007400D01*
X031450Y007400D01*
X031850Y007400D01*
X032270Y007400D01*
X032293Y007402D01*
X032316Y007407D01*
X032338Y007416D01*
X032358Y007429D01*
X032376Y007444D01*
X032391Y007462D01*
X032404Y007482D01*
X032413Y007504D01*
X032418Y007527D01*
X032420Y007550D01*
X032420Y011250D01*
X032418Y011273D01*
X032413Y011296D01*
X032404Y011318D01*
X032391Y011338D01*
X032376Y011356D01*
X032358Y011371D01*
X032338Y011384D01*
X032316Y011393D01*
X032293Y011398D01*
X032270Y011400D01*
X034639Y008243D02*
X034639Y008007D01*
X035111Y008007D02*
X035111Y008243D01*
X031850Y007400D02*
X031848Y007427D01*
X031843Y007454D01*
X031833Y007480D01*
X031821Y007504D01*
X031805Y007526D01*
X031787Y007546D01*
X031765Y007563D01*
X031742Y007578D01*
X031717Y007588D01*
X031691Y007596D01*
X031664Y007600D01*
X031636Y007600D01*
X031609Y007596D01*
X031583Y007588D01*
X031558Y007578D01*
X031535Y007563D01*
X031513Y007546D01*
X031495Y007526D01*
X031479Y007504D01*
X031467Y007480D01*
X031457Y007454D01*
X031452Y007427D01*
X031450Y007400D01*
X031518Y007136D02*
X031282Y007136D01*
X031282Y006664D02*
X031518Y006664D01*
X028143Y007664D02*
X027907Y007664D01*
X027907Y008136D02*
X028143Y008136D01*
X027511Y009782D02*
X027511Y010018D01*
X027039Y010018D02*
X027039Y009782D01*
X031664Y022157D02*
X031664Y022393D01*
X032136Y022393D02*
X032136Y022157D01*
X033782Y022789D02*
X034018Y022789D01*
X034018Y023261D02*
X033782Y023261D01*
X030011Y027157D02*
X030011Y027393D01*
X029539Y027393D02*
X029539Y027157D01*
X031532Y028164D02*
X031768Y028164D01*
X031768Y028636D02*
X031532Y028636D01*
D11*
X032341Y026743D02*
X032451Y026633D01*
X032451Y026780D01*
X032561Y026743D02*
X032341Y026743D01*
X032341Y026485D02*
X032561Y026485D01*
X032561Y026412D02*
X032561Y026559D01*
X032414Y026412D02*
X032341Y026485D01*
X032378Y026338D02*
X032341Y026301D01*
X032341Y026228D01*
X032378Y026191D01*
X032414Y026191D01*
X032451Y026228D01*
X032451Y026301D01*
X032488Y026338D01*
X032524Y026338D01*
X032561Y026301D01*
X032561Y026228D01*
X032524Y026191D01*
X032524Y026117D02*
X032341Y026117D01*
X032341Y025970D02*
X032524Y025970D01*
X032561Y026007D01*
X032561Y026080D01*
X032524Y026117D01*
X032598Y026264D02*
X032304Y026264D01*
X034628Y021405D02*
X034591Y021368D01*
X034591Y021295D01*
X034628Y021258D01*
X034628Y021184D02*
X034591Y021147D01*
X034591Y021074D01*
X034628Y021037D01*
X034664Y021037D01*
X034701Y021074D01*
X034701Y021147D01*
X034738Y021184D01*
X034774Y021184D01*
X034811Y021147D01*
X034811Y021074D01*
X034774Y021037D01*
X034774Y020963D02*
X034591Y020963D01*
X034591Y020816D02*
X034774Y020816D01*
X034811Y020853D01*
X034811Y020926D01*
X034774Y020963D01*
X034848Y021110D02*
X034554Y021110D01*
X034811Y021258D02*
X034664Y021405D01*
X034628Y021405D01*
X034811Y021405D02*
X034811Y021258D01*
X031774Y013280D02*
X031811Y013243D01*
X031811Y013170D01*
X031774Y013133D01*
X031774Y013059D02*
X031738Y013059D01*
X031701Y013022D01*
X031701Y012949D01*
X031664Y012912D01*
X031628Y012912D01*
X031591Y012949D01*
X031591Y013022D01*
X031628Y013059D01*
X031628Y013133D02*
X031591Y013170D01*
X031591Y013243D01*
X031628Y013280D01*
X031664Y013280D01*
X031701Y013243D01*
X031738Y013280D01*
X031774Y013280D01*
X031701Y013243D02*
X031701Y013206D01*
X031774Y013059D02*
X031811Y013022D01*
X031811Y012949D01*
X031774Y012912D01*
X031774Y012838D02*
X031591Y012838D01*
X031591Y012691D02*
X031774Y012691D01*
X031811Y012728D01*
X031811Y012801D01*
X031774Y012838D01*
X031848Y012985D02*
X031554Y012985D01*
X032280Y011400D02*
X032280Y007400D01*
X029651Y010591D02*
X029504Y010591D01*
X029577Y010591D02*
X029577Y010811D01*
X029504Y010738D01*
X029430Y010591D02*
X029283Y010591D01*
X029356Y010591D02*
X029356Y010811D01*
X029283Y010738D01*
X029209Y010775D02*
X029172Y010811D01*
X029099Y010811D01*
X029062Y010775D01*
X029062Y010738D01*
X029099Y010701D01*
X029172Y010701D01*
X029209Y010664D01*
X029209Y010628D01*
X029172Y010591D01*
X029099Y010591D01*
X029062Y010628D01*
X028988Y010628D02*
X028988Y010811D01*
X028841Y010811D02*
X028841Y010628D01*
X028878Y010591D01*
X028951Y010591D01*
X028988Y010628D01*
X029135Y010554D02*
X029135Y010848D01*
X027524Y012691D02*
X027561Y012728D01*
X027561Y012801D01*
X027524Y012838D01*
X027341Y012838D01*
X027378Y012912D02*
X027341Y012949D01*
X027341Y013022D01*
X027378Y013059D01*
X027451Y013022D02*
X027451Y012949D01*
X027414Y012912D01*
X027378Y012912D01*
X027304Y012985D02*
X027598Y012985D01*
X027561Y012949D02*
X027561Y013022D01*
X027524Y013059D01*
X027488Y013059D01*
X027451Y013022D01*
X027451Y013133D02*
X027451Y013243D01*
X027488Y013280D01*
X027524Y013280D01*
X027561Y013243D01*
X027561Y013170D01*
X027524Y013133D01*
X027451Y013133D01*
X027378Y013206D01*
X027341Y013280D01*
X027561Y012949D02*
X027524Y012912D01*
X027524Y012691D02*
X027341Y012691D01*
D12*
X027331Y013344D02*
X026150Y013344D01*
X026150Y014525D01*
X027331Y014525D01*
X027331Y013344D01*
X030400Y013344D02*
X030400Y014525D01*
X031581Y014525D01*
X031581Y013344D01*
X030400Y013344D01*
X028831Y010581D02*
X027650Y010581D01*
X027650Y009400D01*
X028831Y009400D01*
X028831Y010581D01*
X033400Y021469D02*
X033400Y022650D01*
X034581Y022650D01*
X034581Y021469D01*
X033400Y021469D01*
X032331Y026844D02*
X031150Y026844D01*
X031150Y028025D01*
X032331Y028025D01*
X032331Y026844D01*
D13*
X031249Y027828D02*
X031251Y027847D01*
X031256Y027866D01*
X031266Y027882D01*
X031278Y027897D01*
X031293Y027909D01*
X031309Y027919D01*
X031328Y027924D01*
X031347Y027926D01*
X031366Y027924D01*
X031385Y027919D01*
X031401Y027909D01*
X031416Y027897D01*
X031428Y027882D01*
X031438Y027866D01*
X031443Y027847D01*
X031445Y027828D01*
X031443Y027809D01*
X031438Y027790D01*
X031428Y027774D01*
X031416Y027759D01*
X031401Y027747D01*
X031385Y027737D01*
X031366Y027732D01*
X031347Y027730D01*
X031328Y027732D01*
X031309Y027737D01*
X031293Y027747D01*
X031278Y027759D01*
X031266Y027774D01*
X031256Y027790D01*
X031251Y027809D01*
X031249Y027828D01*
X033499Y022453D02*
X033501Y022472D01*
X033506Y022491D01*
X033516Y022507D01*
X033528Y022522D01*
X033543Y022534D01*
X033559Y022544D01*
X033578Y022549D01*
X033597Y022551D01*
X033616Y022549D01*
X033635Y022544D01*
X033651Y022534D01*
X033666Y022522D01*
X033678Y022507D01*
X033688Y022491D01*
X033693Y022472D01*
X033695Y022453D01*
X033693Y022434D01*
X033688Y022415D01*
X033678Y022399D01*
X033666Y022384D01*
X033651Y022372D01*
X033635Y022362D01*
X033616Y022357D01*
X033597Y022355D01*
X033578Y022357D01*
X033559Y022362D01*
X033543Y022372D01*
X033528Y022384D01*
X033516Y022399D01*
X033506Y022415D01*
X033501Y022434D01*
X033499Y022453D01*
X030499Y014328D02*
X030501Y014347D01*
X030506Y014366D01*
X030516Y014382D01*
X030528Y014397D01*
X030543Y014409D01*
X030559Y014419D01*
X030578Y014424D01*
X030597Y014426D01*
X030616Y014424D01*
X030635Y014419D01*
X030651Y014409D01*
X030666Y014397D01*
X030678Y014382D01*
X030688Y014366D01*
X030693Y014347D01*
X030695Y014328D01*
X030693Y014309D01*
X030688Y014290D01*
X030678Y014274D01*
X030666Y014259D01*
X030651Y014247D01*
X030635Y014237D01*
X030616Y014232D01*
X030597Y014230D01*
X030578Y014232D01*
X030559Y014237D01*
X030543Y014247D01*
X030528Y014259D01*
X030516Y014274D01*
X030506Y014290D01*
X030501Y014309D01*
X030499Y014328D01*
X026249Y014328D02*
X026251Y014347D01*
X026256Y014366D01*
X026266Y014382D01*
X026278Y014397D01*
X026293Y014409D01*
X026309Y014419D01*
X026328Y014424D01*
X026347Y014426D01*
X026366Y014424D01*
X026385Y014419D01*
X026401Y014409D01*
X026416Y014397D01*
X026428Y014382D01*
X026438Y014366D01*
X026443Y014347D01*
X026445Y014328D01*
X026443Y014309D01*
X026438Y014290D01*
X026428Y014274D01*
X026416Y014259D01*
X026401Y014247D01*
X026385Y014237D01*
X026366Y014232D01*
X026347Y014230D01*
X026328Y014232D01*
X026309Y014237D01*
X026293Y014247D01*
X026278Y014259D01*
X026266Y014274D01*
X026256Y014290D01*
X026251Y014309D01*
X026249Y014328D01*
X027749Y009597D02*
X027751Y009616D01*
X027756Y009635D01*
X027766Y009651D01*
X027778Y009666D01*
X027793Y009678D01*
X027809Y009688D01*
X027828Y009693D01*
X027847Y009695D01*
X027866Y009693D01*
X027885Y009688D01*
X027901Y009678D01*
X027916Y009666D01*
X027928Y009651D01*
X027938Y009635D01*
X027943Y009616D01*
X027945Y009597D01*
X027943Y009578D01*
X027938Y009559D01*
X027928Y009543D01*
X027916Y009528D01*
X027901Y009516D01*
X027885Y009506D01*
X027866Y009501D01*
X027847Y009499D01*
X027828Y009501D01*
X027809Y009506D01*
X027793Y009516D01*
X027778Y009528D01*
X027766Y009543D01*
X027756Y009559D01*
X027751Y009578D01*
X027749Y009597D01*
D14*
X012428Y006578D02*
X012045Y006578D01*
X012045Y006885D02*
X012428Y006885D01*
X012505Y006809D01*
X012505Y006655D01*
X012428Y006578D01*
X012428Y007039D02*
X012505Y007116D01*
X012505Y007269D01*
X012428Y007346D01*
X012352Y007346D01*
X012275Y007269D01*
X012275Y007116D01*
X012198Y007039D01*
X012121Y007039D01*
X012045Y007116D01*
X012045Y007269D01*
X012121Y007346D01*
X012121Y007499D02*
X012045Y007576D01*
X012045Y007729D01*
X012121Y007806D01*
X012198Y007806D01*
X012505Y007499D01*
X012505Y007806D01*
X012505Y007960D02*
X012198Y008267D01*
X012121Y008267D01*
X012045Y008190D01*
X012045Y008036D01*
X012121Y007960D01*
X012505Y007960D02*
X012505Y008267D01*
X012582Y007192D02*
X011968Y007192D01*
X012045Y012828D02*
X012428Y012828D01*
X012505Y012905D01*
X012505Y013059D01*
X012428Y013135D01*
X012045Y013135D01*
X012121Y013289D02*
X012045Y013366D01*
X012045Y013519D01*
X012121Y013596D01*
X012121Y013749D02*
X012045Y013826D01*
X012045Y013979D01*
X012121Y014056D01*
X012198Y014056D01*
X012505Y013749D01*
X012505Y014056D01*
X012505Y014210D02*
X012505Y014517D01*
X012505Y014363D02*
X012045Y014363D01*
X012198Y014210D01*
X012352Y013596D02*
X012275Y013519D01*
X012275Y013366D01*
X012198Y013289D01*
X012121Y013289D01*
X011968Y013442D02*
X012582Y013442D01*
X012505Y013366D02*
X012505Y013519D01*
X012428Y013596D01*
X012352Y013596D01*
X012505Y013366D02*
X012428Y013289D01*
X012428Y019078D02*
X012045Y019078D01*
X012045Y019385D02*
X012428Y019385D01*
X012505Y019309D01*
X012505Y019155D01*
X012428Y019078D01*
X012428Y019539D02*
X012505Y019616D01*
X012505Y019769D01*
X012428Y019846D01*
X012352Y019846D01*
X012275Y019769D01*
X012275Y019616D01*
X012198Y019539D01*
X012121Y019539D01*
X012045Y019616D01*
X012045Y019769D01*
X012121Y019846D01*
X012121Y019999D02*
X012045Y020076D01*
X012045Y020229D01*
X012121Y020306D01*
X012198Y020306D01*
X012505Y019999D01*
X012505Y020306D01*
X012428Y020460D02*
X012121Y020460D01*
X012045Y020536D01*
X012045Y020690D01*
X012121Y020767D01*
X012428Y020460D01*
X012505Y020536D01*
X012505Y020690D01*
X012428Y020767D01*
X012121Y020767D01*
X011968Y019692D02*
X012582Y019692D01*
X012428Y025328D02*
X012045Y025328D01*
X012045Y025635D02*
X012428Y025635D01*
X012505Y025559D01*
X012505Y025405D01*
X012428Y025328D01*
X012428Y025789D02*
X012505Y025866D01*
X012505Y026019D01*
X012428Y026096D01*
X012352Y026096D01*
X012275Y026019D01*
X012275Y025866D01*
X012198Y025789D01*
X012121Y025789D01*
X012045Y025866D01*
X012045Y026019D01*
X012121Y026096D01*
X012198Y026249D02*
X012045Y026403D01*
X012505Y026403D01*
X012505Y026556D02*
X012505Y026249D01*
X012582Y025942D02*
X011968Y025942D01*
X012121Y026710D02*
X012198Y026710D01*
X012275Y026786D01*
X012275Y027017D01*
X012428Y027017D02*
X012121Y027017D01*
X012045Y026940D01*
X012045Y026786D01*
X012121Y026710D01*
X012428Y026710D02*
X012505Y026786D01*
X012505Y026940D01*
X012428Y027017D01*
X023130Y025162D02*
X023130Y022180D01*
X023130Y020605D02*
X023130Y017642D01*
X030030Y017642D01*
X030650Y018262D01*
X030492Y022179D02*
X030450Y022352D01*
X030399Y022523D01*
X030339Y022692D01*
X030272Y022857D01*
X030197Y023019D01*
X030114Y023176D01*
X030023Y023330D01*
X029925Y023479D01*
X029820Y023624D01*
X029709Y023763D01*
X029590Y023896D01*
X029466Y024024D01*
X029335Y024145D01*
X029199Y024260D01*
X029057Y024368D01*
X028910Y024470D01*
X028758Y024564D01*
X028602Y024650D01*
X028443Y024729D01*
X028279Y024801D01*
X028112Y024864D01*
X027942Y024919D01*
X027770Y024966D01*
X027596Y025004D01*
X027420Y025034D01*
X027243Y025056D01*
X027065Y025069D01*
X026887Y025073D01*
X026709Y025069D01*
X026531Y025056D01*
X026354Y025034D01*
X026178Y025004D01*
X026004Y024966D01*
X025832Y024919D01*
X025662Y024864D01*
X025495Y024801D01*
X025331Y024729D01*
X025172Y024650D01*
X025016Y024564D01*
X024864Y024470D01*
X024717Y024368D01*
X024575Y024260D01*
X024439Y024145D01*
X024308Y024024D01*
X024184Y023896D01*
X024065Y023763D01*
X023954Y023624D01*
X023849Y023479D01*
X023751Y023330D01*
X023660Y023176D01*
X023577Y023019D01*
X023502Y022857D01*
X023435Y022692D01*
X023375Y022523D01*
X023324Y022352D01*
X023282Y022179D01*
X023130Y025162D02*
X030030Y025162D01*
X030650Y024542D01*
X030492Y020605D02*
X030450Y020432D01*
X030399Y020261D01*
X030339Y020092D01*
X030272Y019927D01*
X030197Y019765D01*
X030114Y019608D01*
X030023Y019454D01*
X029925Y019305D01*
X029820Y019160D01*
X029709Y019021D01*
X029590Y018888D01*
X029466Y018760D01*
X029335Y018639D01*
X029199Y018524D01*
X029057Y018416D01*
X028910Y018314D01*
X028758Y018220D01*
X028602Y018134D01*
X028443Y018055D01*
X028279Y017983D01*
X028112Y017920D01*
X027942Y017865D01*
X027770Y017818D01*
X027596Y017780D01*
X027420Y017750D01*
X027243Y017728D01*
X027065Y017715D01*
X026887Y017711D01*
X026709Y017715D01*
X026531Y017728D01*
X026354Y017750D01*
X026178Y017780D01*
X026004Y017818D01*
X025832Y017865D01*
X025662Y017920D01*
X025495Y017983D01*
X025331Y018055D01*
X025172Y018134D01*
X025016Y018220D01*
X024864Y018314D01*
X024717Y018416D01*
X024575Y018524D01*
X024439Y018639D01*
X024308Y018760D01*
X024184Y018888D01*
X024065Y019021D01*
X023954Y019160D01*
X023849Y019305D01*
X023751Y019454D01*
X023660Y019608D01*
X023577Y019765D01*
X023502Y019927D01*
X023435Y020092D01*
X023375Y020261D01*
X023324Y020432D01*
X023282Y020605D01*
X025784Y002707D02*
X025784Y002093D01*
X025861Y002170D02*
X025937Y002247D01*
X025937Y002323D01*
X025861Y002400D01*
X025707Y002400D01*
X025630Y002477D01*
X025630Y002554D01*
X025707Y002630D01*
X025861Y002630D01*
X025937Y002554D01*
X026091Y002477D02*
X026244Y002630D01*
X026244Y002170D01*
X026091Y002170D02*
X026398Y002170D01*
X026551Y002247D02*
X026628Y002170D01*
X026781Y002170D01*
X026858Y002247D01*
X026858Y002323D01*
X026781Y002400D01*
X026628Y002400D01*
X026551Y002477D01*
X026551Y002554D01*
X026628Y002630D01*
X026781Y002630D01*
X026858Y002554D01*
X026858Y002477D01*
X026781Y002400D01*
X026628Y002400D02*
X026551Y002323D01*
X026551Y002247D01*
X025861Y002170D02*
X025707Y002170D01*
X025630Y002247D01*
X025477Y002247D02*
X025400Y002170D01*
X025247Y002170D01*
X025170Y002247D01*
X025170Y002630D01*
X025477Y002630D02*
X025477Y002247D01*
D15*
X021035Y007442D03*
X018515Y007108D03*
X018515Y013358D03*
X021035Y013692D03*
X018390Y019608D03*
X020910Y019942D03*
X018265Y025858D03*
X020785Y026192D03*
X022692Y027015D03*
X026265Y029733D03*
D16*
X016828Y027063D02*
X016828Y024937D01*
X013049Y024937D01*
X013049Y027063D01*
X016828Y027063D01*
X016828Y020813D02*
X013049Y020813D01*
X013049Y018687D01*
X016828Y018687D01*
X016828Y020813D01*
X016828Y014563D02*
X013049Y014563D01*
X013049Y012437D01*
X016828Y012437D01*
X016828Y014563D01*
X016828Y008313D02*
X013049Y008313D01*
X013049Y006187D01*
X016828Y006187D01*
X016828Y008313D01*
X025237Y006953D02*
X025237Y003174D01*
X027363Y003174D01*
X027363Y006953D01*
X025237Y006953D01*
X029226Y005474D02*
X029226Y001625D01*
X035334Y001625D01*
X035334Y005474D01*
X034625Y005474D01*
X034625Y004519D01*
X029934Y004519D01*
X029934Y005474D01*
X029226Y005474D01*
X029934Y005474D02*
X034625Y005474D01*
X039292Y003224D02*
X040056Y003224D01*
X040056Y028326D01*
X039292Y028326D01*
X039292Y003224D01*
D17*
X034013Y009500D02*
X033825Y009500D01*
X033825Y009404D01*
X033825Y009500D02*
X033637Y009500D01*
X033825Y009500D02*
X033637Y009750D01*
X033825Y009750D01*
X033825Y009846D01*
X033825Y009750D02*
X034013Y009750D01*
X033825Y009500D01*
X034453Y013960D02*
X034453Y014056D01*
X034640Y014056D01*
X034453Y014306D01*
X034453Y014402D01*
X034453Y014306D02*
X034640Y014306D01*
X034453Y014306D02*
X034265Y014306D01*
X034453Y014306D02*
X034265Y014056D01*
X034453Y014056D01*
X029246Y015775D02*
X029150Y015775D01*
X029150Y015587D01*
X029150Y015775D02*
X029150Y015963D01*
X029150Y015775D02*
X028900Y015587D01*
X028900Y015775D01*
X028804Y015775D01*
X028900Y015775D02*
X028900Y015963D01*
X029150Y015775D01*
X026246Y015775D02*
X026150Y015775D01*
X026150Y015587D01*
X026150Y015775D02*
X026150Y015963D01*
X026150Y015775D02*
X025900Y015587D01*
X025900Y015775D01*
X025804Y015775D01*
X025900Y015775D02*
X025900Y015963D01*
X026150Y015775D01*
X026400Y009496D02*
X026400Y009400D01*
X026588Y009400D01*
X026400Y009400D02*
X026212Y009400D01*
X026400Y009400D02*
X026212Y009150D01*
X026400Y009150D01*
X026400Y009054D01*
X026400Y009150D02*
X026588Y009150D01*
X026400Y009400D01*
X033150Y023712D02*
X033400Y023900D01*
X033496Y023900D01*
X033400Y023900D02*
X033400Y023712D01*
X033400Y023900D02*
X033400Y024088D01*
X033400Y023900D02*
X033150Y024088D01*
X033150Y023900D01*
X033054Y023900D01*
X033150Y023900D02*
X033150Y023712D01*
X031150Y029087D02*
X031150Y029275D01*
X031246Y029275D01*
X031150Y029275D02*
X031150Y029463D01*
X031150Y029275D02*
X030900Y029087D01*
X030900Y029275D01*
X030804Y029275D01*
X030900Y029275D02*
X030900Y029463D01*
X031150Y029275D01*
D18*
X037536Y028484D02*
X037536Y028349D01*
X037604Y028282D01*
X037536Y028484D02*
X037604Y028551D01*
X037671Y028551D01*
X037940Y028282D01*
X037940Y028551D01*
X038526Y028430D02*
X038661Y028296D01*
X038526Y028430D02*
X038930Y028430D01*
X038930Y028296D02*
X038930Y028565D01*
D19*
X041205Y027775D03*
X041205Y026775D03*
X041205Y025775D03*
X041205Y024775D03*
X041205Y023775D03*
X041205Y022775D03*
X041205Y021775D03*
X041205Y020775D03*
X041205Y019775D03*
X041205Y018775D03*
X041205Y017775D03*
X041205Y016775D03*
X041205Y015775D03*
X041205Y014775D03*
X041205Y013775D03*
X041205Y012775D03*
X041205Y011775D03*
X041205Y010775D03*
X041205Y009775D03*
X041205Y008775D03*
X041205Y007775D03*
X041205Y006775D03*
X041205Y005775D03*
X041205Y004775D03*
X041205Y003775D03*
M02*
