G75*
G70*
%OFA0B0*%
%FSLAX24Y24*%
%IPPOS*%
%LPD*%
%AMOC8*
5,1,8,0,0,1.08239X$1,22.5*
%
%ADD10C,0.1261*%
%ADD11OC8,0.0907*%
%ADD12C,0.1084*%
%ADD13C,0.1380*%
%ADD14OC8,0.0674*%
%ADD15R,0.0820X0.0820*%
%ADD16C,0.0820*%
%ADD17C,0.0476*%
%ADD18C,0.0440*%
D10*
X015844Y005400D03*
X015844Y009101D03*
X015844Y011650D03*
X015844Y015351D03*
X015844Y017900D03*
X015844Y021601D03*
X015844Y024150D03*
X015844Y027851D03*
X024449Y005969D03*
X028150Y005969D03*
D11*
X026300Y006331D03*
X026300Y003985D03*
X016206Y007250D03*
X013860Y007250D03*
X013860Y013500D03*
X016206Y013500D03*
X016206Y019750D03*
X013860Y019750D03*
X013860Y026000D03*
X016206Y026000D03*
D12*
X029936Y004027D02*
X029936Y003023D01*
X031495Y003023D02*
X031495Y004027D01*
X033055Y004027D02*
X033055Y003023D01*
X034614Y003023D02*
X034614Y004027D01*
D13*
X001650Y001775D03*
X038150Y001775D03*
X038150Y030275D03*
X001650Y030275D03*
D14*
X037650Y027775D03*
X038650Y027775D03*
X038650Y026775D03*
X037650Y026775D03*
X037650Y025775D03*
X038650Y025775D03*
X038650Y024775D03*
X037650Y024775D03*
X037650Y023775D03*
X038650Y023775D03*
X038650Y022775D03*
X037650Y022775D03*
X037650Y021775D03*
X038650Y021775D03*
X038650Y020775D03*
X037650Y020775D03*
X037650Y019775D03*
X038650Y019775D03*
X038650Y018775D03*
X037650Y018775D03*
X037650Y017775D03*
X038650Y017775D03*
X038650Y016775D03*
X037650Y016775D03*
X037650Y015775D03*
X038650Y015775D03*
X038650Y014775D03*
X037650Y014775D03*
X037650Y013775D03*
X038650Y013775D03*
X038650Y012775D03*
X037650Y012775D03*
X037650Y011775D03*
X038650Y011775D03*
X038650Y010775D03*
X037650Y010775D03*
X037650Y009775D03*
X038650Y009775D03*
X038650Y008775D03*
X037650Y008775D03*
X037650Y007775D03*
X038650Y007775D03*
X038650Y006775D03*
X037650Y006775D03*
X037650Y005775D03*
X038650Y005775D03*
X038650Y004775D03*
X037650Y004775D03*
X037650Y003775D03*
X038650Y003775D03*
D15*
X035250Y019275D03*
D16*
X035250Y018275D03*
X035250Y017275D03*
X035250Y016275D03*
D17*
X037050Y014275D03*
X037050Y013275D03*
X031275Y013525D03*
X031275Y014150D03*
X029525Y013650D03*
X028025Y013275D03*
X027025Y013525D03*
X027025Y014150D03*
X026400Y014150D03*
X025275Y013775D03*
X024650Y015775D03*
X025275Y016900D03*
X028275Y017150D03*
X029400Y016900D03*
X030525Y015775D03*
X031900Y017650D03*
X031150Y019025D03*
X032775Y020275D03*
X034275Y021650D03*
X034275Y022275D03*
X033025Y022900D03*
X032525Y021900D03*
X031150Y023150D03*
X031650Y023900D03*
X032525Y025025D03*
X030400Y025525D03*
X030400Y026900D03*
X031400Y027150D03*
X031400Y027775D03*
X032025Y027650D03*
X032650Y028275D03*
X033025Y027525D03*
X029588Y028963D03*
X026900Y025900D03*
X025400Y026900D03*
X025400Y027900D03*
X021400Y028025D03*
X017650Y024775D03*
X017650Y024025D03*
X020775Y022525D03*
X017650Y021150D03*
X017650Y017775D03*
X017650Y015025D03*
X020900Y016400D03*
X017650Y011525D03*
X020900Y010025D03*
X017650Y008525D03*
X017650Y005275D03*
X024525Y009650D03*
X024650Y010900D03*
X025400Y011525D03*
X027900Y009650D03*
X028525Y009900D03*
X029525Y010775D03*
X029900Y010150D03*
X031150Y011775D03*
X030400Y011900D03*
X026025Y009275D03*
X026400Y007775D03*
X027775Y007150D03*
X028400Y008525D03*
X031275Y008150D03*
X031200Y007575D03*
X032150Y008475D03*
X033650Y008275D03*
X032600Y006025D03*
D18*
X036150Y014775D03*
X036800Y015275D03*
X033300Y018225D03*
X034050Y019275D03*
M02*
