G75*
G70*
%OFA0B0*%
%FSLAX24Y24*%
%IPPOS*%
%LPD*%
%AMOC8*
5,1,8,0,0,1.08239X$1,22.5*
%
%ADD10OC8,0.0827*%
%ADD11C,0.1004*%
%ADD12OC8,0.0594*%
%ADD13R,0.0740X0.0740*%
%ADD14C,0.0740*%
%ADD15C,0.0396*%
%ADD16C,0.0100*%
%ADD17C,0.0360*%
%ADD18C,0.1000*%
%ADD19C,0.0120*%
D10*
X013860Y007250D03*
X016206Y007250D03*
X016206Y013500D03*
X013860Y013500D03*
X013860Y019750D03*
X016206Y019750D03*
X016206Y026000D03*
X013860Y026000D03*
X026300Y006331D03*
X026300Y003985D03*
D11*
X029936Y004027D02*
X029936Y003023D01*
X031495Y003023D02*
X031495Y004027D01*
X033055Y004027D02*
X033055Y003023D01*
X034614Y003023D02*
X034614Y004027D01*
D12*
X037650Y003775D03*
X038650Y003775D03*
X038650Y004775D03*
X037650Y004775D03*
X037650Y005775D03*
X038650Y005775D03*
X038650Y006775D03*
X037650Y006775D03*
X037650Y007775D03*
X038650Y007775D03*
X038650Y008775D03*
X037650Y008775D03*
X037650Y009775D03*
X038650Y009775D03*
X038650Y010775D03*
X037650Y010775D03*
X037650Y011775D03*
X038650Y011775D03*
X038650Y012775D03*
X037650Y012775D03*
X037650Y013775D03*
X038650Y013775D03*
X038650Y014775D03*
X037650Y014775D03*
X037650Y015775D03*
X038650Y015775D03*
X038650Y016775D03*
X037650Y016775D03*
X037650Y017775D03*
X038650Y017775D03*
X038650Y018775D03*
X037650Y018775D03*
X037650Y019775D03*
X038650Y019775D03*
X038650Y020775D03*
X037650Y020775D03*
X037650Y021775D03*
X038650Y021775D03*
X038650Y022775D03*
X037650Y022775D03*
X037650Y023775D03*
X038650Y023775D03*
X038650Y024775D03*
X037650Y024775D03*
X037650Y025775D03*
X038650Y025775D03*
X038650Y026775D03*
X037650Y026775D03*
X037650Y027775D03*
X038650Y027775D03*
D13*
X035250Y019275D03*
D14*
X035250Y018275D03*
X035250Y017275D03*
X035250Y016275D03*
D15*
X037050Y014275D03*
X037050Y013275D03*
X031275Y013525D03*
X031275Y014150D03*
X029525Y013650D03*
X028025Y013275D03*
X027025Y013525D03*
X027025Y014150D03*
X026400Y014150D03*
X025275Y013775D03*
X024650Y015775D03*
X025275Y016900D03*
X028275Y017150D03*
X029400Y016900D03*
X030525Y015775D03*
X031900Y017650D03*
X031150Y019025D03*
X032775Y020275D03*
X034275Y021650D03*
X034275Y022275D03*
X033025Y022900D03*
X032525Y021900D03*
X031150Y023150D03*
X031650Y023900D03*
X032525Y025025D03*
X030400Y025525D03*
X030400Y026900D03*
X031400Y027150D03*
X031400Y027775D03*
X032025Y027650D03*
X032650Y028275D03*
X033025Y027525D03*
X029588Y028963D03*
X026900Y025900D03*
X025400Y026900D03*
X025400Y027900D03*
X021400Y028025D03*
X017650Y024775D03*
X017650Y024025D03*
X020775Y022525D03*
X017650Y021150D03*
X017650Y017775D03*
X017650Y015025D03*
X020900Y016400D03*
X017650Y011525D03*
X020900Y010025D03*
X017650Y008525D03*
X017650Y005275D03*
X024525Y009650D03*
X024650Y010900D03*
X025400Y011525D03*
X027900Y009650D03*
X028525Y009900D03*
X029525Y010775D03*
X029900Y010150D03*
X031150Y011775D03*
X030400Y011900D03*
X026025Y009275D03*
X026400Y007775D03*
X027775Y007150D03*
X028400Y008525D03*
X031275Y008150D03*
X031200Y007575D03*
X032150Y008475D03*
X033650Y008275D03*
X032600Y006025D03*
D16*
X002075Y000750D02*
X001981Y000725D01*
X037819Y000725D01*
X037725Y000750D01*
X037475Y000895D01*
X037270Y001100D01*
X037125Y001350D01*
X037050Y001630D01*
X037050Y001920D01*
X037125Y002200D01*
X037270Y002450D01*
X037475Y002655D01*
X037725Y002800D01*
X038005Y002875D01*
X038295Y002875D01*
X038575Y002800D01*
X038825Y002655D01*
X039030Y002450D01*
X039175Y002200D01*
X039250Y001920D01*
X039250Y001630D01*
X039175Y001350D01*
X039030Y001100D01*
X038825Y000895D01*
X038575Y000750D01*
X038481Y000725D01*
X039701Y000725D01*
X039700Y031325D01*
X038481Y031325D01*
X038575Y031300D01*
X038825Y031155D01*
X039030Y030950D01*
X039175Y030700D01*
X039250Y030420D01*
X039250Y030130D01*
X039175Y029850D01*
X039030Y029600D01*
X038825Y029395D01*
X038575Y029250D01*
X038295Y029175D01*
X038005Y029175D01*
X037725Y029250D01*
X037475Y029395D01*
X037270Y029600D01*
X037125Y029850D01*
X037050Y030130D01*
X037050Y030420D01*
X037125Y030700D01*
X037270Y030950D01*
X037475Y031155D01*
X037725Y031300D01*
X037819Y031325D01*
X001981Y031325D01*
X002075Y031300D01*
X002325Y031155D01*
X002530Y030950D01*
X002675Y030700D01*
X002750Y030420D01*
X002750Y030130D01*
X002675Y029850D01*
X002530Y029600D01*
X002325Y029395D01*
X002075Y029250D01*
X001795Y029175D01*
X001505Y029175D01*
X001225Y029250D01*
X000975Y029395D01*
X000770Y029600D01*
X000625Y029850D01*
X000600Y029944D01*
X000600Y002106D01*
X000625Y002200D01*
X000770Y002450D01*
X000975Y002655D01*
X001225Y002800D01*
X001505Y002875D01*
X001795Y002875D01*
X002075Y002800D01*
X002325Y002655D01*
X002530Y002450D01*
X002675Y002200D01*
X002750Y001920D01*
X002750Y001630D01*
X002675Y001350D01*
X002530Y001100D01*
X002325Y000895D01*
X002075Y000750D01*
X002105Y000768D02*
X037695Y000768D01*
X037524Y000866D02*
X002276Y000866D01*
X002395Y000965D02*
X037405Y000965D01*
X037306Y001063D02*
X002494Y001063D01*
X002566Y001162D02*
X037234Y001162D01*
X037177Y001260D02*
X002623Y001260D01*
X002677Y001359D02*
X037123Y001359D01*
X037096Y001457D02*
X002704Y001457D01*
X002730Y001556D02*
X037070Y001556D01*
X037050Y001654D02*
X002750Y001654D01*
X002750Y001753D02*
X037050Y001753D01*
X037050Y001851D02*
X002750Y001851D01*
X002742Y001950D02*
X037058Y001950D01*
X037084Y002048D02*
X002716Y002048D01*
X002689Y002147D02*
X037111Y002147D01*
X037151Y002245D02*
X002649Y002245D01*
X002592Y002344D02*
X037208Y002344D01*
X037265Y002442D02*
X034911Y002442D01*
X034903Y002437D02*
X034977Y002480D01*
X035044Y002532D01*
X035105Y002592D01*
X035157Y002660D01*
X035200Y002734D01*
X035232Y002813D01*
X035254Y002896D01*
X035266Y002980D01*
X035266Y003475D01*
X034664Y003475D01*
X034664Y003575D01*
X035266Y003575D01*
X035266Y004070D01*
X035254Y004154D01*
X035232Y004237D01*
X035200Y004316D01*
X035157Y004390D01*
X035105Y004458D01*
X035044Y004518D01*
X034977Y004570D01*
X034903Y004613D01*
X034824Y004646D01*
X034741Y004668D01*
X034664Y004678D01*
X034664Y003575D01*
X034564Y003575D01*
X034564Y004678D01*
X034486Y004668D01*
X034404Y004646D01*
X034325Y004613D01*
X034251Y004570D01*
X034183Y004518D01*
X034122Y004458D01*
X034070Y004390D01*
X034028Y004316D01*
X033995Y004237D01*
X033973Y004154D01*
X033962Y004070D01*
X033962Y003575D01*
X034564Y003575D01*
X034564Y003475D01*
X034664Y003475D01*
X034664Y002372D01*
X034741Y002382D01*
X034824Y002404D01*
X034903Y002437D01*
X035053Y002541D02*
X037360Y002541D01*
X037458Y002639D02*
X035141Y002639D01*
X035201Y002738D02*
X037617Y002738D01*
X037860Y002836D02*
X035238Y002836D01*
X035260Y002935D02*
X039701Y002935D01*
X039701Y003033D02*
X035266Y003033D01*
X035266Y003132D02*
X039701Y003132D01*
X039701Y003230D02*
X035266Y003230D01*
X035266Y003329D02*
X039701Y003329D01*
X039701Y003427D02*
X038906Y003427D01*
X038827Y003348D02*
X039077Y003598D01*
X039077Y003952D01*
X038827Y004202D01*
X038473Y004202D01*
X038223Y003952D01*
X038223Y003598D01*
X038473Y003348D01*
X038827Y003348D01*
X039004Y003526D02*
X039701Y003526D01*
X039701Y003624D02*
X039077Y003624D01*
X039077Y003723D02*
X039701Y003723D01*
X039701Y003821D02*
X039077Y003821D01*
X039077Y003920D02*
X039701Y003920D01*
X039701Y004018D02*
X039011Y004018D01*
X038912Y004117D02*
X039701Y004117D01*
X039701Y004215D02*
X035238Y004215D01*
X035259Y004117D02*
X037388Y004117D01*
X037473Y004202D02*
X037223Y003952D01*
X037223Y003598D01*
X037473Y003348D01*
X037827Y003348D01*
X038077Y003598D01*
X038077Y003952D01*
X037827Y004202D01*
X037473Y004202D01*
X037473Y004348D02*
X037827Y004348D01*
X038077Y004598D01*
X038077Y004952D01*
X037827Y005202D01*
X037473Y005202D01*
X037223Y004952D01*
X037223Y004598D01*
X037473Y004348D01*
X037409Y004412D02*
X035140Y004412D01*
X035201Y004314D02*
X039701Y004314D01*
X039701Y004412D02*
X038891Y004412D01*
X038827Y004348D02*
X039077Y004598D01*
X039077Y004952D01*
X038827Y005202D01*
X038473Y005202D01*
X038223Y004952D01*
X038223Y004598D01*
X038473Y004348D01*
X038827Y004348D01*
X038989Y004511D02*
X039701Y004511D01*
X039701Y004609D02*
X039077Y004609D01*
X039077Y004708D02*
X039701Y004708D01*
X039701Y004806D02*
X039077Y004806D01*
X039077Y004905D02*
X039701Y004905D01*
X039701Y005003D02*
X039026Y005003D01*
X038927Y005102D02*
X039701Y005102D01*
X039701Y005200D02*
X038829Y005200D01*
X038827Y005348D02*
X039077Y005598D01*
X039077Y005952D01*
X038827Y006202D01*
X038473Y006202D01*
X038223Y005952D01*
X038223Y005598D01*
X038473Y005348D01*
X038827Y005348D01*
X038876Y005397D02*
X039701Y005397D01*
X039701Y005299D02*
X028951Y005299D01*
X028983Y005330D02*
X029120Y005567D01*
X029191Y005832D01*
X029191Y006106D01*
X029120Y006371D01*
X028983Y006608D01*
X028789Y006802D01*
X028552Y006939D01*
X028287Y007009D01*
X028072Y007009D01*
X028103Y007085D01*
X028103Y007215D01*
X028053Y007336D01*
X027961Y007428D01*
X027840Y007478D01*
X027710Y007478D01*
X027589Y007428D01*
X027497Y007336D01*
X027494Y007330D01*
X023700Y007330D01*
X021825Y005455D01*
X017931Y005455D01*
X017928Y005461D01*
X017836Y005553D01*
X017715Y005603D01*
X017585Y005603D01*
X017464Y005553D01*
X017372Y005461D01*
X017322Y005340D01*
X017322Y005210D01*
X017372Y005089D01*
X017464Y004997D01*
X017585Y004947D01*
X017715Y004947D01*
X017836Y004997D01*
X017928Y005089D01*
X017931Y005095D01*
X021975Y005095D01*
X022080Y005200D01*
X023747Y005200D01*
X023810Y005136D02*
X024048Y004999D01*
X024312Y004928D01*
X024586Y004928D01*
X024851Y004999D01*
X025088Y005136D01*
X025282Y005330D01*
X025419Y005567D01*
X025490Y005832D01*
X025490Y006106D01*
X025419Y006371D01*
X025282Y006608D01*
X025088Y006802D01*
X024851Y006939D01*
X024733Y006970D01*
X027494Y006970D01*
X027497Y006964D01*
X027589Y006872D01*
X027615Y006861D01*
X027511Y006802D01*
X027317Y006608D01*
X027180Y006371D01*
X027109Y006106D01*
X027109Y005832D01*
X027180Y005567D01*
X027317Y005330D01*
X027511Y005136D01*
X027748Y004999D01*
X028013Y004928D01*
X028287Y004928D01*
X028552Y004999D01*
X028789Y005136D01*
X028983Y005330D01*
X029021Y005397D02*
X037424Y005397D01*
X037473Y005348D02*
X037223Y005598D01*
X037223Y005952D01*
X037473Y006202D01*
X037827Y006202D01*
X038077Y005952D01*
X038077Y005598D01*
X037827Y005348D01*
X037473Y005348D01*
X037471Y005200D02*
X028853Y005200D01*
X028729Y005102D02*
X037373Y005102D01*
X037274Y005003D02*
X028558Y005003D01*
X029078Y005496D02*
X037326Y005496D01*
X037227Y005594D02*
X029127Y005594D01*
X029153Y005693D02*
X037223Y005693D01*
X037223Y005791D02*
X029180Y005791D01*
X029191Y005890D02*
X037223Y005890D01*
X037259Y005988D02*
X029191Y005988D01*
X029191Y006087D02*
X037358Y006087D01*
X037456Y006185D02*
X029169Y006185D01*
X029143Y006284D02*
X039701Y006284D01*
X039701Y006382D02*
X038861Y006382D01*
X038827Y006348D02*
X039077Y006598D01*
X039077Y006952D01*
X038827Y007202D01*
X038473Y007202D01*
X038223Y006952D01*
X038223Y006598D01*
X038473Y006348D01*
X038827Y006348D01*
X038844Y006185D02*
X039701Y006185D01*
X039701Y006087D02*
X038942Y006087D01*
X039041Y005988D02*
X039701Y005988D01*
X039701Y005890D02*
X039077Y005890D01*
X039077Y005791D02*
X039701Y005791D01*
X039701Y005693D02*
X039077Y005693D01*
X039073Y005594D02*
X039701Y005594D01*
X039701Y005496D02*
X038974Y005496D01*
X038424Y005397D02*
X037876Y005397D01*
X037974Y005496D02*
X038326Y005496D01*
X038227Y005594D02*
X038073Y005594D01*
X038077Y005693D02*
X038223Y005693D01*
X038223Y005791D02*
X038077Y005791D01*
X038077Y005890D02*
X038223Y005890D01*
X038259Y005988D02*
X038041Y005988D01*
X037942Y006087D02*
X038358Y006087D01*
X038456Y006185D02*
X037844Y006185D01*
X037827Y006348D02*
X038077Y006598D01*
X038077Y006952D01*
X037827Y007202D01*
X037473Y007202D01*
X037223Y006952D01*
X037223Y006598D01*
X037473Y006348D01*
X037827Y006348D01*
X037861Y006382D02*
X038439Y006382D01*
X038341Y006481D02*
X037959Y006481D01*
X038058Y006579D02*
X038242Y006579D01*
X038223Y006678D02*
X038077Y006678D01*
X038077Y006776D02*
X038223Y006776D01*
X038223Y006875D02*
X038077Y006875D01*
X038056Y006973D02*
X038244Y006973D01*
X038343Y007072D02*
X037957Y007072D01*
X037859Y007170D02*
X038441Y007170D01*
X038473Y007348D02*
X038223Y007598D01*
X038223Y007952D01*
X038473Y008202D01*
X038827Y008202D01*
X039077Y007952D01*
X039077Y007598D01*
X038827Y007348D01*
X038473Y007348D01*
X038454Y007367D02*
X037846Y007367D01*
X037827Y007348D02*
X038077Y007598D01*
X038077Y007952D01*
X037827Y008202D01*
X037473Y008202D01*
X037223Y007952D01*
X037223Y007598D01*
X037473Y007348D01*
X037827Y007348D01*
X037944Y007466D02*
X038356Y007466D01*
X038257Y007564D02*
X038043Y007564D01*
X038077Y007663D02*
X038223Y007663D01*
X038223Y007761D02*
X038077Y007761D01*
X038077Y007860D02*
X038223Y007860D01*
X038229Y007958D02*
X038071Y007958D01*
X037972Y008057D02*
X038328Y008057D01*
X038426Y008155D02*
X037874Y008155D01*
X037827Y008348D02*
X038077Y008598D01*
X038077Y008952D01*
X037827Y009202D01*
X037473Y009202D01*
X037223Y008952D01*
X037223Y008598D01*
X037473Y008348D01*
X037827Y008348D01*
X037831Y008352D02*
X038469Y008352D01*
X038473Y008348D02*
X038827Y008348D01*
X039077Y008598D01*
X039077Y008952D01*
X038827Y009202D01*
X038473Y009202D01*
X038223Y008952D01*
X038223Y008598D01*
X038473Y008348D01*
X038371Y008451D02*
X037929Y008451D01*
X038028Y008549D02*
X038272Y008549D01*
X038223Y008648D02*
X038077Y008648D01*
X038077Y008746D02*
X038223Y008746D01*
X038223Y008845D02*
X038077Y008845D01*
X038077Y008943D02*
X038223Y008943D01*
X038313Y009042D02*
X037987Y009042D01*
X037889Y009140D02*
X038411Y009140D01*
X038473Y009348D02*
X038827Y009348D01*
X039077Y009598D01*
X039077Y009952D01*
X038827Y010202D01*
X038473Y010202D01*
X038223Y009952D01*
X038223Y009598D01*
X038473Y009348D01*
X038386Y009436D02*
X037914Y009436D01*
X037827Y009348D02*
X038077Y009598D01*
X038077Y009952D01*
X037827Y010202D01*
X037473Y010202D01*
X037223Y009952D01*
X037223Y009598D01*
X037473Y009348D01*
X037827Y009348D01*
X038013Y009534D02*
X038287Y009534D01*
X038223Y009633D02*
X038077Y009633D01*
X038077Y009731D02*
X038223Y009731D01*
X038223Y009830D02*
X038077Y009830D01*
X038077Y009928D02*
X038223Y009928D01*
X038298Y010027D02*
X038002Y010027D01*
X037904Y010125D02*
X038396Y010125D01*
X038473Y010348D02*
X038827Y010348D01*
X039077Y010598D01*
X039077Y010952D01*
X038827Y011202D01*
X038478Y011202D01*
X038340Y011340D01*
X038340Y011354D01*
X038229Y011465D01*
X037944Y011465D01*
X038077Y011598D01*
X038077Y011952D01*
X037827Y012202D01*
X037473Y012202D01*
X037223Y011952D01*
X037223Y011598D01*
X037356Y011465D01*
X037071Y011465D01*
X036960Y011354D01*
X036460Y010854D01*
X036460Y008354D01*
X036071Y007965D01*
X034229Y007965D01*
X033978Y008216D01*
X033978Y008340D01*
X033928Y008461D01*
X033836Y008553D01*
X033715Y008603D01*
X033585Y008603D01*
X033464Y008553D01*
X033372Y008461D01*
X033322Y008340D01*
X033322Y008210D01*
X033372Y008089D01*
X033464Y007997D01*
X033585Y007947D01*
X033709Y007947D01*
X033960Y007696D01*
X034071Y007585D01*
X036229Y007585D01*
X036729Y008085D01*
X036840Y008196D01*
X036840Y010696D01*
X037229Y011085D01*
X037356Y011085D01*
X037223Y010952D01*
X037223Y010598D01*
X037473Y010348D01*
X037827Y010348D01*
X038077Y010598D01*
X038077Y010952D01*
X037944Y011085D01*
X038085Y011085D01*
X038223Y010947D01*
X038223Y010598D01*
X038473Y010348D01*
X038401Y010421D02*
X037899Y010421D01*
X037998Y010519D02*
X038302Y010519D01*
X038223Y010618D02*
X038077Y010618D01*
X038077Y010716D02*
X038223Y010716D01*
X038223Y010815D02*
X038077Y010815D01*
X038077Y010913D02*
X038223Y010913D01*
X038159Y011012D02*
X038017Y011012D01*
X038150Y011275D02*
X038650Y010775D01*
X039077Y010815D02*
X039701Y010815D01*
X039701Y010913D02*
X039077Y010913D01*
X039017Y011012D02*
X039701Y011012D01*
X039701Y011110D02*
X038919Y011110D01*
X038827Y011348D02*
X038473Y011348D01*
X038223Y011598D01*
X038223Y011952D01*
X038473Y012202D01*
X038827Y012202D01*
X039077Y011952D01*
X039077Y011598D01*
X038827Y011348D01*
X038884Y011406D02*
X039701Y011406D01*
X039701Y011504D02*
X038983Y011504D01*
X039077Y011603D02*
X039701Y011603D01*
X039701Y011701D02*
X039077Y011701D01*
X039077Y011800D02*
X039701Y011800D01*
X039701Y011898D02*
X039077Y011898D01*
X039032Y011997D02*
X039701Y011997D01*
X039701Y012095D02*
X038934Y012095D01*
X038835Y012194D02*
X039701Y012194D01*
X039701Y012292D02*
X031051Y012292D01*
X031078Y012349D02*
X030955Y012086D01*
X030955Y010950D01*
X030850Y010845D01*
X030226Y010221D01*
X030228Y010215D01*
X030228Y010085D01*
X030178Y009964D01*
X030086Y009872D01*
X029965Y009822D01*
X029858Y009822D01*
X031204Y008476D01*
X031210Y008478D01*
X031340Y008478D01*
X031461Y008428D01*
X031553Y008336D01*
X031598Y008228D01*
X031822Y008451D01*
X031822Y008540D01*
X031872Y008661D01*
X031964Y008753D01*
X032085Y008803D01*
X032215Y008803D01*
X032336Y008753D01*
X032428Y008661D01*
X032478Y008540D01*
X032478Y008410D01*
X032428Y008289D01*
X032336Y008197D01*
X032215Y008147D01*
X032085Y008147D01*
X032044Y008164D01*
X031526Y007646D01*
X031528Y007640D01*
X031528Y007510D01*
X031478Y007389D01*
X031386Y007297D01*
X031265Y007247D01*
X031135Y007247D01*
X031014Y007297D01*
X030922Y007389D01*
X030872Y007510D01*
X030872Y007640D01*
X030922Y007761D01*
X028766Y007761D01*
X028705Y007700D02*
X029080Y008075D01*
X029080Y008725D01*
X028975Y008830D01*
X028226Y009579D01*
X028228Y009585D01*
X028228Y009715D01*
X028178Y009836D01*
X028086Y009928D01*
X028197Y009928D01*
X028197Y009965D02*
X028197Y009835D01*
X028247Y009714D01*
X028339Y009622D01*
X028460Y009572D01*
X028590Y009572D01*
X028711Y009622D01*
X028803Y009714D01*
X028853Y009835D01*
X028853Y009965D01*
X028803Y010086D01*
X028711Y010178D01*
X028590Y010228D01*
X028460Y010228D01*
X028454Y010226D01*
X027205Y011475D01*
X027205Y013244D01*
X027211Y013247D01*
X027303Y013339D01*
X027353Y013460D01*
X027353Y013590D01*
X027303Y013711D01*
X027211Y013803D01*
X027090Y013853D01*
X026960Y013853D01*
X026839Y013803D01*
X026747Y013711D01*
X026697Y013590D01*
X026697Y013460D01*
X026747Y013339D01*
X026839Y013247D01*
X026845Y013244D01*
X026845Y011325D01*
X028199Y009971D01*
X028197Y009965D01*
X028144Y010027D02*
X021228Y010027D01*
X021228Y010090D02*
X021178Y010211D01*
X021086Y010303D01*
X020965Y010353D01*
X020835Y010353D01*
X020714Y010303D01*
X020622Y010211D01*
X020572Y010090D01*
X020572Y009960D01*
X020622Y009839D01*
X020714Y009747D01*
X020835Y009697D01*
X020965Y009697D01*
X020971Y009699D01*
X021200Y009470D01*
X024244Y009470D01*
X024247Y009464D01*
X024339Y009372D01*
X024460Y009322D01*
X024590Y009322D01*
X024711Y009372D01*
X024803Y009464D01*
X024853Y009585D01*
X024853Y009715D01*
X024803Y009836D01*
X024711Y009928D01*
X027714Y009928D01*
X027622Y009836D01*
X027572Y009715D01*
X027572Y009585D01*
X027622Y009464D01*
X027714Y009372D01*
X027835Y009322D01*
X027965Y009322D01*
X027971Y009324D01*
X028442Y008853D01*
X028335Y008853D01*
X028214Y008803D01*
X028122Y008711D01*
X028119Y008705D01*
X017931Y008705D01*
X017928Y008711D01*
X017836Y008803D01*
X017715Y008853D01*
X017585Y008853D01*
X017464Y008803D01*
X017372Y008711D01*
X017322Y008590D01*
X017322Y008460D01*
X017372Y008339D01*
X017464Y008247D01*
X017585Y008197D01*
X017715Y008197D01*
X017836Y008247D01*
X017928Y008339D01*
X017931Y008345D01*
X028119Y008345D01*
X028122Y008339D01*
X028214Y008247D01*
X028335Y008197D01*
X028465Y008197D01*
X028586Y008247D01*
X028678Y008339D01*
X028720Y008440D01*
X028720Y008225D01*
X028450Y007955D01*
X026681Y007955D01*
X026678Y007961D01*
X026586Y008053D01*
X026465Y008103D01*
X026335Y008103D01*
X026214Y008053D01*
X026122Y007961D01*
X026072Y007840D01*
X026072Y007710D01*
X026122Y007589D01*
X026214Y007497D01*
X026335Y007447D01*
X026465Y007447D01*
X026586Y007497D01*
X026678Y007589D01*
X026681Y007595D01*
X028600Y007595D01*
X028705Y007700D01*
X028667Y007663D02*
X030881Y007663D01*
X030872Y007564D02*
X026653Y007564D01*
X026510Y007466D02*
X027679Y007466D01*
X027528Y007367D02*
X016749Y007367D01*
X016749Y007269D02*
X023639Y007269D01*
X023540Y007170D02*
X016749Y007170D01*
X016749Y007072D02*
X023442Y007072D01*
X023343Y006973D02*
X016697Y006973D01*
X016749Y007025D02*
X016431Y006707D01*
X015981Y006707D01*
X015663Y007025D01*
X015663Y007475D01*
X015981Y007794D01*
X016431Y007794D01*
X016749Y007475D01*
X016749Y007025D01*
X016599Y006875D02*
X023245Y006875D01*
X023146Y006776D02*
X016500Y006776D01*
X016246Y006370D02*
X015981Y006441D01*
X015707Y006441D01*
X015442Y006370D01*
X015205Y006233D01*
X015011Y006039D01*
X014874Y005802D01*
X014803Y005537D01*
X014803Y005263D01*
X014874Y004998D01*
X015011Y004761D01*
X015205Y004567D01*
X015442Y004430D01*
X015707Y004359D01*
X015981Y004359D01*
X016246Y004430D01*
X016483Y004567D01*
X016677Y004761D01*
X016814Y004998D01*
X016884Y005263D01*
X016884Y005537D01*
X016814Y005802D01*
X016677Y006039D01*
X016483Y006233D01*
X016246Y006370D01*
X016199Y006382D02*
X022752Y006382D01*
X022654Y006284D02*
X016395Y006284D01*
X016530Y006185D02*
X022555Y006185D01*
X022457Y006087D02*
X016629Y006087D01*
X016706Y005988D02*
X022358Y005988D01*
X022260Y005890D02*
X016763Y005890D01*
X016816Y005791D02*
X022161Y005791D01*
X022063Y005693D02*
X016843Y005693D01*
X016869Y005594D02*
X017563Y005594D01*
X017737Y005594D02*
X021964Y005594D01*
X021866Y005496D02*
X017894Y005496D01*
X017650Y005275D02*
X021900Y005275D01*
X023775Y007150D01*
X027775Y007150D01*
X028081Y007269D02*
X031083Y007269D01*
X030944Y007367D02*
X028022Y007367D01*
X027871Y007466D02*
X030890Y007466D01*
X030922Y007761D02*
X031014Y007853D01*
X031080Y007881D01*
X030997Y007964D01*
X030947Y008085D01*
X030947Y008215D01*
X030949Y008221D01*
X027845Y011325D01*
X027845Y012994D01*
X027839Y012997D01*
X027747Y013089D01*
X027697Y013210D01*
X027697Y013340D01*
X027747Y013461D01*
X027839Y013553D01*
X027960Y013603D01*
X028067Y013603D01*
X027970Y013700D01*
X027970Y015575D01*
X025950Y017595D01*
X017931Y017595D01*
X017928Y017589D01*
X017836Y017497D01*
X017715Y017447D01*
X017585Y017447D01*
X017464Y017497D01*
X017372Y017589D01*
X017322Y017710D01*
X017322Y017840D01*
X017372Y017961D01*
X017464Y018053D01*
X017585Y018103D01*
X017715Y018103D01*
X017836Y018053D01*
X017928Y017961D01*
X017931Y017955D01*
X026100Y017955D01*
X026205Y017850D01*
X028330Y015725D01*
X028330Y013850D01*
X029705Y012475D01*
X029705Y011056D01*
X029711Y011053D01*
X029803Y010961D01*
X029853Y010840D01*
X029853Y010710D01*
X029803Y010589D01*
X029711Y010497D01*
X029590Y010447D01*
X029460Y010447D01*
X029339Y010497D01*
X029247Y010589D01*
X029197Y010710D01*
X029197Y010840D01*
X029247Y010961D01*
X029339Y011053D01*
X029345Y011056D01*
X029345Y012325D01*
X028353Y013317D01*
X028353Y013210D01*
X028303Y013089D01*
X028211Y012997D01*
X028205Y012994D01*
X028205Y011475D01*
X029572Y010108D01*
X029572Y010215D01*
X029622Y010336D01*
X029714Y010428D01*
X029835Y010478D01*
X029965Y010478D01*
X029971Y010476D01*
X030595Y011100D01*
X030595Y011631D01*
X030586Y011622D01*
X030465Y011572D01*
X030335Y011572D01*
X030214Y011622D01*
X030122Y011714D01*
X030072Y011835D01*
X030072Y011965D01*
X030122Y012086D01*
X030214Y012178D01*
X030220Y012181D01*
X030220Y012656D01*
X030198Y012765D01*
X030220Y012798D01*
X030220Y012800D01*
X030224Y012804D01*
X030399Y013065D01*
X030398Y013066D01*
X030442Y013131D01*
X030486Y013196D01*
X030486Y013196D01*
X030487Y013197D01*
X030563Y013211D01*
X030640Y013227D01*
X030640Y013226D01*
X031033Y013303D01*
X030997Y013339D01*
X030947Y013460D01*
X030947Y013590D01*
X030997Y013711D01*
X031089Y013803D01*
X031210Y013853D01*
X031340Y013853D01*
X031346Y013851D01*
X032595Y015100D01*
X032595Y015950D01*
X032575Y015970D01*
X032470Y016075D01*
X032470Y017470D01*
X032181Y017470D01*
X032178Y017464D01*
X032086Y017372D01*
X031965Y017322D01*
X031835Y017322D01*
X031714Y017372D01*
X031622Y017464D01*
X031572Y017585D01*
X031572Y017715D01*
X031622Y017836D01*
X031714Y017928D01*
X031835Y017978D01*
X031965Y017978D01*
X032086Y017928D01*
X032178Y017836D01*
X032181Y017830D01*
X032460Y017830D01*
X032460Y019354D01*
X032571Y019465D01*
X032960Y019854D01*
X032960Y019996D01*
X032840Y019947D01*
X032710Y019947D01*
X032589Y019997D01*
X032497Y020089D01*
X032494Y020095D01*
X026575Y020095D01*
X026470Y020200D01*
X022825Y023845D01*
X017931Y023845D01*
X017928Y023839D01*
X017836Y023747D01*
X017715Y023697D01*
X017585Y023697D01*
X017464Y023747D01*
X017372Y023839D01*
X017322Y023960D01*
X017322Y024090D01*
X017372Y024211D01*
X017464Y024303D01*
X017585Y024353D01*
X017715Y024353D01*
X017836Y024303D01*
X017928Y024211D01*
X017931Y024205D01*
X022965Y024205D01*
X022575Y024595D01*
X017931Y024595D01*
X017928Y024589D01*
X017836Y024497D01*
X017715Y024447D01*
X017585Y024447D01*
X017464Y024497D01*
X017372Y024589D01*
X017322Y024710D01*
X017322Y024840D01*
X017372Y024961D01*
X017464Y025053D01*
X017585Y025103D01*
X017715Y025103D01*
X017836Y025053D01*
X017928Y024961D01*
X017931Y024955D01*
X022725Y024955D01*
X022830Y024850D01*
X024225Y023455D01*
X026725Y023455D01*
X028100Y022080D01*
X032244Y022080D01*
X032247Y022086D01*
X032339Y022178D01*
X032460Y022228D01*
X032590Y022228D01*
X032711Y022178D01*
X032803Y022086D01*
X032853Y021965D01*
X032853Y021835D01*
X032803Y021714D01*
X032711Y021622D01*
X032590Y021572D01*
X032460Y021572D01*
X032339Y021622D01*
X032247Y021714D01*
X032244Y021720D01*
X027950Y021720D01*
X027845Y021825D01*
X026575Y023095D01*
X024085Y023095D01*
X026725Y020455D01*
X032494Y020455D01*
X032497Y020461D01*
X032589Y020553D01*
X032710Y020603D01*
X032840Y020603D01*
X032960Y020554D01*
X032960Y020604D01*
X033071Y020715D01*
X033947Y021591D01*
X033947Y021715D01*
X033997Y021836D01*
X034089Y021928D01*
X034210Y021978D01*
X034340Y021978D01*
X034461Y021928D01*
X034553Y021836D01*
X034603Y021715D01*
X034603Y021585D01*
X034553Y021464D01*
X034461Y021372D01*
X034455Y021369D01*
X034455Y019425D01*
X034360Y019330D01*
X034360Y019213D01*
X034313Y019099D01*
X034226Y019012D01*
X034112Y018965D01*
X033988Y018965D01*
X033874Y019012D01*
X033787Y019099D01*
X033740Y019213D01*
X033740Y019337D01*
X033787Y019451D01*
X033874Y019538D01*
X033988Y019585D01*
X034095Y019585D01*
X034095Y021201D01*
X033340Y020446D01*
X033340Y019696D01*
X032840Y019196D01*
X032840Y017571D01*
X032830Y017561D01*
X032830Y016225D01*
X032850Y016205D01*
X032850Y016205D01*
X032955Y016100D01*
X032955Y014950D01*
X031601Y013596D01*
X031603Y013590D01*
X031603Y013460D01*
X031582Y013409D01*
X036751Y014411D01*
X036772Y014461D01*
X036864Y014553D01*
X036985Y014603D01*
X037115Y014603D01*
X037236Y014553D01*
X037328Y014461D01*
X037378Y014340D01*
X037378Y014210D01*
X037328Y014089D01*
X037236Y013997D01*
X037115Y013947D01*
X036985Y013947D01*
X036864Y013997D01*
X036823Y014038D01*
X030714Y012854D01*
X030580Y012652D01*
X030580Y012181D01*
X030595Y012214D01*
X030595Y012225D01*
X030605Y012234D01*
X030755Y012556D01*
X030752Y012580D01*
X030787Y012625D01*
X030811Y012677D01*
X030834Y012685D01*
X030849Y012704D01*
X030905Y012711D01*
X030959Y012730D01*
X030981Y012720D01*
X036759Y013431D01*
X036772Y013461D01*
X036864Y013553D01*
X036985Y013603D01*
X037115Y013603D01*
X037236Y013553D01*
X037328Y013461D01*
X037378Y013340D01*
X037378Y013210D01*
X037328Y013089D01*
X037236Y012997D01*
X037115Y012947D01*
X036985Y012947D01*
X036864Y012997D01*
X036807Y013054D01*
X031078Y012349D01*
X031005Y012194D02*
X037465Y012194D01*
X037366Y012095D02*
X030959Y012095D01*
X030955Y011997D02*
X037268Y011997D01*
X037223Y011898D02*
X030955Y011898D01*
X030955Y011800D02*
X037223Y011800D01*
X037223Y011701D02*
X030955Y011701D01*
X030955Y011603D02*
X037223Y011603D01*
X037317Y011504D02*
X030955Y011504D01*
X030955Y011406D02*
X037012Y011406D01*
X036913Y011307D02*
X030955Y011307D01*
X030955Y011209D02*
X036815Y011209D01*
X036716Y011110D02*
X030955Y011110D01*
X030955Y011012D02*
X036618Y011012D01*
X036519Y010913D02*
X030918Y010913D01*
X030819Y010815D02*
X036460Y010815D01*
X036460Y010716D02*
X030721Y010716D01*
X030622Y010618D02*
X036460Y010618D01*
X036460Y010519D02*
X030524Y010519D01*
X030425Y010421D02*
X036460Y010421D01*
X036460Y010322D02*
X030327Y010322D01*
X030228Y010224D02*
X036460Y010224D01*
X036460Y010125D02*
X030228Y010125D01*
X030204Y010027D02*
X036460Y010027D01*
X036460Y009928D02*
X030142Y009928D01*
X029984Y009830D02*
X036460Y009830D01*
X036460Y009731D02*
X029949Y009731D01*
X030047Y009633D02*
X036460Y009633D01*
X036460Y009534D02*
X030146Y009534D01*
X030244Y009436D02*
X036460Y009436D01*
X036460Y009337D02*
X030343Y009337D01*
X030441Y009239D02*
X036460Y009239D01*
X036460Y009140D02*
X030540Y009140D01*
X030638Y009042D02*
X036460Y009042D01*
X036460Y008943D02*
X030737Y008943D01*
X030835Y008845D02*
X036460Y008845D01*
X036460Y008746D02*
X032343Y008746D01*
X032434Y008648D02*
X036460Y008648D01*
X036460Y008549D02*
X033840Y008549D01*
X033932Y008451D02*
X036460Y008451D01*
X036458Y008352D02*
X033973Y008352D01*
X033978Y008254D02*
X036360Y008254D01*
X036261Y008155D02*
X034039Y008155D01*
X034137Y008057D02*
X036163Y008057D01*
X036405Y007761D02*
X037223Y007761D01*
X037223Y007663D02*
X036306Y007663D01*
X036503Y007860D02*
X037223Y007860D01*
X037229Y007958D02*
X036602Y007958D01*
X036700Y008057D02*
X037328Y008057D01*
X037426Y008155D02*
X036799Y008155D01*
X036840Y008254D02*
X039701Y008254D01*
X039701Y008352D02*
X038831Y008352D01*
X038929Y008451D02*
X039701Y008451D01*
X039701Y008549D02*
X039028Y008549D01*
X039077Y008648D02*
X039701Y008648D01*
X039701Y008746D02*
X039077Y008746D01*
X039077Y008845D02*
X039701Y008845D01*
X039701Y008943D02*
X039077Y008943D01*
X038987Y009042D02*
X039701Y009042D01*
X039701Y009140D02*
X038889Y009140D01*
X038914Y009436D02*
X039701Y009436D01*
X039701Y009534D02*
X039013Y009534D01*
X039077Y009633D02*
X039701Y009633D01*
X039701Y009731D02*
X039077Y009731D01*
X039077Y009830D02*
X039701Y009830D01*
X039701Y009928D02*
X039077Y009928D01*
X039002Y010027D02*
X039701Y010027D01*
X039701Y010125D02*
X038904Y010125D01*
X038899Y010421D02*
X039701Y010421D01*
X039701Y010519D02*
X038998Y010519D01*
X039077Y010618D02*
X039701Y010618D01*
X039701Y010716D02*
X039077Y010716D01*
X039701Y010322D02*
X036840Y010322D01*
X036840Y010224D02*
X039701Y010224D01*
X039701Y009337D02*
X036840Y009337D01*
X036840Y009239D02*
X039701Y009239D01*
X039701Y008155D02*
X038874Y008155D01*
X038972Y008057D02*
X039701Y008057D01*
X039701Y007958D02*
X039071Y007958D01*
X039077Y007860D02*
X039701Y007860D01*
X039701Y007761D02*
X039077Y007761D01*
X039077Y007663D02*
X039701Y007663D01*
X039701Y007564D02*
X039043Y007564D01*
X038944Y007466D02*
X039701Y007466D01*
X039701Y007367D02*
X038846Y007367D01*
X038859Y007170D02*
X039701Y007170D01*
X039701Y007072D02*
X038957Y007072D01*
X039056Y006973D02*
X039701Y006973D01*
X039701Y006875D02*
X039077Y006875D01*
X039077Y006776D02*
X039701Y006776D01*
X039701Y006678D02*
X039077Y006678D01*
X039058Y006579D02*
X039701Y006579D01*
X039701Y006481D02*
X038959Y006481D01*
X039701Y007269D02*
X031317Y007269D01*
X031456Y007367D02*
X037454Y007367D01*
X037356Y007466D02*
X031510Y007466D01*
X031528Y007564D02*
X037257Y007564D01*
X037441Y007170D02*
X028103Y007170D01*
X028098Y007072D02*
X037343Y007072D01*
X037244Y006973D02*
X028423Y006973D01*
X028663Y006875D02*
X037223Y006875D01*
X037223Y006776D02*
X028814Y006776D01*
X028913Y006678D02*
X037223Y006678D01*
X037242Y006579D02*
X028999Y006579D01*
X029056Y006481D02*
X037341Y006481D01*
X037439Y006382D02*
X029113Y006382D01*
X027586Y006875D02*
X024962Y006875D01*
X025114Y006776D02*
X025976Y006776D01*
X025878Y006678D02*
X025212Y006678D01*
X025298Y006579D02*
X025779Y006579D01*
X025756Y006556D02*
X025756Y006106D01*
X026075Y005788D01*
X026525Y005788D01*
X026843Y006106D01*
X026843Y006556D01*
X026525Y006874D01*
X026075Y006874D01*
X025756Y006556D01*
X025756Y006481D02*
X025355Y006481D01*
X025412Y006382D02*
X025756Y006382D01*
X025756Y006284D02*
X025442Y006284D01*
X025469Y006185D02*
X025756Y006185D01*
X025776Y006087D02*
X025490Y006087D01*
X025490Y005988D02*
X025874Y005988D01*
X025973Y005890D02*
X025490Y005890D01*
X025479Y005791D02*
X026071Y005791D01*
X026528Y005791D02*
X027120Y005791D01*
X027109Y005890D02*
X026626Y005890D01*
X026725Y005988D02*
X027109Y005988D01*
X027109Y006087D02*
X026823Y006087D01*
X026843Y006185D02*
X027131Y006185D01*
X027157Y006284D02*
X026843Y006284D01*
X026843Y006382D02*
X027187Y006382D01*
X027244Y006481D02*
X026843Y006481D01*
X026820Y006579D02*
X027301Y006579D01*
X027387Y006678D02*
X026722Y006678D01*
X026623Y006776D02*
X027486Y006776D01*
X026290Y007466D02*
X016749Y007466D01*
X016661Y007564D02*
X026147Y007564D01*
X026091Y007663D02*
X016562Y007663D01*
X016464Y007761D02*
X026072Y007761D01*
X026080Y007860D02*
X014490Y007860D01*
X014490Y007958D02*
X026121Y007958D01*
X026222Y008057D02*
X014490Y008057D01*
X014490Y008155D02*
X015401Y008155D01*
X015442Y008131D02*
X015707Y008060D01*
X015981Y008060D01*
X016246Y008131D01*
X016483Y008268D01*
X016677Y008462D01*
X016814Y008699D01*
X016884Y008964D01*
X016884Y009238D01*
X016814Y009502D01*
X016677Y009740D01*
X016483Y009933D01*
X016246Y010070D01*
X015981Y010141D01*
X015707Y010141D01*
X015442Y010070D01*
X015205Y009933D01*
X015011Y009740D01*
X014874Y009502D01*
X014803Y009238D01*
X014803Y008964D01*
X014874Y008699D01*
X015011Y008462D01*
X015205Y008268D01*
X015442Y008131D01*
X015230Y008254D02*
X014490Y008254D01*
X014490Y008352D02*
X015121Y008352D01*
X015023Y008451D02*
X014490Y008451D01*
X014490Y008549D02*
X014961Y008549D01*
X014904Y008648D02*
X014490Y008648D01*
X014490Y008746D02*
X014862Y008746D01*
X014835Y008845D02*
X014490Y008845D01*
X014490Y008943D02*
X014809Y008943D01*
X014803Y009042D02*
X014490Y009042D01*
X014490Y009140D02*
X014803Y009140D01*
X014804Y009239D02*
X014490Y009239D01*
X014490Y009337D02*
X014830Y009337D01*
X014856Y009436D02*
X014490Y009436D01*
X014490Y009534D02*
X014893Y009534D01*
X014949Y009633D02*
X014490Y009633D01*
X014490Y009731D02*
X015006Y009731D01*
X015101Y009830D02*
X014490Y009830D01*
X014490Y009928D02*
X015200Y009928D01*
X015366Y010027D02*
X014490Y010027D01*
X014490Y010125D02*
X015646Y010125D01*
X016042Y010125D02*
X020586Y010125D01*
X020572Y010027D02*
X016322Y010027D01*
X016488Y009928D02*
X020585Y009928D01*
X020631Y009830D02*
X016587Y009830D01*
X016682Y009731D02*
X020752Y009731D01*
X021038Y009633D02*
X016738Y009633D01*
X016795Y009534D02*
X021136Y009534D01*
X021275Y009650D02*
X020900Y010025D01*
X020760Y010322D02*
X014490Y010322D01*
X014490Y010224D02*
X020635Y010224D01*
X021040Y010322D02*
X027848Y010322D01*
X027750Y010421D02*
X014490Y010421D01*
X014490Y010519D02*
X027651Y010519D01*
X027553Y010618D02*
X024825Y010618D01*
X024836Y010622D02*
X024928Y010714D01*
X024978Y010835D01*
X024978Y010965D01*
X024928Y011086D01*
X024836Y011178D01*
X024715Y011228D01*
X024701Y011228D01*
X024330Y011600D01*
X024225Y011705D01*
X017931Y011705D01*
X017928Y011711D01*
X017836Y011803D01*
X017715Y011853D01*
X017585Y011853D01*
X017464Y011803D01*
X017372Y011711D01*
X017322Y011590D01*
X017322Y011460D01*
X017372Y011339D01*
X017464Y011247D01*
X017585Y011197D01*
X017715Y011197D01*
X017836Y011247D01*
X017928Y011339D01*
X017931Y011345D01*
X024075Y011345D01*
X024361Y011060D01*
X024322Y010965D01*
X024322Y010835D01*
X024372Y010714D01*
X024464Y010622D01*
X024585Y010572D01*
X024715Y010572D01*
X024836Y010622D01*
X024929Y010716D02*
X027454Y010716D01*
X027356Y010815D02*
X024970Y010815D01*
X024978Y010913D02*
X027257Y010913D01*
X027159Y011012D02*
X024959Y011012D01*
X024904Y011110D02*
X027060Y011110D01*
X026962Y011209D02*
X024763Y011209D01*
X024623Y011307D02*
X026863Y011307D01*
X026845Y011406D02*
X024524Y011406D01*
X024426Y011504D02*
X026845Y011504D01*
X026845Y011603D02*
X024327Y011603D01*
X024229Y011701D02*
X026845Y011701D01*
X026845Y011800D02*
X017839Y011800D01*
X017650Y011525D02*
X024150Y011525D01*
X024650Y011025D01*
X024650Y010900D01*
X024322Y010913D02*
X016578Y010913D01*
X016483Y010817D02*
X016677Y011011D01*
X016814Y011248D01*
X016884Y011513D01*
X016884Y011787D01*
X016814Y012052D01*
X016677Y012289D01*
X016483Y012483D01*
X016246Y012620D01*
X015981Y012691D01*
X015707Y012691D01*
X015442Y012620D01*
X015205Y012483D01*
X015011Y012289D01*
X014874Y012052D01*
X014803Y011787D01*
X014803Y011513D01*
X014874Y011248D01*
X015011Y011011D01*
X015205Y010817D01*
X015442Y010680D01*
X015707Y010609D01*
X015981Y010609D01*
X016246Y010680D01*
X016483Y010817D01*
X016478Y010815D02*
X024330Y010815D01*
X024371Y010716D02*
X016307Y010716D01*
X016011Y010618D02*
X024475Y010618D01*
X024341Y011012D02*
X016677Y011012D01*
X016734Y011110D02*
X024310Y011110D01*
X024212Y011209D02*
X017743Y011209D01*
X017896Y011307D02*
X024113Y011307D01*
X024460Y009978D02*
X024339Y009928D01*
X021252Y009928D01*
X021226Y009954D02*
X021228Y009960D01*
X021228Y010090D01*
X021214Y010125D02*
X028045Y010125D01*
X027947Y010224D02*
X021165Y010224D01*
X021226Y009954D02*
X021350Y009830D01*
X024244Y009830D01*
X024247Y009836D01*
X024339Y009928D01*
X024460Y009978D02*
X024590Y009978D01*
X024711Y009928D01*
X024806Y009830D02*
X027619Y009830D01*
X027578Y009731D02*
X024847Y009731D01*
X024853Y009633D02*
X027572Y009633D01*
X027593Y009534D02*
X024832Y009534D01*
X024775Y009436D02*
X027650Y009436D01*
X027798Y009337D02*
X024627Y009337D01*
X024423Y009337D02*
X016858Y009337D01*
X016884Y009239D02*
X028057Y009239D01*
X028155Y009140D02*
X016884Y009140D01*
X016884Y009042D02*
X028254Y009042D01*
X028352Y008943D02*
X016879Y008943D01*
X016852Y008845D02*
X017564Y008845D01*
X017736Y008845D02*
X028314Y008845D01*
X028157Y008746D02*
X017893Y008746D01*
X017650Y008525D02*
X028400Y008525D01*
X028683Y008352D02*
X028720Y008352D01*
X028720Y008254D02*
X028593Y008254D01*
X028650Y008155D02*
X016287Y008155D01*
X016457Y008254D02*
X017457Y008254D01*
X017367Y008352D02*
X016567Y008352D01*
X016665Y008451D02*
X017326Y008451D01*
X017322Y008549D02*
X016727Y008549D01*
X016784Y008648D02*
X017346Y008648D01*
X017407Y008746D02*
X016826Y008746D01*
X016831Y009436D02*
X024275Y009436D01*
X024525Y009650D02*
X021275Y009650D01*
X017843Y008254D02*
X028207Y008254D01*
X028453Y007958D02*
X026679Y007958D01*
X026578Y008057D02*
X028552Y008057D01*
X028525Y007775D02*
X028900Y008150D01*
X028900Y008650D01*
X027900Y009650D01*
X028228Y009633D02*
X028328Y009633D01*
X028271Y009534D02*
X029636Y009534D01*
X029538Y009633D02*
X028722Y009633D01*
X028810Y009731D02*
X029439Y009731D01*
X029341Y009830D02*
X028851Y009830D01*
X028853Y009928D02*
X029242Y009928D01*
X029144Y010027D02*
X028828Y010027D01*
X028764Y010125D02*
X029045Y010125D01*
X028947Y010224D02*
X028601Y010224D01*
X028750Y010421D02*
X028259Y010421D01*
X028161Y010519D02*
X028651Y010519D01*
X028553Y010618D02*
X028062Y010618D01*
X027964Y010716D02*
X028454Y010716D01*
X028356Y010815D02*
X027865Y010815D01*
X027767Y010913D02*
X028257Y010913D01*
X028159Y011012D02*
X027668Y011012D01*
X027570Y011110D02*
X028060Y011110D01*
X027962Y011209D02*
X027471Y011209D01*
X027373Y011307D02*
X027863Y011307D01*
X027845Y011406D02*
X027274Y011406D01*
X027205Y011504D02*
X027845Y011504D01*
X027845Y011603D02*
X027205Y011603D01*
X027205Y011701D02*
X027845Y011701D01*
X027845Y011800D02*
X027205Y011800D01*
X027205Y011898D02*
X027845Y011898D01*
X027845Y011997D02*
X027205Y011997D01*
X027205Y012095D02*
X027845Y012095D01*
X027845Y012194D02*
X027205Y012194D01*
X027205Y012292D02*
X027845Y012292D01*
X027845Y012391D02*
X027205Y012391D01*
X027205Y012489D02*
X027845Y012489D01*
X027845Y012588D02*
X027205Y012588D01*
X027205Y012686D02*
X027845Y012686D01*
X027845Y012785D02*
X027205Y012785D01*
X027205Y012883D02*
X027845Y012883D01*
X027845Y012982D02*
X027205Y012982D01*
X027205Y013080D02*
X027756Y013080D01*
X027710Y013179D02*
X027205Y013179D01*
X027241Y013277D02*
X027697Y013277D01*
X027711Y013376D02*
X027318Y013376D01*
X027353Y013474D02*
X027760Y013474D01*
X027886Y013573D02*
X027353Y013573D01*
X027320Y013671D02*
X027999Y013671D01*
X027970Y013770D02*
X027244Y013770D01*
X027025Y013525D02*
X027025Y011400D01*
X028525Y009900D01*
X028240Y009731D02*
X028222Y009731D01*
X028199Y009830D02*
X028181Y009830D01*
X028086Y009928D02*
X027965Y009978D01*
X027835Y009978D01*
X027714Y009928D01*
X028358Y010322D02*
X028848Y010322D01*
X029062Y010618D02*
X029235Y010618D01*
X029197Y010716D02*
X028964Y010716D01*
X028865Y010815D02*
X029197Y010815D01*
X029227Y010913D02*
X028767Y010913D01*
X028668Y011012D02*
X029298Y011012D01*
X029345Y011110D02*
X028570Y011110D01*
X028471Y011209D02*
X029345Y011209D01*
X029345Y011307D02*
X028373Y011307D01*
X028274Y011406D02*
X029345Y011406D01*
X029345Y011504D02*
X028205Y011504D01*
X028205Y011603D02*
X029345Y011603D01*
X029345Y011701D02*
X028205Y011701D01*
X028205Y011800D02*
X029345Y011800D01*
X029345Y011898D02*
X028205Y011898D01*
X028205Y011997D02*
X029345Y011997D01*
X029345Y012095D02*
X028205Y012095D01*
X028205Y012194D02*
X029345Y012194D01*
X029345Y012292D02*
X028205Y012292D01*
X028205Y012391D02*
X029280Y012391D01*
X029181Y012489D02*
X028205Y012489D01*
X028205Y012588D02*
X029083Y012588D01*
X028984Y012686D02*
X028205Y012686D01*
X028205Y012785D02*
X028886Y012785D01*
X028787Y012883D02*
X028205Y012883D01*
X028205Y012982D02*
X028689Y012982D01*
X028590Y013080D02*
X028294Y013080D01*
X028340Y013179D02*
X028492Y013179D01*
X028393Y013277D02*
X028353Y013277D01*
X028025Y013275D02*
X028025Y011400D01*
X031275Y008150D01*
X030947Y008155D02*
X029080Y008155D01*
X029080Y008254D02*
X030917Y008254D01*
X030818Y008352D02*
X029080Y008352D01*
X029080Y008451D02*
X030720Y008451D01*
X030621Y008549D02*
X029080Y008549D01*
X029080Y008648D02*
X030523Y008648D01*
X030424Y008746D02*
X029059Y008746D01*
X028960Y008845D02*
X030326Y008845D01*
X030227Y008943D02*
X028862Y008943D01*
X028763Y009042D02*
X030129Y009042D01*
X030030Y009140D02*
X028665Y009140D01*
X028566Y009239D02*
X029932Y009239D01*
X029833Y009337D02*
X028468Y009337D01*
X028369Y009436D02*
X029735Y009436D01*
X029572Y010125D02*
X029555Y010125D01*
X029575Y010224D02*
X029456Y010224D01*
X029358Y010322D02*
X029616Y010322D01*
X029707Y010421D02*
X029259Y010421D01*
X029317Y010519D02*
X029161Y010519D01*
X029525Y010775D02*
X029525Y012400D01*
X028150Y013775D01*
X028150Y015650D01*
X026025Y017775D01*
X017650Y017775D01*
X017884Y018005D02*
X026415Y018005D01*
X026317Y018104D02*
X016867Y018104D01*
X016884Y018037D02*
X016814Y018302D01*
X016677Y018539D01*
X016483Y018733D01*
X016246Y018870D01*
X015981Y018941D01*
X015707Y018941D01*
X015442Y018870D01*
X015205Y018733D01*
X015011Y018539D01*
X014874Y018302D01*
X014803Y018037D01*
X014803Y017763D01*
X014874Y017498D01*
X015011Y017261D01*
X015205Y017067D01*
X015442Y016930D01*
X015707Y016859D01*
X015981Y016859D01*
X016246Y016930D01*
X016483Y017067D01*
X016677Y017261D01*
X016814Y017498D01*
X016884Y017763D01*
X016884Y018037D01*
X016884Y018005D02*
X017416Y018005D01*
X017349Y017907D02*
X016884Y017907D01*
X016884Y017808D02*
X017322Y017808D01*
X017322Y017710D02*
X016870Y017710D01*
X016844Y017611D02*
X017363Y017611D01*
X017448Y017513D02*
X016817Y017513D01*
X016765Y017414D02*
X026131Y017414D01*
X026033Y017513D02*
X017852Y017513D01*
X016708Y017316D02*
X026230Y017316D01*
X026328Y017217D02*
X025367Y017217D01*
X025340Y017228D02*
X025210Y017228D01*
X025089Y017178D01*
X024997Y017086D01*
X024994Y017080D01*
X021325Y017080D01*
X020971Y016726D01*
X020965Y016728D01*
X020835Y016728D01*
X020714Y016678D01*
X020622Y016586D01*
X020572Y016465D01*
X020572Y016335D01*
X020622Y016214D01*
X020714Y016122D01*
X020835Y016072D01*
X020965Y016072D01*
X021086Y016122D01*
X021178Y016214D01*
X021228Y016335D01*
X021228Y016465D01*
X021226Y016471D01*
X021475Y016720D01*
X024994Y016720D01*
X024997Y016714D01*
X025089Y016622D01*
X025210Y016572D01*
X025340Y016572D01*
X025461Y016622D01*
X025553Y016714D01*
X025603Y016835D01*
X025603Y016965D01*
X025553Y017086D01*
X025461Y017178D01*
X025340Y017228D01*
X025183Y017217D02*
X016633Y017217D01*
X016534Y017119D02*
X025030Y017119D01*
X025275Y016900D02*
X021400Y016900D01*
X020900Y016400D01*
X020598Y016528D02*
X014490Y016528D01*
X014490Y016626D02*
X020662Y016626D01*
X020826Y016725D02*
X014490Y016725D01*
X014490Y016823D02*
X021068Y016823D01*
X021167Y016922D02*
X016213Y016922D01*
X016401Y017020D02*
X021265Y017020D01*
X021381Y016626D02*
X025085Y016626D01*
X025465Y016626D02*
X026919Y016626D01*
X026821Y016725D02*
X025557Y016725D01*
X025598Y016823D02*
X026722Y016823D01*
X026624Y016922D02*
X025603Y016922D01*
X025580Y017020D02*
X026525Y017020D01*
X026427Y017119D02*
X025520Y017119D01*
X026247Y017808D02*
X026612Y017808D01*
X026514Y017907D02*
X026148Y017907D01*
X026345Y017710D02*
X026711Y017710D01*
X026809Y017611D02*
X026444Y017611D01*
X026542Y017513D02*
X026908Y017513D01*
X027006Y017414D02*
X026641Y017414D01*
X026739Y017316D02*
X027105Y017316D01*
X027203Y017217D02*
X026838Y017217D01*
X026936Y017119D02*
X027302Y017119D01*
X027400Y017020D02*
X027035Y017020D01*
X027133Y016922D02*
X027499Y016922D01*
X027597Y016823D02*
X027232Y016823D01*
X027330Y016725D02*
X027696Y016725D01*
X027794Y016626D02*
X027429Y016626D01*
X027527Y016528D02*
X027893Y016528D01*
X027991Y016429D02*
X027626Y016429D01*
X027724Y016331D02*
X028090Y016331D01*
X028188Y016232D02*
X027823Y016232D01*
X027921Y016134D02*
X028287Y016134D01*
X028385Y016035D02*
X028020Y016035D01*
X028118Y015937D02*
X028484Y015937D01*
X028582Y015838D02*
X028217Y015838D01*
X028315Y015740D02*
X028681Y015740D01*
X028779Y015641D02*
X028330Y015641D01*
X028330Y015543D02*
X028878Y015543D01*
X028976Y015444D02*
X028330Y015444D01*
X028330Y015346D02*
X029075Y015346D01*
X029173Y015247D02*
X028330Y015247D01*
X028330Y015149D02*
X029272Y015149D01*
X029345Y015075D02*
X029345Y013931D01*
X029339Y013928D01*
X029247Y013836D01*
X029197Y013715D01*
X029197Y013585D01*
X029247Y013464D01*
X029339Y013372D01*
X029460Y013322D01*
X029590Y013322D01*
X029711Y013372D01*
X029803Y013464D01*
X029853Y013585D01*
X029853Y013715D01*
X029803Y013836D01*
X029711Y013928D01*
X029705Y013931D01*
X029705Y015225D01*
X023830Y021100D01*
X023725Y021205D01*
X017978Y021205D01*
X017978Y021215D01*
X017928Y021336D01*
X017836Y021428D01*
X017715Y021478D01*
X017585Y021478D01*
X017464Y021428D01*
X017372Y021336D01*
X017322Y021215D01*
X017322Y021085D01*
X017372Y020964D01*
X017464Y020872D01*
X017585Y020822D01*
X017715Y020822D01*
X017771Y020845D01*
X023575Y020845D01*
X029345Y015075D01*
X029345Y015050D02*
X028330Y015050D01*
X028330Y014952D02*
X029345Y014952D01*
X029345Y014853D02*
X028330Y014853D01*
X028330Y014755D02*
X029345Y014755D01*
X029345Y014656D02*
X028330Y014656D01*
X028330Y014558D02*
X029345Y014558D01*
X029345Y014459D02*
X028330Y014459D01*
X028330Y014361D02*
X029345Y014361D01*
X029345Y014262D02*
X028330Y014262D01*
X028330Y014164D02*
X029345Y014164D01*
X029345Y014065D02*
X028330Y014065D01*
X028330Y013967D02*
X029345Y013967D01*
X029279Y013868D02*
X028330Y013868D01*
X028410Y013770D02*
X029219Y013770D01*
X029197Y013671D02*
X028509Y013671D01*
X028607Y013573D02*
X029202Y013573D01*
X029243Y013474D02*
X028706Y013474D01*
X028804Y013376D02*
X029335Y013376D01*
X029525Y013650D02*
X029525Y015150D01*
X023650Y021025D01*
X017775Y021025D01*
X017650Y021150D01*
X017777Y021453D02*
X024593Y021453D01*
X024494Y021551D02*
X016884Y021551D01*
X016884Y021464D02*
X016814Y021199D01*
X016677Y020962D01*
X016483Y020768D01*
X016246Y020631D01*
X015981Y020560D01*
X015707Y020560D01*
X015442Y020631D01*
X015205Y020768D01*
X015011Y020962D01*
X014874Y021199D01*
X014803Y021464D01*
X014803Y021738D01*
X014874Y022002D01*
X015011Y022240D01*
X015205Y022433D01*
X015442Y022570D01*
X015707Y022641D01*
X015981Y022641D01*
X016246Y022570D01*
X016483Y022433D01*
X016677Y022240D01*
X016814Y022002D01*
X016884Y021738D01*
X016884Y021464D01*
X016881Y021453D02*
X017523Y021453D01*
X017390Y021354D02*
X016855Y021354D01*
X016829Y021256D02*
X017339Y021256D01*
X017322Y021157D02*
X016789Y021157D01*
X016732Y021059D02*
X017333Y021059D01*
X017376Y020960D02*
X016675Y020960D01*
X016576Y020862D02*
X017489Y020862D01*
X017961Y021256D02*
X024790Y021256D01*
X024691Y021354D02*
X017910Y021354D01*
X016884Y021650D02*
X024396Y021650D01*
X024297Y021748D02*
X016882Y021748D01*
X016855Y021847D02*
X024199Y021847D01*
X024100Y021945D02*
X016829Y021945D01*
X016790Y022044D02*
X024002Y022044D01*
X023903Y022142D02*
X016733Y022142D01*
X016676Y022241D02*
X020604Y022241D01*
X020589Y022247D02*
X020710Y022197D01*
X020840Y022197D01*
X020961Y022247D01*
X021053Y022339D01*
X023706Y022339D01*
X023700Y022345D02*
X029074Y016971D01*
X029072Y016965D01*
X029072Y016835D01*
X029122Y016714D01*
X029214Y016622D01*
X029335Y016572D01*
X029465Y016572D01*
X029586Y016622D01*
X029678Y016714D01*
X029728Y016835D01*
X029728Y016965D01*
X029678Y017086D01*
X029586Y017178D01*
X029465Y017228D01*
X029335Y017228D01*
X029329Y017226D01*
X023955Y022600D01*
X023850Y022705D01*
X021056Y022705D01*
X021053Y022711D01*
X020961Y022803D01*
X020840Y022853D01*
X020710Y022853D01*
X020589Y022803D01*
X020497Y022711D01*
X020447Y022590D01*
X020447Y022460D01*
X020497Y022339D01*
X016577Y022339D01*
X016476Y022438D02*
X020456Y022438D01*
X020447Y022536D02*
X016305Y022536D01*
X016006Y022635D02*
X020465Y022635D01*
X020519Y022733D02*
X014490Y022733D01*
X014490Y022635D02*
X015682Y022635D01*
X015383Y022536D02*
X014490Y022536D01*
X014490Y022438D02*
X015212Y022438D01*
X015111Y022339D02*
X014490Y022339D01*
X014490Y022241D02*
X015012Y022241D01*
X014955Y022142D02*
X014490Y022142D01*
X014490Y022044D02*
X014898Y022044D01*
X014859Y021945D02*
X014490Y021945D01*
X014490Y021847D02*
X014832Y021847D01*
X014806Y021748D02*
X014490Y021748D01*
X014490Y021650D02*
X014803Y021650D01*
X014803Y021551D02*
X014490Y021551D01*
X014490Y021453D02*
X014806Y021453D01*
X014833Y021354D02*
X014490Y021354D01*
X014490Y021256D02*
X014859Y021256D01*
X014899Y021157D02*
X014490Y021157D01*
X014490Y021059D02*
X014955Y021059D01*
X015013Y020960D02*
X014490Y020960D01*
X014490Y020862D02*
X015112Y020862D01*
X015214Y020763D02*
X014490Y020763D01*
X014490Y020665D02*
X015384Y020665D01*
X015685Y020566D02*
X014490Y020566D01*
X014490Y020468D02*
X023953Y020468D01*
X023854Y020566D02*
X016003Y020566D01*
X015981Y020294D02*
X015663Y019975D01*
X014490Y019975D01*
X014490Y019877D02*
X015663Y019877D01*
X015663Y019975D02*
X015663Y019525D01*
X015981Y019207D01*
X016431Y019207D01*
X016749Y019525D01*
X016749Y019975D01*
X024445Y019975D01*
X024347Y020074D02*
X016651Y020074D01*
X016553Y020172D02*
X024248Y020172D01*
X024150Y020271D02*
X016454Y020271D01*
X016431Y020294D02*
X015981Y020294D01*
X015958Y020271D02*
X014490Y020271D01*
X014490Y020369D02*
X024051Y020369D01*
X024265Y020665D02*
X025381Y020665D01*
X025282Y020763D02*
X024167Y020763D01*
X024068Y020862D02*
X025184Y020862D01*
X025085Y020960D02*
X023970Y020960D01*
X023871Y021059D02*
X024987Y021059D01*
X024888Y021157D02*
X023773Y021157D01*
X023657Y020763D02*
X016474Y020763D01*
X016303Y020665D02*
X023756Y020665D01*
X024364Y020566D02*
X025479Y020566D01*
X025578Y020468D02*
X024462Y020468D01*
X024561Y020369D02*
X025676Y020369D01*
X025775Y020271D02*
X024659Y020271D01*
X024758Y020172D02*
X025873Y020172D01*
X025972Y020074D02*
X024856Y020074D01*
X024955Y019975D02*
X026070Y019975D01*
X026169Y019877D02*
X025053Y019877D01*
X025152Y019778D02*
X026267Y019778D01*
X026366Y019680D02*
X025250Y019680D01*
X025349Y019581D02*
X026464Y019581D01*
X026563Y019483D02*
X025447Y019483D01*
X025546Y019384D02*
X026661Y019384D01*
X026760Y019286D02*
X025644Y019286D01*
X025743Y019187D02*
X026858Y019187D01*
X026957Y019089D02*
X025841Y019089D01*
X025940Y018990D02*
X027055Y018990D01*
X027154Y018892D02*
X026038Y018892D01*
X026137Y018793D02*
X027252Y018793D01*
X027351Y018695D02*
X026235Y018695D01*
X026334Y018596D02*
X027449Y018596D01*
X027548Y018498D02*
X026432Y018498D01*
X026531Y018399D02*
X027646Y018399D01*
X027745Y018301D02*
X026629Y018301D01*
X026728Y018202D02*
X027843Y018202D01*
X027942Y018104D02*
X026826Y018104D01*
X026925Y018005D02*
X028040Y018005D01*
X028139Y017907D02*
X027023Y017907D01*
X027122Y017808D02*
X028237Y017808D01*
X028336Y017710D02*
X027220Y017710D01*
X027319Y017611D02*
X028434Y017611D01*
X028533Y017513D02*
X027417Y017513D01*
X027516Y017414D02*
X028075Y017414D01*
X028089Y017428D02*
X027997Y017336D01*
X027947Y017215D01*
X027947Y017085D01*
X027997Y016964D01*
X028089Y016872D01*
X028210Y016822D01*
X028340Y016822D01*
X028346Y016824D01*
X029575Y015595D01*
X030244Y015595D01*
X030247Y015589D01*
X030339Y015497D01*
X030460Y015447D01*
X030590Y015447D01*
X030711Y015497D01*
X030803Y015589D01*
X030853Y015710D01*
X030853Y015840D01*
X030803Y015961D01*
X030711Y016053D01*
X030590Y016103D01*
X030460Y016103D01*
X030339Y016053D01*
X030247Y015961D01*
X030244Y015955D01*
X029725Y015955D01*
X028601Y017079D01*
X028603Y017085D01*
X028603Y017215D01*
X028553Y017336D01*
X028461Y017428D01*
X028340Y017478D01*
X028210Y017478D01*
X028089Y017428D01*
X027988Y017316D02*
X027614Y017316D01*
X027713Y017217D02*
X027948Y017217D01*
X027947Y017119D02*
X027811Y017119D01*
X027910Y017020D02*
X027974Y017020D01*
X028008Y016922D02*
X028039Y016922D01*
X028107Y016823D02*
X028207Y016823D01*
X028205Y016725D02*
X028446Y016725D01*
X028347Y016823D02*
X028343Y016823D01*
X028304Y016626D02*
X028544Y016626D01*
X028643Y016528D02*
X028402Y016528D01*
X028501Y016429D02*
X028741Y016429D01*
X028840Y016331D02*
X028599Y016331D01*
X028698Y016232D02*
X028938Y016232D01*
X029037Y016134D02*
X028796Y016134D01*
X028895Y016035D02*
X029135Y016035D01*
X029234Y015937D02*
X028993Y015937D01*
X029092Y015838D02*
X029332Y015838D01*
X029431Y015740D02*
X029190Y015740D01*
X029289Y015641D02*
X029529Y015641D01*
X029387Y015543D02*
X030293Y015543D01*
X030525Y015775D02*
X029650Y015775D01*
X028275Y017150D01*
X028603Y017119D02*
X028927Y017119D01*
X028828Y017217D02*
X028602Y017217D01*
X028562Y017316D02*
X028730Y017316D01*
X028631Y017414D02*
X028475Y017414D01*
X028660Y017020D02*
X029025Y017020D01*
X029072Y016922D02*
X028758Y016922D01*
X028857Y016823D02*
X029077Y016823D01*
X029118Y016725D02*
X028955Y016725D01*
X029054Y016626D02*
X029210Y016626D01*
X029152Y016528D02*
X032470Y016528D01*
X032470Y016626D02*
X029590Y016626D01*
X029682Y016725D02*
X032470Y016725D01*
X032470Y016823D02*
X029723Y016823D01*
X029728Y016922D02*
X032470Y016922D01*
X032470Y017020D02*
X029705Y017020D01*
X029645Y017119D02*
X032470Y017119D01*
X032470Y017217D02*
X029492Y017217D01*
X029239Y017316D02*
X032470Y017316D01*
X032470Y017414D02*
X032128Y017414D01*
X031900Y017650D02*
X032650Y017650D01*
X032650Y016150D01*
X032775Y016025D01*
X032775Y015025D01*
X031275Y013525D01*
X031056Y013770D02*
X029831Y013770D01*
X029853Y013671D02*
X030980Y013671D01*
X030947Y013573D02*
X029848Y013573D01*
X029807Y013474D02*
X030947Y013474D01*
X030982Y013376D02*
X029715Y013376D01*
X029297Y012883D02*
X030277Y012883D01*
X030211Y012785D02*
X029395Y012785D01*
X029494Y012686D02*
X030214Y012686D01*
X030220Y012588D02*
X029592Y012588D01*
X029691Y012489D02*
X030220Y012489D01*
X030220Y012391D02*
X029705Y012391D01*
X029705Y012292D02*
X030220Y012292D01*
X030220Y012194D02*
X029705Y012194D01*
X029705Y012095D02*
X030131Y012095D01*
X030085Y011997D02*
X029705Y011997D01*
X029705Y011898D02*
X030072Y011898D01*
X030086Y011800D02*
X029705Y011800D01*
X029705Y011701D02*
X030135Y011701D01*
X030261Y011603D02*
X029705Y011603D01*
X029705Y011504D02*
X030595Y011504D01*
X030595Y011406D02*
X029705Y011406D01*
X029705Y011307D02*
X030595Y011307D01*
X030595Y011209D02*
X029705Y011209D01*
X029705Y011110D02*
X030595Y011110D01*
X030507Y011012D02*
X029752Y011012D01*
X029823Y010913D02*
X030408Y010913D01*
X030310Y010815D02*
X029853Y010815D01*
X029853Y010716D02*
X030211Y010716D01*
X030113Y010618D02*
X029815Y010618D01*
X029733Y010519D02*
X030014Y010519D01*
X029900Y010150D02*
X030775Y011025D01*
X030775Y012150D01*
X030586Y012194D02*
X030580Y012194D01*
X030580Y012292D02*
X030632Y012292D01*
X030678Y012391D02*
X030580Y012391D01*
X030580Y012489D02*
X030724Y012489D01*
X030758Y012588D02*
X030580Y012588D01*
X030602Y012686D02*
X030835Y012686D01*
X030668Y012785D02*
X031504Y012785D01*
X031374Y012982D02*
X033106Y012982D01*
X032899Y013277D02*
X035510Y013277D01*
X035419Y012883D02*
X037223Y012883D01*
X037223Y012952D02*
X037223Y012598D01*
X037473Y012348D01*
X037827Y012348D01*
X038077Y012598D01*
X038077Y012952D01*
X037827Y013202D01*
X037473Y013202D01*
X037223Y012952D01*
X037199Y012982D02*
X037253Y012982D01*
X037319Y013080D02*
X037351Y013080D01*
X037365Y013179D02*
X037450Y013179D01*
X037378Y013277D02*
X039701Y013277D01*
X039701Y013179D02*
X038850Y013179D01*
X038827Y013202D02*
X038473Y013202D01*
X038223Y012952D01*
X038223Y012598D01*
X038473Y012348D01*
X038827Y012348D01*
X039077Y012598D01*
X039077Y012952D01*
X038827Y013202D01*
X038827Y013348D02*
X039077Y013598D01*
X039077Y013952D01*
X038827Y014202D01*
X038473Y014202D01*
X038223Y013952D01*
X038223Y013598D01*
X038473Y013348D01*
X038827Y013348D01*
X038854Y013376D02*
X039701Y013376D01*
X039701Y013474D02*
X038953Y013474D01*
X039051Y013573D02*
X039701Y013573D01*
X039701Y013671D02*
X039077Y013671D01*
X039077Y013770D02*
X039701Y013770D01*
X039701Y013868D02*
X039077Y013868D01*
X039062Y013967D02*
X039701Y013967D01*
X039701Y014065D02*
X038964Y014065D01*
X038865Y014164D02*
X039701Y014164D01*
X039701Y014262D02*
X037378Y014262D01*
X037370Y014361D02*
X037461Y014361D01*
X037473Y014348D02*
X037827Y014348D01*
X038077Y014598D01*
X038077Y014952D01*
X037827Y015202D01*
X037473Y015202D01*
X037223Y014952D01*
X037223Y014598D01*
X037473Y014348D01*
X037473Y014202D02*
X037223Y013952D01*
X037223Y013598D01*
X037473Y013348D01*
X037827Y013348D01*
X038077Y013598D01*
X038077Y013952D01*
X037827Y014202D01*
X037473Y014202D01*
X037435Y014164D02*
X037359Y014164D01*
X037336Y014065D02*
X037304Y014065D01*
X037238Y013967D02*
X037163Y013967D01*
X037223Y013868D02*
X035949Y013868D01*
X035984Y014262D02*
X032267Y014262D01*
X032365Y014361D02*
X036493Y014361D01*
X036326Y014512D02*
X036413Y014599D01*
X036460Y014713D01*
X036460Y014786D01*
X036708Y014977D01*
X036738Y014965D01*
X036862Y014965D01*
X036976Y015012D01*
X037063Y015099D01*
X037110Y015213D01*
X037110Y015337D01*
X037063Y015451D01*
X036980Y015533D01*
X036980Y026825D01*
X036100Y027705D01*
X033306Y027705D01*
X033303Y027711D01*
X033211Y027803D01*
X033090Y027853D01*
X032960Y027853D01*
X032839Y027803D01*
X032830Y027794D01*
X032830Y027994D01*
X032836Y027997D01*
X032928Y028089D01*
X032978Y028210D01*
X032978Y028340D01*
X032928Y028461D01*
X032836Y028553D01*
X032715Y028603D01*
X032585Y028603D01*
X032464Y028553D01*
X032372Y028461D01*
X032322Y028340D01*
X032322Y028210D01*
X032372Y028089D01*
X032464Y027997D01*
X032470Y027994D01*
X032470Y027850D01*
X031728Y027108D01*
X031728Y027215D01*
X031678Y027336D01*
X031586Y027428D01*
X031503Y027463D01*
X031586Y027497D01*
X031678Y027589D01*
X031728Y027710D01*
X031728Y027840D01*
X031678Y027961D01*
X031586Y028053D01*
X031465Y028103D01*
X031335Y028103D01*
X031214Y028053D01*
X031122Y027961D01*
X031119Y027955D01*
X030850Y027955D01*
X029913Y028891D01*
X029916Y028897D01*
X029916Y029028D01*
X029866Y029148D01*
X029773Y029241D01*
X029653Y029291D01*
X029522Y029291D01*
X029402Y029241D01*
X029309Y029148D01*
X029259Y029028D01*
X029259Y028897D01*
X029309Y028777D01*
X029402Y028684D01*
X029522Y028634D01*
X029653Y028634D01*
X029659Y028637D01*
X030700Y027595D01*
X031119Y027595D01*
X031122Y027589D01*
X031214Y027497D01*
X031297Y027463D01*
X031214Y027428D01*
X031122Y027336D01*
X031072Y027215D01*
X031072Y027085D01*
X031074Y027079D01*
X030575Y026580D01*
X030485Y026580D01*
X030586Y026622D01*
X030678Y026714D01*
X030728Y026835D01*
X030728Y026965D01*
X030678Y027086D01*
X030586Y027178D01*
X030580Y027181D01*
X030580Y027600D01*
X030475Y027705D01*
X030475Y027705D01*
X030205Y027975D01*
X030100Y028080D01*
X025681Y028080D01*
X025678Y028086D01*
X025586Y028178D01*
X025465Y028228D01*
X025335Y028228D01*
X025214Y028178D01*
X025122Y028086D01*
X025072Y027965D01*
X025072Y027835D01*
X025122Y027714D01*
X025214Y027622D01*
X025335Y027572D01*
X025465Y027572D01*
X025586Y027622D01*
X025678Y027714D01*
X025681Y027720D01*
X029950Y027720D01*
X030220Y027450D01*
X030220Y027181D01*
X030214Y027178D01*
X030122Y027086D01*
X030072Y026965D01*
X030072Y026835D01*
X030122Y026714D01*
X030214Y026622D01*
X030315Y026580D01*
X029475Y026580D01*
X028975Y027080D01*
X025681Y027080D01*
X025678Y027086D01*
X025586Y027178D01*
X025465Y027228D01*
X025335Y027228D01*
X025214Y027178D01*
X025122Y027086D01*
X025072Y026965D01*
X025072Y026835D01*
X025122Y026714D01*
X025214Y026622D01*
X025335Y026572D01*
X025465Y026572D01*
X025586Y026622D01*
X025678Y026714D01*
X025681Y026720D01*
X028825Y026720D01*
X029270Y026275D01*
X029075Y026080D01*
X027181Y026080D01*
X027178Y026086D01*
X027086Y026178D01*
X026965Y026228D01*
X026835Y026228D01*
X026714Y026178D01*
X026622Y026086D01*
X026572Y025965D01*
X026572Y025835D01*
X026622Y025714D01*
X026714Y025622D01*
X026835Y025572D01*
X026965Y025572D01*
X027086Y025622D01*
X027178Y025714D01*
X027181Y025720D01*
X029225Y025720D01*
X029475Y025970D01*
X031100Y025970D01*
X031205Y026075D01*
X032697Y027567D01*
X032697Y027460D01*
X032747Y027339D01*
X032839Y027247D01*
X032960Y027197D01*
X033090Y027197D01*
X033211Y027247D01*
X033303Y027339D01*
X033306Y027345D01*
X035950Y027345D01*
X036620Y026675D01*
X036620Y015533D01*
X036537Y015451D01*
X036490Y015337D01*
X036490Y015264D01*
X036242Y015073D01*
X036212Y015085D01*
X036088Y015085D01*
X035974Y015038D01*
X035887Y014951D01*
X035840Y014837D01*
X035840Y014713D01*
X035887Y014599D01*
X035974Y014512D01*
X036088Y014465D01*
X036212Y014465D01*
X036326Y014512D01*
X036371Y014558D02*
X036875Y014558D01*
X036771Y014459D02*
X032464Y014459D01*
X032562Y014558D02*
X035929Y014558D01*
X035864Y014656D02*
X032661Y014656D01*
X032759Y014755D02*
X035840Y014755D01*
X035847Y014853D02*
X032858Y014853D01*
X032955Y014952D02*
X035888Y014952D01*
X036004Y015050D02*
X032955Y015050D01*
X032955Y015149D02*
X036340Y015149D01*
X036468Y015247D02*
X032955Y015247D01*
X032955Y015346D02*
X036494Y015346D01*
X036534Y015444D02*
X032955Y015444D01*
X032955Y015543D02*
X036620Y015543D01*
X036620Y015641D02*
X032955Y015641D01*
X032955Y015740D02*
X036620Y015740D01*
X036620Y015838D02*
X035502Y015838D01*
X035533Y015851D02*
X035674Y015992D01*
X035750Y016176D01*
X035750Y016374D01*
X035674Y016558D01*
X035533Y016699D01*
X035349Y016775D01*
X035151Y016775D01*
X034967Y016699D01*
X034826Y016558D01*
X034750Y016374D01*
X034750Y016176D01*
X034826Y015992D01*
X034967Y015851D01*
X035151Y015775D01*
X035349Y015775D01*
X035533Y015851D01*
X035619Y015937D02*
X036620Y015937D01*
X036620Y016035D02*
X035692Y016035D01*
X035733Y016134D02*
X036620Y016134D01*
X036620Y016232D02*
X035750Y016232D01*
X035750Y016331D02*
X036620Y016331D01*
X036620Y016429D02*
X035727Y016429D01*
X035687Y016528D02*
X036620Y016528D01*
X036620Y016626D02*
X035606Y016626D01*
X035471Y016725D02*
X036620Y016725D01*
X036620Y016823D02*
X035465Y016823D01*
X035533Y016851D02*
X035674Y016992D01*
X035750Y017176D01*
X035750Y017374D01*
X035674Y017558D01*
X035533Y017699D01*
X035349Y017775D01*
X035151Y017775D01*
X034967Y017699D01*
X034826Y017558D01*
X034750Y017374D01*
X034750Y017176D01*
X034826Y016992D01*
X034967Y016851D01*
X035151Y016775D01*
X035349Y016775D01*
X035533Y016851D01*
X035604Y016922D02*
X036620Y016922D01*
X036620Y017020D02*
X035686Y017020D01*
X035726Y017119D02*
X036620Y017119D01*
X036620Y017217D02*
X035750Y017217D01*
X035750Y017316D02*
X036620Y017316D01*
X036620Y017414D02*
X035734Y017414D01*
X035693Y017513D02*
X036620Y017513D01*
X036620Y017611D02*
X035621Y017611D01*
X035507Y017710D02*
X036620Y017710D01*
X036620Y017808D02*
X035429Y017808D01*
X035349Y017775D02*
X035533Y017851D01*
X035674Y017992D01*
X035750Y018176D01*
X035750Y018374D01*
X035674Y018558D01*
X035533Y018699D01*
X035349Y018775D01*
X035151Y018775D01*
X034967Y018699D01*
X034826Y018558D01*
X034750Y018374D01*
X034750Y018176D01*
X034826Y017992D01*
X034967Y017851D01*
X035151Y017775D01*
X035349Y017775D01*
X035589Y017907D02*
X036620Y017907D01*
X036620Y018005D02*
X035679Y018005D01*
X035720Y018104D02*
X036620Y018104D01*
X036620Y018202D02*
X035750Y018202D01*
X035750Y018301D02*
X036620Y018301D01*
X036620Y018399D02*
X035740Y018399D01*
X035699Y018498D02*
X036620Y018498D01*
X036620Y018596D02*
X035636Y018596D01*
X035538Y018695D02*
X036620Y018695D01*
X036620Y018793D02*
X035692Y018793D01*
X035674Y018775D02*
X035750Y018851D01*
X035750Y019699D01*
X035674Y019775D01*
X034826Y019775D01*
X034750Y019699D01*
X034750Y018851D01*
X034826Y018775D01*
X035674Y018775D01*
X035750Y018892D02*
X036620Y018892D01*
X036620Y018990D02*
X035750Y018990D01*
X035750Y019089D02*
X036620Y019089D01*
X036620Y019187D02*
X035750Y019187D01*
X035750Y019286D02*
X036620Y019286D01*
X036620Y019384D02*
X035750Y019384D01*
X035750Y019483D02*
X036620Y019483D01*
X036620Y019581D02*
X035750Y019581D01*
X035750Y019680D02*
X036620Y019680D01*
X036620Y019778D02*
X034455Y019778D01*
X034455Y019680D02*
X034750Y019680D01*
X034750Y019581D02*
X034455Y019581D01*
X034455Y019483D02*
X034750Y019483D01*
X034750Y019384D02*
X034414Y019384D01*
X034360Y019286D02*
X034750Y019286D01*
X034750Y019187D02*
X034349Y019187D01*
X034302Y019089D02*
X034750Y019089D01*
X034750Y018990D02*
X034172Y018990D01*
X033928Y018990D02*
X032840Y018990D01*
X032840Y018892D02*
X034750Y018892D01*
X034808Y018793D02*
X032840Y018793D01*
X032840Y018695D02*
X034962Y018695D01*
X034864Y018596D02*
X032840Y018596D01*
X032840Y018498D02*
X034801Y018498D01*
X034760Y018399D02*
X032840Y018399D01*
X032840Y018301D02*
X034750Y018301D01*
X034750Y018202D02*
X032840Y018202D01*
X032840Y018104D02*
X034780Y018104D01*
X034821Y018005D02*
X032840Y018005D01*
X032840Y017907D02*
X034911Y017907D01*
X035071Y017808D02*
X032840Y017808D01*
X032840Y017710D02*
X034993Y017710D01*
X034879Y017611D02*
X032840Y017611D01*
X032830Y017513D02*
X034807Y017513D01*
X034766Y017414D02*
X032830Y017414D01*
X032830Y017316D02*
X034750Y017316D01*
X034750Y017217D02*
X032830Y017217D01*
X032830Y017119D02*
X034774Y017119D01*
X034814Y017020D02*
X032830Y017020D01*
X032830Y016922D02*
X034896Y016922D01*
X035035Y016823D02*
X032830Y016823D01*
X032830Y016725D02*
X035029Y016725D01*
X034894Y016626D02*
X032830Y016626D01*
X032830Y016528D02*
X034813Y016528D01*
X034773Y016429D02*
X032830Y016429D01*
X032830Y016331D02*
X034750Y016331D01*
X034750Y016232D02*
X032830Y016232D01*
X032921Y016134D02*
X034767Y016134D01*
X034808Y016035D02*
X032955Y016035D01*
X032955Y015937D02*
X034881Y015937D01*
X034998Y015838D02*
X032955Y015838D01*
X032595Y015838D02*
X030853Y015838D01*
X030853Y015740D02*
X032595Y015740D01*
X032595Y015641D02*
X030825Y015641D01*
X030757Y015543D02*
X032595Y015543D01*
X032595Y015444D02*
X029486Y015444D01*
X029584Y015346D02*
X032595Y015346D01*
X032595Y015247D02*
X029683Y015247D01*
X029705Y015149D02*
X032595Y015149D01*
X032545Y015050D02*
X029705Y015050D01*
X029705Y014952D02*
X032447Y014952D01*
X032348Y014853D02*
X029705Y014853D01*
X029705Y014755D02*
X032250Y014755D01*
X032151Y014656D02*
X029705Y014656D01*
X029705Y014558D02*
X032053Y014558D01*
X031954Y014459D02*
X029705Y014459D01*
X029705Y014361D02*
X031856Y014361D01*
X031757Y014262D02*
X029705Y014262D01*
X029705Y014164D02*
X031659Y014164D01*
X031560Y014065D02*
X029705Y014065D01*
X029705Y013967D02*
X031462Y013967D01*
X031363Y013868D02*
X029771Y013868D01*
X030474Y013179D02*
X029001Y013179D01*
X028903Y013277D02*
X030902Y013277D01*
X030866Y012883D02*
X032305Y012883D01*
X032391Y013179D02*
X034708Y013179D01*
X034618Y012785D02*
X037223Y012785D01*
X037223Y012686D02*
X033817Y012686D01*
X033907Y013080D02*
X031883Y013080D01*
X032214Y012489D02*
X037332Y012489D01*
X037234Y012588D02*
X033016Y012588D01*
X033407Y013376D02*
X036311Y013376D01*
X036220Y012982D02*
X036901Y012982D01*
X037364Y013376D02*
X037446Y013376D01*
X037347Y013474D02*
X037315Y013474D01*
X037249Y013573D02*
X037189Y013573D01*
X037223Y013671D02*
X034932Y013671D01*
X035440Y013770D02*
X037223Y013770D01*
X036937Y013967D02*
X036457Y013967D01*
X036785Y013474D02*
X033916Y013474D01*
X033951Y013868D02*
X031873Y013868D01*
X031971Y013967D02*
X034460Y013967D01*
X034424Y013573D02*
X036911Y013573D01*
X037854Y013376D02*
X038446Y013376D01*
X038347Y013474D02*
X037953Y013474D01*
X038051Y013573D02*
X038249Y013573D01*
X038223Y013671D02*
X038077Y013671D01*
X038077Y013770D02*
X038223Y013770D01*
X038223Y013868D02*
X038077Y013868D01*
X038062Y013967D02*
X038238Y013967D01*
X038336Y014065D02*
X037964Y014065D01*
X037865Y014164D02*
X038435Y014164D01*
X038473Y014348D02*
X038827Y014348D01*
X039077Y014598D01*
X039077Y014952D01*
X038827Y015202D01*
X038473Y015202D01*
X038223Y014952D01*
X038223Y014598D01*
X038473Y014348D01*
X038461Y014361D02*
X037839Y014361D01*
X037938Y014459D02*
X038362Y014459D01*
X038264Y014558D02*
X038036Y014558D01*
X038077Y014656D02*
X038223Y014656D01*
X038223Y014755D02*
X038077Y014755D01*
X038077Y014853D02*
X038223Y014853D01*
X038223Y014952D02*
X038077Y014952D01*
X037979Y015050D02*
X038321Y015050D01*
X038420Y015149D02*
X037880Y015149D01*
X037827Y015348D02*
X038077Y015598D01*
X038077Y015952D01*
X037827Y016202D01*
X037473Y016202D01*
X037223Y015952D01*
X037223Y015598D01*
X037473Y015348D01*
X037827Y015348D01*
X037923Y015444D02*
X038377Y015444D01*
X038473Y015348D02*
X038827Y015348D01*
X039077Y015598D01*
X039077Y015952D01*
X038827Y016202D01*
X038473Y016202D01*
X038223Y015952D01*
X038223Y015598D01*
X038473Y015348D01*
X038279Y015543D02*
X038021Y015543D01*
X038077Y015641D02*
X038223Y015641D01*
X038223Y015740D02*
X038077Y015740D01*
X038077Y015838D02*
X038223Y015838D01*
X038223Y015937D02*
X038077Y015937D01*
X037994Y016035D02*
X038306Y016035D01*
X038405Y016134D02*
X037895Y016134D01*
X037827Y016348D02*
X038077Y016598D01*
X038077Y016952D01*
X037827Y017202D01*
X037473Y017202D01*
X037223Y016952D01*
X037223Y016598D01*
X037473Y016348D01*
X037827Y016348D01*
X037908Y016429D02*
X038392Y016429D01*
X038473Y016348D02*
X038827Y016348D01*
X039077Y016598D01*
X039077Y016952D01*
X038827Y017202D01*
X038473Y017202D01*
X038223Y016952D01*
X038223Y016598D01*
X038473Y016348D01*
X038294Y016528D02*
X038006Y016528D01*
X038077Y016626D02*
X038223Y016626D01*
X038223Y016725D02*
X038077Y016725D01*
X038077Y016823D02*
X038223Y016823D01*
X038223Y016922D02*
X038077Y016922D01*
X038009Y017020D02*
X038291Y017020D01*
X038390Y017119D02*
X037910Y017119D01*
X037827Y017348D02*
X038077Y017598D01*
X038077Y017952D01*
X037827Y018202D01*
X037473Y018202D01*
X037223Y017952D01*
X037223Y017598D01*
X037473Y017348D01*
X037827Y017348D01*
X037893Y017414D02*
X038407Y017414D01*
X038473Y017348D02*
X038827Y017348D01*
X039077Y017598D01*
X039077Y017952D01*
X038827Y018202D01*
X038473Y018202D01*
X038223Y017952D01*
X038223Y017598D01*
X038473Y017348D01*
X038309Y017513D02*
X037991Y017513D01*
X038077Y017611D02*
X038223Y017611D01*
X038223Y017710D02*
X038077Y017710D01*
X038077Y017808D02*
X038223Y017808D01*
X038223Y017907D02*
X038077Y017907D01*
X038024Y018005D02*
X038276Y018005D01*
X038375Y018104D02*
X037925Y018104D01*
X037827Y018348D02*
X038077Y018598D01*
X038077Y018952D01*
X037827Y019202D01*
X037473Y019202D01*
X037223Y018952D01*
X037223Y018598D01*
X037473Y018348D01*
X037827Y018348D01*
X037878Y018399D02*
X038422Y018399D01*
X038473Y018348D02*
X038827Y018348D01*
X039077Y018598D01*
X039077Y018952D01*
X038827Y019202D01*
X038473Y019202D01*
X038223Y018952D01*
X038223Y018598D01*
X038473Y018348D01*
X038324Y018498D02*
X037976Y018498D01*
X038075Y018596D02*
X038225Y018596D01*
X038223Y018695D02*
X038077Y018695D01*
X038077Y018793D02*
X038223Y018793D01*
X038223Y018892D02*
X038077Y018892D01*
X038039Y018990D02*
X038261Y018990D01*
X038360Y019089D02*
X037940Y019089D01*
X037842Y019187D02*
X038458Y019187D01*
X038473Y019348D02*
X038827Y019348D01*
X039077Y019598D01*
X039077Y019952D01*
X038827Y020202D01*
X038473Y020202D01*
X038223Y019952D01*
X038223Y019598D01*
X038473Y019348D01*
X038437Y019384D02*
X037863Y019384D01*
X037827Y019348D02*
X038077Y019598D01*
X038077Y019952D01*
X037827Y020202D01*
X037473Y020202D01*
X037223Y019952D01*
X037223Y019598D01*
X037473Y019348D01*
X037827Y019348D01*
X037961Y019483D02*
X038339Y019483D01*
X038240Y019581D02*
X038060Y019581D01*
X038077Y019680D02*
X038223Y019680D01*
X038223Y019778D02*
X038077Y019778D01*
X038077Y019877D02*
X038223Y019877D01*
X038246Y019975D02*
X038054Y019975D01*
X037955Y020074D02*
X038345Y020074D01*
X038443Y020172D02*
X037857Y020172D01*
X037827Y020348D02*
X038077Y020598D01*
X038077Y020952D01*
X037827Y021202D01*
X037473Y021202D01*
X037223Y020952D01*
X037223Y020598D01*
X037473Y020348D01*
X037827Y020348D01*
X037848Y020369D02*
X038452Y020369D01*
X038473Y020348D02*
X038827Y020348D01*
X039077Y020598D01*
X039077Y020952D01*
X038827Y021202D01*
X038473Y021202D01*
X038223Y020952D01*
X038223Y020598D01*
X038473Y020348D01*
X038354Y020468D02*
X037946Y020468D01*
X038045Y020566D02*
X038255Y020566D01*
X038223Y020665D02*
X038077Y020665D01*
X038077Y020763D02*
X038223Y020763D01*
X038223Y020862D02*
X038077Y020862D01*
X038069Y020960D02*
X038231Y020960D01*
X038330Y021059D02*
X037970Y021059D01*
X037872Y021157D02*
X038428Y021157D01*
X038473Y021348D02*
X038827Y021348D01*
X039077Y021598D01*
X039077Y021952D01*
X038827Y022202D01*
X038473Y022202D01*
X038223Y021952D01*
X038223Y021598D01*
X038473Y021348D01*
X038467Y021354D02*
X037833Y021354D01*
X037827Y021348D02*
X038077Y021598D01*
X038077Y021952D01*
X037827Y022202D01*
X037473Y022202D01*
X037223Y021952D01*
X037223Y021598D01*
X037473Y021348D01*
X037827Y021348D01*
X037931Y021453D02*
X038369Y021453D01*
X038270Y021551D02*
X038030Y021551D01*
X038077Y021650D02*
X038223Y021650D01*
X038223Y021748D02*
X038077Y021748D01*
X038077Y021847D02*
X038223Y021847D01*
X038223Y021945D02*
X038077Y021945D01*
X037985Y022044D02*
X038315Y022044D01*
X038413Y022142D02*
X037887Y022142D01*
X037827Y022348D02*
X038077Y022598D01*
X038077Y022952D01*
X037827Y023202D01*
X037473Y023202D01*
X037223Y022952D01*
X037223Y022598D01*
X037473Y022348D01*
X037827Y022348D01*
X037916Y022438D02*
X038384Y022438D01*
X038473Y022348D02*
X038827Y022348D01*
X039077Y022598D01*
X039077Y022952D01*
X038827Y023202D01*
X038473Y023202D01*
X038223Y022952D01*
X038223Y022598D01*
X038473Y022348D01*
X038285Y022536D02*
X038015Y022536D01*
X038077Y022635D02*
X038223Y022635D01*
X038223Y022733D02*
X038077Y022733D01*
X038077Y022832D02*
X038223Y022832D01*
X038223Y022930D02*
X038077Y022930D01*
X038000Y023029D02*
X038300Y023029D01*
X038398Y023127D02*
X037902Y023127D01*
X037827Y023348D02*
X038077Y023598D01*
X038077Y023952D01*
X037827Y024202D01*
X037473Y024202D01*
X037223Y023952D01*
X037223Y023598D01*
X037473Y023348D01*
X037827Y023348D01*
X037901Y023423D02*
X038399Y023423D01*
X038473Y023348D02*
X038827Y023348D01*
X039077Y023598D01*
X039077Y023952D01*
X038827Y024202D01*
X038473Y024202D01*
X038223Y023952D01*
X038223Y023598D01*
X038473Y023348D01*
X038300Y023521D02*
X038000Y023521D01*
X038077Y023620D02*
X038223Y023620D01*
X038223Y023718D02*
X038077Y023718D01*
X038077Y023817D02*
X038223Y023817D01*
X038223Y023915D02*
X038077Y023915D01*
X038015Y024014D02*
X038285Y024014D01*
X038383Y024112D02*
X037917Y024112D01*
X037827Y024348D02*
X038077Y024598D01*
X038077Y024952D01*
X037827Y025202D01*
X037473Y025202D01*
X037223Y024952D01*
X037223Y024598D01*
X037473Y024348D01*
X037827Y024348D01*
X037886Y024408D02*
X038414Y024408D01*
X038473Y024348D02*
X038827Y024348D01*
X039077Y024598D01*
X039077Y024952D01*
X038827Y025202D01*
X038473Y025202D01*
X038223Y024952D01*
X038223Y024598D01*
X038473Y024348D01*
X038315Y024506D02*
X037985Y024506D01*
X038077Y024605D02*
X038223Y024605D01*
X038223Y024703D02*
X038077Y024703D01*
X038077Y024802D02*
X038223Y024802D01*
X038223Y024900D02*
X038077Y024900D01*
X038030Y024999D02*
X038270Y024999D01*
X038368Y025097D02*
X037932Y025097D01*
X037833Y025196D02*
X038467Y025196D01*
X038473Y025348D02*
X038827Y025348D01*
X039077Y025598D01*
X039077Y025952D01*
X038827Y026202D01*
X038473Y026202D01*
X038223Y025952D01*
X038223Y025598D01*
X038473Y025348D01*
X038429Y025393D02*
X037871Y025393D01*
X037827Y025348D02*
X038077Y025598D01*
X038077Y025952D01*
X037827Y026202D01*
X037473Y026202D01*
X037223Y025952D01*
X037223Y025598D01*
X037473Y025348D01*
X037827Y025348D01*
X037970Y025491D02*
X038330Y025491D01*
X038232Y025590D02*
X038068Y025590D01*
X038077Y025688D02*
X038223Y025688D01*
X038223Y025787D02*
X038077Y025787D01*
X038077Y025885D02*
X038223Y025885D01*
X038255Y025984D02*
X038045Y025984D01*
X037947Y026082D02*
X038353Y026082D01*
X038452Y026181D02*
X037848Y026181D01*
X037827Y026348D02*
X038077Y026598D01*
X038077Y026952D01*
X037827Y027202D01*
X037473Y027202D01*
X037223Y026952D01*
X037223Y026598D01*
X037473Y026348D01*
X037827Y026348D01*
X037856Y026378D02*
X038444Y026378D01*
X038473Y026348D02*
X038827Y026348D01*
X039077Y026598D01*
X039077Y026952D01*
X038827Y027202D01*
X038473Y027202D01*
X038223Y026952D01*
X038223Y026598D01*
X038473Y026348D01*
X038345Y026476D02*
X037955Y026476D01*
X038053Y026575D02*
X038247Y026575D01*
X038223Y026673D02*
X038077Y026673D01*
X038077Y026772D02*
X038223Y026772D01*
X038223Y026870D02*
X038077Y026870D01*
X038060Y026969D02*
X038240Y026969D01*
X038338Y027067D02*
X037962Y027067D01*
X037863Y027166D02*
X038437Y027166D01*
X038465Y027328D02*
X038203Y027590D01*
X038203Y027727D01*
X038602Y027727D01*
X038602Y027823D01*
X038203Y027823D01*
X038203Y027960D01*
X038465Y028222D01*
X038602Y028222D01*
X038602Y027823D01*
X038698Y027823D01*
X038698Y028222D01*
X038835Y028222D01*
X039097Y027960D01*
X039097Y027823D01*
X038698Y027823D01*
X038698Y027727D01*
X039097Y027727D01*
X039097Y027590D01*
X038835Y027328D01*
X038698Y027328D01*
X038698Y027727D01*
X038602Y027727D01*
X038602Y027328D01*
X038465Y027328D01*
X038430Y027363D02*
X037841Y027363D01*
X037827Y027348D02*
X038077Y027598D01*
X038077Y027952D01*
X037827Y028202D01*
X037473Y028202D01*
X037223Y027952D01*
X037223Y027598D01*
X037473Y027348D01*
X037827Y027348D01*
X037940Y027461D02*
X038332Y027461D01*
X038233Y027560D02*
X038038Y027560D01*
X038077Y027658D02*
X038203Y027658D01*
X038077Y027757D02*
X038602Y027757D01*
X038698Y027757D02*
X039700Y027757D01*
X039700Y027855D02*
X039097Y027855D01*
X039097Y027954D02*
X039700Y027954D01*
X039700Y028052D02*
X039005Y028052D01*
X038906Y028151D02*
X039700Y028151D01*
X039700Y028249D02*
X032978Y028249D01*
X032975Y028348D02*
X039700Y028348D01*
X039700Y028446D02*
X032934Y028446D01*
X032844Y028545D02*
X039700Y028545D01*
X039700Y028643D02*
X030161Y028643D01*
X030063Y028742D02*
X039700Y028742D01*
X039700Y028840D02*
X029964Y028840D01*
X029916Y028939D02*
X039700Y028939D01*
X039700Y029037D02*
X029912Y029037D01*
X029871Y029136D02*
X039700Y029136D01*
X039700Y029234D02*
X038515Y029234D01*
X038718Y029333D02*
X039700Y029333D01*
X039700Y029431D02*
X038862Y029431D01*
X038960Y029530D02*
X039700Y029530D01*
X039700Y029628D02*
X039047Y029628D01*
X039104Y029727D02*
X039700Y029727D01*
X039700Y029825D02*
X039160Y029825D01*
X039195Y029924D02*
X039700Y029924D01*
X039700Y030022D02*
X039221Y030022D01*
X039247Y030121D02*
X039700Y030121D01*
X039700Y030219D02*
X039250Y030219D01*
X039250Y030318D02*
X039700Y030318D01*
X039700Y030416D02*
X039250Y030416D01*
X039225Y030515D02*
X039700Y030515D01*
X039700Y030613D02*
X039198Y030613D01*
X039168Y030712D02*
X039700Y030712D01*
X039700Y030810D02*
X039111Y030810D01*
X039054Y030909D02*
X039700Y030909D01*
X039700Y031007D02*
X038974Y031007D01*
X038875Y031106D02*
X039700Y031106D01*
X039700Y031204D02*
X038741Y031204D01*
X038565Y031303D02*
X039700Y031303D01*
X037735Y031303D02*
X002065Y031303D01*
X002241Y031204D02*
X037559Y031204D01*
X037425Y031106D02*
X002375Y031106D01*
X002474Y031007D02*
X037326Y031007D01*
X037246Y030909D02*
X002554Y030909D01*
X002611Y030810D02*
X037189Y030810D01*
X037132Y030712D02*
X002668Y030712D01*
X002698Y030613D02*
X037102Y030613D01*
X037075Y030515D02*
X002725Y030515D01*
X002750Y030416D02*
X037050Y030416D01*
X037050Y030318D02*
X002750Y030318D01*
X002750Y030219D02*
X037050Y030219D01*
X037053Y030121D02*
X002747Y030121D01*
X002721Y030022D02*
X037079Y030022D01*
X037105Y029924D02*
X002695Y029924D01*
X002660Y029825D02*
X037140Y029825D01*
X037196Y029727D02*
X002604Y029727D01*
X002547Y029628D02*
X037253Y029628D01*
X037340Y029530D02*
X002460Y029530D01*
X002362Y029431D02*
X037438Y029431D01*
X037582Y029333D02*
X002218Y029333D01*
X002015Y029234D02*
X029395Y029234D01*
X029304Y029136D02*
X000600Y029136D01*
X000600Y029234D02*
X001285Y029234D01*
X001082Y029333D02*
X000600Y029333D01*
X000600Y029431D02*
X000938Y029431D01*
X000840Y029530D02*
X000600Y029530D01*
X000600Y029628D02*
X000753Y029628D01*
X000696Y029727D02*
X000600Y029727D01*
X000600Y029825D02*
X000640Y029825D01*
X000605Y029924D02*
X000600Y029924D01*
X000600Y029037D02*
X029263Y029037D01*
X029259Y028939D02*
X000600Y028939D01*
X000600Y028840D02*
X015516Y028840D01*
X015442Y028820D02*
X015205Y028683D01*
X015011Y028490D01*
X014874Y028252D01*
X014803Y027988D01*
X014803Y027714D01*
X014874Y027449D01*
X015011Y027212D01*
X015205Y027018D01*
X015442Y026881D01*
X015707Y026810D01*
X015981Y026810D01*
X016246Y026881D01*
X016483Y027018D01*
X016677Y027212D01*
X016814Y027449D01*
X016884Y027714D01*
X016884Y027988D01*
X016814Y028252D01*
X016677Y028490D01*
X016483Y028683D01*
X016246Y028820D01*
X015981Y028891D01*
X015707Y028891D01*
X015442Y028820D01*
X015306Y028742D02*
X000600Y028742D01*
X000600Y028643D02*
X015165Y028643D01*
X015066Y028545D02*
X000600Y028545D01*
X000600Y028446D02*
X014986Y028446D01*
X014929Y028348D02*
X000600Y028348D01*
X000600Y028249D02*
X014873Y028249D01*
X014847Y028151D02*
X000600Y028151D01*
X000600Y028052D02*
X014821Y028052D01*
X014803Y027954D02*
X000600Y027954D01*
X000600Y027855D02*
X014803Y027855D01*
X014803Y027757D02*
X000600Y027757D01*
X000600Y027658D02*
X014818Y027658D01*
X014845Y027560D02*
X000600Y027560D01*
X000600Y027461D02*
X014871Y027461D01*
X014924Y027363D02*
X000600Y027363D01*
X000600Y027264D02*
X014981Y027264D01*
X015058Y027166D02*
X000600Y027166D01*
X000600Y027067D02*
X015156Y027067D01*
X015291Y026969D02*
X000600Y026969D01*
X000600Y026870D02*
X015484Y026870D01*
X015981Y026544D02*
X015663Y026225D01*
X015663Y025775D01*
X015981Y025457D01*
X016431Y025457D01*
X016749Y025775D01*
X016749Y026225D01*
X016431Y026544D01*
X015981Y026544D01*
X015913Y026476D02*
X014275Y026476D01*
X014217Y026534D02*
X014394Y026357D01*
X014490Y026126D01*
X014490Y013626D01*
X014490Y007125D01*
X014394Y006894D01*
X014217Y006716D01*
X013985Y006620D01*
X013734Y006620D01*
X013503Y006716D01*
X013326Y006894D01*
X013230Y007125D01*
X013230Y026126D01*
X013326Y026357D01*
X013503Y026534D01*
X013734Y026630D01*
X013985Y026630D01*
X014217Y026534D01*
X014120Y026575D02*
X022596Y026575D01*
X022497Y026673D02*
X000600Y026673D01*
X000600Y026575D02*
X013600Y026575D01*
X013444Y026476D02*
X000600Y026476D01*
X000600Y026378D02*
X013346Y026378D01*
X013293Y026279D02*
X000600Y026279D01*
X000600Y026181D02*
X013252Y026181D01*
X013230Y026082D02*
X000600Y026082D01*
X000600Y025984D02*
X013230Y025984D01*
X013230Y025885D02*
X000600Y025885D01*
X000600Y025787D02*
X013230Y025787D01*
X013230Y025688D02*
X000600Y025688D01*
X000600Y025590D02*
X013230Y025590D01*
X013230Y025491D02*
X000600Y025491D01*
X000600Y025393D02*
X013230Y025393D01*
X013230Y025294D02*
X000600Y025294D01*
X000600Y025196D02*
X013230Y025196D01*
X013230Y025097D02*
X000600Y025097D01*
X000600Y024999D02*
X013230Y024999D01*
X013230Y024900D02*
X000600Y024900D01*
X000600Y024802D02*
X013230Y024802D01*
X013230Y024703D02*
X000600Y024703D01*
X000600Y024605D02*
X013230Y024605D01*
X013230Y024506D02*
X000600Y024506D01*
X000600Y024408D02*
X013230Y024408D01*
X013230Y024309D02*
X000600Y024309D01*
X000600Y024211D02*
X013230Y024211D01*
X013230Y024112D02*
X000600Y024112D01*
X000600Y024014D02*
X013230Y024014D01*
X013230Y023915D02*
X000600Y023915D01*
X000600Y023817D02*
X013230Y023817D01*
X013230Y023718D02*
X000600Y023718D01*
X000600Y023620D02*
X013230Y023620D01*
X013230Y023521D02*
X000600Y023521D01*
X000600Y023423D02*
X013230Y023423D01*
X013230Y023324D02*
X000600Y023324D01*
X000600Y023226D02*
X013230Y023226D01*
X013230Y023127D02*
X000600Y023127D01*
X000600Y023029D02*
X013230Y023029D01*
X013230Y022930D02*
X000600Y022930D01*
X000600Y022832D02*
X013230Y022832D01*
X013230Y022733D02*
X000600Y022733D01*
X000600Y022635D02*
X013230Y022635D01*
X013230Y022536D02*
X000600Y022536D01*
X000600Y022438D02*
X013230Y022438D01*
X013230Y022339D02*
X000600Y022339D01*
X000600Y022241D02*
X013230Y022241D01*
X013230Y022142D02*
X000600Y022142D01*
X000600Y022044D02*
X013230Y022044D01*
X013230Y021945D02*
X000600Y021945D01*
X000600Y021847D02*
X013230Y021847D01*
X013230Y021748D02*
X000600Y021748D01*
X000600Y021650D02*
X013230Y021650D01*
X013230Y021551D02*
X000600Y021551D01*
X000600Y021453D02*
X013230Y021453D01*
X013230Y021354D02*
X000600Y021354D01*
X000600Y021256D02*
X013230Y021256D01*
X013230Y021157D02*
X000600Y021157D01*
X000600Y021059D02*
X013230Y021059D01*
X013230Y020960D02*
X000600Y020960D01*
X000600Y020862D02*
X013230Y020862D01*
X013230Y020763D02*
X000600Y020763D01*
X000600Y020665D02*
X013230Y020665D01*
X013230Y020566D02*
X000600Y020566D01*
X000600Y020468D02*
X013230Y020468D01*
X013230Y020369D02*
X000600Y020369D01*
X000600Y020271D02*
X013230Y020271D01*
X013230Y020172D02*
X000600Y020172D01*
X000600Y020074D02*
X013230Y020074D01*
X013230Y019975D02*
X000600Y019975D01*
X000600Y019877D02*
X013230Y019877D01*
X013230Y019778D02*
X000600Y019778D01*
X000600Y019680D02*
X013230Y019680D01*
X013230Y019581D02*
X000600Y019581D01*
X000600Y019483D02*
X013230Y019483D01*
X013230Y019384D02*
X000600Y019384D01*
X000600Y019286D02*
X013230Y019286D01*
X013230Y019187D02*
X000600Y019187D01*
X000600Y019089D02*
X013230Y019089D01*
X013230Y018990D02*
X000600Y018990D01*
X000600Y018892D02*
X013230Y018892D01*
X013230Y018793D02*
X000600Y018793D01*
X000600Y018695D02*
X013230Y018695D01*
X013230Y018596D02*
X000600Y018596D01*
X000600Y018498D02*
X013230Y018498D01*
X013230Y018399D02*
X000600Y018399D01*
X000600Y018301D02*
X013230Y018301D01*
X013230Y018202D02*
X000600Y018202D01*
X000600Y018104D02*
X013230Y018104D01*
X013230Y018005D02*
X000600Y018005D01*
X000600Y017907D02*
X013230Y017907D01*
X013230Y017808D02*
X000600Y017808D01*
X000600Y017710D02*
X013230Y017710D01*
X013230Y017611D02*
X000600Y017611D01*
X000600Y017513D02*
X013230Y017513D01*
X013230Y017414D02*
X000600Y017414D01*
X000600Y017316D02*
X013230Y017316D01*
X013230Y017217D02*
X000600Y017217D01*
X000600Y017119D02*
X013230Y017119D01*
X013230Y017020D02*
X000600Y017020D01*
X000600Y016922D02*
X013230Y016922D01*
X013230Y016823D02*
X000600Y016823D01*
X000600Y016725D02*
X013230Y016725D01*
X013230Y016626D02*
X000600Y016626D01*
X000600Y016528D02*
X013230Y016528D01*
X013230Y016429D02*
X000600Y016429D01*
X000600Y016331D02*
X013230Y016331D01*
X013230Y016232D02*
X000600Y016232D01*
X000600Y016134D02*
X013230Y016134D01*
X013230Y016035D02*
X000600Y016035D01*
X000600Y015937D02*
X013230Y015937D01*
X013230Y015838D02*
X000600Y015838D01*
X000600Y015740D02*
X013230Y015740D01*
X013230Y015641D02*
X000600Y015641D01*
X000600Y015543D02*
X013230Y015543D01*
X013230Y015444D02*
X000600Y015444D01*
X000600Y015346D02*
X013230Y015346D01*
X013230Y015247D02*
X000600Y015247D01*
X000600Y015149D02*
X013230Y015149D01*
X013230Y015050D02*
X000600Y015050D01*
X000600Y014952D02*
X013230Y014952D01*
X013230Y014853D02*
X000600Y014853D01*
X000600Y014755D02*
X013230Y014755D01*
X013230Y014656D02*
X000600Y014656D01*
X000600Y014558D02*
X013230Y014558D01*
X013230Y014459D02*
X000600Y014459D01*
X000600Y014361D02*
X013230Y014361D01*
X013230Y014262D02*
X000600Y014262D01*
X000600Y014164D02*
X013230Y014164D01*
X013230Y014065D02*
X000600Y014065D01*
X000600Y013967D02*
X013230Y013967D01*
X013230Y013868D02*
X000600Y013868D01*
X000600Y013770D02*
X013230Y013770D01*
X013230Y013671D02*
X000600Y013671D01*
X000600Y013573D02*
X013230Y013573D01*
X013230Y013474D02*
X000600Y013474D01*
X000600Y013376D02*
X013230Y013376D01*
X013230Y013277D02*
X000600Y013277D01*
X000600Y013179D02*
X013230Y013179D01*
X013230Y013080D02*
X000600Y013080D01*
X000600Y012982D02*
X013230Y012982D01*
X013230Y012883D02*
X000600Y012883D01*
X000600Y012785D02*
X013230Y012785D01*
X013230Y012686D02*
X000600Y012686D01*
X000600Y012588D02*
X013230Y012588D01*
X013230Y012489D02*
X000600Y012489D01*
X000600Y012391D02*
X013230Y012391D01*
X013230Y012292D02*
X000600Y012292D01*
X000600Y012194D02*
X013230Y012194D01*
X013230Y012095D02*
X000600Y012095D01*
X000600Y011997D02*
X013230Y011997D01*
X013230Y011898D02*
X000600Y011898D01*
X000600Y011800D02*
X013230Y011800D01*
X013230Y011701D02*
X000600Y011701D01*
X000600Y011603D02*
X013230Y011603D01*
X013230Y011504D02*
X000600Y011504D01*
X000600Y011406D02*
X013230Y011406D01*
X013230Y011307D02*
X000600Y011307D01*
X000600Y011209D02*
X013230Y011209D01*
X013230Y011110D02*
X000600Y011110D01*
X000600Y011012D02*
X013230Y011012D01*
X013230Y010913D02*
X000600Y010913D01*
X000600Y010815D02*
X013230Y010815D01*
X013230Y010716D02*
X000600Y010716D01*
X000600Y010618D02*
X013230Y010618D01*
X013230Y010519D02*
X000600Y010519D01*
X000600Y010421D02*
X013230Y010421D01*
X013230Y010322D02*
X000600Y010322D01*
X000600Y010224D02*
X013230Y010224D01*
X013230Y010125D02*
X000600Y010125D01*
X000600Y010027D02*
X013230Y010027D01*
X013230Y009928D02*
X000600Y009928D01*
X000600Y009830D02*
X013230Y009830D01*
X013230Y009731D02*
X000600Y009731D01*
X000600Y009633D02*
X013230Y009633D01*
X013230Y009534D02*
X000600Y009534D01*
X000600Y009436D02*
X013230Y009436D01*
X013230Y009337D02*
X000600Y009337D01*
X000600Y009239D02*
X013230Y009239D01*
X013230Y009140D02*
X000600Y009140D01*
X000600Y009042D02*
X013230Y009042D01*
X013230Y008943D02*
X000600Y008943D01*
X000600Y008845D02*
X013230Y008845D01*
X013230Y008746D02*
X000600Y008746D01*
X000600Y008648D02*
X013230Y008648D01*
X013230Y008549D02*
X000600Y008549D01*
X000600Y008451D02*
X013230Y008451D01*
X013230Y008352D02*
X000600Y008352D01*
X000600Y008254D02*
X013230Y008254D01*
X013230Y008155D02*
X000600Y008155D01*
X000600Y008057D02*
X013230Y008057D01*
X013230Y007958D02*
X000600Y007958D01*
X000600Y007860D02*
X013230Y007860D01*
X013230Y007761D02*
X000600Y007761D01*
X000600Y007663D02*
X013230Y007663D01*
X013230Y007564D02*
X000600Y007564D01*
X000600Y007466D02*
X013230Y007466D01*
X013230Y007367D02*
X000600Y007367D01*
X000600Y007269D02*
X013230Y007269D01*
X013230Y007170D02*
X000600Y007170D01*
X000600Y007072D02*
X013252Y007072D01*
X013293Y006973D02*
X000600Y006973D01*
X000600Y006875D02*
X013345Y006875D01*
X013443Y006776D02*
X000600Y006776D01*
X000600Y006678D02*
X013596Y006678D01*
X014123Y006678D02*
X023048Y006678D01*
X022949Y006579D02*
X000600Y006579D01*
X000600Y006481D02*
X022851Y006481D01*
X023065Y006185D02*
X023430Y006185D01*
X023409Y006106D02*
X023409Y005832D01*
X023480Y005567D01*
X023617Y005330D01*
X023810Y005136D01*
X023870Y005102D02*
X021981Y005102D01*
X022080Y005200D02*
X023850Y006970D01*
X024165Y006970D01*
X024048Y006939D01*
X023810Y006802D01*
X023617Y006608D01*
X023480Y006371D01*
X023409Y006106D01*
X023409Y006087D02*
X022966Y006087D01*
X022868Y005988D02*
X023409Y005988D01*
X023409Y005890D02*
X022769Y005890D01*
X022671Y005791D02*
X023420Y005791D01*
X023446Y005693D02*
X022572Y005693D01*
X022474Y005594D02*
X023472Y005594D01*
X023521Y005496D02*
X022375Y005496D01*
X022277Y005397D02*
X023578Y005397D01*
X023648Y005299D02*
X022178Y005299D01*
X023163Y006284D02*
X023456Y006284D01*
X023486Y006382D02*
X023262Y006382D01*
X023360Y006481D02*
X023543Y006481D01*
X023600Y006579D02*
X023459Y006579D01*
X023557Y006678D02*
X023686Y006678D01*
X023656Y006776D02*
X023785Y006776D01*
X023754Y006875D02*
X023937Y006875D01*
X025452Y005693D02*
X027147Y005693D01*
X027173Y005594D02*
X025426Y005594D01*
X025377Y005496D02*
X027222Y005496D01*
X027279Y005397D02*
X025321Y005397D01*
X025250Y005299D02*
X027349Y005299D01*
X027447Y005200D02*
X025152Y005200D01*
X025028Y005102D02*
X027571Y005102D01*
X027742Y005003D02*
X024857Y005003D01*
X024041Y005003D02*
X017842Y005003D01*
X017458Y005003D02*
X016815Y005003D01*
X016841Y005102D02*
X017367Y005102D01*
X017326Y005200D02*
X016868Y005200D01*
X016884Y005299D02*
X017322Y005299D01*
X017345Y005397D02*
X016884Y005397D01*
X016884Y005496D02*
X017406Y005496D01*
X016759Y004905D02*
X037223Y004905D01*
X037223Y004806D02*
X016702Y004806D01*
X016623Y004708D02*
X037223Y004708D01*
X037223Y004609D02*
X034909Y004609D01*
X035052Y004511D02*
X037311Y004511D01*
X037289Y004018D02*
X035266Y004018D01*
X035266Y003920D02*
X037223Y003920D01*
X037223Y003821D02*
X035266Y003821D01*
X035266Y003723D02*
X037223Y003723D01*
X037223Y003624D02*
X035266Y003624D01*
X035266Y003427D02*
X037394Y003427D01*
X037296Y003526D02*
X034664Y003526D01*
X034664Y003624D02*
X034564Y003624D01*
X034564Y003526D02*
X033686Y003526D01*
X033686Y003624D02*
X033962Y003624D01*
X033962Y003723D02*
X033686Y003723D01*
X033686Y003821D02*
X033962Y003821D01*
X033962Y003920D02*
X033686Y003920D01*
X033686Y004018D02*
X033962Y004018D01*
X033968Y004117D02*
X033686Y004117D01*
X033686Y004153D02*
X033590Y004385D01*
X033413Y004563D01*
X033180Y004659D01*
X032929Y004659D01*
X032697Y004563D01*
X032519Y004385D01*
X032423Y004153D01*
X032423Y002897D01*
X032519Y002665D01*
X032697Y002487D01*
X032929Y002391D01*
X033180Y002391D01*
X033413Y002487D01*
X033590Y002665D01*
X033686Y002897D01*
X033686Y004153D01*
X033661Y004215D02*
X033989Y004215D01*
X034027Y004314D02*
X033620Y004314D01*
X033563Y004412D02*
X034087Y004412D01*
X034175Y004511D02*
X033465Y004511D01*
X033301Y004609D02*
X034318Y004609D01*
X034564Y004609D02*
X034664Y004609D01*
X034664Y004511D02*
X034564Y004511D01*
X034564Y004412D02*
X034664Y004412D01*
X034664Y004314D02*
X034564Y004314D01*
X034564Y004215D02*
X034664Y004215D01*
X034664Y004117D02*
X034564Y004117D01*
X034564Y004018D02*
X034664Y004018D01*
X034664Y003920D02*
X034564Y003920D01*
X034564Y003821D02*
X034664Y003821D01*
X034664Y003723D02*
X034564Y003723D01*
X034564Y003475D02*
X033962Y003475D01*
X033962Y002980D01*
X033973Y002896D01*
X033995Y002813D01*
X034028Y002734D01*
X034070Y002660D01*
X034122Y002592D01*
X034183Y002532D01*
X034251Y002480D01*
X034325Y002437D01*
X034404Y002404D01*
X034486Y002382D01*
X034564Y002372D01*
X034564Y003475D01*
X034564Y003427D02*
X034664Y003427D01*
X034664Y003329D02*
X034564Y003329D01*
X034564Y003230D02*
X034664Y003230D01*
X034664Y003132D02*
X034564Y003132D01*
X034564Y003033D02*
X034664Y003033D01*
X034664Y002935D02*
X034564Y002935D01*
X034564Y002836D02*
X034664Y002836D01*
X034664Y002738D02*
X034564Y002738D01*
X034564Y002639D02*
X034664Y002639D01*
X034664Y002541D02*
X034564Y002541D01*
X034564Y002442D02*
X034664Y002442D01*
X034316Y002442D02*
X033303Y002442D01*
X033466Y002541D02*
X034174Y002541D01*
X034086Y002639D02*
X033564Y002639D01*
X033620Y002738D02*
X034026Y002738D01*
X033989Y002836D02*
X033661Y002836D01*
X033686Y002935D02*
X033968Y002935D01*
X033962Y003033D02*
X033686Y003033D01*
X033686Y003132D02*
X033962Y003132D01*
X033962Y003230D02*
X033686Y003230D01*
X033686Y003329D02*
X033962Y003329D01*
X033962Y003427D02*
X033686Y003427D01*
X032423Y003427D02*
X032147Y003427D01*
X032147Y003475D02*
X031545Y003475D01*
X031545Y002372D01*
X031623Y002382D01*
X031705Y002404D01*
X031784Y002437D01*
X031858Y002480D01*
X031926Y002532D01*
X031987Y002592D01*
X032039Y002660D01*
X032081Y002734D01*
X032114Y002813D01*
X032136Y002896D01*
X032147Y002980D01*
X032147Y003475D01*
X032147Y003575D02*
X031545Y003575D01*
X031445Y003575D01*
X031445Y003475D01*
X030844Y003475D01*
X030844Y002980D01*
X030855Y002896D01*
X030877Y002813D01*
X030909Y002734D01*
X030952Y002660D01*
X031004Y002592D01*
X031065Y002532D01*
X031132Y002480D01*
X031206Y002437D01*
X031285Y002404D01*
X031368Y002382D01*
X031445Y002372D01*
X031445Y003475D01*
X031545Y003475D01*
X031545Y003575D01*
X031545Y004678D01*
X031623Y004668D01*
X031705Y004646D01*
X031784Y004613D01*
X031858Y004570D01*
X031926Y004518D01*
X031987Y004458D01*
X032039Y004390D01*
X032081Y004316D01*
X032114Y004237D01*
X032136Y004154D01*
X032147Y004070D01*
X032147Y003575D01*
X032147Y003624D02*
X032423Y003624D01*
X032423Y003526D02*
X031545Y003526D01*
X031545Y003624D02*
X031445Y003624D01*
X031445Y003575D02*
X031445Y004678D01*
X031368Y004668D01*
X031285Y004646D01*
X031206Y004613D01*
X031132Y004570D01*
X031065Y004518D01*
X031004Y004458D01*
X030952Y004390D01*
X030909Y004316D01*
X030877Y004237D01*
X030855Y004154D01*
X030844Y004070D01*
X030844Y003575D01*
X031445Y003575D01*
X031445Y003526D02*
X030568Y003526D01*
X030568Y003624D02*
X030844Y003624D01*
X030844Y003723D02*
X030568Y003723D01*
X030568Y003821D02*
X030844Y003821D01*
X030844Y003920D02*
X030568Y003920D01*
X030568Y004018D02*
X030844Y004018D01*
X030850Y004117D02*
X030568Y004117D01*
X030568Y004153D02*
X030472Y004385D01*
X030294Y004563D01*
X030062Y004659D01*
X029811Y004659D01*
X029578Y004563D01*
X029401Y004385D01*
X029304Y004153D01*
X029304Y002897D01*
X029401Y002665D01*
X029578Y002487D01*
X029811Y002391D01*
X030062Y002391D01*
X030294Y002487D01*
X030472Y002665D01*
X030568Y002897D01*
X030568Y004153D01*
X030543Y004215D02*
X030871Y004215D01*
X030908Y004314D02*
X030502Y004314D01*
X030445Y004412D02*
X030969Y004412D01*
X031057Y004511D02*
X030347Y004511D01*
X030183Y004609D02*
X031200Y004609D01*
X031445Y004609D02*
X031545Y004609D01*
X031545Y004511D02*
X031445Y004511D01*
X031445Y004412D02*
X031545Y004412D01*
X031545Y004314D02*
X031445Y004314D01*
X031445Y004215D02*
X031545Y004215D01*
X031545Y004117D02*
X031445Y004117D01*
X031445Y004018D02*
X031545Y004018D01*
X031545Y003920D02*
X031445Y003920D01*
X031445Y003821D02*
X031545Y003821D01*
X031545Y003723D02*
X031445Y003723D01*
X031445Y003427D02*
X031545Y003427D01*
X031545Y003329D02*
X031445Y003329D01*
X031445Y003230D02*
X031545Y003230D01*
X031545Y003132D02*
X031445Y003132D01*
X031445Y003033D02*
X031545Y003033D01*
X031545Y002935D02*
X031445Y002935D01*
X031445Y002836D02*
X031545Y002836D01*
X031545Y002738D02*
X031445Y002738D01*
X031445Y002639D02*
X031545Y002639D01*
X031545Y002541D02*
X031445Y002541D01*
X031445Y002442D02*
X031545Y002442D01*
X031793Y002442D02*
X032806Y002442D01*
X032643Y002541D02*
X031935Y002541D01*
X032023Y002639D02*
X032545Y002639D01*
X032489Y002738D02*
X032083Y002738D01*
X032120Y002836D02*
X032448Y002836D01*
X032423Y002935D02*
X032141Y002935D01*
X032147Y003033D02*
X032423Y003033D01*
X032423Y003132D02*
X032147Y003132D01*
X032147Y003230D02*
X032423Y003230D01*
X032423Y003329D02*
X032147Y003329D01*
X032147Y003723D02*
X032423Y003723D01*
X032423Y003821D02*
X032147Y003821D01*
X032147Y003920D02*
X032423Y003920D01*
X032423Y004018D02*
X032147Y004018D01*
X032141Y004117D02*
X032423Y004117D01*
X032448Y004215D02*
X032120Y004215D01*
X032082Y004314D02*
X032489Y004314D01*
X032546Y004412D02*
X032022Y004412D01*
X031934Y004511D02*
X032644Y004511D01*
X032808Y004609D02*
X031791Y004609D01*
X030844Y003427D02*
X030568Y003427D01*
X030568Y003329D02*
X030844Y003329D01*
X030844Y003230D02*
X030568Y003230D01*
X030568Y003132D02*
X030844Y003132D01*
X030844Y003033D02*
X030568Y003033D01*
X030568Y002935D02*
X030850Y002935D01*
X030871Y002836D02*
X030543Y002836D01*
X030502Y002738D02*
X030908Y002738D01*
X030968Y002639D02*
X030446Y002639D01*
X030348Y002541D02*
X031056Y002541D01*
X031198Y002442D02*
X030185Y002442D01*
X029688Y002442D02*
X002535Y002442D01*
X002440Y002541D02*
X029525Y002541D01*
X029427Y002639D02*
X002342Y002639D01*
X002183Y002738D02*
X029371Y002738D01*
X029330Y002836D02*
X001940Y002836D01*
X001360Y002836D02*
X000600Y002836D01*
X000600Y002738D02*
X001117Y002738D01*
X000958Y002639D02*
X000600Y002639D01*
X000600Y002541D02*
X000860Y002541D01*
X000765Y002442D02*
X000600Y002442D01*
X000600Y002344D02*
X000708Y002344D01*
X000651Y002245D02*
X000600Y002245D01*
X000600Y002147D02*
X000611Y002147D01*
X000600Y002935D02*
X029304Y002935D01*
X029304Y003033D02*
X000600Y003033D01*
X000600Y003132D02*
X029304Y003132D01*
X029304Y003230D02*
X000600Y003230D01*
X000600Y003329D02*
X029304Y003329D01*
X029304Y003427D02*
X000600Y003427D01*
X000600Y003526D02*
X025990Y003526D01*
X026075Y003441D02*
X026525Y003441D01*
X026843Y003760D01*
X026843Y004210D01*
X026525Y004528D01*
X026075Y004528D01*
X025756Y004210D01*
X025756Y003760D01*
X026075Y003441D01*
X025892Y003624D02*
X000600Y003624D01*
X000600Y003723D02*
X025793Y003723D01*
X025756Y003821D02*
X000600Y003821D01*
X000600Y003920D02*
X025756Y003920D01*
X025756Y004018D02*
X000600Y004018D01*
X000600Y004117D02*
X025756Y004117D01*
X025762Y004215D02*
X000600Y004215D01*
X000600Y004314D02*
X025860Y004314D01*
X025959Y004412D02*
X016177Y004412D01*
X016384Y004511D02*
X026057Y004511D01*
X026542Y004511D02*
X029526Y004511D01*
X029428Y004412D02*
X026641Y004412D01*
X026739Y004314D02*
X029371Y004314D01*
X029330Y004215D02*
X026838Y004215D01*
X026843Y004117D02*
X029304Y004117D01*
X029304Y004018D02*
X026843Y004018D01*
X026843Y003920D02*
X029304Y003920D01*
X029304Y003821D02*
X026843Y003821D01*
X026806Y003723D02*
X029304Y003723D01*
X029304Y003624D02*
X026707Y003624D01*
X026609Y003526D02*
X029304Y003526D01*
X029690Y004609D02*
X016524Y004609D01*
X015511Y004412D02*
X000600Y004412D01*
X000600Y004511D02*
X015303Y004511D01*
X015163Y004609D02*
X000600Y004609D01*
X000600Y004708D02*
X015065Y004708D01*
X014985Y004806D02*
X000600Y004806D01*
X000600Y004905D02*
X014928Y004905D01*
X014873Y005003D02*
X000600Y005003D01*
X000600Y005102D02*
X014847Y005102D01*
X014820Y005200D02*
X000600Y005200D01*
X000600Y005299D02*
X014803Y005299D01*
X014803Y005397D02*
X000600Y005397D01*
X000600Y005496D02*
X014803Y005496D01*
X014819Y005594D02*
X000600Y005594D01*
X000600Y005693D02*
X014845Y005693D01*
X014871Y005791D02*
X000600Y005791D01*
X000600Y005890D02*
X014925Y005890D01*
X014982Y005988D02*
X000600Y005988D01*
X000600Y006087D02*
X015059Y006087D01*
X015157Y006185D02*
X000600Y006185D01*
X000600Y006284D02*
X015293Y006284D01*
X015488Y006382D02*
X000600Y006382D01*
X014276Y006776D02*
X015912Y006776D01*
X015814Y006875D02*
X014375Y006875D01*
X014427Y006973D02*
X015715Y006973D01*
X015663Y007072D02*
X014467Y007072D01*
X014490Y007170D02*
X015663Y007170D01*
X015663Y007269D02*
X014490Y007269D01*
X014490Y007367D02*
X015663Y007367D01*
X015663Y007466D02*
X014490Y007466D01*
X014490Y007564D02*
X015751Y007564D01*
X015850Y007663D02*
X014490Y007663D01*
X014490Y007761D02*
X015948Y007761D01*
X015677Y010618D02*
X014490Y010618D01*
X014490Y010716D02*
X015380Y010716D01*
X015210Y010815D02*
X014490Y010815D01*
X014490Y010913D02*
X015109Y010913D01*
X015011Y011012D02*
X014490Y011012D01*
X014490Y011110D02*
X014954Y011110D01*
X014897Y011209D02*
X014490Y011209D01*
X014490Y011307D02*
X014859Y011307D01*
X014832Y011406D02*
X014490Y011406D01*
X014490Y011504D02*
X014806Y011504D01*
X014803Y011603D02*
X014490Y011603D01*
X014490Y011701D02*
X014803Y011701D01*
X014807Y011800D02*
X014490Y011800D01*
X014490Y011898D02*
X014833Y011898D01*
X014859Y011997D02*
X014490Y011997D01*
X014490Y012095D02*
X014899Y012095D01*
X014956Y012194D02*
X014490Y012194D01*
X014490Y012292D02*
X015014Y012292D01*
X015113Y012391D02*
X014490Y012391D01*
X014490Y012489D02*
X015216Y012489D01*
X015387Y012588D02*
X014490Y012588D01*
X014490Y012686D02*
X015690Y012686D01*
X015998Y012686D02*
X026845Y012686D01*
X026845Y012588D02*
X016301Y012588D01*
X016472Y012489D02*
X026845Y012489D01*
X026845Y012391D02*
X016575Y012391D01*
X016673Y012292D02*
X026845Y012292D01*
X026845Y012194D02*
X016732Y012194D01*
X016788Y012095D02*
X026845Y012095D01*
X026845Y011997D02*
X016828Y011997D01*
X016855Y011898D02*
X026845Y011898D01*
X026845Y012785D02*
X014490Y012785D01*
X014490Y012883D02*
X026845Y012883D01*
X026845Y012982D02*
X016456Y012982D01*
X016431Y012957D02*
X016749Y013275D01*
X016749Y013725D01*
X016431Y014044D01*
X015981Y014044D01*
X015663Y013725D01*
X015663Y013275D01*
X015981Y012957D01*
X016431Y012957D01*
X016554Y013080D02*
X026845Y013080D01*
X026845Y013179D02*
X016653Y013179D01*
X016749Y013277D02*
X026809Y013277D01*
X026732Y013376D02*
X016749Y013376D01*
X016749Y013474D02*
X025144Y013474D01*
X025089Y013497D02*
X025210Y013447D01*
X025340Y013447D01*
X025461Y013497D01*
X025553Y013589D01*
X025603Y013710D01*
X025603Y013840D01*
X025553Y013961D01*
X025461Y014053D01*
X025340Y014103D01*
X025210Y014103D01*
X025204Y014101D01*
X024205Y015100D01*
X024100Y015205D01*
X017931Y015205D01*
X017928Y015211D01*
X017836Y015303D01*
X017715Y015353D01*
X017585Y015353D01*
X017464Y015303D01*
X017372Y015211D01*
X017322Y015090D01*
X017322Y014960D01*
X017372Y014839D01*
X017464Y014747D01*
X017585Y014697D01*
X017715Y014697D01*
X017836Y014747D01*
X017928Y014839D01*
X017931Y014845D01*
X023950Y014845D01*
X024949Y013846D01*
X024947Y013840D01*
X024947Y013710D01*
X024997Y013589D01*
X025089Y013497D01*
X025013Y013573D02*
X016749Y013573D01*
X016749Y013671D02*
X024963Y013671D01*
X024947Y013770D02*
X016705Y013770D01*
X016607Y013868D02*
X024927Y013868D01*
X024829Y013967D02*
X016508Y013967D01*
X016246Y014381D02*
X015981Y014310D01*
X015707Y014310D01*
X015442Y014381D01*
X015205Y014518D01*
X015011Y014712D01*
X014874Y014949D01*
X014803Y015214D01*
X014803Y015488D01*
X014874Y015752D01*
X015011Y015990D01*
X015205Y016183D01*
X015442Y016320D01*
X015707Y016391D01*
X015981Y016391D01*
X016246Y016320D01*
X016483Y016183D01*
X016677Y015990D01*
X016814Y015752D01*
X016884Y015488D01*
X016884Y015214D01*
X016814Y014949D01*
X016677Y014712D01*
X016483Y014518D01*
X016246Y014381D01*
X016169Y014361D02*
X024435Y014361D01*
X024336Y014459D02*
X016380Y014459D01*
X016522Y014558D02*
X024238Y014558D01*
X024139Y014656D02*
X016621Y014656D01*
X016701Y014755D02*
X017456Y014755D01*
X017366Y014853D02*
X016758Y014853D01*
X016814Y014952D02*
X017325Y014952D01*
X017322Y015050D02*
X016841Y015050D01*
X016867Y015149D02*
X017346Y015149D01*
X017408Y015247D02*
X016884Y015247D01*
X016884Y015346D02*
X017566Y015346D01*
X017734Y015346D02*
X024950Y015346D01*
X024851Y015444D02*
X016884Y015444D01*
X016870Y015543D02*
X024418Y015543D01*
X024464Y015497D02*
X024585Y015447D01*
X024715Y015447D01*
X024810Y015486D01*
X026074Y014221D01*
X026072Y014215D01*
X026072Y014085D01*
X026122Y013964D01*
X026214Y013872D01*
X026335Y013822D01*
X026465Y013822D01*
X026586Y013872D01*
X026678Y013964D01*
X026728Y014085D01*
X026728Y014215D01*
X026678Y014336D01*
X026586Y014428D01*
X026465Y014478D01*
X026335Y014478D01*
X026329Y014476D01*
X024978Y015826D01*
X024978Y015840D01*
X024928Y015961D01*
X024836Y016053D01*
X024715Y016103D01*
X024585Y016103D01*
X024464Y016053D01*
X024372Y015961D01*
X024322Y015840D01*
X024322Y015710D01*
X024372Y015589D01*
X024464Y015497D01*
X024350Y015641D02*
X016843Y015641D01*
X016817Y015740D02*
X024322Y015740D01*
X024322Y015838D02*
X016764Y015838D01*
X016707Y015937D02*
X024362Y015937D01*
X024446Y016035D02*
X016631Y016035D01*
X016533Y016134D02*
X020702Y016134D01*
X020614Y016232D02*
X016399Y016232D01*
X016208Y016331D02*
X020574Y016331D01*
X020572Y016429D02*
X014490Y016429D01*
X014490Y016331D02*
X015480Y016331D01*
X015289Y016232D02*
X014490Y016232D01*
X014490Y016134D02*
X015155Y016134D01*
X015057Y016035D02*
X014490Y016035D01*
X014490Y015937D02*
X014981Y015937D01*
X014924Y015838D02*
X014490Y015838D01*
X014490Y015740D02*
X014871Y015740D01*
X014844Y015641D02*
X014490Y015641D01*
X014490Y015543D02*
X014818Y015543D01*
X014803Y015444D02*
X014490Y015444D01*
X014490Y015346D02*
X014803Y015346D01*
X014803Y015247D02*
X014490Y015247D01*
X014490Y015149D02*
X014821Y015149D01*
X014847Y015050D02*
X014490Y015050D01*
X014490Y014952D02*
X014874Y014952D01*
X014930Y014853D02*
X014490Y014853D01*
X014490Y014755D02*
X014987Y014755D01*
X015067Y014656D02*
X014490Y014656D01*
X014490Y014558D02*
X015166Y014558D01*
X015307Y014459D02*
X014490Y014459D01*
X014490Y014361D02*
X015519Y014361D01*
X015904Y013967D02*
X014490Y013967D01*
X014490Y014065D02*
X024730Y014065D01*
X024632Y014164D02*
X014490Y014164D01*
X014490Y014262D02*
X024533Y014262D01*
X024747Y014558D02*
X025738Y014558D01*
X025639Y014656D02*
X024649Y014656D01*
X024550Y014755D02*
X025541Y014755D01*
X025442Y014853D02*
X024452Y014853D01*
X024353Y014952D02*
X025344Y014952D01*
X025245Y015050D02*
X024255Y015050D01*
X024156Y015149D02*
X025147Y015149D01*
X025048Y015247D02*
X017892Y015247D01*
X017650Y015025D02*
X024025Y015025D01*
X025275Y013775D01*
X025603Y013770D02*
X026806Y013770D01*
X026730Y013671D02*
X025587Y013671D01*
X025537Y013573D02*
X026697Y013573D01*
X026697Y013474D02*
X025406Y013474D01*
X025592Y013868D02*
X026223Y013868D01*
X026121Y013967D02*
X025547Y013967D01*
X025432Y014065D02*
X026080Y014065D01*
X026072Y014164D02*
X025141Y014164D01*
X025043Y014262D02*
X026033Y014262D01*
X025935Y014361D02*
X024944Y014361D01*
X024846Y014459D02*
X025836Y014459D01*
X026050Y014755D02*
X027970Y014755D01*
X027970Y014853D02*
X025952Y014853D01*
X025853Y014952D02*
X027970Y014952D01*
X027970Y015050D02*
X025755Y015050D01*
X025656Y015149D02*
X027970Y015149D01*
X027970Y015247D02*
X025558Y015247D01*
X025459Y015346D02*
X027970Y015346D01*
X027970Y015444D02*
X025361Y015444D01*
X025262Y015543D02*
X027970Y015543D01*
X027904Y015641D02*
X025164Y015641D01*
X025065Y015740D02*
X027806Y015740D01*
X027707Y015838D02*
X024978Y015838D01*
X024938Y015937D02*
X027609Y015937D01*
X027510Y016035D02*
X024854Y016035D01*
X024775Y015775D02*
X024650Y015775D01*
X024775Y015775D02*
X026400Y014150D01*
X026728Y014164D02*
X027970Y014164D01*
X027970Y014262D02*
X026709Y014262D01*
X026653Y014361D02*
X027970Y014361D01*
X027970Y014459D02*
X026511Y014459D01*
X026247Y014558D02*
X027970Y014558D01*
X027970Y014656D02*
X026149Y014656D01*
X026720Y014065D02*
X027970Y014065D01*
X027970Y013967D02*
X026679Y013967D01*
X026577Y013868D02*
X027970Y013868D01*
X029100Y013080D02*
X030408Y013080D01*
X030343Y012982D02*
X029198Y012982D01*
X030400Y012725D02*
X030400Y011900D01*
X030539Y011603D02*
X030595Y011603D01*
X031413Y012391D02*
X037431Y012391D01*
X037869Y012391D02*
X038431Y012391D01*
X038332Y012489D02*
X037968Y012489D01*
X038066Y012588D02*
X038234Y012588D01*
X038223Y012686D02*
X038077Y012686D01*
X038077Y012785D02*
X038223Y012785D01*
X038223Y012883D02*
X038077Y012883D01*
X038047Y012982D02*
X038253Y012982D01*
X038351Y013080D02*
X037949Y013080D01*
X037850Y013179D02*
X038450Y013179D01*
X038949Y013080D02*
X039701Y013080D01*
X039701Y012982D02*
X039047Y012982D01*
X039077Y012883D02*
X039701Y012883D01*
X039701Y012785D02*
X039077Y012785D01*
X039077Y012686D02*
X039701Y012686D01*
X039701Y012588D02*
X039066Y012588D01*
X038968Y012489D02*
X039701Y012489D01*
X039701Y012391D02*
X038869Y012391D01*
X038465Y012194D02*
X037835Y012194D01*
X037934Y012095D02*
X038366Y012095D01*
X038268Y011997D02*
X038032Y011997D01*
X038077Y011898D02*
X038223Y011898D01*
X038223Y011800D02*
X038077Y011800D01*
X038077Y011701D02*
X038223Y011701D01*
X038223Y011603D02*
X038077Y011603D01*
X037983Y011504D02*
X038317Y011504D01*
X038288Y011406D02*
X038416Y011406D01*
X038373Y011307D02*
X039701Y011307D01*
X039701Y011209D02*
X038471Y011209D01*
X037283Y011012D02*
X037155Y011012D01*
X037223Y010913D02*
X037057Y010913D01*
X036958Y010815D02*
X037223Y010815D01*
X037223Y010716D02*
X036860Y010716D01*
X036840Y010618D02*
X037223Y010618D01*
X037302Y010519D02*
X036840Y010519D01*
X036840Y010421D02*
X037401Y010421D01*
X037396Y010125D02*
X036840Y010125D01*
X036840Y010027D02*
X037298Y010027D01*
X037223Y009928D02*
X036840Y009928D01*
X036840Y009830D02*
X037223Y009830D01*
X037223Y009731D02*
X036840Y009731D01*
X036840Y009633D02*
X037223Y009633D01*
X037287Y009534D02*
X036840Y009534D01*
X036840Y009436D02*
X037386Y009436D01*
X037411Y009140D02*
X036840Y009140D01*
X036840Y009042D02*
X037313Y009042D01*
X037223Y008943D02*
X036840Y008943D01*
X036840Y008845D02*
X037223Y008845D01*
X037223Y008746D02*
X036840Y008746D01*
X036840Y008648D02*
X037223Y008648D01*
X037272Y008549D02*
X036840Y008549D01*
X036840Y008451D02*
X037371Y008451D01*
X037469Y008352D02*
X036840Y008352D01*
X033994Y007663D02*
X031542Y007663D01*
X031641Y007761D02*
X033895Y007761D01*
X033797Y007860D02*
X031739Y007860D01*
X031838Y007958D02*
X033558Y007958D01*
X033404Y008057D02*
X031936Y008057D01*
X032035Y008155D02*
X032065Y008155D01*
X032235Y008155D02*
X033345Y008155D01*
X033322Y008254D02*
X032393Y008254D01*
X032454Y008352D02*
X033327Y008352D01*
X033368Y008451D02*
X032478Y008451D01*
X032474Y008549D02*
X033460Y008549D01*
X032150Y008475D02*
X032100Y008475D01*
X031200Y007575D01*
X031030Y007860D02*
X028864Y007860D01*
X028963Y007958D02*
X031003Y007958D01*
X030959Y008057D02*
X029061Y008057D01*
X028525Y007775D02*
X026400Y007775D01*
X030934Y008746D02*
X031957Y008746D01*
X031866Y008648D02*
X031032Y008648D01*
X031131Y008549D02*
X031826Y008549D01*
X031821Y008451D02*
X031407Y008451D01*
X031537Y008352D02*
X031722Y008352D01*
X031624Y008254D02*
X031587Y008254D01*
X037829Y005200D02*
X038471Y005200D01*
X038373Y005102D02*
X037927Y005102D01*
X038026Y005003D02*
X038274Y005003D01*
X038223Y004905D02*
X038077Y004905D01*
X038077Y004806D02*
X038223Y004806D01*
X038223Y004708D02*
X038077Y004708D01*
X038077Y004609D02*
X038223Y004609D01*
X038311Y004511D02*
X037989Y004511D01*
X037891Y004412D02*
X038409Y004412D01*
X038388Y004117D02*
X037912Y004117D01*
X038011Y004018D02*
X038289Y004018D01*
X038223Y003920D02*
X038077Y003920D01*
X038077Y003821D02*
X038223Y003821D01*
X038223Y003723D02*
X038077Y003723D01*
X038077Y003624D02*
X038223Y003624D01*
X038296Y003526D02*
X038004Y003526D01*
X037906Y003427D02*
X038394Y003427D01*
X038440Y002836D02*
X039701Y002836D01*
X039701Y002738D02*
X038683Y002738D01*
X038842Y002639D02*
X039701Y002639D01*
X039701Y002541D02*
X038940Y002541D01*
X039035Y002442D02*
X039701Y002442D01*
X039701Y002344D02*
X039092Y002344D01*
X039149Y002245D02*
X039701Y002245D01*
X039701Y002147D02*
X039189Y002147D01*
X039216Y002048D02*
X039701Y002048D01*
X039701Y001950D02*
X039242Y001950D01*
X039250Y001851D02*
X039701Y001851D01*
X039701Y001753D02*
X039250Y001753D01*
X039250Y001654D02*
X039701Y001654D01*
X039701Y001556D02*
X039230Y001556D01*
X039204Y001457D02*
X039701Y001457D01*
X039701Y001359D02*
X039177Y001359D01*
X039123Y001260D02*
X039701Y001260D01*
X039701Y001162D02*
X039066Y001162D01*
X038994Y001063D02*
X039701Y001063D01*
X039701Y000965D02*
X038895Y000965D01*
X038776Y000866D02*
X039701Y000866D01*
X039701Y000768D02*
X038605Y000768D01*
X032935Y013671D02*
X031676Y013671D01*
X031603Y013573D02*
X032427Y013573D01*
X031918Y013474D02*
X031603Y013474D01*
X031774Y013770D02*
X033443Y013770D01*
X032168Y014164D02*
X035476Y014164D01*
X034968Y014065D02*
X032070Y014065D01*
X032595Y015937D02*
X030813Y015937D01*
X030729Y016035D02*
X032510Y016035D01*
X032470Y016134D02*
X029546Y016134D01*
X029448Y016232D02*
X032470Y016232D01*
X032470Y016331D02*
X029349Y016331D01*
X029251Y016429D02*
X032470Y016429D01*
X031672Y017414D02*
X029141Y017414D01*
X029042Y017513D02*
X031602Y017513D01*
X031572Y017611D02*
X028944Y017611D01*
X028845Y017710D02*
X031572Y017710D01*
X031610Y017808D02*
X028747Y017808D01*
X028648Y017907D02*
X031693Y017907D01*
X032107Y017907D02*
X032460Y017907D01*
X032460Y018005D02*
X028550Y018005D01*
X028451Y018104D02*
X032460Y018104D01*
X032460Y018202D02*
X028353Y018202D01*
X028254Y018301D02*
X032460Y018301D01*
X032460Y018399D02*
X028156Y018399D01*
X028057Y018498D02*
X032460Y018498D01*
X032460Y018596D02*
X027959Y018596D01*
X027860Y018695D02*
X032460Y018695D01*
X032460Y018793D02*
X027762Y018793D01*
X027663Y018892D02*
X032460Y018892D01*
X032460Y018990D02*
X027565Y018990D01*
X027466Y019089D02*
X032460Y019089D01*
X032460Y019187D02*
X027368Y019187D01*
X027269Y019286D02*
X032460Y019286D01*
X032490Y019384D02*
X027171Y019384D01*
X027072Y019483D02*
X032589Y019483D01*
X032687Y019581D02*
X026974Y019581D01*
X026875Y019680D02*
X032786Y019680D01*
X032884Y019778D02*
X026777Y019778D01*
X026678Y019877D02*
X032960Y019877D01*
X032960Y019975D02*
X032908Y019975D01*
X032642Y019975D02*
X026580Y019975D01*
X026481Y020074D02*
X032512Y020074D01*
X032775Y020275D02*
X026650Y020275D01*
X022900Y024025D01*
X017650Y024025D01*
X017766Y023718D02*
X022952Y023718D01*
X022854Y023817D02*
X017906Y023817D01*
X017534Y023718D02*
X016796Y023718D01*
X016814Y023748D02*
X016884Y024013D01*
X016884Y024287D01*
X016814Y024552D01*
X016677Y024789D01*
X016483Y024983D01*
X016246Y025120D01*
X015981Y025191D01*
X015707Y025191D01*
X015442Y025120D01*
X015205Y024983D01*
X015011Y024789D01*
X014874Y024552D01*
X014803Y024287D01*
X014803Y024013D01*
X014874Y023748D01*
X015011Y023511D01*
X015205Y023317D01*
X015442Y023180D01*
X015707Y023109D01*
X015981Y023109D01*
X016246Y023180D01*
X016483Y023317D01*
X016677Y023511D01*
X016814Y023748D01*
X016832Y023817D02*
X017394Y023817D01*
X017340Y023915D02*
X016858Y023915D01*
X016884Y024014D02*
X017322Y024014D01*
X017331Y024112D02*
X016884Y024112D01*
X016884Y024211D02*
X017372Y024211D01*
X017478Y024309D02*
X016879Y024309D01*
X016852Y024408D02*
X022763Y024408D01*
X022664Y024506D02*
X017845Y024506D01*
X017822Y024309D02*
X022861Y024309D01*
X022960Y024211D02*
X017928Y024211D01*
X017455Y024506D02*
X016826Y024506D01*
X016783Y024605D02*
X017365Y024605D01*
X017325Y024703D02*
X016726Y024703D01*
X016664Y024802D02*
X017322Y024802D01*
X017347Y024900D02*
X016565Y024900D01*
X016455Y024999D02*
X017410Y024999D01*
X017570Y025097D02*
X016285Y025097D01*
X016465Y025491D02*
X023679Y025491D01*
X023581Y025590D02*
X016564Y025590D01*
X016662Y025688D02*
X023482Y025688D01*
X023384Y025787D02*
X016749Y025787D01*
X016749Y025885D02*
X023285Y025885D01*
X023187Y025984D02*
X016749Y025984D01*
X016749Y026082D02*
X023088Y026082D01*
X022990Y026181D02*
X016749Y026181D01*
X016696Y026279D02*
X022891Y026279D01*
X022793Y026378D02*
X016597Y026378D01*
X016499Y026476D02*
X022694Y026476D01*
X022908Y026772D02*
X025098Y026772D01*
X025072Y026870D02*
X022809Y026870D01*
X022711Y026969D02*
X025073Y026969D01*
X025114Y027067D02*
X022612Y027067D01*
X022514Y027166D02*
X025202Y027166D01*
X025400Y026900D02*
X028900Y026900D01*
X029400Y026400D01*
X030650Y026400D01*
X031400Y027150D01*
X031092Y027264D02*
X030580Y027264D01*
X030580Y027363D02*
X031149Y027363D01*
X031294Y027461D02*
X030580Y027461D01*
X030580Y027560D02*
X031151Y027560D01*
X031400Y027775D02*
X030775Y027775D01*
X029588Y028963D01*
X029283Y028840D02*
X016172Y028840D01*
X016382Y028742D02*
X029344Y028742D01*
X029501Y028643D02*
X016523Y028643D01*
X016622Y028545D02*
X029751Y028545D01*
X029849Y028446D02*
X016702Y028446D01*
X016759Y028348D02*
X021321Y028348D01*
X021335Y028353D02*
X021214Y028303D01*
X021122Y028211D01*
X021072Y028090D01*
X021072Y027960D01*
X021122Y027839D01*
X021214Y027747D01*
X021335Y027697D01*
X021465Y027697D01*
X021471Y027699D01*
X024325Y024845D01*
X032244Y024845D01*
X032247Y024839D01*
X032339Y024747D01*
X032460Y024697D01*
X032590Y024697D01*
X032711Y024747D01*
X032803Y024839D01*
X032853Y024960D01*
X032853Y025090D01*
X032803Y025211D01*
X032711Y025303D01*
X032590Y025353D01*
X032460Y025353D01*
X032339Y025303D01*
X032247Y025211D01*
X032244Y025205D01*
X024475Y025205D01*
X021726Y027954D01*
X021728Y027960D01*
X021728Y028090D01*
X021678Y028211D01*
X021586Y028303D01*
X021465Y028353D01*
X021335Y028353D01*
X021479Y028348D02*
X029948Y028348D01*
X030046Y028249D02*
X021640Y028249D01*
X021703Y028151D02*
X025187Y028151D01*
X025108Y028052D02*
X021728Y028052D01*
X021726Y027954D02*
X025072Y027954D01*
X025072Y027855D02*
X021824Y027855D01*
X021923Y027757D02*
X025104Y027757D01*
X025178Y027658D02*
X022021Y027658D01*
X022120Y027560D02*
X030111Y027560D01*
X030012Y027658D02*
X025622Y027658D01*
X025400Y027900D02*
X030025Y027900D01*
X030400Y027525D01*
X030400Y026900D01*
X030702Y026772D02*
X030767Y026772D01*
X030728Y026870D02*
X030866Y026870D01*
X030964Y026969D02*
X030727Y026969D01*
X030686Y027067D02*
X031063Y027067D01*
X031072Y027166D02*
X030598Y027166D01*
X030220Y027264D02*
X022415Y027264D01*
X022317Y027363D02*
X030220Y027363D01*
X030209Y027461D02*
X022218Y027461D01*
X022005Y027166D02*
X016630Y027166D01*
X016707Y027264D02*
X021906Y027264D01*
X021808Y027363D02*
X016764Y027363D01*
X016817Y027461D02*
X021709Y027461D01*
X021611Y027560D02*
X016843Y027560D01*
X016870Y027658D02*
X021512Y027658D01*
X021204Y027757D02*
X016884Y027757D01*
X016884Y027855D02*
X021115Y027855D01*
X021074Y027954D02*
X016884Y027954D01*
X016867Y028052D02*
X021072Y028052D01*
X021097Y028151D02*
X016841Y028151D01*
X016814Y028249D02*
X021160Y028249D01*
X021400Y028025D02*
X024400Y025025D01*
X032525Y025025D01*
X032828Y024900D02*
X036620Y024900D01*
X036620Y024802D02*
X032766Y024802D01*
X032605Y024703D02*
X036620Y024703D01*
X036620Y024605D02*
X023075Y024605D01*
X022976Y024703D02*
X032445Y024703D01*
X032284Y024802D02*
X022878Y024802D01*
X022779Y024900D02*
X024270Y024900D01*
X024172Y024999D02*
X017890Y024999D01*
X017730Y025097D02*
X024073Y025097D01*
X023975Y025196D02*
X014490Y025196D01*
X014490Y025294D02*
X023876Y025294D01*
X023778Y025393D02*
X014490Y025393D01*
X014490Y025491D02*
X015947Y025491D01*
X015848Y025590D02*
X014490Y025590D01*
X014490Y025688D02*
X015750Y025688D01*
X015663Y025787D02*
X014490Y025787D01*
X014490Y025885D02*
X015663Y025885D01*
X015663Y025984D02*
X014490Y025984D01*
X014490Y026082D02*
X015663Y026082D01*
X015663Y026181D02*
X014467Y026181D01*
X014426Y026279D02*
X015716Y026279D01*
X015815Y026378D02*
X014373Y026378D01*
X014490Y025097D02*
X015403Y025097D01*
X015233Y024999D02*
X014490Y024999D01*
X014490Y024900D02*
X015122Y024900D01*
X015024Y024802D02*
X014490Y024802D01*
X014490Y024703D02*
X014962Y024703D01*
X014905Y024605D02*
X014490Y024605D01*
X014490Y024506D02*
X014862Y024506D01*
X014836Y024408D02*
X014490Y024408D01*
X014490Y024309D02*
X014809Y024309D01*
X014803Y024211D02*
X014490Y024211D01*
X014490Y024112D02*
X014803Y024112D01*
X014803Y024014D02*
X014490Y024014D01*
X014490Y023915D02*
X014830Y023915D01*
X014856Y023817D02*
X014490Y023817D01*
X014490Y023718D02*
X014892Y023718D01*
X014949Y023620D02*
X014490Y023620D01*
X014490Y023521D02*
X015005Y023521D01*
X015100Y023423D02*
X014490Y023423D01*
X014490Y023324D02*
X015198Y023324D01*
X015364Y023226D02*
X014490Y023226D01*
X014490Y023127D02*
X015641Y023127D01*
X016047Y023127D02*
X023543Y023127D01*
X023445Y023226D02*
X016324Y023226D01*
X016490Y023324D02*
X023346Y023324D01*
X023248Y023423D02*
X016588Y023423D01*
X016682Y023521D02*
X023149Y023521D01*
X023051Y023620D02*
X016739Y023620D01*
X017650Y024775D02*
X022650Y024775D01*
X024150Y023275D01*
X026650Y023275D01*
X028025Y021900D01*
X032525Y021900D01*
X032747Y022142D02*
X036620Y022142D01*
X036620Y022044D02*
X032821Y022044D01*
X032853Y021945D02*
X034130Y021945D01*
X034008Y021847D02*
X032853Y021847D01*
X032817Y021748D02*
X033960Y021748D01*
X033947Y021650D02*
X032739Y021650D01*
X032311Y021650D02*
X025530Y021650D01*
X025432Y021748D02*
X027922Y021748D01*
X027824Y021847D02*
X025333Y021847D01*
X025235Y021945D02*
X027725Y021945D01*
X027627Y022044D02*
X025136Y022044D01*
X025038Y022142D02*
X027528Y022142D01*
X027430Y022241D02*
X024939Y022241D01*
X024841Y022339D02*
X027331Y022339D01*
X027233Y022438D02*
X024742Y022438D01*
X024644Y022536D02*
X027134Y022536D01*
X027036Y022635D02*
X024545Y022635D01*
X024447Y022733D02*
X026937Y022733D01*
X026839Y022832D02*
X024348Y022832D01*
X024250Y022930D02*
X026740Y022930D01*
X026642Y023029D02*
X024151Y023029D01*
X023937Y022733D02*
X021031Y022733D01*
X020892Y022832D02*
X023839Y022832D01*
X023740Y022930D02*
X014490Y022930D01*
X014490Y022832D02*
X020658Y022832D01*
X020775Y022525D02*
X023775Y022525D01*
X029400Y016900D01*
X029645Y016035D02*
X030321Y016035D01*
X027412Y016134D02*
X021098Y016134D01*
X021186Y016232D02*
X027313Y016232D01*
X027215Y016331D02*
X021226Y016331D01*
X021228Y016429D02*
X027116Y016429D01*
X027018Y016528D02*
X021282Y016528D01*
X024041Y014755D02*
X017844Y014755D01*
X015805Y013868D02*
X014490Y013868D01*
X014490Y013770D02*
X015707Y013770D01*
X015663Y013671D02*
X014490Y013671D01*
X014490Y013573D02*
X015663Y013573D01*
X015663Y013474D02*
X014490Y013474D01*
X014490Y013376D02*
X015663Y013376D01*
X015663Y013277D02*
X014490Y013277D01*
X014490Y013179D02*
X015760Y013179D01*
X015858Y013080D02*
X014490Y013080D01*
X014490Y012982D02*
X015957Y012982D01*
X016881Y011800D02*
X017461Y011800D01*
X017368Y011701D02*
X016884Y011701D01*
X016884Y011603D02*
X017327Y011603D01*
X017322Y011504D02*
X016882Y011504D01*
X016856Y011406D02*
X017344Y011406D01*
X017404Y011307D02*
X016829Y011307D01*
X016791Y011209D02*
X017557Y011209D01*
X015475Y016922D02*
X014490Y016922D01*
X014490Y017020D02*
X015287Y017020D01*
X015154Y017119D02*
X014490Y017119D01*
X014490Y017217D02*
X015055Y017217D01*
X014980Y017316D02*
X014490Y017316D01*
X014490Y017414D02*
X014923Y017414D01*
X014870Y017513D02*
X014490Y017513D01*
X014490Y017611D02*
X014844Y017611D01*
X014818Y017710D02*
X014490Y017710D01*
X014490Y017808D02*
X014803Y017808D01*
X014803Y017907D02*
X014490Y017907D01*
X014490Y018005D02*
X014803Y018005D01*
X014821Y018104D02*
X014490Y018104D01*
X014490Y018202D02*
X014848Y018202D01*
X014874Y018301D02*
X014490Y018301D01*
X014490Y018399D02*
X014930Y018399D01*
X014987Y018498D02*
X014490Y018498D01*
X014490Y018596D02*
X015068Y018596D01*
X015167Y018695D02*
X014490Y018695D01*
X014490Y018793D02*
X015310Y018793D01*
X015524Y018892D02*
X014490Y018892D01*
X014490Y018990D02*
X025430Y018990D01*
X025332Y019089D02*
X014490Y019089D01*
X014490Y019187D02*
X025233Y019187D01*
X025135Y019286D02*
X016510Y019286D01*
X016608Y019384D02*
X025036Y019384D01*
X024938Y019483D02*
X016707Y019483D01*
X016749Y019581D02*
X024839Y019581D01*
X024741Y019680D02*
X016749Y019680D01*
X016749Y019778D02*
X024642Y019778D01*
X024544Y019877D02*
X016749Y019877D01*
X016749Y019975D02*
X016431Y020294D01*
X015859Y020172D02*
X014490Y020172D01*
X014490Y020074D02*
X015761Y020074D01*
X015663Y019778D02*
X014490Y019778D01*
X014490Y019680D02*
X015663Y019680D01*
X015663Y019581D02*
X014490Y019581D01*
X014490Y019483D02*
X015705Y019483D01*
X015804Y019384D02*
X014490Y019384D01*
X014490Y019286D02*
X015902Y019286D01*
X016164Y018892D02*
X025529Y018892D01*
X025627Y018793D02*
X016378Y018793D01*
X016521Y018695D02*
X025726Y018695D01*
X025824Y018596D02*
X016619Y018596D01*
X016700Y018498D02*
X025923Y018498D01*
X026021Y018399D02*
X016757Y018399D01*
X016814Y018301D02*
X026120Y018301D01*
X026218Y018202D02*
X016840Y018202D01*
X020589Y022247D02*
X020497Y022339D01*
X020946Y022241D02*
X023805Y022241D01*
X023700Y022345D02*
X021056Y022345D01*
X021053Y022339D01*
X023642Y023029D02*
X014490Y023029D01*
X016204Y026870D02*
X022300Y026870D01*
X022202Y026969D02*
X016397Y026969D01*
X016532Y027067D02*
X022103Y027067D01*
X022399Y026772D02*
X000600Y026772D01*
X023006Y026673D02*
X025163Y026673D01*
X025328Y026575D02*
X023105Y026575D01*
X023203Y026476D02*
X029069Y026476D01*
X028971Y026575D02*
X025472Y026575D01*
X025637Y026673D02*
X028872Y026673D01*
X029086Y026969D02*
X030073Y026969D01*
X030072Y026870D02*
X029184Y026870D01*
X029283Y026772D02*
X030098Y026772D01*
X030163Y026673D02*
X029381Y026673D01*
X029168Y026378D02*
X023302Y026378D01*
X023400Y026279D02*
X029266Y026279D01*
X029176Y026181D02*
X027080Y026181D01*
X027180Y026082D02*
X029078Y026082D01*
X029150Y025900D02*
X029400Y026150D01*
X031025Y026150D01*
X032650Y027775D01*
X032650Y028275D01*
X032954Y028151D02*
X037422Y028151D01*
X037323Y028052D02*
X032891Y028052D01*
X032830Y027954D02*
X037225Y027954D01*
X037223Y027855D02*
X032830Y027855D01*
X032697Y027560D02*
X032689Y027560D01*
X032697Y027461D02*
X032591Y027461D01*
X032492Y027363D02*
X032737Y027363D01*
X032822Y027264D02*
X032394Y027264D01*
X032295Y027166D02*
X036130Y027166D01*
X036031Y027264D02*
X033228Y027264D01*
X033025Y027525D02*
X036025Y027525D01*
X036800Y026750D01*
X036800Y015275D01*
X036150Y014775D01*
X036436Y014656D02*
X037223Y014656D01*
X037225Y014558D02*
X037264Y014558D01*
X037329Y014459D02*
X037362Y014459D01*
X037223Y014755D02*
X036460Y014755D01*
X036547Y014853D02*
X037223Y014853D01*
X037223Y014952D02*
X036675Y014952D01*
X037013Y015050D02*
X037321Y015050D01*
X037420Y015149D02*
X037083Y015149D01*
X037110Y015247D02*
X039701Y015247D01*
X039701Y015149D02*
X038880Y015149D01*
X038979Y015050D02*
X039701Y015050D01*
X039701Y014952D02*
X039077Y014952D01*
X039077Y014853D02*
X039701Y014853D01*
X039701Y014755D02*
X039077Y014755D01*
X039077Y014656D02*
X039701Y014656D01*
X039701Y014558D02*
X039036Y014558D01*
X038938Y014459D02*
X039701Y014459D01*
X039701Y014361D02*
X038839Y014361D01*
X038923Y015444D02*
X039701Y015444D01*
X039701Y015346D02*
X037106Y015346D01*
X037066Y015444D02*
X037377Y015444D01*
X037279Y015543D02*
X036980Y015543D01*
X036980Y015641D02*
X037223Y015641D01*
X037223Y015740D02*
X036980Y015740D01*
X036980Y015838D02*
X037223Y015838D01*
X037223Y015937D02*
X036980Y015937D01*
X036980Y016035D02*
X037306Y016035D01*
X037405Y016134D02*
X036980Y016134D01*
X036980Y016232D02*
X039701Y016232D01*
X039701Y016134D02*
X038895Y016134D01*
X038994Y016035D02*
X039701Y016035D01*
X039701Y015937D02*
X039077Y015937D01*
X039077Y015838D02*
X039701Y015838D01*
X039701Y015740D02*
X039077Y015740D01*
X039077Y015641D02*
X039701Y015641D01*
X039701Y015543D02*
X039021Y015543D01*
X038908Y016429D02*
X039701Y016429D01*
X039701Y016331D02*
X036980Y016331D01*
X036980Y016429D02*
X037392Y016429D01*
X037294Y016528D02*
X036980Y016528D01*
X036980Y016626D02*
X037223Y016626D01*
X037223Y016725D02*
X036980Y016725D01*
X036980Y016823D02*
X037223Y016823D01*
X037223Y016922D02*
X036980Y016922D01*
X036980Y017020D02*
X037291Y017020D01*
X037390Y017119D02*
X036980Y017119D01*
X036980Y017217D02*
X039700Y017217D01*
X039701Y017119D02*
X038910Y017119D01*
X039009Y017020D02*
X039701Y017020D01*
X039701Y016922D02*
X039077Y016922D01*
X039077Y016823D02*
X039701Y016823D01*
X039701Y016725D02*
X039077Y016725D01*
X039077Y016626D02*
X039701Y016626D01*
X039701Y016528D02*
X039006Y016528D01*
X038893Y017414D02*
X039700Y017414D01*
X039700Y017316D02*
X036980Y017316D01*
X036980Y017414D02*
X037407Y017414D01*
X037309Y017513D02*
X036980Y017513D01*
X036980Y017611D02*
X037223Y017611D01*
X037223Y017710D02*
X036980Y017710D01*
X036980Y017808D02*
X037223Y017808D01*
X037223Y017907D02*
X036980Y017907D01*
X036980Y018005D02*
X037276Y018005D01*
X037375Y018104D02*
X036980Y018104D01*
X036980Y018202D02*
X039700Y018202D01*
X039700Y018104D02*
X038925Y018104D01*
X039024Y018005D02*
X039700Y018005D01*
X039700Y017907D02*
X039077Y017907D01*
X039077Y017808D02*
X039700Y017808D01*
X039700Y017710D02*
X039077Y017710D01*
X039077Y017611D02*
X039700Y017611D01*
X039700Y017513D02*
X038991Y017513D01*
X038878Y018399D02*
X039700Y018399D01*
X039700Y018301D02*
X036980Y018301D01*
X036980Y018399D02*
X037422Y018399D01*
X037324Y018498D02*
X036980Y018498D01*
X036980Y018596D02*
X037225Y018596D01*
X037223Y018695D02*
X036980Y018695D01*
X036980Y018793D02*
X037223Y018793D01*
X037223Y018892D02*
X036980Y018892D01*
X036980Y018990D02*
X037261Y018990D01*
X037360Y019089D02*
X036980Y019089D01*
X036980Y019187D02*
X037458Y019187D01*
X037437Y019384D02*
X036980Y019384D01*
X036980Y019286D02*
X039700Y019286D01*
X039700Y019384D02*
X038863Y019384D01*
X038961Y019483D02*
X039700Y019483D01*
X039700Y019581D02*
X039060Y019581D01*
X039077Y019680D02*
X039700Y019680D01*
X039700Y019778D02*
X039077Y019778D01*
X039077Y019877D02*
X039700Y019877D01*
X039700Y019975D02*
X039054Y019975D01*
X038955Y020074D02*
X039700Y020074D01*
X039700Y020172D02*
X038857Y020172D01*
X038848Y020369D02*
X039700Y020369D01*
X039700Y020271D02*
X036980Y020271D01*
X036980Y020369D02*
X037452Y020369D01*
X037354Y020468D02*
X036980Y020468D01*
X036980Y020566D02*
X037255Y020566D01*
X037223Y020665D02*
X036980Y020665D01*
X036980Y020763D02*
X037223Y020763D01*
X037223Y020862D02*
X036980Y020862D01*
X036980Y020960D02*
X037231Y020960D01*
X037330Y021059D02*
X036980Y021059D01*
X036980Y021157D02*
X037428Y021157D01*
X037467Y021354D02*
X036980Y021354D01*
X036980Y021256D02*
X039700Y021256D01*
X039700Y021354D02*
X038833Y021354D01*
X038931Y021453D02*
X039700Y021453D01*
X039700Y021551D02*
X039030Y021551D01*
X039077Y021650D02*
X039700Y021650D01*
X039700Y021748D02*
X039077Y021748D01*
X039077Y021847D02*
X039700Y021847D01*
X039700Y021945D02*
X039077Y021945D01*
X038985Y022044D02*
X039700Y022044D01*
X039700Y022142D02*
X038887Y022142D01*
X038916Y022438D02*
X039700Y022438D01*
X039700Y022536D02*
X039015Y022536D01*
X039077Y022635D02*
X039700Y022635D01*
X039700Y022733D02*
X039077Y022733D01*
X039077Y022832D02*
X039700Y022832D01*
X039700Y022930D02*
X039077Y022930D01*
X039000Y023029D02*
X039700Y023029D01*
X039700Y023127D02*
X038902Y023127D01*
X038901Y023423D02*
X039700Y023423D01*
X039700Y023521D02*
X039000Y023521D01*
X039077Y023620D02*
X039700Y023620D01*
X039700Y023718D02*
X039077Y023718D01*
X039077Y023817D02*
X039700Y023817D01*
X039700Y023915D02*
X039077Y023915D01*
X039015Y024014D02*
X039700Y024014D01*
X039700Y024112D02*
X038917Y024112D01*
X038886Y024408D02*
X039700Y024408D01*
X039700Y024506D02*
X038985Y024506D01*
X039077Y024605D02*
X039700Y024605D01*
X039700Y024703D02*
X039077Y024703D01*
X039077Y024802D02*
X039700Y024802D01*
X039700Y024900D02*
X039077Y024900D01*
X039030Y024999D02*
X039700Y024999D01*
X039700Y025097D02*
X038932Y025097D01*
X038833Y025196D02*
X039700Y025196D01*
X039700Y025294D02*
X036980Y025294D01*
X036980Y025196D02*
X037467Y025196D01*
X037368Y025097D02*
X036980Y025097D01*
X036980Y024999D02*
X037270Y024999D01*
X037223Y024900D02*
X036980Y024900D01*
X036980Y024802D02*
X037223Y024802D01*
X037223Y024703D02*
X036980Y024703D01*
X036980Y024605D02*
X037223Y024605D01*
X037315Y024506D02*
X036980Y024506D01*
X036980Y024408D02*
X037414Y024408D01*
X037383Y024112D02*
X036980Y024112D01*
X036980Y024014D02*
X037285Y024014D01*
X037223Y023915D02*
X036980Y023915D01*
X036980Y023817D02*
X037223Y023817D01*
X037223Y023718D02*
X036980Y023718D01*
X036980Y023620D02*
X037223Y023620D01*
X037300Y023521D02*
X036980Y023521D01*
X036980Y023423D02*
X037399Y023423D01*
X037398Y023127D02*
X036980Y023127D01*
X036980Y023029D02*
X037300Y023029D01*
X037223Y022930D02*
X036980Y022930D01*
X036980Y022832D02*
X037223Y022832D01*
X037223Y022733D02*
X036980Y022733D01*
X036980Y022635D02*
X037223Y022635D01*
X037285Y022536D02*
X036980Y022536D01*
X036980Y022438D02*
X037384Y022438D01*
X037413Y022142D02*
X036980Y022142D01*
X036980Y022044D02*
X037315Y022044D01*
X037223Y021945D02*
X036980Y021945D01*
X036980Y021847D02*
X037223Y021847D01*
X037223Y021748D02*
X036980Y021748D01*
X036980Y021650D02*
X037223Y021650D01*
X037270Y021551D02*
X036980Y021551D01*
X036980Y021453D02*
X037369Y021453D01*
X036620Y021453D02*
X034542Y021453D01*
X034589Y021551D02*
X036620Y021551D01*
X036620Y021650D02*
X034603Y021650D01*
X034590Y021748D02*
X036620Y021748D01*
X036620Y021847D02*
X034542Y021847D01*
X034420Y021945D02*
X036620Y021945D01*
X036620Y022241D02*
X027939Y022241D01*
X027841Y022339D02*
X036620Y022339D01*
X036620Y022438D02*
X027742Y022438D01*
X027644Y022536D02*
X036620Y022536D01*
X036620Y022635D02*
X033224Y022635D01*
X033211Y022622D02*
X033303Y022714D01*
X033353Y022835D01*
X033353Y022965D01*
X033303Y023086D01*
X033211Y023178D01*
X033090Y023228D01*
X032960Y023228D01*
X032954Y023226D01*
X032205Y023975D01*
X032100Y024080D01*
X031931Y024080D01*
X031928Y024086D01*
X031836Y024178D01*
X031715Y024228D01*
X031585Y024228D01*
X031464Y024178D01*
X031372Y024086D01*
X031322Y023965D01*
X031322Y023835D01*
X031372Y023714D01*
X031464Y023622D01*
X031585Y023572D01*
X031715Y023572D01*
X031836Y023622D01*
X031928Y023714D01*
X031931Y023720D01*
X031950Y023720D01*
X032699Y022971D01*
X032697Y022965D01*
X032697Y022835D01*
X032747Y022714D01*
X032839Y022622D01*
X032960Y022572D01*
X033090Y022572D01*
X033211Y022622D01*
X033311Y022733D02*
X036620Y022733D01*
X036620Y022832D02*
X033352Y022832D01*
X033353Y022930D02*
X036620Y022930D01*
X036620Y023029D02*
X033327Y023029D01*
X033262Y023127D02*
X036620Y023127D01*
X036620Y023226D02*
X033096Y023226D01*
X032855Y023324D02*
X036620Y023324D01*
X036620Y023423D02*
X032757Y023423D01*
X032658Y023521D02*
X036620Y023521D01*
X036620Y023620D02*
X032560Y023620D01*
X032461Y023718D02*
X036620Y023718D01*
X036620Y023817D02*
X032363Y023817D01*
X032264Y023915D02*
X036620Y023915D01*
X036620Y024014D02*
X032166Y024014D01*
X032025Y023900D02*
X031650Y023900D01*
X031342Y024014D02*
X023666Y024014D01*
X023567Y024112D02*
X031398Y024112D01*
X031542Y024211D02*
X023469Y024211D01*
X023370Y024309D02*
X036620Y024309D01*
X036620Y024211D02*
X031758Y024211D01*
X031902Y024112D02*
X036620Y024112D01*
X036620Y024408D02*
X023272Y024408D01*
X023173Y024506D02*
X036620Y024506D01*
X036980Y024309D02*
X039700Y024309D01*
X039700Y024211D02*
X036980Y024211D01*
X036980Y023324D02*
X039700Y023324D01*
X039700Y023226D02*
X036980Y023226D01*
X036980Y022339D02*
X039700Y022339D01*
X039700Y022241D02*
X036980Y022241D01*
X036620Y021354D02*
X034455Y021354D01*
X034455Y021256D02*
X036620Y021256D01*
X036620Y021157D02*
X034455Y021157D01*
X034455Y021059D02*
X036620Y021059D01*
X036620Y020960D02*
X034455Y020960D01*
X034455Y020862D02*
X036620Y020862D01*
X036620Y020763D02*
X034455Y020763D01*
X034455Y020665D02*
X036620Y020665D01*
X036620Y020566D02*
X034455Y020566D01*
X034455Y020468D02*
X036620Y020468D01*
X036620Y020369D02*
X034455Y020369D01*
X034455Y020271D02*
X036620Y020271D01*
X036620Y020172D02*
X034455Y020172D01*
X034455Y020074D02*
X036620Y020074D01*
X036620Y019975D02*
X034455Y019975D01*
X034455Y019877D02*
X036620Y019877D01*
X036980Y019877D02*
X037223Y019877D01*
X037223Y019778D02*
X036980Y019778D01*
X036980Y019680D02*
X037223Y019680D01*
X037240Y019581D02*
X036980Y019581D01*
X036980Y019483D02*
X037339Y019483D01*
X037246Y019975D02*
X036980Y019975D01*
X036980Y020074D02*
X037345Y020074D01*
X037443Y020172D02*
X036980Y020172D01*
X038946Y020468D02*
X039700Y020468D01*
X039700Y020566D02*
X039045Y020566D01*
X039077Y020665D02*
X039700Y020665D01*
X039700Y020763D02*
X039077Y020763D01*
X039077Y020862D02*
X039700Y020862D01*
X039700Y020960D02*
X039069Y020960D01*
X038970Y021059D02*
X039700Y021059D01*
X039700Y021157D02*
X038872Y021157D01*
X038842Y019187D02*
X039700Y019187D01*
X039700Y019089D02*
X038940Y019089D01*
X039039Y018990D02*
X039700Y018990D01*
X039700Y018892D02*
X039077Y018892D01*
X039077Y018793D02*
X039700Y018793D01*
X039700Y018695D02*
X039077Y018695D01*
X039075Y018596D02*
X039700Y018596D01*
X039700Y018498D02*
X038976Y018498D01*
X034275Y019500D02*
X034050Y019275D01*
X033760Y019384D02*
X033028Y019384D01*
X033126Y019483D02*
X033819Y019483D01*
X033979Y019581D02*
X033225Y019581D01*
X033323Y019680D02*
X034095Y019680D01*
X034095Y019778D02*
X033340Y019778D01*
X033340Y019877D02*
X034095Y019877D01*
X034095Y019975D02*
X033340Y019975D01*
X033340Y020074D02*
X034095Y020074D01*
X034095Y020172D02*
X033340Y020172D01*
X033340Y020271D02*
X034095Y020271D01*
X034095Y020369D02*
X033340Y020369D01*
X033361Y020468D02*
X034095Y020468D01*
X034095Y020566D02*
X033460Y020566D01*
X033558Y020665D02*
X034095Y020665D01*
X034095Y020763D02*
X033657Y020763D01*
X033755Y020862D02*
X034095Y020862D01*
X034095Y020960D02*
X033854Y020960D01*
X033952Y021059D02*
X034095Y021059D01*
X034095Y021157D02*
X034051Y021157D01*
X033809Y021453D02*
X025727Y021453D01*
X025629Y021551D02*
X033907Y021551D01*
X033710Y021354D02*
X025826Y021354D01*
X025924Y021256D02*
X033612Y021256D01*
X033513Y021157D02*
X026023Y021157D01*
X026121Y021059D02*
X033415Y021059D01*
X033316Y020960D02*
X026220Y020960D01*
X026318Y020862D02*
X033218Y020862D01*
X033119Y020763D02*
X026417Y020763D01*
X026515Y020665D02*
X033021Y020665D01*
X032960Y020566D02*
X032930Y020566D01*
X032620Y020566D02*
X026614Y020566D01*
X026712Y020468D02*
X032504Y020468D01*
X032929Y019286D02*
X033740Y019286D01*
X033751Y019187D02*
X032840Y019187D01*
X032840Y019089D02*
X033798Y019089D01*
X034275Y019500D02*
X034275Y021650D01*
X032826Y022635D02*
X027545Y022635D01*
X027447Y022733D02*
X032739Y022733D01*
X032698Y022832D02*
X027348Y022832D01*
X027250Y022930D02*
X032697Y022930D01*
X032642Y023029D02*
X027151Y023029D01*
X027053Y023127D02*
X032543Y023127D01*
X032445Y023226D02*
X026954Y023226D01*
X026855Y023324D02*
X032346Y023324D01*
X032248Y023423D02*
X026757Y023423D01*
X028038Y022142D02*
X032303Y022142D01*
X033025Y022900D02*
X032025Y023900D01*
X031952Y023718D02*
X031930Y023718D01*
X031830Y023620D02*
X032051Y023620D01*
X032149Y023521D02*
X024158Y023521D01*
X024060Y023620D02*
X031470Y023620D01*
X031370Y023718D02*
X023961Y023718D01*
X023863Y023817D02*
X031329Y023817D01*
X031322Y023915D02*
X023764Y023915D01*
X023920Y022635D02*
X024036Y022635D01*
X024019Y022536D02*
X024134Y022536D01*
X024117Y022438D02*
X024233Y022438D01*
X024216Y022339D02*
X024331Y022339D01*
X024314Y022241D02*
X024430Y022241D01*
X024413Y022142D02*
X024528Y022142D01*
X024511Y022044D02*
X024627Y022044D01*
X024610Y021945D02*
X024725Y021945D01*
X024708Y021847D02*
X024824Y021847D01*
X024807Y021748D02*
X024922Y021748D01*
X024905Y021650D02*
X025021Y021650D01*
X025004Y021551D02*
X025119Y021551D01*
X025102Y021453D02*
X025218Y021453D01*
X025201Y021354D02*
X025316Y021354D01*
X025299Y021256D02*
X025415Y021256D01*
X025398Y021157D02*
X025513Y021157D01*
X025496Y021059D02*
X025612Y021059D01*
X025595Y020960D02*
X025710Y020960D01*
X025693Y020862D02*
X025809Y020862D01*
X025792Y020763D02*
X025907Y020763D01*
X025890Y020665D02*
X026006Y020665D01*
X025989Y020566D02*
X026104Y020566D01*
X026087Y020468D02*
X026203Y020468D01*
X026186Y020369D02*
X026301Y020369D01*
X026284Y020271D02*
X026400Y020271D01*
X026383Y020172D02*
X026498Y020172D01*
X032853Y024999D02*
X036620Y024999D01*
X036620Y025097D02*
X032850Y025097D01*
X032809Y025196D02*
X036620Y025196D01*
X036620Y025294D02*
X032720Y025294D01*
X032330Y025294D02*
X024385Y025294D01*
X024287Y025393D02*
X036620Y025393D01*
X036620Y025491D02*
X024188Y025491D01*
X024090Y025590D02*
X026792Y025590D01*
X026648Y025688D02*
X023991Y025688D01*
X023893Y025787D02*
X026592Y025787D01*
X026572Y025885D02*
X023794Y025885D01*
X023696Y025984D02*
X026579Y025984D01*
X026620Y026082D02*
X023597Y026082D01*
X023499Y026181D02*
X026720Y026181D01*
X026900Y025900D02*
X029150Y025900D01*
X029291Y025787D02*
X036620Y025787D01*
X036620Y025885D02*
X029390Y025885D01*
X028987Y027067D02*
X030114Y027067D01*
X030202Y027166D02*
X025598Y027166D01*
X025613Y028151D02*
X030145Y028151D01*
X030127Y028052D02*
X030243Y028052D01*
X030205Y027975D02*
X030205Y027975D01*
X030226Y027954D02*
X030342Y027954D01*
X030324Y027855D02*
X030440Y027855D01*
X030423Y027757D02*
X030539Y027757D01*
X030521Y027658D02*
X030637Y027658D01*
X030752Y028052D02*
X031213Y028052D01*
X031587Y028052D02*
X032409Y028052D01*
X032470Y027954D02*
X031681Y027954D01*
X031722Y027855D02*
X032470Y027855D01*
X032377Y027757D02*
X031728Y027757D01*
X031707Y027658D02*
X032279Y027658D01*
X032180Y027560D02*
X031649Y027560D01*
X031506Y027461D02*
X032082Y027461D01*
X031983Y027363D02*
X031651Y027363D01*
X031708Y027264D02*
X031885Y027264D01*
X031786Y027166D02*
X031728Y027166D01*
X032000Y026870D02*
X036425Y026870D01*
X036327Y026969D02*
X032098Y026969D01*
X032197Y027067D02*
X036228Y027067D01*
X036442Y027363D02*
X037459Y027363D01*
X037360Y027461D02*
X036343Y027461D01*
X036245Y027560D02*
X037262Y027560D01*
X037223Y027658D02*
X036146Y027658D01*
X036540Y027264D02*
X039700Y027264D01*
X039700Y027166D02*
X038863Y027166D01*
X038962Y027067D02*
X039700Y027067D01*
X039700Y026969D02*
X039060Y026969D01*
X039077Y026870D02*
X039700Y026870D01*
X039700Y026772D02*
X039077Y026772D01*
X039077Y026673D02*
X039700Y026673D01*
X039700Y026575D02*
X039053Y026575D01*
X038955Y026476D02*
X039700Y026476D01*
X039700Y026378D02*
X038856Y026378D01*
X038848Y026181D02*
X039700Y026181D01*
X039700Y026279D02*
X036980Y026279D01*
X036980Y026181D02*
X037452Y026181D01*
X037353Y026082D02*
X036980Y026082D01*
X036980Y025984D02*
X037255Y025984D01*
X037223Y025885D02*
X036980Y025885D01*
X036980Y025787D02*
X037223Y025787D01*
X037223Y025688D02*
X036980Y025688D01*
X036980Y025590D02*
X037232Y025590D01*
X037330Y025491D02*
X036980Y025491D01*
X036980Y025393D02*
X037429Y025393D01*
X036620Y025590D02*
X027008Y025590D01*
X027152Y025688D02*
X036620Y025688D01*
X036620Y025984D02*
X031113Y025984D01*
X031212Y026082D02*
X036620Y026082D01*
X036620Y026181D02*
X031310Y026181D01*
X031409Y026279D02*
X036620Y026279D01*
X036620Y026378D02*
X031507Y026378D01*
X031606Y026476D02*
X036620Y026476D01*
X036620Y026575D02*
X031704Y026575D01*
X031803Y026673D02*
X036620Y026673D01*
X036524Y026772D02*
X031901Y026772D01*
X030669Y026673D02*
X030637Y026673D01*
X030654Y028151D02*
X032346Y028151D01*
X032322Y028249D02*
X030555Y028249D01*
X030457Y028348D02*
X032325Y028348D01*
X032366Y028446D02*
X030358Y028446D01*
X030260Y028545D02*
X032456Y028545D01*
X033257Y027757D02*
X037223Y027757D01*
X037437Y027166D02*
X036639Y027166D01*
X036737Y027067D02*
X037338Y027067D01*
X037240Y026969D02*
X036836Y026969D01*
X036934Y026870D02*
X037223Y026870D01*
X037223Y026772D02*
X036980Y026772D01*
X036980Y026673D02*
X037223Y026673D01*
X037247Y026575D02*
X036980Y026575D01*
X036980Y026476D02*
X037345Y026476D01*
X037444Y026378D02*
X036980Y026378D01*
X038602Y027363D02*
X038698Y027363D01*
X038698Y027461D02*
X038602Y027461D01*
X038602Y027560D02*
X038698Y027560D01*
X038698Y027658D02*
X038602Y027658D01*
X038602Y027855D02*
X038698Y027855D01*
X038698Y027954D02*
X038602Y027954D01*
X038602Y028052D02*
X038698Y028052D01*
X038698Y028151D02*
X038602Y028151D01*
X038394Y028151D02*
X037878Y028151D01*
X037977Y028052D02*
X038295Y028052D01*
X038203Y027954D02*
X038075Y027954D01*
X038077Y027855D02*
X038203Y027855D01*
X038870Y027363D02*
X039700Y027363D01*
X039700Y027461D02*
X038968Y027461D01*
X039067Y027560D02*
X039700Y027560D01*
X039700Y027658D02*
X039097Y027658D01*
X038947Y026082D02*
X039700Y026082D01*
X039700Y025984D02*
X039045Y025984D01*
X039077Y025885D02*
X039700Y025885D01*
X039700Y025787D02*
X039077Y025787D01*
X039077Y025688D02*
X039700Y025688D01*
X039700Y025590D02*
X039068Y025590D01*
X038970Y025491D02*
X039700Y025491D01*
X039700Y025393D02*
X038871Y025393D01*
X037785Y029234D02*
X029780Y029234D01*
D17*
X034050Y019275D03*
X033300Y018225D03*
X036800Y015275D03*
X036150Y014775D03*
D18*
X013860Y013500D02*
X013860Y007250D01*
X013860Y013500D02*
X013860Y026000D01*
X013860Y019750D01*
D19*
X030400Y012725D02*
X030600Y013025D01*
X037050Y014275D01*
X037050Y013275D02*
X030950Y012525D01*
X030775Y012150D01*
X033650Y008275D02*
X034150Y007775D01*
X036150Y007775D01*
X036650Y008275D01*
X036650Y010775D01*
X037150Y011275D01*
X038150Y011275D01*
X032650Y017650D02*
X032650Y019275D01*
X033150Y019775D01*
X033150Y020525D01*
X034275Y021650D01*
M02*
