%
M48
M72
T01C0.0200
T02C0.0236
T03C0.0394
T04C0.0400
T05C0.0551
T06C0.0669
T07C0.1181
T08C0.1300
%
T01
X33300Y18225
X34050Y19275
X36800Y15275
X36150Y14775
T02
X37050Y14275
X37050Y13275
X31275Y13525
X31275Y14150
X29525Y13650
X28025Y13275
X27025Y13525
X27025Y14150
X26400Y14150
X25275Y13775
X24650Y15775
X25275Y16900
X28275Y17150
X29400Y16900
X30525Y15775
X31900Y17650
X31150Y19025
X32775Y20275
X34275Y21650
X34275Y22275
X33025Y22900
X32525Y21900
X31150Y23150
X31650Y23900
X32525Y25025
X30400Y25525
X30400Y26900
X31400Y27150
X31400Y27775
X32025Y27650
X32650Y28275
X33025Y27525
X29588Y28963
X26900Y25900
X25400Y26900
X25400Y27900
X21400Y28025
X17650Y24775
X17650Y24025
X20775Y22525
X17650Y21150
X17650Y17775
X17650Y15025
X20900Y16400
X17650Y11525
X20900Y10025
X17650Y8525
X17650Y5275
X24525Y9650
X24650Y10900
X25400Y11525
X27900Y9650
X28525Y9900
X29525Y10775
X29900Y10150
X31150Y11775
X30400Y11900
X26025Y9275
X26400Y7775
X27775Y7150
X28400Y8525
X31275Y8150
X31200Y7575
X32150Y8475
X33650Y8275
X32600Y6025
T03
X37650Y5775
X38650Y5775
X38650Y6775
X37650Y6775
X37650Y7775
X38650Y7775
X38650Y8775
X37650Y8775
X37650Y9775
X38650Y9775
X38650Y10775
X37650Y10775
X37650Y11775
X38650Y11775
X38650Y12775
X37650Y12775
X37650Y13775
X38650Y13775
X38650Y14775
X37650Y14775
X37650Y15775
X38650Y15775
X38650Y16775
X37650Y16775
X37650Y17775
X38650Y17775
X38650Y18775
X37650Y18775
X37650Y19775
X38650Y19775
X38650Y20775
X37650Y20775
X37650Y21775
X38650Y21775
X38650Y22775
X37650Y22775
X37650Y23775
X38650Y23775
X38650Y24775
X37650Y24775
X37650Y25775
X38650Y25775
X38650Y26775
X37650Y26775
X37650Y27775
X38650Y27775
X38650Y4775
X37650Y4775
X37650Y3775
X38650Y3775
T04
X35250Y16275
X35250Y17275
X35250Y18275
X35250Y19275
T05
X26300Y6331
X26300Y3985
X16206Y7250
X13860Y7250
X13860Y13500
X16206Y13500
X16206Y19750
X13860Y19750
X13860Y26000
X16206Y26000
T06
X29936Y3525
X31495Y3525
X33055Y3525
X34614Y3525
T07
X28150Y5969
X24449Y5969
X15844Y5400
X15844Y9101
X15844Y11650
X15844Y15351
X15844Y17900
X15844Y21601
X15844Y24150
X15844Y27851
T08
X1650Y1775
X38150Y1775
X38150Y30275
X1650Y30275
M30
