%
M48
M72
T01C0.0200
T02C0.0236
T03C0.0360
T04C0.0394
T05C0.0400
T06C0.1260
T07C0.1300
%
T01
X10192Y5987
X11392Y4787
X13492Y2987
X13892Y2587
X13892Y1987
X13492Y1587
X6092Y8187
X2492Y7687
X6092Y12687
X10192Y11287
X10192Y9387
X12192Y9487
X12792Y9487
X13892Y9287
X13892Y11287
X14292Y12087
X15292Y12087
X13192Y12087
X15992Y16687
X17092Y16687
X18592Y16687
X15492Y19687
X12128Y19972
X10947Y20365
X10553Y19184
X9492Y19187
X8585Y19381
X8585Y20365
X7207Y22924
X10947Y24302
X14992Y23187
X18392Y22587
X20192Y23087
X20692Y23287
X12192Y18887
X7192Y27087
X5392Y30287
X34392Y8287
X36392Y8787
X28392Y3787
X24392Y4787
X38092Y19287
X36892Y23287
X35892Y23287
T02
X35392Y12787
X35392Y11787
X35392Y11287
X35392Y10787
X30142Y4662
T03
X30392Y5787
X31392Y5787
X31392Y6787
X30392Y6787
X29392Y6787
X28392Y6787
X27392Y6787
X26392Y6787
X25392Y6787
X24392Y6787
X23392Y6787
X22392Y6787
X21392Y6787
X20392Y6787
X19392Y6787
X18392Y6787
X17392Y6787
X16392Y6787
X15392Y6787
X14392Y6787
X13392Y6787
X13392Y5787
X14392Y5787
X15392Y5787
X16392Y5787
X17392Y5787
X18392Y5787
X19392Y5787
X20392Y5787
X21392Y5787
X22392Y5787
X23392Y5787
X24392Y5787
X25392Y5787
X26392Y5787
X27392Y5787
X28392Y5787
X29392Y5787
X32392Y5787
X33392Y5787
X34392Y5787
X34392Y6787
X33392Y6787
X32392Y6787
X35392Y6787
X36392Y6787
X37392Y6787
X37392Y5787
X36392Y5787
X35392Y5787
X35392Y25787
X36392Y25787
X37392Y25787
X37392Y26787
X36392Y26787
X35392Y26787
X34392Y26787
X33392Y26787
X32392Y26787
X31392Y26787
X30392Y26787
X29392Y26787
X28392Y26787
X27392Y26787
X26392Y26787
X25392Y26787
X24392Y26787
X23392Y26787
X22392Y26787
X21392Y26787
X20392Y26787
X19392Y26787
X18392Y26787
X17392Y26787
X16392Y26787
X15392Y26787
X14392Y26787
X13392Y26787
X13392Y25787
X14392Y25787
X15392Y25787
X16392Y25787
X17392Y25787
X18392Y25787
X19392Y25787
X20392Y25787
X21392Y25787
X22392Y25787
X23392Y25787
X24392Y25787
X25392Y25787
X26392Y25787
X27392Y25787
X28392Y25787
X29392Y25787
X30392Y25787
X31392Y25787
X32392Y25787
X33392Y25787
X34392Y25787
T04
X38792Y26287
X38792Y27287
X38792Y28287
X39792Y28287
X39792Y27287
X39792Y26287
X39792Y25287
X38792Y25287
X38792Y24287
X39792Y24287
X39792Y23287
X38792Y23287
X38792Y22287
X39792Y22287
X39792Y21287
X38792Y21287
X38792Y20287
X39792Y20287
X39792Y19287
X38792Y19287
X38792Y18287
X39792Y18287
X39792Y17287
X38792Y17287
X38792Y16287
X39792Y16287
X39792Y15287
X38792Y15287
X38792Y14287
X39792Y14287
X39792Y13287
X38792Y13287
X38792Y12287
X39792Y12287
X39792Y11287
X38792Y11287
X38792Y10287
X39792Y10287
X39792Y9287
X38792Y9287
X38792Y8287
X39792Y8287
X39792Y7287
X38792Y7287
X38792Y6287
X39792Y6287
X39792Y5287
X38792Y5287
X38792Y4287
X39792Y4287
X7892Y16037
X7892Y17037
X7892Y18037
X7892Y19037
X6892Y19537
X6892Y18537
X6892Y17537
X6892Y16537
T05
X3392Y13287
X3392Y12287
X3392Y11287
X3392Y10287
X3392Y9287
X3392Y8287
X3392Y6787
X3392Y5787
X3392Y4787
X3392Y3787
X7392Y1487
X8392Y1487
X9392Y1487
X10392Y1487
X19692Y1787
X19692Y2787
X21711Y2787
X21711Y1787
X23711Y1787
X23711Y2787
X25711Y2787
X25711Y1787
X27711Y1787
X27711Y2787
X29711Y2787
X29711Y1787
X31692Y1787
X31692Y2787
X33692Y2787
X33692Y1787
X6392Y21787
X5392Y21787
X4392Y21787
X3392Y21787
X3392Y23787
X4392Y23787
X5392Y23787
X6392Y23787
X6392Y25787
X5392Y25787
X4392Y25787
X3392Y25787
X3392Y27787
X4392Y27787
X5392Y27787
X6392Y27787
X8392Y29287
X8392Y30287
X10392Y30287
X10392Y29287
X12392Y29287
X12392Y30287
X14392Y30287
X14392Y29287
X20892Y29287
X20892Y30287
X22892Y30287
X22892Y29287
X24892Y29287
X24892Y30287
X26892Y30287
X26892Y29287
X28892Y29287
X28892Y30287
X30892Y30287
X30892Y29287
X32892Y29287
X32892Y30287
X34892Y30287
X34892Y29287
T06
X4392Y20037
X4392Y15537
T07
X3392Y1787
X8879Y13272
X3392Y30287
X39892Y30287
X39892Y1787
M30
