G75*
G70*
%OFA0B0*%
%FSLAX24Y24*%
%IPPOS*%
%LPD*%
%AMOC8*
5,1,8,0,0,1.08239X$1,22.5*
%
%ADD10C,0.0080*%
%ADD11C,0.0060*%
%ADD12C,0.0050*%
%ADD13C,0.0030*%
%ADD14R,0.2303X0.0200*%
%ADD15C,0.0020*%
%ADD16C,0.0000*%
D10*
X006892Y001237D02*
X006892Y001737D01*
X007142Y001987D01*
X007642Y001987D01*
X007892Y001737D01*
X008142Y001987D01*
X008642Y001987D01*
X008892Y001737D01*
X009142Y001987D01*
X009642Y001987D01*
X009892Y001737D01*
X010142Y001987D01*
X010642Y001987D01*
X010892Y001737D01*
X010892Y001237D01*
X010642Y000987D01*
X010142Y000987D01*
X009892Y001237D01*
X009642Y000987D01*
X009142Y000987D01*
X008892Y001237D01*
X008642Y000987D01*
X008142Y000987D01*
X007892Y001237D01*
X007642Y000987D01*
X007142Y000987D01*
X006892Y001237D01*
X003642Y007787D02*
X003142Y007787D01*
X002892Y008037D01*
X002892Y008537D01*
X003142Y008787D01*
X002892Y009037D01*
X002892Y009537D01*
X003142Y009787D01*
X002892Y010037D01*
X002892Y010537D01*
X003142Y010787D01*
X002892Y011037D01*
X002892Y011537D01*
X003142Y011787D01*
X002892Y012037D01*
X002892Y012537D01*
X003142Y012787D01*
X002892Y013037D01*
X002892Y013537D01*
X003142Y013787D01*
X003642Y013787D01*
X003892Y013537D01*
X003892Y013037D01*
X003642Y012787D01*
X003892Y012537D01*
X003892Y012037D01*
X003642Y011787D01*
X003892Y011537D01*
X003892Y011037D01*
X003642Y010787D01*
X003892Y010537D01*
X003892Y010037D01*
X003642Y009787D01*
X003892Y009537D01*
X003892Y009037D01*
X003642Y008787D01*
X003892Y008537D01*
X003892Y008037D01*
X003642Y007787D01*
X003211Y014787D02*
X008329Y014787D01*
X008329Y020787D01*
X003211Y020787D01*
X003211Y014787D01*
X003142Y021287D02*
X003642Y021287D01*
X003892Y021537D01*
X004142Y021287D01*
X004642Y021287D01*
X004892Y021537D01*
X005142Y021287D01*
X005642Y021287D01*
X005892Y021537D01*
X006142Y021287D01*
X006642Y021287D01*
X006892Y021537D01*
X006892Y022037D01*
X006642Y022287D01*
X006142Y022287D01*
X005892Y022037D01*
X005642Y022287D01*
X005142Y022287D01*
X004892Y022037D01*
X004642Y022287D01*
X004142Y022287D01*
X003892Y022037D01*
X003642Y022287D01*
X003142Y022287D01*
X002892Y022037D01*
X002892Y021537D01*
X003142Y021287D01*
X003142Y023287D02*
X003642Y023287D01*
X003892Y023537D01*
X004142Y023287D01*
X004642Y023287D01*
X004892Y023537D01*
X005142Y023287D01*
X005642Y023287D01*
X005892Y023537D01*
X006142Y023287D01*
X006642Y023287D01*
X006892Y023537D01*
X006892Y024037D01*
X006642Y024287D01*
X006142Y024287D01*
X005892Y024037D01*
X005642Y024287D01*
X005142Y024287D01*
X004892Y024037D01*
X004642Y024287D01*
X004142Y024287D01*
X003892Y024037D01*
X003642Y024287D01*
X003142Y024287D01*
X002892Y024037D01*
X002892Y023537D01*
X003142Y023287D01*
X003142Y025287D02*
X002892Y025537D01*
X002892Y026037D01*
X003142Y026287D01*
X003642Y026287D01*
X003892Y026037D01*
X004142Y026287D01*
X004642Y026287D01*
X004892Y026037D01*
X005142Y026287D01*
X005642Y026287D01*
X005892Y026037D01*
X006142Y026287D01*
X006642Y026287D01*
X006892Y026037D01*
X006892Y025537D01*
X006642Y025287D01*
X006142Y025287D01*
X005892Y025537D01*
X005642Y025287D01*
X005142Y025287D01*
X004892Y025537D01*
X004642Y025287D01*
X004142Y025287D01*
X003892Y025537D01*
X003642Y025287D01*
X003142Y025287D01*
X003142Y027287D02*
X003642Y027287D01*
X003892Y027537D01*
X004142Y027287D01*
X004642Y027287D01*
X004892Y027537D01*
X005142Y027287D01*
X005642Y027287D01*
X005892Y027537D01*
X006142Y027287D01*
X006642Y027287D01*
X006892Y027537D01*
X006892Y028037D01*
X006642Y028287D01*
X006142Y028287D01*
X005892Y028037D01*
X005642Y028287D01*
X005142Y028287D01*
X004892Y028037D01*
X004642Y028287D01*
X004142Y028287D01*
X003892Y028037D01*
X003642Y028287D01*
X003142Y028287D01*
X002892Y028037D01*
X002892Y027537D01*
X003142Y027287D01*
X007892Y029037D02*
X007892Y029537D01*
X008142Y029787D01*
X007892Y030037D01*
X007892Y030537D01*
X008142Y030787D01*
X008642Y030787D01*
X008892Y030537D01*
X008892Y030037D01*
X008642Y029787D01*
X008892Y029537D01*
X008892Y029037D01*
X008642Y028787D01*
X008142Y028787D01*
X007892Y029037D01*
X008795Y027547D02*
X008797Y027562D01*
X008803Y027575D01*
X008812Y027587D01*
X008823Y027596D01*
X008837Y027602D01*
X008852Y027604D01*
X008867Y027602D01*
X008880Y027596D01*
X008892Y027587D01*
X008901Y027576D01*
X008907Y027562D01*
X008909Y027547D01*
X008907Y027532D01*
X008901Y027519D01*
X008892Y027507D01*
X008881Y027498D01*
X008867Y027492D01*
X008852Y027490D01*
X008837Y027492D01*
X008824Y027498D01*
X008812Y027507D01*
X008803Y027518D01*
X008797Y027532D01*
X008795Y027547D01*
X010142Y028787D02*
X009892Y029037D01*
X009892Y029537D01*
X010142Y029787D01*
X009892Y030037D01*
X009892Y030537D01*
X010142Y030787D01*
X010642Y030787D01*
X010892Y030537D01*
X010892Y030037D01*
X010642Y029787D01*
X010892Y029537D01*
X010892Y029037D01*
X010642Y028787D01*
X010142Y028787D01*
X011892Y029037D02*
X011892Y029537D01*
X012142Y029787D01*
X011892Y030037D01*
X011892Y030537D01*
X012142Y030787D01*
X012642Y030787D01*
X012892Y030537D01*
X012892Y030037D01*
X012642Y029787D01*
X012892Y029537D01*
X012892Y029037D01*
X012642Y028787D01*
X012142Y028787D01*
X011892Y029037D01*
X013892Y029037D02*
X013892Y029537D01*
X014142Y029787D01*
X013892Y030037D01*
X013892Y030537D01*
X014142Y030787D01*
X014642Y030787D01*
X014892Y030537D01*
X014892Y030037D01*
X014642Y029787D01*
X014892Y029537D01*
X014892Y029037D01*
X014642Y028787D01*
X014142Y028787D01*
X013892Y029037D01*
X020392Y029037D02*
X020392Y029537D01*
X020642Y029787D01*
X020392Y030037D01*
X020392Y030537D01*
X020642Y030787D01*
X021142Y030787D01*
X021392Y030537D01*
X021392Y030037D01*
X021142Y029787D01*
X021392Y029537D01*
X021392Y029037D01*
X021142Y028787D01*
X020642Y028787D01*
X020392Y029037D01*
X022392Y029037D02*
X022392Y029537D01*
X022642Y029787D01*
X022392Y030037D01*
X022392Y030537D01*
X022642Y030787D01*
X023142Y030787D01*
X023392Y030537D01*
X023392Y030037D01*
X023142Y029787D01*
X023392Y029537D01*
X023392Y029037D01*
X023142Y028787D01*
X022642Y028787D01*
X022392Y029037D01*
X024392Y029037D02*
X024392Y029537D01*
X024642Y029787D01*
X024392Y030037D01*
X024392Y030537D01*
X024642Y030787D01*
X025142Y030787D01*
X025392Y030537D01*
X025392Y030037D01*
X025142Y029787D01*
X025392Y029537D01*
X025392Y029037D01*
X025142Y028787D01*
X024642Y028787D01*
X024392Y029037D01*
X026392Y029037D02*
X026392Y029537D01*
X026642Y029787D01*
X026392Y030037D01*
X026392Y030537D01*
X026642Y030787D01*
X027142Y030787D01*
X027392Y030537D01*
X027392Y030037D01*
X027142Y029787D01*
X027392Y029537D01*
X027392Y029037D01*
X027142Y028787D01*
X026642Y028787D01*
X026392Y029037D01*
X028392Y029037D02*
X028392Y029537D01*
X028642Y029787D01*
X028392Y030037D01*
X028392Y030537D01*
X028642Y030787D01*
X029142Y030787D01*
X029392Y030537D01*
X029392Y030037D01*
X029142Y029787D01*
X029392Y029537D01*
X029392Y029037D01*
X029142Y028787D01*
X028642Y028787D01*
X028392Y029037D01*
X030392Y029037D02*
X030392Y029537D01*
X030642Y029787D01*
X030392Y030037D01*
X030392Y030537D01*
X030642Y030787D01*
X031142Y030787D01*
X031392Y030537D01*
X031392Y030037D01*
X031142Y029787D01*
X031392Y029537D01*
X031392Y029037D01*
X031142Y028787D01*
X030642Y028787D01*
X030392Y029037D01*
X032392Y029037D02*
X032392Y029537D01*
X032642Y029787D01*
X032392Y030037D01*
X032392Y030537D01*
X032642Y030787D01*
X033142Y030787D01*
X033392Y030537D01*
X033392Y030037D01*
X033142Y029787D01*
X033392Y029537D01*
X033392Y029037D01*
X033142Y028787D01*
X032642Y028787D01*
X032392Y029037D01*
X034392Y029037D02*
X034392Y029537D01*
X034642Y029787D01*
X034392Y030037D01*
X034392Y030537D01*
X034642Y030787D01*
X035142Y030787D01*
X035392Y030537D01*
X035392Y030037D01*
X035142Y029787D01*
X035392Y029537D01*
X035392Y029037D01*
X035142Y028787D01*
X034642Y028787D01*
X034392Y029037D01*
X040434Y028837D02*
X040434Y003736D01*
X041197Y003736D01*
X041197Y028837D01*
X040434Y028837D01*
X036427Y021247D02*
X036427Y020327D01*
X035967Y020327D01*
X035813Y020480D01*
X035813Y020787D01*
X035967Y020941D01*
X036427Y020941D01*
X035506Y020941D02*
X035353Y020941D01*
X035046Y020634D01*
X035046Y020327D02*
X035046Y020941D01*
X034739Y020787D02*
X034739Y020327D01*
X034278Y020327D01*
X034125Y020480D01*
X034278Y020634D01*
X034739Y020634D01*
X034739Y020787D02*
X034585Y020941D01*
X034278Y020941D01*
X033818Y020787D02*
X033818Y020480D01*
X033665Y020327D01*
X033358Y020327D01*
X033204Y020480D01*
X033204Y020787D01*
X033358Y020941D01*
X033665Y020941D01*
X033818Y020787D01*
X032897Y020634D02*
X032897Y020480D01*
X032744Y020327D01*
X032283Y020327D01*
X032283Y021247D01*
X032744Y021247D01*
X032897Y021094D01*
X032897Y020941D01*
X032744Y020787D01*
X032283Y020787D01*
X032744Y020787D02*
X032897Y020634D01*
X031056Y020941D02*
X030902Y020941D01*
X030595Y020634D01*
X030595Y020327D02*
X030595Y020941D01*
X030288Y020787D02*
X030288Y020480D01*
X030135Y020327D01*
X029828Y020327D01*
X029674Y020480D01*
X029674Y020787D01*
X029828Y020941D01*
X030135Y020941D01*
X030288Y020787D01*
X029368Y020941D02*
X029061Y020941D01*
X029214Y021094D02*
X029214Y020480D01*
X029368Y020327D01*
X028754Y020480D02*
X028754Y020787D01*
X028600Y020941D01*
X028140Y020941D01*
X028140Y020020D01*
X028140Y020327D02*
X028600Y020327D01*
X028754Y020480D01*
X027833Y020327D02*
X027373Y020327D01*
X027219Y020480D01*
X027373Y020634D01*
X027833Y020634D01*
X027833Y020787D02*
X027833Y020327D01*
X027833Y020787D02*
X027679Y020941D01*
X027373Y020941D01*
X026912Y020941D02*
X026452Y020941D01*
X026298Y020787D01*
X026298Y020480D01*
X026452Y020327D01*
X026912Y020327D01*
X026912Y021247D01*
X025991Y020941D02*
X025991Y020327D01*
X025377Y020327D02*
X025377Y020941D01*
X025684Y021247D01*
X025991Y020941D01*
X025991Y020787D02*
X025377Y020787D01*
X024150Y020787D02*
X024150Y020480D01*
X023996Y020327D01*
X023689Y020327D01*
X023536Y020480D01*
X023536Y020787D02*
X023843Y020941D01*
X023996Y020941D01*
X024150Y020787D01*
X024150Y021247D02*
X023536Y021247D01*
X023536Y020787D01*
X023229Y021247D02*
X022615Y020327D01*
X023229Y020327D02*
X022615Y021247D01*
X021387Y021247D02*
X021387Y020634D01*
X021080Y020327D01*
X020774Y020634D01*
X020774Y021247D01*
X020467Y021094D02*
X020313Y021247D01*
X020006Y021247D01*
X019853Y021094D01*
X019853Y020480D01*
X020006Y020327D01*
X020313Y020327D01*
X020467Y020480D01*
X020467Y021094D01*
X019546Y021094D02*
X019546Y020787D01*
X019392Y020634D01*
X018932Y020634D01*
X019239Y020634D02*
X019546Y020327D01*
X018932Y020327D02*
X018932Y021247D01*
X019392Y021247D01*
X019546Y021094D01*
X008945Y023497D02*
X008947Y023512D01*
X008953Y023525D01*
X008962Y023537D01*
X008973Y023546D01*
X008987Y023552D01*
X009002Y023554D01*
X009017Y023552D01*
X009030Y023546D01*
X009042Y023537D01*
X009051Y023526D01*
X009057Y023512D01*
X009059Y023497D01*
X009057Y023482D01*
X009051Y023469D01*
X009042Y023457D01*
X009031Y023448D01*
X009017Y023442D01*
X009002Y023440D01*
X008987Y023442D01*
X008974Y023448D01*
X008962Y023457D01*
X008953Y023468D01*
X008947Y023482D01*
X008945Y023497D01*
X019442Y003287D02*
X019192Y003037D01*
X019192Y002537D01*
X019442Y002287D01*
X019192Y002037D01*
X019192Y001537D01*
X019442Y001287D01*
X019942Y001287D01*
X020192Y001537D01*
X020192Y002037D01*
X019942Y002287D01*
X020192Y002537D01*
X020192Y003037D01*
X019942Y003287D01*
X019442Y003287D01*
X021211Y003037D02*
X021211Y002537D01*
X021461Y002287D01*
X021211Y002037D01*
X021211Y001537D01*
X021461Y001287D01*
X021961Y001287D01*
X022211Y001537D01*
X022211Y002037D01*
X021961Y002287D01*
X022211Y002537D01*
X022211Y003037D01*
X021961Y003287D01*
X021461Y003287D01*
X021211Y003037D01*
X023211Y003037D02*
X023211Y002537D01*
X023461Y002287D01*
X023211Y002037D01*
X023211Y001537D01*
X023461Y001287D01*
X023961Y001287D01*
X024211Y001537D01*
X024211Y002037D01*
X023961Y002287D01*
X024211Y002537D01*
X024211Y003037D01*
X023961Y003287D01*
X023461Y003287D01*
X023211Y003037D01*
X025211Y003037D02*
X025211Y002537D01*
X025461Y002287D01*
X025211Y002037D01*
X025211Y001537D01*
X025461Y001287D01*
X025961Y001287D01*
X026211Y001537D01*
X026211Y002037D01*
X025961Y002287D01*
X026211Y002537D01*
X026211Y003037D01*
X025961Y003287D01*
X025461Y003287D01*
X025211Y003037D01*
X027211Y003037D02*
X027211Y002537D01*
X027461Y002287D01*
X027211Y002037D01*
X027211Y001537D01*
X027461Y001287D01*
X027961Y001287D01*
X028211Y001537D01*
X028211Y002037D01*
X027961Y002287D01*
X028211Y002537D01*
X028211Y003037D01*
X027961Y003287D01*
X027461Y003287D01*
X027211Y003037D01*
X029211Y003037D02*
X029211Y002537D01*
X029461Y002287D01*
X029211Y002037D01*
X029211Y001537D01*
X029461Y001287D01*
X029961Y001287D01*
X030211Y001537D01*
X030211Y002037D01*
X029961Y002287D01*
X030211Y002537D01*
X030211Y003037D01*
X029961Y003287D01*
X029461Y003287D01*
X029211Y003037D01*
X031192Y003037D02*
X031192Y002537D01*
X031442Y002287D01*
X031192Y002037D01*
X031192Y001537D01*
X031442Y001287D01*
X031942Y001287D01*
X032192Y001537D01*
X032192Y002037D01*
X031942Y002287D01*
X032192Y002537D01*
X032192Y003037D01*
X031942Y003287D01*
X031442Y003287D01*
X031192Y003037D01*
X033192Y003037D02*
X033192Y002537D01*
X033442Y002287D01*
X033192Y002037D01*
X033192Y001537D01*
X033442Y001287D01*
X033942Y001287D01*
X034192Y001537D01*
X034192Y002037D01*
X033942Y002287D01*
X034192Y002537D01*
X034192Y003037D01*
X033942Y003287D01*
X033442Y003287D01*
X033192Y003037D01*
D11*
X032928Y002405D02*
X032928Y002169D01*
X032456Y002169D02*
X032456Y002405D01*
X031510Y003550D02*
X031274Y003550D01*
X031274Y004023D02*
X031510Y004023D01*
X031510Y004400D02*
X031274Y004400D01*
X031274Y004873D02*
X031510Y004873D01*
X028060Y007650D02*
X027824Y007650D01*
X027824Y008123D02*
X028060Y008123D01*
X027678Y008269D02*
X027678Y008505D01*
X027206Y008505D02*
X027206Y008269D01*
X020728Y011369D02*
X020728Y011605D01*
X020256Y011605D02*
X020256Y011369D01*
X019228Y011369D02*
X019228Y011605D01*
X018756Y011605D02*
X018756Y011369D01*
X017728Y011369D02*
X017728Y011605D01*
X017256Y011605D02*
X017256Y011369D01*
X016228Y011369D02*
X016228Y011605D01*
X015756Y011605D02*
X015756Y011369D01*
X013510Y013310D02*
X013510Y015082D01*
X013509Y015099D01*
X013504Y015116D01*
X013497Y015131D01*
X013487Y015145D01*
X013475Y015157D01*
X013461Y015167D01*
X013446Y015174D01*
X013429Y015179D01*
X013412Y015180D01*
X013416Y015180D02*
X013357Y015180D01*
X013112Y015180D02*
X012860Y015180D01*
X012612Y015180D02*
X012360Y015180D01*
X012112Y015180D02*
X011860Y015180D01*
X011616Y015180D02*
X011565Y015180D01*
X011561Y015180D02*
X011544Y015179D01*
X011527Y015174D01*
X011512Y015167D01*
X011498Y015157D01*
X011486Y015145D01*
X011476Y015131D01*
X011469Y015116D01*
X011464Y015099D01*
X011463Y015082D01*
X011463Y013314D01*
X011463Y013310D02*
X011464Y013293D01*
X011469Y013276D01*
X011476Y013261D01*
X011486Y013247D01*
X011498Y013235D01*
X011512Y013225D01*
X011527Y013218D01*
X011544Y013213D01*
X011561Y013212D01*
X011565Y013212D02*
X011616Y013212D01*
X011860Y013212D02*
X012112Y013212D01*
X012357Y013212D02*
X012612Y013212D01*
X012857Y013212D02*
X013112Y013212D01*
X013353Y013212D02*
X013404Y013212D01*
X013412Y013212D02*
X013429Y013213D01*
X013446Y013218D01*
X013461Y013225D01*
X013475Y013235D01*
X013487Y013247D01*
X013497Y013261D01*
X013504Y013276D01*
X013509Y013293D01*
X013510Y013310D01*
X016056Y014269D02*
X016056Y014505D01*
X016528Y014505D02*
X016528Y014269D01*
X016110Y015150D02*
X015874Y015150D01*
X015874Y015623D02*
X016110Y015623D01*
X017374Y015623D02*
X017610Y015623D01*
X017610Y015150D02*
X017374Y015150D01*
X017556Y014505D02*
X017556Y014269D01*
X018028Y014269D02*
X018028Y014505D01*
X019056Y014505D02*
X019056Y014269D01*
X019528Y014269D02*
X019528Y014505D01*
X019110Y015150D02*
X018874Y015150D01*
X018874Y015623D02*
X019110Y015623D01*
X020374Y015623D02*
X020610Y015623D01*
X020610Y015150D02*
X020374Y015150D01*
X020568Y014497D02*
X020568Y014261D01*
X021040Y014261D02*
X021040Y014497D01*
X017089Y021621D02*
X016853Y021621D01*
X016853Y022094D02*
X017089Y022094D01*
X017732Y022787D02*
X018512Y022787D01*
X019052Y022787D01*
X016852Y024347D02*
X016852Y024497D01*
X016752Y024497D01*
X016752Y024347D01*
X017732Y024787D02*
X019052Y024787D01*
X016069Y023326D02*
X015833Y023326D01*
X015833Y022854D02*
X016069Y022854D01*
X013142Y025087D02*
X037642Y025087D01*
X037672Y025089D01*
X037702Y025094D01*
X037731Y025103D01*
X037758Y025116D01*
X037784Y025131D01*
X037808Y025150D01*
X037829Y025171D01*
X037848Y025195D01*
X037863Y025221D01*
X037876Y025248D01*
X037885Y025277D01*
X037890Y025307D01*
X037892Y025337D01*
X037892Y027237D01*
X037890Y027267D01*
X037885Y027297D01*
X037876Y027326D01*
X037863Y027353D01*
X037848Y027379D01*
X037829Y027403D01*
X037808Y027424D01*
X037784Y027443D01*
X037758Y027458D01*
X037731Y027471D01*
X037702Y027480D01*
X037672Y027485D01*
X037642Y027487D01*
X013142Y027487D01*
X013112Y027485D01*
X013082Y027480D01*
X013053Y027471D01*
X013026Y027458D01*
X013000Y027443D01*
X012976Y027424D01*
X012955Y027403D01*
X012936Y027379D01*
X012921Y027353D01*
X012908Y027326D01*
X012899Y027297D01*
X012894Y027267D01*
X012892Y027237D01*
X012892Y025337D01*
X012894Y025307D01*
X012899Y025277D01*
X012908Y025248D01*
X012921Y025221D01*
X012936Y025195D01*
X012955Y025171D01*
X012976Y025150D01*
X013000Y025131D01*
X013026Y025116D01*
X013053Y025103D01*
X013082Y025094D01*
X013112Y025089D01*
X013142Y025087D01*
X010102Y023717D02*
X008682Y023717D01*
X008682Y021857D02*
X010102Y021857D01*
X009952Y025907D02*
X008532Y025907D01*
X008532Y027767D02*
X009952Y027767D01*
X035656Y024405D02*
X035656Y024169D01*
X036128Y024169D02*
X036128Y024405D01*
X036656Y024405D02*
X036656Y024169D01*
X037128Y024169D02*
X037128Y024405D01*
X037642Y007487D02*
X013142Y007487D01*
X013112Y007485D01*
X013082Y007480D01*
X013053Y007471D01*
X013026Y007458D01*
X013000Y007443D01*
X012976Y007424D01*
X012955Y007403D01*
X012936Y007379D01*
X012921Y007353D01*
X012908Y007326D01*
X012899Y007297D01*
X012894Y007267D01*
X012892Y007237D01*
X012892Y005337D01*
X012894Y005307D01*
X012899Y005277D01*
X012908Y005248D01*
X012921Y005221D01*
X012936Y005195D01*
X012955Y005171D01*
X012976Y005150D01*
X013000Y005131D01*
X013026Y005116D01*
X013053Y005103D01*
X013082Y005094D01*
X013112Y005089D01*
X013142Y005087D01*
X037642Y005087D01*
X037672Y005089D01*
X037702Y005094D01*
X037731Y005103D01*
X037758Y005116D01*
X037784Y005131D01*
X037808Y005150D01*
X037829Y005171D01*
X037848Y005195D01*
X037863Y005221D01*
X037876Y005248D01*
X037885Y005277D01*
X037890Y005307D01*
X037892Y005337D01*
X037892Y007237D01*
X037890Y007267D01*
X037885Y007297D01*
X037876Y007326D01*
X037863Y007353D01*
X037848Y007379D01*
X037829Y007403D01*
X037808Y007424D01*
X037784Y007443D01*
X037758Y007458D01*
X037731Y007471D01*
X037702Y007480D01*
X037672Y007485D01*
X037642Y007487D01*
X018428Y002405D02*
X018428Y002169D01*
X017956Y002169D02*
X017956Y002405D01*
X016662Y003137D02*
X016662Y001437D01*
X016660Y001414D01*
X016655Y001391D01*
X016646Y001369D01*
X016633Y001349D01*
X016618Y001331D01*
X016600Y001316D01*
X016580Y001303D01*
X016558Y001294D01*
X016535Y001289D01*
X016512Y001287D01*
X015272Y001287D01*
X015249Y001289D01*
X015226Y001294D01*
X015204Y001303D01*
X015184Y001316D01*
X015166Y001331D01*
X015151Y001349D01*
X015138Y001369D01*
X015129Y001391D01*
X015124Y001414D01*
X015122Y001437D01*
X015122Y003137D01*
X015124Y003160D01*
X015129Y003183D01*
X015138Y003205D01*
X015151Y003225D01*
X015166Y003243D01*
X015184Y003258D01*
X015204Y003271D01*
X015226Y003280D01*
X015249Y003285D01*
X015272Y003287D01*
X015692Y003287D01*
X016092Y003287D01*
X016512Y003287D01*
X016535Y003285D01*
X016558Y003280D01*
X016580Y003271D01*
X016600Y003258D01*
X016618Y003243D01*
X016633Y003225D01*
X016646Y003205D01*
X016655Y003183D01*
X016660Y003160D01*
X016662Y003137D01*
X016092Y003287D02*
X016090Y003260D01*
X016085Y003233D01*
X016075Y003207D01*
X016063Y003183D01*
X016047Y003161D01*
X016029Y003141D01*
X016007Y003124D01*
X015984Y003109D01*
X015959Y003099D01*
X015933Y003091D01*
X015906Y003087D01*
X015878Y003087D01*
X015851Y003091D01*
X015825Y003099D01*
X015800Y003109D01*
X015777Y003124D01*
X015755Y003141D01*
X015737Y003161D01*
X015721Y003183D01*
X015709Y003207D01*
X015699Y003233D01*
X015694Y003260D01*
X015692Y003287D01*
D12*
X013567Y007662D02*
X013267Y007662D01*
X013417Y007662D02*
X013417Y008112D01*
X013267Y007962D01*
X037067Y004912D02*
X037067Y004687D01*
X037217Y004762D01*
X037292Y004762D01*
X037367Y004687D01*
X037367Y004537D01*
X037292Y004462D01*
X037142Y004462D01*
X037067Y004537D01*
X037067Y004912D02*
X037367Y004912D01*
X037527Y004837D02*
X037602Y004912D01*
X037753Y004912D01*
X037828Y004837D01*
X037527Y004537D01*
X037602Y004462D01*
X037753Y004462D01*
X037828Y004537D01*
X037828Y004837D01*
X037527Y004837D02*
X037527Y004537D01*
X037602Y024462D02*
X037527Y024537D01*
X037828Y024837D01*
X037828Y024537D01*
X037753Y024462D01*
X037602Y024462D01*
X037527Y024537D02*
X037527Y024837D01*
X037602Y024912D01*
X037753Y024912D01*
X037828Y024837D01*
X037367Y024912D02*
X037067Y024912D01*
X037067Y024687D01*
X037217Y024762D01*
X037292Y024762D01*
X037367Y024687D01*
X037367Y024537D01*
X037292Y024462D01*
X037142Y024462D01*
X037067Y024537D01*
X013567Y027662D02*
X013267Y027662D01*
X013417Y027662D02*
X013417Y028112D01*
X013267Y027962D01*
D13*
X019503Y022703D02*
X019817Y022390D01*
X019817Y022546D02*
X019503Y022546D01*
X019503Y022390D02*
X019817Y022703D01*
X019660Y022703D02*
X019660Y022390D01*
X038678Y028861D02*
X038746Y028794D01*
X038678Y028861D02*
X038678Y028995D01*
X038746Y029063D01*
X038813Y029063D01*
X039082Y028794D01*
X039082Y029063D01*
X039668Y028942D02*
X040072Y028942D01*
X040072Y028808D02*
X040072Y029077D01*
X039803Y028808D02*
X039668Y028942D01*
D14*
X042347Y028287D03*
X042347Y027287D03*
X042347Y026287D03*
X042347Y025287D03*
X042347Y024287D03*
X042347Y023287D03*
X042347Y022287D03*
X042347Y021287D03*
X042347Y020287D03*
X042347Y019287D03*
X042347Y018287D03*
X042347Y017287D03*
X042347Y016287D03*
X042347Y015287D03*
X042347Y014287D03*
X042347Y013287D03*
X042347Y012287D03*
X042347Y011287D03*
X042347Y010287D03*
X042347Y009287D03*
X042347Y008287D03*
X042347Y007287D03*
X042347Y006287D03*
X042347Y005287D03*
X042347Y004287D03*
D15*
X015262Y003287D02*
X015262Y001287D01*
X011730Y013757D02*
X011732Y013784D01*
X011738Y013811D01*
X011747Y013837D01*
X011760Y013861D01*
X011776Y013884D01*
X011795Y013903D01*
X011817Y013920D01*
X011841Y013934D01*
X011866Y013944D01*
X011893Y013951D01*
X011920Y013954D01*
X011948Y013953D01*
X011975Y013948D01*
X012001Y013940D01*
X012025Y013928D01*
X012048Y013912D01*
X012069Y013894D01*
X012086Y013873D01*
X012101Y013849D01*
X012112Y013824D01*
X012120Y013798D01*
X012124Y013771D01*
X012124Y013743D01*
X012120Y013716D01*
X012112Y013690D01*
X012101Y013665D01*
X012086Y013641D01*
X012069Y013620D01*
X012048Y013602D01*
X012026Y013586D01*
X012001Y013574D01*
X011975Y013566D01*
X011948Y013561D01*
X011920Y013560D01*
X011893Y013563D01*
X011866Y013570D01*
X011841Y013580D01*
X011817Y013594D01*
X011795Y013611D01*
X011776Y013630D01*
X011760Y013653D01*
X011747Y013677D01*
X011738Y013703D01*
X011732Y013730D01*
X011730Y013757D01*
D16*
X018272Y022777D02*
X018273Y022798D01*
X018278Y022818D01*
X018286Y022838D01*
X018297Y022855D01*
X018311Y022871D01*
X018328Y022883D01*
X018346Y022893D01*
X018366Y022899D01*
X018387Y022902D01*
X018408Y022901D01*
X018428Y022896D01*
X018448Y022888D01*
X018465Y022877D01*
X018481Y022863D01*
X018493Y022846D01*
X018503Y022828D01*
X018509Y022808D01*
X018512Y022787D01*
M02*
