G75*
G70*
%OFA0B0*%
%FSLAX24Y24*%
%IPPOS*%
%LPD*%
%AMOC8*
5,1,8,0,0,1.08239X$1,22.5*
%
%ADD10C,0.0160*%
%ADD11R,0.0625X0.1000*%
%ADD12R,0.0750X0.1000*%
%ADD13R,0.0394X0.0551*%
%ADD14R,0.0472X0.0315*%
%ADD15R,0.0315X0.0472*%
%ADD16R,0.0945X0.0866*%
%ADD17R,0.0551X0.0472*%
%ADD18R,0.1060X0.0400*%
%ADD19R,0.3520X0.4000*%
%ADD20R,0.0866X0.0236*%
%ADD21C,0.0945*%
%ADD22OC8,0.0827*%
%ADD23C,0.1004*%
%ADD24R,0.0870X0.0240*%
%ADD25C,0.1810*%
%ADD26OC8,0.1810*%
%ADD27R,0.0157X0.0354*%
%ADD28C,0.0515*%
%ADD29OC8,0.0600*%
%ADD30C,0.0000*%
%ADD31C,0.0827*%
%ADD32C,0.0396*%
%ADD33C,0.0500*%
D10*
X000180Y000180D02*
X000180Y030176D01*
X049050Y030176D01*
X049050Y000180D01*
X000180Y000180D01*
X002650Y001710D02*
X002608Y001866D01*
X002459Y002124D01*
X002249Y002334D01*
X001991Y002483D01*
X001835Y002525D01*
X000740Y003620D01*
X000740Y017178D01*
X004805Y020430D01*
X008430Y020430D01*
X008930Y020930D01*
X008930Y027930D01*
X010241Y029616D01*
X036180Y029616D01*
X036180Y028680D01*
X035680Y028180D01*
X012680Y028180D01*
X010680Y026180D01*
X010680Y016180D01*
X008930Y014430D01*
X004430Y014430D01*
X003180Y013180D01*
X003180Y004680D01*
X004680Y003180D01*
X013180Y003180D01*
X014180Y002180D01*
X034680Y002180D01*
X035180Y001680D01*
X035180Y000740D01*
X003620Y000740D01*
X002650Y001710D01*
X002635Y001765D02*
X035095Y001765D01*
X035180Y001607D02*
X002753Y001607D01*
X002912Y001448D02*
X035180Y001448D01*
X035180Y001290D02*
X003070Y001290D01*
X003229Y001131D02*
X035180Y001131D01*
X035180Y000973D02*
X003387Y000973D01*
X003546Y000814D02*
X035180Y000814D01*
X034555Y001180D02*
X034430Y001305D01*
X034430Y001597D01*
X034778Y002082D02*
X002483Y002082D01*
X002575Y001924D02*
X034936Y001924D01*
X033597Y002930D02*
X031930Y002930D01*
X031180Y004055D02*
X030680Y003555D01*
X030076Y003826D02*
X028034Y003826D01*
X027876Y003984D02*
X030234Y003984D01*
X030393Y004143D02*
X027717Y004143D01*
X027680Y004180D02*
X027680Y007180D01*
X030430Y007180D01*
X030430Y004180D01*
X029430Y003180D01*
X028680Y003180D01*
X027680Y004180D01*
X027680Y004301D02*
X030430Y004301D01*
X030430Y004460D02*
X027680Y004460D01*
X027680Y004618D02*
X030430Y004618D01*
X030430Y004777D02*
X027680Y004777D01*
X027680Y004935D02*
X030430Y004935D01*
X030430Y005094D02*
X027680Y005094D01*
X027680Y005252D02*
X030430Y005252D01*
X030430Y005411D02*
X027680Y005411D01*
X027680Y005569D02*
X030430Y005569D01*
X030430Y005728D02*
X027680Y005728D01*
X027680Y005886D02*
X030430Y005886D01*
X030430Y006045D02*
X027680Y006045D01*
X027680Y006203D02*
X030430Y006203D01*
X030430Y006362D02*
X027680Y006362D01*
X027680Y006520D02*
X030430Y006520D01*
X030430Y006679D02*
X027680Y006679D01*
X027680Y006837D02*
X030430Y006837D01*
X030430Y006996D02*
X027680Y006996D01*
X027680Y007154D02*
X030430Y007154D01*
X031180Y007034D02*
X031717Y006497D01*
X031806Y006497D01*
X031806Y005020D01*
X031930Y004896D01*
X031180Y004055D02*
X031180Y006326D01*
X032554Y006497D02*
X032554Y008715D01*
X032430Y008589D01*
X031555Y007680D02*
X031805Y007430D01*
X032113Y007430D01*
X032180Y007363D01*
X033180Y007180D02*
X035930Y007180D01*
X035930Y004180D01*
X034930Y003180D01*
X034180Y003180D01*
X033180Y004180D01*
X033180Y007180D01*
X033180Y007154D02*
X035930Y007154D01*
X035930Y006996D02*
X033180Y006996D01*
X033180Y006837D02*
X035930Y006837D01*
X035930Y006679D02*
X033180Y006679D01*
X033180Y006520D02*
X035930Y006520D01*
X035930Y006362D02*
X033180Y006362D01*
X033180Y006203D02*
X035930Y006203D01*
X035930Y006045D02*
X033180Y006045D01*
X033180Y005886D02*
X035930Y005886D01*
X035930Y005728D02*
X033180Y005728D01*
X033180Y005569D02*
X035930Y005569D01*
X035930Y005411D02*
X033180Y005411D01*
X033180Y005252D02*
X035930Y005252D01*
X035930Y005094D02*
X033180Y005094D01*
X033180Y004935D02*
X035930Y004935D01*
X035930Y004777D02*
X033180Y004777D01*
X033180Y004618D02*
X035930Y004618D01*
X035930Y004460D02*
X033180Y004460D01*
X033180Y004301D02*
X035930Y004301D01*
X035893Y004143D02*
X033217Y004143D01*
X033376Y003984D02*
X035734Y003984D01*
X035576Y003826D02*
X033534Y003826D01*
X033693Y003667D02*
X035417Y003667D01*
X035259Y003509D02*
X033851Y003509D01*
X034010Y003350D02*
X035100Y003350D01*
X034942Y003192D02*
X034168Y003192D01*
X034430Y003763D02*
X033597Y002930D01*
X029917Y003667D02*
X028193Y003667D01*
X028351Y003509D02*
X029759Y003509D01*
X029600Y003350D02*
X028510Y003350D01*
X028668Y003192D02*
X029442Y003192D01*
X028930Y003763D02*
X028131Y002964D01*
X026430Y002964D01*
X025680Y004055D02*
X025180Y003555D01*
X024734Y003984D02*
X022376Y003984D01*
X022534Y003826D02*
X024576Y003826D01*
X024417Y003667D02*
X022693Y003667D01*
X022851Y003509D02*
X024259Y003509D01*
X024100Y003350D02*
X023010Y003350D01*
X023168Y003192D02*
X023942Y003192D01*
X023930Y003180D02*
X023180Y003180D01*
X022180Y004180D01*
X022180Y007180D01*
X024930Y007180D01*
X024930Y004180D01*
X023930Y003180D01*
X023430Y003763D02*
X022631Y002964D01*
X020930Y002964D01*
X020180Y004055D02*
X019680Y003555D01*
X019076Y003826D02*
X017034Y003826D01*
X016876Y003984D02*
X019234Y003984D01*
X019393Y004143D02*
X016717Y004143D01*
X016680Y004180D02*
X016680Y007180D01*
X019430Y007180D01*
X019430Y004180D01*
X018430Y003180D01*
X017680Y003180D01*
X016680Y004180D01*
X016680Y004301D02*
X019430Y004301D01*
X019430Y004460D02*
X016680Y004460D01*
X016680Y004618D02*
X019430Y004618D01*
X019430Y004777D02*
X016680Y004777D01*
X016680Y004935D02*
X019430Y004935D01*
X019430Y005094D02*
X016680Y005094D01*
X016680Y005252D02*
X019430Y005252D01*
X019430Y005411D02*
X016680Y005411D01*
X016680Y005569D02*
X019430Y005569D01*
X019430Y005728D02*
X016680Y005728D01*
X016680Y005886D02*
X019430Y005886D01*
X019430Y006045D02*
X016680Y006045D01*
X016680Y006203D02*
X019430Y006203D01*
X019430Y006362D02*
X016680Y006362D01*
X016680Y006520D02*
X019430Y006520D01*
X019430Y006679D02*
X016680Y006679D01*
X016680Y006837D02*
X019430Y006837D01*
X019430Y006996D02*
X016680Y006996D01*
X016680Y007154D02*
X019430Y007154D01*
X020180Y007034D02*
X020717Y006497D01*
X020806Y006497D01*
X020806Y005020D01*
X020930Y004896D01*
X020180Y004055D02*
X020180Y006326D01*
X021554Y006497D02*
X021554Y008715D01*
X021430Y008589D01*
X020555Y007680D02*
X020805Y007430D01*
X021113Y007430D01*
X021180Y007363D01*
X022180Y007154D02*
X024930Y007154D01*
X024930Y006996D02*
X022180Y006996D01*
X022180Y006837D02*
X024930Y006837D01*
X024930Y006679D02*
X022180Y006679D01*
X022180Y006520D02*
X024930Y006520D01*
X024930Y006362D02*
X022180Y006362D01*
X022180Y006203D02*
X024930Y006203D01*
X024930Y006045D02*
X022180Y006045D01*
X022180Y005886D02*
X024930Y005886D01*
X024930Y005728D02*
X022180Y005728D01*
X022180Y005569D02*
X024930Y005569D01*
X024930Y005411D02*
X022180Y005411D01*
X022180Y005252D02*
X024930Y005252D01*
X024930Y005094D02*
X022180Y005094D01*
X022180Y004935D02*
X024930Y004935D01*
X024930Y004777D02*
X022180Y004777D01*
X022180Y004618D02*
X024930Y004618D01*
X024930Y004460D02*
X022180Y004460D01*
X022180Y004301D02*
X024930Y004301D01*
X024893Y004143D02*
X022217Y004143D01*
X018917Y003667D02*
X017193Y003667D01*
X017351Y003509D02*
X018759Y003509D01*
X018600Y003350D02*
X017510Y003350D01*
X017668Y003192D02*
X018442Y003192D01*
X017930Y003763D02*
X017131Y002964D01*
X015430Y002964D01*
X014119Y002241D02*
X002343Y002241D01*
X002137Y002399D02*
X013961Y002399D01*
X013802Y002558D02*
X001802Y002558D01*
X001644Y002716D02*
X013644Y002716D01*
X013485Y002875D02*
X001485Y002875D01*
X001327Y003033D02*
X013327Y003033D01*
X011680Y004180D02*
X005680Y004180D01*
X004680Y005180D01*
X004680Y007680D01*
X007038Y010065D01*
X007478Y010065D01*
X007566Y010102D01*
X007633Y010169D01*
X008508Y011044D01*
X008545Y011132D01*
X008545Y011590D01*
X008980Y012030D01*
X013080Y012030D01*
X013680Y011430D01*
X013680Y006180D01*
X011680Y004180D01*
X011801Y004301D02*
X005559Y004301D01*
X005400Y004460D02*
X011960Y004460D01*
X012118Y004618D02*
X005242Y004618D01*
X005083Y004777D02*
X012277Y004777D01*
X012435Y004935D02*
X004925Y004935D01*
X004766Y005094D02*
X012594Y005094D01*
X012752Y005252D02*
X004680Y005252D01*
X004680Y005411D02*
X012911Y005411D01*
X013069Y005569D02*
X004680Y005569D01*
X004680Y005728D02*
X013228Y005728D01*
X013386Y005886D02*
X004680Y005886D01*
X004680Y006045D02*
X013545Y006045D01*
X013680Y006203D02*
X004680Y006203D01*
X004680Y006362D02*
X013680Y006362D01*
X013680Y006520D02*
X004680Y006520D01*
X004680Y006679D02*
X013680Y006679D01*
X013680Y006837D02*
X004680Y006837D01*
X004680Y006996D02*
X013680Y006996D01*
X013680Y007154D02*
X004680Y007154D01*
X004680Y007313D02*
X013680Y007313D01*
X013680Y007471D02*
X004680Y007471D01*
X004680Y007630D02*
X013680Y007630D01*
X013680Y007788D02*
X004787Y007788D01*
X004943Y007947D02*
X013680Y007947D01*
X013680Y008105D02*
X005100Y008105D01*
X005257Y008264D02*
X013680Y008264D01*
X013680Y008422D02*
X005413Y008422D01*
X005570Y008581D02*
X013680Y008581D01*
X013680Y008739D02*
X005727Y008739D01*
X005884Y008898D02*
X013680Y008898D01*
X013680Y009056D02*
X006040Y009056D01*
X006197Y009215D02*
X013680Y009215D01*
X013680Y009373D02*
X006354Y009373D01*
X006510Y009532D02*
X013680Y009532D01*
X013680Y009690D02*
X006667Y009690D01*
X006824Y009849D02*
X013680Y009849D01*
X013680Y010007D02*
X006980Y010007D01*
X007430Y010305D02*
X006305Y010305D01*
X005430Y009430D01*
X005076Y009076D01*
X004680Y009076D01*
X004680Y009784D02*
X004701Y009805D01*
X005055Y009805D01*
X006680Y011430D01*
X007656Y011430D01*
X008305Y011180D02*
X007430Y010305D01*
X007630Y010166D02*
X013680Y010166D01*
X013555Y010180D02*
X010680Y010180D01*
X010680Y012305D01*
X009305Y012305D01*
X009305Y013305D01*
X014680Y013305D01*
X014680Y010305D01*
X014430Y010555D01*
X013930Y010555D01*
X013555Y010180D01*
X013680Y010324D02*
X007788Y010324D01*
X007947Y010483D02*
X013680Y010483D01*
X013680Y010641D02*
X008105Y010641D01*
X008264Y010800D02*
X013680Y010800D01*
X013680Y010958D02*
X008422Y010958D01*
X008538Y011117D02*
X013680Y011117D01*
X013680Y011275D02*
X008545Y011275D01*
X008545Y011434D02*
X013676Y011434D01*
X013518Y011592D02*
X008547Y011592D01*
X008704Y011751D02*
X013359Y011751D01*
X013201Y011909D02*
X008860Y011909D01*
X009305Y012385D02*
X014680Y012385D01*
X014680Y012543D02*
X009305Y012543D01*
X009305Y012702D02*
X014680Y012702D01*
X014680Y012860D02*
X009305Y012860D01*
X009305Y013019D02*
X014680Y013019D01*
X014680Y013177D02*
X009305Y013177D01*
X008305Y012805D02*
X008305Y011180D01*
X007656Y011930D02*
X006305Y011930D01*
X005805Y012451D02*
X007659Y012451D01*
X007680Y012430D01*
X007656Y012430D01*
X007656Y012930D02*
X006034Y012930D01*
X005805Y013159D01*
X005805Y014680D01*
X004287Y014287D02*
X000740Y014287D01*
X000740Y014445D02*
X008945Y014445D01*
X009104Y014604D02*
X000740Y014604D01*
X000740Y014762D02*
X009262Y014762D01*
X009421Y014921D02*
X000740Y014921D01*
X000740Y015079D02*
X009579Y015079D01*
X009738Y015238D02*
X000740Y015238D01*
X000740Y015396D02*
X009896Y015396D01*
X010055Y015555D02*
X000740Y015555D01*
X000740Y015713D02*
X010213Y015713D01*
X010372Y015872D02*
X000740Y015872D01*
X000740Y016030D02*
X010530Y016030D01*
X010680Y016189D02*
X000740Y016189D01*
X000740Y016347D02*
X010680Y016347D01*
X010680Y016506D02*
X000740Y016506D01*
X000740Y016664D02*
X010680Y016664D01*
X010680Y016823D02*
X000740Y016823D01*
X000740Y016981D02*
X010680Y016981D01*
X010680Y017140D02*
X000740Y017140D01*
X000890Y017298D02*
X010680Y017298D01*
X010680Y017457D02*
X001088Y017457D01*
X001286Y017615D02*
X010680Y017615D01*
X010680Y017774D02*
X001484Y017774D01*
X001683Y017932D02*
X010680Y017932D01*
X010680Y018091D02*
X001881Y018091D01*
X002079Y018249D02*
X010680Y018249D01*
X010680Y018408D02*
X002277Y018408D01*
X002475Y018566D02*
X010680Y018566D01*
X010680Y018725D02*
X002673Y018725D01*
X002871Y018883D02*
X010680Y018883D01*
X010680Y019042D02*
X003069Y019042D01*
X003268Y019200D02*
X010680Y019200D01*
X010680Y019359D02*
X003466Y019359D01*
X003664Y019517D02*
X010680Y019517D01*
X010680Y019676D02*
X003862Y019676D01*
X004060Y019834D02*
X010680Y019834D01*
X010680Y019993D02*
X004258Y019993D01*
X004456Y020151D02*
X010680Y020151D01*
X010680Y020310D02*
X004654Y020310D01*
X004055Y020680D02*
X003805Y020430D01*
X003534Y020430D01*
X002826Y020430D02*
X003555Y021180D01*
X003534Y021180D01*
X003555Y021180D02*
X003930Y021180D01*
X004055Y021305D01*
X003930Y021930D02*
X003659Y021930D01*
X003930Y021930D02*
X004555Y022555D01*
X005650Y022555D01*
X006680Y022555D01*
X006930Y022305D01*
X006930Y021805D01*
X007180Y021555D01*
X007201Y021430D01*
X007909Y021430D02*
X008180Y021430D01*
X008430Y021180D01*
X008930Y021102D02*
X010680Y021102D01*
X010680Y020944D02*
X008930Y020944D01*
X008785Y020785D02*
X010680Y020785D01*
X010680Y020627D02*
X008627Y020627D01*
X008468Y020468D02*
X010680Y020468D01*
X011305Y020555D02*
X011305Y022055D01*
X010680Y022053D02*
X008930Y022053D01*
X008930Y021895D02*
X010680Y021895D01*
X010680Y021736D02*
X008930Y021736D01*
X008930Y021578D02*
X010680Y021578D01*
X010680Y021419D02*
X008930Y021419D01*
X008930Y021261D02*
X010680Y021261D01*
X010680Y022212D02*
X008930Y022212D01*
X008930Y022370D02*
X010680Y022370D01*
X010680Y022529D02*
X008930Y022529D01*
X008930Y022687D02*
X010680Y022687D01*
X010680Y022846D02*
X008930Y022846D01*
X008930Y023004D02*
X010680Y023004D01*
X010680Y023163D02*
X008930Y023163D01*
X008930Y023321D02*
X010680Y023321D01*
X010680Y023480D02*
X008930Y023480D01*
X008930Y023638D02*
X010680Y023638D01*
X010680Y023797D02*
X008930Y023797D01*
X008930Y023955D02*
X010680Y023955D01*
X010680Y024114D02*
X008930Y024114D01*
X008930Y024272D02*
X010680Y024272D01*
X010680Y024431D02*
X008930Y024431D01*
X008930Y024589D02*
X010680Y024589D01*
X010680Y024748D02*
X008930Y024748D01*
X008930Y024906D02*
X010680Y024906D01*
X010680Y025065D02*
X008930Y025065D01*
X008930Y025223D02*
X010680Y025223D01*
X010680Y025382D02*
X008930Y025382D01*
X008930Y025540D02*
X010680Y025540D01*
X010680Y025699D02*
X008930Y025699D01*
X008930Y025857D02*
X010680Y025857D01*
X010680Y026016D02*
X008930Y026016D01*
X008930Y026174D02*
X010680Y026174D01*
X010833Y026333D02*
X008930Y026333D01*
X008930Y026491D02*
X010991Y026491D01*
X011150Y026650D02*
X008930Y026650D01*
X008930Y026808D02*
X011308Y026808D01*
X011467Y026967D02*
X008930Y026967D01*
X008930Y027125D02*
X011625Y027125D01*
X011784Y027284D02*
X008930Y027284D01*
X008930Y027442D02*
X011942Y027442D01*
X012101Y027601D02*
X008930Y027601D01*
X008930Y027759D02*
X012259Y027759D01*
X012418Y027918D02*
X008930Y027918D01*
X009044Y028076D02*
X012576Y028076D01*
X013513Y027430D02*
X015180Y027430D01*
X015180Y027396D01*
X015930Y026430D02*
X016430Y026930D01*
X015930Y026430D02*
X015930Y024034D01*
X015383Y023784D02*
X015304Y023863D01*
X015304Y025340D01*
X015180Y025464D01*
X013930Y025540D02*
X011180Y025540D01*
X011180Y025382D02*
X013930Y025382D01*
X013930Y025223D02*
X011180Y025223D01*
X011180Y025065D02*
X013930Y025065D01*
X013930Y024906D02*
X011180Y024906D01*
X011180Y024748D02*
X013930Y024748D01*
X013930Y024589D02*
X011180Y024589D01*
X011180Y024431D02*
X013930Y024431D01*
X013930Y024272D02*
X011180Y024272D01*
X011180Y024114D02*
X013930Y024114D01*
X013930Y023955D02*
X011180Y023955D01*
X011180Y023797D02*
X013930Y023797D01*
X013930Y023638D02*
X011180Y023638D01*
X011180Y023480D02*
X013930Y023480D01*
X013930Y023321D02*
X011180Y023321D01*
X011180Y023180D02*
X013930Y023180D01*
X013930Y026180D01*
X012930Y027180D01*
X012180Y027180D01*
X011180Y026180D01*
X011180Y023180D01*
X012055Y022555D02*
X012055Y020555D01*
X012401Y020151D02*
X034959Y020151D01*
X035117Y019993D02*
X012243Y019993D01*
X012084Y019834D02*
X035276Y019834D01*
X035180Y019930D02*
X035839Y020589D01*
X036680Y020589D01*
X037555Y020180D02*
X039555Y020180D01*
X040305Y020805D02*
X038305Y020805D01*
X037555Y021555D02*
X040680Y021555D01*
X041055Y021930D01*
X042056Y021895D02*
X042180Y021771D01*
X042056Y021895D02*
X042056Y023863D01*
X042680Y023987D02*
X042804Y023863D01*
X043341Y023326D01*
X043430Y023326D01*
X042863Y022997D02*
X042430Y022997D01*
X042863Y022997D02*
X043180Y022680D01*
X043180Y022430D01*
X044805Y023214D02*
X042180Y020589D01*
X042180Y019988D01*
X043784Y018384D01*
X043380Y017980D01*
X043730Y018280D02*
X043830Y018280D01*
X043784Y018384D02*
X045430Y016738D01*
X045056Y016679D02*
X044180Y017555D01*
X026930Y017555D01*
X025805Y016430D01*
X025805Y015216D01*
X025841Y015180D01*
X023490Y015180D01*
X023680Y014680D02*
X024430Y014680D01*
X023680Y014680D02*
X023490Y014490D01*
X023490Y014180D01*
X022805Y013430D02*
X031430Y013430D01*
X032180Y014180D01*
X032870Y014180D01*
X033555Y015180D02*
X034055Y014680D01*
X034055Y013305D01*
X034555Y012805D01*
X038805Y012805D01*
X041306Y015306D01*
X041306Y015872D01*
X041385Y015951D01*
X042680Y015951D01*
X043305Y015951D01*
X043680Y016305D02*
X042805Y016305D01*
X042555Y016305D01*
X042680Y016430D01*
X042805Y016305D01*
X042680Y016430D02*
X042680Y016659D01*
X043305Y016659D02*
X044166Y016659D01*
X044180Y016646D01*
X043680Y016305D02*
X044180Y015805D01*
X044180Y015464D01*
X044464Y015180D01*
X047055Y015180D01*
X047180Y015055D01*
X047305Y015180D01*
X047555Y015180D01*
X047839Y015464D01*
X047930Y015464D01*
X047305Y015180D02*
X047180Y015180D01*
X047180Y015055D01*
X047180Y014805D01*
X047180Y015180D02*
X047055Y015180D01*
X047055Y015951D02*
X046430Y015951D01*
X045135Y015951D01*
X045056Y015872D01*
X045056Y016679D01*
X046430Y016659D02*
X046430Y017430D01*
X047180Y018180D01*
X047451Y018451D01*
X047805Y018451D01*
X047805Y019159D02*
X047805Y019180D01*
X048180Y019555D01*
X048180Y024305D01*
X048179Y024304D01*
X048179Y023988D01*
X048180Y024305D02*
X048180Y024430D01*
X047680Y024930D01*
X047680Y025464D01*
X047431Y023988D02*
X046180Y022737D01*
X046180Y022555D01*
X046930Y021805D01*
X047680Y021805D01*
X047680Y021771D01*
X047363Y022680D02*
X046680Y022680D01*
X047363Y022680D02*
X047805Y023122D01*
X046205Y023930D02*
X046205Y024155D01*
X045305Y025055D01*
X045305Y024430D01*
X044805Y023930D01*
X044805Y023214D01*
X044805Y023930D02*
X045555Y023930D01*
X045555Y022680D01*
X047680Y020555D01*
X047680Y020589D01*
X043680Y018480D02*
X043680Y018330D01*
X042930Y017180D02*
X041930Y017180D01*
X041680Y016930D01*
X041305Y017305D01*
X039451Y017305D01*
X038951Y016805D01*
X038930Y016805D01*
X039659Y016805D02*
X040555Y016805D01*
X040555Y016771D01*
X039830Y016205D02*
X039334Y016180D01*
X039186Y016032D01*
X039186Y015495D01*
X038930Y015826D02*
X038626Y016180D01*
X038930Y015826D02*
X038930Y014865D01*
X038930Y014430D01*
X038930Y014230D01*
X039180Y014180D01*
X039030Y014330D01*
X038930Y014230D01*
X038680Y013980D01*
X038680Y013930D01*
X039180Y014180D02*
X039680Y014180D01*
X040555Y015055D01*
X040555Y015589D01*
X039805Y015180D02*
X039490Y014865D01*
X039186Y014865D01*
X038930Y014430D02*
X039030Y014330D01*
X038674Y014865D02*
X038674Y015495D01*
X036490Y015495D01*
X036490Y015180D01*
X038055Y014930D02*
X038055Y014805D01*
X041680Y016738D02*
X041680Y016930D01*
X040705Y018630D02*
X041555Y019480D01*
X041555Y026430D01*
X042521Y027396D01*
X042680Y027396D01*
X043805Y026555D02*
X043430Y026180D01*
X043430Y024034D01*
X042680Y023987D02*
X042680Y025464D01*
X045680Y026597D02*
X046479Y027396D01*
X047680Y027396D01*
X045680Y028763D02*
X043847Y028763D01*
X043430Y029180D01*
X040180Y029180D01*
X039305Y028305D01*
X038430Y029180D01*
X035097Y029180D01*
X034680Y028763D01*
X034680Y028680D02*
X034930Y028930D01*
X035430Y028930D01*
X035893Y028393D02*
X009290Y028393D01*
X009167Y028235D02*
X035735Y028235D01*
X036052Y028552D02*
X009413Y028552D01*
X009537Y028710D02*
X036180Y028710D01*
X036180Y028869D02*
X009660Y028869D01*
X009783Y029027D02*
X036180Y029027D01*
X036180Y029186D02*
X009907Y029186D01*
X010030Y029344D02*
X036180Y029344D01*
X036180Y029503D02*
X010153Y029503D01*
X009180Y029305D02*
X008805Y029680D01*
X006680Y029680D01*
X006430Y029430D01*
X006430Y028409D01*
X006055Y028034D01*
X005784Y028430D02*
X005180Y028430D01*
X004930Y028155D01*
X004930Y027080D01*
X004930Y025480D01*
X004607Y025157D01*
X004284Y025480D01*
X003534Y025480D01*
X003534Y024830D02*
X002826Y025480D01*
X002380Y025480D01*
X002180Y025680D01*
X002180Y026104D01*
X002206Y026130D01*
X002206Y026630D02*
X001730Y026630D01*
X001430Y026330D01*
X001430Y025680D01*
X002430Y024930D01*
X002680Y024930D01*
X002805Y024805D01*
X002805Y024930D01*
X002826Y024830D01*
X002805Y024805D02*
X002826Y024784D01*
X003534Y024180D01*
X002826Y024180D02*
X001055Y024180D01*
X002826Y025480D02*
X002826Y026076D01*
X003180Y026430D01*
X003430Y026930D02*
X003430Y028230D01*
X003684Y028484D01*
X003684Y028680D01*
X003914Y028451D01*
X004430Y028451D01*
X005076Y029159D02*
X005255Y028980D01*
X005076Y029159D02*
X004430Y029159D01*
X003880Y029555D02*
X003684Y029559D01*
X003684Y029430D01*
X003880Y029555D02*
X005005Y029555D01*
X005659Y029555D01*
X005930Y029284D01*
X005930Y028576D02*
X005784Y028430D01*
X005430Y028034D02*
X006055Y027326D01*
X006180Y027201D01*
X006180Y025055D01*
X006701Y024951D02*
X006930Y025180D01*
X006701Y024951D02*
X006701Y024180D01*
X006680Y023555D02*
X007710Y023555D01*
X007710Y023775D01*
X007430Y024055D01*
X007430Y024180D01*
X007430Y026430D01*
X007680Y026680D01*
X008180Y026680D01*
X008430Y026930D01*
X008430Y027680D01*
X007930Y028180D01*
X007430Y027680D02*
X007430Y028680D01*
X007430Y027680D02*
X007930Y027180D01*
X005430Y027326D02*
X005305Y027326D01*
X005305Y026680D01*
X005305Y025680D01*
X005680Y025305D01*
X005401Y024834D02*
X004930Y024834D01*
X004607Y025157D01*
X004334Y024834D02*
X004930Y024834D01*
X005401Y024834D02*
X006680Y023555D01*
X006180Y023555D02*
X005650Y023555D01*
X005555Y023555D01*
X004930Y024126D01*
X004334Y024834D02*
X004205Y024705D01*
X003659Y023430D02*
X003659Y022680D01*
X003930Y022680D01*
X004305Y023055D01*
X005650Y023055D01*
X006180Y023555D02*
X006680Y023055D01*
X007710Y023055D01*
X008305Y023055D01*
X008430Y023180D01*
X008430Y024680D01*
X007930Y025180D01*
X007430Y024180D02*
X007409Y024180D01*
X007710Y022555D02*
X008555Y022555D01*
X008430Y022055D02*
X007710Y022055D01*
X006430Y022055D02*
X006430Y019680D01*
X006430Y022055D02*
X005650Y022055D01*
X002951Y021930D02*
X002826Y021180D01*
X002951Y021930D02*
X002951Y022680D01*
X002430Y022680D01*
X003680Y026680D02*
X003430Y026930D01*
X003680Y026680D02*
X004254Y026630D01*
X004254Y027130D02*
X004304Y027180D01*
X004680Y027180D01*
X004930Y027080D01*
X002930Y027330D02*
X002930Y028576D01*
X002976Y028680D01*
X002976Y029430D01*
X002930Y027330D02*
X002730Y027130D01*
X002206Y027130D01*
X011180Y026174D02*
X013930Y026174D01*
X013930Y026016D02*
X011180Y026016D01*
X011180Y025857D02*
X013930Y025857D01*
X013930Y025699D02*
X011180Y025699D01*
X011333Y026333D02*
X013777Y026333D01*
X013619Y026491D02*
X011491Y026491D01*
X011650Y026650D02*
X013460Y026650D01*
X013302Y026808D02*
X011808Y026808D01*
X011967Y026967D02*
X013143Y026967D01*
X012985Y027125D02*
X012125Y027125D01*
X012680Y026597D02*
X013513Y027430D01*
X016680Y026180D02*
X017680Y027180D01*
X018430Y027180D01*
X019430Y026180D01*
X019430Y023180D01*
X016680Y023180D01*
X016680Y026180D01*
X016680Y026174D02*
X019430Y026174D01*
X019430Y026016D02*
X016680Y026016D01*
X016680Y025857D02*
X019430Y025857D01*
X019430Y025699D02*
X016680Y025699D01*
X016680Y025540D02*
X019430Y025540D01*
X019430Y025382D02*
X016680Y025382D01*
X016680Y025223D02*
X019430Y025223D01*
X019430Y025065D02*
X016680Y025065D01*
X016680Y024906D02*
X019430Y024906D01*
X019430Y024748D02*
X016680Y024748D01*
X016680Y024589D02*
X019430Y024589D01*
X019430Y024431D02*
X016680Y024431D01*
X016680Y024272D02*
X019430Y024272D01*
X019430Y024114D02*
X016680Y024114D01*
X016680Y023955D02*
X019430Y023955D01*
X019430Y023797D02*
X016680Y023797D01*
X016680Y023638D02*
X019430Y023638D01*
X019430Y023480D02*
X016680Y023480D01*
X016680Y023321D02*
X019430Y023321D01*
X020056Y023863D02*
X020056Y021645D01*
X020180Y021771D01*
X021055Y022055D02*
X021055Y022680D01*
X020805Y022930D01*
X020497Y022930D01*
X020430Y022997D01*
X020804Y023863D02*
X021341Y023326D01*
X021430Y023326D01*
X022180Y023321D02*
X024930Y023321D01*
X024930Y023180D02*
X022180Y023180D01*
X022180Y026180D01*
X023180Y027180D01*
X023930Y027180D01*
X024930Y026180D01*
X024930Y023180D01*
X024930Y023480D02*
X022180Y023480D01*
X022180Y023638D02*
X024930Y023638D01*
X024930Y023797D02*
X022180Y023797D01*
X022180Y023955D02*
X024930Y023955D01*
X024930Y024114D02*
X022180Y024114D01*
X022180Y024272D02*
X024930Y024272D01*
X024930Y024431D02*
X022180Y024431D01*
X022180Y024589D02*
X024930Y024589D01*
X024930Y024748D02*
X022180Y024748D01*
X022180Y024906D02*
X024930Y024906D01*
X024930Y025065D02*
X022180Y025065D01*
X022180Y025223D02*
X024930Y025223D01*
X024930Y025382D02*
X022180Y025382D01*
X022180Y025540D02*
X024930Y025540D01*
X024930Y025699D02*
X022180Y025699D01*
X022180Y025857D02*
X024930Y025857D01*
X024930Y026016D02*
X022180Y026016D01*
X022180Y026174D02*
X024930Y026174D01*
X024777Y026333D02*
X022333Y026333D01*
X022491Y026491D02*
X024619Y026491D01*
X024460Y026650D02*
X022650Y026650D01*
X022808Y026808D02*
X024302Y026808D01*
X024143Y026967D02*
X022967Y026967D01*
X023125Y027125D02*
X023985Y027125D01*
X024479Y027396D02*
X026180Y027396D01*
X026930Y026430D02*
X027430Y026930D01*
X026930Y026430D02*
X026930Y024034D01*
X026304Y023863D02*
X026304Y025306D01*
X025930Y025680D01*
X025964Y025680D01*
X026180Y025464D01*
X027680Y025540D02*
X030430Y025540D01*
X030430Y025382D02*
X027680Y025382D01*
X027680Y025223D02*
X030430Y025223D01*
X030430Y025065D02*
X027680Y025065D01*
X027680Y024906D02*
X030430Y024906D01*
X030430Y024748D02*
X027680Y024748D01*
X027680Y024589D02*
X030430Y024589D01*
X030430Y024431D02*
X027680Y024431D01*
X027680Y024272D02*
X030430Y024272D01*
X030430Y024114D02*
X027680Y024114D01*
X027680Y023955D02*
X030430Y023955D01*
X030430Y023797D02*
X027680Y023797D01*
X027680Y023638D02*
X030430Y023638D01*
X030430Y023480D02*
X027680Y023480D01*
X027680Y023321D02*
X030430Y023321D01*
X030430Y023180D02*
X027680Y023180D01*
X027680Y026180D01*
X028680Y027180D01*
X029430Y027180D01*
X030430Y026180D01*
X030430Y023180D01*
X031056Y023863D02*
X031056Y021645D01*
X031180Y021771D01*
X032055Y022055D02*
X032055Y022680D01*
X031805Y022930D01*
X031363Y022930D01*
X031430Y022997D01*
X031804Y023863D02*
X032341Y023326D01*
X032430Y023326D01*
X033180Y023321D02*
X035930Y023321D01*
X035930Y023180D02*
X033180Y023180D01*
X033180Y026180D01*
X034180Y027180D01*
X034930Y027180D01*
X035930Y026180D01*
X035930Y023180D01*
X035930Y023480D02*
X033180Y023480D01*
X033180Y023638D02*
X035930Y023638D01*
X035930Y023797D02*
X033180Y023797D01*
X033180Y023955D02*
X035930Y023955D01*
X035930Y024114D02*
X033180Y024114D01*
X033180Y024272D02*
X035930Y024272D01*
X035930Y024431D02*
X033180Y024431D01*
X033180Y024589D02*
X035930Y024589D01*
X035930Y024748D02*
X033180Y024748D01*
X033180Y024906D02*
X035930Y024906D01*
X035930Y025065D02*
X033180Y025065D01*
X033180Y025223D02*
X035930Y025223D01*
X035930Y025382D02*
X033180Y025382D01*
X033180Y025540D02*
X035930Y025540D01*
X035930Y025699D02*
X033180Y025699D01*
X033180Y025857D02*
X035930Y025857D01*
X035930Y026016D02*
X033180Y026016D01*
X033180Y026174D02*
X035930Y026174D01*
X035777Y026333D02*
X033333Y026333D01*
X033491Y026491D02*
X035619Y026491D01*
X035460Y026650D02*
X033650Y026650D01*
X033808Y026808D02*
X035302Y026808D01*
X035143Y026967D02*
X033967Y026967D01*
X034125Y027125D02*
X034985Y027125D01*
X035479Y027396D02*
X037180Y027396D01*
X038180Y026930D02*
X038180Y026680D01*
X038305Y026555D01*
X039055Y026555D01*
X039055Y026430D01*
X039305Y026180D01*
X039305Y028305D01*
X039305Y029180D01*
X038430Y029180D01*
X039305Y029180D02*
X040180Y029180D01*
X038180Y026680D02*
X038180Y026430D01*
X038305Y026555D01*
X038180Y026430D02*
X037930Y026180D01*
X037930Y024034D01*
X037304Y023863D02*
X037304Y025340D01*
X037180Y025464D01*
X039305Y025055D02*
X039305Y026180D01*
X035479Y027396D02*
X034680Y026597D01*
X032930Y026930D02*
X032430Y026430D01*
X032430Y024034D01*
X031804Y023863D02*
X031804Y025340D01*
X031680Y025464D01*
X030430Y025699D02*
X027680Y025699D01*
X027680Y025857D02*
X030430Y025857D01*
X030430Y026016D02*
X027680Y026016D01*
X027680Y026174D02*
X030430Y026174D01*
X030277Y026333D02*
X027833Y026333D01*
X027991Y026491D02*
X030119Y026491D01*
X029960Y026650D02*
X028150Y026650D01*
X028308Y026808D02*
X029802Y026808D01*
X029643Y026967D02*
X028467Y026967D01*
X028625Y027125D02*
X029485Y027125D01*
X029979Y027396D02*
X031680Y027396D01*
X029979Y027396D02*
X029180Y026597D01*
X026304Y023863D02*
X026841Y023326D01*
X026930Y023326D01*
X026305Y022930D02*
X026555Y022680D01*
X026555Y022055D01*
X025680Y021771D02*
X025556Y021645D01*
X025556Y023863D01*
X025930Y022997D02*
X025997Y022930D01*
X026305Y022930D01*
X025680Y020589D02*
X025680Y018680D01*
X024805Y016930D02*
X024305Y016930D01*
X023930Y016930D01*
X023555Y016555D01*
X023555Y016245D01*
X023555Y016180D01*
X022805Y016180D01*
X022430Y015805D01*
X022430Y013805D01*
X022805Y013430D01*
X021430Y011680D02*
X021430Y009771D01*
X018180Y012430D02*
X035680Y012430D01*
X036180Y011930D01*
X036180Y011430D01*
X033930Y009180D01*
X015180Y009180D01*
X014680Y009680D01*
X014680Y011680D01*
X014030Y012330D01*
X011780Y012330D01*
X011180Y012930D01*
X011180Y018930D01*
X013430Y021180D01*
X033930Y021180D01*
X035930Y019180D01*
X035930Y018430D01*
X035430Y017930D01*
X016430Y017930D01*
X014930Y016430D01*
X014930Y015680D01*
X016408Y014202D01*
X016408Y014053D01*
X016502Y013959D01*
X016651Y013959D01*
X018180Y012430D01*
X018067Y012543D02*
X011567Y012543D01*
X011725Y012385D02*
X035725Y012385D01*
X035884Y012226D02*
X014134Y012226D01*
X014292Y012068D02*
X036042Y012068D01*
X036180Y011909D02*
X014451Y011909D01*
X014609Y011751D02*
X036180Y011751D01*
X036180Y011592D02*
X014680Y011592D01*
X010680Y011592D01*
X010680Y011434D02*
X014680Y011434D01*
X036180Y011434D01*
X036025Y011275D02*
X014680Y011275D01*
X010680Y011275D01*
X010680Y011117D02*
X014680Y011117D01*
X035867Y011117D01*
X035708Y010958D02*
X014680Y010958D01*
X010680Y010958D01*
X010680Y010800D02*
X014680Y010800D01*
X035550Y010800D01*
X035391Y010641D02*
X014680Y010641D01*
X010680Y010641D01*
X010680Y010483D02*
X013858Y010483D01*
X013699Y010324D02*
X010680Y010324D01*
X010680Y011751D02*
X014680Y011751D01*
X014680Y011909D02*
X010680Y011909D01*
X010680Y012068D02*
X014680Y012068D01*
X014680Y012226D02*
X010680Y012226D01*
X011250Y012860D02*
X017750Y012860D01*
X017908Y012702D02*
X011408Y012702D01*
X011180Y013019D02*
X017591Y013019D01*
X017433Y013177D02*
X011180Y013177D01*
X011180Y013336D02*
X017274Y013336D01*
X017116Y013494D02*
X011180Y013494D01*
X011180Y013653D02*
X016957Y013653D01*
X016799Y013811D02*
X011180Y013811D01*
X011180Y013970D02*
X016491Y013970D01*
X016408Y014128D02*
X011180Y014128D01*
X011180Y014287D02*
X016323Y014287D01*
X016165Y014445D02*
X011180Y014445D01*
X011180Y014604D02*
X016006Y014604D01*
X015848Y014762D02*
X011180Y014762D01*
X011180Y014921D02*
X015689Y014921D01*
X015531Y015079D02*
X011180Y015079D01*
X011180Y015238D02*
X015372Y015238D01*
X015214Y015396D02*
X011180Y015396D01*
X011180Y015555D02*
X015055Y015555D01*
X014930Y015713D02*
X011180Y015713D01*
X011180Y015872D02*
X014930Y015872D01*
X014930Y016030D02*
X011180Y016030D01*
X011180Y016189D02*
X014930Y016189D01*
X014930Y016347D02*
X011180Y016347D01*
X011180Y016506D02*
X015006Y016506D01*
X015164Y016664D02*
X011180Y016664D01*
X011180Y016823D02*
X015323Y016823D01*
X015481Y016981D02*
X011180Y016981D01*
X011180Y017140D02*
X015640Y017140D01*
X015798Y017298D02*
X011180Y017298D01*
X011180Y017457D02*
X015957Y017457D01*
X016115Y017615D02*
X011180Y017615D01*
X011180Y017774D02*
X016274Y017774D01*
X014680Y018680D02*
X014680Y020589D01*
X013352Y021102D02*
X034008Y021102D01*
X034166Y020944D02*
X013194Y020944D01*
X013035Y020785D02*
X034325Y020785D01*
X034483Y020627D02*
X012877Y020627D01*
X012718Y020468D02*
X034642Y020468D01*
X034800Y020310D02*
X012560Y020310D01*
X011926Y019676D02*
X035434Y019676D01*
X035593Y019517D02*
X011767Y019517D01*
X011609Y019359D02*
X035751Y019359D01*
X035910Y019200D02*
X011450Y019200D01*
X011292Y019042D02*
X035930Y019042D01*
X035930Y018883D02*
X011180Y018883D01*
X011180Y018725D02*
X035930Y018725D01*
X035930Y018566D02*
X011180Y018566D01*
X011180Y018408D02*
X035908Y018408D01*
X035749Y018249D02*
X011180Y018249D01*
X011180Y018091D02*
X035591Y018091D01*
X035432Y017932D02*
X011180Y017932D01*
X016555Y015055D02*
X016726Y014884D01*
X016726Y014680D01*
X016880Y014680D01*
X016730Y014830D01*
X016630Y014580D01*
X016726Y014680D02*
X016726Y014355D01*
X016780Y014530D02*
X016930Y014680D01*
X017115Y014865D01*
X017299Y014865D01*
X016930Y014680D02*
X016880Y014680D01*
X017434Y014355D02*
X017434Y013951D01*
X017680Y013705D01*
X017434Y014355D02*
X017555Y014476D01*
X017555Y015495D01*
X017305Y015501D02*
X017299Y015495D01*
X017305Y015501D02*
X017305Y015805D01*
X016930Y016180D01*
X017811Y015495D02*
X017811Y014865D01*
X017811Y015495D02*
X019870Y015495D01*
X019870Y015180D01*
X023490Y016180D02*
X023555Y016245D01*
X020180Y018680D02*
X020180Y020589D01*
X015555Y022055D02*
X015555Y022680D01*
X015305Y022930D01*
X014997Y022930D01*
X014930Y022997D01*
X015383Y023784D02*
X015930Y023326D01*
X014556Y023863D02*
X014556Y021645D01*
X014680Y021771D01*
X020804Y023863D02*
X020804Y025340D01*
X020680Y025464D01*
X019277Y026333D02*
X016833Y026333D01*
X016991Y026491D02*
X019119Y026491D01*
X018960Y026650D02*
X017150Y026650D01*
X017308Y026808D02*
X018802Y026808D01*
X018643Y026967D02*
X017467Y026967D01*
X017625Y027125D02*
X018485Y027125D01*
X019013Y027430D02*
X020680Y027430D01*
X020680Y027396D01*
X021430Y026430D02*
X021930Y026930D01*
X021430Y026430D02*
X021430Y024034D01*
X023680Y026597D02*
X024479Y027396D01*
X019013Y027430D02*
X018180Y026597D01*
X031180Y020589D02*
X031180Y018680D01*
X032870Y016180D02*
X032870Y015870D01*
X032680Y015680D01*
X031930Y015680D01*
X032870Y015180D02*
X033555Y015180D01*
X032870Y015180D02*
X030519Y015180D01*
X032430Y011680D02*
X032430Y009771D01*
X033965Y009215D02*
X015145Y009215D01*
X014987Y009373D02*
X034123Y009373D01*
X034282Y009532D02*
X014828Y009532D01*
X014680Y009690D02*
X034440Y009690D01*
X034599Y009849D02*
X014680Y009849D01*
X014680Y010007D02*
X034757Y010007D01*
X034916Y010166D02*
X014680Y010166D01*
X014680Y010324D02*
X014661Y010324D01*
X014680Y010324D02*
X035074Y010324D01*
X035233Y010483D02*
X014680Y010483D01*
X014502Y010483D01*
X016054Y008715D02*
X015930Y008589D01*
X016054Y008715D02*
X016054Y006497D01*
X015306Y006497D02*
X015217Y006497D01*
X014680Y007034D01*
X015305Y007430D02*
X015055Y007680D01*
X015305Y007430D02*
X015613Y007430D01*
X015680Y007363D01*
X015306Y006497D02*
X015306Y005020D01*
X015430Y004896D01*
X014680Y005430D02*
X014180Y004930D01*
X014680Y005430D02*
X014680Y006326D01*
X004668Y003192D02*
X001168Y003192D01*
X001010Y003350D02*
X004510Y003350D01*
X004351Y003509D02*
X000851Y003509D01*
X000740Y003667D02*
X004193Y003667D01*
X004034Y003826D02*
X000740Y003826D01*
X000740Y003984D02*
X003876Y003984D01*
X003717Y004143D02*
X000740Y004143D01*
X000740Y004301D02*
X003559Y004301D01*
X003400Y004460D02*
X000740Y004460D01*
X000740Y004618D02*
X003242Y004618D01*
X003180Y004777D02*
X000740Y004777D01*
X000740Y004935D02*
X003180Y004935D01*
X003180Y005094D02*
X000740Y005094D01*
X000740Y005252D02*
X003180Y005252D01*
X003180Y005411D02*
X000740Y005411D01*
X000740Y005569D02*
X003180Y005569D01*
X003180Y005728D02*
X000740Y005728D01*
X000740Y005886D02*
X003180Y005886D01*
X003180Y006045D02*
X000740Y006045D01*
X000740Y006203D02*
X003180Y006203D01*
X003180Y006362D02*
X000740Y006362D01*
X000740Y006520D02*
X003180Y006520D01*
X003180Y006679D02*
X000740Y006679D01*
X000740Y006837D02*
X003180Y006837D01*
X003180Y006996D02*
X000740Y006996D01*
X000740Y007154D02*
X003180Y007154D01*
X003180Y007313D02*
X000740Y007313D01*
X000740Y007471D02*
X003180Y007471D01*
X003180Y007630D02*
X000740Y007630D01*
X000740Y007788D02*
X003180Y007788D01*
X003180Y007947D02*
X000740Y007947D01*
X000740Y008105D02*
X003180Y008105D01*
X003180Y008264D02*
X000740Y008264D01*
X000740Y008422D02*
X003180Y008422D01*
X003180Y008581D02*
X000740Y008581D01*
X000740Y008739D02*
X003180Y008739D01*
X003180Y008898D02*
X000740Y008898D01*
X000740Y009056D02*
X003180Y009056D01*
X003180Y009215D02*
X000740Y009215D01*
X000740Y009373D02*
X003180Y009373D01*
X003180Y009532D02*
X000740Y009532D01*
X000740Y009690D02*
X003180Y009690D01*
X003180Y009849D02*
X000740Y009849D01*
X000740Y010007D02*
X003180Y010007D01*
X003180Y010166D02*
X000740Y010166D01*
X000740Y010324D02*
X003180Y010324D01*
X003180Y010483D02*
X000740Y010483D01*
X000740Y010641D02*
X003180Y010641D01*
X003180Y010800D02*
X000740Y010800D01*
X000740Y010958D02*
X003180Y010958D01*
X003180Y011117D02*
X000740Y011117D01*
X000740Y011275D02*
X003180Y011275D01*
X003180Y011434D02*
X000740Y011434D01*
X000740Y011592D02*
X003180Y011592D01*
X003180Y011751D02*
X000740Y011751D01*
X000740Y011909D02*
X003180Y011909D01*
X003180Y012068D02*
X000740Y012068D01*
X000740Y012226D02*
X003180Y012226D01*
X003180Y012385D02*
X000740Y012385D01*
X000740Y012543D02*
X003180Y012543D01*
X003180Y012702D02*
X000740Y012702D01*
X000740Y012860D02*
X003180Y012860D01*
X003180Y013019D02*
X000740Y013019D01*
X000740Y013177D02*
X003180Y013177D01*
X003336Y013336D02*
X000740Y013336D01*
X000740Y013494D02*
X003494Y013494D01*
X003653Y013653D02*
X000740Y013653D01*
X000740Y013811D02*
X003811Y013811D01*
X003970Y013970D02*
X000740Y013970D01*
X000740Y014128D02*
X004128Y014128D01*
X004680Y012805D02*
X004680Y009784D01*
X007656Y012930D02*
X008180Y012930D01*
X008305Y012805D01*
X025680Y007034D02*
X026217Y006497D01*
X026306Y006497D01*
X026306Y005020D01*
X026430Y004896D01*
X025680Y004055D02*
X025680Y006326D01*
X027054Y006497D02*
X027054Y008431D01*
X026930Y008555D01*
X026930Y008589D01*
X026055Y007680D02*
X026305Y007430D01*
X026613Y007430D01*
X026680Y007363D01*
X026930Y009771D02*
X026930Y011680D01*
X042089Y020589D02*
X042180Y020589D01*
X040055Y022055D02*
X039430Y022680D01*
X037555Y022680D01*
X036930Y022555D02*
X036930Y022939D01*
X036988Y022997D01*
X036930Y022997D01*
X036930Y022555D02*
X037430Y022055D01*
X037555Y022055D01*
X036680Y021771D02*
X036556Y021645D01*
X036556Y023863D01*
X037304Y023863D02*
X037841Y023326D01*
X037930Y023326D01*
X045555Y023930D02*
X046205Y023930D01*
X047055Y016659D02*
X047916Y016659D01*
X047930Y016646D01*
D11*
X018118Y015180D03*
D12*
X038305Y015180D03*
D13*
X041306Y015872D03*
X042054Y015872D03*
X041680Y016738D03*
X045056Y015872D03*
X045804Y015872D03*
X045430Y016738D03*
X042430Y022997D03*
X042056Y023863D03*
X042804Y023863D03*
X047431Y023988D03*
X048179Y023988D03*
X047805Y023122D03*
X037304Y023863D03*
X036556Y023863D03*
X036930Y022997D03*
X031804Y023863D03*
X031056Y023863D03*
X031430Y022997D03*
X026304Y023863D03*
X025556Y023863D03*
X025930Y022997D03*
X020804Y023863D03*
X020056Y023863D03*
X020430Y022997D03*
X015304Y023863D03*
X014556Y023863D03*
X014930Y022997D03*
X015680Y007363D03*
X015306Y006497D03*
X016054Y006497D03*
X020806Y006497D03*
X021554Y006497D03*
X021180Y007363D03*
X026306Y006497D03*
X027054Y006497D03*
X026680Y007363D03*
X031806Y006497D03*
X032554Y006497D03*
X032180Y007363D03*
D14*
X031180Y007034D03*
X031180Y006326D03*
X025680Y006326D03*
X025680Y007034D03*
X020180Y007034D03*
X020180Y006326D03*
X014680Y006326D03*
X014680Y007034D03*
X005805Y012451D03*
X005805Y013159D03*
X004680Y009784D03*
X004680Y009076D03*
X015930Y023326D03*
X015930Y024034D03*
X021430Y024034D03*
X021430Y023326D03*
X026930Y023326D03*
X026930Y024034D03*
X032430Y024034D03*
X032430Y023326D03*
X037930Y023326D03*
X037930Y024034D03*
X043430Y024034D03*
X043430Y023326D03*
X047805Y019159D03*
X047805Y018451D03*
X047055Y016659D03*
X046430Y016659D03*
X046430Y015951D03*
X047055Y015951D03*
X043305Y015951D03*
X042680Y015951D03*
X042680Y016659D03*
X043305Y016659D03*
X006055Y027326D03*
X005430Y027326D03*
X005430Y028034D03*
X006055Y028034D03*
X005930Y028576D03*
X005930Y029284D03*
X004430Y029159D03*
X004430Y028451D03*
X004930Y024834D03*
X004930Y024126D03*
D15*
X003534Y024180D03*
X003534Y024830D03*
X003534Y025480D03*
X002826Y025480D03*
X002826Y024830D03*
X002826Y024180D03*
X002951Y023430D03*
X003659Y023430D03*
X003659Y022680D03*
X002951Y022680D03*
X002951Y021930D03*
X003659Y021930D03*
X003534Y021180D03*
X002826Y021180D03*
X002826Y020430D03*
X003534Y020430D03*
X007201Y021430D03*
X007909Y021430D03*
X007409Y024180D03*
X006701Y024180D03*
X003684Y028680D03*
X002976Y028680D03*
X002976Y029430D03*
X003684Y029430D03*
X016726Y014355D03*
X017434Y014355D03*
X038626Y016180D03*
X039334Y016180D03*
X039659Y016805D03*
X038951Y016805D03*
D16*
X037180Y025464D03*
X037180Y027396D03*
X031680Y027396D03*
X031680Y025464D03*
X026180Y025464D03*
X026180Y027396D03*
X020680Y027396D03*
X020680Y025464D03*
X015180Y025464D03*
X015180Y027396D03*
X042680Y027396D03*
X042680Y025464D03*
X047680Y025464D03*
X047680Y027396D03*
X031930Y004896D03*
X031930Y002964D03*
X026430Y002964D03*
X026430Y004896D03*
X020930Y004896D03*
X020930Y002964D03*
X015430Y002964D03*
X015430Y004896D03*
D17*
X015930Y008589D03*
X015930Y009771D03*
X021430Y009771D03*
X021430Y008589D03*
X026930Y008589D03*
X026930Y009771D03*
X032430Y009771D03*
X032430Y008589D03*
X040555Y015589D03*
X040555Y016771D03*
X044180Y016646D03*
X044180Y015464D03*
X047930Y015464D03*
X047930Y016646D03*
X047680Y020589D03*
X047680Y021771D03*
X042180Y021771D03*
X042180Y020589D03*
X036680Y020589D03*
X036680Y021771D03*
X031180Y021771D03*
X031180Y020589D03*
X025680Y020589D03*
X025680Y021771D03*
X020180Y021771D03*
X020180Y020589D03*
X014680Y020589D03*
X014680Y021771D03*
D18*
X023490Y016180D03*
X023490Y015180D03*
X023490Y014180D03*
X032870Y014180D03*
X032870Y015180D03*
X032870Y016180D03*
D19*
X036490Y015180D03*
X019870Y015180D03*
D20*
X009704Y012930D03*
X009704Y012430D03*
X009704Y011930D03*
X009704Y011430D03*
X007656Y011430D03*
X007656Y011930D03*
X007656Y012430D03*
X007656Y012930D03*
X004254Y026130D03*
X004254Y026630D03*
X004254Y027130D03*
X004254Y027630D03*
X002206Y027630D03*
X002206Y027130D03*
X002206Y026630D03*
X002206Y026130D03*
D21*
X011780Y023980D03*
X013180Y023980D03*
X017280Y023980D03*
X018680Y023980D03*
X022780Y023980D03*
X024180Y023980D03*
X028280Y023980D03*
X029680Y023980D03*
X033780Y023980D03*
X035180Y023980D03*
X039305Y023930D03*
X040705Y023930D03*
X044805Y023930D03*
X046205Y023930D03*
X046205Y018630D03*
X044805Y018630D03*
X040705Y018630D03*
X039305Y018630D03*
X035180Y018680D03*
X033780Y018680D03*
X029680Y018680D03*
X028280Y018680D03*
X024180Y018680D03*
X022780Y018680D03*
X018680Y018680D03*
X017280Y018680D03*
X013180Y018680D03*
X011780Y018680D03*
X017430Y011680D03*
X018830Y011680D03*
X022930Y011680D03*
X024330Y011680D03*
X028430Y011680D03*
X029830Y011680D03*
X033930Y011680D03*
X035330Y011680D03*
X035330Y006380D03*
X033930Y006380D03*
X029830Y006380D03*
X028430Y006380D03*
X024330Y006380D03*
X022930Y006380D03*
X018830Y006380D03*
X017430Y006380D03*
D22*
X017930Y003763D03*
X017930Y001597D03*
X023430Y001597D03*
X023430Y003763D03*
X028930Y003763D03*
X028930Y001597D03*
X034430Y001597D03*
X034430Y003763D03*
X034680Y026597D03*
X034680Y028763D03*
X029180Y028763D03*
X029180Y026597D03*
X023680Y026597D03*
X023680Y028763D03*
X018180Y028763D03*
X018180Y026597D03*
X012680Y026597D03*
X012680Y028763D03*
X045680Y028763D03*
X045680Y026597D03*
D23*
X030519Y015682D02*
X030519Y014678D01*
X028960Y014678D02*
X028960Y015682D01*
X027400Y015682D02*
X027400Y014678D01*
X025841Y014678D02*
X025841Y015682D01*
D24*
X007710Y022055D03*
X007710Y022555D03*
X007710Y023055D03*
X007710Y023555D03*
X005650Y023555D03*
X005650Y023055D03*
X005650Y022555D03*
X005650Y022055D03*
D25*
X040180Y008430D03*
D26*
X044180Y008430D03*
D27*
X039186Y014865D03*
X038930Y014865D03*
X038674Y014865D03*
X038674Y015495D03*
X039186Y015495D03*
X017811Y015495D03*
X017555Y015495D03*
X017299Y015495D03*
X017299Y014865D03*
X017811Y014865D03*
D28*
X039305Y025055D03*
X045305Y025055D03*
X045305Y002055D03*
X042305Y002055D03*
X039305Y002055D03*
D29*
X007930Y025180D03*
X006930Y025180D03*
X006930Y026180D03*
X007930Y026180D03*
X007930Y027180D03*
X006930Y027180D03*
X006930Y028180D03*
X007930Y028180D03*
X007930Y029180D03*
X006930Y029180D03*
D30*
X000905Y028930D02*
X000907Y028980D01*
X000913Y029030D01*
X000923Y029080D01*
X000936Y029128D01*
X000953Y029176D01*
X000974Y029222D01*
X000998Y029266D01*
X001026Y029308D01*
X001057Y029348D01*
X001091Y029385D01*
X001128Y029420D01*
X001167Y029451D01*
X001208Y029480D01*
X001252Y029505D01*
X001298Y029527D01*
X001345Y029545D01*
X001393Y029559D01*
X001442Y029570D01*
X001492Y029577D01*
X001542Y029580D01*
X001593Y029579D01*
X001643Y029574D01*
X001693Y029565D01*
X001741Y029553D01*
X001789Y029536D01*
X001835Y029516D01*
X001880Y029493D01*
X001923Y029466D01*
X001963Y029436D01*
X002001Y029403D01*
X002036Y029367D01*
X002069Y029328D01*
X002098Y029287D01*
X002124Y029244D01*
X002147Y029199D01*
X002166Y029152D01*
X002181Y029104D01*
X002193Y029055D01*
X002201Y029005D01*
X002205Y028955D01*
X002205Y028905D01*
X002201Y028855D01*
X002193Y028805D01*
X002181Y028756D01*
X002166Y028708D01*
X002147Y028661D01*
X002124Y028616D01*
X002098Y028573D01*
X002069Y028532D01*
X002036Y028493D01*
X002001Y028457D01*
X001963Y028424D01*
X001923Y028394D01*
X001880Y028367D01*
X001835Y028344D01*
X001789Y028324D01*
X001741Y028307D01*
X001693Y028295D01*
X001643Y028286D01*
X001593Y028281D01*
X001542Y028280D01*
X001492Y028283D01*
X001442Y028290D01*
X001393Y028301D01*
X001345Y028315D01*
X001298Y028333D01*
X001252Y028355D01*
X001208Y028380D01*
X001167Y028409D01*
X001128Y028440D01*
X001091Y028475D01*
X001057Y028512D01*
X001026Y028552D01*
X000998Y028594D01*
X000974Y028638D01*
X000953Y028684D01*
X000936Y028732D01*
X000923Y028780D01*
X000913Y028830D01*
X000907Y028880D01*
X000905Y028930D01*
X000905Y001430D02*
X000907Y001480D01*
X000913Y001530D01*
X000923Y001580D01*
X000936Y001628D01*
X000953Y001676D01*
X000974Y001722D01*
X000998Y001766D01*
X001026Y001808D01*
X001057Y001848D01*
X001091Y001885D01*
X001128Y001920D01*
X001167Y001951D01*
X001208Y001980D01*
X001252Y002005D01*
X001298Y002027D01*
X001345Y002045D01*
X001393Y002059D01*
X001442Y002070D01*
X001492Y002077D01*
X001542Y002080D01*
X001593Y002079D01*
X001643Y002074D01*
X001693Y002065D01*
X001741Y002053D01*
X001789Y002036D01*
X001835Y002016D01*
X001880Y001993D01*
X001923Y001966D01*
X001963Y001936D01*
X002001Y001903D01*
X002036Y001867D01*
X002069Y001828D01*
X002098Y001787D01*
X002124Y001744D01*
X002147Y001699D01*
X002166Y001652D01*
X002181Y001604D01*
X002193Y001555D01*
X002201Y001505D01*
X002205Y001455D01*
X002205Y001405D01*
X002201Y001355D01*
X002193Y001305D01*
X002181Y001256D01*
X002166Y001208D01*
X002147Y001161D01*
X002124Y001116D01*
X002098Y001073D01*
X002069Y001032D01*
X002036Y000993D01*
X002001Y000957D01*
X001963Y000924D01*
X001923Y000894D01*
X001880Y000867D01*
X001835Y000844D01*
X001789Y000824D01*
X001741Y000807D01*
X001693Y000795D01*
X001643Y000786D01*
X001593Y000781D01*
X001542Y000780D01*
X001492Y000783D01*
X001442Y000790D01*
X001393Y000801D01*
X001345Y000815D01*
X001298Y000833D01*
X001252Y000855D01*
X001208Y000880D01*
X001167Y000909D01*
X001128Y000940D01*
X001091Y000975D01*
X001057Y001012D01*
X001026Y001052D01*
X000998Y001094D01*
X000974Y001138D01*
X000953Y001184D01*
X000936Y001232D01*
X000923Y001280D01*
X000913Y001330D01*
X000907Y001380D01*
X000905Y001430D01*
X047155Y001430D02*
X047157Y001480D01*
X047163Y001530D01*
X047173Y001580D01*
X047186Y001628D01*
X047203Y001676D01*
X047224Y001722D01*
X047248Y001766D01*
X047276Y001808D01*
X047307Y001848D01*
X047341Y001885D01*
X047378Y001920D01*
X047417Y001951D01*
X047458Y001980D01*
X047502Y002005D01*
X047548Y002027D01*
X047595Y002045D01*
X047643Y002059D01*
X047692Y002070D01*
X047742Y002077D01*
X047792Y002080D01*
X047843Y002079D01*
X047893Y002074D01*
X047943Y002065D01*
X047991Y002053D01*
X048039Y002036D01*
X048085Y002016D01*
X048130Y001993D01*
X048173Y001966D01*
X048213Y001936D01*
X048251Y001903D01*
X048286Y001867D01*
X048319Y001828D01*
X048348Y001787D01*
X048374Y001744D01*
X048397Y001699D01*
X048416Y001652D01*
X048431Y001604D01*
X048443Y001555D01*
X048451Y001505D01*
X048455Y001455D01*
X048455Y001405D01*
X048451Y001355D01*
X048443Y001305D01*
X048431Y001256D01*
X048416Y001208D01*
X048397Y001161D01*
X048374Y001116D01*
X048348Y001073D01*
X048319Y001032D01*
X048286Y000993D01*
X048251Y000957D01*
X048213Y000924D01*
X048173Y000894D01*
X048130Y000867D01*
X048085Y000844D01*
X048039Y000824D01*
X047991Y000807D01*
X047943Y000795D01*
X047893Y000786D01*
X047843Y000781D01*
X047792Y000780D01*
X047742Y000783D01*
X047692Y000790D01*
X047643Y000801D01*
X047595Y000815D01*
X047548Y000833D01*
X047502Y000855D01*
X047458Y000880D01*
X047417Y000909D01*
X047378Y000940D01*
X047341Y000975D01*
X047307Y001012D01*
X047276Y001052D01*
X047248Y001094D01*
X047224Y001138D01*
X047203Y001184D01*
X047186Y001232D01*
X047173Y001280D01*
X047163Y001330D01*
X047157Y001380D01*
X047155Y001430D01*
X047155Y028930D02*
X047157Y028980D01*
X047163Y029030D01*
X047173Y029080D01*
X047186Y029128D01*
X047203Y029176D01*
X047224Y029222D01*
X047248Y029266D01*
X047276Y029308D01*
X047307Y029348D01*
X047341Y029385D01*
X047378Y029420D01*
X047417Y029451D01*
X047458Y029480D01*
X047502Y029505D01*
X047548Y029527D01*
X047595Y029545D01*
X047643Y029559D01*
X047692Y029570D01*
X047742Y029577D01*
X047792Y029580D01*
X047843Y029579D01*
X047893Y029574D01*
X047943Y029565D01*
X047991Y029553D01*
X048039Y029536D01*
X048085Y029516D01*
X048130Y029493D01*
X048173Y029466D01*
X048213Y029436D01*
X048251Y029403D01*
X048286Y029367D01*
X048319Y029328D01*
X048348Y029287D01*
X048374Y029244D01*
X048397Y029199D01*
X048416Y029152D01*
X048431Y029104D01*
X048443Y029055D01*
X048451Y029005D01*
X048455Y028955D01*
X048455Y028905D01*
X048451Y028855D01*
X048443Y028805D01*
X048431Y028756D01*
X048416Y028708D01*
X048397Y028661D01*
X048374Y028616D01*
X048348Y028573D01*
X048319Y028532D01*
X048286Y028493D01*
X048251Y028457D01*
X048213Y028424D01*
X048173Y028394D01*
X048130Y028367D01*
X048085Y028344D01*
X048039Y028324D01*
X047991Y028307D01*
X047943Y028295D01*
X047893Y028286D01*
X047843Y028281D01*
X047792Y028280D01*
X047742Y028283D01*
X047692Y028290D01*
X047643Y028301D01*
X047595Y028315D01*
X047548Y028333D01*
X047502Y028355D01*
X047458Y028380D01*
X047417Y028409D01*
X047378Y028440D01*
X047341Y028475D01*
X047307Y028512D01*
X047276Y028552D01*
X047248Y028594D01*
X047224Y028638D01*
X047203Y028684D01*
X047186Y028732D01*
X047173Y028780D01*
X047163Y028830D01*
X047157Y028880D01*
X047155Y028930D01*
D31*
X010930Y008093D02*
X010930Y007267D01*
X009680Y007267D02*
X009680Y008093D01*
X008430Y008093D02*
X008430Y007267D01*
X007180Y007267D02*
X007180Y008093D01*
X005930Y008093D02*
X005930Y007267D01*
X005930Y005593D02*
X005930Y004767D01*
X007180Y004767D02*
X007180Y005593D01*
X008430Y005593D02*
X008430Y004767D01*
X009680Y004767D02*
X009680Y005593D01*
X010930Y005593D02*
X010930Y004767D01*
X010055Y016517D02*
X010055Y017343D01*
X008805Y017343D02*
X008805Y016517D01*
X007555Y016517D02*
X007555Y017343D01*
X006305Y017343D02*
X006305Y016517D01*
X005055Y016517D02*
X005055Y017343D01*
X005055Y019017D02*
X005055Y019843D01*
X006305Y019843D02*
X006305Y019017D01*
X007555Y019017D02*
X007555Y019843D01*
X008805Y019843D02*
X008805Y019017D01*
X010055Y019017D02*
X010055Y019843D01*
D32*
X011305Y020555D03*
X012055Y020555D03*
X011305Y022055D03*
X012055Y022555D03*
X008555Y022555D03*
X008430Y022055D03*
X008430Y021180D03*
X006430Y022055D03*
X004055Y021305D03*
X004055Y020680D03*
X002430Y022680D03*
X001055Y024180D03*
X004205Y024705D03*
X005680Y025305D03*
X006180Y025055D03*
X005305Y026680D03*
X003180Y026430D03*
X005255Y028980D03*
X005005Y029555D03*
X007430Y028680D03*
X009180Y029305D03*
X016430Y026930D03*
X021930Y026930D03*
X027430Y026930D03*
X032930Y026930D03*
X038180Y026930D03*
X043805Y026555D03*
X046680Y022680D03*
X043180Y022430D03*
X041055Y021930D03*
X040055Y022055D03*
X040305Y020805D03*
X039555Y020180D03*
X038305Y020805D03*
X037555Y020180D03*
X037555Y021555D03*
X037555Y022055D03*
X037555Y022680D03*
X032055Y022055D03*
X026555Y022055D03*
X021055Y022055D03*
X015555Y022055D03*
X024305Y016930D03*
X024805Y016930D03*
X024430Y014680D03*
X017680Y013705D03*
X016555Y015055D03*
X016930Y016180D03*
X006305Y011930D03*
X004680Y012805D03*
X005430Y009430D03*
X005180Y007430D03*
X014180Y004930D03*
X015055Y007680D03*
X020555Y007680D03*
X026055Y007680D03*
X031555Y007680D03*
X030680Y003555D03*
X025180Y003555D03*
X019680Y003555D03*
X038680Y013930D03*
X039805Y015180D03*
X039830Y016205D03*
X042930Y017180D03*
X043380Y017980D03*
X047180Y018180D03*
X047180Y014805D03*
X031930Y015680D03*
X031930Y015680D03*
D33*
X035330Y011680D02*
X036805Y011680D01*
X036930Y011680D01*
X040180Y008430D01*
X045305Y003305D01*
X045305Y002055D01*
X042305Y002055D02*
X039305Y002055D01*
X038430Y001180D01*
X034555Y001180D01*
M02*
