G75*
G70*
%OFA0B0*%
%FSLAX24Y24*%
%IPPOS*%
%LPD*%
%AMOC8*
5,1,8,0,0,1.08239X$1,22.5*
%
%ADD10C,0.0080*%
%ADD11C,0.0060*%
%ADD12C,0.0040*%
%ADD13C,0.0030*%
%ADD14C,0.0100*%
%ADD15R,0.0500X0.2000*%
%ADD16C,0.0050*%
D10*
X015036Y003677D02*
X015824Y003677D01*
X015430Y004217D01*
X015036Y003677D01*
X015036Y004217D02*
X015824Y004217D01*
X016867Y004649D02*
X016867Y000869D01*
X018993Y000869D01*
X018993Y004649D01*
X016867Y004649D01*
X020536Y004217D02*
X021324Y004217D01*
X020930Y004217D02*
X021324Y003677D01*
X020536Y003677D01*
X020930Y004217D01*
X022367Y004649D02*
X022367Y000869D01*
X024493Y000869D01*
X024493Y004649D01*
X022367Y004649D01*
X026036Y004217D02*
X026824Y004217D01*
X026430Y004217D02*
X026824Y003677D01*
X026036Y003677D01*
X026430Y004217D01*
X027867Y004649D02*
X027867Y000869D01*
X029993Y000869D01*
X029993Y004649D01*
X027867Y004649D01*
X031536Y004217D02*
X032324Y004217D01*
X031930Y004217D02*
X031536Y003677D01*
X032324Y003677D01*
X031930Y004217D01*
X033367Y004649D02*
X033367Y000869D01*
X035493Y000869D01*
X035493Y004649D01*
X033367Y004649D01*
X032824Y008235D02*
X032036Y008235D01*
X032036Y008786D01*
X032154Y009062D02*
X032430Y009062D01*
X032194Y009298D01*
X032666Y009298D01*
X032430Y009062D01*
X032706Y009062D01*
X032824Y008786D02*
X032824Y008235D01*
X032824Y009574D02*
X032824Y010125D01*
X032036Y010125D01*
X032036Y009574D01*
X027324Y009574D02*
X027324Y010125D01*
X026536Y010125D01*
X026536Y009574D01*
X026694Y009298D02*
X026930Y009062D01*
X027166Y009298D01*
X026694Y009298D01*
X026654Y009062D02*
X026930Y009062D01*
X027206Y009062D01*
X027324Y008786D02*
X027324Y008235D01*
X026536Y008235D01*
X026536Y008786D01*
X021824Y008786D02*
X021824Y008235D01*
X021036Y008235D01*
X021036Y008786D01*
X021154Y009062D02*
X021430Y009062D01*
X021194Y009298D01*
X021666Y009298D01*
X021430Y009062D01*
X021706Y009062D01*
X021824Y009574D02*
X021824Y010125D01*
X021036Y010125D01*
X021036Y009574D01*
X016324Y009574D02*
X016324Y010125D01*
X015536Y010125D01*
X015536Y009574D01*
X015694Y009298D02*
X015930Y009062D01*
X016166Y009298D01*
X015694Y009298D01*
X015654Y009062D02*
X015930Y009062D01*
X016206Y009062D01*
X016324Y008786D02*
X016324Y008235D01*
X015536Y008235D01*
X015536Y008786D01*
X025131Y013280D02*
X031239Y013280D01*
X031239Y017129D01*
X030530Y017129D01*
X030530Y016174D01*
X025839Y016174D01*
X025839Y017129D01*
X025131Y017129D01*
X025131Y013280D01*
X025839Y017129D02*
X030530Y017129D01*
X030786Y020235D02*
X031574Y020235D01*
X031574Y020786D01*
X031416Y021062D02*
X031180Y021298D01*
X030944Y021062D01*
X031416Y021062D01*
X031456Y021298D02*
X031180Y021298D01*
X030904Y021298D01*
X030786Y021574D02*
X030786Y022125D01*
X031574Y022125D01*
X031574Y021574D01*
X030786Y020786D02*
X030786Y020235D01*
X026074Y020235D02*
X026074Y020786D01*
X025916Y021062D02*
X025444Y021062D01*
X025680Y021298D01*
X025916Y021062D01*
X025956Y021298D02*
X025680Y021298D01*
X025404Y021298D01*
X025286Y021574D02*
X025286Y022125D01*
X026074Y022125D01*
X026074Y021574D01*
X025286Y020786D02*
X025286Y020235D01*
X026074Y020235D01*
X020574Y020235D02*
X020574Y020786D01*
X020416Y021062D02*
X019944Y021062D01*
X020180Y021298D01*
X020416Y021062D01*
X020456Y021298D02*
X020180Y021298D01*
X019904Y021298D01*
X019786Y021574D02*
X019786Y022125D01*
X020574Y022125D01*
X020574Y021574D01*
X019786Y020786D02*
X019786Y020235D01*
X020574Y020235D01*
X015074Y020235D02*
X015074Y020786D01*
X014916Y021062D02*
X014444Y021062D01*
X014680Y021298D01*
X014916Y021062D01*
X014956Y021298D02*
X014680Y021298D01*
X014404Y021298D01*
X014286Y021574D02*
X014286Y022125D01*
X015074Y022125D01*
X015074Y021574D01*
X014286Y020786D02*
X014286Y020235D01*
X015074Y020235D01*
X017161Y015397D02*
X017161Y014963D01*
X017949Y014963D02*
X017949Y015397D01*
X006233Y023515D02*
X006235Y023530D01*
X006241Y023543D01*
X006250Y023555D01*
X006261Y023564D01*
X006275Y023570D01*
X006290Y023572D01*
X006305Y023570D01*
X006318Y023564D01*
X006330Y023555D01*
X006339Y023544D01*
X006345Y023530D01*
X006347Y023515D01*
X006345Y023500D01*
X006339Y023487D01*
X006330Y023475D01*
X006319Y023466D01*
X006305Y023460D01*
X006290Y023458D01*
X006275Y023460D01*
X006262Y023466D01*
X006250Y023475D01*
X006241Y023486D01*
X006235Y023500D01*
X006233Y023515D01*
X011617Y025711D02*
X013743Y025711D01*
X013743Y029491D01*
X011617Y029491D01*
X011617Y025711D01*
X014786Y026143D02*
X015574Y026143D01*
X015180Y026143D02*
X014786Y026683D01*
X015574Y026683D01*
X015180Y026143D01*
X017117Y025711D02*
X019243Y025711D01*
X019243Y029491D01*
X017117Y029491D01*
X017117Y025711D01*
X020286Y026143D02*
X021074Y026143D01*
X020680Y026143D02*
X021074Y026683D01*
X020286Y026683D01*
X020680Y026143D01*
X022617Y025711D02*
X024743Y025711D01*
X024743Y029491D01*
X022617Y029491D01*
X022617Y025711D01*
X025786Y026143D02*
X026574Y026143D01*
X026180Y026143D02*
X026574Y026683D01*
X025786Y026683D01*
X026180Y026143D01*
X028117Y025711D02*
X030243Y025711D01*
X030243Y029491D01*
X028117Y029491D01*
X028117Y025711D01*
X031286Y026143D02*
X032074Y026143D01*
X031680Y026143D02*
X032074Y026683D01*
X031286Y026683D01*
X031680Y026143D01*
X033617Y025711D02*
X035743Y025711D01*
X035743Y029491D01*
X033617Y029491D01*
X033617Y025711D01*
X036786Y026143D02*
X037574Y026143D01*
X037180Y026143D02*
X037574Y026683D01*
X036786Y026683D01*
X037180Y026143D01*
X042286Y026143D02*
X043074Y026143D01*
X042680Y026143D02*
X043074Y026683D01*
X042286Y026683D01*
X042680Y026143D01*
X044617Y025711D02*
X046743Y025711D01*
X046743Y029491D01*
X044617Y029491D01*
X044617Y025711D01*
X047286Y026143D02*
X048074Y026143D01*
X047680Y026143D02*
X047286Y026683D01*
X048074Y026683D01*
X047680Y026143D01*
X044390Y029026D02*
X044083Y028719D01*
X044083Y029640D01*
X044390Y029640D02*
X043776Y029640D01*
X043469Y029640D02*
X042855Y029026D01*
X042855Y028873D01*
X043009Y028719D01*
X043316Y028719D01*
X043469Y028873D01*
X043469Y029640D02*
X042855Y029640D01*
X042548Y029333D02*
X042241Y029640D01*
X041935Y029333D01*
X041935Y028719D01*
X042548Y028719D02*
X042548Y029333D01*
X042574Y022125D02*
X041786Y022125D01*
X041786Y021574D01*
X041904Y021298D02*
X042180Y021298D01*
X042416Y021062D01*
X041944Y021062D01*
X042180Y021298D01*
X042456Y021298D01*
X042574Y021574D02*
X042574Y022125D01*
X042574Y020786D02*
X042574Y020235D01*
X041786Y020235D01*
X041786Y020786D01*
X037074Y020786D02*
X037074Y020235D01*
X036286Y020235D01*
X036286Y020786D01*
X036444Y021062D02*
X036916Y021062D01*
X036680Y021298D01*
X036444Y021062D01*
X036404Y021298D02*
X036680Y021298D01*
X036956Y021298D01*
X037074Y021574D02*
X037074Y022125D01*
X036286Y022125D01*
X036286Y021574D01*
X040161Y017125D02*
X040161Y016574D01*
X040319Y016298D02*
X040555Y016062D01*
X040791Y016298D01*
X040319Y016298D01*
X040279Y016062D02*
X040555Y016062D01*
X040831Y016062D01*
X040949Y015786D02*
X040949Y015235D01*
X040161Y015235D01*
X040161Y015786D01*
X039324Y015397D02*
X039324Y014963D01*
X038536Y014963D02*
X038536Y015397D01*
X040949Y016574D02*
X040949Y017125D01*
X040161Y017125D01*
X043786Y017000D02*
X043786Y016449D01*
X043944Y016173D02*
X044180Y015937D01*
X044416Y016173D01*
X043944Y016173D01*
X043904Y015937D02*
X044180Y015937D01*
X044456Y015937D01*
X044574Y015661D02*
X044574Y015110D01*
X043786Y015110D01*
X043786Y015661D01*
X044574Y016449D02*
X044574Y017000D01*
X043786Y017000D01*
X047536Y017000D02*
X047536Y016449D01*
X047694Y016173D02*
X047930Y015937D01*
X048166Y016173D01*
X047694Y016173D01*
X047654Y015937D02*
X047930Y015937D01*
X048206Y015937D01*
X048324Y015661D02*
X048324Y015110D01*
X047536Y015110D01*
X047536Y015661D01*
X048324Y016449D02*
X048324Y017000D01*
X047536Y017000D01*
X047286Y020235D02*
X048074Y020235D01*
X048074Y020786D01*
X047916Y021062D02*
X047444Y021062D01*
X047680Y021298D01*
X047916Y021062D01*
X047956Y021298D02*
X047680Y021298D01*
X047404Y021298D01*
X047286Y021574D02*
X047286Y022125D01*
X048074Y022125D01*
X048074Y021574D01*
X047286Y020786D02*
X047286Y020235D01*
X011390Y029180D02*
X010776Y029180D01*
X010469Y029333D02*
X010316Y029180D01*
X010009Y029180D01*
X009855Y029333D01*
X009855Y029487D01*
X010009Y029640D01*
X010316Y029640D01*
X010469Y029487D01*
X010469Y029333D01*
X010316Y029180D02*
X010469Y029026D01*
X010469Y028873D01*
X010316Y028719D01*
X010009Y028719D01*
X009855Y028873D01*
X009855Y029026D01*
X010009Y029180D01*
X009548Y029333D02*
X009241Y029640D01*
X008935Y029333D01*
X008935Y028719D01*
X009548Y028719D02*
X009548Y029333D01*
X010930Y029640D02*
X010930Y028719D01*
X011390Y029180D01*
D11*
X008430Y028930D02*
X008180Y028680D01*
X008430Y028430D01*
X008430Y027930D01*
X008180Y027680D01*
X008430Y027430D01*
X008430Y026930D01*
X008180Y026680D01*
X008430Y026430D01*
X008430Y025930D01*
X008180Y025680D01*
X008430Y025430D01*
X008430Y024930D01*
X008180Y024680D01*
X006680Y024680D01*
X006430Y024930D01*
X006430Y025430D01*
X006680Y025680D01*
X006430Y025930D01*
X006430Y026430D01*
X006680Y026680D01*
X006430Y026930D01*
X006430Y027430D01*
X006680Y027680D01*
X006430Y027930D01*
X006430Y028430D01*
X006680Y028680D01*
X006430Y028930D01*
X006430Y029430D01*
X006680Y029680D01*
X008180Y029680D01*
X008430Y029430D01*
X008430Y028930D01*
X006166Y029048D02*
X006166Y028812D01*
X005694Y028812D02*
X005694Y029048D01*
X004666Y028923D02*
X004666Y028687D01*
X004194Y028687D02*
X004194Y028923D01*
X003448Y028916D02*
X003212Y028916D01*
X003212Y029194D02*
X003448Y029194D01*
X003448Y029666D02*
X003212Y029666D01*
X003212Y028444D02*
X003448Y028444D01*
X005194Y027798D02*
X005194Y027562D01*
X005666Y027562D02*
X005666Y027798D01*
X005819Y027798D02*
X005819Y027562D01*
X006291Y027562D02*
X006291Y027798D01*
X003298Y025716D02*
X003062Y025716D01*
X003062Y025244D02*
X003298Y025244D01*
X003298Y025066D02*
X003062Y025066D01*
X003062Y024594D02*
X003298Y024594D01*
X003298Y024416D02*
X003062Y024416D01*
X003062Y023944D02*
X003298Y023944D01*
X003187Y023666D02*
X003423Y023666D01*
X003423Y023194D02*
X003187Y023194D01*
X003187Y022916D02*
X003423Y022916D01*
X003423Y022444D02*
X003187Y022444D01*
X003187Y022166D02*
X003423Y022166D01*
X003423Y021694D02*
X003187Y021694D01*
X003298Y021416D02*
X003062Y021416D01*
X003062Y020944D02*
X003298Y020944D01*
X003298Y020666D02*
X003062Y020666D01*
X003062Y020194D02*
X003298Y020194D01*
X005970Y021875D02*
X007390Y021875D01*
X007437Y021666D02*
X007673Y021666D01*
X007673Y021194D02*
X007437Y021194D01*
X007390Y023735D02*
X005970Y023735D01*
X006937Y023944D02*
X007173Y023944D01*
X007173Y024416D02*
X006937Y024416D01*
X005166Y024362D02*
X005166Y024598D01*
X004694Y024598D02*
X004694Y024362D01*
X015694Y023798D02*
X015694Y023562D01*
X016166Y023562D02*
X016166Y023798D01*
X021194Y023798D02*
X021194Y023562D01*
X021666Y023562D02*
X021666Y023798D01*
X026694Y023798D02*
X026694Y023562D01*
X027166Y023562D02*
X027166Y023798D01*
X032194Y023798D02*
X032194Y023562D01*
X032666Y023562D02*
X032666Y023798D01*
X037694Y023798D02*
X037694Y023562D01*
X038166Y023562D02*
X038166Y023798D01*
X043194Y023798D02*
X043194Y023562D01*
X043666Y023562D02*
X043666Y023798D01*
X047569Y018923D02*
X047569Y018687D01*
X048041Y018687D02*
X048041Y018923D01*
X047291Y016423D02*
X047291Y016187D01*
X046819Y016187D02*
X046819Y016423D01*
X046666Y016423D02*
X046666Y016187D01*
X046194Y016187D02*
X046194Y016423D01*
X045990Y016565D02*
X045770Y016565D01*
X045990Y016565D02*
X045990Y016245D01*
X045090Y016565D02*
X044870Y016565D01*
X044870Y016245D01*
X043541Y016187D02*
X043541Y016423D01*
X043069Y016423D02*
X043069Y016187D01*
X042916Y016187D02*
X042916Y016423D01*
X042444Y016423D02*
X042444Y016187D01*
X042240Y016245D02*
X042240Y016565D01*
X042020Y016565D01*
X041340Y016565D02*
X041120Y016565D01*
X041120Y016245D01*
X039423Y016569D02*
X039187Y016569D01*
X039098Y016416D02*
X038862Y016416D01*
X038862Y015944D02*
X039098Y015944D01*
X039187Y017041D02*
X039423Y017041D01*
X034490Y016370D02*
X033540Y016370D01*
X033540Y015990D02*
X034490Y015990D01*
X034490Y015370D02*
X033540Y015370D01*
X033540Y014990D02*
X034490Y014990D01*
X034490Y014370D02*
X033540Y014370D01*
X033540Y013990D02*
X034490Y013990D01*
X031416Y006798D02*
X031416Y006562D01*
X030944Y006562D02*
X030944Y006798D01*
X025916Y006798D02*
X025916Y006562D01*
X025444Y006562D02*
X025444Y006798D01*
X020416Y006798D02*
X020416Y006562D01*
X019944Y006562D02*
X019944Y006798D01*
X014916Y006798D02*
X014916Y006562D01*
X014444Y006562D02*
X014444Y006798D01*
X006041Y012687D02*
X006041Y012923D01*
X005569Y012923D02*
X005569Y012687D01*
X004916Y009548D02*
X004916Y009312D01*
X004444Y009312D02*
X004444Y009548D01*
X016962Y014119D02*
X017198Y014119D01*
X017198Y014591D02*
X016962Y014591D01*
X021870Y014370D02*
X022820Y014370D01*
X022820Y013990D02*
X021870Y013990D01*
X021870Y014990D02*
X022820Y014990D01*
X022820Y015370D02*
X021870Y015370D01*
X021870Y015990D02*
X022820Y015990D01*
X022820Y016370D02*
X021870Y016370D01*
D12*
X014680Y004820D02*
X014680Y003040D01*
X016180Y003040D02*
X016180Y004820D01*
X017258Y004871D02*
X017335Y004794D01*
X017488Y004794D01*
X017565Y004871D01*
X017565Y005255D01*
X017718Y005178D02*
X017795Y005255D01*
X017949Y005255D01*
X018025Y005178D01*
X018179Y005178D02*
X018256Y005255D01*
X018409Y005255D01*
X018486Y005178D01*
X018486Y005101D01*
X018179Y004794D01*
X018486Y004794D01*
X018639Y004794D02*
X018946Y005101D01*
X018946Y005178D01*
X018869Y005255D01*
X018716Y005255D01*
X018639Y005178D01*
X018025Y004948D02*
X017949Y005025D01*
X017795Y005025D01*
X017718Y005101D01*
X017718Y005178D01*
X017872Y005332D02*
X017872Y004718D01*
X017949Y004794D02*
X018025Y004871D01*
X018025Y004948D01*
X017949Y004794D02*
X017795Y004794D01*
X017718Y004871D01*
X017258Y004871D02*
X017258Y005255D01*
X018639Y004794D02*
X018946Y004794D01*
X020180Y004820D02*
X020180Y003040D01*
X021680Y003040D02*
X021680Y004820D01*
X022758Y004871D02*
X022758Y005255D01*
X023065Y005255D02*
X023065Y004871D01*
X022988Y004794D01*
X022835Y004794D01*
X022758Y004871D01*
X023218Y004871D02*
X023295Y004794D01*
X023449Y004794D01*
X023525Y004871D01*
X023525Y004948D01*
X023449Y005025D01*
X023295Y005025D01*
X023218Y005101D01*
X023218Y005178D01*
X023295Y005255D01*
X023449Y005255D01*
X023525Y005178D01*
X023679Y005178D02*
X023756Y005255D01*
X023909Y005255D01*
X023986Y005178D01*
X023986Y005101D01*
X023679Y004794D01*
X023986Y004794D01*
X024139Y004794D02*
X024446Y004794D01*
X024293Y004794D02*
X024293Y005255D01*
X024139Y005101D01*
X023372Y005332D02*
X023372Y004718D01*
X025680Y004820D02*
X025680Y003040D01*
X027180Y003040D02*
X027180Y004820D01*
X028258Y004871D02*
X028258Y005255D01*
X028565Y005255D02*
X028565Y004871D01*
X028488Y004794D01*
X028335Y004794D01*
X028258Y004871D01*
X028718Y004871D02*
X028795Y004794D01*
X028949Y004794D01*
X029025Y004871D01*
X029025Y004948D01*
X028949Y005025D01*
X028795Y005025D01*
X028718Y005101D01*
X028718Y005178D01*
X028795Y005255D01*
X028949Y005255D01*
X029025Y005178D01*
X029179Y005178D02*
X029256Y005255D01*
X029409Y005255D01*
X029486Y005178D01*
X029486Y005101D01*
X029179Y004794D01*
X029486Y004794D01*
X029639Y004871D02*
X029946Y005178D01*
X029946Y004871D01*
X029869Y004794D01*
X029716Y004794D01*
X029639Y004871D01*
X029639Y005178D01*
X029716Y005255D01*
X029869Y005255D01*
X029946Y005178D01*
X028872Y005332D02*
X028872Y004718D01*
X031180Y004820D02*
X031180Y003040D01*
X032680Y003040D02*
X032680Y004820D01*
X033758Y004871D02*
X033758Y005255D01*
X034065Y005255D02*
X034065Y004871D01*
X033988Y004794D01*
X033835Y004794D01*
X033758Y004871D01*
X034218Y004871D02*
X034295Y004794D01*
X034449Y004794D01*
X034525Y004871D01*
X034525Y004948D01*
X034449Y005025D01*
X034295Y005025D01*
X034218Y005101D01*
X034218Y005178D01*
X034295Y005255D01*
X034449Y005255D01*
X034525Y005178D01*
X034679Y005101D02*
X034832Y005255D01*
X034832Y004794D01*
X034679Y004794D02*
X034986Y004794D01*
X035139Y004871D02*
X035216Y004794D01*
X035369Y004794D01*
X035446Y004871D01*
X035446Y005178D01*
X035369Y005255D01*
X035216Y005255D01*
X035139Y005178D01*
X035139Y005101D01*
X035216Y005025D01*
X035446Y005025D01*
X034372Y005332D02*
X034372Y004718D01*
X009047Y011200D02*
X008740Y011200D01*
X008893Y011200D02*
X008893Y011660D01*
X008740Y011507D01*
X011627Y025106D02*
X011781Y025106D01*
X011857Y025182D01*
X011857Y025566D01*
X012011Y025489D02*
X012088Y025566D01*
X012241Y025566D01*
X012318Y025489D01*
X012471Y025412D02*
X012625Y025566D01*
X012625Y025106D01*
X012778Y025106D02*
X012471Y025106D01*
X012318Y025182D02*
X012318Y025259D01*
X012241Y025336D01*
X012088Y025336D01*
X012011Y025412D01*
X012011Y025489D01*
X012164Y025643D02*
X012164Y025029D01*
X012088Y025106D02*
X012241Y025106D01*
X012318Y025182D01*
X012088Y025106D02*
X012011Y025182D01*
X011627Y025106D02*
X011550Y025182D01*
X011550Y025566D01*
X012932Y025336D02*
X013238Y025336D01*
X013162Y025566D02*
X012932Y025336D01*
X013162Y025106D02*
X013162Y025566D01*
X014430Y025540D02*
X014430Y027320D01*
X015930Y027320D02*
X015930Y025540D01*
X017050Y025566D02*
X017050Y025182D01*
X017127Y025106D01*
X017281Y025106D01*
X017357Y025182D01*
X017357Y025566D01*
X017511Y025489D02*
X017588Y025566D01*
X017741Y025566D01*
X017818Y025489D01*
X017971Y025412D02*
X018125Y025566D01*
X018125Y025106D01*
X018278Y025106D02*
X017971Y025106D01*
X017818Y025182D02*
X017818Y025259D01*
X017741Y025336D01*
X017588Y025336D01*
X017511Y025412D01*
X017511Y025489D01*
X017664Y025643D02*
X017664Y025029D01*
X017588Y025106D02*
X017741Y025106D01*
X017818Y025182D01*
X017588Y025106D02*
X017511Y025182D01*
X018432Y025182D02*
X018508Y025106D01*
X018662Y025106D01*
X018738Y025182D01*
X018738Y025336D01*
X018662Y025412D01*
X018585Y025412D01*
X018432Y025336D01*
X018432Y025566D01*
X018738Y025566D01*
X019930Y025540D02*
X019930Y027320D01*
X021430Y027320D02*
X021430Y025540D01*
X022550Y025566D02*
X022550Y025182D01*
X022627Y025106D01*
X022781Y025106D01*
X022857Y025182D01*
X022857Y025566D01*
X023011Y025489D02*
X023088Y025566D01*
X023241Y025566D01*
X023318Y025489D01*
X023471Y025412D02*
X023625Y025566D01*
X023625Y025106D01*
X023778Y025106D02*
X023471Y025106D01*
X023318Y025182D02*
X023318Y025259D01*
X023241Y025336D01*
X023088Y025336D01*
X023011Y025412D01*
X023011Y025489D01*
X023164Y025643D02*
X023164Y025029D01*
X023088Y025106D02*
X023241Y025106D01*
X023318Y025182D01*
X023088Y025106D02*
X023011Y025182D01*
X023932Y025182D02*
X024008Y025106D01*
X024162Y025106D01*
X024238Y025182D01*
X024238Y025259D01*
X024162Y025336D01*
X023932Y025336D01*
X023932Y025182D01*
X023932Y025336D02*
X024085Y025489D01*
X024238Y025566D01*
X025430Y025540D02*
X025430Y027320D01*
X026930Y027320D02*
X026930Y025540D01*
X028050Y025566D02*
X028050Y025182D01*
X028127Y025106D01*
X028281Y025106D01*
X028357Y025182D01*
X028357Y025566D01*
X028511Y025489D02*
X028588Y025566D01*
X028741Y025566D01*
X028818Y025489D01*
X028971Y025412D02*
X029125Y025566D01*
X029125Y025106D01*
X029278Y025106D02*
X028971Y025106D01*
X028818Y025182D02*
X028818Y025259D01*
X028741Y025336D01*
X028588Y025336D01*
X028511Y025412D01*
X028511Y025489D01*
X028664Y025643D02*
X028664Y025029D01*
X028588Y025106D02*
X028741Y025106D01*
X028818Y025182D01*
X028588Y025106D02*
X028511Y025182D01*
X029432Y025182D02*
X029432Y025106D01*
X029432Y025182D02*
X029738Y025489D01*
X029738Y025566D01*
X029432Y025566D01*
X030930Y025540D02*
X030930Y027320D01*
X032430Y027320D02*
X032430Y025540D01*
X033550Y025566D02*
X033550Y025182D01*
X033627Y025106D01*
X033781Y025106D01*
X033857Y025182D01*
X033857Y025566D01*
X034011Y025489D02*
X034088Y025566D01*
X034241Y025566D01*
X034318Y025489D01*
X034471Y025412D02*
X034625Y025566D01*
X034625Y025106D01*
X034778Y025106D02*
X034471Y025106D01*
X034318Y025182D02*
X034318Y025259D01*
X034241Y025336D01*
X034088Y025336D01*
X034011Y025412D01*
X034011Y025489D01*
X034164Y025643D02*
X034164Y025029D01*
X034088Y025106D02*
X034241Y025106D01*
X034318Y025182D01*
X034088Y025106D02*
X034011Y025182D01*
X034932Y025182D02*
X034932Y025259D01*
X035008Y025336D01*
X035162Y025336D01*
X035238Y025259D01*
X035238Y025182D01*
X035162Y025106D01*
X035008Y025106D01*
X034932Y025182D01*
X035008Y025336D02*
X034932Y025412D01*
X034932Y025489D01*
X035008Y025566D01*
X035162Y025566D01*
X035238Y025489D01*
X035238Y025412D01*
X035162Y025336D01*
X036430Y025540D02*
X036430Y027320D01*
X037930Y027320D02*
X037930Y025540D01*
X041930Y025540D02*
X041930Y027320D01*
X043430Y027320D02*
X043430Y025540D01*
X044550Y025566D02*
X044550Y025182D01*
X044627Y025106D01*
X044781Y025106D01*
X044857Y025182D01*
X044857Y025566D01*
X045011Y025489D02*
X045088Y025566D01*
X045241Y025566D01*
X045318Y025489D01*
X045471Y025412D02*
X045625Y025566D01*
X045625Y025106D01*
X045778Y025106D02*
X045471Y025106D01*
X045318Y025182D02*
X045318Y025259D01*
X045241Y025336D01*
X045088Y025336D01*
X045011Y025412D01*
X045011Y025489D01*
X045164Y025643D02*
X045164Y025029D01*
X045088Y025106D02*
X045241Y025106D01*
X045318Y025182D01*
X045088Y025106D02*
X045011Y025182D01*
X045932Y025182D02*
X046238Y025489D01*
X046238Y025182D01*
X046162Y025106D01*
X046008Y025106D01*
X045932Y025182D01*
X045932Y025489D01*
X046008Y025566D01*
X046162Y025566D01*
X046238Y025489D01*
X046930Y025540D02*
X046930Y027320D01*
X048430Y027320D02*
X048430Y025540D01*
D13*
X033027Y017145D02*
X032713Y016831D01*
X032713Y016988D02*
X033027Y016988D01*
X033027Y016831D02*
X032713Y017145D01*
X032870Y017145D02*
X032870Y016831D01*
X023647Y013529D02*
X023333Y013215D01*
X023490Y013215D02*
X023490Y013529D01*
X023333Y013529D02*
X023647Y013215D01*
X023647Y013372D02*
X023333Y013372D01*
D14*
X040830Y009180D02*
X041330Y009180D01*
X041560Y009430D02*
X042010Y009430D01*
X042010Y007430D01*
X041560Y007430D01*
X041560Y008430D01*
X041560Y009430D01*
X041080Y009430D02*
X041080Y008930D01*
X041180Y008430D02*
X041560Y008430D01*
X037430Y008430D02*
X037436Y008663D01*
X037453Y008896D01*
X037481Y009127D01*
X037521Y009357D01*
X037572Y009584D01*
X037635Y009809D01*
X037708Y010030D01*
X037792Y010248D01*
X037886Y010461D01*
X037991Y010669D01*
X038106Y010872D01*
X038231Y011069D01*
X038365Y011260D01*
X038508Y011443D01*
X038660Y011620D01*
X038821Y011789D01*
X038990Y011950D01*
X039167Y012102D01*
X039350Y012245D01*
X039541Y012379D01*
X039738Y012504D01*
X039941Y012619D01*
X040149Y012724D01*
X040362Y012818D01*
X040580Y012902D01*
X040801Y012975D01*
X041026Y013038D01*
X041253Y013089D01*
X041483Y013129D01*
X041714Y013157D01*
X041947Y013174D01*
X042180Y013180D01*
X042413Y013174D01*
X042646Y013157D01*
X042877Y013129D01*
X043107Y013089D01*
X043334Y013038D01*
X043559Y012975D01*
X043780Y012902D01*
X043998Y012818D01*
X044211Y012724D01*
X044419Y012619D01*
X044622Y012504D01*
X044819Y012379D01*
X045010Y012245D01*
X045193Y012102D01*
X045370Y011950D01*
X045539Y011789D01*
X045700Y011620D01*
X045852Y011443D01*
X045995Y011260D01*
X046129Y011069D01*
X046254Y010872D01*
X046369Y010669D01*
X046474Y010461D01*
X046568Y010248D01*
X046652Y010030D01*
X046725Y009809D01*
X046788Y009584D01*
X046839Y009357D01*
X046879Y009127D01*
X046907Y008896D01*
X046924Y008663D01*
X046930Y008430D01*
X046924Y008197D01*
X046907Y007964D01*
X046879Y007733D01*
X046839Y007503D01*
X046788Y007276D01*
X046725Y007051D01*
X046652Y006830D01*
X046568Y006612D01*
X046474Y006399D01*
X046369Y006191D01*
X046254Y005988D01*
X046129Y005791D01*
X045995Y005600D01*
X045852Y005417D01*
X045700Y005240D01*
X045539Y005071D01*
X045370Y004910D01*
X045193Y004758D01*
X045010Y004615D01*
X044819Y004481D01*
X044622Y004356D01*
X044419Y004241D01*
X044211Y004136D01*
X043998Y004042D01*
X043780Y003958D01*
X043559Y003885D01*
X043334Y003822D01*
X043107Y003771D01*
X042877Y003731D01*
X042646Y003703D01*
X042413Y003686D01*
X042180Y003680D01*
X041947Y003686D01*
X041714Y003703D01*
X041483Y003731D01*
X041253Y003771D01*
X041026Y003822D01*
X040801Y003885D01*
X040580Y003958D01*
X040362Y004042D01*
X040149Y004136D01*
X039941Y004241D01*
X039738Y004356D01*
X039541Y004481D01*
X039350Y004615D01*
X039167Y004758D01*
X038990Y004910D01*
X038821Y005071D01*
X038660Y005240D01*
X038508Y005417D01*
X038365Y005600D01*
X038231Y005791D01*
X038106Y005988D01*
X037991Y006191D01*
X037886Y006399D01*
X037792Y006612D01*
X037708Y006830D01*
X037635Y007051D01*
X037572Y007276D01*
X037521Y007503D01*
X037481Y007733D01*
X037453Y007964D01*
X037436Y008197D01*
X037430Y008430D01*
X036180Y008430D02*
X036187Y008724D01*
X036209Y009018D01*
X036245Y009310D01*
X036295Y009601D01*
X036360Y009888D01*
X036438Y010172D01*
X036531Y010451D01*
X036637Y010726D01*
X036756Y010995D01*
X036888Y011258D01*
X037034Y011515D01*
X037191Y011763D01*
X037361Y012004D01*
X037542Y012236D01*
X037734Y012459D01*
X037937Y012673D01*
X038151Y012876D01*
X038374Y013068D01*
X038606Y013249D01*
X038847Y013419D01*
X039095Y013576D01*
X039352Y013722D01*
X039615Y013854D01*
X039884Y013973D01*
X040159Y014079D01*
X040438Y014172D01*
X040722Y014250D01*
X041009Y014315D01*
X041300Y014365D01*
X041592Y014401D01*
X041886Y014423D01*
X042180Y014430D01*
X042474Y014423D01*
X042768Y014401D01*
X043060Y014365D01*
X043351Y014315D01*
X043638Y014250D01*
X043922Y014172D01*
X044201Y014079D01*
X044476Y013973D01*
X044745Y013854D01*
X045008Y013722D01*
X045265Y013576D01*
X045513Y013419D01*
X045754Y013249D01*
X045986Y013068D01*
X046209Y012876D01*
X046423Y012673D01*
X046626Y012459D01*
X046818Y012236D01*
X046999Y012004D01*
X047169Y011763D01*
X047326Y011515D01*
X047472Y011258D01*
X047604Y010995D01*
X047723Y010726D01*
X047829Y010451D01*
X047922Y010172D01*
X048000Y009888D01*
X048065Y009601D01*
X048115Y009310D01*
X048151Y009018D01*
X048173Y008724D01*
X048180Y008430D01*
X048173Y008136D01*
X048151Y007842D01*
X048115Y007550D01*
X048065Y007259D01*
X048000Y006972D01*
X047922Y006688D01*
X047829Y006409D01*
X047723Y006134D01*
X047604Y005865D01*
X047472Y005602D01*
X047326Y005345D01*
X047169Y005097D01*
X046999Y004856D01*
X046818Y004624D01*
X046626Y004401D01*
X046423Y004187D01*
X046209Y003984D01*
X045986Y003792D01*
X045754Y003611D01*
X045513Y003441D01*
X045265Y003284D01*
X045008Y003138D01*
X044745Y003006D01*
X044476Y002887D01*
X044201Y002781D01*
X043922Y002688D01*
X043638Y002610D01*
X043351Y002545D01*
X043060Y002495D01*
X042768Y002459D01*
X042474Y002437D01*
X042180Y002430D01*
X041886Y002437D01*
X041592Y002459D01*
X041300Y002495D01*
X041009Y002545D01*
X040722Y002610D01*
X040438Y002688D01*
X040159Y002781D01*
X039884Y002887D01*
X039615Y003006D01*
X039352Y003138D01*
X039095Y003284D01*
X038847Y003441D01*
X038606Y003611D01*
X038374Y003792D01*
X038151Y003984D01*
X037937Y004187D01*
X037734Y004401D01*
X037542Y004624D01*
X037361Y004856D01*
X037191Y005097D01*
X037034Y005345D01*
X036888Y005602D01*
X036756Y005865D01*
X036637Y006134D01*
X036531Y006409D01*
X036438Y006688D01*
X036360Y006972D01*
X036295Y007259D01*
X036245Y007550D01*
X036209Y007842D01*
X036187Y008136D01*
X036180Y008430D01*
X042430Y008430D02*
X043180Y008430D01*
D15*
X042560Y008430D03*
D16*
X009055Y025005D02*
X009055Y025305D01*
X009055Y025155D02*
X008605Y025155D01*
X008755Y025005D01*
X006255Y029005D02*
X006255Y029305D01*
X006255Y029155D02*
X005805Y029155D01*
X005955Y029005D01*
X005880Y029465D02*
X005805Y029540D01*
X005805Y029691D01*
X005880Y029766D01*
X006180Y029465D01*
X006255Y029540D01*
X006255Y029691D01*
X006180Y029766D01*
X005880Y029766D01*
X005880Y029465D02*
X006180Y029465D01*
M02*
