G75*
G70*
%OFA0B0*%
%FSLAX24Y24*%
%IPPOS*%
%LPD*%
%AMOC8*
5,1,8,0,0,1.08239X$1,22.5*
%
%ADD10C,0.1025*%
%ADD11OC8,0.0907*%
%ADD12C,0.1084*%
%ADD13C,0.1890*%
%ADD14OC8,0.1890*%
%ADD15C,0.0595*%
%ADD16OC8,0.0680*%
%ADD17C,0.1380*%
%ADD18C,0.0907*%
%ADD19C,0.0476*%
D10*
X017430Y006380D03*
X018830Y006380D03*
X022930Y006380D03*
X024330Y006380D03*
X028430Y006380D03*
X029830Y006380D03*
X033930Y006380D03*
X035330Y006380D03*
X035330Y011680D03*
X033930Y011680D03*
X029830Y011680D03*
X028430Y011680D03*
X024330Y011680D03*
X022930Y011680D03*
X018830Y011680D03*
X017430Y011680D03*
X017280Y018680D03*
X018680Y018680D03*
X022780Y018680D03*
X024180Y018680D03*
X028280Y018680D03*
X029680Y018680D03*
X033780Y018680D03*
X035180Y018680D03*
X039305Y018630D03*
X040705Y018630D03*
X044805Y018630D03*
X046205Y018630D03*
X046205Y023930D03*
X044805Y023930D03*
X040705Y023930D03*
X039305Y023930D03*
X035180Y023980D03*
X033780Y023980D03*
X029680Y023980D03*
X028280Y023980D03*
X024180Y023980D03*
X022780Y023980D03*
X018680Y023980D03*
X017280Y023980D03*
X013180Y023980D03*
X011780Y023980D03*
X011780Y018680D03*
X013180Y018680D03*
D11*
X012680Y026597D03*
X012680Y028763D03*
X018180Y028763D03*
X018180Y026597D03*
X023680Y026597D03*
X023680Y028763D03*
X029180Y028763D03*
X029180Y026597D03*
X034680Y026597D03*
X034680Y028763D03*
X045680Y028763D03*
X045680Y026597D03*
X034430Y003763D03*
X034430Y001597D03*
X028930Y001597D03*
X028930Y003763D03*
X023430Y003763D03*
X023430Y001597D03*
X017930Y001597D03*
X017930Y003763D03*
D12*
X025841Y014678D02*
X025841Y015682D01*
X027400Y015682D02*
X027400Y014678D01*
X028960Y014678D02*
X028960Y015682D01*
X030519Y015682D02*
X030519Y014678D01*
D13*
X040180Y008430D03*
D14*
X044180Y008430D03*
D15*
X045305Y002055D03*
X042305Y002055D03*
X039305Y002055D03*
X039305Y025055D03*
X045305Y025055D03*
D16*
X007930Y025180D03*
X006930Y025180D03*
X006930Y026180D03*
X007930Y026180D03*
X007930Y027180D03*
X006930Y027180D03*
X006930Y028180D03*
X007930Y028180D03*
X007930Y029180D03*
X006930Y029180D03*
D17*
X001555Y001430D03*
X001555Y028930D03*
X047805Y028930D03*
X047805Y001430D03*
D18*
X010930Y004767D02*
X010930Y005593D01*
X009680Y005593D02*
X009680Y004767D01*
X008430Y004767D02*
X008430Y005593D01*
X007180Y005593D02*
X007180Y004767D01*
X005930Y004767D02*
X005930Y005593D01*
X005930Y007267D02*
X005930Y008093D01*
X007180Y008093D02*
X007180Y007267D01*
X008430Y007267D02*
X008430Y008093D01*
X009680Y008093D02*
X009680Y007267D01*
X010930Y007267D02*
X010930Y008093D01*
X010055Y016517D02*
X010055Y017343D01*
X008805Y017343D02*
X008805Y016517D01*
X007555Y016517D02*
X007555Y017343D01*
X006305Y017343D02*
X006305Y016517D01*
X005055Y016517D02*
X005055Y017343D01*
X005055Y019017D02*
X005055Y019843D01*
X006305Y019843D02*
X006305Y019017D01*
X007555Y019017D02*
X007555Y019843D01*
X008805Y019843D02*
X008805Y019017D01*
X010055Y019017D02*
X010055Y019843D01*
D19*
X011305Y020555D03*
X012055Y020555D03*
X011305Y022055D03*
X012055Y022555D03*
X008555Y022555D03*
X008430Y022055D03*
X008430Y021180D03*
X006430Y022055D03*
X004055Y021305D03*
X004055Y020680D03*
X002430Y022680D03*
X001055Y024180D03*
X004205Y024705D03*
X005680Y025305D03*
X006180Y025055D03*
X005305Y026680D03*
X003180Y026430D03*
X005255Y028980D03*
X005005Y029555D03*
X007430Y028680D03*
X009180Y029305D03*
X016430Y026930D03*
X021930Y026930D03*
X027430Y026930D03*
X032930Y026930D03*
X038180Y026930D03*
X043805Y026555D03*
X046680Y022680D03*
X043180Y022430D03*
X041055Y021930D03*
X040055Y022055D03*
X040305Y020805D03*
X039555Y020180D03*
X038305Y020805D03*
X037555Y020180D03*
X037555Y021555D03*
X037555Y022055D03*
X037555Y022680D03*
X032055Y022055D03*
X026555Y022055D03*
X021055Y022055D03*
X015555Y022055D03*
X024305Y016930D03*
X024805Y016930D03*
X024430Y014680D03*
X017680Y013705D03*
X016555Y015055D03*
X016930Y016180D03*
X006305Y011930D03*
X004680Y012805D03*
X005430Y009430D03*
X005180Y007430D03*
X014180Y004930D03*
X015055Y007680D03*
X020555Y007680D03*
X026055Y007680D03*
X031555Y007680D03*
X030680Y003555D03*
X025180Y003555D03*
X019680Y003555D03*
X038680Y013930D03*
X039805Y015180D03*
X039830Y016205D03*
X042930Y017180D03*
X043380Y017980D03*
X047180Y018180D03*
X047180Y014805D03*
X031930Y015680D03*
X031930Y015680D03*
M02*
