%
M48
M72
T01C0.0236
T02C0.0315
T03C0.0400
T04C0.0551
T05C0.0630
T06C0.0669
T07C0.0790
T08C0.1300
%
T01
X5180Y7430
X5430Y9430
X6305Y11930
X4680Y12805
X15055Y7680
X14180Y4930
X19680Y3555
X25180Y3555
X30680Y3555
X31555Y7680
X26055Y7680
X20555Y7680
X17680Y13705
X16555Y15055
X16930Y16180
X12055Y20555
X11305Y20555
X11305Y22055
X12055Y22555
X8555Y22555
X8430Y22055
X8430Y21180
X6430Y22055
X4055Y21305
X4055Y20680
X2430Y22680
X1055Y24180
X4205Y24705
X5680Y25305
X6180Y25055
X5305Y26680
X3180Y26430
X5255Y28980
X5005Y29555
X7430Y28680
X9180Y29305
X16430Y26930
X21930Y26930
X27430Y26930
X32930Y26930
X38180Y26930
X43805Y26555
X46680Y22680
X43180Y22430
X41055Y21930
X40055Y22055
X40305Y20805
X39555Y20180
X38305Y20805
X37555Y20180
X37555Y21555
X37555Y22055
X37555Y22680
X32055Y22055
X26555Y22055
X21055Y22055
X15555Y22055
X24305Y16930
X24805Y16930
X24430Y14680
X31930Y15680
X31930Y15680
X38680Y13930
X39805Y15180
X39830Y16205
X42930Y17180
X43380Y17980
X47180Y18180
X47180Y14805
T02
X45305Y25055
X39305Y25055
X39305Y2055
X42305Y2055
X45305Y2055
T03
X7930Y25180
X6930Y25180
X6930Y26180
X7930Y26180
X7930Y27180
X6930Y27180
X6930Y28180
X7930Y28180
X7930Y29180
X6930Y29180
T04
X12680Y28763
X12680Y26597
X18180Y26597
X18180Y28763
X23680Y28763
X23680Y26597
X29180Y26597
X29180Y28763
X34680Y28763
X34680Y26597
X45680Y26597
X45680Y28763
X10930Y7680
X9680Y7680
X8430Y7680
X7180Y7680
X5930Y7680
X5930Y5180
X7180Y5180
X8430Y5180
X9680Y5180
X10930Y5180
X17930Y3763
X17930Y1597
X23430Y1597
X23430Y3763
X28930Y3763
X28930Y1597
X34430Y1597
X34430Y3763
X10055Y16930
X8805Y16930
X7555Y16930
X6305Y16930
X5055Y16930
X5055Y19430
X6305Y19430
X7555Y19430
X8805Y19430
X10055Y19430
T05
X11780Y18680
X13180Y18680
X17280Y18680
X18680Y18680
X22780Y18680
X24180Y18680
X28280Y18680
X29680Y18680
X33780Y18680
X35180Y18680
X39305Y18630
X40705Y18630
X44805Y18630
X46205Y18630
X46205Y23930
X44805Y23930
X40705Y23930
X39305Y23930
X35180Y23980
X33780Y23980
X29680Y23980
X28280Y23980
X24180Y23980
X22780Y23980
X18680Y23980
X17280Y23980
X13180Y23980
X11780Y23980
X17430Y11680
X18830Y11680
X22930Y11680
X24330Y11680
X28430Y11680
X29830Y11680
X33930Y11680
X35330Y11680
X35330Y6380
X33930Y6380
X29830Y6380
X28430Y6380
X24330Y6380
X22930Y6380
X18830Y6380
X17430Y6380
T06
X25841Y15180
X27400Y15180
X28960Y15180
X30519Y15180
T07
X40180Y8430
X44180Y8430
T08
X1555Y1430
X1555Y28930
X47805Y28930
X47805Y1430
M30
