G75*
G70*
%OFA0B0*%
%FSLAX24Y24*%
%IPPOS*%
%LPD*%
%AMOC8*
5,1,8,0,0,1.08239X$1,22.5*
%
%ADD10C,0.0040*%
%ADD11R,0.0079X0.0079*%
%ADD12R,0.0098X0.0059*%
%ADD13C,0.0050*%
D10*
X001203Y003558D02*
X001180Y003581D01*
X001160Y003607D01*
X001143Y003635D01*
X001129Y003664D01*
X001118Y003695D01*
X001111Y003726D01*
X001107Y003759D01*
X001107Y003791D01*
X001111Y003824D01*
X001118Y003855D01*
X001129Y003886D01*
X001143Y003915D01*
X001160Y003943D01*
X001180Y003969D01*
X001203Y003992D01*
X001597Y003992D02*
X001620Y003969D01*
X001640Y003943D01*
X001657Y003915D01*
X001671Y003886D01*
X001682Y003855D01*
X001689Y003824D01*
X001693Y003791D01*
X001693Y003759D01*
X001689Y003726D01*
X001682Y003695D01*
X001671Y003664D01*
X001657Y003635D01*
X001640Y003607D01*
X001620Y003581D01*
X001597Y003558D01*
X002203Y003558D02*
X002180Y003581D01*
X002160Y003607D01*
X002143Y003635D01*
X002129Y003664D01*
X002118Y003695D01*
X002111Y003726D01*
X002107Y003759D01*
X002107Y003791D01*
X002111Y003824D01*
X002118Y003855D01*
X002129Y003886D01*
X002143Y003915D01*
X002160Y003943D01*
X002180Y003969D01*
X002203Y003992D01*
X002597Y003992D02*
X002620Y003969D01*
X002640Y003943D01*
X002657Y003915D01*
X002671Y003886D01*
X002682Y003855D01*
X002689Y003824D01*
X002693Y003791D01*
X002693Y003759D01*
X002689Y003726D01*
X002682Y003695D01*
X002671Y003664D01*
X002657Y003635D01*
X002640Y003607D01*
X002620Y003581D01*
X002597Y003558D01*
X003203Y003558D02*
X003180Y003581D01*
X003160Y003607D01*
X003143Y003635D01*
X003129Y003664D01*
X003118Y003695D01*
X003111Y003726D01*
X003107Y003759D01*
X003107Y003791D01*
X003111Y003824D01*
X003118Y003855D01*
X003129Y003886D01*
X003143Y003915D01*
X003160Y003943D01*
X003180Y003969D01*
X003203Y003992D01*
X003597Y003992D02*
X003620Y003969D01*
X003640Y003943D01*
X003657Y003915D01*
X003671Y003886D01*
X003682Y003855D01*
X003689Y003824D01*
X003693Y003791D01*
X003693Y003759D01*
X003689Y003726D01*
X003682Y003695D01*
X003671Y003664D01*
X003657Y003635D01*
X003640Y003607D01*
X003620Y003581D01*
X003597Y003558D01*
D11*
X001400Y003775D03*
X002400Y003775D03*
X003400Y003775D03*
D12*
X003626Y003982D03*
X002626Y003982D03*
X001626Y003982D03*
D13*
X004900Y004400D02*
X004900Y000400D01*
X006900Y000400D01*
X006900Y004400D01*
X004900Y004400D01*
M02*
