G75*
G70*
%OFA0B0*%
%FSLAX24Y24*%
%IPPOS*%
%LPD*%
%AMOC8*
5,1,8,0,0,1.08239X$1,22.5*
%
%ADD10C,0.0000*%
%ADD11R,0.0710X0.0630*%
%ADD12C,0.1400*%
%ADD13R,0.0787X0.0630*%
%ADD14C,0.0160*%
%ADD15C,0.0100*%
D10*
X000150Y000150D02*
X000150Y007146D01*
X007145Y007146D01*
X007145Y000150D01*
X000150Y000150D01*
X005250Y005900D02*
X005252Y005950D01*
X005258Y006000D01*
X005268Y006050D01*
X005281Y006098D01*
X005298Y006146D01*
X005319Y006192D01*
X005343Y006236D01*
X005371Y006278D01*
X005402Y006318D01*
X005436Y006355D01*
X005473Y006390D01*
X005512Y006421D01*
X005553Y006450D01*
X005597Y006475D01*
X005643Y006497D01*
X005690Y006515D01*
X005738Y006529D01*
X005787Y006540D01*
X005837Y006547D01*
X005887Y006550D01*
X005938Y006549D01*
X005988Y006544D01*
X006038Y006535D01*
X006086Y006523D01*
X006134Y006506D01*
X006180Y006486D01*
X006225Y006463D01*
X006268Y006436D01*
X006308Y006406D01*
X006346Y006373D01*
X006381Y006337D01*
X006414Y006298D01*
X006443Y006257D01*
X006469Y006214D01*
X006492Y006169D01*
X006511Y006122D01*
X006526Y006074D01*
X006538Y006025D01*
X006546Y005975D01*
X006550Y005925D01*
X006550Y005875D01*
X006546Y005825D01*
X006538Y005775D01*
X006526Y005726D01*
X006511Y005678D01*
X006492Y005631D01*
X006469Y005586D01*
X006443Y005543D01*
X006414Y005502D01*
X006381Y005463D01*
X006346Y005427D01*
X006308Y005394D01*
X006268Y005364D01*
X006225Y005337D01*
X006180Y005314D01*
X006134Y005294D01*
X006086Y005277D01*
X006038Y005265D01*
X005988Y005256D01*
X005938Y005251D01*
X005887Y005250D01*
X005837Y005253D01*
X005787Y005260D01*
X005738Y005271D01*
X005690Y005285D01*
X005643Y005303D01*
X005597Y005325D01*
X005553Y005350D01*
X005512Y005379D01*
X005473Y005410D01*
X005436Y005445D01*
X005402Y005482D01*
X005371Y005522D01*
X005343Y005564D01*
X005319Y005608D01*
X005298Y005654D01*
X005281Y005702D01*
X005268Y005750D01*
X005258Y005800D01*
X005252Y005850D01*
X005250Y005900D01*
D11*
X003400Y004335D03*
X002400Y004335D03*
X001400Y004335D03*
X001400Y003215D03*
X002400Y003215D03*
X003400Y003215D03*
D12*
X005900Y003400D03*
X005900Y001400D03*
D13*
X003900Y001826D03*
X003900Y000724D03*
X002400Y000724D03*
X002400Y001826D03*
X000900Y001826D03*
X000900Y000724D03*
D14*
X000900Y001826D02*
X000900Y002715D01*
X001400Y003215D01*
X002400Y003215D02*
X002400Y001826D01*
X003400Y003215D02*
X003900Y002715D01*
X003900Y001826D01*
X005150Y004025D02*
X005900Y003400D01*
X005150Y004025D02*
X004840Y004335D01*
X003400Y004335D01*
X002400Y004335D01*
X001400Y004335D01*
D15*
X001885Y004545D02*
X001885Y004704D01*
X001809Y004780D01*
X000991Y004780D01*
X000915Y004704D01*
X000915Y003966D01*
X000991Y003890D01*
X001809Y003890D01*
X001885Y003966D01*
X001885Y004125D01*
X001915Y004125D01*
X001915Y003966D01*
X001991Y003890D01*
X002809Y003890D01*
X002885Y003966D01*
X002885Y004125D01*
X002915Y004125D01*
X002915Y003966D01*
X002991Y003890D01*
X003809Y003890D01*
X003885Y003966D01*
X003885Y004125D01*
X004753Y004125D01*
X004948Y003930D01*
X004949Y003919D01*
X005008Y003870D01*
X005063Y003815D01*
X005074Y003815D01*
X005148Y003753D01*
X005070Y003565D01*
X005070Y003235D01*
X005196Y002930D01*
X005430Y002696D01*
X005735Y002570D01*
X006065Y002570D01*
X006370Y002696D01*
X006604Y002930D01*
X006695Y003151D01*
X006695Y001702D01*
X006664Y001777D01*
X006608Y001873D01*
X006540Y001962D01*
X006462Y002040D01*
X006373Y002108D01*
X006277Y002164D01*
X006174Y002207D01*
X006066Y002235D01*
X005956Y002250D01*
X005950Y002250D01*
X005950Y001450D01*
X005850Y001450D01*
X005850Y002250D01*
X005844Y002250D01*
X005734Y002235D01*
X005626Y002207D01*
X005523Y002164D01*
X005427Y002108D01*
X005338Y002040D01*
X005260Y001962D01*
X005192Y001873D01*
X005136Y001777D01*
X005093Y001674D01*
X005065Y001566D01*
X005050Y001456D01*
X005050Y001450D01*
X005850Y001450D01*
X005850Y001350D01*
X005050Y001350D01*
X005050Y001344D01*
X005065Y001234D01*
X005093Y001126D01*
X005136Y001023D01*
X005192Y000927D01*
X005260Y000838D01*
X005338Y000760D01*
X005427Y000692D01*
X005523Y000636D01*
X005610Y000600D01*
X004444Y000600D01*
X004444Y000674D01*
X003950Y000674D01*
X003950Y000774D01*
X003850Y000774D01*
X003850Y001189D01*
X003487Y001189D01*
X003448Y001179D01*
X003414Y001159D01*
X003386Y001131D01*
X003367Y001097D01*
X003356Y001059D01*
X003356Y000774D01*
X003850Y000774D01*
X003850Y000674D01*
X003356Y000674D01*
X003356Y000600D01*
X002944Y000600D01*
X002944Y000674D01*
X002450Y000674D01*
X002450Y000774D01*
X002350Y000774D01*
X002350Y001189D01*
X001987Y001189D01*
X001948Y001179D01*
X001914Y001159D01*
X001886Y001131D01*
X001867Y001097D01*
X001856Y001059D01*
X001856Y000774D01*
X002350Y000774D01*
X002350Y000674D01*
X001856Y000674D01*
X001856Y000600D01*
X001444Y000600D01*
X001444Y000674D01*
X000950Y000674D01*
X000950Y000774D01*
X000850Y000774D01*
X000850Y001189D01*
X000600Y001189D01*
X000600Y001381D01*
X001348Y001381D01*
X001424Y001457D01*
X001424Y002195D01*
X001348Y002271D01*
X001110Y002271D01*
X001110Y002628D01*
X001252Y002770D01*
X001809Y002770D01*
X001885Y002846D01*
X001885Y003584D01*
X001809Y003660D01*
X000991Y003660D01*
X000915Y003584D01*
X000915Y003027D01*
X000813Y002925D01*
X000690Y002802D01*
X000690Y002271D01*
X000600Y002271D01*
X000600Y006696D01*
X005140Y006696D01*
X005020Y006575D01*
X004875Y006325D01*
X004800Y006045D01*
X004800Y005755D01*
X004875Y005475D01*
X005020Y005225D01*
X005225Y005020D01*
X005475Y004875D01*
X005755Y004800D01*
X006045Y004800D01*
X006325Y004875D01*
X006575Y005020D01*
X006695Y005139D01*
X006695Y003649D01*
X006604Y003870D01*
X006370Y004104D01*
X006065Y004230D01*
X005735Y004230D01*
X005430Y004104D01*
X005409Y004083D01*
X005292Y004180D01*
X004927Y004545D01*
X003885Y004545D01*
X003885Y004704D01*
X003809Y004780D01*
X002991Y004780D01*
X002915Y004704D01*
X002915Y004545D01*
X002885Y004545D01*
X002885Y004704D01*
X002809Y004780D01*
X001991Y004780D01*
X001915Y004704D01*
X001915Y004545D01*
X001885Y004545D01*
X001885Y004583D02*
X001915Y004583D01*
X001915Y004681D02*
X001885Y004681D01*
X001809Y004780D02*
X001991Y004780D01*
X001915Y004090D02*
X001885Y004090D01*
X001885Y003992D02*
X001915Y003992D01*
X001988Y003893D02*
X001812Y003893D01*
X001991Y003660D02*
X001915Y003584D01*
X001915Y002846D01*
X001991Y002770D01*
X002190Y002770D01*
X002190Y002271D01*
X001952Y002271D01*
X001876Y002195D01*
X001876Y001457D01*
X001952Y001381D01*
X002848Y001381D01*
X002924Y001457D01*
X002924Y002195D01*
X002848Y002271D01*
X002610Y002271D01*
X002610Y002770D01*
X002809Y002770D01*
X002885Y002846D01*
X002885Y003584D01*
X002809Y003660D01*
X001991Y003660D01*
X001929Y003598D02*
X001871Y003598D01*
X001885Y003499D02*
X001915Y003499D01*
X001915Y003401D02*
X001885Y003401D01*
X001885Y003302D02*
X001915Y003302D01*
X001915Y003204D02*
X001885Y003204D01*
X001885Y003105D02*
X001915Y003105D01*
X001915Y003007D02*
X001885Y003007D01*
X001885Y002908D02*
X001915Y002908D01*
X001952Y002810D02*
X001848Y002810D01*
X002190Y002711D02*
X001193Y002711D01*
X001110Y002613D02*
X002190Y002613D01*
X002190Y002514D02*
X001110Y002514D01*
X001110Y002416D02*
X002190Y002416D01*
X002190Y002317D02*
X001110Y002317D01*
X001400Y002219D02*
X001900Y002219D01*
X001876Y002120D02*
X001424Y002120D01*
X001424Y002022D02*
X001876Y002022D01*
X001876Y001923D02*
X001424Y001923D01*
X001424Y001825D02*
X001876Y001825D01*
X001876Y001726D02*
X001424Y001726D01*
X001424Y001628D02*
X001876Y001628D01*
X001876Y001529D02*
X001424Y001529D01*
X001397Y001431D02*
X001903Y001431D01*
X001890Y001135D02*
X001410Y001135D01*
X001414Y001131D02*
X001386Y001159D01*
X001352Y001179D01*
X001313Y001189D01*
X000950Y001189D01*
X000950Y000774D01*
X001444Y000774D01*
X001444Y001059D01*
X001433Y001097D01*
X001414Y001131D01*
X001444Y001037D02*
X001856Y001037D01*
X001856Y000938D02*
X001444Y000938D01*
X001444Y000840D02*
X001856Y000840D01*
X001856Y000643D02*
X001444Y000643D01*
X000950Y000741D02*
X002350Y000741D01*
X002350Y000840D02*
X002450Y000840D01*
X002450Y000774D02*
X002450Y001189D01*
X002813Y001189D01*
X002852Y001179D01*
X002886Y001159D01*
X002914Y001131D01*
X002933Y001097D01*
X002944Y001059D01*
X002944Y000774D01*
X002450Y000774D01*
X002450Y000741D02*
X003850Y000741D01*
X003850Y000840D02*
X003950Y000840D01*
X003950Y000774D02*
X003950Y001189D01*
X004313Y001189D01*
X004352Y001179D01*
X004386Y001159D01*
X004414Y001131D01*
X004433Y001097D01*
X004444Y001059D01*
X004444Y000774D01*
X003950Y000774D01*
X003950Y000741D02*
X005363Y000741D01*
X005259Y000840D02*
X004444Y000840D01*
X004444Y000938D02*
X005185Y000938D01*
X005131Y001037D02*
X004444Y001037D01*
X004410Y001135D02*
X005091Y001135D01*
X005065Y001234D02*
X000600Y001234D01*
X000600Y001332D02*
X005052Y001332D01*
X005060Y001529D02*
X004424Y001529D01*
X004424Y001457D02*
X004424Y002195D01*
X004348Y002271D01*
X004110Y002271D01*
X004110Y002802D01*
X003987Y002925D01*
X003885Y003027D01*
X003885Y003584D01*
X003809Y003660D01*
X002991Y003660D01*
X002915Y003584D01*
X002915Y002846D01*
X002991Y002770D01*
X003548Y002770D01*
X003690Y002628D01*
X003690Y002271D01*
X003452Y002271D01*
X003376Y002195D01*
X003376Y001457D01*
X003452Y001381D01*
X004348Y001381D01*
X004424Y001457D01*
X004397Y001431D02*
X005850Y001431D01*
X005850Y001529D02*
X005950Y001529D01*
X005950Y001628D02*
X005850Y001628D01*
X005850Y001726D02*
X005950Y001726D01*
X005950Y001825D02*
X005850Y001825D01*
X005850Y001923D02*
X005950Y001923D01*
X005950Y002022D02*
X005850Y002022D01*
X005850Y002120D02*
X005950Y002120D01*
X005950Y002219D02*
X005850Y002219D01*
X005671Y002219D02*
X004400Y002219D01*
X004424Y002120D02*
X005447Y002120D01*
X005319Y002022D02*
X004424Y002022D01*
X004424Y001923D02*
X005230Y001923D01*
X005164Y001825D02*
X004424Y001825D01*
X004424Y001726D02*
X005115Y001726D01*
X005081Y001628D02*
X004424Y001628D01*
X003950Y001135D02*
X003850Y001135D01*
X003850Y001037D02*
X003950Y001037D01*
X003950Y000938D02*
X003850Y000938D01*
X003390Y001135D02*
X002910Y001135D01*
X002944Y001037D02*
X003356Y001037D01*
X003356Y000938D02*
X002944Y000938D01*
X002944Y000840D02*
X003356Y000840D01*
X003356Y000643D02*
X002944Y000643D01*
X002450Y000938D02*
X002350Y000938D01*
X002350Y001037D02*
X002450Y001037D01*
X002450Y001135D02*
X002350Y001135D01*
X002897Y001431D02*
X003403Y001431D01*
X003376Y001529D02*
X002924Y001529D01*
X002924Y001628D02*
X003376Y001628D01*
X003376Y001726D02*
X002924Y001726D01*
X002924Y001825D02*
X003376Y001825D01*
X003376Y001923D02*
X002924Y001923D01*
X002924Y002022D02*
X003376Y002022D01*
X003376Y002120D02*
X002924Y002120D01*
X002900Y002219D02*
X003400Y002219D01*
X003690Y002317D02*
X002610Y002317D01*
X002610Y002416D02*
X003690Y002416D01*
X003690Y002514D02*
X002610Y002514D01*
X002610Y002613D02*
X003690Y002613D01*
X003607Y002711D02*
X002610Y002711D01*
X002848Y002810D02*
X002952Y002810D01*
X002915Y002908D02*
X002885Y002908D01*
X002885Y003007D02*
X002915Y003007D01*
X002915Y003105D02*
X002885Y003105D01*
X002885Y003204D02*
X002915Y003204D01*
X002915Y003302D02*
X002885Y003302D01*
X002885Y003401D02*
X002915Y003401D01*
X002915Y003499D02*
X002885Y003499D01*
X002871Y003598D02*
X002929Y003598D01*
X002988Y003893D02*
X002812Y003893D01*
X002885Y003992D02*
X002915Y003992D01*
X002915Y004090D02*
X002885Y004090D01*
X002885Y004583D02*
X002915Y004583D01*
X002915Y004681D02*
X002885Y004681D01*
X002809Y004780D02*
X002991Y004780D01*
X003809Y004780D02*
X006695Y004780D01*
X006695Y004878D02*
X006330Y004878D01*
X006500Y004977D02*
X006695Y004977D01*
X006695Y005075D02*
X006631Y005075D01*
X006695Y004681D02*
X003885Y004681D01*
X003885Y004583D02*
X006695Y004583D01*
X006695Y004484D02*
X004988Y004484D01*
X005086Y004386D02*
X006695Y004386D01*
X006695Y004287D02*
X005185Y004287D01*
X005283Y004189D02*
X005635Y004189D01*
X005416Y004090D02*
X005400Y004090D01*
X005099Y003795D02*
X000600Y003795D01*
X000600Y003696D02*
X005124Y003696D01*
X005083Y003598D02*
X003871Y003598D01*
X003885Y003499D02*
X005070Y003499D01*
X005070Y003401D02*
X003885Y003401D01*
X003885Y003302D02*
X005070Y003302D01*
X005083Y003204D02*
X003885Y003204D01*
X003885Y003105D02*
X005124Y003105D01*
X005165Y003007D02*
X003906Y003007D01*
X004004Y002908D02*
X005218Y002908D01*
X005317Y002810D02*
X004103Y002810D01*
X004110Y002711D02*
X005415Y002711D01*
X005632Y002613D02*
X004110Y002613D01*
X004110Y002514D02*
X006695Y002514D01*
X006695Y002416D02*
X004110Y002416D01*
X004110Y002317D02*
X006695Y002317D01*
X006695Y002219D02*
X006129Y002219D01*
X006353Y002120D02*
X006695Y002120D01*
X006695Y002022D02*
X006481Y002022D01*
X006570Y001923D02*
X006695Y001923D01*
X006695Y001825D02*
X006636Y001825D01*
X006685Y001726D02*
X006695Y001726D01*
X006695Y002613D02*
X006168Y002613D01*
X006385Y002711D02*
X006695Y002711D01*
X006695Y002810D02*
X006483Y002810D01*
X006582Y002908D02*
X006695Y002908D01*
X006695Y003007D02*
X006635Y003007D01*
X006676Y003105D02*
X006695Y003105D01*
X006676Y003696D02*
X006695Y003696D01*
X006695Y003795D02*
X006635Y003795D01*
X006581Y003893D02*
X006695Y003893D01*
X006695Y003992D02*
X006482Y003992D01*
X006384Y004090D02*
X006695Y004090D01*
X006695Y004189D02*
X006165Y004189D01*
X005470Y004878D02*
X000600Y004878D01*
X000600Y004780D02*
X000991Y004780D01*
X000915Y004681D02*
X000600Y004681D01*
X000600Y004583D02*
X000915Y004583D01*
X000915Y004484D02*
X000600Y004484D01*
X000600Y004386D02*
X000915Y004386D01*
X000915Y004287D02*
X000600Y004287D01*
X000600Y004189D02*
X000915Y004189D01*
X000915Y004090D02*
X000600Y004090D01*
X000600Y003992D02*
X000915Y003992D01*
X000988Y003893D02*
X000600Y003893D01*
X000600Y003598D02*
X000929Y003598D01*
X000915Y003499D02*
X000600Y003499D01*
X000600Y003401D02*
X000915Y003401D01*
X000915Y003302D02*
X000600Y003302D01*
X000600Y003204D02*
X000915Y003204D01*
X000915Y003105D02*
X000600Y003105D01*
X000600Y003007D02*
X000894Y003007D01*
X000796Y002908D02*
X000600Y002908D01*
X000600Y002810D02*
X000697Y002810D01*
X000690Y002711D02*
X000600Y002711D01*
X000600Y002613D02*
X000690Y002613D01*
X000690Y002514D02*
X000600Y002514D01*
X000600Y002416D02*
X000690Y002416D01*
X000690Y002317D02*
X000600Y002317D01*
X000850Y001135D02*
X000950Y001135D01*
X000950Y001037D02*
X000850Y001037D01*
X000850Y000938D02*
X000950Y000938D01*
X000950Y000840D02*
X000850Y000840D01*
X003812Y003893D02*
X004980Y003893D01*
X004887Y003992D02*
X003885Y003992D01*
X003885Y004090D02*
X004788Y004090D01*
X005300Y004977D02*
X000600Y004977D01*
X000600Y005075D02*
X005169Y005075D01*
X005071Y005174D02*
X000600Y005174D01*
X000600Y005272D02*
X004992Y005272D01*
X004936Y005371D02*
X000600Y005371D01*
X000600Y005469D02*
X004879Y005469D01*
X004850Y005568D02*
X000600Y005568D01*
X000600Y005666D02*
X004824Y005666D01*
X004800Y005765D02*
X000600Y005765D01*
X000600Y005863D02*
X004800Y005863D01*
X004800Y005962D02*
X000600Y005962D01*
X000600Y006060D02*
X004804Y006060D01*
X004830Y006159D02*
X000600Y006159D01*
X000600Y006257D02*
X004857Y006257D01*
X004893Y006356D02*
X000600Y006356D01*
X000600Y006454D02*
X004950Y006454D01*
X005007Y006553D02*
X000600Y006553D01*
X000600Y006651D02*
X005095Y006651D01*
X005512Y000643D02*
X004444Y000643D01*
M02*
