G75*
G70*
%OFA0B0*%
%FSLAX24Y24*%
%IPPOS*%
%LPD*%
%AMOC8*
5,1,8,0,0,1.08239X$1,22.5*
%
%ADD10C,0.0640*%
%ADD11C,0.0160*%
%ADD12C,0.0436*%
D10*
X004947Y006902D02*
X004947Y007542D01*
X005947Y007542D02*
X005947Y006902D01*
X006947Y006902D02*
X006947Y007542D01*
D11*
X001752Y006277D02*
X001752Y012538D01*
X008387Y012538D01*
X008387Y006277D01*
X001752Y006277D01*
X001752Y006414D02*
X006832Y006414D01*
X006830Y006414D02*
X006908Y006402D01*
X006927Y006402D01*
X006927Y007202D01*
X006447Y007202D01*
X006447Y006863D01*
X006460Y006785D01*
X006484Y006710D01*
X006520Y006640D01*
X006566Y006576D01*
X006621Y006521D01*
X006685Y006474D01*
X006755Y006439D01*
X006830Y006414D01*
X006927Y006414D02*
X006967Y006414D01*
X006967Y006402D02*
X006987Y006402D01*
X007064Y006414D01*
X007139Y006439D01*
X007209Y006474D01*
X007273Y006521D01*
X007329Y006576D01*
X007375Y006640D01*
X007411Y006710D01*
X007435Y006785D01*
X007447Y006863D01*
X007447Y007202D01*
X006967Y007202D01*
X006967Y006402D01*
X007062Y006414D02*
X008387Y006414D01*
X008387Y006572D02*
X007325Y006572D01*
X007417Y006731D02*
X008387Y006731D01*
X008387Y006889D02*
X007447Y006889D01*
X007447Y007048D02*
X008387Y007048D01*
X008387Y007206D02*
X006967Y007206D01*
X006967Y007202D02*
X006967Y007242D01*
X006927Y007242D01*
X006927Y007202D01*
X006967Y007202D01*
X006967Y007242D02*
X007447Y007242D01*
X007447Y007581D01*
X007435Y007659D01*
X007411Y007734D01*
X007375Y007804D01*
X007329Y007868D01*
X007273Y007923D01*
X007209Y007970D01*
X007139Y008005D01*
X007064Y008030D01*
X006987Y008042D01*
X006967Y008042D01*
X006967Y007242D01*
X006927Y007242D02*
X006927Y008042D01*
X006908Y008042D01*
X006830Y008030D01*
X006755Y008005D01*
X006685Y007970D01*
X006621Y007923D01*
X006566Y007868D01*
X006520Y007804D01*
X006484Y007734D01*
X006460Y007659D01*
X006447Y007581D01*
X006447Y007242D01*
X006927Y007242D01*
X006927Y007206D02*
X006427Y007206D01*
X006427Y007048D02*
X006447Y007048D01*
X006447Y006889D02*
X006427Y006889D01*
X006427Y006806D02*
X006427Y007637D01*
X006354Y007814D01*
X006219Y007949D01*
X006043Y008022D01*
X005852Y008022D01*
X005675Y007949D01*
X005540Y007814D01*
X005467Y007637D01*
X005467Y006806D01*
X005540Y006630D01*
X005675Y006495D01*
X005852Y006422D01*
X006043Y006422D01*
X006219Y006495D01*
X006354Y006630D01*
X006427Y006806D01*
X006396Y006731D02*
X006477Y006731D01*
X006570Y006572D02*
X006297Y006572D01*
X006927Y006572D02*
X006967Y006572D01*
X006967Y006731D02*
X006927Y006731D01*
X006927Y006889D02*
X006967Y006889D01*
X006967Y007048D02*
X006927Y007048D01*
X006927Y007365D02*
X006967Y007365D01*
X006967Y007523D02*
X006927Y007523D01*
X006927Y007682D02*
X006967Y007682D01*
X006967Y007840D02*
X006927Y007840D01*
X006927Y007999D02*
X006967Y007999D01*
X007152Y007999D02*
X008387Y007999D01*
X008387Y007840D02*
X007348Y007840D01*
X007427Y007682D02*
X008387Y007682D01*
X008387Y007523D02*
X007447Y007523D01*
X007447Y007365D02*
X008387Y007365D01*
X008387Y008157D02*
X001752Y008157D01*
X001752Y008316D02*
X008387Y008316D01*
X008387Y008474D02*
X001752Y008474D01*
X001752Y008633D02*
X008387Y008633D01*
X008387Y008791D02*
X001752Y008791D01*
X001752Y008950D02*
X008387Y008950D01*
X008387Y009108D02*
X001752Y009108D01*
X001752Y009267D02*
X008387Y009267D01*
X008387Y009425D02*
X001752Y009425D01*
X001752Y009584D02*
X008387Y009584D01*
X008387Y009742D02*
X001752Y009742D01*
X001752Y009901D02*
X008387Y009901D01*
X008387Y010059D02*
X001752Y010059D01*
X001752Y010218D02*
X008387Y010218D01*
X008387Y010376D02*
X001752Y010376D01*
X001752Y010535D02*
X008387Y010535D01*
X008387Y010693D02*
X007664Y010693D01*
X007804Y010751D02*
X007491Y010622D01*
X007372Y010622D01*
X007153Y010622D01*
X006841Y010751D01*
X006841Y010751D01*
X006602Y010990D01*
X006602Y010990D01*
X006472Y011303D01*
X006472Y011641D01*
X006602Y011953D01*
X006602Y011953D01*
X006841Y012192D01*
X006841Y012192D01*
X007153Y012322D01*
X007491Y012322D01*
X007804Y012192D01*
X007804Y012192D01*
X008043Y011953D01*
X008043Y011953D01*
X008172Y011641D01*
X008172Y011303D01*
X008043Y010990D01*
X008043Y010990D01*
X007804Y010751D01*
X007804Y010751D01*
X007904Y010852D02*
X008387Y010852D01*
X008387Y011010D02*
X008051Y011010D01*
X008117Y011169D02*
X008387Y011169D01*
X008387Y011327D02*
X008172Y011327D01*
X008172Y011486D02*
X008387Y011486D01*
X008387Y011644D02*
X008171Y011644D01*
X008105Y011803D02*
X008387Y011803D01*
X008387Y011961D02*
X008035Y011961D01*
X007876Y012120D02*
X008387Y012120D01*
X008387Y012278D02*
X007596Y012278D01*
X007048Y012278D02*
X001752Y012278D01*
X001752Y012437D02*
X008387Y012437D01*
X007491Y010622D02*
X007491Y010622D01*
X006981Y010693D02*
X001752Y010693D01*
X001752Y010852D02*
X006740Y010852D01*
X006593Y011010D02*
X001752Y011010D01*
X001752Y011169D02*
X006528Y011169D01*
X006472Y011327D02*
X001752Y011327D01*
X001752Y011486D02*
X006472Y011486D01*
X006474Y011644D02*
X001752Y011644D01*
X001752Y011803D02*
X006539Y011803D01*
X006610Y011961D02*
X001752Y011961D01*
X001752Y012120D02*
X006768Y012120D01*
X005043Y008022D02*
X004852Y008022D01*
X004675Y007949D01*
X004540Y007814D01*
X004467Y007637D01*
X004467Y006806D01*
X004540Y006630D01*
X004675Y006495D01*
X004852Y006422D01*
X005043Y006422D01*
X005219Y006495D01*
X005354Y006630D01*
X005427Y006806D01*
X005427Y007637D01*
X005354Y007814D01*
X005219Y007949D01*
X005043Y008022D01*
X005098Y007999D02*
X005796Y007999D01*
X005567Y007840D02*
X005328Y007840D01*
X005409Y007682D02*
X005486Y007682D01*
X005467Y007523D02*
X005427Y007523D01*
X005427Y007365D02*
X005467Y007365D01*
X005467Y007206D02*
X005427Y007206D01*
X005427Y007048D02*
X005467Y007048D01*
X005467Y006889D02*
X005427Y006889D01*
X005396Y006731D02*
X005498Y006731D01*
X005598Y006572D02*
X005297Y006572D01*
X004598Y006572D02*
X001752Y006572D01*
X001752Y006731D02*
X004498Y006731D01*
X004467Y006889D02*
X001752Y006889D01*
X001752Y007048D02*
X004467Y007048D01*
X004467Y007206D02*
X001752Y007206D01*
X001752Y007365D02*
X004467Y007365D01*
X004467Y007523D02*
X001752Y007523D01*
X001752Y007682D02*
X004486Y007682D01*
X004567Y007840D02*
X001752Y007840D01*
X001752Y007999D02*
X004796Y007999D01*
X006098Y007999D02*
X006743Y007999D01*
X006546Y007840D02*
X006328Y007840D01*
X006409Y007682D02*
X006467Y007682D01*
X006447Y007523D02*
X006427Y007523D01*
X006427Y007365D02*
X006447Y007365D01*
X003447Y006847D02*
X003072Y006847D01*
D12*
X003072Y006847D03*
X003752Y008667D03*
M02*
